<?xml version="1.0" encoding="UTF-8"?>
<svg width="23px" height="23px" viewBox="0 0 23 23" version="1.1" xmlns="http://www.w3.org/2000/svg" xmlns:xlink="http://www.w3.org/1999/xlink">
    <g id="Page-1" stroke="none" stroke-width="1" fill="none" fill-rule="evenodd">
        <g id="icn_twitter" fill="#000000">
            <path d="M20.890612,5.83269446 C20.1953314,6.14369508 19.4493053,6.35461215 18.6654671,6.44877544 C19.4658192,5.96496554 20.0784687,5.19757517 20.3688351,4.28597973 C19.6180864,4.7340188 18.7893984,5.05935268 17.9064151,5.23571411 C17.1993433,4.47427517 16.1936018,4 15.0780661,4 C12.9379291,4 11.2026754,5.75168038 11.2026754,7.91089278 C11.2026754,8.21712603 11.236907,8.51622381 11.3030243,8.8022347 C8.08278699,8.63896015 5.22730582,7.08152663 3.31617159,4.71494933 C2.98209736,5.29170731 2.79204885,5.96375033 2.79204885,6.68113008 C2.79204885,8.03839649 3.47671118,9.23597166 4.51551134,9.93661888 C3.88042151,9.91518131 3.28311296,9.73881987 2.76019404,9.44567351 L2.76019404,9.49453124 C2.76019404,11.3892015 4.09646008,12.9704718 5.86829126,13.3303613 C5.54366235,13.4185421 5.20134662,13.4673998 4.8472088,13.4673998 C4.59696952,13.4673998 4.35497174,13.4423789 4.11769662,13.3947052 C4.61110663,14.9497706 6.04182589,16.0806027 7.73695242,16.1116061 C6.41130464,17.16024 4.73979142,17.7834565 2.92428335,17.7834565 C2.61147653,17.7834565 2.3033615,17.764387 2,17.7298314 C3.71519012,18.8416251 5.75145943,19.4898624 7.93999596,19.4898624 C15.0686825,19.4898624 18.9653406,13.5293756 18.9653406,8.36014705 L18.9523456,7.85371552 C19.7137126,7.30553058 20.3723848,6.6167862 20.890612,5.83269446 L20.890612,5.83269446 Z" id="t"></path>
        </g>
    </g>
</svg>