<?xml version="1.0" encoding="UTF-8"?>
<svg width="23px" height="23px" viewBox="0 0 23 23" version="1.1" xmlns="http://www.w3.org/2000/svg" xmlns:xlink="http://www.w3.org/1999/xlink">
    <g id="Page-1" stroke="none" stroke-width="1" fill="none" fill-rule="evenodd">
        <g id="icn_mail" fill="#000000">
            <path d="M17.078,12.776 C16.07,12.776 16.007,11.894 16.007,11.894 L16.007,7.505 L13.508,7.505 L13.508,8.282 C12.857,7.652 11.954,7.274 10.862,7.274 C8.552,7.274 6.893,9.164 6.893,11.537 C6.893,13.889 8.552,15.758 10.862,15.758 C11.975,15.758 12.92,15.275 13.508,14.624 L13.697,14.351 C14.39,14.939 15.482,15.317 16.616,15.317 C18.674,15.317 20.879,13.994 20.879,10.718 C20.879,5.762 16.847,2.36 11.933,2.36 C6.809,2.36 2.483,5.993 2.483,11.327 C2.483,16.661 6.809,20.315 11.933,20.315 C16.469,20.315 18.296,17.522 18.296,17.522 L15.86,15.905 C15.86,15.905 14.705,17.333 11.933,17.333 C8.426,17.333 5.549,14.75 5.549,11.327 C5.549,7.904 8.363,5.111 11.933,5.111 C15.587,5.111 18.38,7.421 18.38,10.718 C18.38,12.272 17.981,12.776 17.078,12.776 L17.078,12.776 Z M10.148,11.495 C10.148,10.508 10.904,9.773 11.849,9.773 C12.752,9.773 13.508,10.508 13.508,11.495 C13.508,12.461 12.794,13.175 11.849,13.175 C10.841,13.175 10.148,12.461 10.148,11.495 L10.148,11.495 Z" id="@"></path>
        </g>
    </g>
</svg>