<svg width="500" height="500" viewBox="0 0 500 500" version="1.1" xmlns="http://www.w3.org/2000/svg" xmlns:xlink="http://www.w3.org/1999/xlink" xmlns:figma="http://www.figma.com/figma/ns">
<title>Group</title>
<desc>Created using Figma</desc>
<g id="Canvas" transform="translate(404 266)" figma:type="canvas">
<g id="Group" style="mix-blend-mode:normal;" figma:type="frame">
<g id="Logo" style="mix-blend-mode:normal;isolation:isolate;" figma:type="frame">
<g id="Vector" style="mix-blend-mode:normal;" figma:type="vector">
<use xlink:href="#path0_stroke" transform="translate(-262.4 -81.55)" style="mix-blend-mode:normal;"/>
</g>
<g id="Oval" style="mix-blend-mode:normal;" figma:type="vector">
<use xlink:href="#path1_fill" transform="translate(-103.4 -5.95)" style="mix-blend-mode:normal;"/>
</g>
<g id="Oval-Copy" style="mix-blend-mode:normal;" figma:type="vector">
<use xlink:href="#path1_fill" transform="translate(-208.4 -17.95)" style="mix-blend-mode:normal;"/>
</g>
<g id="Oval-Copy-2" style="mix-blend-mode:normal;" figma:type="vector">
<use xlink:href="#path1_fill" transform="translate(-204.4 -43.95)" style="mix-blend-mode:normal;"/>
</g>
<g id="Oval-Copy-4" style="mix-blend-mode:normal;" figma:type="vector">
<use xlink:href="#path1_fill" transform="translate(-100.4 -29.95)" style="mix-blend-mode:normal;"/>
</g>
<g id="Oval-Copy-3" style="mix-blend-mode:normal;" figma:type="vector">
<use xlink:href="#path1_fill" transform="translate(-222.4 -43.95)" style="mix-blend-mode:normal;"/>
</g>
<g id="Oval-Copy-5" style="mix-blend-mode:normal;" figma:type="vector">
<use xlink:href="#path1_fill" transform="translate(-118.4 -29.95)" style="mix-blend-mode:normal;"/>
</g>
<g id="iterativintuitiv" style="mix-blend-mode:normal;" figma:type="vector">
<use xlink:href="#path2_fill" transform="translate(-265 57.15)" style="mix-blend-mode:normal;"/>
</g>
</g>
<mask id="mask0_alpha" mask-type="alpha">
<path d="M -404 -266L 96 -266L 96 234L -404 234L -404 -266Z" fill="#FFFFFF"/>
</mask>
<g id="episode4" style="mix-blend-mode:normal;isolation:isolate;" mask="url(#mask0_alpha)" figma:type="frame">
<g id="Vector 27" style="mix-blend-mode:normal;" figma:type="vector">
<use xlink:href="#path3_stroke" transform="translate(-262.667 49)" fill="#FFFFFF" style="mix-blend-mode:normal;"/>
</g>
<g id="Vector 27" style="mix-blend-mode:normal;" figma:type="vector">
<use xlink:href="#path4_stroke" transform="translate(-161 49)" fill="#FFFFFF" style="mix-blend-mode:normal;"/>
</g>
<g id="Vector 27" style="mix-blend-mode:normal;" figma:type="vector">
<use xlink:href="#path5_stroke" transform="translate(-54.2385 48.5)" fill="#FFFFFF" style="mix-blend-mode:normal;"/>
</g>
<g id="Vector 27" style="mix-blend-mode:normal;" figma:type="vector">
<use xlink:href="#path6_stroke" transform="translate(-109 211)" fill="#FFFFFF" style="mix-blend-mode:normal;"/>
</g>
<g id="Vector 27" style="mix-blend-mode:normal;" figma:type="vector">
<use xlink:href="#path6_stroke" transform="translate(-101 221)" fill="#FFFFFF" style="mix-blend-mode:normal;"/>
</g>
<g id="Vector 27" style="mix-blend-mode:normal;" figma:type="vector">
<use xlink:href="#path6_stroke" transform="translate(-219 211)" fill="#FFFFFF" style="mix-blend-mode:normal;"/>
</g>
<g id="Vector 27" style="mix-blend-mode:normal;" figma:type="vector">
<use xlink:href="#path6_stroke" transform="translate(-129 131)" fill="#FFFFFF" style="mix-blend-mode:normal;"/>
</g>
<g id="Vector 27" style="mix-blend-mode:normal;" figma:type="vector">
<use xlink:href="#path6_stroke" transform="translate(-239 131)" fill="#FFFFFF" style="mix-blend-mode:normal;"/>
</g>
<g id="Vector 27" style="mix-blend-mode:normal;" figma:type="vector">
<use xlink:href="#path6_stroke" transform="translate(-211 221)" fill="#FFFFFF" style="mix-blend-mode:normal;"/>
</g>
<g id="Vector 28" style="mix-blend-mode:normal;" figma:type="vector">
<use xlink:href="#path7_stroke" transform="translate(-235.5 -246.5)" fill="#FFFFFF" style="mix-blend-mode:normal;"/>
</g>
<g id="Ellipse 6" style="mix-blend-mode:normal;" figma:type="ellipse">
<mask id="mask1_outline_ins">
<use xlink:href="#path8_fill" fill="white" transform="translate(-48 -82)"/>
</mask>
<g mask="url(#mask1_outline_ins)">
<use xlink:href="#path9_stroke_2x" transform="translate(-48 -82)" fill="#FFFFFF" style="mix-blend-mode:normal;"/>
</g>
</g>
<g id="Ellipse 6" style="mix-blend-mode:normal;" figma:type="ellipse">
<mask id="mask2_outline_ins">
<use xlink:href="#path10_fill" fill="white" transform="translate(-8 -42)"/>
</mask>
<g mask="url(#mask2_outline_ins)">
<use xlink:href="#path11_stroke_2x" transform="translate(-8 -42)" fill="#FFFFFF" style="mix-blend-mode:normal;"/>
</g>
</g>
<g id="Ellipse 6" style="mix-blend-mode:normal;" figma:type="ellipse">
<mask id="mask3_outline_ins">
<use xlink:href="#path10_fill" fill="white" transform="translate(-338 -192)"/>
</mask>
<g mask="url(#mask3_outline_ins)">
<use xlink:href="#path11_stroke_2x" transform="translate(-338 -192)" fill="#FFFFFF" style="mix-blend-mode:normal;"/>
</g>
</g>
<g id="Vector 29" style="mix-blend-mode:normal;" figma:type="vector">
<use xlink:href="#path12_stroke" transform="translate(-374.185 -49)" fill="#FFFFFF" style="mix-blend-mode:normal;"/>
</g>
<g id="Vector 29" style="mix-blend-mode:normal;" figma:type="vector">
<use xlink:href="#path12_stroke" transform="translate(-4.18451 1)" fill="#FFFFFF" style="mix-blend-mode:normal;"/>
</g>
<g id="Vector 29" style="mix-blend-mode:normal;" figma:type="vector">
<use xlink:href="#path13_stroke" transform="matrix(0.972834 -0.231502 0.231502 0.972834 -318.843 -43.2686)" fill="#FFFFFF" style="mix-blend-mode:normal;"/>
</g>
<g id="Vector 29" style="mix-blend-mode:normal;" figma:type="vector">
<use xlink:href="#path14_stroke" transform="translate(-355.5 -101)" fill="#FFFFFF" style="mix-blend-mode:normal;"/>
</g>
<g id="Vector 30" style="mix-blend-mode:normal;" figma:type="vector">
<use xlink:href="#path15_stroke" transform="translate(-132.674 -19)" fill="#FFFFFF" style="mix-blend-mode:normal;"/>
</g>
<g id="Vector 30" style="mix-blend-mode:normal;" figma:type="vector">
<use xlink:href="#path16_stroke" transform="matrix(-1 0 0 1 -85 -12)" fill="#FFFFFF" style="mix-blend-mode:normal;"/>
</g>
<g id="Vector 31" style="mix-blend-mode:normal;" figma:type="vector">
<use xlink:href="#path17_stroke" transform="translate(-271.704 -131.324)" fill="#FFFFFF" style="mix-blend-mode:normal;"/>
</g>
<g id="Vector 32" style="mix-blend-mode:normal;" figma:type="vector">
<use xlink:href="#path18_stroke" transform="translate(0 20)" fill="#FFFFFF" style="mix-blend-mode:normal;"/>
</g>
<g id="Vector 33" style="mix-blend-mode:normal;" figma:type="vector">
<use xlink:href="#path19_stroke" transform="translate(-38 -212.5)" fill="#FFFFFF" style="mix-blend-mode:normal;"/>
</g>
</g>
</g>
</g>
<defs>
<path id="path0_stroke" d="M 101 130.7C 101 131.252 101.448 131.7 102 131.7C 102.552 131.7 103 131.252 103 130.7L 101 130.7ZM 62.5 84.7L 61.5 84.7C 61.5 85.2523 61.9477 85.7 62.5 85.7L 62.5 84.7ZM 63.5 76.1C 63.5 75.5477 63.0523 75.1 62.5 75.1C 61.9477 75.1 61.5 75.5477 61.5 76.1L 63.5 76.1ZM 72 46.9C 72 47.4523 72.4477 47.9 73 47.9C 73.5523 47.9 74 47.4523 74 46.9L 72 46.9ZM 28.1 47C 28.1 47.5523 28.5477 48 29.1 48C 29.6523 48 30.1 47.5523 30.1 47L 28.1 47ZM 40.5 76.6C 40.5 76.0477 40.0523 75.6 39.5 75.6C 38.9477 75.6 38.5 76.0477 38.5 76.6L 40.5 76.6ZM 39.5 84.7L 39.5 85.7C 40.0523 85.7 40.5 85.2523 40.5 84.7L 39.5 84.7ZM -1 130.7C -1 131.252 -0.552285 131.7 0 131.7C 0.552285 131.7 1 131.252 1 130.7L -1 130.7ZM 207 130.7C 207 131.252 207.448 131.7 208 131.7C 208.552 131.7 209 131.252 209 130.7L 207 130.7ZM 167.5 93.7L 166.5 93.7C 166.5 94.2523 166.948 94.7 167.5 94.7L 167.5 93.7ZM 168.5 84.2C 168.5 83.6477 168.052 83.2 167.5 83.2C 166.948 83.2 166.5 83.6477 166.5 84.2L 168.5 84.2ZM 143.5 84.5C 143.5 83.9477 143.052 83.5 142.5 83.5C 141.948 83.5 141.5 83.9477 141.5 84.5L 143.5 84.5ZM 142.5 93.8L 142.5 94.8C 143.052 94.8 143.5 94.3523 143.5 93.8L 142.5 93.8ZM 101 130.8C 101 131.352 101.448 131.8 102 131.8C 102.552 131.8 103 131.352 103 130.8L 101 130.8ZM 28.1013 48.8171C 28.6078 49.0373 29.1969 48.8052 29.4171 48.2987C 29.6373 47.7923 29.4052 47.2032 28.8987 46.9829L 28.1013 48.8171ZM 23.8 41.4L 24.2856 42.2742C 24.2905 42.2714 24.2954 42.2687 24.3003 42.2659L 23.8 41.4ZM 25.2 36.5L 25.7958 35.6969C 25.6199 35.5663 25.4059 35.4972 25.1868 35.5001L 25.2 36.5ZM 21 32.6L 21.7619 33.2476C 21.7684 33.2401 21.7747 33.2324 21.7809 33.2247L 21 32.6ZM 24.2 29.7L 24.6903 30.5716C 24.9554 30.4224 25.1382 30.1607 25.187 29.8605C 25.2359 29.5602 25.1453 29.2541 24.9411 29.0286L 24.2 29.7ZM 30 16.2L 29.3492 16.9593C 29.7412 17.2953 30.3246 17.2776 30.6955 16.9185C 31.0665 16.5594 31.1031 15.9769 30.78 15.5742L 30 16.2ZM 32.8 4.7L 33.5782 4.07198C 33.3232 3.75604 32.9025 3.62561 32.5136 3.7419L 32.8 4.7ZM 39.9 6.99999L 40.7056 7.59238C 41.0076 7.18175 40.9524 6.60974 40.5775 6.26444L 39.9 6.99999ZM 60 7.40001L 59.1056 7.84722C 59.3363 8.30867 59.8802 8.51886 60.3613 8.33247L 60 7.40001ZM 74.6 7.7L 75.4576 8.21453L 75.4634 8.20457L 74.6 7.7ZM 71.3 14.7L 70.3541 14.3757C 70.2381 14.7138 70.3115 15.0882 70.5465 15.3575C 70.7816 15.6268 71.1425 15.7502 71.4933 15.6811L 71.3 14.7ZM 79.3 14.9L 80.04 14.2273L 80.0311 14.2177L 79.3 14.9ZM 77.8 21.8L 76.8817 21.4042C 76.7195 21.7804 76.8032 22.2174 77.0929 22.5071L 77.8 21.8ZM 80.4 30.8L 79.87 31.648C 80.0934 31.7876 80.3628 31.8335 80.6198 31.7755L 80.4 30.8ZM 80.5 37.5L 80.3725 36.5082C 80.0145 36.5542 79.7091 36.7895 79.5734 37.124C 79.4377 37.4584 79.4927 37.84 79.7174 38.1225L 80.5 37.5ZM 76 44.5L 76.1961 43.5194C 75.7922 43.4386 75.3801 43.6138 75.1579 43.9606C 74.9358 44.3075 74.949 44.755 75.1913 45.0882L 76 44.5ZM 71.5194 52.3039C 71.4111 52.8454 71.7623 53.3723 72.3039 53.4806C 72.8454 53.5889 73.3723 53.2377 73.4806 52.6961L 71.5194 52.3039ZM 29 46.7L 29.9401 46.3592C 29.7703 45.8906 29.2812 45.6186 28.7934 45.7216C 28.3057 45.8245 27.9683 46.271 28.0023 46.7683L 29 46.7ZM 33.3 57.2L 34.1824 56.7294C 34.1791 56.7234 34.1759 56.7174 34.1725 56.7114L 33.3 57.2ZM 37 62.6L 36.1975 63.1967C 36.4048 63.4754 36.7418 63.6266 37.0878 63.5961C 37.4337 63.5657 37.7391 63.3579 37.8944 63.0472L 37 62.6ZM 48 55.6L 48 54.6C 47.6852 54.6 47.3889 54.7482 47.2 55L 48 55.6ZM 53 55.6L 53.8 55C 53.6111 54.7482 53.3148 54.6 53 54.6L 53 55.6ZM 65 62.6L 64.1808 63.1735C 64.4833 63.6056 65.0694 63.7285 65.5199 63.4542L 65 62.6ZM 69.4 57.5L 70.2697 57.9936L 70.2716 57.9902L 69.4 57.5ZM 71.4 61.4L 70.4306 61.1546L 70.4299 61.1575L 71.4 61.4ZM 62.4 75.9L 62.7624 76.832C 62.7682 76.8298 62.7739 76.8275 62.7796 76.8252L 62.4 75.9ZM 38.9 75.6L 39.5402 74.8318L 39.5369 74.829L 38.9 75.6ZM 31.5 61.4L 30.5346 61.6609C 30.5363 61.6669 30.5379 61.6729 30.5397 61.6788L 31.5 61.4ZM 134 60.6L 134.85 60.0726C 134.593 59.6587 134.075 59.4901 133.623 59.6736C 133.172 59.8571 132.919 60.3392 133.023 60.815L 134 60.6ZM 143 75.1L 142.15 75.6274C 142.368 75.9775 142.777 76.1584 143.183 76.0832C 143.588 76.0079 143.905 75.6919 143.982 75.2871L 143 75.1ZM 144.5 70.1L 143.757 69.431L 143.747 69.4415L 144.5 70.1ZM 151.4 67.6L 151.988 66.7913C 151.749 66.6172 151.445 66.5581 151.157 66.6298L 151.4 67.6ZM 156.6 67.6L 156.778 66.6159C 156.509 66.5674 156.232 66.6308 156.012 66.7913L 156.6 67.6ZM 164.9 70.1L 165.653 69.4415C 165.647 69.4357 165.642 69.4299 165.637 69.4243L 164.9 70.1ZM 166 75.1L 165.005 75.1948C 165.044 75.6132 165.342 75.962 165.748 76.0678C 166.155 76.1736 166.585 76.0137 166.823 75.6677L 166 75.1ZM 176 60.6L 176.982 60.7871C 177.071 60.3227 176.822 59.8597 176.386 59.6774C 175.95 59.495 175.445 59.6431 175.177 60.0323L 176 60.6ZM 172.2 75.1L 173.109 75.5167L 173.112 75.5104L 172.2 75.1ZM 167.5 84.1L 168.262 84.7472C 168.267 84.7417 168.272 84.7362 168.276 84.7306L 167.5 84.1ZM 137.6 75.1L 136.651 75.4162C 136.654 75.4237 136.656 75.4312 136.659 75.4387L 137.6 75.1ZM 133.8 40.4L 134.777 40.6113C 134.779 40.6024 134.781 40.5933 134.783 40.5843L 133.8 40.4ZM 136.5 34.7L 137.137 33.929C 136.911 33.7423 136.614 33.6642 136.326 33.7153C 136.037 33.7665 135.785 33.9418 135.637 34.1948L 136.5 34.7ZM 143.4 40.4L 142.763 41.171C 142.991 41.3595 143.291 41.4372 143.582 41.3832L 143.4 40.4ZM 176 40.4L 176.999 40.3468C 176.989 40.1712 176.934 40.0011 176.838 39.8537L 176 40.4ZM 176.9 57.3L 175.901 57.3532C 175.927 57.8332 176.291 58.2272 176.767 58.2911C 177.243 58.3551 177.698 58.0709 177.849 57.6146L 176.9 57.3ZM 168 20.1L 168.107 19.1056L 168.096 19.1046L 168 20.1ZM 161.2 18.9L 160.811 19.8213C 160.817 19.8237 160.823 19.8261 160.829 19.8285L 161.2 18.9ZM 152 12.6L 152.683 11.87C 152.449 11.6509 152.124 11.5572 151.81 11.6183C 151.495 11.6793 151.228 11.8875 151.093 12.1783L 152 12.6ZM 150 16.9L 149.697 17.8531C 150.177 18.0054 150.695 17.7778 150.907 17.3217L 150 16.9ZM 141.5 14.2L 141.803 13.2469C 141.513 13.155 141.198 13.1996 140.945 13.3681C 140.692 13.5366 140.53 13.8108 140.504 14.1134L 141.5 14.2ZM 140.5 18L 141.376 18.4826L 141.382 18.4706L 140.5 18ZM 132.8 54.5L 133.752 54.193L 133.749 54.1838L 132.8 54.5ZM 62.9284 86.5036C 63.4275 86.267 63.6402 85.6706 63.4036 85.1716C 63.167 84.6725 62.5706 84.4598 62.0716 84.6964L 62.9284 86.5036ZM 50.9 91.1L 50.4178 91.976C 50.6993 92.131 51.0381 92.1412 51.3284 92.0036L 50.9 91.1ZM 40.4822 84.2239C 39.9984 83.9576 39.3903 84.1339 39.124 84.6178C 38.8576 85.1016 39.0339 85.7097 39.5178 85.976L 40.4822 84.2239ZM 40.6979 80.3198C 40.1566 80.2105 39.6291 80.5607 39.5198 81.1021C 39.4105 81.6434 39.7607 82.1709 40.3021 82.2802L 40.6979 80.3198ZM 50.9 83.4L 50.7021 84.3802C 50.8351 84.4071 50.9722 84.4066 51.1051 84.3788L 50.9 83.4ZM 61.6051 82.1787C 62.1456 82.0655 62.492 81.5355 62.3787 80.9949C 62.2655 80.4544 61.7355 80.108 61.1949 80.2213L 61.6051 82.1787ZM 143.555 93.2679C 143.095 92.9616 142.474 93.0858 142.168 93.5453C 141.862 94.0048 141.986 94.6257 142.445 94.932L 143.555 93.2679ZM 167.555 94.932C 168.014 94.6257 168.138 94.0048 167.832 93.5453C 167.526 93.0858 166.905 92.9616 166.445 93.2679L 167.555 94.932ZM 52 83.6C 52 83.0477 51.5523 82.6 51 82.6C 50.4477 82.6 50 83.0477 50 83.6L 52 83.6ZM 50 130.6C 50 131.152 50.4477 131.6 51 131.6C 51.5523 131.6 52 131.152 52 130.6L 50 130.6ZM 174.916 61.2211C 174.817 61.7645 175.178 62.2851 175.721 62.3839C 176.264 62.4827 176.785 62.1223 176.884 61.5789L 174.916 61.2211ZM 177.684 57.1789C 177.783 56.6355 177.422 56.1149 176.879 56.0161C 176.336 55.9173 175.815 56.2777 175.716 56.8211L 177.684 57.1789ZM 133.988 54.4479C 133.904 53.9021 133.394 53.5276 132.848 53.6116C 132.302 53.6956 131.928 54.2062 132.012 54.7521L 133.988 54.4479ZM 133.012 61.2521C 133.096 61.7979 133.606 62.1723 134.152 62.0884C 134.698 62.0044 135.072 61.4938 134.988 60.9479L 133.012 61.2521ZM 103 130.7L 103 121.7L 101 121.7L 101 130.7L 103 130.7ZM 103 121.7C 103 108.534 99.5535 98.9639 92.6331 92.7082C 85.7333 86.4711 75.5664 83.7 62.5 83.7L 62.5 85.7C 75.3336 85.7 84.9167 88.4289 91.2919 94.1918C 97.6465 99.9361 101 108.866 101 121.7L 103 121.7ZM 63.5 84.7L 63.5 76.1L 61.5 76.1L 61.5 84.7L 63.5 84.7ZM 74 46.9C 74 46.5 74 46 74 45.6L 72 45.6C 72 46 72 46.5 72 46.9L 74 46.9ZM 74 45.6C 74 36.7112 72.9286 28.7316 69.4974 22.952C 66.0048 17.0691 60.1513 13.6 51 13.6L 51 15.6C 59.5487 15.6 64.6952 18.7809 67.7776 23.973C 70.9214 29.2683 72 36.7888 72 45.6L 74 45.6ZM 51 13.6C 41.8041 13.6 35.9849 17.4571 32.5378 23.6778C 29.1474 29.7961 28.1 38.11 28.1 47L 30.1 47C 30.1 38.19 31.1526 30.3039 34.2872 24.6472C 37.3651 19.0929 42.4959 15.6 51 15.6L 51 13.6ZM 38.5 76.6L 38.5 84.7L 40.5 84.7L 40.5 76.6L 38.5 76.6ZM 39.5 83.7C 26.6298 83.7 16.4669 86.4727 9.51969 92.7057C 2.55092 98.958 -1 108.526 -1 121.7L 1 121.7C 1 108.874 4.44908 99.942 10.8553 94.1943C 17.2831 88.4273 26.8702 85.7 39.5 85.7L 39.5 83.7ZM -1 121.7L -1 130.7L 1 130.7L 1 121.7L -1 121.7ZM 209 130.7C 209 117.494 205.03 107.93 197.738 101.69C 190.474 95.4752 180.076 92.7 167.5 92.7L 167.5 94.7C 179.824 94.7 189.676 97.4248 196.437 103.21C 203.17 108.97 207 117.906 207 130.7L 209 130.7ZM 168.5 93.7L 168.5 84.2L 166.5 84.2L 166.5 93.7L 168.5 93.7ZM 141.5 84.5L 141.5 93.8L 143.5 93.8L 143.5 84.5L 141.5 84.5ZM 142.5 92.8C 129.629 92.8 119.226 95.5729 112.033 101.794C 104.813 108.038 101 117.606 101 130.8L 103 130.8C 103 117.994 106.687 109.062 113.342 103.306C 120.024 97.5271 129.871 94.8 142.5 94.8L 142.5 92.8ZM 28.5 47.9C 28.8987 46.9829 28.8989 46.983 28.899 46.9831C 28.899 46.9831 28.8991 46.9831 28.899 46.9831C 28.8989 46.983 28.8988 46.983 28.8985 46.9829C 28.8977 46.9825 28.8967 46.9821 28.895 46.9813C 28.8911 46.9796 28.8861 46.9774 28.8785 46.974C 28.8623 46.9669 28.84 46.9569 28.8091 46.943C 28.7451 46.9141 28.6557 46.8733 28.5393 46.8185C 28.3021 46.7068 27.979 46.55 27.596 46.3497C 26.8208 45.9447 25.8822 45.4092 25.0653 44.7896C 24.2101 44.1436 23.7167 43.5716 23.5894 43.1689C 23.5425 43.0203 23.5573 42.9361 23.5995 42.854C 23.6567 42.7426 23.824 42.5306 24.2856 42.2742L 23.3144 40.5259C 22.651 40.8944 22.1214 41.3543 21.8205 41.9401C 21.5044 42.5553 21.4997 43.1938 21.6825 43.7718C 22.0145 44.8221 22.9774 45.719 23.8597 46.3854C 24.7803 47.0783 25.8604 47.699 26.6696 48.1222C 27.0788 48.336 27.4393 48.5112 27.6876 48.6281C 27.814 48.6875 27.9179 48.735 27.9865 48.766C 28.0218 48.7819 28.0506 48.7948 28.069 48.8029C 28.0786 48.8072 28.0867 48.8107 28.0917 48.8129C 28.0944 48.8141 28.0968 48.8151 28.0981 48.8157C 28.0989 48.8161 28.0997 48.8164 28.1001 48.8166C 28.1004 48.8167 28.1007 48.8168 28.1008 48.8169C 28.1011 48.817 28.1013 48.8171 28.5 47.9ZM 24.3003 42.2659C 25.5124 41.5655 26.3188 40.8264 26.7789 40.0448C 27.256 39.2345 27.3244 38.4382 27.1607 37.7452C 26.998 37.1256 26.6304 36.551 26.3723 36.2481C 26.2312 36.0856 26.0813 35.9395 25.9912 35.8586C 25.9404 35.8134 25.8903 35.7714 25.8627 35.749C 25.8461 35.7357 25.8291 35.7223 25.8206 35.7157C 25.815 35.7114 25.8088 35.7066 25.806 35.7045C 25.8039 35.7029 25.8013 35.701 25.8003 35.7002C 25.7995 35.6996 25.7984 35.6988 25.7979 35.6984C 25.7976 35.6982 25.797 35.6978 25.7969 35.6976C 25.7963 35.6973 25.7958 35.6969 25.2 36.5C 24.6041 37.3031 24.6037 37.3027 24.6032 37.3024C 24.6031 37.3023 24.6026 37.3019 24.6023 37.3017C 24.6026 37.3019 24.6003 37.3002 24.6008 37.3006C 24.6011 37.3008 24.5979 37.2984 24.5985 37.2989C 24.5984 37.2988 24.5967 37.2975 24.5969 37.2976C 24.5998 37.2999 24.5997 37.2998 24.6047 37.3039C 24.6203 37.3164 24.6324 37.3264 24.6577 37.3492C 24.7195 37.4042 24.7766 37.4582 24.8558 37.5519C 25.0383 37.7615 25.1645 37.9244 25.2143 38.2048C 25.2631 38.4118 25.2628 38.678 25.0554 39.0302C 24.8312 39.4111 24.3376 39.9345 23.2997 40.5341L 24.3003 42.2659ZM 25.2 36.5C 25.1868 35.5001 25.1871 35.5001 25.1873 35.5001C 25.1873 35.5001 25.1875 35.5001 25.1875 35.5001C 25.1876 35.5001 25.1876 35.5001 25.1875 35.5001C 25.1869 35.5001 25.1866 35.5001 25.1855 35.5001C 25.1826 35.5001 25.1793 35.5001 25.1736 35.5002C 25.1608 35.5002 25.1443 35.5003 25.1199 35.5001C 25.0684 35.4999 24.9988 35.4992 24.9053 35.4968C 24.7122 35.4919 24.4561 35.4815 24.1459 35.4563C 23.5125 35.4057 22.7827 35.312 22.1315 35.0981C 21.4374 34.8746 21.1942 34.6283 21.1426 34.5067C 21.1351 34.489 20.989 34.157 21.7619 33.2476L 20.2381 31.9523C 19.311 33.043 18.8399 34.1984 19.3011 35.287C 19.7183 36.2716 20.7375 36.7504 21.5185 37.0019C 22.3423 37.2629 23.3 37.3943 23.9853 37.4499C 24.3345 37.4778 24.6456 37.4908 24.8548 37.4962C 24.9625 37.4988 25.0529 37.4999 25.111 37.5001C 25.1415 37.5003 25.1672 37.5002 25.183 37.5001C 25.1916 37.5001 25.1992 37.5 25.2035 37.5C 25.206 37.5 25.2085 37.5 25.2097 37.4999C 25.2105 37.4999 25.2114 37.4999 25.2118 37.4999C 25.2121 37.4999 25.2124 37.4999 25.2126 37.4999C 25.2129 37.4999 25.2132 37.4999 25.2 36.5ZM 21.7809 33.2247C 22.5285 32.285 23.2465 31.6379 23.8207 31.184C 24.0973 30.9645 24.3124 30.8144 24.4763 30.7062C 24.5532 30.6553 24.6061 30.6223 24.6478 30.5969C 24.6663 30.5857 24.6767 30.5795 24.6864 30.5739C 24.69 30.5718 24.6909 30.5712 24.6928 30.5701C 24.6931 30.57 24.6928 30.5701 24.6927 30.5702C 24.6929 30.5701 24.6916 30.5708 24.6917 30.5707C 24.6919 30.5706 24.691 30.5712 24.6911 30.5711C 24.6909 30.5712 24.6907 30.5713 24.6907 30.5713C 24.6905 30.5715 24.6903 30.5716 24.2 29.7C 23.7097 28.8284 23.7095 28.8286 23.7093 28.8287C 23.7092 28.8287 23.7089 28.8289 23.7088 28.829C 23.7086 28.8291 23.7081 28.8294 23.7077 28.8296C 23.7072 28.8299 23.706 28.8305 23.705 28.8311C 23.7036 28.8319 23.7007 28.8336 23.6979 28.8351C 23.6936 28.8376 23.6854 28.8424 23.6769 28.8473C 23.6623 28.8559 23.6369 28.871 23.6084 28.8882C 23.5564 28.9199 23.4718 28.9728 23.3737 29.0375C 23.1876 29.1606 22.9027 29.3605 22.5793 29.616C 21.9535 30.1121 21.0715 30.915 20.2191 31.9753L 21.7809 33.2247ZM 24.2 29.7C 24.9411 29.0286 24.9413 29.0288 24.9414 29.0289C 24.9414 29.0289 24.9415 29.029 24.9415 29.0291C 24.9416 29.0292 24.9414 29.029 24.9412 29.0287C 24.9405 29.028 24.9399 29.0272 24.9385 29.0257C 24.9353 29.0222 24.9314 29.0178 24.9252 29.0108C 24.9118 28.9958 24.8937 28.9753 24.8682 28.9461C 24.8153 28.8854 24.7419 28.8002 24.6462 28.6857C 24.4505 28.4516 24.1859 28.1247 23.8753 27.7098C 23.2453 26.8692 22.4887 25.7586 21.8711 24.5062C 21.2479 23.2524 20.8164 22.0285 20.8124 20.8268C 20.7973 19.7296 21.1498 18.7608 22.1247 17.9809L 20.8753 16.4191C 19.3502 17.6392 18.7902 19.2329 18.8126 20.8544C 18.8461 22.3715 19.4021 24.0226 20.0789 25.3938C 20.7613 26.7664 21.6172 28.0308 22.2746 28.9089C 22.6078 29.3534 22.9057 29.7219 23.1116 29.9682C 23.2167 30.0939 23.3039 30.1953 23.3613 30.261C 23.391 30.2951 23.4155 30.3228 23.4309 30.3402C 23.4392 30.3494 23.4462 30.3572 23.4503 30.3619C 23.4527 30.3645 23.4548 30.3669 23.456 30.3682C 23.4567 30.369 23.4574 30.3698 23.4578 30.3702C 23.458 30.3704 23.4583 30.3707 23.4584 30.3709C 23.4587 30.3711 23.4589 30.3714 24.2 29.7ZM 22.1247 17.9809C 24.416 16.1478 26.2572 15.9858 27.4606 16.1864C 28.0969 16.2855 28.5372 16.4771 28.9009 16.6742C 29.0681 16.7633 29.174 16.833 29.2644 16.8967C 29.3032 16.9239 29.3231 16.939 29.3436 16.9551C 29.3509 16.9608 29.352 16.9617 29.3558 16.9649C 29.3563 16.9653 29.3552 16.9643 29.3549 16.9641C 29.3554 16.9645 29.3524 16.962 29.3527 16.9622C 29.3531 16.9626 29.3508 16.9607 29.3511 16.9609C 29.3508 16.9606 29.3503 16.9602 29.3502 16.9601C 29.3497 16.9597 29.3492 16.9593 30 16.2C 30.6508 15.4407 30.6503 15.4403 30.6497 15.4398C 30.6495 15.4397 30.649 15.4392 30.6486 15.4389C 30.6482 15.4385 30.647 15.4375 30.6461 15.4367C 30.645 15.4358 30.6422 15.4335 30.64 15.4316C 30.6369 15.429 30.6301 15.4233 30.6238 15.4182C 30.6141 15.4102 30.5949 15.3948 30.5754 15.3795C 30.5422 15.3535 30.482 15.3082 30.4153 15.2611C 30.2947 15.1764 30.0881 15.0429 29.8491 14.9133C 29.4003 14.6729 28.6531 14.3645 27.7894 14.2136C 25.9928 13.9142 23.584 14.2522 20.8753 16.4191L 22.1247 17.9809ZM 30 16.2C 30.78 15.5742 30.7802 15.5745 30.7804 15.5748C 30.7805 15.5748 30.7806 15.575 30.7807 15.5751C 30.7807 15.5752 30.7809 15.5753 30.7808 15.5753C 30.7803 15.5747 30.7802 15.5744 30.7792 15.5733C 30.7767 15.57 30.774 15.5666 30.769 15.5603C 30.7578 15.5458 30.7435 15.5274 30.7225 15.4995C 30.6775 15.4401 30.618 15.3598 30.5399 15.2487C 30.3775 15.0184 30.1697 14.7076 29.9378 14.3082C 29.4618 13.4913 28.9666 12.4751 28.7423 11.3376C 28.5174 10.235 28.5798 9.16255 29.1313 8.22893C 29.6815 7.2976 30.8177 6.33638 33.0864 5.6581L 32.5136 3.7419C 29.9323 4.51362 28.2935 5.7149 27.4093 7.2117C 26.5265 8.7062 26.4951 10.3275 26.7827 11.7374C 27.0709 13.1124 27.6944 14.4275 28.209 15.3137C 28.4725 15.7658 28.728 16.1495 28.9051 16.4009C 28.9966 16.5306 29.0759 16.638 29.1273 16.7059C 29.1544 16.7417 29.1777 16.772 29.192 16.7902C 29.1998 16.8003 29.2068 16.8092 29.2108 16.8143C 29.2132 16.8172 29.2155 16.8201 29.2167 16.8216C 29.2174 16.8226 29.2183 16.8236 29.2187 16.8241C 29.2189 16.8245 29.2193 16.8249 29.2194 16.8251C 29.2197 16.8254 29.22 16.8258 30 16.2ZM 32.0218 5.32802C 34.4188 8.29824 36.4963 9.17493 38.1888 8.98099C 38.9753 8.87258 39.6707 8.5139 40.0375 8.24217C 40.2373 8.09009 40.4154 7.92185 40.5104 7.82182C 40.5645 7.76421 40.6154 7.70545 40.6416 7.67389C 40.6576 7.65443 40.6741 7.63372 40.6819 7.62369C 40.6872 7.61688 40.6932 7.60897 40.6958 7.60553C 40.6978 7.60293 40.7003 7.59962 40.7013 7.59831C 40.7021 7.59722 40.7032 7.59573 40.7036 7.59518C 40.7039 7.59469 40.7045 7.59398 40.7046 7.59374C 40.7052 7.59305 40.7056 7.59238 39.9 6.99999C 39.0943 6.4076 39.0948 6.40695 39.0953 6.40632C 39.0954 6.40612 39.0959 6.4055 39.0962 6.4051C 39.0959 6.40545 39.0983 6.40221 39.0978 6.4029C 39.0975 6.40338 39.1012 6.39833 39.1005 6.39933C 39.1003 6.39954 39.1039 6.39489 39.1035 6.39544C 39.1054 6.39295 39.1034 6.39562 39.1 6.39967C 39.0873 6.41514 39.0801 6.42385 39.0568 6.44807C 38.9971 6.51172 38.9439 6.56457 38.8375 6.64218C 38.5918 6.82983 38.3747 6.96491 37.9612 6.99399C 37.2537 7.07506 35.7812 6.80176 33.5782 4.07198L 32.0218 5.32802ZM 39.9 6.99999C 40.5775 6.26444 40.5777 6.26468 40.5779 6.26489C 40.578 6.26492 40.5782 6.2651 40.5783 6.26517C 40.5783 6.26521 40.5784 6.26535 40.5784 6.26528C 40.5778 6.26479 40.5776 6.2646 40.5766 6.26364C 40.5738 6.26102 40.5708 6.25825 40.5654 6.25314C 40.5531 6.24146 40.5376 6.22669 40.5147 6.20438C 40.4656 6.15668 40.4014 6.09306 40.3171 6.00545C 40.1417 5.82348 39.9224 5.58428 39.6809 5.28154C 39.1817 4.6576 38.7234 3.92684 38.5749 3.27716C 38.4929 2.94328 38.4813 2.78234 38.5803 2.53916C 38.6412 2.36148 38.7771 2.14628 39.1084 1.92333C 39.8254 1.44074 41.3453 0.999988 44.3 0.999988L 44.3 -1.00001C 41.2548 -1.00001 39.2246 -0.565764 37.9916 0.26415C 37.3479 0.69745 36.9088 1.24787 36.6884 1.89051C 36.5062 2.46764 36.5071 3.1817 36.6251 3.72281C 36.8766 4.82313 37.5683 5.84237 38.1191 6.53093C 38.4026 6.88445 38.6833 7.19212 38.8767 7.39296C 38.9767 7.49675 39.0641 7.58353 39.1205 7.63837C 39.1503 7.66733 39.176 7.69186 39.1917 7.70667C 39.2003 7.71481 39.208 7.72208 39.2124 7.72618C 39.215 7.72859 39.2176 7.73094 39.2189 7.73215C 39.2197 7.73293 39.2206 7.73378 39.221 7.73416C 39.2213 7.73445 39.2217 7.73479 39.2219 7.73493C 39.2222 7.73524 39.2225 7.73553 39.9 6.99999ZM 44.3 0.999988C 50.0769 0.999988 53.7896 2.77559 56.0435 4.49505C 57.1857 5.36121 57.9326 6.19121 58.4421 6.85398C 58.688 7.17217 58.8502 7.418 58.9661 7.60641C 59.0203 7.69428 59.0544 7.75385 59.0808 7.80154C 59.0923 7.82229 59.0983 7.83355 59.104 7.84442C 59.1061 7.84832 59.1064 7.84898 59.1075 7.851C 59.1076 7.85125 59.1072 7.85056 59.1072 7.85043C 59.1073 7.85074 59.1065 7.849 59.1065 7.84916C 59.1064 7.84889 59.1062 7.84841 59.1061 7.84827C 59.1058 7.84776 59.1056 7.84722 60 7.40001C 60.8944 6.9528 60.8941 6.9522 60.8938 6.95158C 60.8937 6.95134 60.8934 6.95068 60.8931 6.95019C 60.8928 6.94959 60.8921 6.94811 60.8915 6.9469C 60.8906 6.94524 60.8888 6.94161 60.8871 6.9383C 60.8845 6.9332 60.8793 6.92325 60.874 6.91315C 60.865 6.89601 60.8487 6.86572 60.8302 6.83227C 60.7966 6.77156 60.7394 6.67215 60.6691 6.55767C 60.5357 6.34139 60.3151 6.0091 60.0266 5.63353C 59.4674 4.9088 58.5393 3.8888 57.2565 2.90495C 54.6604 0.9244 50.5231 -1.00001 44.3 -1.00001L 44.3 0.999988ZM 60 7.40001C 60.3613 8.33247 60.3612 8.33249 60.3612 8.33249C 60.3613 8.33244 60.3614 8.33241 60.3616 8.33233C 60.3621 8.33214 60.3628 8.3319 60.3637 8.33152C 60.3659 8.33069 60.3688 8.32955 60.3731 8.32792C 60.3819 8.32452 60.3945 8.31968 60.4118 8.31306C 60.4471 8.29957 60.4982 8.28011 60.5661 8.25451C 60.7033 8.20279 60.9013 8.12892 61.1546 8.03653C 61.6642 7.85063 62.3795 7.5963 63.2303 7.31276C 64.9382 6.74336 67.1303 6.07476 69.1937 5.64102C 70.2222 5.42401 71.1691 5.27278 72.0219 5.21925C 72.8762 5.16452 73.5033 5.21976 73.8987 5.3526C 74.2557 5.47258 74.2693 5.58852 74.279 5.64526C 74.3096 5.82394 74.265 6.29138 73.7366 7.19543L 75.4634 8.20457C 76.06 7.18362 76.4029 6.19793 76.2503 5.30747C 76.0768 4.29508 75.3365 3.72586 74.5357 3.45678C 73.7732 3.20056 72.8387 3.16283 71.8941 3.22334C 70.9481 3.28504 69.859 3.45725 68.7813 3.68399C 66.6322 4.13776 64.3305 4.83791 62.5978 5.41539C 61.7283 5.70529 60.9866 5.96893 60.4692 6.15763C 60.209 6.25255 60.001 6.33015 59.8607 6.38306C 59.7898 6.40979 59.7342 6.43094 59.6975 6.44498C 59.6788 6.45213 59.6641 6.45778 59.6546 6.46144C 59.6496 6.46333 59.6457 6.46486 59.6432 6.46582C 59.6419 6.46633 59.6408 6.46676 59.6401 6.46702C 59.6397 6.46717 59.6394 6.4673 59.6392 6.46737C 59.6389 6.46747 59.6387 6.46755 60 7.40001ZM 73.7425 7.1855C 72.6679 8.97895 71.813 10.7898 71.2434 12.1186C 70.9564 12.7883 70.733 13.3548 70.5854 13.7436C 70.5107 13.9404 70.4526 14.0989 70.4148 14.2041C 70.3954 14.2578 70.3802 14.3008 70.3705 14.3285C 70.3654 14.343 70.3613 14.3548 70.3588 14.3621C 70.3574 14.366 70.3562 14.3694 70.3555 14.3714C 70.3551 14.3725 70.3548 14.3736 70.3546 14.3742C 70.3544 14.3745 70.3543 14.3749 70.3543 14.3751C 70.3542 14.3752 70.3542 14.3754 70.3541 14.3754C 70.3541 14.3756 70.3541 14.3757 71.3 14.7C 72.2459 15.0243 72.2459 15.0244 72.2459 15.0245C 72.2459 15.0245 72.2459 15.0246 72.2459 15.0246C 72.2458 15.0246 72.2459 15.0246 72.2459 15.0245C 72.246 15.0243 72.246 15.024 72.2462 15.0235C 72.2467 15.0221 72.2473 15.0204 72.2483 15.0176C 72.2504 15.0115 72.2533 15.0032 72.2575 14.9912C 72.2664 14.9659 72.279 14.9303 72.2966 14.8815C 72.3325 14.7815 72.3846 14.6392 72.4552 14.4533C 72.5983 14.0765 72.8061 13.5492 73.0816 12.9064C 73.637 11.6102 74.4321 9.92104 75.4575 8.2145L 73.7425 7.1855ZM 71.3 14.7C 71.4933 15.6811 71.4932 15.6812 71.4931 15.6812C 71.4931 15.6812 71.493 15.6812 71.4931 15.6812C 71.4932 15.6812 71.4932 15.6812 71.4935 15.6811C 71.4941 15.681 71.4948 15.6809 71.496 15.6806C 71.4989 15.6801 71.5026 15.6793 71.5081 15.6783C 71.52 15.676 71.5364 15.6728 71.5593 15.6685C 71.6064 15.6597 71.6733 15.6473 71.7616 15.6316C 71.9413 15.5996 72.1929 15.5566 72.505 15.5087C 73.1357 15.4118 73.9661 15.3009 74.8501 15.2347C 75.7365 15.1676 76.6008 15.146 77.3508 15.23C 78.1503 15.3173 78.4883 15.4959 78.5689 15.5823L 80.0311 14.2177C 79.4117 13.5541 78.3997 13.3327 77.5679 13.2419C 76.6867 13.1478 75.6385 13.17 74.6999 13.2403C 73.7589 13.3116 72.8518 13.432 72.2013 13.5319C 71.8728 13.5824 71.5978 13.6293 71.4111 13.6626C 71.3162 13.6794 71.2398 13.6936 71.1896 13.703C 71.1638 13.7078 71.1431 13.7118 71.1298 13.7144C 71.1229 13.7157 71.1171 13.7168 71.1136 13.7175C 71.1116 13.7179 71.1099 13.7182 71.109 13.7184C 71.1084 13.7185 71.1078 13.7186 71.1075 13.7187C 71.1074 13.7187 71.1072 13.7188 71.1071 13.7188C 71.1069 13.7188 71.1067 13.7189 71.3 14.7ZM 78.5601 15.5727C 78.4763 15.4805 78.5099 15.4409 78.528 15.6154C 78.5504 15.8032 78.5385 16.0018 78.4964 16.3092C 78.4129 16.946 78.2144 17.6908 77.9712 18.4621C 77.7289 19.2323 77.459 19.9603 77.2433 20.5132C 77.1365 20.7872 77.0465 21.0089 76.9812 21.1668C 76.9491 21.2446 76.9243 21.3038 76.9067 21.3453C 76.8982 21.3656 76.8919 21.3802 76.8875 21.3907C 76.8853 21.3956 76.8839 21.399 76.8828 21.4015C 76.8823 21.4027 76.882 21.4033 76.8818 21.4039C 76.8817 21.4041 76.8817 21.4042 76.8816 21.4043C 76.8816 21.4043 76.8816 21.4043 76.8816 21.4043C 76.8816 21.4043 76.8817 21.4042 77.8 21.8C 78.7183 22.1958 78.7184 22.1957 78.7184 22.1956C 78.7185 22.1955 78.7185 22.1953 78.7186 22.1952C 78.7187 22.1949 78.7189 22.1945 78.7191 22.194C 78.7195 22.1932 78.7201 22.1917 78.7208 22.1901C 78.7221 22.187 78.7242 22.182 78.7268 22.176C 78.7318 22.1644 78.7394 22.1464 78.749 22.1239C 78.7675 22.0799 78.7954 22.0134 78.8297 21.9305C 78.8973 21.7669 78.9947 21.5268 79.1067 21.2399C 79.3285 20.671 79.6211 19.8802 79.8788 19.0629C 80.1356 18.2467 80.3746 17.3352 80.4786 16.5752C 80.5302 16.1842 80.5496 15.7492 80.5173 15.4092C 80.4807 15.056 80.3737 14.5945 80.0399 14.2273L 78.5601 15.5727ZM 77.0929 22.5071C 79.694 25.1083 82.6025 25.1302 84.0647 25.0354C 84.4246 25.0118 84.6613 24.9848 84.7779 24.9845C 84.7964 24.984 84.7412 24.9812 84.7542 24.9818C 84.7397 24.9801 84.6134 24.9675 84.4627 24.8865C 84.2739 24.7851 84.0063 24.5441 83.9662 24.1372C 83.9352 23.822 84.0682 23.6064 84.0953 23.5629C 84.1583 23.4618 84.2111 23.4321 84.1187 23.5116C 84.0458 23.5747 83.9474 23.6519 83.7964 23.7664C 83.4879 24.0005 83.0333 24.3313 82.4052 24.7962L 83.5948 26.4038C 84.2167 25.9437 84.6809 25.6058 85.0052 25.3598C 85.1705 25.2343 85.3171 25.1186 85.4233 25.0275C 85.51 24.9529 85.676 24.8077 85.7922 24.6215C 85.8459 24.5354 85.9904 24.2847 85.9566 23.9411C 85.9137 23.5057 85.6289 23.2427 85.4093 23.1247C 85.2279 23.0273 85.0572 23.0036 84.9855 22.9952C 84.9152 22.9879 84.8157 22.9841 84.7518 22.9847C 84.5387 22.9886 84.2504 23.0194 83.9353 23.0396C 82.6975 23.1198 80.506 23.0918 78.5071 21.0929L 77.0929 22.5071ZM 82.4052 24.7962C 79.8559 26.6826 78.865 28.2323 78.8254 29.5577C 78.8051 30.2391 79.0438 30.7574 79.2993 31.1027C 79.4216 31.2628 79.5729 31.4152 79.653 31.4851C 79.703 31.5278 79.7594 31.5715 79.7863 31.5911C 79.8045 31.6043 79.826 31.6192 79.8352 31.6254C 79.8422 31.6301 79.851 31.6359 79.8545 31.6381C 79.8574 31.64 79.8613 31.6425 79.8627 31.6434C 79.864 31.6442 79.8658 31.6454 79.8665 31.6458C 79.8671 31.6462 79.868 31.6467 79.8683 31.6469C 79.8691 31.6475 79.87 31.648 80.4 30.8C 80.93 29.952 80.9308 29.9525 80.9317 29.9531C 80.9319 29.9532 80.9328 29.9537 80.9333 29.9541C 80.9328 29.9538 80.9374 29.9567 80.9364 29.956C 80.9355 29.9555 80.9438 29.9608 80.9421 29.9597C 80.9408 29.9589 80.9539 29.9675 80.9513 29.9658C 80.9508 29.9654 80.9641 29.9746 80.9622 29.9734C 80.968 29.9775 80.9661 29.9771 80.9603 29.9715C 80.9287 29.9449 80.9315 29.9512 80.9069 29.9129C 80.8687 29.8613 80.8199 29.7734 80.8246 29.6173C 80.835 29.2677 81.1441 28.2174 83.5948 26.4038L 82.4052 24.7962ZM 80.4 30.8C 80.6198 31.7755 80.6196 31.7756 80.6194 31.7756C 80.6194 31.7756 80.6193 31.7757 80.6192 31.7757C 80.6192 31.7757 80.6191 31.7757 80.6192 31.7757C 80.6198 31.7756 80.6201 31.7755 80.6211 31.7753C 80.6239 31.7746 80.627 31.774 80.6324 31.7728C 80.6444 31.7702 80.6602 31.7668 80.6834 31.762C 80.7324 31.7518 80.7993 31.7383 80.89 31.7212C 81.077 31.686 81.3305 31.642 81.6466 31.5984C 82.2909 31.5089 83.0923 31.4308 83.9148 31.4619C 84.7461 31.4912 85.4449 31.6291 85.9045 31.8848C 86.2909 32.0998 86.5 32.3794 86.5 32.9L 88.5 32.9C 88.5 31.5706 87.8216 30.6627 86.8768 30.1371C 86.0051 29.6521 84.9289 29.4964 83.9852 29.4631C 83.0327 29.4317 82.0591 29.5224 81.3722 29.6173C 81.0226 29.6658 80.7214 29.7179 80.5202 29.7557C 80.4167 29.7752 80.3311 29.7925 80.2761 29.8039C 80.2473 29.8099 80.2231 29.8151 80.2083 29.8183C 80.2003 29.82 80.1932 29.8216 80.1891 29.8225C 80.1868 29.823 80.1845 29.8235 80.1834 29.8238C 80.1826 29.8239 80.1818 29.8241 80.1814 29.8242C 80.1812 29.8242 80.1808 29.8243 80.1807 29.8243C 80.1804 29.8244 80.1802 29.8245 80.4 30.8ZM 86.5 32.9C 86.5 33.4708 86.2417 33.9715 85.7286 34.4443C 85.1739 34.967 84.4591 35.3343 83.6344 35.6567C 82.8155 35.9804 82.0179 36.1867 81.382 36.3242C 81.0705 36.3919 80.8209 36.437 80.6367 36.4676C 80.5476 36.4825 80.4821 36.4925 80.434 36.4995C 80.4113 36.5028 80.3961 36.5049 80.3843 36.5066C 80.379 36.5073 80.3761 36.5077 80.3735 36.508C 80.3725 36.5082 80.3722 36.5082 80.3717 36.5082C 80.3716 36.5083 80.3717 36.5082 80.3718 36.5082C 80.3719 36.5082 80.372 36.5082 80.3721 36.5082C 80.3723 36.5082 80.3725 36.5082 80.5 37.5C 80.6275 38.4918 80.6278 38.4918 80.6281 38.4917C 80.6282 38.4917 80.6286 38.4917 80.6288 38.4917C 80.6292 38.4916 80.6301 38.4915 80.6308 38.4914C 80.632 38.4912 80.6343 38.4909 80.6367 38.4906C 80.6407 38.4901 80.6479 38.4891 80.6559 38.488C 80.6706 38.486 80.6947 38.4826 80.7233 38.4785C 80.7776 38.4705 80.8625 38.4575 80.9649 38.4405C 81.1635 38.4075 81.4608 38.3534 81.8055 38.2789C 82.4821 38.1321 83.4345 37.8821 84.3656 37.5183C 85.2909 37.1532 86.3261 36.6017 87.0839 35.9151C 87.8833 35.1785 88.5 34.1792 88.5 32.9L 86.5 32.9ZM 80.5 37.5C 79.7174 38.1225 79.7173 38.1224 79.7172 38.1223C 79.7172 38.1223 79.7171 38.1222 79.7171 38.1222C 79.7171 38.1221 79.7171 38.1221 79.7172 38.1222C 79.7175 38.1226 79.7177 38.1228 79.7182 38.1235C 79.7196 38.1253 79.7212 38.1273 79.7239 38.1308C 79.7299 38.1384 79.7378 38.1485 79.7493 38.1633C 79.7734 38.1943 79.8065 38.2373 79.8507 38.2958C 79.9415 38.4159 80.0648 38.5823 80.2146 38.7943C 80.5193 39.2253 80.8972 39.791 81.2528 40.4266C 81.6112 41.0645 81.9061 41.6821 82.0673 42.28C 82.2337 42.8834 82.1847 43.202 82.1151 43.3343L 83.8849 44.2658C 84.3153 43.448 84.2038 42.5042 83.9952 41.7481C 83.7814 40.9867 83.3888 40.148 82.9972 39.4484C 82.6028 38.7465 82.1682 38.0934 81.8479 37.64C 81.6852 37.4099 81.5428 37.2177 81.4462 37.0898C 81.3966 37.0242 81.3555 36.9708 81.3288 36.9365C 81.3149 36.9185 81.3033 36.9037 81.2961 36.8946C 81.2922 36.8896 81.2888 36.8853 81.2869 36.8828C 81.2857 36.8814 81.2847 36.8801 81.2841 36.8793C 81.2837 36.8789 81.2834 36.8784 81.2832 36.8782C 81.2831 36.878 81.2829 36.8779 81.2829 36.8778C 81.2827 36.8776 81.2826 36.8775 80.5 37.5ZM 82.1151 43.3343C 82.0789 43.403 81.8982 43.596 81.2695 43.7343C 80.6566 43.8734 79.9401 43.8938 79.1634 43.8632C 78.3894 43.8342 77.6598 43.7489 77.0949 43.6679C 76.8166 43.6281 76.5938 43.5912 76.4324 43.5629C 76.3537 43.5491 76.295 43.5382 76.2528 43.5303C 76.2326 43.5265 76.2185 43.5238 76.208 43.5217C 76.2033 43.5208 76.2003 43.5202 76.1979 43.5198C 76.1969 43.5196 76.1964 43.5195 76.1959 43.5194C 76.1958 43.5193 76.1957 43.5193 76.1957 43.5193C 76.1958 43.5193 76.1959 43.5194 76.1959 43.5194C 76.196 43.5194 76.1961 43.5194 76 44.5C 75.8039 45.4806 75.8041 45.4806 75.8043 45.4806C 75.8044 45.4807 75.8046 45.4807 75.8048 45.4808C 75.8051 45.4808 75.8057 45.4809 75.8063 45.481C 75.8072 45.4812 75.809 45.4816 75.8109 45.482C 75.8142 45.4826 75.8198 45.4837 75.8264 45.485C 75.8387 45.4874 75.8585 45.4912 75.8825 45.4957C 75.9287 45.5044 75.9998 45.5175 76.0871 45.5328C 76.2578 45.5627 76.5115 45.6047 76.8113 45.6477C 77.4027 45.7323 78.2356 45.8283 79.0866 45.8618C 79.9349 45.8937 80.9059 45.8578 81.6992 45.6876C 82.4768 45.5165 83.4211 45.147 83.8849 44.2658L 82.1151 43.3343ZM 76 44.5C 75.1913 45.0882 75.1912 45.088 75.1911 45.0879C 75.1911 45.0879 75.191 45.0878 75.191 45.0878C 75.1909 45.0877 75.1909 45.0877 75.191 45.0878C 75.1913 45.0883 75.1916 45.0886 75.1922 45.0895C 75.1938 45.0917 75.1956 45.0942 75.1987 45.0985C 75.2055 45.1079 75.2144 45.1204 75.2272 45.1385C 75.2541 45.1767 75.2907 45.2291 75.3388 45.2997C 75.4378 45.4449 75.5687 45.6419 75.7209 45.887C 76.031 46.3859 76.3819 46.9997 76.637 47.6286C 76.9101 48.2963 76.9664 48.7292 76.9233 48.919C 76.9145 48.9718 76.8969 48.9666 76.9157 48.9465C 76.9266 48.9211 76.9575 48.919 76.9287 48.9316C 76.9221 48.936 76.8182 49 76.5 49L 76.5 51C 77.0568 51 77.5935 50.8921 78.0381 50.5957C 78.5065 50.2834 78.7666 49.8327 78.8736 49.3622C 79.0648 48.5208 78.7774 47.5787 78.488 46.8714C 78.1806 46.1253 77.7502 45.364 77.4198 44.8317C 77.2516 44.5612 77.0973 44.3286 76.9913 44.173C 76.9368 44.0932 76.8909 44.0274 76.861 43.985C 76.8453 43.9628 76.8322 43.9444 76.8241 43.9331C 76.8197 43.9269 76.8158 43.9216 76.8136 43.9185C 76.8123 43.9167 76.8111 43.915 76.8104 43.9141C 76.81 43.9136 76.8096 43.913 76.8094 43.9127C 76.8093 43.9125 76.8091 43.9123 76.809 43.9122C 76.8089 43.912 76.8087 43.9118 76 44.5ZM 76.5 49C 74.4796 49 73.2049 49.7358 72.4442 50.581C 72.0911 50.9832 71.8365 51.4347 71.7153 51.7118C 71.6491 51.8665 71.5964 52.0195 71.5705 52.1052C 71.5555 52.1556 71.542 52.2064 71.5356 52.2324C 71.5315 52.249 71.5273 52.2672 71.5254 52.2756C 71.5241 52.2815 71.5226 52.2886 71.5219 52.2916C 71.5214 52.294 71.5208 52.2971 71.5206 52.2982C 71.5204 52.2992 71.5201 52.3007 71.52 52.3012C 71.5199 52.3016 71.5197 52.3023 71.5197 52.3026C 71.5196 52.3032 71.5194 52.3039 72.5 52.5C 73.4806 52.6961 73.4805 52.6967 73.4803 52.6974C 73.4803 52.6976 73.4802 52.6982 73.4801 52.6986C 73.4802 52.6982 73.4795 52.7016 73.4796 52.7008C 73.4797 52.7003 73.4786 52.7059 73.4788 52.7047C 73.4789 52.7042 73.4774 52.7113 73.4777 52.7101C 73.4774 52.7112 73.4769 52.7131 73.4774 52.7114C 73.4799 52.7008 73.4806 52.6979 73.4861 52.6799C 73.5013 52.6289 73.515 52.5866 73.5504 52.507C 73.6323 52.3152 73.7214 52.1418 73.9308 51.919C 74.2951 51.5142 75.0204 51 76.5 51L 76.5 49ZM 29 46.7C 28.0599 47.0408 28.0599 47.0409 28.0599 47.0409C 28.0599 47.041 28.06 47.0411 28.06 47.0413C 28.0601 47.0415 28.0603 47.0419 28.0605 47.0425C 28.0608 47.0435 28.0614 47.045 28.0621 47.047C 28.0635 47.0509 28.0657 47.0569 28.0685 47.0646C 28.0741 47.08 28.0825 47.1031 28.0934 47.1329C 28.1151 47.1925 28.1473 47.2806 28.1885 47.393C 28.2708 47.6173 28.3904 47.9419 28.5378 48.3379C 28.8323 49.1289 29.2411 50.2139 29.6931 51.3752C 30.5963 53.6958 31.6994 56.3846 32.4275 57.6886L 34.1725 56.7114C 33.5006 55.5154 32.4537 52.9542 31.5569 50.6498C 31.1089 49.4986 30.7052 48.4274 30.4122 47.6402C 30.2659 47.2472 30.148 46.9272 30.0662 46.7043C 30.0254 46.5931 29.9939 46.5069 29.9724 46.448C 29.9617 46.4187 29.9537 46.3965 29.9482 46.3814C 29.9455 46.3739 29.9435 46.3684 29.9421 46.3646C 29.9414 46.3627 29.9409 46.3614 29.9406 46.3605C 29.9404 46.36 29.9403 46.3597 29.9402 46.3595C 29.9402 46.3594 29.9402 46.3593 29.9402 46.3592C 29.9401 46.3592 29.9401 46.3592 29 46.7ZM 32.4177 57.6706C 32.845 58.4687 33.8048 59.872 34.6345 61.0412C 35.05 61.6267 35.4416 62.1667 35.727 62.5573C 35.8702 62.7531 35.9879 62.9131 36.0692 63.0233C 36.11 63.0786 36.1421 63.122 36.1638 63.1512C 36.1746 63.1659 36.1831 63.1773 36.1887 63.1848C 36.1915 63.1886 36.1937 63.1916 36.1952 63.1935C 36.1959 63.1945 36.1965 63.1953 36.1969 63.1958C 36.1971 63.1961 36.1972 63.1963 36.1973 63.1964C 36.1974 63.1965 36.1974 63.1966 36.1975 63.1966C 36.1975 63.1967 36.1975 63.1967 37 62.6C 37.8025 62.0033 37.8025 62.0033 37.8025 62.0033C 37.8024 62.0033 37.8024 62.0032 37.8024 62.0032C 37.8023 62.0031 37.8022 62.003 37.8021 62.0027C 37.8017 62.0023 37.8013 62.0017 37.8006 62.0008C 37.7992 61.999 37.7973 61.9963 37.7946 61.9927C 37.7892 61.9854 37.7813 61.9747 37.7707 61.9605C 37.7495 61.9318 37.7185 61.89 37.6785 61.8357C 37.598 61.7267 37.483 61.5703 37.3417 61.3771C 37.0584 60.9895 36.675 60.4608 36.2655 59.8838C 35.4452 58.728 34.555 57.4313 34.1824 56.7294L 32.4177 57.6706ZM 37 62.6C 37.8944 63.0472 37.8943 63.0474 37.8942 63.0476C 37.8942 63.0477 37.8941 63.0479 37.8941 63.048C 37.8941 63.0479 37.8939 63.0483 37.8939 63.0483C 37.8938 63.0485 37.894 63.0481 37.8943 63.0475C 37.8951 63.0458 37.8959 63.0443 37.8976 63.0409C 37.9018 63.0328 37.9068 63.023 37.9149 63.0075C 37.9326 62.9738 37.9562 62.9293 37.9905 62.8671C 38.062 62.737 38.1609 62.5632 38.2965 62.3436C 38.5746 61.8923 38.9529 61.3295 39.4494 60.7476C 40.4746 59.5416 41.7171 58.6 43 58.6L 43 56.6C 40.7829 56.6 39.0254 58.1584 37.9256 59.4523C 37.3596 60.1205 36.8942 60.8077 36.5941 61.2939C 36.4407 61.543 36.3169 61.7599 36.238 61.9032C 36.1971 61.9778 36.1636 62.0406 36.1429 62.0802C 36.1319 62.1013 36.1225 62.1196 36.1169 62.1304C 36.1138 62.1365 36.1109 62.1421 36.1094 62.1452C 36.1084 62.1471 36.1075 62.149 36.107 62.1499C 36.1067 62.1505 36.1063 62.1513 36.1062 62.1516C 36.1061 62.1518 36.1059 62.1521 36.1058 62.1522C 36.1057 62.1525 36.1056 62.1528 37 62.6ZM 43 58.6C 44.9516 58.6 46.3812 58.0396 47.3366 57.4517C 47.8045 57.1605 48.1843 56.8435 48.4035 56.6339C 48.5222 56.5193 48.6243 56.4095 48.6813 56.3444C 48.7138 56.3071 48.7441 56.2707 48.76 56.2511C 48.7698 56.2389 48.78 56.2261 48.7848 56.2199C 48.7881 56.2156 48.7919 56.2106 48.7936 56.2085C 48.7948 56.2068 48.7965 56.2047 48.7971 56.2039C 48.7976 56.2032 48.7983 56.2022 48.7986 56.2018C 48.7989 56.2015 48.7992 56.2011 48.7993 56.2009C 48.7997 56.2004 48.8 56.2 48 55.6C 47.2 55 47.2003 54.9996 47.2006 54.9991C 47.2007 54.999 47.2011 54.9986 47.2012 54.9983C 47.2011 54.9986 47.2027 54.9964 47.2024 54.9968C 47.2021 54.9972 47.2048 54.9937 47.2042 54.9944C 47.2041 54.9946 47.2068 54.9911 47.2064 54.9916C 47.2075 54.9902 47.2066 54.9913 47.2046 54.9938C 47.1968 55.0035 47.1915 55.01 47.1761 55.0274C 47.1375 55.0718 47.095 55.1182 47.0184 55.1911C 46.8469 55.3565 46.633 55.5395 46.2884 55.7483C 45.6188 56.1604 44.5484 56.6 43 56.6L 43 58.6ZM 48 56.6L 53 56.6L 53 54.6L 48 54.6L 48 56.6ZM 53 55.6C 52.2 56.2 52.2003 56.2004 52.2007 56.2009C 52.2008 56.2011 52.2011 56.2015 52.2014 56.2018C 52.2017 56.2022 52.2024 56.2032 52.2029 56.2039C 52.2035 56.2047 52.2052 56.2068 52.2064 56.2085C 52.2081 56.2106 52.2119 56.2156 52.2152 56.2199C 52.22 56.2261 52.2302 56.2389 52.24 56.2511C 52.2559 56.2707 52.2862 56.3071 52.3187 56.3444C 52.3757 56.4095 52.4778 56.5193 52.5965 56.6339C 52.8157 56.8435 53.1955 57.1605 53.6634 57.4517C 54.6188 58.0396 56.0484 58.6 58 58.6L 58 56.6C 56.4516 56.6 55.3812 56.1604 54.7116 55.7483C 54.367 55.5395 54.1531 55.3565 53.9816 55.1911C 53.905 55.1182 53.8625 55.0718 53.8239 55.0274C 53.8085 55.01 53.8032 55.0035 53.7954 54.9938C 53.7934 54.9913 53.7925 54.9902 53.7936 54.9916C 53.7932 54.9911 53.7959 54.9946 53.7958 54.9944C 53.7952 54.9937 53.7979 54.9972 53.7976 54.9968C 53.7973 54.9964 53.7989 54.9986 53.7988 54.9983C 53.7989 54.9986 53.7993 54.999 53.7994 54.9991C 53.7997 54.9996 53.8 55 53 55.6ZM 58 58.6C 59.3292 58.6 60.8276 59.5906 62.1228 60.8241C 62.7469 61.417 63.252 61.9956 63.6239 62.4513C 63.8063 62.6745 63.9441 62.8535 64.0428 62.9852C 64.0905 63.0488 64.1247 63.0955 64.1496 63.1299C 64.1613 63.1461 64.169 63.1569 64.175 63.1653C 64.1776 63.169 64.179 63.171 64.1804 63.1729C 64.1808 63.1736 64.1809 63.1737 64.1812 63.1741C 64.1812 63.1741 64.1812 63.174 64.1811 63.174C 64.1811 63.1739 64.181 63.1738 64.181 63.1738C 64.1809 63.1736 64.1808 63.1735 65 62.6C 65.8192 62.0265 65.8191 62.0263 65.8189 62.0261C 65.8189 62.026 65.8187 62.0258 65.8185 62.0256C 65.8183 62.0253 65.8179 62.0247 65.8175 62.0241C 65.8169 62.0232 65.8158 62.0216 65.8145 62.0199C 65.8125 62.0169 65.8088 62.0118 65.8047 62.006C 65.7973 61.9955 65.7849 61.9782 65.7701 61.9578C 65.742 61.9189 65.6976 61.8582 65.6428 61.7852C 65.5364 61.6434 65.3734 61.4317 65.173 61.1862C 64.7793 60.7044 64.1906 60.033 63.5022 59.3759C 62.1724 58.1094 60.1708 56.6 58 56.6L 58 58.6ZM 65 62.6C 65.5199 63.4542 65.5203 63.454 65.5206 63.4538C 65.5207 63.4537 65.5211 63.4535 65.5213 63.4533C 65.5216 63.4532 65.5224 63.4527 65.5229 63.4524C 65.5236 63.4519 65.5254 63.4509 65.5268 63.45C 65.5287 63.4488 65.533 63.4462 65.5369 63.4437C 65.5431 63.4398 65.5549 63.4324 65.567 63.4246C 65.5879 63.4112 65.6243 63.3873 65.6648 63.3598C 65.7391 63.3094 65.859 63.2246 65.9978 63.1192C 66.2613 62.9185 66.6602 62.5893 67.1088 62.1552C 67.9774 61.3111 69.1673 59.9262 70.2697 57.9936L 68.5303 57.0064C 67.5327 58.7738 66.5225 59.9388 65.7162 60.7198C 65.3273 61.0982 65.02 61.3503 64.7866 61.5277C 64.6769 61.6113 64.6008 61.6649 64.541 61.7054C 64.5146 61.7234 64.4995 61.7333 64.4856 61.7422C 64.4804 61.7455 64.4791 61.7464 64.4764 61.748C 64.4759 61.7483 64.4763 61.7481 64.4766 61.7479C 64.4763 61.7481 64.4781 61.747 64.4779 61.7471C 64.4776 61.7473 64.479 61.7464 64.4789 61.7465C 64.4791 61.7464 64.4793 61.7462 64.4794 61.7462C 64.4797 61.746 64.4801 61.7458 65 62.6ZM 70.2716 57.9902C 71.2059 56.3235 72.145 53.8521 72.8291 51.6745C 73.1717 50.5829 73.4626 49.5288 73.6641 48.6726C 73.8592 47.8427 74 47.081 74 46.6L 72 46.6C 72 46.819 71.9158 47.3698 71.7172 48.2149C 71.5249 49.0337 71.2533 50.0171 70.9209 51.0755C 70.255 53.1979 69.3941 55.4765 68.5284 57.0097L 70.2716 57.9902ZM 74 46.6C 73.9999 46.5056 74.0006 46.4871 74.0003 46.4847C 74.001 46.4776 73.9938 46.5405 73.9955 46.5276C 73.9938 46.5395 73.9865 46.5936 73.967 46.6615C 73.9586 46.6907 73.934 46.7733 73.8806 46.8693C 73.8597 46.9069 73.6757 47.2565 73.2287 47.3581C 72.6567 47.488 72.3048 47.1061 72.2248 47.0054C 72.127 46.8824 72.0834 46.7663 72.0717 46.7351C 72.0408 46.6525 72.0287 46.585 72.0266 46.5739C 72.0293 46.5889 72.0177 46.5162 72.0188 46.5245C 72.0197 46.5325 72.0164 46.5017 72.0165 46.5036C 72.0219 46.5688 72.0284 46.7608 72.0313 47.0934C 72.0375 47.7741 72.0255 48.9065 71.9513 50.3488C 71.8027 53.2511 71.4148 57.2786 70.4306 61.1546L 72.3694 61.6454C 73.3852 57.6215 73.7973 53.3989 73.9487 50.4512C 74.0245 48.9685 74.0375 47.7759 74.0312 47.0753C 74.0279 46.7174 74.0187 46.4547 74.0101 46.3441C 74.0084 46.324 74.0052 46.2915 74.0026 46.2704C 74.0006 46.2555 73.9957 46.2239 73.9922 46.2046C 73.9861 46.174 73.9637 46.089 73.9447 46.0337C 73.9326 46.0014 73.8887 45.8845 73.7905 45.761C 73.7101 45.6599 73.3578 45.2778 72.7855 45.4078C 72.3381 45.5095 72.1537 45.8594 72.1325 45.8977C 72.0998 45.9616 72.0577 46.0675 72.045 46.1083C 72.0329 46.1543 72.0185 46.2259 72.0144 46.253C 72.0121 46.2707 72.0089 46.2996 72.0077 46.3138C 72.0031 46.3731 72.0001 46.4819 72 46.6L 74 46.6ZM 70.4299 61.1575C 69.6479 64.2943 68.4275 67.384 66.9032 69.9385C 65.3767 72.503 63.6672 74.2992 62.0204 74.9748L 62.7796 76.8252C 65.0328 75.9008 67.0233 73.647 68.6218 70.9615C 70.2225 68.266 71.5521 64.9058 72.3701 61.6425L 70.4299 61.1575ZM 62.0375 74.968C 58.3654 76.3961 56.6686 77.7 50.7 77.7L 50.7 79.7C 57.1314 79.7 59.2346 78.2039 62.7624 76.832L 62.0375 74.968ZM 50.7 77.7C 47.634 77.7006 45.5591 77.5627 43.8489 77.119C 42.1696 76.6958 40.9648 76.0247 39.5402 74.8318L 38.2598 76.3682C 39.8352 77.6752 41.4304 78.5542 43.3511 79.056C 45.2409 79.5373 47.566 79.6994 50.7 79.7L 50.7 77.7ZM 39.5369 74.829C 38.5478 74.012 37.2233 72.1622 35.8971 69.6462C 34.5801 67.1499 33.3435 64.1686 32.4603 61.1212L 30.5397 61.6788C 31.4565 64.8314 32.7699 68.0001 34.1279 70.5788C 35.4767 73.1378 36.9522 75.288 38.2631 76.371L 39.5369 74.829ZM 32.4654 61.1391C 31.4767 57.4855 30.8635 53.8736 30.4908 51.1399C 30.305 49.7781 30.1822 48.6533 30.1046 47.8591C 30.0661 47.4643 30.0394 47.1579 30.022 46.9463C 30.0134 46.8416 30.0074 46.763 30.0033 46.7089C 30.0013 46.6824 29.9999 46.6631 29.9989 46.6496C 29.9985 46.6431 29.9982 46.6387 29.9979 46.6354C 29.9978 46.6339 29.9978 46.633 29.9977 46.6322C 29.9977 46.6319 29.9977 46.6318 29.9977 46.6316C 29.9977 46.6316 29.9977 46.6316 29.9977 46.6316C 29.9977 46.6316 29.9977 46.6317 29 46.7C 28.0023 46.7683 28.0023 46.7685 28.0024 46.7686C 28.0024 46.7687 28.0024 46.7689 28.0024 46.7691C 28.0024 46.7694 28.0024 46.7699 28.0025 46.7705C 28.0026 46.7715 28.0027 46.7732 28.0028 46.7753C 28.0031 46.7791 28.0035 46.7852 28.0041 46.7927C 28.0051 46.8073 28.0068 46.8299 28.0089 46.8587C 28.0131 46.9151 28.0198 47.0006 28.0287 47.11C 28.0465 47.3265 28.0746 47.6482 28.1141 48.0534C 28.1928 48.8592 28.32 50.0219 28.5092 51.4101C 28.8865 54.1764 29.5233 57.9145 30.5346 61.6609L 32.4654 61.1391ZM 133.15 61.1274L 142.15 75.6274L 143.85 74.5726L 134.85 60.0726L 133.15 61.1274ZM 143 75.1C 143.982 75.2871 143.982 75.2871 143.982 75.2872C 143.982 75.2872 143.982 75.2872 143.982 75.2872C 143.982 75.2871 143.982 75.287 143.982 75.2868C 143.982 75.2864 143.983 75.2859 143.983 75.285C 143.983 75.2832 143.984 75.2807 143.984 75.277C 143.986 75.2694 143.988 75.2586 143.991 75.2438C 143.997 75.2136 144.005 75.1704 144.016 75.1138C 144.039 74.9991 144.072 74.8374 144.114 74.6382C 144.199 74.2366 144.317 73.7045 144.458 73.1425C 144.598 72.5793 144.752 72.0202 144.916 71.5428C 144.997 71.3078 145.066 71.1268 145.142 70.9656C 145.21 70.8155 145.28 70.7337 145.253 70.7585L 143.747 69.4415C 143.425 69.8101 143.191 70.407 143.024 70.8946C 142.841 71.4298 142.664 72.0707 142.517 72.6575C 142.37 73.2455 142.245 73.8133 142.158 74.2243C 142.114 74.4313 142.079 74.6041 142.055 74.7222C 142.043 74.7819 142.034 74.8297 142.028 74.8614C 142.024 74.8776 142.022 74.8905 142.02 74.8988C 142.02 74.9031 142.019 74.9067 142.018 74.9089C 142.018 74.91 142.018 74.911 142.018 74.9116C 142.018 74.912 142.018 74.9123 142.018 74.9124C 142.018 74.9125 142.018 74.9127 142.018 74.9127C 142.018 74.9128 142.018 74.9129 143 75.1ZM 145.243 70.769C 145.214 70.812 145.329 70.6934 145.534 70.583C 145.753 70.463 146.01 70.3461 146.336 70.2133C 146.996 69.9434 147.789 69.6764 148.584 69.4301C 149.377 69.184 150.138 68.9702 150.71 68.8152C 150.995 68.7381 151.227 68.677 151.391 68.6344C 151.473 68.6133 151.535 68.5973 151.579 68.5862C 151.6 68.5808 151.616 68.5768 151.627 68.574C 151.633 68.5726 151.636 68.5717 151.639 68.571C 151.64 68.5707 151.641 68.5705 151.642 68.5703C 151.642 68.5702 151.642 68.5702 151.642 68.5701C 151.643 68.5701 151.643 68.5701 151.643 68.5701C 151.643 68.5701 151.643 68.5701 151.4 67.6C 151.157 66.6298 151.157 66.6299 151.157 66.6299C 151.157 66.6299 151.157 66.6299 151.157 66.63C 151.157 66.63 151.156 66.6301 151.156 66.6302C 151.155 66.6304 151.154 66.6308 151.152 66.6312C 151.149 66.6319 151.144 66.6331 151.138 66.6347C 151.127 66.6376 151.109 66.6421 151.086 66.6479C 151.041 66.6593 150.974 66.6765 150.89 66.6984C 150.722 66.7418 150.479 66.8057 150.187 66.8848C 149.606 67.0423 148.81 67.266 147.991 67.5199C 147.173 67.7735 146.298 68.0691 145.58 68.3616C 145.217 68.5101 144.857 68.6745 144.575 68.8279C 144.301 68.9779 143.986 69.1762 143.757 69.431L 145.243 70.769ZM 151.4 67.6C 150.812 68.4087 150.812 68.4089 150.812 68.4091C 150.812 68.4092 150.813 68.4094 150.813 68.4095C 150.813 68.4097 150.814 68.4101 150.814 68.4104C 150.815 68.4107 150.816 68.4116 150.817 68.4123C 150.818 68.4132 150.821 68.4153 150.823 68.417C 150.827 68.4196 150.834 68.4249 150.842 68.4299C 150.853 68.4378 150.875 68.4528 150.898 68.4679C 150.937 68.4942 151.008 68.5389 151.085 68.5853C 151.228 68.6698 151.469 68.7993 151.741 68.9179C 152.254 69.1382 153.101 69.3889 154 69.4L 154 67.4C 153.399 67.4111 152.946 67.2618 152.534 67.0821C 152.344 67.0007 152.215 66.9302 152.105 66.8647C 152.057 66.8361 152.029 66.8183 152.003 66.8008C 151.992 66.7941 151.989 66.7918 151.984 66.7881C 151.983 66.7872 151.982 66.787 151.983 66.7875C 151.983 66.7873 151.985 66.789 151.985 66.7888C 151.984 66.7885 151.987 66.7901 151.986 66.7899C 151.986 66.7897 151.987 66.7907 151.987 66.7906C 151.987 66.7907 151.988 66.7908 151.988 66.7909C 151.988 66.7911 151.988 66.7913 151.4 67.6ZM 154 69.4C 154.899 69.3889 155.746 69.1382 156.259 68.9179C 156.531 68.7993 156.772 68.6698 156.915 68.5853C 156.992 68.5389 157.063 68.4942 157.102 68.4679C 157.125 68.4528 157.147 68.4378 157.158 68.4299C 157.166 68.4249 157.173 68.4196 157.177 68.417C 157.179 68.4153 157.182 68.4132 157.183 68.4123C 157.184 68.4116 157.185 68.4107 157.186 68.4104C 157.186 68.4101 157.187 68.4097 157.187 68.4095C 157.187 68.4094 157.188 68.4092 157.188 68.4091C 157.188 68.4089 157.188 68.4087 156.6 67.6C 156.012 66.7913 156.012 66.7911 156.012 66.7909C 156.012 66.7908 156.013 66.7907 156.013 66.7906C 156.013 66.7907 156.014 66.7897 156.014 66.7899C 156.013 66.7901 156.016 66.7885 156.015 66.7888C 156.015 66.789 156.017 66.7873 156.017 66.7875C 156.018 66.787 156.017 66.7872 156.016 66.7881C 156.011 66.7918 156.008 66.7941 155.997 66.8008C 155.971 66.8183 155.943 66.8361 155.895 66.8647C 155.785 66.9302 155.656 67.0007 155.466 67.0821C 155.054 67.2618 154.601 67.4111 154 67.4L 154 69.4ZM 156.6 67.6C 156.422 68.5841 156.422 68.5841 156.422 68.5841C 156.422 68.5841 156.422 68.5841 156.422 68.5841C 156.423 68.5841 156.423 68.5842 156.423 68.5842C 156.424 68.5844 156.425 68.5846 156.426 68.5848C 156.43 68.5854 156.434 68.5863 156.441 68.5875C 156.454 68.5899 156.473 68.5934 156.499 68.5982C 156.551 68.6078 156.627 68.6219 156.725 68.6405C 156.922 68.6781 157.201 68.7324 157.543 68.8018C 158.23 68.9414 159.145 69.1371 160.099 69.3712C 161.055 69.6054 162.012 69.8672 162.808 70.1469C 163.202 70.2845 163.516 70.41 163.782 70.5433C 164.033 70.6665 164.21 70.8385 164.163 70.7757L 165.637 69.4243C 165.372 69.1354 165.005 68.9179 164.673 68.7528C 164.335 68.5853 163.906 68.4123 163.47 68.2593C 162.607 67.9578 161.558 67.6696 160.576 67.4288C 159.592 67.1878 158.639 66.9836 157.941 66.8419C 157.591 66.7707 157.299 66.7141 157.099 66.6758C 156.997 66.6566 156.917 66.6416 156.863 66.6316C 156.836 66.6266 156.815 66.6226 156.801 66.6201C 156.793 66.6187 156.788 66.6177 156.784 66.617C 156.782 66.6167 156.78 66.6164 156.78 66.6162C 156.779 66.6161 156.779 66.6161 156.778 66.616C 156.778 66.616 156.778 66.616 156.778 66.6159C 156.778 66.6159 156.778 66.6159 156.6 67.6ZM 164.147 70.7585C 164.077 70.7025 164.28 71.0197 164.401 71.4781C 164.529 71.9494 164.634 72.5001 164.726 73.0609C 164.817 73.6203 164.886 74.149 164.934 74.5496C 164.957 74.7481 164.975 74.9087 164.987 75.0231C 164.993 75.0794 164.997 75.1222 165 75.1523C 165.002 75.1669 165.003 75.1775 165.004 75.1851C 165.004 75.1887 165.004 75.1911 165.004 75.1929C 165.004 75.1937 165.004 75.1942 165.004 75.1946C 165.005 75.1948 165.005 75.1948 165.005 75.1949C 165.005 75.1949 165.005 75.1949 165.005 75.1949C 165.005 75.1949 165.005 75.1948 166 75.1C 166.995 75.0052 166.995 75.0051 166.995 75.005C 166.995 75.0049 166.995 75.0048 166.995 75.0047C 166.995 75.0045 166.995 75.0042 166.995 75.0038C 166.995 75.0032 166.995 75.0022 166.995 75.001C 166.995 74.9988 166.995 74.9951 166.994 74.9908C 166.993 74.9824 166.992 74.9693 166.99 74.953C 166.987 74.9211 166.982 74.8729 166.976 74.8128C 166.963 74.6944 166.944 74.5206 166.92 74.3128C 166.87 73.901 166.796 73.3297 166.699 72.7391C 166.603 72.1499 166.478 71.5006 166.333 70.9594C 166.202 70.4734 166.001 69.8394 165.653 69.4415L 164.147 70.7585ZM 166.823 75.6677L 176.823 61.1677L 175.177 60.0323L 165.177 74.5323L 166.823 75.6677ZM 176 60.6C 175.018 60.4129 175.018 60.4129 175.018 60.4129C 175.018 60.413 175.018 60.4131 175.018 60.4132C 175.018 60.4135 175.017 60.4139 175.017 60.4144C 175.017 60.4156 175.017 60.4174 175.016 60.4198C 175.015 60.4247 175.014 60.4319 175.012 60.4416C 175.008 60.4614 175.003 60.4903 174.995 60.5287C 174.98 60.606 174.958 60.7191 174.929 60.8654C 174.872 61.159 174.787 61.5808 174.68 62.1014C 174.465 63.1449 174.161 64.5703 173.801 66.124C 173.073 69.2635 172.142 72.7931 171.288 74.6896L 173.112 75.5104C 174.058 73.4069 175.027 69.6865 175.749 66.576C 176.114 65.0047 176.423 63.555 176.639 62.5049C 176.747 61.9786 176.833 61.5488 176.892 61.2526C 176.921 61.104 176.944 60.9875 176.959 60.9091C 176.966 60.8696 176.972 60.8391 176.976 60.8189C 176.978 60.8086 176.98 60.8007 176.981 60.7955C 176.981 60.7928 176.982 60.7907 176.982 60.7894C 176.982 60.7887 176.982 60.7881 176.982 60.7878C 176.982 60.7876 176.982 60.7874 176.982 60.7873C 176.982 60.7872 176.982 60.7871 176 60.6ZM 171.291 74.6833C 170.741 75.8829 169.898 77.7176 169.031 79.4528C 168.146 81.2221 167.293 82.7695 166.724 83.4694L 168.276 84.7306C 169.007 83.8305 169.954 82.0779 170.819 80.3472C 171.702 78.5824 172.559 76.7171 173.109 75.5166L 171.291 74.6833ZM 166.738 83.4528C 164.487 86.1035 163.11 87.3942 161.63 88.0801C 160.154 88.7635 158.465 88.9 155.4 88.9L 155.4 90.9C 158.435 90.9 160.546 90.7865 162.47 89.8949C 164.39 89.0058 166.013 87.3965 168.262 84.7472L 166.738 83.4528ZM 155.4 88.9C 152.318 88.9 150.814 88.8108 149.394 88.1547C 147.937 87.4812 146.489 86.1746 143.707 83.3929L 142.293 84.8071C 145.011 87.5254 146.713 89.1188 148.556 89.9703C 150.436 90.8392 152.382 90.9 155.4 90.9L 155.4 88.9ZM 143.707 83.3929C 141.745 81.4308 139.41 77.1763 138.541 74.7613L 136.659 75.4387C 137.59 78.0237 140.055 82.5692 142.293 84.8071L 143.707 83.3929ZM 138.549 74.7838C 137.96 73.0212 137.072 69.4396 136.323 66.2701C 135.949 64.686 135.613 63.2157 135.369 62.1388C 135.247 61.6008 135.149 61.1625 135.082 60.8579C 135.048 60.7058 135.021 60.5876 135.004 60.5071C 134.995 60.4669 134.988 60.4364 134.983 60.4158C 134.981 60.4055 134.979 60.3978 134.978 60.3926C 134.978 60.39 134.977 60.3881 134.977 60.3868C 134.977 60.3862 134.977 60.3857 134.977 60.3854C 134.977 60.3852 134.977 60.3851 134.977 60.3851C 134.977 60.385 134.977 60.385 134 60.6C 133.023 60.815 133.023 60.8151 133.023 60.8152C 133.023 60.8153 133.023 60.8154 133.024 60.8156C 133.024 60.8159 133.024 60.8165 133.024 60.8172C 133.024 60.8185 133.025 60.8205 133.025 60.8232C 133.026 60.8285 133.028 60.8365 133.03 60.847C 133.035 60.8678 133.042 60.8989 133.051 60.9395C 133.069 61.0204 133.095 61.1399 133.129 61.2928C 133.197 61.5984 133.296 62.0398 133.418 62.5799C 133.662 63.6593 134.001 65.139 134.377 66.7299C 135.128 69.9104 136.04 73.5788 136.651 75.4162L 138.549 74.7838ZM 134.783 40.5843C 134.9 39.9586 135.494 38.6719 136.15 37.4116C 136.463 36.8093 136.765 36.2606 136.992 35.8549C 137.106 35.6533 137.198 35.4914 137.263 35.3775C 137.296 35.3211 137.321 35.2782 137.338 35.2483C 137.346 35.2337 137.353 35.2229 137.357 35.2154C 137.359 35.2118 137.361 35.2092 137.362 35.2074C 137.362 35.2065 137.363 35.206 137.363 35.2055C 137.363 35.2054 137.363 35.2053 137.363 35.2052C 137.363 35.2051 137.363 35.2051 137.363 35.2051C 137.363 35.2051 137.363 35.2052 136.5 34.7C 135.637 34.1948 135.637 34.1949 135.637 34.195C 135.637 34.195 135.637 34.1951 135.637 34.1952C 135.637 34.1954 135.637 34.1956 135.636 34.196C 135.636 34.1965 135.635 34.1975 135.635 34.1986C 135.634 34.2007 135.632 34.2041 135.629 34.2082C 135.624 34.2163 135.617 34.2288 135.608 34.2446C 135.59 34.2756 135.563 34.3222 135.529 34.3811C 135.462 34.4977 135.365 34.6685 135.248 34.8763C 135.016 35.2894 134.7 35.8657 134.375 36.4884C 133.756 37.6781 133 39.2414 132.817 40.2157L 134.783 40.5843ZM 135.863 35.471L 142.763 41.171L 144.037 39.6291L 137.137 33.929L 135.863 35.471ZM 143.4 40.4C 143.582 41.3832 143.583 41.3832 143.583 41.3831C 143.583 41.3831 143.583 41.383 143.584 41.383C 143.585 41.3828 143.586 41.3826 143.587 41.3823C 143.59 41.3818 143.595 41.3809 143.6 41.3799C 143.611 41.3778 143.628 41.3746 143.65 41.3705C 143.692 41.3624 143.757 41.3501 143.839 41.3341C 144.003 41.3023 144.245 41.2544 144.55 41.1918C 145.158 41.0672 146.034 40.881 147.078 40.64C 149.16 40.1594 151.963 39.4487 154.756 38.5521C 157.547 37.6549 160.413 36.5366 162.557 35.2696C 163.64 34.6257 164.626 33.876 165.301 33.1175C 166.003 32.3202 166.5 31.3743 166.5 30.3L 164.5 30.3C 164.5 30.7257 164.307 31.2204 163.8 31.7958C 163.266 32.4099 162.526 32.965 161.537 33.5492C 159.537 34.7384 156.878 35.7701 154.144 36.6479C 151.412 37.5263 148.69 38.2156 146.628 38.6912C 145.601 38.9284 144.75 39.1094 144.149 39.2325C 143.85 39.2937 143.618 39.3397 143.457 39.3709C 143.378 39.3864 143.318 39.3978 143.277 39.4056C 143.257 39.4095 143.242 39.4122 143.232 39.4142C 143.227 39.4151 143.223 39.4158 143.221 39.4162C 143.219 39.4164 143.219 39.4166 143.218 39.4167C 143.218 39.4167 143.218 39.4168 143.218 39.4168C 143.218 39.4168 143.218 39.4168 143.4 40.4ZM 166.5 30.3C 166.498 29.9955 166.511 29.8787 166.558 29.7661C 166.575 29.7195 166.542 29.8393 166.374 29.9175C 166.22 29.9896 166.123 29.9446 166.186 29.9631C 166.295 29.9905 166.383 30.0396 166.58 30.1753C 167.423 30.7447 168.649 32.0782 169.97 33.7254C 171.266 35.3424 172.559 37.1399 173.538 38.549C 174.027 39.2518 174.432 39.8502 174.718 40.2766C 174.86 40.4889 174.971 40.6562 175.048 40.7717C 175.086 40.8291 175.114 40.8727 175.134 40.9026C 175.143 40.9173 175.151 40.9282 175.156 40.9358C 175.158 40.9394 175.16 40.9421 175.161 40.9439C 175.161 40.9448 175.162 40.9454 175.162 40.9458C 175.162 40.946 175.162 40.9461 175.162 40.9462C 175.162 40.9463 175.162 40.9463 176 40.4C 176.838 39.8537 176.838 39.8536 176.837 39.8534C 176.837 39.8533 176.837 39.853 176.837 39.8527C 176.837 39.8522 176.836 39.8513 176.835 39.8503C 176.834 39.8482 176.832 39.845 176.829 39.841C 176.824 39.8331 176.816 39.821 176.806 39.8054C 176.786 39.7747 176.756 39.7287 176.717 39.6696C 176.639 39.5523 176.524 39.3795 176.38 39.1633C 176.091 38.7327 175.676 38.1201 175.18 37.4072C 174.191 35.9851 172.859 34.1327 171.53 32.4746C 170.226 30.8468 168.827 29.2803 167.701 28.5185C 167.406 28.3213 167.043 28.1357 166.752 28.045C 166.415 27.9455 165.97 27.8991 165.528 28.1052C 165.074 28.3173 164.815 28.7065 164.678 29.0832C 164.571 29.394 164.502 29.8545 164.5 30.3L 166.5 30.3ZM 175.001 40.4532L 175.901 57.3532L 177.899 57.2468L 176.999 40.3468L 175.001 40.4532ZM 176.9 57.3C 177.849 57.6146 177.849 57.6142 177.85 57.6137C 177.85 57.6133 177.85 57.6127 177.85 57.612C 177.85 57.6108 177.851 57.6086 177.852 57.6062C 177.854 57.6016 177.856 57.5942 177.859 57.5851C 177.865 57.5676 177.873 57.5403 177.885 57.5057C 177.906 57.438 177.939 57.3351 177.98 57.2036C 178.061 56.9435 178.179 56.5564 178.319 56.0688C 178.599 55.0998 178.978 53.6983 179.366 52.0223C 180.139 48.6836 180.963 44.1461 181.137 39.5624C 181.308 34.9834 180.839 30.2043 178.933 26.3934C 176.993 22.5123 173.586 19.6937 168.107 19.1057L 167.893 21.0943C 172.664 21.6063 175.495 23.9877 177.145 27.2878C 178.83 30.6582 179.304 35.0416 179.138 39.4876C 178.975 43.9289 178.18 48.2789 177.418 51.5715C 177.039 53.2111 176.673 54.5611 176.398 55.5148C 176.261 55.9886 176.149 56.3555 176.07 56.6092C 176.031 56.7346 176.002 56.8285 175.981 56.8933C 175.97 56.925 175.963 56.948 175.958 56.9642C 175.955 56.9719 175.953 56.9772 175.952 56.9811C 175.952 56.9829 175.951 56.9839 175.951 56.9848C 175.951 56.9852 175.951 56.9853 175.951 56.9855C 175.951 56.9855 175.951 56.9854 176.9 57.3ZM 168.096 19.1046C 164.967 18.8018 162.915 18.5091 161.571 17.9715L 160.829 19.8285C 162.485 20.491 164.833 20.7982 167.904 21.0953L 168.096 19.1046ZM 161.589 17.9788C 159.429 17.0724 157.238 15.5659 155.522 14.2451C 154.67 13.5889 153.964 12.9978 153.459 12.561C 153.209 12.3447 153.016 12.1725 152.881 12.0507C 152.815 11.9908 152.765 11.9457 152.731 11.914C 152.714 11.8987 152.702 11.8877 152.694 11.8798C 152.69 11.8761 152.687 11.8736 152.685 11.8718C 152.684 11.8709 152.684 11.8705 152.684 11.8701C 152.683 11.8699 152.683 11.8699 152.683 11.8698C 152.683 11.8698 152.683 11.8699 152.683 11.8698C 152.683 11.8699 152.683 11.87 152 12.6C 151.317 13.33 151.317 13.3301 151.317 13.3302C 151.317 13.3303 151.317 13.3304 151.317 13.3306C 151.317 13.3308 151.318 13.3311 151.318 13.3315C 151.319 13.3322 151.32 13.3333 151.322 13.3346C 151.324 13.337 151.328 13.3409 151.333 13.3455C 151.343 13.3544 151.358 13.3684 151.377 13.3857C 151.413 13.4194 151.469 13.4707 151.54 13.5349C 151.68 13.6611 151.889 13.8474 152.15 14.0733C 152.668 14.5209 153.418 15.1486 154.303 15.8299C 156.062 17.1841 158.471 18.8276 160.811 19.8213L 161.589 17.9788ZM 151.093 12.1783L 149.093 16.4783L 150.907 17.3217L 152.907 13.0217L 151.093 12.1783ZM 150.303 15.9469L 141.803 13.2469L 141.197 15.1531L 149.697 17.8531L 150.303 15.9469ZM 141.5 14.2C 140.504 14.1134 140.504 14.1132 140.504 14.1131C 140.504 14.1131 140.504 14.113 140.504 14.1129C 140.504 14.1129 140.504 14.1126 140.504 14.1127C 140.504 14.1126 140.504 14.1126 140.504 14.1128C 140.504 14.1135 140.504 14.114 140.504 14.1154C 140.503 14.119 140.503 14.1232 140.502 14.1302C 140.501 14.1457 140.499 14.1661 140.496 14.1955C 140.489 14.2577 140.479 14.3417 140.465 14.4532C 140.435 14.6831 140.39 14.9857 140.319 15.3445C 140.175 16.0761 139.969 16.885 139.618 17.5294L 141.382 18.4706C 141.831 17.615 142.125 16.5239 142.281 15.7305C 142.36 15.3267 142.415 14.9606 142.448 14.7124C 142.464 14.5849 142.477 14.4775 142.484 14.408C 142.488 14.3716 142.491 14.3411 142.493 14.3222C 142.494 14.312 142.495 14.303 142.495 14.2979C 142.496 14.2949 142.496 14.2921 142.496 14.2906C 142.496 14.2896 142.496 14.2886 142.496 14.2882C 142.496 14.2879 142.496 14.2875 142.496 14.2873C 142.496 14.2872 142.496 14.287 142.496 14.2869C 142.496 14.2868 142.496 14.2866 141.5 14.2ZM 139.624 17.5174C 139.011 18.6439 138.196 19.5336 137.212 20.4743C 136.227 21.4172 135.113 22.3496 134.018 23.4429C 131.783 25.6783 129.697 28.5425 129.01 33.4616L 130.99 33.7384C 131.603 29.3574 133.417 26.8717 135.432 24.8571C 136.462 23.8254 137.56 22.9078 138.594 21.9195C 139.629 20.9289 140.639 19.8061 141.376 18.4826L 139.624 17.5174ZM 129.01 33.4616C 127.705 43.0034 130.855 51.8277 131.851 54.8162L 133.749 54.1838C 132.745 51.1723 129.695 42.7966 130.99 33.7384L 129.01 33.4616ZM 131.848 54.807C 131.913 55.0071 132.005 55.2624 132.148 55.4659C 132.206 55.5489 132.389 55.7995 132.734 55.9092C 133.218 56.0627 133.619 55.8392 133.824 55.6232C 133.985 55.4525 134.059 55.2641 134.091 55.1773C 134.121 55.0898 134.155 54.9618 134.175 54.8653C 134.21 54.692 134.24 54.4538 134.262 54.2127C 134.342 53.2876 134.362 51.7348 134.375 50.0072C 134.387 48.2802 134.394 46.3544 134.446 44.6306C 134.499 42.9103 134.59 41.4635 134.777 40.6113L 132.823 40.1887C 132.61 41.1865 132.501 42.8148 132.447 44.5694C 132.394 46.3206 132.388 48.2698 132.375 49.9928C 132.363 51.7152 132.345 53.1874 132.269 54.0373C 132.252 54.2399 132.236 54.3673 132.215 54.4687C 132.207 54.5095 132.207 54.5013 132.209 54.4987C 132.206 54.5053 132.253 54.4032 132.243 54.424C 132.262 54.3892 132.301 54.3221 132.371 54.2487C 132.538 54.0725 132.898 53.8629 133.339 54.0027C 133.641 54.0986 133.778 54.3079 133.787 54.3204C 133.831 54.3829 133.812 54.3804 133.752 54.193L 131.848 54.807ZM 62.0716 84.6964L 50.4716 90.1964L 51.3284 92.0036L 62.9284 86.5036L 62.0716 84.6964ZM 51.3822 90.2239L 40.4822 84.2239L 39.5178 85.976L 50.4178 91.976L 51.3822 90.2239ZM 40.3021 82.2802L 50.7021 84.3802L 51.0979 82.4198L 40.6979 80.3198L 40.3021 82.2802ZM 51.1051 84.3788L 61.6051 82.1787L 61.1949 80.2213L 50.6949 82.4213L 51.1051 84.3788ZM 143 94.1C 142.445 94.932 142.446 94.9322 142.446 94.9323C 142.446 94.9324 142.446 94.9326 142.446 94.9327C 142.447 94.9329 142.447 94.9334 142.448 94.9338C 142.449 94.9344 142.451 94.9357 142.453 94.937C 142.456 94.9392 142.462 94.9431 142.469 94.9476C 142.481 94.9558 142.502 94.9692 142.527 94.9852C 142.574 95.0159 142.649 95.0633 142.741 95.1209C 142.922 95.2334 143.196 95.3993 143.535 95.5932C 144.204 95.9754 145.186 96.4987 146.344 97.0138C 148.638 98.0323 151.84 99.0871 155 99.1L 155 97.1C 152.16 97.1129 149.362 96.1677 147.156 95.1862C 146.064 94.7013 145.171 94.2246 144.527 93.8567C 144.21 93.6757 143.969 93.5291 143.798 93.4228C 143.715 93.3711 143.654 93.3325 143.611 93.3046C 143.59 93.2914 143.576 93.2822 143.566 93.2754C 143.561 93.2723 143.558 93.2704 143.556 93.2688C 143.555 93.2682 143.555 93.268 143.554 93.2677C 143.554 93.2676 143.554 93.2676 143.554 93.2676C 143.554 93.2676 143.554 93.2677 143.554 93.2677C 143.555 93.2678 143.555 93.2679 143 94.1ZM 155 99.1C 158.16 99.0871 161.362 98.0323 163.656 97.0138C 164.814 96.4987 165.796 95.9754 166.465 95.5932C 166.804 95.3993 167.078 95.2334 167.259 95.1209C 167.351 95.0633 167.426 95.0159 167.473 94.9852C 167.498 94.9692 167.519 94.9558 167.531 94.9476C 167.538 94.9431 167.544 94.9392 167.547 94.937C 167.549 94.9357 167.551 94.9344 167.552 94.9338C 167.553 94.9334 167.553 94.9329 167.554 94.9327C 167.554 94.9326 167.554 94.9324 167.554 94.9323C 167.554 94.9322 167.555 94.932 167 94.1C 166.445 93.2679 166.445 93.2678 166.446 93.2677C 166.446 93.2677 166.446 93.2676 166.446 93.2676C 166.446 93.2676 166.446 93.2676 166.446 93.2677C 166.445 93.268 166.445 93.2682 166.444 93.2688C 166.442 93.2704 166.439 93.2723 166.434 93.2754C 166.424 93.2822 166.41 93.2914 166.389 93.3046C 166.346 93.3325 166.285 93.3711 166.202 93.4228C 166.031 93.5291 165.79 93.6757 165.473 93.8567C 164.829 94.2246 163.936 94.7013 162.844 95.1862C 160.638 96.1677 157.84 97.1129 155 97.1L 155 99.1ZM 50 83.6L 50 130.6L 52 130.6L 52 83.6L 50 83.6ZM 176.884 61.5789L 177.684 57.1789L 175.716 56.8211L 174.916 61.2211L 176.884 61.5789ZM 132.012 54.7521L 133.012 61.2521L 134.988 60.9479L 133.988 54.4479L 132.012 54.7521Z"/>
<path id="path1_fill" d="M 1.5 2.99999C 2.32843 2.99999 3 2.32842 3 1.49999C 3 0.671567 2.32843 -6.10352e-06 1.5 -6.10352e-06C 0.671573 -6.10352e-06 0 0.671567 0 1.49999C 0 2.32842 0.671573 2.99999 1.5 2.99999Z"/>
<path id="path2_fill" d="M 3.1 0C 4.8 0 6.20001 1.40001 6.20001 3.10001C 6.20001 4.80001 4.8 6.20001 3.1 6.20001C 1.4 6.20001 -6.10352e-06 4.80001 -6.10352e-06 3.10001C -6.10352e-06 1.40001 1.4 0 3.1 0ZM 0.400003 9.5L 5.70001 9.5L 5.70001 24.9L 0.400003 24.9L 0.400003 9.5ZM 10.4 9.5L 8.20001 9.5L 8.20001 13.6L 10.4 13.6L 10.4 19.5C 10.4 22.2 11.4 25.4 15.6 25.4C 17.8 25.4 19.5 24.4 19.5 24.4L 18.2 20.1C 18.2 20.1 17.6 20.6 16.9 20.6C 16.1 20.6 15.7 19.9 15.7 18.5L 15.7 13.6L 18.9 13.6L 18.9 9.5L 15.7 9.5L 15.7 3.79999L 10.4 3.79999L 10.4 9.5L 10.4 9.5ZM 36.9 17.9C 36.9 17.7 36.9 17.4 36.9 17.2C 36.9 11.8 33.3 9 28.7 9C 24.1 9 20.2 12.7 20.2 17.2C 20.2 21.7 24 25.3 28.7 25.3C 32.1 25.3 34.9 24.2 36.7 21.3L 32.9 19.4C 31.6 20.8 30.9 21.1 29.1 21.1C 27.8 21.1 25.8 20.3 25.8 17.9L 36.9 17.9L 36.9 17.9ZM 25.9 15C 26 13.6 27 12.5 28.8 12.5C 30.4 12.5 31.5 13.4 31.7 15L 25.9 15ZM 39.4 24.9L 44.7 24.9L 44.7 16.8C 44.7 16.4 45.1 13.7 47.8 13.7C 49.6 13.7 50.6 14.5 50.6 14.5L 52.8 10C 52.8 10 51.4 9 49.4 9C 46.4 9 44.7 11.7 44.7 11.7L 44.6 11.7L 44.6 9.5L 39.3 9.5L 39.3 24.9L 39.4 24.9ZM 53.2 17.2C 53.2 21.7 56.3 25.3 60.8 25.3C 62.9 25.3 64.7 24.4 65.8 23.1L 65.9 23.1L 65.9 24.8L 71.1 24.8L 71.1 9.39999L 65.8 9.39999L 65.8 10.9C 64.5 9.69999 62.8 9 60.8 9C 56.4 9.1 53.2 12.7 53.2 17.2ZM 58.9 17.2C 58.9 15.1 60.5 13.6 62.5 13.6C 64.5 13.6 66.1 15.1 66.1 17.2C 66.1 19.3 64.6 20.8 62.5 20.8C 60.3 20.8 58.9 19.3 58.9 17.2ZM 75.7 9.5L 73.5 9.5L 73.5 13.6L 75.7 13.6L 75.7 19.5C 75.7 22.2 76.7 25.4 80.9 25.4C 83.1 25.4 84.8 24.4 84.8 24.4L 83.5 20.1C 83.5 20.1 82.9 20.6 82.2 20.6C 81.4 20.6 81 19.9 81 18.5L 81 13.6L 84.2 13.6L 84.2 9.5L 81 9.5L 81 3.79999L 75.7 3.79999L 75.7 9.5L 75.7 9.5ZM 89.4 0C 91.1 0 92.6 1.40001 92.6 3.10001C 92.6 4.80001 91.2 6.20001 89.4 6.20001C 87.7 6.20001 86.3 4.80001 86.3 3.10001C 86.3 1.40001 87.7 0 89.4 0ZM 86.7 9.5L 92 9.5L 92 24.9L 86.7 24.9L 86.7 9.5ZM 99.6 9.5L 93.3 9.5L 101.5 24.9L 105.1 24.9L 113.3 9.5L 107 9.5L 103.2 17.9L 99.6 9.5ZM 117.4 0C 119.1 0 120.6 1.40001 120.6 3.10001C 120.6 4.80001 119.2 6.20001 117.4 6.20001C 115.7 6.20001 114.3 4.80001 114.3 3.10001C 114.2 1.40001 115.6 0 117.4 0ZM 114.6 9.5L 119.9 9.5L 119.9 24.9L 114.6 24.9L 114.6 9.5ZM 123.7 24.9L 129 24.9L 129 16.2C 129 14.7 130.6 13.2 132.1 13.2C 133.8 13.2 134.9 14.7 134.9 16.2L 134.9 24.9L 140.2 24.9L 140.2 14.8C 140.2 10.5 136.3 9.10001 133.4 9.10001C 131.7 9.10001 130.2 10 129 11.2L 128.9 11.2L 128.9 9.60001L 123.6 9.60001L 123.6 24.9L 123.7 24.9ZM 144.4 9.5L 142.2 9.5L 142.2 13.6L 144.4 13.6L 144.4 19.5C 144.4 22.2 145.4 25.4 149.6 25.4C 151.8 25.4 153.5 24.4 153.5 24.4L 152.2 20.1C 152.2 20.1 151.6 20.6 150.9 20.6C 150.1 20.6 149.7 19.9 149.7 18.5L 149.7 13.6L 152.9 13.6L 152.9 9.5L 149.7 9.5L 149.7 3.79999L 144.4 3.79999L 144.4 9.5L 144.4 9.5ZM 160.4 9.5L 155.1 9.5L 155.1 18.1C 155.1 23.3 157.7 25.3 163.4 25.3C 169.2 25.3 171.7 23.2 171.7 18.1L 171.7 9.5L 166.4 9.5L 166.4 16.8C 166.4 19.8 165.6 21 163.4 21C 161.2 21 160.4 19.8 160.4 16.8L 160.4 9.5ZM 177.8 0C 179.5 0 180.9 1.40001 180.9 3.10001C 180.9 4.80001 179.5 6.20001 177.8 6.20001C 176.1 6.20001 174.7 4.80001 174.7 3.10001C 174.6 1.40001 176.1 0 177.8 0ZM 175.1 9.5L 180.4 9.5L 180.4 24.9L 175.1 24.9L 175.1 9.5ZM 185 9.5L 182.8 9.5L 182.8 13.6L 185 13.6L 185 19.5C 185 22.2 186 25.4 190.2 25.4C 192.4 25.4 194.1 24.4 194.1 24.4L 192.8 20.1C 192.8 20.1 192.2 20.6 191.5 20.6C 190.7 20.6 190.3 19.9 190.3 18.5L 190.3 13.6L 193.5 13.6L 193.5 9.5L 190.3 9.5L 190.3 3.79999L 185 3.79999L 185 9.5L 185 9.5ZM 198.7 0C 200.4 0 201.8 1.40001 201.8 3.10001C 201.8 4.80001 200.4 6.20001 198.7 6.20001C 197 6.20001 195.6 4.80001 195.6 3.10001C 195.6 1.40001 197 0 198.7 0ZM 196 9.5L 201.3 9.5L 201.3 24.9L 196 24.9L 196 9.5ZM 208.9 9.5L 202.6 9.5L 210.8 24.9L 214.4 24.9L 222.6 9.5L 216.3 9.5L 212.5 17.9L 208.9 9.5Z"/>
<path id="path3_stroke" d="M 1.1786 0.0434259C 1.20258 -0.508338 0.774728 -0.975073 0.222965 -0.999057C -0.328799 -1.02304 -0.795534 -0.59519 -0.819518 -0.0434259L 1.1786 0.0434259ZM 77.3345 203.943C 77.8554 204.127 78.4264 203.853 78.6098 203.332C 78.7933 202.811 78.5197 202.24 77.9988 202.057L 77.3345 203.943ZM -0.819518 -0.0434259C -1.63182 18.6735 0.325625 52.9609 4.75757 86.4313C 6.97412 103.167 9.81569 119.742 13.2377 134.07C 16.6577 148.387 20.682 160.571 25.3025 168.503L 27.0307 167.497C 22.5637 159.829 18.593 147.88 15.183 133.605C 11.775 119.341 8.95145 102.867 6.74026 86.1687C 2.31673 52.7724 0.368133 18.6599 1.1786 0.0434259L -0.819518 -0.0434259ZM 25.3025 168.503C 34.486 184.268 44.432 192.079 53.6882 196.478C 58.2896 198.662 62.7272 200.006 66.7299 201.058C 70.7368 202.11 74.3183 202.879 77.3345 203.943L 77.9988 202.057C 74.8619 200.954 71.2013 200.165 67.2381 199.123C 63.2707 198.081 59.0102 196.796 54.5467 194.672C 45.6732 190.454 36.0222 182.932 27.0307 167.497L 25.3025 168.503Z"/>
<path id="path4_stroke" d="M 1.62345 0.0501561C 1.65116 -0.501434 1.22646 -0.971041 0.67487 -0.998741C 0.12328 -1.02644 -0.346327 -0.601746 -0.374028 -0.0501561L 1.62345 0.0501561ZM 94.7085 214.957C 95.2367 215.118 95.7955 214.82 95.9566 214.292C 96.1176 213.763 95.8198 213.204 95.2915 213.043L 94.7085 214.957ZM -0.374028 -0.0501561C -1.36315 19.6515 -1.46129 51.2967 1.45739 82.1101C 4.37165 112.864 10.3101 143.061 21.536 159.741L 23.1952 158.624C 12.2849 142.413 6.36471 112.697 3.44847 81.9214C 0.536626 51.2054 0.636135 19.7048 1.62345 0.0501561L -0.374028 -0.0501561ZM 21.536 159.741C 43.8362 192.875 79.5709 210.343 94.7085 214.957L 95.2915 213.043C 80.453 208.521 45.1674 191.271 23.1952 158.624L 21.536 159.741Z"/>
<path id="path5_stroke" d="M 1.23706 0.0534947C 1.26661 -0.497999 0.843485 -0.969024 0.291991 -0.998568C -0.259503 -1.02811 -0.730527 -0.604989 -0.760071 -0.0534947L 1.23706 0.0534947ZM 95.4638 203.962C 95.9948 204.113 96.5483 203.806 96.7 203.275C 96.8517 202.744 96.5443 202.19 96.0132 202.038L 95.4638 203.962ZM -0.760071 -0.0534947C -1.76146 18.6757 0.396174 48.7403 5.604 77.9754C 10.8056 107.168 19.0833 135.784 30.4262 151.583L 32.0508 150.417C 20.9936 135.016 12.7714 106.799 7.57299 77.6246C 2.38082 48.493 0.238456 18.6576 1.23706 0.0534947L -0.760071 -0.0534947ZM 30.4262 151.583C 52.9323 182.931 80.042 199.555 95.4638 203.962L 96.0132 202.038C 81.1016 197.778 54.3447 181.469 32.0508 150.417L 30.4262 151.583Z"/>
<path id="path6_stroke" d="M 0.50873 -0.860926C 0.033254 -1.14189 -0.579962 -0.984207 -0.860926 -0.50873C -1.14189 -0.033254 -0.984207 0.579962 -0.50873 0.860926L 0.50873 -0.860926ZM 52.9096 0.91227C 53.4134 0.686059 53.6385 0.0942421 53.4123 -0.40959C 53.1861 -0.913423 52.5942 -1.13848 52.0904 -0.91227L 52.9096 0.91227ZM -0.50873 0.860926C 10.7594 7.51936 28.1014 12.0507 52.9096 0.91227L 52.0904 -0.91227C 27.8987 9.94934 11.2406 5.48063 0.50873 -0.860926L -0.50873 0.860926Z"/>
<path id="path7_stroke" d="M 82.5 30L 83.4985 30.0538L 83.6547 27.1588L 81.747 29.342L 82.5 30ZM 37.5 81.5L 36.747 80.842L 35.444 82.3332L 37.4175 82.4966L 37.5 81.5ZM 88 0L 88.4769 -0.878935L 88.0472 -1.11215L 87.5992 -0.916157L 88 0ZM 8 35L 7.59918 34.0838L 7.06356 34.3182L 7.00502 34.8999L 8 35ZM 0 114.5L -0.994975 114.4L -1.0539 114.985L -0.570596 115.321L 0 114.5ZM 77 168L 76.4294 168.821L 77.0056 169.222L 77.5782 168.816L 77 168ZM 152.5 114.5L 153.078 115.316L 153.5 115.017L 153.5 114.5L 152.5 114.5ZM 152.5 35L 153.5 35L 153.5 34.4049L 152.977 34.1211L 152.5 35ZM 77.9985 132.054L 83.4985 30.0538L 81.5015 29.9462L 76.0015 131.946L 77.9985 132.054ZM 81.747 29.342L 36.747 80.842L 38.253 82.158L 83.253 30.658L 81.747 29.342ZM 37.4175 82.4966L 115.917 88.9966L 116.083 87.0034L 37.5825 80.5034L 37.4175 82.4966ZM 87.5992 -0.916157L 7.59918 34.0838L 8.40082 35.9162L 88.4008 0.916157L 87.5992 -0.916157ZM 7.00502 34.8999L -0.994975 114.4L 0.994975 114.6L 8.99498 35.1001L 7.00502 34.8999ZM -0.570596 115.321L 76.4294 168.821L 77.5706 167.179L 0.570596 113.679L -0.570596 115.321ZM 77.5782 168.816L 153.078 115.316L 151.922 113.684L 76.4218 167.184L 77.5782 168.816ZM 153.5 114.5L 153.5 35L 151.5 35L 151.5 114.5L 153.5 114.5ZM 152.977 34.1211L 88.4769 -0.878935L 87.5231 0.878935L 152.023 35.8789L 152.977 34.1211Z"/>
<path id="path8_fill" d="M 18 9C 18 13.9706 13.9706 18 9 18C 4.02944 18 0 13.9706 0 9C 0 4.02944 4.02944 0 9 0C 13.9706 0 18 4.02944 18 9Z"/>
<path id="path9_stroke_2x" d="M 17 9C 17 13.4183 13.4183 17 9 17L 9 19C 14.5228 19 19 14.5228 19 9L 17 9ZM 9 17C 4.58172 17 1 13.4183 1 9L -1 9C -1 14.5228 3.47715 19 9 19L 9 17ZM 1 9C 1 4.58172 4.58172 1 9 1L 9 -1C 3.47715 -1 -1 3.47715 -1 9L 1 9ZM 9 1C 13.4183 1 17 4.58172 17 9L 19 9C 19 3.47715 14.5228 -1 9 -1L 9 1Z"/>
<path id="path10_fill" d="M 9 4.5C 9 6.98528 6.98528 9 4.5 9C 2.01472 9 0 6.98528 0 4.5C 0 2.01472 2.01472 0 4.5 0C 6.98528 0 9 2.01472 9 4.5Z"/>
<path id="path11_stroke_2x" d="M 8 4.5C 8 6.433 6.433 8 4.5 8L 4.5 10C 7.53757 10 10 7.53757 10 4.5L 8 4.5ZM 4.5 8C 2.567 8 1 6.433 1 4.5L -1 4.5C -1 7.53757 1.46243 10 4.5 10L 4.5 8ZM 1 4.5C 1 2.567 2.567 1 4.5 1L 4.5 -1C 1.46243 -1 -1 1.46243 -1 4.5L 1 4.5ZM 4.5 1C 6.433 1 8 2.567 8 4.5L 10 4.5C 10 1.46243 7.53757 -1 4.5 -1L 4.5 1Z"/>
<path id="path12_stroke" d="M 1.18452 0L 1.18452 -0.5L 0.745057 -0.5L 0.688655 -0.0641708L 1.18452 0ZM 8.68452 52L 8.38951 52.4037L 8.5213 52.5L 8.68452 52.5L 8.68452 52ZM 57.1845 45.5L 57.39 45.9558L 57.2215 45.0014L 57.1845 45.5ZM 41.1845 0L 41.5381 0.353553L 42.3916 -0.5L 41.1845 -0.5L 41.1845 0ZM 0.688655 -0.0641708C -0.229798 7.03493 -0.957136 18.1865 -0.151456 28.5015C 0.252573 33.6609 1.04725 38.653 2.39159 42.8148C 3.73862 46.98 5.665 50.4127 8.38951 52.4037L 8.97953 51.5963C 6.50404 49.7873 4.66375 46.5908 3.34307 42.5071C 2.01971 38.4199 1.24564 33.5433 0.845498 28.4235C 0.0428435 18.1801 0.765505 7.13174 1.68039 0.0641708L 0.688655 -0.0641708ZM 8.68452 52.5C 32.6841 52.5 45.449 51.3377 57.39 45.9558L 56.9791 45.0442C 45.2534 50.329 32.685 51.5 8.68452 51.5L 8.68452 52.5ZM 57.2215 45.0014C 53.0005 44.6887 43.6578 40.046 41.681 23.4409L 40.688 23.5591C 42.7112 40.554 52.3685 45.6446 57.1476 45.9986L 57.2215 45.0014ZM 41.681 23.4409C 40.683 15.0612 40.4762 9.43407 40.6216 5.78235C 40.6933 3.96702 40.8497 2.67209 41.041 1.76374C 41.1343 1.31771 41.2285 0.99502 41.3283 0.743532C 41.4266 0.49464 41.5054 0.386254 41.5381 0.353553L 40.831 -0.353553C 40.6553 -0.17792 40.5154 0.0793181 40.3981 0.37639C 40.2825 0.670865 40.1644 1.07448 40.0624 1.55814C 39.8631 2.50916 39.6965 3.88714 39.6224 5.74265C 39.4762 9.43259 39.686 15.1388 40.688 23.5591L 41.681 23.4409ZM 41.1845 -0.5L 1.18452 -0.5L 1.18452 0.5L 41.1845 0.5L 41.1845 -0.5Z"/>
<path id="path13_stroke" d="M 0.894754 0L 0.894754 -0.5L 0.451091 -0.5L 0.398305 -0.0594885L 0.894754 0ZM 6.56004 42.4208L 6.25028 42.8133L 6.38651 42.9208L 6.56004 42.9208L 6.56004 42.4208ZM 43.1956 37.1182L 43.4144 37.5678L 45.0618 36.7659L 43.2355 36.6198L 43.1956 37.1182ZM 31.1096 0L 31.4765 0.339708L 32.254 -0.5L 31.1096 -0.5L 31.1096 0ZM 0.398305 -0.0594885C -0.295655 5.73362 -0.845307 14.8367 -0.236564 23.2554C 0.0688319 27.4666 0.67024 31.5459 1.68692 34.9456C 2.70497 38.3453 4.16588 41.1683 6.25028 42.8133L 6.8698 42.0283C 5.02628 40.5734 3.64195 37.9884 2.64489 34.6587C 1.64645 31.3291 1.06287 27.3576 0.760823 23.1832C 0.154676 14.8307 0.700313 5.82333 1.3912 0.0594885L 0.398305 -0.0594885ZM 6.56004 42.9208C 24.6894 42.9208 34.3625 41.9738 43.4144 37.5678L 42.9768 36.6686C 34.1516 40.9643 24.6885 41.9208 6.56004 41.9208L 6.56004 42.9208ZM 43.2355 36.6198C 40.1404 36.3722 33.099 32.6544 31.6066 19.1162L 30.6126 19.2257C 32.1418 33.0978 39.4524 37.3204 43.1557 37.6166L 43.2355 36.6198ZM 31.6066 19.1162C 30.853 12.2824 30.6969 7.69626 30.8067 4.71934C 30.8608 3.24066 30.9783 2.18898 31.1224 1.45044C 31.1924 1.08886 31.2621 0.830756 31.3366 0.628442C 31.3714 0.532269 31.398 0.471812 31.4298 0.413266C 31.4567 0.361509 31.4924 0.324426 31.4765 0.339708L 30.7428 -0.339708C 30.5968 -0.182048 30.4866 0.0409052 30.3973 0.285173C 30.309 0.528248 30.2184 0.862648 30.1408 1.25949C 29.9898 2.0378 29.8635 3.16665 29.8074 4.68258C 29.6969 7.69489 29.8556 12.3543 30.6126 19.2257L 31.6066 19.1162ZM 31.1096 -0.5L 0.894754 -0.5L 0.894754 0.5L 31.1096 0.5L 31.1096 -0.5Z"/>
<path id="path14_stroke" d="M 0.388287 0L 0.388287 -0.5L -0.0455728 -0.5L -0.106722 -0.0704706L 0.388287 0ZM 7.82176 44.9592L 7.36128 45.154L 7.4904 45.4592L 7.82176 45.4592L 7.82176 44.9592ZM 53 41.0685L 53.1896 41.5311L 53.0336 40.5696L 53 41.0685ZM 44.1398 0L 44.4762 0.369981L 45.4332 -0.5L 44.1398 -0.5L 44.1398 0ZM -0.106722 -0.0704706C -0.989722 6.13202 -0.309632 14.6234 1.17556 22.9457C 2.66227 31.2732 4.97207 39.5045 7.36128 45.154L 8.28224 44.7643C 5.91585 39.174 3.63705 31.05 2.16 22.77C 0.681423 14.4848 0.0225755 6.11646 0.883296 0.0704706L -0.106722 -0.0704706ZM 7.82176 45.4592C 30.5872 45.4592 41.8183 46.19 53.1896 41.5311L 52.8104 40.6058C 41.6718 45.1693 30.7101 44.4592 7.82176 44.4592L 7.82176 45.4592ZM 53.0336 40.5696C 51.1743 40.4444 49.5519 39.1059 48.1372 35.8337C 46.724 32.565 45.5856 27.5073 44.6356 20.2532L 43.6441 20.383C 44.5963 27.6541 45.748 32.8276 47.2193 36.2306C 48.6891 39.6303 50.5456 41.4043 52.9664 41.5673L 53.0336 40.5696ZM 44.6356 20.2532C 43.6869 13.0128 43.4906 8.15687 43.6288 5.00408C 43.6967 3.43925 43.8441 2.32918 44.0251 1.54863C 44.1129 1.16706 44.1997 0.896455 44.2929 0.683282C 44.3835 0.474573 44.4531 0.390909 44.4762 0.369981L 43.8035 -0.369981C 43.6284 -0.210784 43.49 0.0216705 43.3756 0.285002C 43.2639 0.543868 43.1488 0.901222 43.0508 1.32346C 42.8602 2.15052 42.7006 3.35146 42.6298 4.96042C 42.4906 8.15524 42.6905 13.0981 43.6441 20.383L 44.6356 20.2532ZM 44.1398 -0.5L 0.388287 -0.5L 0.388287 0.5L 44.1398 0.5L 44.1398 -0.5Z"/>
<path id="path15_stroke" d="M 23.6983 8.78307C 23.5785 9.3222 23.9184 9.85638 24.4575 9.97619C 24.9967 10.096 25.5308 9.75606 25.6506 9.21693L 23.6983 8.78307ZM 16.6745 8.50001L 16.0745 7.70001L 16.0745 7.70001L 16.6745 8.50001ZM 1.17446 13L 1.88156 12.2929L 1.88156 12.2929L 1.17446 13ZM 3.33082 9.03688C 3.62733 9.50283 4.24542 9.64018 4.71136 9.34367C 5.1773 9.04716 5.31465 8.42907 5.01814 7.96313L 3.33082 9.03688ZM 6.07889 0.200944C 6.18987 -0.340075 5.84125 -0.868624 5.30023 -0.979603C 4.75921 -1.09058 4.23066 -0.741964 4.11969 -0.200944L 6.07889 0.200944ZM 19.6744 63L 19.2272 63.8944C 19.5372 64.0494 19.9054 64.0329 20.2002 63.8507C 20.495 63.6684 20.6744 63.3466 20.6744 63L 19.6744 63ZM 19.6744 59.5L 20.4026 58.8146C 20.1217 58.5161 19.6869 58.4193 19.3058 58.5704C 18.9247 58.7216 18.6744 59.09 18.6744 59.5L 19.6744 59.5ZM 27.6745 68L 26.9463 68.6854C 27.1531 68.9052 27.4482 69.0198 27.7492 68.9972C 28.0502 68.9747 28.3249 68.8174 28.4967 68.5692L 27.6745 68ZM 32.1745 61.5L 32.1745 60.5C 31.8463 60.5 31.5391 60.661 31.3523 60.9308L 32.1745 61.5ZM 36.1745 61.5L 36.1745 62.5C 36.6355 62.5 37.0367 62.1848 37.146 61.737L 36.1745 61.5ZM 43.6745 42L 42.6845 41.8586L 43.6745 42ZM 46.1706 -0.0878938C 46.1221 -0.638041 45.6367 -1.04467 45.0866 -0.99613C 44.5364 -0.947587 44.1298 -0.462254 44.1783 0.0878938L 46.1706 -0.0878938ZM 25.6506 9.21693C 25.8296 8.4117 25.4663 7.64925 24.9827 7.11305C 24.479 6.55465 23.7429 6.10935 22.859 5.87178C 21.0605 5.38836 18.6658 5.7565 16.0745 7.70001L 17.2745 9.30001C 19.4831 7.64352 21.2551 7.51165 22.3399 7.80323C 22.8977 7.95316 23.2824 8.2141 23.4975 8.45258C 23.7409 8.69393 23.6368 8.87915 23.6983 8.78307L 25.6506 9.21693ZM 16.0745 7.70001C 13.1165 9.92016 10.1285 11.7179 7.47682 12.616C 4.80917 13.5254 2.95301 13.3643 1.88156 12.2929L 0.467362 13.7071C 2.39596 15.6357 5.28982 15.4746 8.12217 14.509C 10.9704 13.5321 14.2325 11.5799 17.2745 9.30001L 16.0745 7.70001ZM 1.88156 12.2929C 1.14327 11.5546 0.987354 10.9753 1.0008 10.5969C 1.01468 10.2064 1.21592 9.82347 1.58381 9.49995C 1.98124 9.13455 2.36545 8.96661 2.82262 8.93195C 3.22805 8.89052 3.32097 9.02141 3.33082 9.03688L 5.01814 7.96313C 4.44466 7.06194 3.43307 6.85916 2.61931 6.94231C 1.8573 7.03224 0.907657 7.44713 0.263074 7.99807C -0.41105 8.59088 -0.959982 9.45773 -0.997937 10.5259C -1.03632 11.606 -0.545723 12.6941 0.467362 13.7071L 1.88156 12.2929ZM 4.11969 -0.200944C 3.76226 1.5415 3.62282 4.88062 3.64543 8.95399C 3.66832 13.0562 3.858 18.0207 4.18904 23.0532C 4.84791 33.0666 6.07803 43.5792 7.72997 48.3285L 9.61896 47.6715C 8.07091 43.2208 6.84677 32.9834 6.18472 22.9218C 5.8553 17.9168 5.66784 13.0125 5.64539 8.94289C 5.62265 4.84438 5.76965 1.7085 6.07889 0.200944L 4.11969 -0.200944ZM 7.72997 48.3285C 11.0044 57.7426 16.6319 62.5968 19.2272 63.8944L 20.1217 62.1056C 18.0503 61.0699 12.7445 56.6574 9.61896 47.6715L 7.72997 48.3285ZM 20.6744 63L 20.6744 59.5L 18.6744 59.5L 18.6744 63L 20.6744 63ZM 18.9463 60.1854L 26.9463 68.6854L 28.4027 67.3146L 20.4026 58.8146L 18.9463 60.1854ZM 28.4967 68.5692L 32.9967 62.0692L 31.3523 60.9308L 26.8523 67.4308L 28.4967 68.5692ZM 32.1745 62.5L 36.1745 62.5L 36.1745 60.5L 32.1745 60.5L 32.1745 62.5ZM 37.146 61.737C 37.9235 58.4853 39.3635 56.3508 40.8646 53.6043C 42.3596 50.8657 43.8836 47.5328 44.6644 42.1414L 42.6845 41.8586C 41.9653 46.9672 40.5726 49.9676 39.1093 52.6457C 37.6521 55.3158 36.0921 57.6814 35.2029 61.263L 37.146 61.737ZM 44.6644 42.1414C 45.9227 33.332 47.6744 17.0096 46.1706 -0.0878938L 44.1783 0.0878938C 45.6745 16.9904 43.9382 33.0836 42.6845 41.8586L 44.6644 42.1414Z"/>
<path id="path16_stroke" d="M 21.902 2.10452C 21.79 2.64532 22.1376 3.17455 22.6784 3.28658C 23.2192 3.3986 23.7484 3.05101 23.8604 2.51021L 21.902 2.10452ZM 15.4627 1.80998L 14.8358 1.03085L 15.4627 1.80998ZM 1.08911 6.28654L 1.82058 5.60466L 1.82058 5.60466L 1.08911 6.28654ZM 3.01104 2.32017C 3.29282 2.79517 3.9063 2.95181 4.3813 2.67004C 4.8563 2.38826 5.01293 1.77478 4.73116 1.29978L 3.01104 2.32017ZM 23.8604 2.51021C 24.0203 1.73844 23.6987 0.993949 23.2438 0.452976C 22.7724 -0.107797 22.0768 -0.561722 21.2341 -0.804719C 19.5125 -1.30113 17.2507 -0.912104 14.8358 1.03085L 16.0895 2.58911C 18.1258 0.950816 19.7278 0.842442 20.68 1.11699C 21.1741 1.25947 21.518 1.50812 21.713 1.74006C 21.9247 1.99181 21.8967 2.1302 21.902 2.10452L 23.8604 2.51021ZM 14.8358 1.03085C 12.0958 3.23712 9.33774 5.01799 6.8892 5.90694C 4.4334 6.80505 2.7783 6.63204 1.82058 5.60466L 0.35764 6.96841C 2.18194 8.9254 4.93165 8.75238 7.57613 7.78527C 10.2279 6.80898 13.2656 4.85939 16.0895 2.58911L 14.8358 1.03085ZM 1.82058 5.60466C 1.14299 4.87779 0.987509 4.29436 1.00078 3.89372C 1.0144 3.48244 1.21112 3.09774 1.54254 2.78509C 1.88309 2.46382 2.3037 2.28009 2.63219 2.24408C 2.96094 2.20804 3.00906 2.31683 3.01104 2.32017L 4.73116 1.29978C 4.1922 0.391238 3.21608 0.168094 2.41425 0.25599C 1.61216 0.343915 0.795857 0.73998 0.170123 1.33027C -0.46474 1.92918 -0.963684 2.7878 -0.998124 3.82751C -1.03292 4.87785 -0.588863 5.95307 0.35764 6.96841L 1.82058 5.60466Z"/>
<path id="path17_stroke" d="M 21.7043 45.8238L 20.7905 46.23L 21.0377 46.7864L 21.6455 46.8221L 21.7043 45.8238ZM 28.6928 46.2349L 28.634 47.2332L 28.6928 46.2349ZM 35.2043 40.3238L 35.9725 40.964L 36.3815 40.4732L 36.108 39.8958L 35.2043 40.3238ZM 19.7043 27.8238L 18.7939 28.2376L 20.7043 27.8238L 19.7043 27.8238ZM 21.7043 26.3238L 20.7043 26.3238L 22.5987 26.771L 21.7043 26.3238ZM 25.7043 33.1572L 26.1104 34.071L 26.1188 34.0672L 26.1272 34.0633L 25.7043 33.1572ZM 18.8154 39.3238L 17.9016 39.73L 17.9016 39.73L 18.8154 39.3238ZM 34.0793 37.9488L 34.983 37.5207L 34.983 37.5207L 34.0793 37.9488ZM 20.7043 43.5739L 19.7905 43.98L 19.7905 43.98L 20.7043 43.5739ZM 31.1736 45.1607L 30.4054 44.5205L 31.1736 45.1607ZM 13.1941 29.4807L 12.6941 30.3467L 13.1941 29.4807ZM 28.1227 22.5411L 27.1453 22.3299L 28.1227 22.5411ZM 21.6455 46.8221L 28.634 47.2332L 28.7515 45.2367L 21.763 44.8256L 21.6455 46.8221ZM 31.9418 45.8009L 35.9725 40.964L 34.436 39.6837L 30.4054 44.5205L 31.9418 45.8009ZM 18.6122 36.4048L 16.3102 31.417L 14.4942 32.2551L 16.7963 37.2429L 18.6122 36.4048ZM 27.5375 26.3487L 29.7963 31.2429L 31.6122 30.4048L 29.3534 25.5106L 27.5375 26.3487ZM 13.6942 28.6147C 3.86063 22.9367 0.789708 17.2585 1.01119 12.773C 1.23449 8.2505 4.82582 4.3849 9.55069 2.38802C 14.2705 0.393299 19.7454 0.428803 23.4496 3.27507C 27.0936 6.07512 29.399 11.901 27.1453 22.3299L 29.1001 22.7524C 31.4334 11.9558 29.1871 5.16144 24.6682 1.68918C 20.2095 -1.73688 13.9103 -1.62576 8.77211 0.545793C 3.63901 2.7152 -0.71146 7.10654 -0.986379 12.6744C -1.26312 18.2792 2.6113 24.5248 12.6941 30.3467L 13.6942 28.6147ZM 22.2814 33.5843L 17.2814 35.9177L 18.1271 37.73L 23.1272 35.3967L 22.2814 33.5843ZM 23.453 33.8277C 21.961 32.1424 19.8921 29.6885 18.4892 27.7499C 17.7717 26.7589 17.3029 26.0021 17.14 25.5811C 17.1029 25.4887 17.1059 25.4609 17.1043 25.4786C 17.1051 25.4862 17.1297 25.6909 16.9719 25.9186C 16.7833 26.1907 16.513 26.2499 16.3984 26.2562C 16.3088 26.2611 16.2906 26.24 16.388 26.2725L 17.0205 24.3751C 16.8179 24.3076 16.5606 24.2442 16.288 24.2592C 15.9902 24.2757 15.5928 24.3974 15.328 24.7794C 15.094 25.1171 15.0935 25.479 15.1151 25.6861C 15.1375 25.8678 15.2041 26.1169 15.2748 26.303C 15.5431 26.9963 16.1618 27.9457 16.8693 28.9228C 18.3164 30.9203 20.4475 33.4497 21.9555 35.1533L 23.453 33.8277ZM 16.388 26.2725C 18.6317 27.0204 18.7043 27.9706 18.7043 27.8238L 20.7043 27.8238C 20.7043 26.677 19.5768 25.2272 17.0205 24.3751L 16.388 26.2725ZM 20.6146 27.41C 20.2047 26.5082 19.7531 25.3105 19.6294 24.5299C 19.5989 24.3432 19.5909 24.2577 19.602 24.1641C 19.6088 24.0849 19.6189 24.2076 19.4848 24.3558C 19.2994 24.5606 19.0639 24.5795 18.9751 24.5687C 18.9414 24.5726 19.0129 24.5712 19.1898 24.6813L 20.2188 22.9663C 19.9179 22.7858 19.5764 22.6271 19.2166 22.5833C 18.8121 22.5341 18.3461 22.6334 18.0019 23.0137C 17.7089 23.3374 17.6318 23.7307 17.6093 23.9933C 17.591 24.2415 17.6117 24.569 17.6541 24.8427C 17.8221 25.9038 18.3705 27.3061 18.7939 28.2376L 20.6146 27.41ZM 19.1898 24.6813C 20.1107 25.2339 20.5107 25.6759 20.6688 25.9288C 20.8444 26.2099 20.6744 26.1474 20.8098 25.8766L 22.5987 26.771C 22.9008 26.1669 22.7308 25.4545 22.3648 24.8688C 21.9812 24.2551 21.2978 23.6138 20.2188 22.9663L 19.1898 24.6813ZM 22.7043 26.3238C 22.704 25.5971 22.7474 24.6159 22.8866 23.8984C 22.9495 23.5599 23.0471 23.3988 23.0079 23.4257C 22.9807 23.4618 22.8068 23.6702 22.4673 23.6824C 22.3107 23.688 22.1866 23.6462 22.1082 23.6063C 22.035 23.5691 21.999 23.5328 21.9972 23.5309L 23.4114 22.1167C 23.2236 21.9289 22.8784 21.6664 22.3959 21.6836C 21.8923 21.7016 21.5716 22.0093 21.4131 22.2188C 21.1269 22.5971 20.9967 23.1316 20.9219 23.5242C 20.7611 24.3817 20.7045 25.5506 20.7043 26.3238L 22.7043 26.3238ZM 30.2814 29.9177L 25.2814 32.251L 26.1272 34.0633L 31.1271 31.73L 30.2814 29.9177ZM 25.2981 32.2434L 22.2981 33.5767L 23.1104 35.4043L 26.1104 34.071L 25.2981 32.2434ZM 21.9972 23.5309C 21.914 23.4714 22.2206 23.9441 22.4727 24.6683C 22.7315 25.408 23.0086 26.3486 23.289 27.385C 23.8509 29.4613 24.3948 31.8188 24.7265 33.3667L 26.6821 32.9476C 26.3471 31.3844 25.7909 28.9752 25.2196 26.8627C 24.9332 25.8046 24.6353 24.7952 24.3608 24.0086C 24.2214 23.6102 24.0752 23.236 23.9427 22.9491C 23.8189 22.6824 23.6464 22.3517 23.4114 22.1167L 21.9972 23.5309ZM 16.7905 37.23L 17.9016 39.73L 19.7292 38.9177L 18.6181 36.4177L 16.7905 37.23ZM 33.858 35.1457L 31.608 30.3957L 29.8005 31.2519L 32.0505 36.0019L 33.858 35.1457ZM 19.0717 40.2904L 33.2106 36.5404L 32.6979 34.6073L 18.559 38.3572L 19.0717 40.2904ZM 17.9016 39.73L 18.7905 41.73L 20.6181 40.9177L 19.7292 38.9177L 17.9016 39.73ZM 36.108 39.8958L 34.983 37.5207L 33.1755 38.3769L 34.3005 40.7519L 36.108 39.8958ZM 34.983 37.5207L 33.858 35.1457L 32.0505 36.0019L 33.1755 38.3769L 34.983 37.5207ZM 19.9328 42.2974L 34.3078 38.9224L 33.8507 36.9753L 19.4757 40.3503L 19.9328 42.2974ZM 18.7905 41.73L 19.7905 43.98L 21.6181 43.1677L 20.6181 40.9177L 18.7905 41.73ZM 19.7905 43.98L 20.7905 46.23L 22.6181 45.4177L 21.6181 43.1677L 19.7905 43.98ZM 20.9004 44.5544L 25.9004 43.5544L 25.5081 41.5933L 20.5081 42.5933L 20.9004 44.5544ZM 28.634 47.2332C 29.9015 47.3078 31.129 46.7762 31.9418 45.8009L 30.4054 44.5205C 29.999 45.0082 29.3852 45.2739 28.7515 45.2367L 28.634 47.2332ZM 16.3102 31.417C 15.7719 30.286 14.7426 29.2306 13.6942 28.6147L 12.6941 30.3467C 13.5182 30.812 14.1264 31.4228 14.4942 32.2551L 16.3102 31.417ZM 29.3534 25.5106C 28.9346 24.6426 28.8784 23.7316 29.1001 22.7524L 27.1453 22.3299C 26.8836 23.5877 26.9971 25.1387 27.5375 26.3487L 29.3534 25.5106Z"/>
<path id="path18_stroke" d="M 12.9756 1.93108L 13.9495 1.70416L 13.7694 0.931076L 12.9756 0.931076L 12.9756 1.93108ZM 19.3051 7.25975L 20.1397 6.70881L 20.1397 6.70881L 19.3051 7.25975ZM 31.9643 15.4095L 32.9604 15.4969L 31.9643 15.4095ZM 0 2.93108L 12.9756 2.93108L 12.9756 0.931076L 0 0.931076L 0 2.93108ZM 12.0017 2.158C 12.9453 6.20628 13.9737 12.0225 14.0169 16.47C 14.0405 18.7236 13.8037 20.4149 13.3189 21.3363C 13.0925 21.7667 12.8714 21.9175 12.6962 21.9695C 12.5093 22.025 12.1505 22.0347 11.5205 21.7227L 10.6329 23.515C 11.522 23.9553 12.4212 24.1374 13.2654 23.8868C 14.1212 23.6327 14.7041 22.9989 15.0889 22.2675C 15.8265 20.8655 16.0407 18.7249 16.0168 16.4491C 15.9651 11.8378 14.9047 5.8056 13.9495 1.70416L 12.0017 2.158ZM 11.5205 21.7227C 8.56969 20.267 6.75994 18.8597 5.61039 17.6319C 4.47198 16.4205 4.18388 15.5718 4.16059 15.3181L 2.16896 15.5009C 2.25117 16.3965 2.88086 17.6479 4.15295 19.0015C 5.4139 20.3389 7.50738 21.9616 10.6329 23.515L 11.5205 21.7227ZM 29.1777 -0.947721C 26.6031 -1.10709 22.8792 -0.947893 20.2984 0.175729C 19.0019 0.740245 17.8072 1.63157 17.3579 3.03347C 16.904 4.44988 17.314 6.05874 18.4706 7.81068L 20.1397 6.70881C 19.1442 5.20086 19.0716 4.23942 19.2625 3.64387C 19.458 3.0338 20.0356 2.4715 21.0968 2.00946C 23.2317 1.07998 26.5651 0.894381 29.0542 1.04846L 29.1777 -0.947721ZM 18.4706 7.81068C 19.9253 10.0142 21.59 11.228 23.2773 11.8887C 24.9155 12.517 26.5512 12.6271 27.8439 12.6862C 28.4911 12.7158 29.0413 12.7349 29.5187 12.8021C 29.9838 12.8644 30.2398 12.9238 30.4759 13.0862C 30.729 13.246 31.1155 13.6428 30.9681 15.322L 32.9604 15.4969C 33.1295 13.5714 32.7644 12.1659 31.5438 11.3952C 31.0431 11.0922 30.3818 10.9044 29.7924 10.8209C 29.2153 10.7425 28.5738 10.7175 27.9353 10.6883C 26.6566 10.6299 25.3451 10.5637 24.0065 10.0263C 22.7168 9.52135 21.3751 8.58014 20.1397 6.70881L 18.4706 7.81068ZM 30.9681 15.322C 30.8603 16.5496 30.4303 17.2958 29.8869 17.7697C 29.323 18.2614 28.5308 18.5516 27.5553 18.6544C 25.579 18.8628 23.1904 18.2653 21.5773 17.6163L 20.8307 19.4717C 22.5934 20.181 25.3317 20.9 27.765 20.6434C 28.9943 20.5138 30.2276 20.1261 31.2013 19.2771C 32.1953 18.4103 32.815 17.1531 32.9604 15.4969L 30.9681 15.322Z"/>
<path id="path19_stroke" d="M 0 16.5L -1 16.5L -1 16.6215L -0.97092 16.7394L 0 16.5ZM 9 53L 8.02908 53.2394L 8.93861 56.928L 9.96296 53.2696L 9 53ZM 44.5 44L 44.0771 43.0938L 44.5 44ZM 56 35L 56.8087 35.5882L 57.143 35.1285L 56.9191 34.6061L 56 35ZM 41 0L 41.9191 -0.393919L 40.7498 -3.12236L 40.0299 -0.242536L 41 0ZM 32 7L 32.1322 7.99123L 32 7ZM 9 3L 8.59386 2.08619L 9 3ZM -0.97092 16.7394L 8.02908 53.2394L 9.97092 52.7606L 0.97092 16.2606L -0.97092 16.7394ZM 9.96296 53.2696C 10.5304 51.2376 11.7111 48.2708 13.5021 45.7675C 15.2956 43.2485 17.4934 41.5 20 41.5L 20 39.5C 16.5066 39.5 13.7877 41.9182 11.8729 44.6075C 9.95557 47.3126 8.63625 50.5957 8.03704 52.7304L 9.96296 53.2696ZM 20 41.5C 23.5499 41.5 27.5518 43.1582 31.9549 44.518C 36.2022 45.8296 40.7938 46.8331 44.9229 44.9062L 44.0771 43.0938C 40.7062 44.6669 36.7978 43.9204 32.5451 42.607C 28.4482 41.3418 23.9501 39.5 20 39.5L 20 41.5ZM 44.9229 44.9062C 51.0969 42.025 55.39 37.5389 56.8087 35.5882L 55.1913 34.4118C 53.9433 36.1278 49.9031 40.375 44.0771 43.0938L 44.9229 44.9062ZM 56.9191 34.6061L 41.9191 -0.393919L 40.0809 0.393919L 55.0809 35.3939L 56.9191 34.6061ZM 40.0299 -0.242536C 39.612 1.42906 37.3949 5.27182 31.8678 6.00877L 32.1322 7.99123C 38.6051 7.12818 41.388 2.57094 41.9701 0.242536L 40.0299 -0.242536ZM 31.8678 6.00877C 30.1607 6.25064 28.5817 5.91192 26.8423 5.29199C 25.0963 4.6743 23.3332 3.78322 21.4658 2.95991C 17.7258 1.31181 13.5026 -0.0954549 8.59386 2.08619L 9.40614 3.91381C 13.4974 2.09545 17.0242 3.18819 20.6592 4.79009C 22.4793 5.59178 24.3099 6.5132 26.1733 7.17676C 28.0433 7.83808 30.0893 8.24936 32.1322 7.99123L 31.8678 6.00877ZM 8.59386 2.08619C 0.906122 5.50296 -1 13.0983 -1 16.5L 1 16.5C 1 13.5683 2.69388 6.89704 9.40614 3.91381L 8.59386 2.08619Z"/>
</defs>
</svg>
