<?xml version="1.0" encoding="utf-8"?>
<!-- Generator: Adobe Illustrator 18.1.0, SVG Export Plug-In . SVG Version: 6.00 Build 0)  -->
<svg version="1.1" id="Ebene_1" xmlns="http://www.w3.org/2000/svg" xmlns:xlink="http://www.w3.org/1999/xlink" x="0px" y="0px"
	 viewBox="213 124.3 364 282" enable-background="new 213 124.3 364 282" xml:space="preserve">
<g>
	<path d="M489.2,282.3v-12.8c1.9-2.6,4.6-8.4,7.1-13.8c2.8-6.2,5.7-21.5,6-22.7l1.4-5c0.6-1.9,11-34,0.5-50.5
		c-3.4-5.3-8.7-8.4-15.5-9.1c-4.6-0.5-7.9-0.9-10.1-1.7c-6.7-2.8-13.8-9.4-13.8-9.4c-0.3-0.3-0.9-0.5-1.4-0.5
		c-0.5,0.2-0.9,0.5-1.1,0.9l-2.5,5.4l-11.9-3.7c-0.5-0.2-0.9,0-1.4,0.2c-0.5,0.3-0.6,0.6-0.6,1.1c0,0-0.3,3.2-1.4,5.3
		c-1.4,2.5-3.4,4.3-5.7,6.3c-4.3,3.9-9.3,8.4-10.7,18.3c-2,14.1,2.3,26.9,4.2,32.3l0.2,0.6c0.2,0.3,0.3,0.6,0.5,0.9l1.4,8.2l0,0l0,0
		c0.2,0.8,3.7,17,5.6,22.6c1.2,3.4,4.5,9.6,7.6,13.3c-0.2,0.2-0.2,0.5-0.2,0.6V282c-32.8,0.3-52.9,12.7-59.9,37
		c-2.6-33.9-22.6-50.6-60.8-51.1v-11.1c6.3-3.6,11.5-13.8,13.8-22.9c0.9-4,1.9-9.9,2.3-15c0.6-0.8,1.9-1.5,4-1.5
		c2,0,2.9-0.9,3.4-1.7c0.9-1.7,0-4.2-1.1-6.3c3.4,0.3,7.7,0.2,9.1-2.3c1.4-2.6-0.8-6.8-2.5-9.4c3.6-0.9,9.7-3.1,9.7-8.2
		c0-1.5-0.6-2.8-1.7-3.7c-2.6-2.2-7.9-1.5-10.1-1.2l0,0c0-0.5,0.3-2,4.3-5.1l0.9-0.6c2.3-1.7,3.1-2.3,2.6-3.6
		c-0.5-1.2-1.7-1.1-2.5-1.1c-1.7,0.2-5,0.5-8.2-2.3c1.9-4.3,3.2-9.4,1.5-11.3c-2-2-7.4-1.7-11.1-1.2c0.8-2,2.2-5.1,4-8
		c1.5-2.6,1.7-4.6,0.5-6.2c-3.4-4-17.8,0.8-23.7,2.9c-2.2-3.1-9.1-11.1-24.9-11.1c-6.8,0-10.5,1.4-11.8,4.3
		c-1.1,2.9,1.1,6.2,2.6,7.9c-0.3,0.2-0.6,0.2-0.9,0.2c-1.2,0-3.4-0.8-6.5-4.5c-0.5-0.5-1.1-0.6-1.7-0.5c-4.8,1.4-7.7,3.9-8.7,7.1
		c-0.9,3.1,0,6.5,1.1,9c-2.8-0.3-6.5,0.3-10.4,3.4c-1.9,1.5-2.9,3.6-3.1,5.9c-0.5,5.4,3.9,11.6,6,14.4c-1.1,0.8-2.5,2-3.9,3.9
		c-1.7,2-2.2,3.7-1.4,5.3c1.4,2.8,6.5,3.2,8.5,3.2c0.3,0.3,0.8,0.9,0.6,1.5c0,0.9-1.1,2-2.9,3.1c-2.3,1.2-2.8,2.9-2.8,4
		c0.2,4.2,7.7,7.7,10.1,8.8c0,0,0.2,0,0.2,0.2c0.3,4,1.4,11.8,3.6,19.8c2.8,9.4,8,19.5,11.9,22.7c0.2,0.2,0.3,0.2,0.3,0.3l0,0v11
		c-41.2,0.5-61.1,19.7-61.1,58.8v13.9c0,0.9,0.6,1.5,1.5,1.5c0.9,0,1.5-0.6,1.5-1.5v-13.9c0-37.9,18.7-55.6,59.1-55.7
		c0.2,0.2,0.3,0.3,0.5,0.5l16.2,9v60.2c0,0.9,0.6,1.5,1.5,1.5s1.5-0.6,1.5-1.5v-60.2l16.9-8c0.5-0.3,0.8-0.8,0.9-1.2
		c39.6,0.5,58,18.1,58,55.7v13.9l0,0v0.2c0,0.9,0.6,1.5,1.5,1.5s1.5-0.6,1.5-1.5c0-37.5,20-55.6,60.8-55.7c0,0,0.2,0.2,0.3,0.2
		c0.5,0.3,9.7,6.5,19.5,6.5c9.7,0,19-6.2,19.5-6.5c0.2-0.2,0.3-0.2,0.3-0.3c40.2,0.2,60.7,18.9,60.7,55.7c0,0.9,0.6,1.5,1.5,1.5
		s1.5-0.6,1.5-1.5C551.9,303.1,530.2,282.8,489.2,282.3z M271.9,211c-3.6-1.7-7-4.2-7-5.6c0-0.5,0.6-0.9,1.1-1.2
		c2.9-1.7,4.5-3.6,4.5-5.7c0.2-2.6-2-4.3-2.2-4.5c-0.3-0.2-0.6-0.3-0.9-0.3c-2.6,0-5.9-0.6-6.2-1.5c-0.2-0.3,0-0.9,0.9-2
		c2.2-2.8,4.5-4,4.5-4.2c0.5-0.2,0.6-0.6,0.8-1.1c0.2-0.5,0-0.9-0.3-1.2c-1.9-2.2-6.8-8.5-6.3-13.3c0.2-1.5,0.8-2.8,2-3.7
		c6.5-5.3,11-1.7,11.1-1.5c0.6,0.5,1.5,0.5,2,0c0.6-0.6,0.6-1.4,0.2-2c-1.2-1.5-4.2-6.5-3.1-10.2c0.6-2.2,2.6-3.7,5.7-4.8
		c2.8,3.2,5.7,5,8.4,4.8c2.8,0,4.3-2,4.5-2.2c0.5-0.6,0.3-1.5-0.2-2c-1.2-1.1-3.7-4.2-3.1-5.9c0.3-0.8,1.7-2.3,8.8-2.3
		c17.3,0,22.7,10.2,22.9,10.5c0.3,0.8,1.2,1.1,2,0.8c10.1-3.9,20.1-5.9,21.5-4.3c0.2,0.2,0.2,0.9-0.8,2.5
		c-3.2,5.4-5.1,10.8-5.3,11.1c-0.2,0.5,0,1.1,0.3,1.5c0.3,0.5,0.9,0.6,1.4,0.5c4.8-0.9,9.9-1.1,10.8-0.2c0.3,1.1-0.9,5.3-2.5,9.1
		c-0.3,0.6-0.2,1.2,0.3,1.7c2.6,2.6,5.6,3.6,7.9,3.9c-3.6,2.6-5.3,5.1-5.1,7.3c0,1.9,1.4,2.8,1.5,2.9c0.3,0.2,0.8,0.3,1.1,0.2
		c2-0.5,6.8-0.9,8.5,0.5c0.3,0.2,0.6,0.6,0.6,1.4c0,3.6-7,5.3-9.4,5.6c-0.6,0-1.1,0.5-1.2,0.9c-0.2,0.5-0.2,1.1,0.2,1.5
		c2.3,2.8,4.3,6.8,3.7,8c-0.5,0.9-5,1.1-9.1,0.3c-0.6-0.2-1.2,0.2-1.5,0.6c-0.3,0.5-0.3,1.2,0,1.7c1.7,2.3,2.9,5.3,2.6,5.9
		c0,0-0.2,0.2-0.6,0.2c-1.5,0-2.8,0.3-3.9,0.8c0-1.5,0-2.9,0-3.9c0,0,0,0,0-0.2v-2c0-23.1-4-49.5-35.6-49.5
		C275.9,159.9,271.9,188.9,271.9,211z M275,211.3c0-33.4,10.1-48.3,32.3-48.3c22.7,0,32.5,13.9,32.5,46.4v1.5
		c0,1.9-2.6,11.1-5.4,16.1c-1.9,3.4-4,5.4-5.1,6.5c-1.9-2.3-6.3-7.1-11.1-7.1c-4.5,0-6.5-2.3-6.5-2.5c-0.3-0.5-0.8-0.6-1.2-0.6h-7.7
		c-0.5,0-0.9,0.2-1.2,0.6c-0.2,0.2-2,2.5-6.5,2.5c-4.3,0-7.7,3.9-9.4,6.5c-1.4-2-3.6-5-4.2-6.3C279.3,223.2,275.6,213,275,211.3z
		 M305.8,277.2l-14.7-8v-2.9l14.7,2.9V277.2z M307.2,266.4l-15.8-3.2c-0.2,0-0.2,0-0.3,0v-3.7c3.7,2,8,2.8,15.8,2.8
		c8.2,0,11.8-1.5,15.8-3.2c0.3-0.2,0.6-0.3,0.9-0.3v4.5c-0.2,0-0.3,0-0.5,0L307.2,266.4z M308.9,277.2V269l14.7-3.1v3.9
		c0,0.2,0,0.3,0,0.5L308.9,277.2z M324.4,254.8c-1.1,0.5-2,0.8-2.9,1.2c-4,1.7-7.1,3.1-14.7,3.1c-9.4,0-13-0.9-17.3-4.5
		c-3.1-2.5-8-11.3-11-21.2c-0.9-3.4-1.5-6.8-2.2-9.7c0.8,1.7,1.5,3.4,2,4.3c1.2,2.3,5.7,8.4,5.9,8.5c0.3,0.5,0.8,0.6,1.4,0.6
		c0.5,0,1.1-0.3,1.2-0.8c0.9-1.9,4.2-6.8,7.9-6.8c4.6,0,7.3-2,8.4-3.1h6.3c1.1,1.1,3.7,3.1,8.4,3.1c3.7,0,8.2,5.1,9.6,7.1
		c0.5,0.6,1.4,0.9,2,0.5c0.2-0.2,3.9-2.5,7.4-8.5c0.6-1.1,1.2-2.5,1.9-4c-0.3,2.9-0.9,6-1.7,9C334.7,244,329.5,252.8,324.4,254.8z
		 M433.9,201.1c-0.6,2.8-0.6,8.8-0.6,14.1c0,0.3,0,0.6,0,0.8c-1.7-6.3-3.4-15.3-2.2-24.9c1.2-8.7,5.6-12.7,9.7-16.4
		c2.5-2.2,4.8-4.3,6.3-7.3c0.8-1.4,1.2-3.2,1.4-4.6l11.5,3.6c0.8,0.3,1.5-0.2,1.9-0.8l2.2-4.8c2.6,2.2,7.9,6.5,13.2,8.7
		c2.5,0.9,5.9,1.5,11,2c6,0.6,10.4,3.1,13.3,7.7c6.5,10.1,4.2,27.7,1.7,38.4l-0.9-16.4c0-0.3-0.2-0.5-0.3-0.8
		c-7.9-12.2-13.6-18.4-16.6-18.4c-0.2,0-0.5,0-0.6,0.2c-0.9,0.3-1.9,1.1-1.9,3.6c0,5.4-18.6,11.3-32.2,13.9l-10.1-8.4
		c-0.3-0.3-0.8-0.5-1.2-0.3c-0.5,0.2-0.8,0.3-1.1,0.8C438,192.4,434.6,198.3,433.9,201.1z M436,224.2c0.3-1.2,0.5-3.9,0.5-9.1
		c0-4.8,0-11,0.6-13.5l0,0c0.3-1.2,1.9-4.3,3.1-6.8l9.3,7.6c0.3,0.3,0.8,0.5,1.2,0.3c0.2,0,8.8-1.7,17.3-4.3
		c12.2-3.9,18.1-8,18.1-12.8c0-0.2,0-0.2,0-0.3c2.3,1.4,8.4,9.1,13.2,16.4l1.4,25.5l-1.2,4.6l-13.2,19.2c-0.3-1.2-0.8-2.6-1.4-3.2
		c-1.9-2-10.8-5-13.5-5.9c-0.3-0.2-0.6-0.2-0.9,0l-3.6,1.1l-3.6-1.1c-0.3-0.2-0.8-0.2-1.1,0c-2.3,0.9-9.7,4.2-11.3,5.9
		c-0.6,0.8-1.2,2-1.7,3.4l-11.9-19.2L436,224.2z M486.1,283.1L486.1,283.1c-0.2,0.2-9.1,6-17.8,6c-8.7,0-17.6-5.9-17.6-5.9
		s0,0-0.2,0v-11.1c7.1,7,9.1,7.6,18.4,7.6c8.4,0,11.6-0.6,17.2-6.5V283.1z M486.4,268c-6.7,7.9-8.7,8.4-17.5,8.4
		c-8.8,0-9.7-0.2-18.1-8.5c-2.9-2.9-6.5-9.4-8-13.3c-0.9-2.8-2.3-8.4-3.4-13.3l9,14.5c0.3,0.5,0.9,0.8,1.5,0.8
		c0.6-0.2,1.1-0.6,1.2-1.1c0.6-2.2,1.5-5,2-5.6c0.8-0.8,5.4-3.1,9.6-4.8l3.6,1.1c0.3,0.2,0.6,0.2,0.9,0l3.6-1.1
		c5.1,1.7,10.8,3.9,11.8,4.8c0.5,0.5,1.1,2.9,1.4,5.4c0.2,0.6,0.6,1.1,1.2,1.2c0.6,0.2,1.2-0.2,1.7-0.6l11.1-16.1
		c-1.1,5.1-2.8,11.3-4.2,14.5C492.1,257.4,488.4,265.6,486.4,268z"/>
	<circle cx="476.8" cy="258.2" r="2.3"/>
	<circle cx="314.3" cy="239.6" r="2.3"/>
	<circle cx="320.5" cy="199.4" r="2.3"/>
	<circle cx="481.4" cy="221.1" r="2.3"/>
	<circle cx="292.6" cy="199.4" r="2.3"/>
	<circle cx="453.6" cy="221.1" r="2.3"/>
</g>
<path id="iterativintuitiv" d="M229.2,353.5c2.6,0,4.8,2.2,4.8,4.8c0,2.6-2.2,4.8-4.8,4.8c-2.6,0-4.8-2.2-4.8-4.8
	C224.4,355.7,226.6,353.5,229.2,353.5L229.2,353.5z M225,368.2h8.2v23.8H225V368.2z M240.5,368.2h-3.4v6.3h3.4v9.1
	c0,4.2,1.5,9.1,8,9.1c3.4,0,6-1.5,6-1.5l-2-6.7c0,0-0.9,0.8-2,0.8c-1.2,0-1.9-1.1-1.9-3.2v-7.6h5v-6.3h-5v-8.8h-8.2L240.5,368.2
	L240.5,368.2z M281.5,381.2c0-0.3,0-0.8,0-1.1c0-8.4-5.6-12.7-12.7-12.7s-13.2,5.7-13.2,12.7c0,7,5.9,12.5,13.2,12.5
	c5.3,0,9.6-1.7,12.4-6.2l-5.9-2.9c-2,2.2-3.1,2.6-5.9,2.6c-2,0-5.1-1.2-5.1-5H281.5z M264.5,376.8c0.2-2.2,1.7-3.9,4.5-3.9
	c2.5,0,4.2,1.4,4.5,3.9H264.5z M285.4,392.1h8.2v-12.5c0-0.6,0.6-4.8,4.8-4.8c2.8,0,4.3,1.2,4.3,1.2l3.4-7c0,0-2.2-1.5-5.3-1.5
	c-4.6,0-7.3,4.2-7.3,4.2h-0.2v-3.4h-8.2L285.4,392.1L285.4,392.1z M306.7,380.2c0,7,4.8,12.5,11.8,12.5c3.2,0,6-1.4,7.7-3.4h0.2v2.6
	h8v-23.8h-8.2v2.3c-2-1.9-4.6-2.9-7.7-2.9C311.7,367.6,306.7,373.2,306.7,380.2L306.7,380.2z M315.5,380.2c0-3.2,2.5-5.6,5.6-5.6
	s5.6,2.3,5.6,5.6c0,3.2-2.3,5.6-5.6,5.6C317.7,385.7,315.5,383.4,315.5,380.2L315.5,380.2z M341.5,368.2h-3.4v6.3h3.4v9.1
	c0,4.2,1.5,9.1,8,9.1c3.4,0,6-1.5,6-1.5l-2-6.7c0,0-0.9,0.8-2,0.8c-1.2,0-1.9-1.1-1.9-3.2v-7.6h5v-6.3h-5v-8.8h-8.2L341.5,368.2
	L341.5,368.2z M362.7,353.5c2.6,0,5,2.2,5,4.8c0,2.6-2.2,4.8-5,4.8c-2.6,0-4.8-2.2-4.8-4.8C358,355.7,360.1,353.5,362.7,353.5
	L362.7,353.5z M358.6,368.2h8.2v23.8h-8.2V368.2z M378.5,368.2h-9.7l12.7,23.8h5.6l12.7-23.8H390l-5.9,13L378.5,368.2z M406.1,353.5
	c2.6,0,5,2.2,5,4.8c0,2.6-2.2,4.8-5,4.8c-2.6,0-4.8-2.2-4.8-4.8C401.1,355.7,403.3,353.5,406.1,353.5L406.1,353.5z M401.7,368.2h8.2
	v23.8h-8.2V368.2z M415.8,392.1h8.2v-13.5c0-2.3,2.5-4.6,4.8-4.6c2.6,0,4.3,2.3,4.3,4.6v13.5h8.2v-15.6c0-6.7-6-8.8-10.5-8.8
	c-2.6,0-5,1.4-6.8,3.2h-0.2v-2.5h-8.2v23.7H415.8L415.8,392.1z M447.9,368.2h-3.4v6.3h3.4v9.1c0,4.2,1.5,9.1,8,9.1
	c3.4,0,6-1.5,6-1.5l-2-6.7c0,0-0.9,0.8-2,0.8c-1.2,0-1.9-1.1-1.9-3.2v-7.6h5v-6.3h-5v-8.8h-8.2L447.9,368.2L447.9,368.2z
	 M472.6,368.2h-8.2v13.3c0,8,4,11.1,12.8,11.1c9,0,12.8-3.2,12.8-11.1v-13.3h-8.2v11.3c0,4.6-1.2,6.5-4.6,6.5s-4.6-1.9-4.6-6.5
	V368.2z M499.6,353.5c2.6,0,4.8,2.2,4.8,4.8c0,2.6-2.2,4.8-4.8,4.8s-4.8-2.2-4.8-4.8C494.6,355.7,496.9,353.5,499.6,353.5
	L499.6,353.5z M495.4,368.2h8.2v23.8h-8.2V368.2z M510.7,368.2h-3.4v6.3h3.4v9.1c0,4.2,1.5,9.1,8,9.1c3.4,0,6-1.5,6-1.5l-2-6.7
	c0,0-0.9,0.8-2,0.8c-1.2,0-1.9-1.1-1.9-3.2v-7.6h5v-6.3h-5v-8.8h-8.2V368.2L510.7,368.2z M531.9,353.5c2.6,0,4.8,2.2,4.8,4.8
	c0,2.6-2.2,4.8-4.8,4.8s-4.8-2.2-4.8-4.8C527.1,355.7,529.3,353.5,531.9,353.5L531.9,353.5z M527.7,368.2h8.2v23.8h-8.2V368.2z
	 M547.7,368.2h-9.7l12.7,23.8h5.6l12.7-23.8h-9.7l-5.9,13L547.7,368.2z"/>
</svg>
