<svg width="1503" height="1503" viewBox="0 0 1503 1503" version="1.1" xmlns="http://www.w3.org/2000/svg" xmlns:xlink="http://www.w3.org/1999/xlink">
<title>episode0</title>
<desc>Created using Figma</desc>
<g id="Canvas" transform="matrix(3 0 0 3 0 0)">
<clipPath id="clip-0" clip-rule="evenodd">
<path d="M 0.399994 0.450012L 500.4 0.450012L 500.4 500.45L 0.399994 500.45L 0.399994 0.450012Z" fill="#FFFFFF"/>
</clipPath>
<g id="episode0" clip-path="url(#clip-0)">
<g id="Group">
<g id="Vector 2">
<use xlink:href="#path0_stroke" transform="translate(206 39.4556)" fill="#FFFFFF"/>
</g>
<g id="Ellipse">
<use xlink:href="#path1_stroke" transform="translate(231 139.5)" fill="#FFFFFF"/>
</g>
</g>
<g id="Vector 3">
<use xlink:href="#path2_stroke" transform="matrix(-1 0 0 1 105.028 387)" fill="#FFFFFF"/>
</g>
<g id="Vector 3">
<use xlink:href="#path3_stroke" transform="matrix(-1 0 0 1 102 392)" fill="#FFFFFF"/>
</g>
<g id="Ellipse 2">
<mask id="mask0_outline_ins">
<use xlink:href="#path4_fill" fill="white" transform="translate(377 376)"/>
</mask>
<g mask="url(#mask0_outline_ins)">
<use xlink:href="#path5_stroke_2x" transform="translate(377 376)" fill="#FFFFFF"/>
</g>
</g>
<g id="Ellipse 2">
<mask id="mask1_outline_ins">
<use xlink:href="#path4_fill" fill="white" transform="translate(57 376)"/>
</mask>
<g mask="url(#mask1_outline_ins)">
<use xlink:href="#path5_stroke_2x" transform="translate(57 376)" fill="#FFFFFF"/>
</g>
</g>
<g id="Vector 4">
<use xlink:href="#path6_stroke" transform="translate(408.334 406.638)" fill="#FFFFFF"/>
</g>
<g id="Vector 4">
<use xlink:href="#path7_stroke" transform="translate(395.853 386.031)" fill="#FFFFFF"/>
</g>
<g id="Vector 5">
<use xlink:href="#path8_stroke" transform="translate(126 -45)" fill="#FFFFFF"/>
</g>
<g id="Union">
<use xlink:href="#path9_fill" transform="translate(164 226)" fill="#FFFFFF"/>
</g>
<g id="Vector 6">
<use xlink:href="#path10_stroke" transform="translate(162.656 183.5)" fill="#FFFFFF"/>
</g>
<g id="Vector 6">
<use xlink:href="#path11_stroke" transform="translate(268 196)" fill="#FFFFFF"/>
</g>
<g id="Union">
<use xlink:href="#path12_fill" transform="translate(269 236)" fill="#FFFFFF"/>
</g>
<g id="Vector 7">
<use xlink:href="#path13_stroke" transform="translate(124 376)" fill="#FFFFFF"/>
</g>
</g>
</g>
<defs>
<path id="path0_stroke" d="M 0 30.0444L -0.942426 29.71C -1.11446 30.1949 -0.890595 30.7311 -0.424907 30.9497L 0 30.0444ZM 24.5 41.5444L 24.0751 42.4497C 24.3424 42.5751 24.6514 42.5761 24.9195 42.4522C 25.1875 42.3284 25.3871 42.0924 25.4648 41.8076L 24.5 41.5444ZM 30 91.5444L 29 91.5444C 29 92.0967 29.4477 92.5444 30 92.5444L 30 91.5444ZM 56 91.5444L 56 92.5444C 56.5523 92.5444 57 92.0967 57 91.5444L 56 91.5444ZM 80 59.0444L 79.2797 58.3508L 79.2792 58.3513L 80 59.0444ZM 71.5 7.54444L 70.9345 8.36917L 71.5 7.54444ZM 18.5 6.54444L 19.0048 7.40769L 18.5 6.54444ZM -0.424907 30.9497L 24.0751 42.4497L 24.9249 40.6392L 0.424907 29.1392L -0.424907 30.9497ZM 25.4648 41.8076C 26.1931 39.1269 27.8965 35.2018 30.77 31.8848C 33.6079 28.5919 37.478 26.0444 42.5 26.0444L 42.5 24.0444C 36.722 24.0444 32.3421 26.997 29.255 30.5791C 26.2035 34.1371 24.3069 38.462 23.5352 41.2813L 25.4648 41.8076ZM 29 67.5444C 29 72.1488 29 78.1488 29 82.9977C 29 85.4222 29 87.5588 29 89.0894C 29 89.8547 29 90.4685 29 90.8909C 29 91.1021 29 91.2655 29 91.3761C 29 91.4314 29 91.4735 29 91.5017C 29 91.5159 29 91.5265 29 91.5337C 29 91.5373 29 91.5399 29 91.5417C 29 91.5426 29 91.5433 29 91.5438C 29 91.544 29 91.5442 29 91.5443C 29 91.5444 29 91.5444 30 91.5444C 31 91.5444 31 91.5444 31 91.5443C 31 91.5442 31 91.544 31 91.5438C 31 91.5433 31 91.5426 31 91.5417C 31 91.5399 31 91.5373 31 91.5337C 31 91.5265 31 91.5159 31 91.5017C 31 91.4735 31 91.4314 31 91.3761C 31 91.2655 31 91.1021 31 90.8909C 31 90.4685 31 89.8547 31 89.0894C 31 87.5588 31 85.4222 31 82.9977C 31 78.1488 31 72.1488 31 67.5444L 29 67.5444ZM 30 92.5444L 56 92.5444L 56 90.5444L 30 90.5444L 30 92.5444ZM 56 91.5444C 57 91.5444 57 91.5444 57 91.5444C 57 91.5444 57 91.5443 57 91.5443C 57 91.5441 57 91.5439 57 91.5437C 57 91.5432 57 91.5424 57 91.5414C 57 91.5393 57 91.5362 57 91.5321C 57 91.5239 57 91.5116 57 91.4951C 57 91.4622 57 91.4128 57 91.3468C 57 91.2148 57 91.0163 57 90.7507C 57 90.2194 57 89.4194 57 88.3444C 57 86.1944 57 82.9444 57 78.5444L 55 78.5444C 55 82.9444 55 86.1944 55 88.3444C 55 89.4194 55 90.2194 55 90.7507C 55 91.0163 55 91.2148 55 91.3468C 55 91.4128 55 91.4622 55 91.4951C 55 91.5116 55 91.5239 55 91.5321C 55 91.5362 55 91.5393 55 91.5414C 55 91.5424 55 91.5432 55 91.5437C 55 91.5439 55 91.5441 55 91.5443C 55 91.5443 55 91.5444 55 91.5444C 55 91.5444 55 91.5444 56 91.5444ZM 57 78.5444C 57 75.9901 57.658 74.4785 58.714 73.3772C 59.8264 72.2169 61.4686 71.4091 63.7017 70.4656C 68.1117 68.6017 74.2919 66.3849 80.7208 59.7375L 79.2792 58.3513C 73.2081 64.704 67.3883 66.7371 62.9233 68.6233C 60.7189 69.5547 58.7048 70.4969 57.2704 71.993C 55.7795 73.5479 55 75.5988 55 78.5444L 57 78.5444ZM 80.7203 59.7381C 85.2099 55.0758 89.7723 46.465 89.8494 36.6812C 89.927 26.8238 85.45 15.8976 72.0655 6.71971L 70.9345 8.36917C 83.815 17.2016 87.9214 27.5254 87.8494 36.6654C 87.7769 45.8791 83.4568 54.0131 79.2797 58.3508L 80.7203 59.7381ZM 72.0655 6.71971C 55.9198 -4.35162 31.8823 -2.43896 17.9952 5.68118L 19.0048 7.40769C 32.3565 -0.399421 55.5452 -2.18347 70.9345 8.36917L 72.0655 6.71971ZM 17.9952 5.68118C 11.4325 9.53883 6.64354 15.5967 3.58905 20.5838C 2.05574 23.0908 0.916962 25.3805 0.176718 27.0142C -0.196029 27.8373 -0.476836 28.5129 -0.65984 28.9718C -0.752486 29.2042 -0.823348 29.3891 -0.869215 29.5112C -0.892679 29.5737 -0.911032 29.6235 -0.922697 29.6554C -0.928786 29.6721 -0.93373 29.6858 -0.936763 29.6942C -0.938405 29.6988 -0.939824 29.7027 -0.940643 29.705C -0.941114 29.7063 -0.941561 29.7076 -0.941796 29.7083C -0.941945 29.7087 -0.942102 29.7091 -0.942176 29.7093C -0.942312 29.7097 -0.942426 29.71 0 30.0444C 0.942426 30.3789 0.942355 30.3791 0.942306 30.3792C 0.942319 30.3792 0.942291 30.3792 0.942316 30.3792C 0.942428 30.3789 0.942501 30.3787 0.942724 30.378C 0.943292 30.3764 0.943956 30.3746 0.945092 30.3714C 0.947616 30.3644 0.951012 30.355 0.95606 30.3412C 0.966665 30.3121 0.981765 30.2712 1.00302 30.2146C 1.0466 30.0986 1.11026 29.9324 1.19793 29.7126C 1.37555 29.267 1.63855 28.6338 1.99851 27.8395C 2.72367 26.2383 3.80587 24.0588 5.29489 21.6279C 8.28504 16.7392 12.746 11.0471 19.0048 7.40769L 17.9952 5.68118ZM 43.056 51.6502C 39.7149 53.4555 36.2256 55.3965 33.5835 57.836C 30.8946 60.3289 29 63.4295 29 67.5444L 31 67.5444C 31 64.1395 32.5346 61.5357 34.9432 59.3027C 37.3985 57.0164 40.6749 55.2101 44.0067 53.4098L 43.056 51.6502ZM 42.5 26.0444C 46.4279 26.0444 49.5364 27.0525 51.6515 28.9311C 53.7481 30.7932 55 33.6272 55 37.5681L 57 37.5681C 57 33.1813 55.5893 29.7535 52.9797 27.4357C 50.3885 25.1344 46.747 24.0444 42.5 24.0444L 42.5 26.0444ZM 55 37.5681C 55 41.4522 53.6672 44.038 51.5663 46.1074C 49.3931 48.2626 46.3952 49.8459 43.056 51.6502L 44.0067 53.4098C 47.3403 51.6085 50.5768 49.8746 52.9697 47.5322C 55.4349 45.1041 57 42.0118 57 37.5681L 55 37.5681Z"/>
<path id="path1_stroke" d="M 36 18.5C 36 28.165 28.165 36 18.5 36L 18.5 38C 29.2696 38 38 29.2696 38 18.5L 36 18.5ZM 18.5 36C 8.83502 36 1 28.165 1 18.5L -1 18.5C -1 29.2696 7.73045 38 18.5 38L 18.5 36ZM 1 18.5C 1 8.83502 8.83502 1 18.5 1L 18.5 -1C 7.73045 -1 -1 7.73045 -1 18.5L 1 18.5ZM 18.5 1C 28.165 1 36 8.83502 36 18.5L 38 18.5C 38 7.73045 29.2696 -1 18.5 -1L 18.5 1Z"/>
<path id="path2_stroke" d="M 1.56476 8.76277C 1.26687 9.22784 1.4024 9.84633 1.86746 10.1442C 2.33252 10.4421 2.95101 10.3066 3.2489 9.84151L 1.56476 8.76277ZM 1.53426 45.3421L 2.42783 44.8932L 1.53426 45.3421ZM 1.09224 39.1284C 1.25769 38.6015 0.964654 38.0402 0.437732 37.8748C -0.0891893 37.7093 -0.650463 38.0023 -0.815909 38.5293L 1.09224 39.1284ZM 3.2489 9.84151C 4.01689 8.64011 4.62328 7.44256 5.24588 6.35685C 5.86706 5.27216 6.46398 4.3428 7.2955 3.53522C 8.85061 2.00921 11.276 0.883603 16.2552 1.00959L 16.3058 -0.989767C 10.9888 -1.12431 7.9607 0.0803842 5.8947 2.10771C 4.91567 3.0768 4.16013 4.22987 3.51064 5.3624C 2.86259 6.4939 2.28011 7.64835 1.56476 8.76277L 3.2489 9.84151ZM 16.2552 1.00959C 20.9226 1.12769 25.4293 4.56166 28.2392 9.73594C 31.0339 14.8822 32.0284 21.5576 29.8219 27.8145L 31.708 28.4797C 34.126 21.6233 33.0264 14.3604 29.9968 8.7815C 26.9824 3.23063 21.9346 -0.847339 16.3058 -0.989767L 16.2552 1.00959ZM 29.8219 27.8145C 27.6022 34.1087 24.0535 37.1263 20.8978 38.9387C 19.2943 39.8623 17.7704 40.4795 16.5137 41.0652C 15.8808 41.3604 15.2739 41.6721 14.7955 41.9971C 14.3014 42.3354 13.8307 42.763 13.5491 43.341L 15.3471 44.2169C 15.4146 44.0784 15.5711 43.8899 15.9253 43.6474C 16.2952 43.3917 16.7579 43.1579 17.3589 42.8778C 18.5698 42.3128 20.1708 41.6599 21.8939 40.673C 25.3915 38.6643 29.3032 35.2989 31.708 28.4797L 29.8219 27.8145ZM 13.5491 43.341C 13.3257 43.7996 12.6934 44.4356 11.6648 45.0619C 10.6452 45.6861 9.45045 46.1872 8.1569 46.485C 5.50391 47.1032 3.31431 46.6577 2.42783 44.8932L 0.640679 45.791C 2.19737 48.8896 5.76665 49.0955 8.61079 48.4328C 10.0658 48.0901 11.5541 47.4677 12.705 46.7702C 13.847 46.0748 14.8725 45.1911 15.3471 44.2169L 13.5491 43.341ZM 2.42783 44.8932C 0.568305 41.1917 1.03798 39.3012 1.09224 39.1284L -0.815909 38.5293C -1.05249 39.2828 -1.40885 41.7113 0.640679 45.791L 2.42783 44.8932Z"/>
<path id="path3_stroke" d="M 5.49177 18.9797C 5.66507 19.1947 5.97985 19.2285 6.19484 19.0552C 6.40983 18.8819 6.44363 18.5672 6.27033 18.3522L 5.49177 18.9797ZM 13.6481 0.331536L 13.4959 0.807811L 13.6481 0.331536ZM 24.8025 13.4294L 24.3093 13.5111L 24.8025 13.4294ZM 17.5012 30.1376C 17.2393 30.2251 17.0979 30.5083 17.1854 30.7703C 17.2729 31.0322 17.5561 31.1736 17.818 31.0861L 17.5012 30.1376ZM 4.20048 14.0784C 3.92626 14.1109 3.73032 14.3596 3.76285 14.6338C 3.79537 14.908 4.04403 15.1039 4.31825 15.0714L 4.20048 14.0784ZM 13.6481 13.4294L 13.2258 13.6971L 13.6481 13.4294ZM 0.0771265 28.9754L 0.566588 29.0775L 0.0771265 28.9754ZM 5.88105 23.5752L 5.38798 23.4923L 5.38105 23.5334L 5.38105 23.5752L 5.88105 23.5752ZM 1.56727 17.4317C 1.29231 17.4572 1.09009 17.7008 1.1156 17.9757C 1.14111 18.2507 1.38468 18.4529 1.65965 18.4274L 1.56727 17.4317ZM 6.27033 18.3522C 5.88671 17.8779 5.31646 17.3298 4.72326 16.7509C 4.1298 16.1718 3.50903 15.5578 2.98193 14.9128C 1.9011 13.5922 1.41254 12.3941 2.04542 11.3084L 1.1815 10.8048C 0.19269 12.501 1.11244 14.2075 2.20808 15.5461C 2.76922 16.2307 3.42872 16.8849 4.02486 17.4666C 4.62124 18.0486 5.14991 18.554 5.49177 18.9797L 6.27033 18.3522ZM 2.04542 11.3084C 2.46475 10.5874 2.97941 9.40989 3.61881 8.10497C 4.2592 6.79761 5.01921 5.36703 5.95436 4.08624C 6.88678 2.80486 7.92928 1.73343 9.19784 1.09522C 10.4206 0.472911 11.8316 0.276 13.4959 0.807811L 13.8003 -0.144739C 11.8798 -0.758424 10.1967 -0.535192 8.74428 0.203993C 7.33758 0.92727 6.12359 2.15868 5.14627 3.49719C 4.17167 4.83629 3.36867 6.34267 2.72078 7.66503C 2.07191 8.98983 1.57301 10.1348 1.1815 10.8048L 2.04542 11.3084ZM 13.4959 0.807811C 17.06 1.94669 19.3941 3.1012 21.021 4.94113C 22.6472 6.78025 23.6234 9.36943 24.3093 13.5111L 25.2958 13.3477C 24.5996 9.1436 23.5833 6.32935 21.7702 4.27873C 19.9577 2.22891 17.4058 1.00737 13.8003 -0.144739L 13.4959 0.807811ZM 24.3093 13.5111C 24.7658 16.2678 24.4019 20.0065 23.227 23.2849C 22.0457 26.5813 20.099 29.2697 17.5012 30.1376L 17.818 31.0861C 20.8534 30.072 22.9504 27.0209 24.1684 23.6223C 25.3928 20.2058 25.7838 16.2943 25.2958 13.3477L 24.3093 13.5111ZM 4.31825 15.0714C 5.09473 14.9793 5.95919 14.6255 6.79976 14.2436C 7.65267 13.856 8.52748 13.4165 9.37302 13.0947C 10.2218 12.771 10.9817 12.5885 11.6275 12.6516C 12.2359 12.7111 12.778 12.9908 13.2258 13.6971L 14.0703 13.1616C 13.4598 12.1988 12.6441 11.7462 11.7248 11.6564C 10.843 11.5702 9.9055 11.8214 9.01665 12.1604C 8.12458 12.5013 7.22157 12.9537 6.38612 13.3332C 5.53833 13.7183 4.80386 14.0068 4.20048 14.0784L 4.31825 15.0714ZM 13.2258 13.6971C 15.795 17.749 15.8446 22.5624 14.8141 24.842L 15.7254 25.2539C 16.914 22.6243 16.793 17.4556 14.0703 13.1616L 13.2258 13.6971ZM 14.8141 24.842C 14.5288 25.4743 14.3406 25.9998 14.16 26.4171C 13.9828 26.8285 13.8513 27.0826 13.6293 27.2782C 13.253 27.625 12.5532 27.8238 10.5307 27.6588L 10.4494 28.6555C 12.4385 28.8178 13.5737 28.6894 14.307 28.0135C 14.6398 27.6977 14.8817 27.2665 15.0779 26.8137C 15.2708 26.3668 15.4559 25.849 15.7254 25.2539L 14.8141 24.842ZM 10.5307 27.6588C 9.52647 27.5769 8.82874 27.5244 8.31905 27.5346C 7.78972 27.5457 7.38587 27.6249 7.0201 27.8586C 6.68441 28.0731 6.41856 28.3999 6.12077 28.758C 5.8059 29.1365 5.40573 29.6195 4.76119 30.2564L 5.46458 30.9672C 6.14299 30.2951 6.57501 29.7757 6.88961 29.3974C 7.22129 28.9986 7.38219 28.814 7.55861 28.7012C 7.70496 28.6077 7.89857 28.5436 8.34012 28.5343C 8.80131 28.524 9.44788 28.5738 10.4494 28.6555L 10.5307 27.6588ZM 4.76119 30.2564C 3.52808 31.4767 2.31837 31.6695 1.55526 31.3816C 0.824798 31.1059 0.308417 30.315 0.566588 29.0775L -0.412335 28.8733C -0.751628 30.4996 -0.0730833 31.836 1.20222 32.3172C 2.44488 32.7861 4.05178 32.3653 5.46458 30.9672L 4.76119 30.2564ZM 0.566588 29.0775C 0.737438 28.2586 1.12174 27.7854 1.60048 27.4586C 2.11545 27.1 2.74599 26.9162 3.42312 26.7085C 4.0776 26.5078 4.8265 26.2808 5.39615 25.8297C 6.01018 25.3434 6.38105 24.6323 6.38105 23.5752L 5.38105 23.5752C 5.38105 24.3591 5.12558 24.7683 4.77529 25.0458C 4.38063 25.3583 3.82725 25.5386 3.12989 25.7524C 2.45518 25.9594 1.68431 26.1977 1.03669 26.6327C 0.352841 27.0995 -0.186629 27.7914 -0.412335 28.8733L 0.566588 29.0775ZM 6.37412 23.6582C 6.62915 22.1424 5.63014 20.5521 4.60703 19.4331C 4.08135 18.8595 3.49268 18.352 2.99615 18.0088C 2.74285 17.8346 2.48392 17.6843 2.27246 17.5885C 2.0683 17.4968 1.81247 17.4089 1.56727 17.4317L 1.65965 18.4274C 1.63652 18.4372 1.71331 18.4317 1.86266 18.5007C 2.02683 18.5737 2.20711 18.679 2.42858 18.8321C 2.88159 19.1435 3.38471 19.5769 3.86903 20.1079C 4.86592 21.1982 5.55971 22.4716 5.38798 23.4923L 6.37412 23.6582Z"/>
<path id="path4_fill" d="M 70 35C 70 54.33 54.33 70 35 70C 15.67 70 0 54.33 0 35C 0 15.67 15.67 0 35 0C 54.33 0 70 15.67 70 35Z"/>
<path id="path5_stroke_2x" d="M 69 35C 69 53.7777 53.7777 69 35 69L 35 71C 54.8823 71 71 54.8823 71 35L 69 35ZM 35 69C 16.2223 69 1 53.7777 1 35L -1 35C -1 54.8823 15.1177 71 35 71L 35 69ZM 1 35C 1 16.2223 16.2223 1 35 1L 35 -1C 15.1177 -1 -1 15.1177 -1 35L 1 35ZM 35 1C 53.7777 1 69 16.2223 69 35L 71 35C 71 15.1177 54.8823 -1 35 -1L 35 1Z"/>
<path id="path6_stroke" d="M 0 17.5532L 0 17.0532L -0.5 17.0532L -0.5 17.5532L 0 17.5532ZM 11.3039 17.5532L 11.8039 17.5532L 11.8039 17.0532L 11.3039 17.0532L 11.3039 17.5532ZM 0 25.9787L -0.5 25.9787L -0.5 26.5805L 0.0915937 26.4703L 0 25.9787ZM 11.3039 23.8723L 11.3955 24.3639L 11.8039 24.2878L 11.8039 23.8723L 11.3039 23.8723ZM 2.59049 2.10638L 2.79251 1.64901L 2.02844 1.31153L 2.09193 2.14439L 2.59049 2.10638ZM 4.70998 3.04256L 4.50796 3.49993L 4.77772 3.61908L 5.01251 3.44064L 4.70998 3.04256ZM 8.71346 0L 9.21233 0.0334655L 9.28589 -1.06304L 8.41092 -0.398085L 8.71346 0ZM 0.5 21.2979C 0.5 20.0492 0.5 18.7574 0.5 17.5532L -0.5 17.5532C -0.5 18.7574 -0.5 20.0492 -0.5 21.2979L 0.5 21.2979ZM 10.8039 17.5532C 10.8039 18.1831 10.8039 18.81 10.8039 19.4255L 11.8039 19.4255C 11.8039 18.81 11.8039 18.1831 11.8039 17.5532L 10.8039 17.5532ZM 0.0817048 21.7912L 11.3856 19.9188L 11.2222 18.9323L -0.0817048 20.8046L 0.0817048 21.7912ZM 0.5 23.8723C 0.5 23.0687 0.5 22.1944 0.5 21.2979L -0.5 21.2979C -0.5 22.1944 -0.5 23.0687 -0.5 23.8723L 0.5 23.8723ZM 10.8039 19.4255C 10.8039 20.0652 10.8039 20.6925 10.8039 21.2979L 11.8039 21.2979C 11.8039 20.6925 11.8039 20.0652 11.8039 19.4255L 10.8039 19.4255ZM 0.111032 24.3599L 11.415 21.7854L 11.1929 20.8104L -0.111032 23.3848L 0.111032 24.3599ZM 0.5 25.9787C 0.5 25.3738 0.5 24.6567 0.5 23.8723L -0.5 23.8723C -0.5 24.6567 -0.5 25.3738 -0.5 25.9787L 0.5 25.9787ZM 10.8039 21.2979C 10.8039 22.218 10.8039 23.0873 10.8039 23.8723L 11.8039 23.8723C 11.8039 23.0873 11.8039 22.218 11.8039 21.2979L 10.8039 21.2979ZM 0.0915937 26.4703L 11.3955 24.3639L 11.2123 23.3808L -0.0915937 25.4872L 0.0915937 26.4703ZM 0 18.0532L 3.76798 18.0532L 3.76798 17.0532L 0 17.0532L 0 18.0532ZM 4.26653 17.5152L 3.08904 2.06838L 2.09193 2.14439L 3.26943 17.5912L 4.26653 17.5152ZM 2.38847 2.56375L 4.50796 3.49993L 4.912 2.58518L 2.79251 1.64901L 2.38847 2.56375ZM 5.01251 3.44064L 9.01599 0.398085L 8.41092 -0.398085L 4.40744 2.64447L 5.01251 3.44064ZM 3.76798 18.0532L 7.53596 18.0532L 7.53596 17.0532L 3.76798 17.0532L 3.76798 18.0532ZM 7.53596 18.0532L 11.3039 18.0532L 11.3039 17.0532L 7.53596 17.0532L 7.53596 18.0532ZM 8.21458 -0.0334655L 7.03708 17.5197L 8.03484 17.5867L 9.21233 0.0334655L 8.21458 -0.0334655Z"/>
<path id="path7_stroke" d="M 12.4814 47.7565L 11.4814 47.7565C 11.4814 48.041 11.6027 48.3121 11.8148 48.5018L 12.4814 47.7565ZM 23.7854 47.7565L 24.3238 48.5992C 24.6113 48.4154 24.7854 48.0977 24.7854 47.7565L 23.7854 47.7565ZM 17.1914 51.9692L 16.5247 52.7146C 16.8591 53.0137 17.3518 53.0535 17.7298 52.8119L 17.1914 51.9692ZM 13.4814 38.1607C 13.4814 36.5007 12.2912 35.4214 11.0776 34.6296C 9.84241 33.8271 8.2562 33.1048 6.7369 32.2353C 5.21275 31.3653 3.80576 30.4089 2.73793 29.0249C 1.64539 27.6435 0.981398 26.0352 1 23.6501L -1 23.6501C -0.981398 26.4192 -0.085212 28.646 1.16252 30.257C 2.43496 31.8653 4.14833 33.0585 5.74454 33.9718C 7.34559 34.8855 8.87975 35.5801 9.98478 36.3046C 11.1115 37.0397 11.4814 37.5973 11.4814 38.1607L 13.4814 38.1607ZM 1 23.6501C 1 18.3934 1.42058 12.5795 3.65929 8.15762C 5.83486 3.86041 9.76803 0.788676 17.1613 1.01133L 17.2215 -0.987764C 9.07188 -1.2332 4.40934 2.24826 1.87493 7.25425C -0.59633 12.1355 -1 18.3748 -1 23.6501L 1 23.6501ZM 17.1613 1.01133C 24.5872 1.23496 28.4829 4.37686 30.6047 8.5942C 32.7846 12.9272 33.1473 18.505 33.1473 23.6501L 35.1473 23.6501C 35.1473 18.4973 34.8035 12.49 32.3913 7.69533C 29.9208 2.78501 25.3386 -0.743313 17.2215 -0.987764L 17.1613 1.01133ZM 33.1473 23.6501C 33.1473 26.043 32.5497 27.7171 31.6991 28.9787C 30.8259 30.2961 29.6798 31.1745 28.4184 31.9997C 27.1622 32.8238 25.8215 33.5399 24.7701 34.3963C 23.6725 35.297 22.7854 36.4603 22.7854 38.1607L 24.7854 38.1607C 24.7854 37.2867 25.1935 36.6361 26.0388 35.9424C 26.9302 35.2044 28.18 34.5455 29.5143 33.6728C 30.8434 32.8012 32.2878 31.6609 33.3574 30.0967C 34.4497 28.4767 35.1473 26.4061 35.1473 23.6501L 33.1473 23.6501ZM 11.8148 48.5018L 16.5247 52.7146L 17.8581 51.2239L 13.1481 47.0111L 11.8148 48.5018ZM 17.7298 52.8119L 24.3238 48.5992L 23.247 46.9138L 16.653 51.1265L 17.7298 52.8119ZM 11.4814 38.1607L 11.4814 47.7565L 13.4814 47.7565L 13.4814 38.1607L 11.4814 38.1607ZM 22.7854 38.1607L 22.7854 47.7565L 24.7854 47.7565L 24.7854 38.1607L 22.7854 38.1607Z"/>
<path id="path8_stroke" d="M 120 252.5C 120 252.224 119.776 252 119.5 252C 119.224 252 119 252.224 119 252.5L 120 252.5ZM 119 306C 119 306.276 119.224 306.5 119.5 306.5C 119.776 306.5 120 306.276 120 306L 119 306ZM 81.717 203.45C 81.9658 203.331 82.0703 203.032 81.9505 202.783C 81.8306 202.534 81.5318 202.43 81.283 202.55L 81.717 203.45ZM 12.783 235.55C 12.5342 235.669 12.4297 235.968 12.5495 236.217C 12.6694 236.466 12.9682 236.57 13.217 236.45L 12.783 235.55ZM 81.5544 173.497C 81.8289 173.467 82.0271 173.22 81.997 172.946C 81.967 172.671 81.7201 172.473 81.4456 172.503L 81.5544 173.497ZM 12.9456 180.003C 12.6711 180.033 12.4729 180.28 12.503 180.554C 12.533 180.829 12.7799 181.027 13.0544 180.997L 12.9456 180.003ZM 71.7969 134.457C 72.0493 134.569 72.3448 134.455 72.4569 134.203C 72.5691 133.951 72.4554 133.655 72.2031 133.543L 71.7969 134.457ZM 0.203069 101.543C -0.0492729 101.431 -0.344754 101.545 -0.456906 101.797C -0.569058 102.049 -0.455411 102.345 -0.203069 102.457L 0.203069 101.543ZM 63.7059 93.9044C 63.9292 94.0668 64.242 94.0174 64.4044 93.7941C 64.5668 93.5708 64.5174 93.258 64.2941 93.0956L 63.7059 93.9044ZM 20.2941 61.0956C 20.0708 60.9332 19.7581 60.9826 19.5956 61.2059C 19.4332 61.4292 19.4826 61.7419 19.7059 61.9044L 20.2941 61.0956ZM 90.5809 67.7727C 90.7315 68.0041 91.0412 68.0697 91.2727 67.9191C 91.5041 67.7685 91.5697 67.4588 91.4191 67.2273L 90.5809 67.7727ZM 64.4191 25.7273C 64.2685 25.4959 63.9588 25.4303 63.7273 25.5809C 63.4959 25.7315 63.4303 26.0412 63.5809 26.2727L 64.4191 25.7273ZM 127.5 61.5C 127.5 61.7761 127.724 62 128 62C 128.276 62 128.5 61.7761 128.5 61.5L 127.5 61.5ZM 128.5 17.5C 128.5 17.2239 128.276 17 128 17C 127.724 17 127.5 17.2239 127.5 17.5L 128.5 17.5ZM 172.666 67.1283C 172.46 67.3131 172.444 67.6292 172.628 67.8345C 172.813 68.0397 173.129 68.0564 173.334 67.8717L 172.666 67.1283ZM 248.334 0.371647C 248.54 0.186918 248.556 -0.129227 248.372 -0.334482C 248.187 -0.539737 247.871 -0.556377 247.666 -0.371647L 248.334 0.371647ZM 198.835 101.528C 198.574 101.619 198.437 101.904 198.528 102.165C 198.619 102.426 198.904 102.563 199.165 102.472L 198.835 101.528ZM 270.665 77.472C 270.926 77.3808 271.063 77.0956 270.972 76.835C 270.881 76.5743 270.596 76.4369 270.335 76.528L 270.665 77.472ZM 199 133.5C 198.724 133.5 198.5 133.724 198.5 134C 198.5 134.276 198.724 134.5 199 134.5L 199 133.5ZM 248 134.5C 248.276 134.5 248.5 134.276 248.5 134C 248.5 133.724 248.276 133.5 248 133.5L 248 134.5ZM 188.699 165.541C 188.445 165.431 188.151 165.548 188.041 165.801C 187.931 166.055 188.048 166.349 188.301 166.459L 188.699 165.541ZM 221.801 180.959C 222.055 181.069 222.349 180.952 222.459 180.699C 222.569 180.445 222.452 180.151 222.199 180.041L 221.801 180.959ZM 173.334 202.628C 173.129 202.444 172.813 202.46 172.628 202.666C 172.444 202.871 172.46 203.187 172.666 203.372L 173.334 202.628ZM 247.666 270.872C 247.871 271.056 248.187 271.04 248.372 270.834C 248.556 270.629 248.54 270.313 248.334 270.128L 247.666 270.872ZM 119 252.5L 119 306L 120 306L 120 252.5L 119 252.5ZM 81.283 202.55L 12.783 235.55L 13.217 236.45L 81.717 203.45L 81.283 202.55ZM 81.4456 172.503L 12.9456 180.003L 13.0544 180.997L 81.5544 173.497L 81.4456 172.503ZM 72.2031 133.543L 0.203069 101.543L -0.203069 102.457L 71.7969 134.457L 72.2031 133.543ZM 64.2941 93.0956L 20.2941 61.0956L 19.7059 61.9044L 63.7059 93.9044L 64.2941 93.0956ZM 91.4191 67.2273L 64.4191 25.7273L 63.5809 26.2727L 90.5809 67.7727L 91.4191 67.2273ZM 128.5 61.5L 128.5 17.5L 127.5 17.5L 127.5 61.5L 128.5 61.5ZM 173.334 67.8717L 248.334 0.371647L 247.666 -0.371647L 172.666 67.1283L 173.334 67.8717ZM 199.165 102.472L 270.665 77.472L 270.335 76.528L 198.835 101.528L 199.165 102.472ZM 199 134.5L 248 134.5L 248 133.5L 199 133.5L 199 134.5ZM 188.301 166.459L 221.801 180.959L 222.199 180.041L 188.699 165.541L 188.301 166.459ZM 172.666 203.372L 247.666 270.872L 248.334 270.128L 173.334 202.628L 172.666 203.372Z"/>
<path id="path9_fill" fill-rule="evenodd" d="M 2 2L 4 2L 4 12L 2 12L 2 2ZM -5.68434e-14 2C -5.68434e-14 0.895432 0.895432 0 2 0L 4 0C 5.10457 0 6 0.895432 6 2L 6 12C 6 13.1046 5.10457 14 4 14L 2 14C 0.895432 14 -5.68434e-14 13.1046 -5.68434e-14 12L -5.68434e-14 2ZM 54 2L 56 2L 56 12L 54 12L 54 2ZM 52 2C 52 0.895432 52.8954 0 54 0L 56 0C 57.1046 0 58 0.895432 58 2L 58 12C 58 13.1046 57.1046 14 56 14L 54 14C 52.8954 14 52 13.1046 52 12L 52 2Z"/>
<path id="path10_stroke" d="M 0.859857 45.1238C 0.928229 45.3913 1.20054 45.5528 1.46809 45.4844C 1.73563 45.4161 1.89709 45.1437 1.82872 44.8762L 0.859857 45.1238ZM 58.848 44.9393C 58.8145 45.2134 59.0095 45.4628 59.2836 45.4963C 59.5577 45.5298 59.8071 45.3348 59.8406 45.0607L 58.848 44.9393ZM 1.82872 44.8762C -0.0674108 37.4566 -0.309958 26.3225 3.61705 17.0704C 7.52363 7.86635 15.5594 0.5 30.3443 0.5L 30.3443 -0.5C 15.1292 -0.5 6.74828 7.13365 2.69653 16.6796C -1.3348 26.1775 -1.07735 37.5434 0.859857 45.1238L 1.82872 44.8762ZM 30.3443 0.5C 37.7576 0.5 43.3288 2.35189 47.4991 5.32883C 51.7 8.31798 54.4754 12.4215 56.3172 17.0598C 60.0001 26.3184 59.7611 37.4684 58.848 44.9393L 59.8406 45.0607C 60.7608 37.5316 61.0218 26.1816 57.2464 16.6902C 55.359 11.9535 52.4157 7.61952 48.0801 4.51492C 43.7139 1.39811 37.931 -0.5 30.3443 -0.5L 30.3443 0.5Z"/>
<path id="path11_stroke" d="M 0.793539 44.1206C 0.860166 44.3886 1.13142 44.5519 1.39941 44.4852C 1.66739 44.4186 1.83062 44.1473 1.76399 43.8794L 0.793539 44.1206ZM 55.9553 43.941C 55.9227 44.2152 56.1186 44.4639 56.3928 44.4965C 56.667 44.5291 56.9157 44.3332 56.9483 44.059L 55.9553 43.941ZM 1.76399 43.8794C -0.0488732 36.6005 -0.290827 25.7586 3.46507 16.6908C 7.18126 7.69134 14.8196 0.5 28.8653 0.5L 28.8653 -0.5C 14.3732 -0.5 6.39503 6.97533 2.54078 16.3092C -1.27376 25.5747 -1.04009 36.7328 0.793539 44.1206L 1.76399 43.8794ZM 28.8653 0.5C 35.9101 0.5 41.2027 2.30864 45.1645 5.21562C 49.1582 8.13626 51.7961 12.1458 53.5479 16.6805C 57.0512 25.7332 56.824 36.6357 55.9553 43.941L 56.9483 44.059C 57.8236 36.6976 58.072 25.6001 54.4805 16.3195C 52.6849 11.6875 49.8828 7.44707 45.7561 4.40938C 41.5975 1.35803 36.0894 -0.5 28.8653 -0.5L 28.8653 0.5Z"/>
<path id="path12_fill" fill-rule="evenodd" d="M 2 2L 4 2L 4 12L 2 12L 2 2ZM -5.68434e-14 2C -5.68434e-14 0.895432 0.895416 0 2 0L 4 0C 5.10458 0 6 0.895432 6 2L 6 12C 6 13.1046 5.10458 14 4 14L 2 14C 0.895416 14 -5.68434e-14 13.1046 -5.68434e-14 12L -5.68434e-14 2ZM 52 2L 54 2L 54 12L 52 12L 52 2ZM 50 2C 50 0.895432 50.8954 0 52 0L 54 0C 55.1046 0 56 0.895432 56 2L 56 12C 56 13.1046 55.1046 14 54 14L 52 14C 50.8954 14 50 13.1046 50 12L 50 2Z"/>
<path id="path13_stroke" d="M -0.505753 21.1373C -0.982197 21.4166 -1.142 22.0293 -0.862678 22.5058C -0.583359 22.9822 0.0293086 23.142 0.505753 22.8627L -0.505753 21.1373ZM 235.205 22.9787C 235.746 22.8655 236.092 22.3354 235.979 21.7949L 234.133 12.9862C 234.02 12.4457 233.49 12.0993 232.949 12.2126C 232.408 12.3259 232.062 12.8559 232.175 13.3964L 233.816 21.2264L 225.986 22.8671C 225.446 22.9804 225.099 23.5104 225.213 24.051C 225.326 24.5915 225.856 24.9379 226.396 24.8246L 235.205 22.9787ZM 0 22C 0.505753 22.8627 0.505404 22.8629 0.50517 22.863C 0.505246 22.863 0.505128 22.863 0.505279 22.863C 0.505893 22.8626 0.506348 22.8623 0.507577 22.8616C 0.510655 22.8598 0.514345 22.8577 0.520519 22.8541C 0.534109 22.8463 0.55267 22.8357 0.580015 22.8203C 0.637194 22.7881 0.719555 22.7423 0.835261 22.6797C 1.07168 22.5518 1.4215 22.3676 1.90524 22.1268C 2.88285 21.6401 4.35602 20.9473 6.39891 20.0958C 10.5053 18.3833 16.8109 16.0699 25.727 13.6255C 43.6012 8.7226 71.7675 3.34262 113.147 1.40302L 113.053 -0.594785C 71.5325 1.35648 43.1488 6.77444 25.198 11.6967C 16.2016 14.165 9.77594 16.521 5.62921 18.2498C 3.54554 19.1189 2.01169 19.8398 1.0139 20.3364C 0.509945 20.5874 0.129979 20.7874 -0.116462 20.9207C -0.242187 20.9887 -0.339526 21.0428 -0.401689 21.0778C -0.434015 21.0961 -0.460036 21.1109 -0.476109 21.1202C -0.484767 21.1251 -0.492179 21.1294 -0.496496 21.1319C -0.498965 21.1334 -0.501279 21.1347 -0.502512 21.1354C -0.503283 21.1359 -0.504093 21.1364 -0.504479 21.1366C -0.505173 21.137 -0.505753 21.1373 0 22ZM 113.147 1.40302C 154.486 -0.543383 184.797 4.83131 204.857 10.7027C 214.863 13.6294 222.257 16.6652 227.185 18.9834C 229.639 20.1372 231.455 21.1009 232.673 21.7845C 233.277 22.1235 233.722 22.3867 234.023 22.5695C 234.171 22.6594 234.278 22.7264 234.352 22.773C 234.388 22.7956 234.413 22.8116 234.431 22.8231C 234.44 22.8285 234.445 22.832 234.449 22.8347C 234.451 22.8359 234.452 22.8365 234.453 22.8371C 234.453 22.8373 234.453 22.8373 234.453 22.8374C 234.453 22.8373 234.453 22.8371 235 22C 235.547 21.1629 235.546 21.1625 235.546 21.1621C 235.545 21.1618 235.544 21.1612 235.544 21.1606C 235.542 21.1597 235.539 21.1579 235.536 21.156C 235.531 21.1526 235.522 21.1469 235.512 21.14C 235.491 21.127 235.459 21.1066 235.419 21.081C 235.34 21.0314 235.218 20.9557 235.061 20.8599C 234.75 20.6713 234.276 20.3907 233.652 20.0404C 232.413 19.3454 230.534 18.3484 228.036 17.1736C 223.062 14.8346 215.524 11.7419 205.418 8.78323C 185.253 2.88399 154.614 -2.53926 113.053 -0.594785L 113.147 1.40302Z"/>
</defs>
</svg>
