<svg width="500" height="500" viewBox="0 0 500 500" version="1.1" xmlns="http://www.w3.org/2000/svg" xmlns:xlink="http://www.w3.org/1999/xlink" xmlns:figma="http://www.figma.com/figma/ns">
<title>episode2</title>
<desc>Created using Figma</desc>
<g id="Canvas" transform="translate(404 266)" figma:type="canvas">
<mask id="mask0_alpha" mask-type="alpha">
<path d="M -404 -266L 96 -266L 96 234L -404 234L -404 -266Z" fill="#FFFFFF"/>
</mask>
<g id="episode2" style="mix-blend-mode:normal;isolation:isolate;" mask="url(#mask0_alpha)" figma:type="frame">
<g id="Vector 2" style="mix-blend-mode:normal;" figma:type="vector">
<use xlink:href="#path0_stroke" transform="translate(-139.5 -95.8931)" fill="#FFFFFF" style="mix-blend-mode:normal;"/>
</g>
<g id="Star" style="mix-blend-mode:normal;" figma:type="vector">
<use xlink:href="#path1_stroke" transform="translate(-232.5 -59)" fill="#FFFFFF" style="mix-blend-mode:normal;"/>
</g>
<g id="Vector 3" style="mix-blend-mode:normal;" figma:type="vector">
<use xlink:href="#path2_stroke" transform="translate(-262.5 49)" fill="#FFFFFF" style="mix-blend-mode:normal;"/>
</g>
<g id="Vector 3" style="mix-blend-mode:normal;" figma:type="vector">
<use xlink:href="#path3_stroke" transform="translate(-271.5 44.5)" fill="#FFFFFF" style="mix-blend-mode:normal;"/>
</g>
<g id="Vector 3" style="mix-blend-mode:normal;" figma:type="vector">
<use xlink:href="#path4_stroke" transform="translate(-382 112)" fill="#FFFFFF" style="mix-blend-mode:normal;"/>
</g>
<g id="Vector 3" style="mix-blend-mode:normal;" figma:type="vector">
<use xlink:href="#path5_stroke" transform="translate(-301 41)" fill="#FFFFFF" style="mix-blend-mode:normal;"/>
</g>
<g id="Vector 3" style="mix-blend-mode:normal;" figma:type="vector">
<use xlink:href="#path6_stroke" transform="translate(-381 38)" fill="#FFFFFF" style="mix-blend-mode:normal;"/>
</g>
<g id="Vector 4" style="mix-blend-mode:normal;" figma:type="vector">
<use xlink:href="#path7_stroke" transform="translate(-299.5 -109)" fill="#FFFFFF" style="mix-blend-mode:normal;"/>
</g>
<g id="Vector 5" style="mix-blend-mode:normal;" figma:type="vector">
<use xlink:href="#path8_stroke" transform="translate(-356.383 -108)" fill="#FFFFFF" style="mix-blend-mode:normal;"/>
</g>
<g id="Ellipse" style="mix-blend-mode:normal;" figma:type="ellipse">
<mask id="mask1_outline_ins">
<use xlink:href="#path9_fill" fill="white" transform="translate(-373 117)"/>
</mask>
<g mask="url(#mask1_outline_ins)">
<use xlink:href="#path10_stroke_2x" transform="translate(-373 117)" fill="#FFFFFF" style="mix-blend-mode:normal;"/>
</g>
</g>
<g id="Ellipse" style="mix-blend-mode:normal;" figma:type="ellipse">
<mask id="mask2_outline_ins">
<use xlink:href="#path11_fill" fill="white" transform="translate(-366 124)"/>
</mask>
<g mask="url(#mask2_outline_ins)">
<use xlink:href="#path12_stroke_2x" transform="translate(-366 124)" fill="#FFFFFF" style="mix-blend-mode:normal;"/>
</g>
</g>
<g id="Vector 6" style="mix-blend-mode:normal;" figma:type="vector">
<use xlink:href="#path13_stroke" transform="translate(-366.5 119)" fill="#FFFFFF" style="mix-blend-mode:normal;"/>
</g>
<g id="Vector 7" style="mix-blend-mode:normal;" figma:type="vector">
<use xlink:href="#path14_stroke" transform="translate(-298.563 -106)" fill="#FFFFFF" style="mix-blend-mode:normal;"/>
</g>
<g id="Rectangle 2" style="mix-blend-mode:normal;" figma:type="rounded-rectangle">
<mask id="mask3_outline_ins">
<use xlink:href="#path15_fill" fill="white" transform="translate(-58.4 -208)"/>
</mask>
<g mask="url(#mask3_outline_ins)">
<use xlink:href="#path16_stroke_2x" transform="translate(-58.4 -208)" fill="#FFFFFF" style="mix-blend-mode:normal;"/>
</g>
</g>
<g id="Rectangle 2" style="mix-blend-mode:normal;" figma:type="rounded-rectangle">
<mask id="mask4_outline_ins">
<use xlink:href="#path17_fill" fill="white" transform="translate(-52 -202)"/>
</mask>
<g mask="url(#mask4_outline_ins)">
<use xlink:href="#path18_stroke_2x" transform="translate(-52 -202)" fill="#FFFFFF" style="mix-blend-mode:normal;"/>
</g>
</g>
<g id="Rectangle 2" style="mix-blend-mode:normal;" figma:type="rounded-rectangle">
<mask id="mask5_outline_ins">
<use xlink:href="#path17_fill" fill="white" transform="translate(-4 -202)"/>
</mask>
<g mask="url(#mask5_outline_ins)">
<use xlink:href="#path18_stroke_2x" transform="translate(-4 -202)" fill="#FFFFFF" style="mix-blend-mode:normal;"/>
</g>
</g>
<g id="Rectangle 2" style="mix-blend-mode:normal;" figma:type="rounded-rectangle">
<mask id="mask6_outline_ins">
<use xlink:href="#path19_fill" fill="white" transform="translate(-32 -202)"/>
</mask>
<g mask="url(#mask6_outline_ins)">
<use xlink:href="#path20_stroke_2x" transform="translate(-32 -202)" fill="#FFFFFF" style="mix-blend-mode:normal;"/>
</g>
</g>
<g id="Rectangle 2" style="mix-blend-mode:normal;" figma:type="rounded-rectangle">
<mask id="mask7_outline_ins">
<use xlink:href="#path19_fill" fill="white" transform="translate(-26 -208)"/>
</mask>
<g mask="url(#mask7_outline_ins)">
<use xlink:href="#path20_stroke_2x" transform="translate(-26 -208)" fill="#FFFFFF" style="mix-blend-mode:normal;"/>
</g>
</g>
<g id="Rectangle 2" style="mix-blend-mode:normal;" figma:type="rounded-rectangle">
<mask id="mask8_outline_ins">
<use xlink:href="#path19_fill" fill="white" transform="translate(-20 -192)"/>
</mask>
<g mask="url(#mask8_outline_ins)">
<use xlink:href="#path20_stroke_2x" transform="translate(-20 -192)" fill="#FFFFFF" style="mix-blend-mode:normal;"/>
</g>
</g>
<g id="Rectangle 2" style="mix-blend-mode:normal;" figma:type="rounded-rectangle">
<mask id="mask9_outline_ins">
<use xlink:href="#path19_fill" fill="white" transform="translate(-34 -175)"/>
</mask>
<g mask="url(#mask9_outline_ins)">
<use xlink:href="#path20_stroke_2x" transform="translate(-34 -175)" fill="#FFFFFF" style="mix-blend-mode:normal;"/>
</g>
</g>
<g id="Rectangle 2" style="mix-blend-mode:normal;" figma:type="rounded-rectangle">
<mask id="mask10_outline_ins">
<use xlink:href="#path19_fill" fill="white" transform="translate(-52 -181)"/>
</mask>
<g mask="url(#mask10_outline_ins)">
<use xlink:href="#path20_stroke_2x" transform="translate(-52 -181)" fill="#FFFFFF" style="mix-blend-mode:normal;"/>
</g>
</g>
<g id="Rectangle 2" style="mix-blend-mode:normal;" figma:type="rounded-rectangle">
<mask id="mask11_outline_ins">
<use xlink:href="#path19_fill" fill="white" transform="translate(-46 -175)"/>
</mask>
<g mask="url(#mask11_outline_ins)">
<use xlink:href="#path20_stroke_2x" transform="translate(-46 -175)" fill="#FFFFFF" style="mix-blend-mode:normal;"/>
</g>
</g>
<g id="Rectangle 2" style="mix-blend-mode:normal;" figma:type="rounded-rectangle">
<mask id="mask12_outline_ins">
<use xlink:href="#path19_fill" fill="white" transform="translate(-40 -169)"/>
</mask>
<g mask="url(#mask12_outline_ins)">
<use xlink:href="#path20_stroke_2x" transform="translate(-40 -169)" fill="#FFFFFF" style="mix-blend-mode:normal;"/>
</g>
</g>
<g id="Rectangle 2" style="mix-blend-mode:normal;" figma:type="rounded-rectangle">
<mask id="mask13_outline_ins">
<use xlink:href="#path19_fill" fill="white" transform="translate(8 -160)"/>
</mask>
<g mask="url(#mask13_outline_ins)">
<use xlink:href="#path20_stroke_2x" transform="translate(8 -160)" fill="#FFFFFF" style="mix-blend-mode:normal;"/>
</g>
</g>
<g id="Rectangle 2" style="mix-blend-mode:normal;" figma:type="rounded-rectangle">
<mask id="mask14_outline_ins">
<use xlink:href="#path19_fill" fill="white" transform="translate(-16 -164)"/>
</mask>
<g mask="url(#mask14_outline_ins)">
<use xlink:href="#path20_stroke_2x" transform="translate(-16 -164)" fill="#FFFFFF" style="mix-blend-mode:normal;"/>
</g>
</g>
<g id="Rectangle 2" style="mix-blend-mode:normal;" figma:type="rounded-rectangle">
<mask id="mask15_outline_ins">
<use xlink:href="#path17_fill" fill="white" transform="translate(-52 -157)"/>
</mask>
<g mask="url(#mask15_outline_ins)">
<use xlink:href="#path18_stroke_2x" transform="translate(-52 -157)" fill="#FFFFFF" style="mix-blend-mode:normal;"/>
</g>
</g>
<g id="Rectangle 2" style="mix-blend-mode:normal;" figma:type="rounded-rectangle">
<mask id="mask16_outline_ins">
<use xlink:href="#path15_fill" fill="white" transform="translate(-58.4 -163)"/>
</mask>
<g mask="url(#mask16_outline_ins)">
<use xlink:href="#path16_stroke_2x" transform="translate(-58.4 -163)" fill="#FFFFFF" style="mix-blend-mode:normal;"/>
</g>
</g>
<g id="Rectangle 2" style="mix-blend-mode:normal;" figma:type="rounded-rectangle">
<mask id="mask17_outline_ins">
<use xlink:href="#path15_fill" fill="white" transform="translate(-10.4 -208)"/>
</mask>
<g mask="url(#mask17_outline_ins)">
<use xlink:href="#path16_stroke_2x" transform="translate(-10.4 -208)" fill="#FFFFFF" style="mix-blend-mode:normal;"/>
</g>
</g>
<g id="Union" style="mix-blend-mode:normal;" figma:type="vector-operation">
<use xlink:href="#path21_stroke" transform="matrix(6.12323e-17 1 -1 6.12323e-17 36.5167 -85)" fill="#FFFFFF" style="mix-blend-mode:normal;"/>
</g>
<g id="Vector 8" style="mix-blend-mode:normal;" figma:type="vector">
<use xlink:href="#path22_stroke" transform="translate(-102 -4.6691)" fill="#FFFFFF" style="mix-blend-mode:normal;"/>
</g>
<g id="Rectangle 4" style="mix-blend-mode:normal;" figma:type="rounded-rectangle">
<mask id="mask18_outline_ins">
<use xlink:href="#path23_fill" fill="white" transform="translate(-201 33)"/>
</mask>
<g mask="url(#mask18_outline_ins)">
<use xlink:href="#path24_stroke_2x" transform="translate(-201 33)" fill="#FFFFFF" style="mix-blend-mode:normal;"/>
</g>
</g>
<g id="Rectangle 4" style="mix-blend-mode:normal;" figma:type="rounded-rectangle">
<use xlink:href="#path25_stroke" transform="translate(-191 27)" fill="#FFFFFF" style="mix-blend-mode:normal;"/>
</g>
<g id="Vector 10" style="mix-blend-mode:normal;" figma:type="vector">
<use xlink:href="#path26_stroke" transform="translate(-192 36)" fill="#FFFFFF" style="mix-blend-mode:normal;"/>
</g>
<g id="Vector 11" style="mix-blend-mode:normal;" figma:type="vector">
<use xlink:href="#path27_stroke" transform="translate(-131 -80.5)" fill="#FFFFFF" style="mix-blend-mode:normal;"/>
</g>
<g id="Vector 12" style="mix-blend-mode:normal;" figma:type="vector">
<use xlink:href="#path28_stroke" transform="translate(-112.5 138)" fill="#FFFFFF" style="mix-blend-mode:normal;"/>
</g>
<g id="Vector 12" style="mix-blend-mode:normal;" figma:type="vector">
<use xlink:href="#path29_stroke" transform="translate(-28 138)" fill="#FFFFFF" style="mix-blend-mode:normal;"/>
</g>
<g id="Vector 13" style="mix-blend-mode:normal;" figma:type="vector">
<use xlink:href="#path30_stroke" transform="translate(-16.1037 154.451)" fill="#FFFFFF" style="mix-blend-mode:normal;"/>
</g>
<g id="Vector 14" style="mix-blend-mode:normal;" figma:type="vector">
<use xlink:href="#path31_stroke" transform="translate(-78 157)" fill="#FFFFFF" style="mix-blend-mode:normal;"/>
</g>
<g id="Vector 15" style="mix-blend-mode:normal;" figma:type="vector">
<use xlink:href="#path32_stroke" transform="translate(-262 -208)" fill="#FFFFFF" style="mix-blend-mode:normal;"/>
</g>
<g id="Ellipse 2" style="mix-blend-mode:normal;" figma:type="ellipse">
<mask id="mask19_outline_ins">
<use xlink:href="#path33_fill" fill="white" transform="translate(-341 -208)"/>
</mask>
<g mask="url(#mask19_outline_ins)">
<use xlink:href="#path34_stroke_2x" transform="translate(-341 -208)" fill="#FFFFFF" style="mix-blend-mode:normal;"/>
</g>
</g>
<g id="Ellipse 2" style="mix-blend-mode:normal;" figma:type="vector">
<use xlink:href="#path35_stroke" transform="translate(-340 -204)" fill="#FFFFFF" style="mix-blend-mode:normal;"/>
</g>
<g id="Vector 9" style="mix-blend-mode:normal;" figma:type="vector">
<use xlink:href="#path36_stroke" transform="translate(-316 -200.936)" fill="#FFFFFF" style="mix-blend-mode:normal;"/>
</g>
<g id="Group" style="mix-blend-mode:normal;" figma:type="frame">
<g id="Group" style="mix-blend-mode:normal;" figma:type="frame">
<g id="Polygon 2" style="mix-blend-mode:normal;" figma:type="regular-polygon">
<mask id="mask20_outline_ins">
<use xlink:href="#path37_fill" fill="white" transform="translate(-366 -112)"/>
</mask>
<g mask="url(#mask20_outline_ins)">
<use xlink:href="#path38_stroke_2x" transform="translate(-366 -112)" fill="#FFFFFF" style="mix-blend-mode:normal;"/>
</g>
</g>
<g id="Polygon 2" style="mix-blend-mode:normal;" figma:type="vector">
<mask id="mask21_outline_ins">
<use xlink:href="#path39_fill" fill="white" transform="matrix(-1 1.22465e-16 -1.22465e-16 -1 -325 -69)"/>
</mask>
<g mask="url(#mask21_outline_ins)">
<use xlink:href="#path40_stroke_2x" transform="matrix(-1 1.22465e-16 -1.22465e-16 -1 -325 -69)" fill="#FFFFFF" style="mix-blend-mode:normal;"/>
</g>
</g>
</g>
<g id="Group" style="mix-blend-mode:normal;" figma:type="frame">
<g id="Ellipse 4" style="mix-blend-mode:normal;" figma:type="ellipse">
<mask id="mask22_outline_ins">
<use xlink:href="#path41_fill" fill="white" transform="translate(-343 -86)"/>
</mask>
<g mask="url(#mask22_outline_ins)">
<use xlink:href="#path42_stroke_2x" transform="translate(-343 -86)" fill="#FFFFFF" style="mix-blend-mode:normal;"/>
</g>
</g>
</g>
<g id="Vector 18" style="mix-blend-mode:normal;" figma:type="vector">
<use xlink:href="#path43_stroke" transform="translate(-359 -108.5)" fill="#FFFFFF" style="mix-blend-mode:normal;"/>
</g>
<g id="Vector 19" style="mix-blend-mode:normal;" figma:type="vector">
<use xlink:href="#path44_stroke" transform="translate(-322.5 -112)" fill="#FFFFFF" style="mix-blend-mode:normal;"/>
</g>
<g id="Vector 20" style="mix-blend-mode:normal;" figma:type="vector">
<use xlink:href="#path45_stroke" transform="translate(-352.5 -122)" fill="#FFFFFF" style="mix-blend-mode:normal;"/>
</g>
<g id="Vector 21" style="mix-blend-mode:normal;" figma:type="vector">
<use xlink:href="#path46_stroke" transform="translate(-329.5 -127)" fill="#FFFFFF" style="mix-blend-mode:normal;"/>
</g>
<g id="Vector 22" style="mix-blend-mode:normal;" figma:type="vector">
<use xlink:href="#path47_stroke" transform="translate(-342 -132.5)" fill="#FFFFFF" style="mix-blend-mode:normal;"/>
</g>
<g id="Vector 23" style="mix-blend-mode:normal;" figma:type="vector">
<use xlink:href="#path48_stroke" transform="translate(-331.5 -131.5)" fill="#FFFFFF" style="mix-blend-mode:normal;"/>
</g>
</g>
<g id="Ellipse 4" style="mix-blend-mode:normal;" figma:type="ellipse">
<use xlink:href="#path49_fill" transform="translate(-339 -86)" fill="#FFFFFF" style="mix-blend-mode:normal;"/>
</g>
<g id="Vector 16" style="mix-blend-mode:normal;" figma:type="vector">
<use xlink:href="#path50_stroke" transform="translate(-365.054 -237.612)" fill="#FFFFFF" style="mix-blend-mode:normal;"/>
</g>
<g id="Vector 16" style="mix-blend-mode:normal;" figma:type="vector">
<use xlink:href="#path51_stroke" transform="translate(-265 -244.08)" fill="#FFFFFF" style="mix-blend-mode:normal;"/>
</g>
<g id="Vector 17" style="mix-blend-mode:normal;" figma:type="vector">
<use xlink:href="#path52_stroke" transform="translate(9.4267 4.43402)" fill="#FFFFFF" style="mix-blend-mode:normal;"/>
</g>
<g id="Ellipse 3" style="mix-blend-mode:normal;" figma:type="ellipse">
<use xlink:href="#path53_fill" transform="translate(14 30)" fill="#FFFFFF" style="mix-blend-mode:normal;"/>
</g>
<g id="Ellipse 3" style="mix-blend-mode:normal;" figma:type="ellipse">
<use xlink:href="#path53_fill" transform="translate(-25 149.75)" fill="#FFFFFF" style="mix-blend-mode:normal;"/>
</g>
<g id="Ellipse 3" style="mix-blend-mode:normal;" figma:type="ellipse">
<use xlink:href="#path53_fill" transform="translate(-109 149.5)" fill="#FFFFFF" style="mix-blend-mode:normal;"/>
</g>
</g>
</g>
<defs>
<path id="path0_stroke" d="M 0 51.3931L -1.2206 50.5212C -1.57651 51.0195 -1.59382 51.684 -1.26435 52.2002C -0.934872 52.7163 -0.324759 52.9803 0.27703 52.8673L 0 51.3931ZM 74.5 37.3931L 74.777 38.8673C 75.4315 38.7443 75.9265 38.2046 75.9926 37.542C 76.0587 36.8793 75.68 36.2525 75.0628 36.0026L 74.5 37.3931ZM 53.5 28.8931L 54.0628 27.5026C 53.55 27.2951 52.9647 27.3866 52.5397 27.7407L 53.5 28.8931ZM 40.5 9.89307L 39.0917 10.4094L 40.5 9.89307ZM 3 14.3931L 1.57283 13.9313L 3 14.3931ZM 10 37.3931L 11.2206 38.2649C 11.5495 37.8045 11.5913 37.1982 11.3287 36.697L 10 37.3931ZM 0.27703 52.8673L 74.777 38.8673L 74.223 35.9189L -0.27703 49.9189L 0.27703 52.8673ZM 75.0628 36.0026L 54.0628 27.5026L 52.9372 30.2835L 73.9372 38.7835L 75.0628 36.0026ZM 52.5397 27.7407C 51.9142 28.262 51.443 28.4679 51.1133 28.5319C 50.7297 28.6314 50.6176 28.6058 50.2556 28.3942C 49.5486 28.0216 48.7004 27.0024 47.7399 25.0938C 45.8458 21.3436 44.125 15.4246 41.9083 9.37669L 39.0917 10.4094C 41.275 16.3615 43.0542 22.4425 45.0601 26.4423C 46.0496 28.4087 47.2514 30.202 48.8569 31.0482C 49.6512 31.4459 50.7609 31.6313 51.6851 31.4769C 52.6632 31.287 53.5858 30.7741 54.4603 30.0454L 52.5397 27.7407ZM 41.9083 9.37669C 38.8342 0.992683 29.9855 -2.26664 21.5869 -1.34804C 13.1553 -0.425828 4.54844 4.734 1.57283 13.9313L 4.42717 14.8548C 6.95156 7.05213 14.3447 2.46196 21.9131 1.63417C 29.5145 0.802771 36.6658 3.79345 39.0917 10.4094L 41.9083 9.37669ZM 1.57283 13.9313C -0.768757 21.169 0.599235 26.4807 2.86115 30.4265C 3.96437 32.3403 5.28191 33.945 6.37867 35.2155C 7.55187 36.5744 8.31727 37.4133 8.67125 38.0891L 11.3287 36.697C 10.7661 35.6228 9.64813 34.4117 8.64946 33.255C 7.57434 32.0099 6.43146 30.6334 5.46385 28.9346C 3.5841 25.6554 2.36876 21.2172 4.42717 14.8548L 1.57283 13.9313ZM 8.7794 36.5212L -1.2206 50.5212L 1.2206 52.2649L 11.2206 38.2649L 8.7794 36.5212Z"/>
<path id="path1_stroke" d="M 11.5 0L 12.4511 -0.309017C 12.3217 -0.707147 11.958 -0.982568 11.5398 -0.99921C 11.1215 -1.01585 10.7371 -0.770191 10.5765 -0.383595L 11.5 0ZM 15.0922 11.0557L 14.1412 11.3647C 14.275 11.7768 14.659 12.0557 15.0922 12.0557L 15.0922 11.0557ZM 26.7169 11.0557L 27.3047 11.8647C 27.6552 11.6101 27.8018 11.1587 27.668 10.7467C 27.5341 10.3347 27.1501 10.0557 26.7169 10.0557L 26.7169 11.0557ZM 17.3123 17.8885L 16.7246 17.0795C 16.3741 17.3342 16.2274 17.7855 16.3613 18.1976L 17.3123 17.8885ZM 20.9046 28.9443L 20.3168 29.7533C 20.6673 30.0079 21.1419 30.0079 21.4923 29.7533C 21.8428 29.4986 21.9895 29.0473 21.8556 28.6353L 20.9046 28.9443ZM 11.5 22.1115L 12.0878 21.3024C 11.7522 21.0586 11.3008 21.0473 10.9534 21.274L 11.5 22.1115ZM 4.09544 26.9443L 3.09757 26.879C 3.07285 27.257 3.26381 27.6165 3.59083 27.8076C 3.91786 27.9988 4.3248 27.9887 4.642 27.7817L 4.09544 26.9443ZM 4.68766 17.8885L 5.68553 17.9538C 5.70644 17.634 5.57279 17.3235 5.32611 17.1189L 4.68766 17.8885ZM 6.90778 11.0557L 6.90778 12.0557C 7.31188 12.0557 7.67627 11.8125 7.83128 11.4393L 6.90778 11.0557ZM 0.355119 11.0557L 0.355119 10.0557C -0.150852 10.0557 -0.577098 10.4337 -0.637686 10.936L 0.355119 11.0557ZM 0 14L -0.992805 13.8803C -1.0335 14.2177 -0.900036 14.5527 -0.638454 14.7697L 0 14ZM 10.5489 0.309017L 14.1412 11.3647L 16.0433 10.7467L 12.4511 -0.309017L 10.5489 0.309017ZM 15.0922 12.0557L 26.7169 12.0557L 26.7169 10.0557L 15.0922 10.0557L 15.0922 12.0557ZM 26.1291 10.2467L 16.7246 17.0795L 17.9001 18.6976L 27.3047 11.8647L 26.1291 10.2467ZM 16.3613 18.1976L 19.9535 29.2533L 21.8556 28.6353L 18.2634 17.5795L 16.3613 18.1976ZM 21.4923 28.1353L 12.0878 21.3024L 10.9122 22.9205L 20.3168 29.7533L 21.4923 28.1353ZM 10.9534 21.274L 3.54887 26.1069L 4.642 27.7817L 12.0466 22.9489L 10.9534 21.274ZM 5.0933 27.0095L 5.68553 17.9538L 3.68979 17.8233L 3.09757 26.879L 5.0933 27.0095ZM 7.83128 11.4393L 12.4235 0.383595L 10.5765 -0.383595L 5.98427 10.6721L 7.83128 11.4393ZM 0.355119 12.0557L 6.90778 12.0557L 6.90778 10.0557L 0.355119 10.0557L 0.355119 12.0557ZM 5.32611 17.1189L 0.638454 13.2303L -0.638454 14.7697L 4.04921 18.6582L 5.32611 17.1189ZM -0.637686 10.936L -0.992805 13.8803L 0.992805 14.1197L 1.34792 11.1755L -0.637686 10.936Z"/>
<path id="path2_stroke" d="M 0.752577 -0.658505C 0.388895 -1.07414 -0.242868 -1.11626 -0.658505 -0.752577C -1.07414 -0.388895 -1.11626 0.242868 -0.752577 0.658505L 0.752577 -0.658505ZM 101.5 0L 102.079 -0.815507C 101.681 -1.09775 101.138 -1.05195 100.793 -0.707107L 101.5 0ZM 209.646 0.763386C 210.068 0.406642 210.12 -0.224336 209.763 -0.645942C 209.407 -1.06755 208.776 -1.12013 208.354 -0.763386L 209.646 0.763386ZM -0.752577 0.658505C 1.18546 2.87341 6.05643 5.89194 14.3889 8.26185C 22.7149 10.6277 34.7392 12.3982 51.0247 11.9997L 50.9753 10.0003C 34.8608 10.4018 23.1351 8.67233 14.9361 6.33815C 6.74356 4.00806 2.31454 1.12659 0.752577 -0.658505L -0.752577 0.658505ZM 51.0247 11.9997C 67.2928 11.5957 79.2042 9.66049 87.414 7.41451C 95.6152 5.16946 100.351 2.5637 102.207 0.707107L 100.793 -0.707107C 99.3162 0.769632 95.0015 3.26387 86.886 5.48549C 78.7791 7.70618 67.1072 9.60431 50.9753 10.0003L 51.0247 11.9997ZM 100.921 0.815507C 106.322 4.64834 124.79 12 156.5 12L 156.5 10C 125.01 10 107.011 2.685 102.079 -0.815507L 100.921 0.815507ZM 156.5 12C 172.375 11.9971 184.546 10.1457 193.232 7.84153C 201.926 5.53371 207.315 2.73542 209.646 0.763386L 208.354 -0.763386C 206.351 0.931243 201.291 3.63295 192.718 5.90847C 184.138 8.18766 172.225 10.0029 156.5 10L 156.5 12Z"/>
<path id="path3_stroke" d="M 110.5 8.5L 111.079 7.68449C 110.681 7.40225 110.138 7.44805 109.793 7.7929L 110.5 8.5ZM 8.18429 0.982871C 8.72712 0.88109 9.08465 0.358533 8.98287 -0.184292C 8.88109 -0.727117 8.35853 -1.08465 7.81571 -0.982871L 8.18429 0.982871ZM 218.017 -0.999851C 217.465 -1.00937 217.01 -0.569442 217 -0.0172389C 216.991 0.534964 217.431 0.990331 217.983 0.999851L 218.017 -0.999851ZM -1 6.5C -1 8.03913 -0.407626 9.73352 1.30198 11.3642C 2.98082 12.9656 5.72125 14.4939 10.0154 15.8298C 18.6018 18.5012 33.7255 20.5 60 20.5L 60 18.5C 33.7745 18.5 18.8982 16.4988 10.6096 13.9201C 6.46625 12.6311 4.05043 11.2219 2.6824 9.917C 1.34513 8.64145 1 7.46085 1 6.5L -1 6.5ZM 60 20.5C 76.2854 20.4968 88.2147 18.5593 96.4287 16.2114C 104.651 13.8594 109.365 11.0496 111.207 9.20711L 109.793 7.7929C 108.302 9.28373 103.97 11.974 95.8787 14.2886C 87.7785 16.6074 76.1245 18.5032 60 18.5L 60 20.5ZM 109.921 9.31551C 115.322 13.1483 133.79 20.5 165.5 20.5L 165.5 18.5C 134.01 18.5 116.011 11.185 111.079 7.68449L 109.921 9.31551ZM 165.5 20.5C 193.785 20.5 209.638 17.8337 218.412 14.562C 227.162 11.2991 229.216 7.26847 228.997 4.4233L 227.003 4.5767C 227.117 6.06486 226.171 9.5342 217.713 12.688C 209.279 15.833 193.715 18.5 165.5 18.5L 165.5 20.5ZM 1 6.5C 1 4.61082 2.51069 3.23771 4.44722 2.26944C 5.387 1.79709 6.30263 1.48437 7.03 1.2725C 7.38632 1.16838 7.67184 1.09716 7.88238 1.04832C 7.98422 1.02464 8.05907 1.00851 8.11411 0.997046C 8.14001 0.991646 8.15741 0.988152 8.17089 0.985489C 8.17683 0.984313 8.18015 0.98367 8.1832 0.983084C 8.18433 0.982866 8.18459 0.982816 8.18517 0.982706C 8.18526 0.982689 8.18514 0.982712 8.18509 0.982721C 8.18502 0.982735 8.18482 0.982773 8.18478 0.98278C 8.18455 0.982823 8.18429 0.982871 8 0C 7.81571 -0.982871 7.81539 -0.982811 7.81504 -0.982745C 7.81488 -0.982716 7.8145 -0.982643 7.81418 -0.982584C 7.81374 -0.982501 7.81279 -0.982321 7.81192 -0.982155C 7.81055 -0.981896 7.80792 -0.981394 7.80521 -0.980872C 7.80056 -0.979977 7.7924 -0.978392 7.78321 -0.976578C 7.76642 -0.973259 7.7389 -0.96772 7.7062 -0.960913C 7.64406 -0.94796 7.54703 -0.926986 7.43012 -0.899876C 7.20316 -0.847152 6.86368 -0.762124 6.47 -0.647495C 5.69737 -0.421852 4.613 -0.0470706 3.55278 0.480585C 1.48931 1.51232 -1 3.38921 -1 6.5L 1 6.5ZM 228.997 4.4233C 228.881 2.92034 227.948 1.85564 226.845 1.13251C 225.784 0.445973 224.383 -0.0437251 223.106 -0.347983C 221.825 -0.650466 220.536 -0.816945 219.607 -0.902096C 219.136 -0.944994 218.736 -0.969818 218.465 -0.98317C 218.327 -0.989947 218.214 -0.994185 218.141 -0.996554C 218.103 -0.997773 218.072 -0.998612 218.052 -0.999091C 218.042 -0.999344 218.033 -0.999537 218.028 -0.999647C 218.025 -0.999707 218.022 -0.999759 218.021 -0.999787C 218.02 -0.999804 218.019 -0.99982 218.019 -0.999828C 218.018 -0.999833 218.018 -0.999839 218.018 -0.999842C 218.017 -0.999847 218.017 -0.999851 218 0C 217.983 0.999851 217.983 0.999848 217.982 0.999846C 217.982 0.999846 217.982 0.999844 217.982 0.999844C 217.982 0.999846 217.982 0.999846 217.983 0.999852C 217.984 0.999868 217.984 0.999885 217.986 0.999921C 217.99 1.00001 217.995 1.00012 218.003 1.00031C 218.02 1.00073 218.044 1.00135 218.077 1.00241C 218.145 1.0046 218.24 1.00818 218.367 1.01442C 218.626 1.02711 218.983 1.04916 219.425 1.0896C 220.318 1.17111 221.467 1.31713 222.644 1.59798C 223.826 1.87706 224.903 2.24153 225.749 2.80499C 226.552 3.33186 226.952 3.913 227.003 4.5767L 228.997 4.4233Z"/>
<path id="path4_stroke" d="M 0.5 3.94195C 0.5 3.6658 0.276142 3.44195 0 3.44195C -0.276142 3.44195 -0.5 3.6658 -0.5 3.94195L 0.5 3.94195ZM 110.234 16.8941L 110.241 16.3941C 110.236 16.394 110.231 16.394 110.226 16.3941L 110.234 16.8941ZM 469.493 2.74786C 469.456 2.47427 469.203 2.28284 468.93 2.3203C 468.656 2.35775 468.465 2.6099 468.502 2.88349L 469.493 2.74786ZM -0.5 3.94195C -0.5 4.24225 -0.315391 4.46293 -0.174236 4.5947C -0.0331967 4.72417 0.184397 4.87133 0.422682 5.00062C 0.882109 5.24779 1.5659 5.526 2.41937 5.81495C 4.1138 6.38787 6.59582 7.05114 9.71799 7.75925C 15.9543 9.17336 24.8233 10.7868 35.3252 12.2837C 56.3223 15.2763 83.9202 17.8135 110.242 17.394L 110.226 16.3941C 83.9581 16.8142 56.4387 14.2831 35.4663 11.2937C 24.9834 9.79965 16.1545 8.19359 9.93915 6.78402C 6.83549 6.08029 4.40323 5.43067 2.73982 4.86769C 1.91438 4.58869 1.30837 4.34319 0.89773 4.12066C 0.700981 4.01509 0.588471 3.94089 0.508166 3.86372C 0.427976 3.78886 0.5 3.81762 0.5 3.94195L -0.5 3.94195ZM 346.229 17.394C 391.101 18.0976 421.922 15.184 441.462 11.7905C 451.243 10.0913 458.228 8.26572 462.733 6.71566C 464.994 5.93695 466.662 5.21498 467.74 4.61596C 468.289 4.3103 468.723 4.01144 468.999 3.75869C 469.144 3.62281 469.281 3.45984 469.361 3.32677C 469.45 3.17414 469.524 2.9734 469.493 2.74786L 468.502 2.88349C 468.492 2.81047 468.521 2.78296 468.498 2.82274C 468.465 2.88209 468.423 2.93072 468.32 3.02409C 468.099 3.22985 467.762 3.46012 467.254 3.74198C 466.22 4.318 464.632 5.0046 462.407 5.77011C 457.939 7.3085 451.031 9.11402 441.291 10.8053C 421.789 14.1929 391.062 17.0984 346.244 16.3941L 346.229 17.394ZM 110.228 17.394C 154.857 17.9576 180.395 13.7313 196.373 9.35159C 204.361 7.16133 209.953 4.93565 214.32 3.26506C 218.706 1.58692 221.789 0.5 224.843 0.5L 224.843 -0.5C 221.572 -0.5 218.315 0.665617 213.962 2.33109C 209.59 4.00411 204.043 6.21312 196.109 8.38716C 180.243 12.7361 154.802 16.9568 110.241 16.3941L 110.228 17.394ZM 224.843 0.5C 228.489 0.496186 232.255 1.45042 237.315 2.92183C 242.379 4.39414 248.694 6.37757 257.353 8.40591C 274.654 12.4573 301.348 16.6883 346.229 17.394L 346.244 16.3941C 301.434 15.692 274.847 11.476 257.581 7.43225C 248.958 5.41306 242.668 3.43695 237.594 1.9616C 232.517 0.485352 228.612 -0.496186 224.843 -0.5L 224.843 0.5Z"/>
<path id="path5_stroke" d="M 140.087 20.8974L 140.673 20.087C 140.272 19.7973 139.72 19.844 139.373 20.1969L 140.087 20.8974ZM 37.0696 1C 37.6219 1 38.0696 0.552285 38.0696 5.41582e-16C 38.0696 -0.552285 37.6219 -1 37.0696 -1L 37.0696 1ZM 247.398 -1C 246.846 -1 246.398 -0.552284 246.398 7.84014e-07C 246.398 0.552286 246.846 1 247.398 1L 247.398 -1ZM -1 11.3333C -0.994954 14.267 -0.329103 17.4565 1.68731 20.3845C 3.74316 23.3328 7.16369 26.0381 12.5903 28.3374C 23.4066 32.9205 42.4591 36 75.5224 36L 75.5224 34C 42.5036 34 23.7948 30.9128 13.3705 26.4959C 8.17679 24.2952 5.10711 21.7922 3.32785 19.2405C 1.50914 16.6685 0.994954 14.0663 1 11.3333L -1 11.3333ZM 75.5224 36C 96.0002 35.9967 111.229 33.5188 121.803 30.5131C 132.374 27.5063 138.519 23.9215 140.801 21.598L 139.373 20.1969C 137.459 22.1469 131.719 25.6134 121.256 28.5894C 110.794 31.5667 95.839 34.0033 75.5224 34L 75.5224 36ZM 139.501 21.7079C 146.235 26.5753 168.419 36 208.316 36L 208.316 34C 168.663 34 146.946 24.6213 140.673 20.087L 139.501 21.7079ZM 208.316 36C 243.921 36 263.944 31.6346 275.017 26.0665C 280.568 23.2748 283.914 20.1586 285.822 17.0961C 287.701 14.0393 288.15 10.9945 287.982 8.69392L 285.988 8.84454C 286.151 10.9286 285.822 13.3549 284.124 16.0385C 282.456 18.7164 279.428 21.6098 274.118 24.2797C 263.47 29.6346 243.828 34 208.316 34L 208.316 36ZM 1 11.3333C 1 9.13594 2.79289 7.25683 6.20898 5.69023C 9.58927 4.13429 14.0885 3.10728 18.6859 2.40518C 23.2823 1.70184 27.8658 1.35215 31.3284 1.17579C 33.0559 1.08771 34.4894 1.04393 35.4986 1.0219C 36.0015 1.01091 36.3939 1.00546 36.6635 1.00272C 36.7975 1.00135 36.899 1.00067 36.9682 1.00033C 37.0025 1.00016 37.0278 1.00008 37.0452 1.00004C 37.0537 1.00002 37.0598 1.00001 37.0641 1C 37.0661 1 37.0675 1 37.0686 1C 37.069 1 37.0693 1 37.0695 1C 37.0697 1 37.0696 1 37.0696 5.27356e-16C 37.0696 -1 37.0694 -1 37.0689 -1C 37.0686 -1 37.068 -1 37.0674 -0.999999C 37.0661 -0.999998 37.0641 -0.999997 37.0617 -0.999994C 37.057 -0.999988 37.0497 -0.999976 37.0404 -0.999954C 37.0221 -0.99991 36.9943 -0.999819 36.9584 -0.999642C 36.8874 -0.999292 36.7807 -0.998581 36.6431 -0.997181C 36.3698 -0.994394 35.9658 -0.988773 35.455 -0.977626C 34.437 -0.955386 32.9744 -0.910629 31.2266 -0.821621C 27.7387 -0.643812 23.0548 -0.285177 18.3837 0.42815C 13.7137 1.14272 8.94555 2.24071 5.37528 3.87228C 1.84082 5.49317 -1 7.86407 -1 11.3333L 1 11.3333ZM 287.982 8.69392C 287.869 7.19612 286.941 6.00314 285.691 5.07246C 284.475 4.17473 282.756 3.385 280.833 2.74974C 277.017 1.49543 271.988 0.653762 267.054 0.102322C 262.12 -0.448438 257.197 -0.724877 253.528 -0.862285C 251.691 -0.931045 250.157 -0.965561 249.088 -0.982745C 248.552 -0.991351 248.129 -0.995679 247.843 -0.997831C 247.699 -0.998911 247.588 -0.999456 247.513 -0.999726C 247.476 -0.999862 247.447 -0.999931 247.428 -0.999965C 247.418 -0.999982 247.411 -0.999991 247.406 -0.999995C 247.403 -0.999998 247.401 -0.999999 247.4 -0.999999C 247.4 -1 247.399 -1 247.399 -1C 247.398 -1 247.398 -1 247.398 5.27356e-16C 247.398 1 247.398 1 247.398 1C 247.398 1 247.399 1 247.399 1C 247.4 1 247.402 1 247.404 1C 247.409 1.00001 247.415 1.00002 247.424 1.00003C 247.443 1.00006 247.47 1.00013 247.506 1.00026C 247.579 1.00053 247.686 1.00105 247.828 1.00211C 248.112 1.00424 248.526 1.00848 249.056 1.017C 250.118 1.03407 251.631 1.06806 253.453 1.13631C 257.103 1.27294 261.953 1.54457 266.832 2.08996C 271.712 2.63467 276.538 3.43724 280.207 4.64927C 282.027 5.24719 283.457 5.89616 284.497 6.67692C 285.502 7.42474 285.935 8.15002 285.988 8.84454L 287.982 8.69392Z"/>
<path id="path6_stroke" d="M 118.67 55L 118.645 55.9997L 118.67 55ZM 117.248 1C 117.801 1 118.248 0.552285 118.248 2.30323e-15C 118.248 -0.552285 117.801 -1 117.248 -1L 117.248 1ZM 326.742 -1C 326.189 -1 325.742 -0.552284 325.742 3.87158e-07C 325.742 0.552285 326.189 1 326.742 1L 326.742 -1ZM -1 17.8095C -0.994568 22.366 0.0160681 27.0599 3.13768 31.3633C 6.29898 35.6832 11.5814 39.6292 20.0334 43.0472C 36.9052 49.8703 66.7299 54.7151 118.645 55.9997L 118.695 54.0003C 66.8054 52.7164 37.2952 47.8707 20.7832 41.1931C 12.5433 37.8608 7.62155 34.1038 4.75167 30.1822C 1.84212 26.2441 0.994568 22.1578 1 17.8095L -1 17.8095ZM 327.331 56C 383.252 56 414.606 49.1401 431.883 40.4511C 440.537 36.099 445.703 31.2657 448.633 26.5631C 451.534 21.8662 452.205 17.2583 451.943 13.7049L 449.948 13.8555C 450.206 17.1923 449.655 21.1819 446.936 25.5056C 444.246 29.8236 439.396 34.434 430.985 38.6643C 414.131 47.1401 383.158 54 327.331 54L 327.331 56ZM 1 17.8095C 1 16.1891 2.34629 14.4945 5.50743 12.814C 8.63225 11.1481 13.0873 9.73035 18.5422 8.48841C 29.48 5.99473 44.0626 4.33481 58.6999 3.22332C 73.337 2.11148 87.9679 1.55605 98.9536 1.27795C 104.445 1.13893 109.017 1.06948 112.221 1.03473C 113.822 1.01735 115.079 1.00868 115.937 1.00434C 116.365 1.00217 116.693 1.00108 116.914 1.00054C 117.025 1.00027 117.108 1.00013 117.165 1.00007C 117.193 1.00003 117.213 1.00002 117.228 1.00001C 117.235 1 117.24 1 117.243 1C 117.245 1 117.246 1 117.247 1C 117.248 1 117.248 1 117.248 2.28375e-15C 117.248 -1 117.248 -1 117.247 -1C 117.246 -1 117.244 -0.999999 117.243 -0.999999C 117.239 -0.999998 117.234 -0.999996 117.226 -0.999991C 117.212 -0.999983 117.191 -0.999966 117.162 -0.999931C 117.106 -0.999863 117.021 -0.999726 116.91 -0.999453C 116.687 -0.998909 116.357 -0.997817 115.926 -0.995639C 115.067 -0.991286 113.804 -0.982568 112.199 -0.965157C 108.991 -0.930347 104.404 -0.860658 98.903 -0.721406C 87.9046 -0.442952 73.2233 0.114713 58.5484 1.22906C 43.8736 2.34376 29.1441 4.02313 18.0979 6.53838C 12.5608 7.8009 7.85579 9.305 4.56859 11.048C 1.31772 12.7763 -1 14.9776 -1 17.8095L 1 17.8095ZM 451.943 13.7049C 451.848 12.4489 451.066 11.4117 449.999 10.5695C 448.961 9.7563 447.45 8.97751 445.665 8.29699C 442.133 6.95609 437.14 5.8015 431.263 4.82697C 419.53 2.88331 403.983 1.58618 388.509 0.724058C 373.035 -0.137878 357.588 -0.569108 346.021 -0.784517C 340.236 -0.892236 335.415 -0.946128 332.044 -0.973056C 330.357 -0.986523 329.032 -0.993263 328.129 -0.996629C 327.677 -0.998313 327.33 -0.999157 327.097 -0.999578C 326.98 -0.999789 326.891 -0.999894 326.832 -0.999947C 326.802 -0.999973 326.779 -0.999987 326.764 -0.999993C 326.757 -0.999997 326.751 -0.999998 326.747 -0.999999C 326.746 -1 326.744 -1 326.743 -1C 326.742 -1 326.742 -1 326.742 2.28375e-15C 326.742 1 326.742 1 326.743 1C 326.744 1 326.745 1 326.747 1C 326.751 1 326.756 1 326.764 1.00001C 326.778 1.00001 326.801 1.00003 326.83 1.00005C 326.889 1.0001 326.977 1.00021 327.093 1.00042C 327.326 1.00084 327.671 1.00168 328.121 1.00336C 329.023 1.00672 330.344 1.01343 332.028 1.02688C 335.396 1.05378 340.206 1.10754 345.983 1.21514C 357.542 1.43035 372.951 1.86038 388.398 2.72096C 403.844 3.58136 419.283 4.86802 430.936 6.80006C 436.752 7.76337 441.552 8.8696 444.954 10.1663C 446.637 10.8046 447.879 11.4388 448.76 12.1396C 449.611 12.8113 449.913 13.389 449.948 13.8555L 451.943 13.7049ZM 118.645 55.9997C 159.143 57.0017 183.022 52.4944 197.698 47.7006C 205.034 45.3014 210.072 42.8311 213.67 40.9833C 215.472 40.0579 216.897 39.2972 218.087 38.7694C 219.282 38.239 220.118 38 220.784 38L 220.784 36C 219.682 36 218.527 36.386 217.276 36.9415C 216.02 37.4996 214.544 38.2859 212.756 39.2042C 209.175 41.0439 204.281 43.4486 197.077 45.7994C 182.67 50.5056 159.027 54.9983 118.695 54.0003L 118.645 55.9997ZM 220.784 38C 221.48 38 222.398 38.2263 223.714 38.7117C 225.021 39.1934 226.609 39.8872 228.601 40.733C 232.582 42.4228 238.121 44.6944 245.974 46.9608C 261.624 51.4737 286.632 55.996 327.331 56L 327.331 54C 286.811 54.004 262.08 49.5263 246.528 45.0392C 238.779 42.8056 233.352 40.5772 229.383 38.892C 227.4 38.0503 225.768 37.3379 224.406 36.8352C 223.053 36.3362 221.854 36 220.784 36L 220.784 38Z"/>
<path id="path7_stroke" d="M 56.8498 113.846L 1.34979 -0.654266L -1.34979 0.654266L 54.1502 115.154L 56.8498 113.846Z"/>
<path id="path8_stroke" d="M 7.38264 223L 7.01655 222.659L 6.85522 222.833L 6.88723 223.068L 7.38264 223ZM 7.74874 223.341C 14.4253 216.163 24.6524 203.779 33.602 189.997C 42.5432 176.227 50.264 160.98 51.8788 148.062L 50.8865 147.938C 49.3013 160.62 41.6887 175.707 32.7633 189.453C 23.8462 203.188 13.6733 215.504 7.01655 222.659L 7.74874 223.341ZM 51.8788 148.062C 55.0831 122.427 56.8828 38.6586 57.3826 0.00646498L 56.3827 -0.00646498C 55.8825 38.6747 54.0822 122.373 50.8865 147.938L 51.8788 148.062ZM 6.88723 223.068C 7.1198 224.773 6.5531 227.203 5.50238 228.8C 4.97787 229.598 4.37895 230.118 3.77202 230.291C 3.20315 230.453 2.51864 230.341 1.71482 229.626L 1.05046 230.374C 2.04665 231.259 3.07464 231.53 4.04639 231.253C 4.98008 230.986 5.74992 230.244 6.3379 229.35C 7.51218 227.564 8.14549 224.894 7.87806 222.932L 6.88723 223.068ZM 1.71482 229.626C 0.855971 228.863 0.55981 228.274 0.508641 227.855C 0.460521 227.461 0.617636 227.111 0.949608 226.778C 1.65088 226.073 2.92869 225.65 3.52 225.481L 3.24528 224.519C 2.66993 224.684 1.14774 225.161 0.240677 226.072C -0.231518 226.547 -0.580653 227.185 -0.483981 227.976C -0.390359 228.743 0.109314 229.537 1.05046 230.374L 1.71482 229.626Z"/>
<path id="path9_fill" d="M 26 13C 26 20.1797 20.1797 26 13 26C 5.8203 26 0 20.1797 0 13C 0 5.8203 5.8203 0 13 0C 20.1797 0 26 5.8203 26 13Z"/>
<path id="path10_stroke_2x" d="M 24 13C 24 19.0751 19.0751 24 13 24L 13 28C 21.2843 28 28 21.2843 28 13L 24 13ZM 13 24C 6.92487 24 2 19.0751 2 13L -2 13C -2 21.2843 4.71573 28 13 28L 13 24ZM 2 13C 2 6.92487 6.92487 2 13 2L 13 -2C 4.71573 -2 -2 4.71573 -2 13L 2 13ZM 13 2C 19.0751 2 24 6.92487 24 13L 28 13C 28 4.71573 21.2843 -2 13 -2L 13 2Z"/>
<path id="path11_fill" d="M 12 6C 12 9.31371 9.31371 12 6 12C 2.68629 12 0 9.31371 0 6C 0 2.68629 2.68629 0 6 0C 9.31371 0 12 2.68629 12 6Z"/>
<path id="path12_stroke_2x" d="M 10 6C 10 8.20914 8.20914 10 6 10L 6 14C 10.4183 14 14 10.4183 14 6L 10 6ZM 6 10C 3.79086 10 2 8.20914 2 6L -2 6C -2 10.4183 1.58172 14 6 14L 6 10ZM 2 6C 2 3.79086 3.79086 2 6 2L 6 -2C 1.58172 -2 -2 1.58172 -2 6L 2 6ZM 6 2C 8.20914 2 10 3.79086 10 6L 14 6C 14 1.58172 10.4183 -2 6 -2L 6 2Z"/>
<path id="path13_stroke" d="M 18.6961 7.51942L 8.69612 5.51942L 8.30388 7.48058L 18.3039 9.48058L 18.6961 7.51942ZM -0.9916 0.129339L 0.5084 11.6293L 2.4916 11.3707L 0.9916 -0.129339L -0.9916 0.129339ZM 0.593199 22.8051L 10.0932 15.8051L 8.9068 14.1949L -0.593199 21.1949L 0.593199 22.8051Z"/>
<path id="path14_stroke" d="M 17.5627 36L 18.0598 36.0537L 18.1651 35.0799L 17.3146 35.5659L 17.5627 36ZM 38.0627 80.5L 38.5624 80.4828L 38.5266 79.4439L 37.7373 80.1204L 38.0627 80.5ZM 45.0627 106L 45.4932 105.746L 45.0627 106ZM -0.436738 -0.0237826C -0.60393 3.49361 -0.476882 9.22065 0.44415 14.9051C 1.36361 20.5723 3.08892 26.3188 6.18778 29.8308L 6.93762 29.1692C 4.03647 25.8812 2.34512 20.3777 1.43124 14.7449C 0.518941 9.12935 0.395989 3.50639 0.56213 0.0237826L -0.436738 -0.0237826ZM 6.18778 29.8308C 9.21621 33.263 11.728 35.107 13.6652 36.0037C 15.5764 36.8885 17.0187 36.8867 17.8108 36.4341L 17.3146 35.5659C 16.94 35.7799 15.8824 35.9282 14.0852 35.0963C 12.3141 34.2764 9.90918 32.537 6.93762 29.1692L 6.18778 29.8308ZM 17.0656 35.9463C 16.3924 42.1736 16.9564 57.5396 24.6445 69.274L 25.4809 68.726C 17.969 57.2604 17.3997 42.1598 18.0598 36.0537L 17.0656 35.9463ZM 24.6445 69.274C 28.4589 75.0961 31.4571 78.2791 33.6832 79.8809C 34.7963 80.6818 35.7409 81.1052 36.5176 81.248C 37.2944 81.3909 37.9474 81.2574 38.3881 80.8796L 37.7373 80.1204C 37.5947 80.2426 37.281 80.3716 36.6984 80.2645C 36.1158 80.1573 35.3082 79.8182 34.2672 79.0691C 32.185 77.5709 29.2665 74.5039 25.4809 68.726L 24.6445 69.274ZM 37.563 80.5172C 37.731 85.3906 39.372 97.3524 44.6322 106.254L 45.4932 105.746C 40.3534 97.0476 38.7277 85.2761 38.5624 80.4828L 37.563 80.5172ZM 44.6322 106.254C 47.2435 110.673 48.9027 112.897 49.9338 113.865L 50.6181 113.135C 49.7023 112.276 48.1056 110.167 45.4932 105.746L 44.6322 106.254Z"/>
<path id="path15_fill" d="M 0 0L 27 0L 27 27L 0 27L 0 0Z"/>
<path id="path16_stroke_2x" d="M 0 0L 0 -2L -2 -2L -2 0L 0 0ZM 27 0L 29 0L 29 -2L 27 -2L 27 0ZM 27 27L 27 29L 29 29L 29 27L 27 27ZM 0 27L -2 27L -2 29L 0 29L 0 27ZM 0 2L 27 2L 27 -2L 0 -2L 0 2ZM 25 0L 25 27L 29 27L 29 0L 25 0ZM 27 25L 0 25L 0 29L 27 29L 27 25ZM 2 27L 2 0L -2 0L -2 27L 2 27Z"/>
<path id="path17_fill" d="M 0 0L 15 0L 15 15L 0 15L 0 0Z"/>
<path id="path18_stroke_2x" d="M 0 0L 0 -2L -2 -2L -2 0L 0 0ZM 15 0L 17 0L 17 -2L 15 -2L 15 0ZM 15 15L 15 17L 17 17L 17 15L 15 15ZM 0 15L -2 15L -2 17L 0 17L 0 15ZM 0 2L 15 2L 15 -2L 0 -2L 0 2ZM 13 0L 13 15L 17 15L 17 0L 13 0ZM 15 13L 0 13L 0 17L 15 17L 15 13ZM 2 15L 2 0L -2 0L -2 15L 2 15Z"/>
<path id="path19_fill" d="M 0 0L 6 0L 6 6L 0 6L 0 0Z"/>
<path id="path20_stroke_2x" d="M 0 0L 0 -2L -2 -2L -2 0L 0 0ZM 6 0L 8 0L 8 -2L 6 -2L 6 0ZM 6 6L 6 8L 8 8L 8 6L 6 6ZM 0 6L -2 6L -2 8L 0 8L 0 6ZM 0 2L 6 2L 6 -2L 0 -2L 0 2ZM 4 0L 4 6L 8 6L 8 0L 4 0ZM 6 4L 0 4L 0 8L 6 8L 6 4ZM 2 6L 2 0L -2 0L -2 6L 2 6Z"/>
<path id="path21_stroke" d="M 0 30.5167L -0.970143 30.2741C -0.989973 30.3534 -1 30.4349 -1 30.5167L 0 30.5167ZM 5 10.5167L 5 9.51666C 4.54113 9.51666 4.14115 9.82896 4.02986 10.2741L 5 10.5167ZM 0 43.5167L -1 43.5167C -1 43.9248 -0.75192 44.292 -0.373238 44.4444C 0.00544475 44.5967 0.438711 44.5036 0.721387 44.2092L 0 43.5167ZM 5 38.3083L 4.8563 37.3187C 4.63604 37.3507 4.43275 37.4552 4.27861 37.6158L 5 38.3083ZM 31 34.5331L 32 34.5331C 32 34.2428 31.8739 33.9668 31.6543 33.7769C 31.4348 33.5869 31.1436 33.5017 30.8563 33.5435L 31 34.5331ZM 31 45.0333L 30 45.0333C 30 45.374 30.1735 45.6913 30.4603 45.8752C 30.7472 46.0591 31.1079 46.0842 31.4175 45.942L 31 45.0333ZM 80 22.5167L 80.4175 23.4253C 80.7725 23.2622 81 22.9073 81 22.5167C 81 22.126 80.7725 21.7711 80.4175 21.608L 80 22.5167ZM 31 7.10543e-15L 31.4175 -0.908655C 31.1079 -1.05093 30.7472 -1.02576 30.4603 -0.841887C 30.1735 -0.658011 30 -0.34073 30 7.10543e-15L 31 7.10543e-15ZM 31 10.5167L 31 11.5167C 31.5523 11.5167 32 11.0689 32 10.5167L 31 10.5167ZM 0.970143 30.7592L 5.97014 10.7592L 4.02986 10.2741L -0.970143 30.2741L 0.970143 30.7592ZM 1 43.5167L 1 30.5167L -1 30.5167L -1 43.5167L 1 43.5167ZM 4.27861 37.6158L -0.721387 42.8241L 0.721387 44.2092L 5.72139 39.0009L 4.27861 37.6158ZM 30.8563 33.5435L 4.8563 37.3187L 5.1437 39.2979L 31.1437 35.5227L 30.8563 33.5435ZM 32 45.0333L 32 34.5331L 30 34.5331L 30 45.0333L 32 45.0333ZM 79.5825 21.608L 30.5825 44.1247L 31.4175 45.942L 80.4175 23.4253L 79.5825 21.608ZM 30.5825 0.908655L 79.5825 23.4253L 80.4175 21.608L 31.4175 -0.908655L 30.5825 0.908655ZM 32 10.5167L 32 7.10543e-15L 30 7.10543e-15L 30 10.5167L 32 10.5167ZM 5 11.5167L 31 11.5167L 31 9.51666L 5 9.51666L 5 11.5167Z"/>
<path id="path22_stroke" d="M -0.116841 -0.824053C -0.665343 -0.759523 -1.05768 -0.262563 -0.993151 0.285939C -0.928621 0.834441 -0.431661 1.22678 0.116841 1.16225L -0.116841 -0.824053ZM 13 2.1691L 12.4453 3.00115L 12.4453 3.00115L 13 2.1691ZM 29 7.1691L 29.9889 7.02076C 29.9406 6.69869 29.7385 6.42032 29.4472 6.27467L 29 7.1691ZM 19 6.1691C 18.4477 6.1691 18 6.61681 18 7.1691C 18 7.72138 18.4477 8.1691 19 8.1691L 19 6.1691ZM 24.5 8.1691C 25.0523 8.1691 25.5 7.72138 25.5 7.1691C 25.5 6.61681 25.0523 6.1691 24.5 6.1691L 24.5 8.1691ZM 0.116841 1.16225C 1.4964 0.999247 3.73869 0.90204 6.11417 1.13925C 8.50695 1.37568 10.851 1.9383 12.4453 3.00115L 13.5547 1.33705C 11.549 -9.99204e-05 8.80971 -0.604148 6.31083 -0.851056C 3.79464 -1.09718 1.33693 -0.994385 -0.116841 -0.824053L 0.116841 1.16225ZM 21.5 17.1691C 25.5423 17.1691 27.92 15.6124 29.1279 13.3979C 30.2806 11.2847 30.2522 8.77558 29.9889 7.02076L 28.0111 7.31744C 28.2478 8.89594 28.2194 10.8868 27.3721 12.4402C 26.58 13.8924 24.9577 15.1691 21.5 15.1691L 21.5 17.1691ZM 29.4472 6.27467C 28.0668 5.58449 24.5328 4.1691 21.5 4.1691L 21.5 6.1691C 24.0672 6.1691 27.2665 7.42037 28.5528 8.06353L 29.4472 6.27467ZM 12.4453 3.00115C 13.6047 3.77411 13.9854 4.99368 14.2375 6.72971L 16.2167 6.44228C 15.9562 4.64808 15.4875 2.62561 13.5547 1.33705L 12.4453 3.00115ZM 14.2375 6.72971C 14.4557 8.23228 14.5408 10.8873 15.343 12.9975C 15.757 14.0733 16.4626 15.1841 17.4296 15.9414C 18.466 16.731 19.8072 17.1691 21.5 17.1691L 21.5 15.1691C 20.1669 15.1691 19.2722 14.8309 18.6416 14.3505C 17.9417 13.8379 17.549 13.1852 17.2125 12.2868C 16.5137 10.4484 16.4883 8.31189 16.2167 6.44228L 14.2375 6.72971ZM 21.5 4.1691C 18.5088 4.1691 15.8047 5.16789 14.7721 5.69551L 15.6822 7.47647C 16.4982 7.0595 18.8912 6.1691 21.5 6.1691L 21.5 4.1691ZM 19 8.1691L 24.5 8.1691L 24.5 6.1691L 19 6.1691L 19 8.1691Z"/>
<path id="path23_fill" d="M 0 0L 25 0L 25 14L 0 14L 0 0Z"/>
<path id="path24_stroke_2x" d="M 0 0L 0 -1L -1 -1L -1 0L 0 0ZM 25 0L 26 0L 26 -1L 25 -1L 25 0ZM 25 14L 25 15L 26 15L 26 14L 25 14ZM 0 14L -1 14L -1 15L 0 15L 0 14ZM 0 1L 25 1L 25 -1L 0 -1L 0 1ZM 24 0L 24 14L 26 14L 26 0L 24 0ZM 25 13L 0 13L 0 15L 25 15L 25 13ZM 1 14L 1 0L -1 0L -1 14L 1 14Z"/>
<path id="path25_stroke" d="M 0 0L 0 -1C -0.552285 -1 -1 -0.552285 -1 2.22045e-16L 0 0ZM 4 0L 5 0C 5 -0.552285 4.55228 -1 4 -1L 4 0ZM 4 6L 4 7C 4.55228 7 5 6.55228 5 6L 4 6ZM 0 6L -1 6C -1 6.55228 -0.552285 7 2.22045e-16 7L 0 6ZM 0 1L 4 1L 4 -1L 0 -1L 0 1ZM 3 0L 3 6L 5 6L 5 0L 3 0ZM 4 5L 0 5L 0 7L 4 7L 4 5ZM 1 6L 1 0L -1 0L -1 6L 1 6Z"/>
<path id="path26_stroke" d="M 0 0L 0 -1L -1 -1L -1 0L 0 0ZM 0 8L -1 8L -1 9L 0 9L 0 8ZM -1 0L -1 8L 1 8L 1 0L -1 0ZM 0 9C 1.22353 8.99838 3.16606 8.7684 4.75548 8.12479C 6.35255 7.46771 8 6.21097 8 4L 6 4C 6 4.98903 5.31411 5.73229 3.99452 6.27521C 2.66727 6.8316 1.1098 7.00162 0 7L 0 9ZM 8 4C 8 1.78903 6.35255 0.532292 4.75548 -0.124788C 3.16606 -0.768402 1.22353 -0.998382 0 -1L 0 1C 1.1098 0.998382 2.66727 1.1684 3.99452 1.72479C 5.31411 2.26771 6 3.01097 6 4L 8 4Z"/>
<path id="path27_stroke" d="M -0.5 20C -0.5 20.2761 -0.276142 20.5 0 20.5C 0.276142 20.5 0.5 20.2761 0.5 20L -0.5 20ZM 0 0L 0.4781 -0.146357C 0.405634 -0.38308 0.170847 -0.531131 -0.0739933 -0.494495C -0.318833 -0.457858 -0.5 -0.247566 -0.5 -3.73725e-16L 0 0ZM 7.5 24.5L 7.0219 24.6464C 7.09437 24.8831 7.32915 25.0311 7.57399 24.9945C 7.81883 24.9579 8 24.7476 8 24.5L 7.5 24.5ZM 7.5 2.5L 7.92312 2.23359C 7.80443 2.0451 7.57537 1.95784 7.36136 2.01961C 7.14735 2.08137 7 2.27725 7 2.5L 7.5 2.5ZM 16 16L 15.5769 16.2664C 15.6956 16.4549 15.9246 16.5422 16.1386 16.4804C 16.3527 16.4186 16.5 16.2227 16.5 16L 16 16ZM 16 2.5L 16.3886 2.1854C 16.2553 2.02077 16.0328 1.95798 15.8331 2.02867C 15.6335 2.09936 15.5 2.28819 15.5 2.5L 16 2.5ZM 24.5 13L 24.1114 13.3146C 24.2447 13.4792 24.4672 13.542 24.6669 13.4713C 24.8665 13.4006 25 13.2118 25 13L 24.5 13ZM 24.5 0L 24.8956 -0.305724C 24.7649 -0.474973 24.5409 -0.542289 24.3385 -0.473192C 24.1361 -0.404095 24 -0.213892 24 0L 24.5 0ZM 33 11L 32.6044 11.3057C 32.7234 11.4597 32.921 11.5307 33.1108 11.4876C 33.3006 11.4445 33.4481 11.2951 33.4889 11.1048L 33 11ZM 34.9889 4.10476C 35.0468 3.83475 34.8748 3.56896 34.6048 3.5111C 34.3348 3.45324 34.069 3.62522 34.0111 3.89524L 34.9889 4.10476ZM 0.5 20L 0.5 0L -0.5 0L -0.5 20L 0.5 20ZM -0.4781 0.146357L 7.0219 24.6464L 7.9781 24.3536L 0.4781 -0.146357L -0.4781 0.146357ZM 8 24.5L 8 2.5L 7 2.5L 7 24.5L 8 24.5ZM 7.07688 2.76641L 15.5769 16.2664L 16.4231 15.7336L 7.92312 2.23359L 7.07688 2.76641ZM 16.5 16L 16.5 2.5L 15.5 2.5L 15.5 16L 16.5 16ZM 15.6114 2.8146L 24.1114 13.3146L 24.8886 12.6854L 16.3886 2.1854L 15.6114 2.8146ZM 25 13L 25 0L 24 0L 24 13L 25 13ZM 24.1044 0.305724L 32.6044 11.3057L 33.3956 10.6943L 24.8956 -0.305724L 24.1044 0.305724ZM 33.4889 11.1048L 34.9889 4.10476L 34.0111 3.89524L 32.5111 10.8952L 33.4889 11.1048Z"/>
<path id="path28_stroke" d="M 56 7.5L 56.9062 7.92289C 57.0713 7.56917 57.0154 7.15173 56.7632 6.85383C 56.511 6.55592 56.1085 6.43201 55.7324 6.53648L 56 7.5ZM 52.5 15L 51.5938 14.5771C 51.4482 14.8891 51.4734 15.2542 51.6604 15.5433L 52.5 15ZM 58 23.5L 57.4913 24.3609C 57.8907 24.5969 58.4 24.5273 58.7213 24.1926C 59.0426 23.858 59.0916 23.3463 58.8396 22.9567L 58 23.5ZM 47 17L 47.5087 16.1391C 47.1664 15.9368 46.7368 15.9565 46.4145 16.1893L 47 17ZM 0 19.5L -1 19.5C -1 19.9631 -0.682089 20.3656 -0.231621 20.4728L 0 19.5ZM 4.50001 9.00003L 4.84175 9.93982L 4.50001 9.00003ZM 12 5L 12.1644 5.98639L 12 5ZM 39 0L 40 0C 40 -0.281708 39.8812 -0.550349 39.6728 -0.739868C 39.4643 -0.929388 39.1856 -1.0222 38.9052 -0.995495L 39 0ZM 39 5L 38 5C 38 5.34479 38.1776 5.66526 38.47 5.848L 39 5ZM 47 10L 46.47 10.848C 46.7079 10.9967 46.9973 11.0386 47.2677 10.9635L 47 10ZM 55.0938 7.07711L 51.5938 14.5771L 53.4062 15.4229L 56.9062 7.92289L 55.0938 7.07711ZM 51.6604 15.5433L 57.1604 24.0433L 58.8396 22.9567L 53.3396 14.4567L 51.6604 15.5433ZM 58.5087 22.6391L 47.5087 16.1391L 46.4913 17.8609L 57.4913 24.3609L 58.5087 22.6391ZM 46.4145 16.1893C 43.5523 18.2564 35.1529 22.5 25 22.5L 25 24.5C 35.6471 24.5 44.4477 20.0769 47.5855 17.8107L 46.4145 16.1893ZM 25 22.5C 14.7385 22.5096 3.75304 19.3659 0.231621 18.5272L -0.231621 20.4728C 3.24696 21.3008 14.4615 24.4904 25 24.5L 25 22.5ZM 1 19.5C 0.999984 18.5056 1.01592 16.4095 1.56679 14.3556C 2.11534 12.2807 3.11273 10.5686 4.84175 9.93982L 4.15826 8.06024C 1.48729 9.0315 0.234667 11.5694 -0.366782 13.8444C -0.96592 16.1406 -0.999984 18.4944 -1 19.5L 1 19.5ZM 4.84175 9.93982C 6.23223 9.43419 7.08393 8.94592 7.53298 8.33358C 7.75525 8.00278 7.88257 7.59229 7.91119 7.35866C 7.93351 7.11116 7.92177 6.96803 7.93139 6.92296C 7.93166 6.878 7.85722 7.11055 7.85989 7.07249C 7.82153 7.12543 7.9276 7.00348 8.18858 6.89996C 8.76697 6.6595 9.91459 6.36137 12.1644 5.98639L 11.8356 4.01361C 9.58542 4.38864 8.23304 4.71552 7.42081 5.0532C 7.01084 5.22364 6.65058 5.43138 6.38427 5.72247C 6.12965 6.03592 5.9746 6.46581 5.94362 6.7021C 5.87221 7.34479 5.96735 7.08651 5.92016 7.15085C 5.85359 7.24164 5.51778 7.56587 4.15826 8.06024L 4.84175 9.93982ZM 12.1644 5.98639C 12.3014 5.96356 12.4384 5.91291 12.4956 5.89214C 12.5775 5.86234 12.6806 5.82266 12.7992 5.77722C 13.0371 5.68604 13.3595 5.56319 13.8021 5.41009C 14.7017 5.09854 16.0473 4.67733 18.0478 4.19059C 22.0837 3.20712 28.6388 1.99034 39.0948 0.995495L 38.9052 -0.995495C 28.3613 0.00968788 21.6644 1.25156 17.5744 2.2474C 15.5119 2.75032 14.076 3.19893 13.1478 3.52014C 12.6766 3.68341 12.3235 3.81767 12.0835 3.90966C 11.963 3.95582 11.8765 3.98924 11.813 4.01224C 11.7248 4.04426 11.7606 4.0261 11.8356 4.01361L 12.1644 5.98639ZM 38 0L 38 5L 40 5L 40 0L 38 0ZM 38.47 5.848L 46.47 10.848L 47.53 9.152L 39.53 4.152L 38.47 5.848ZM 47.2677 10.9635L 56.2677 8.46352L 55.7324 6.53648L 46.7324 9.03648L 47.2677 10.9635Z"/>
<path id="path29_stroke" d="M 56 5.5L 56.9062 5.92289C 57.0713 5.56917 57.0154 5.15173 56.7632 4.85383C 56.511 4.55592 56.1085 4.43201 55.7324 4.53648L 56 5.5ZM 52.5 13L 51.5938 12.5771C 51.4482 12.8891 51.4734 13.2542 51.6604 13.5433L 52.5 13ZM 58 21.5L 57.4913 22.3609C 57.8907 22.5969 58.4 22.5273 58.7213 22.1926C 59.0426 21.858 59.0916 21.3463 58.8396 20.9567L 58 21.5ZM 47 15L 47.5087 14.1391C 47.1664 13.9368 46.7368 13.9565 46.4145 14.1893L 47 15ZM 0 17.5L -1 17.5C -1 17.9631 -0.682089 18.3656 -0.231621 18.4728L 0 17.5ZM 4.50001 7.00003L 4.84175 7.93982L 4.50001 7.00003ZM 23.5 5.5L 23.4921 4.50003L 23.5 5.5ZM 39 0L 40 0C 40 -0.281708 39.8812 -0.550349 39.6728 -0.739868C 39.4643 -0.929388 39.1856 -1.0222 38.9052 -0.995495L 39 0ZM 39 3L 38 3C 38 3.34479 38.1776 3.66526 38.47 3.848L 39 3ZM 47 8L 46.47 8.848C 46.7079 8.99669 46.9973 9.03861 47.2677 8.96352L 47 8ZM 55.0938 5.07711L 51.5938 12.5771L 53.4062 13.4229L 56.9062 5.92289L 55.0938 5.07711ZM 51.6604 13.5433L 57.1604 22.0433L 58.8396 20.9567L 53.3396 12.4567L 51.6604 13.5433ZM 58.5087 20.6391L 47.5087 14.1391L 46.4913 15.8609L 57.4913 22.3609L 58.5087 20.6391ZM 46.4145 14.1893C 43.5523 16.2564 35.1529 20.5 25 20.5L 25 22.5C 35.6471 22.5 44.4477 18.0769 47.5855 15.8107L 46.4145 14.1893ZM 25 20.5C 14.7385 20.5096 3.75304 17.3659 0.231621 16.5272L -0.231621 18.4728C 3.24696 19.3008 14.4615 22.4904 25 22.5L 25 20.5ZM 1 17.5C 0.999984 16.5056 1.01592 14.4095 1.56679 12.3556C 2.11534 10.2807 3.11273 8.56856 4.84175 7.93982L 4.15826 6.06024C 1.48729 7.0315 0.234667 9.5694 -0.366782 11.8444C -0.96592 14.1406 -0.999984 16.4944 -1 17.5L 1 17.5ZM 4.84175 7.93982C 10.1092 5.99405 14.3151 6.57003 23.5079 6.49997L 23.4921 4.50003C 14.4371 4.57376 9.89081 4.00601 4.15826 6.06024L 4.84175 7.93982ZM 23.5079 6.49997C 24.8507 6.48891 25.8302 6.41998 26.4888 6.30731C 27.1222 6.19768 27.7637 6.00591 28.1632 5.52941C 28.6412 4.95921 28.5211 4.31385 28.4538 4.02446C 28.382 3.72411 28.3057 3.5441 28.3095 3.41344C 28.3074 3.37547 28.2997 3.35239 28.3741 3.27068C 28.4921 3.14116 28.8003 2.90578 29.5441 2.62853C 31.0296 2.07481 33.8544 1.49459 39.0948 0.995495L 38.9052 -0.995495C 33.6456 -0.494577 30.595 0.102371 28.8455 0.754486C 27.9718 1.08015 27.3227 1.45485 26.8954 1.92402C 26.4246 2.44099 26.2837 3.00519 26.3126 3.52456C 26.3475 3.95122 26.4663 4.29858 26.5057 4.47708C 26.5498 4.66655 26.457 4.45151 26.6305 4.24456C 26.7254 4.13131 26.7306 4.23571 26.1477 4.33661C 25.59 4.43446 24.7734 4.49041 23.4921 4.50003L 23.5079 6.49997ZM 38 0L 38 3L 40 3L 40 0L 38 0ZM 38.47 3.848L 46.47 8.848L 47.53 7.152L 39.53 2.152L 38.47 3.848ZM 47.2677 8.96352L 56.2677 6.46352L 55.7324 4.53648L 46.7324 7.03648L 47.2677 8.96352Z"/>
<path id="path30_stroke" d="M 25.6165 3.16129C 25.8734 4.27103 26.4583 5.93445 27.3307 7.19685C 28.2069 8.45659 29.5235 9.52036 31.2411 9.02962L 30.9663 8.06809C 29.8839 8.37735 28.9505 7.77445 28.1517 6.62587C 27.3491 5.47993 26.834 3.99335 26.5909 2.93643L 25.6165 3.16129ZM 31.2411 9.02962C 31.6529 8.91196 31.9958 8.72559 32.2474 8.45659C 32.4762 8.20019 32.6335 7.82877 32.6728 7.50599C 32.7428 6.84275 32.4651 6.11261 32.0901 5.44223C 31.3328 4.09612 29.956 2.61072 28.9416 1.68028L 28.2658 2.41743C 29.2514 3.32033 30.5246 4.68492 31.2174 5.93049C 31.5673 6.55594 31.7146 7.05704 31.6783 7.40109C 31.6645 7.58196 31.6359 7.6582 31.517 7.77354C 31.4209 7.87629 31.2545 7.98575 30.9663 8.06809L 31.2411 9.02962ZM 1.8801 4.10164C 1.18182 4.45078 0.21944 5.10933 -0.237189 5.96303C -0.475264 6.40813 -0.589388 6.93461 -0.417773 7.49018C -0.249372 8.03534 0.169291 8.52684 0.826354 8.96488L 1.38105 8.13283C 0.838116 7.77087 0.615112 7.4457 0.537681 7.19504C 0.463462 6.95477 0.499338 6.70625 0.644596 6.43468C 0.954634 5.85505 1.69226 5.3136 2.32731 4.99607L 1.8801 4.10164ZM 0.826354 8.96488C 1.522 9.42864 2.2065 9.55577 2.84304 9.35748C 3.45428 9.16707 3.92889 8.70426 4.28967 8.18365C 5.00906 7.14553 5.42517 5.66143 5.5969 4.63106L 4.6105 4.46666C 4.4489 5.43628 4.065 6.75218 3.46774 7.61406C 3.17018 8.04345 2.8573 8.30564 2.54562 8.40273C 2.25925 8.49194 1.88541 8.46907 1.38105 8.13283L 0.826354 8.96488ZM 32.649 0.546803C 33.551 0.464799 34.7425 0.473612 35.4887 0.712542C 35.8774 0.836997 35.9957 0.975648 36.0212 1.04409C 36.0368 1.08575 36.0784 1.2801 35.7133 1.73651L 36.4941 2.3612C 36.929 1.81762 37.1623 1.24113 36.958 0.694244C 36.7638 0.174149 36.2508 -0.0934505 35.7937 -0.239828C 34.8482 -0.542566 33.4897 -0.533752 32.5584 -0.44909L 32.649 0.546803ZM 35.7133 1.73651C 35.3793 2.15395 35.0297 2.34363 34.692 2.40973C 34.3144 2.49163 33.9713 2.43067 33.5575 2.26941C 32.7126 1.95445 31.9598 1.28118 31.4833 0.723463L 30.7241 1.37425C 31.2476 1.9832 32.1948 2.80993 33.1999 3.2033C 33.7111 3.39621 34.3305 3.4915 34.8841 3.39111C 35.4777 3.27491 36.0281 2.94376 36.4941 2.3612L 35.7133 1.73651Z"/>
<path id="path31_stroke" d="M 9.35633 0.478913C 10.1633 0.720217 11.2466 1.17599 12.003 1.82001C 12.374 2.13232 12.6175 2.45046 12.7189 2.75812C 12.8125 3.04206 12.8007 3.36033 12.5713 3.74275L 13.4287 4.25725C 13.7993 3.63967 13.8583 3.02044 13.6686 2.445C 13.4867 1.89329 13.0927 1.43018 12.647 1.05499C 11.7701 0.324007 10.5033 -0.220217 9.64367 -0.478913L 9.35633 0.478913ZM 12.5713 3.74275C 12.3842 4.05454 12.1302 4.16564 11.7537 4.13451C 11.3342 4.09982 10.7954 3.88186 10.1849 3.51037C 8.96152 2.76907 7.69014 1.56639 6.86997 0.663664L 6.13003 1.33634C 6.97653 2.26694 8.35515 3.56426 9.66507 4.36463C 10.3213 4.76397 11.02 5.07726 11.6713 5.13111C 12.3657 5.18853 13.0158 4.94546 13.4287 4.25725L 12.5713 3.74275ZM 2.87873 3.48507C 3.51733 3.64472 4.31587 3.96836 4.75503 4.38693C 4.9671 4.58906 5.04637 4.76563 5.05016 4.91574C 5.05385 5.06202 4.98879 5.3041 4.64645 5.64645L 5.35355 6.35355C 5.81121 5.8959 6.06282 5.40465 6.04984 4.89051C 6.03696 4.38021 5.76624 3.96928 5.44497 3.66307C 4.81746 3.06497 3.816 2.68861 3.12127 2.51493L 2.87873 3.48507ZM 4.64645 5.64645C 4.34355 5.94935 4.02488 6.05601 3.69332 6.05008C 3.3099 6.05005 2.94861 5.91342 2.52475 5.66684C 1.6599 5.17429 0.882367 4.34449 0.4 3.7L -0.4 4.3C 0.117633 4.98884 1.0401 5.95905 2.02525 6.53316C 2.52639 6.81991 3.1276 7.03329 3.67543 7.04992C 4.27512 7.06065 4.85645 6.85065 5.35355 6.35355L 4.64645 5.64645Z"/>
<path id="path32_stroke" d="M -0.426072 30.1971L 31.6923 82.4982L 32.5444 81.9749L 0.426072 29.6738L -0.426072 30.1971ZM 67.5577 9.04729L 85.5222 96.1011L 86.5015 95.8989L 68.537 8.84519L 67.5577 9.04729ZM 131.25 -0.100728L 117.096 68.7165L 118.076 68.9179L 132.229 0.100728L 131.25 -0.100728ZM 183.542 39.0262L 161.222 90.295L 162.139 90.6942L 184.458 39.4254L 183.542 39.0262Z"/>
<path id="path33_fill" d="M 26 4.5C 26 6.98528 20.1797 9 13 9C 5.8203 9 0 6.98528 0 4.5C 0 2.01472 5.8203 0 13 0C 20.1797 0 26 2.01472 26 4.5Z"/>
<path id="path34_stroke_2x" d="M 24 4.5C 24 4.27816 24.134 4.35825 23.7117 4.70385C 23.2271 5.11538 22.5858 5.43438 21.5382 5.79201C 19.3576 6.55532 16.4362 7.00591 13 7L 13 11C 16.7435 10.9941 20.3221 10.4373 22.8466 9.57195C 24.1515 9.11524 25.4141 8.46457 26.2451 7.79935C 27.1385 7.06821 28 5.96448 28 4.5L 24 4.5ZM 13 7C 9.56375 7.00591 6.64235 6.55532 4.46183 5.79201C 3.41417 5.43438 2.77293 5.11538 2.28828 4.70385C 1.866 4.35825 2 4.27816 2 4.5L -2 4.5C -2 5.96448 -1.13846 7.06821 -0.245073 7.79935C 0.585949 8.46457 1.84852 9.11524 3.15339 9.57195C 5.67795 10.4373 9.25655 10.9941 13 11L 13 7ZM 2 4.5C 2 4.72184 1.866 4.64175 2.28828 4.29615C 2.77293 3.88462 3.41417 3.56562 4.46183 3.20799C 6.64235 2.44468 9.56375 1.99409 13 2L 13 -2C 9.25655 -1.99409 5.67795 -1.43732 3.15339 -0.571953C 1.84852 -0.115242 0.585949 0.535427 -0.245073 1.20065C -1.13846 1.93179 -2 3.03552 -2 4.5L 2 4.5ZM 13 2C 16.4362 1.99409 19.3576 2.44468 21.5382 3.20799C 22.5858 3.56562 23.2271 3.88462 23.7117 4.29615C 24.134 4.64175 24 4.72184 24 4.5L 28 4.5C 28 3.03552 27.1385 1.93179 26.2451 1.20065C 25.4141 0.535427 24.1515 -0.115242 22.8466 -0.571953C 20.3221 -1.43732 16.7435 -1.99409 13 -2L 13 2Z"/>
<path id="path35_stroke" d="M 23 20.4082C 23 20.6615 22.8696 21.0165 22.3861 21.454C 21.8654 21.9334 21.1459 22.3345 20.1279 22.7211C 18.0493 23.5216 15.229 24.0036 12 24L 12 26C 15.3984 25.9964 18.5781 25.4505 20.8427 24.589C 21.9962 24.1447 23.0341 23.5564 23.7279 22.9371C 24.4588 22.2758 25 21.4228 25 20.4082L 23 20.4082ZM 12 24C 8.77103 24.0036 5.95068 23.5216 3.8721 22.7211C 2.85408 22.3345 2.13462 21.9334 1.6139 21.454C 1.13037 21.0165 1 20.6615 1 20.4082L -1 20.4082C -1 21.4228 -0.458793 22.2758 0.272134 22.9371C 0.965885 23.5564 2.00378 24.1447 3.15734 24.589C 5.4219 25.4505 8.60156 25.9964 12 26L 12 24ZM 25 20.4082L 25 0L 23 0L 23 20.4082L 25 20.4082ZM 1 20.4082L 1 0L -1 0L -1 20.4082L 1 20.4082Z"/>
<path id="path36_stroke" d="M 6 3.4361L 5.00345 3.51915L 6 3.4361ZM 0.743294 2.10507C 1.32464 1.45912 2.43325 0.930748 3.32701 1.00744C 3.73088 1.0421 4.07234 1.19565 4.34466 1.51412C 4.63103 1.84902 4.91472 2.45438 5.00345 3.51915L 6.99655 3.35306C 6.88528 2.01782 6.50647 0.964848 5.86472 0.214336C 5.20891 -0.55261 4.35662 -0.91156 3.49799 -0.985237C 1.86675 -1.12521 0.175358 -0.253588 -0.743294 0.767137L 0.743294 2.10507ZM 5.00345 3.51915C 5.28438 6.89027 4.99926 8.97483 4.23706 10.2051C 3.54889 11.3158 2.32588 11.9361 0 11.9361L 0 13.9361C 2.67412 13.9361 4.73396 13.2005 5.93721 11.2584C 7.06644 9.43576 7.28132 6.77033 6.99655 3.35306L 5.00345 3.51915Z"/>
<path id="path37_fill" d="M 29 0L 54.1147 43.5L 3.88526 43.5L 29 0Z"/>
<path id="path38_stroke_2x" d="M 29 0L 29.866 -0.5L 29 -2L 28.134 -0.5L 29 0ZM 54.1147 43.5L 54.1147 44.5L 55.8468 44.5L 54.9808 43L 54.1147 43.5ZM 3.88526 43.5L 3.01924 43L 2.15321 44.5L 3.88526 44.5L 3.88526 43.5ZM 28.134 0.5L 53.2487 44L 54.9808 43L 29.866 -0.5L 28.134 0.5ZM 54.1147 42.5L 3.88526 42.5L 3.88526 44.5L 54.1147 44.5L 54.1147 42.5ZM 4.75129 44L 29.866 0.5L 28.134 -0.5L 3.01924 43L 4.75129 44Z"/>
<path id="path39_fill" d="M 12 0L 24 21L 0 21L 12 0Z"/>
<path id="path40_stroke_2x" d="M 12 0L 12.8682 -0.496139L 12 -2.01556L 11.1318 -0.496139L 12 0ZM 24 21L 24 22L 25.7232 22L 24.8682 20.5039L 24 21ZM 0 21L -0.868243 20.5039L -1.72318 22L 0 22L 0 21ZM 11.1318 0.496139L 23.1318 21.4961L 24.8682 20.5039L 12.8682 -0.496139L 11.1318 0.496139ZM 24 20L 0 20L 0 22L 24 22L 24 20ZM 0.868243 21.4961L 12.8682 0.496139L 11.1318 -0.496139L -0.868243 20.5039L 0.868243 21.4961Z"/>
<path id="path41_fill" d="M 12 2.5C 12 3.88071 9.31371 5 6 5C 2.68629 5 0 3.88071 0 2.5C 0 1.11929 2.68629 0 6 0C 9.31371 0 12 1.11929 12 2.5Z"/>
<path id="path42_stroke_2x" d="M 11 2.5C 11.0074 2.55083 11.0188 2.4979 10.9805 2.56302C 10.9458 2.64365 10.9275 2.66532 10.8267 2.76072C 10.6086 2.98464 10.3305 3.15108 9.85803 3.34469C 8.87128 3.76182 7.56477 4.00425 6 4L 6 6C 7.74894 5.99575 9.44243 5.67853 10.6273 5.19084C 11.2405 4.93205 11.8411 4.55978 12.2303 4.1855C 12.6584 3.76372 13 3.19353 13 2.5L 11 2.5ZM 6 4C 4.43523 4.00425 3.12872 3.76182 2.14197 3.34469C 1.66948 3.15108 1.39135 2.98464 1.17329 2.76072C 1.07251 2.66532 1.0542 2.64365 1.01949 2.56302C 0.981237 2.4979 0.99256 2.55083 1 2.5L -1 2.5C -1 3.19353 -0.658435 3.76372 -0.230274 4.1855C 0.1589 4.55978 0.759452 4.93205 1.37274 5.19084C 2.55757 5.67853 4.25106 5.99575 6 6L 6 4ZM 1 2.5C 0.99256 2.44917 0.981237 2.5021 1.01949 2.43698C 1.0542 2.35635 1.07251 2.33468 1.17329 2.23928C 1.39135 2.01536 1.66948 1.84892 2.14197 1.65531C 3.12872 1.23818 4.43523 0.995751 6 1L 6 -1C 4.25106 -0.995751 2.55757 -0.678533 1.37274 -0.190844C 0.759452 0.0679544 0.1589 0.440222 -0.230274 0.814497C -0.658435 1.23628 -1 1.80647 -1 2.5L 1 2.5ZM 6 1C 7.56477 0.995751 8.87128 1.23818 9.85803 1.65531C 10.3305 1.84892 10.6086 2.01536 10.8267 2.23928C 10.9275 2.33468 10.9458 2.35635 10.9805 2.43698C 11.0188 2.5021 11.0074 2.44917 11 2.5L 13 2.5C 13 1.80647 12.6584 1.23628 12.2303 0.814497C 11.8411 0.440222 11.2405 0.0679544 10.6273 -0.190844C 9.44243 -0.678533 7.74894 -0.995751 6 -1L 6 1Z"/>
<path id="path43_stroke" d="M 8.86351 8.65669L 0.363507 -0.343312L -0.363507 0.343312L 8.13649 9.34331L 8.86351 8.65669Z"/>
<path id="path44_stroke" d="M 0.408012 12.289L 8.90801 0.289009L 8.09199 -0.289009L -0.408012 11.711L 0.408012 12.289Z"/>
<path id="path45_stroke" d="M 8.39772 10.197L 0.397716 -0.303022L -0.397716 0.303022L 7.60228 10.803L 8.39772 10.197Z"/>
<path id="path46_stroke" d="M 0.404971 14.7933L 10.905 0.293255L 10.095 -0.293255L -0.404971 14.2067L 0.404971 14.7933Z"/>
<path id="path47_stroke" d="M 4.98335 16.8721L 0.483353 -0.127946L -0.483353 0.127946L 4.01665 17.1279L 4.98335 16.8721Z"/>
<path id="path48_stroke" d="M 0.479399 13.642L 4.4794 0.142044L 3.5206 -0.142044L -0.479399 13.358L 0.479399 13.642Z"/>
<path id="path49_fill" d="M 4 1C 4 1.55228 3.10457 2 2 2C 0.895431 2 0 1.55228 0 1C 0 0.447715 0.895431 0 2 0C 3.10457 0 4 0.447715 4 1Z"/>
<path id="path50_stroke" d="M 31.0545 19.1125L 31.0545 19.6125L 31.1308 19.6125L 31.2036 19.5897L 31.0545 19.1125ZM 29.0545 12.1125L 28.5559 12.1494L 29.5114 12.3155L 29.0545 12.1125ZM 13.5545 6.61245L 13.304 7.04516L 14.396 7.67738L 14.0334 6.46878L 13.5545 6.61245ZM 7.0545 12.1125L 7.0545 12.6125L 7.23399 11.6458L 7.0545 12.1125ZM 2.5545 19.1125L 2.33089 19.5597L 2.43646 19.6125L 2.5545 19.6125L 2.5545 19.1125ZM 12.0545 19.6125L 31.0545 19.6125L 31.0545 18.6125L 12.0545 18.6125L 12.0545 19.6125ZM 31.2036 19.5897C 32.5728 19.1618 34.4732 18.277 35.6276 16.9828C 36.2124 16.3272 36.6343 15.5335 36.6544 14.6187C 36.6745 13.6992 36.2869 12.7463 35.4282 11.7803L 34.6808 12.4446C 35.4221 13.2786 35.6678 13.9965 35.6546 14.5968C 35.6413 15.2018 35.3633 15.7768 34.8814 16.3171C 33.9024 17.4146 32.2029 18.2297 30.9054 18.6352L 31.2036 19.5897ZM 35.4282 11.7803C 33.7675 9.91195 32.2551 9.38648 30.9795 9.71583C 29.7544 10.0322 28.9619 11.0897 28.5976 11.9094L 29.5114 12.3155C 29.8137 11.6352 30.4213 10.8928 31.2295 10.6841C 31.9873 10.4884 33.1415 10.713 34.6808 12.4446L 35.4282 11.7803ZM 29.5531 12.0755C 29.3833 9.79555 28.7081 6.39267 27.2687 3.73592C 26.5417 2.4043 25.5661 1.19397 24.3839 0.427571C 23.159 -0.358361 21.6879 -0.702516 19.9624 -0.378984L 20.1466 0.603889C 21.6211 0.327421 22.8333 0.620766 23.8438 1.26921C 24.8971 1.93719 25.709 2.95811 26.3903 4.21398C 27.7675 6.73224 28.3923 9.92936 28.5559 12.1494L 29.5531 12.0755ZM 19.9624 -0.378984C 16.6783 0.236776 14.7924 1.49482 13.8075 2.90054C 12.8254 4.30216 12.7851 5.78783 13.0756 6.75613L 14.0334 6.46878C 13.8239 5.77041 13.8335 4.60608 14.6265 3.47436C 15.4166 2.34676 17.0307 1.18813 20.1466 0.603889L 19.9624 -0.378984ZM 13.805 6.17974C 12.2019 5.25159 9.76483 4.1166 7.697 3.78139C 6.6716 3.61517 5.6451 3.62969 4.85486 4.05905C 4.01187 4.51706 3.5545 5.37793 3.5545 6.61245L 4.5545 6.61245C 4.5545 5.64697 4.88879 5.17868 5.33226 4.93773C 5.82848 4.66813 6.58323 4.6139 7.53699 4.76851C 9.4275 5.07497 11.7405 6.13998 13.304 7.04516L 13.805 6.17974ZM 3.5545 6.61245C 3.5545 11.1509 5.65837 12.6125 7.0545 12.6125L 7.0545 11.6125C 6.45062 11.6125 4.5545 10.874 4.5545 6.61245L 3.5545 6.61245ZM 7.23399 11.6458C 6.12352 11.2196 4.37027 10.7732 2.86434 10.8507C 2.09845 10.8931 1.33529 11.0724 0.724645 11.5019C 0.0957817 11.9443 -0.325386 12.6204 -0.441643 13.5504L 0.550635 13.6745C 0.634378 13.0045 0.917377 12.589 1.29997 12.3199C 1.70079 12.0379 2.25637 11.8859 2.91965 11.8492C 4.27205 11.7684 5.81881 12.172 6.87501 12.5791L 7.23399 11.6458ZM -0.441643 13.5504C -0.872918 17.0006 1.17988 18.9842 2.33089 19.5597L 2.7781 18.6652C 1.92911 18.2407 0.18191 16.6243 0.550635 13.6745L -0.441643 13.5504ZM 2.5545 19.6125L 12.0545 19.6125L 12.0545 18.6125L 2.5545 18.6125L 2.5545 19.6125Z"/>
<path id="path51_stroke" d="M 56.689 35.08L 56.689 35.58L 56.7655 35.58L 56.8386 35.5571L 56.689 35.08ZM 53.038 17.2611L 52.5394 17.2979L 53.4952 17.4636L 53.038 17.2611ZM 30 12.1891L 29.7489 12.6215L 30.8408 13.2557L 30.479 12.0459L 30 12.1891ZM 7.40135 12.1891L 7.77179 12.525L 7.79517 12.4992L 7.81474 12.4704L 7.40135 12.1891ZM 8.5 23.08L 8.5 23.58L 8.67999 22.6135L 8.5 23.08ZM 4.66315 35.08L 4.43898 35.5269L 4.54478 35.58L 4.66315 35.58L 4.66315 35.08ZM 22.0051 35.58L 56.689 35.58L 56.689 34.58L 22.0051 34.58L 22.0051 35.58ZM 56.8386 35.5571C 59.3085 34.7828 62.6948 33.1912 64.7296 30.9027C 65.7545 29.75 66.4649 28.3876 66.4987 26.8416C 66.5326 25.291 65.8841 23.6438 64.3651 21.9295L 63.6166 22.5927C 65.0184 24.1747 65.5259 25.5872 65.499 26.8198C 65.4719 28.0569 64.9045 29.2011 63.9823 30.2382C 62.1228 32.3296 58.9374 33.8511 56.5394 34.6029L 56.8386 35.5571ZM 64.3651 21.9295C 61.4303 18.6173 58.9348 16.6107 56.9717 15.7969C 55.9871 15.3888 55.0825 15.2585 54.307 15.4748C 53.5102 15.6971 52.9341 16.2614 52.5809 17.0586L 53.4952 17.4636C 53.7505 16.8873 54.1176 16.5658 54.5757 16.438C 55.0553 16.3043 55.7175 16.3596 56.5888 16.7207C 58.3375 17.4456 60.71 19.3123 63.6166 22.5927L 64.3651 21.9295ZM 53.5367 17.2243C 53.2288 13.0543 52.0271 8.15596 49.3789 4.56254C 46.7024 0.930891 42.56 -1.34225 36.5164 -0.205476L 36.7013 0.77729C 42.3407 -0.283455 46.1086 1.81065 48.5739 5.15581C 51.0674 8.53919 52.2388 13.2272 52.5394 17.2979L 53.5367 17.2243ZM 36.5164 -0.205476C 33.5529 0.35194 31.5348 1.20183 30.2087 2.25164C 28.8668 3.314 28.255 4.56499 28.0853 5.85167C 27.9284 7.0941 28.1842 8.38701 28.5269 9.49827C 28.8719 10.6121 29.3023 11.598 29.521 12.3324L 30.479 12.0459C 30.2413 11.2542 29.8093 10.2639 29.4824 9.20308C 29.1532 8.13972 28.9278 7.05961 29.0767 5.98243C 29.213 4.94951 29.6943 3.93431 30.8294 3.03569C 31.9804 2.12452 33.8232 1.31863 36.7013 0.77729L 36.5164 -0.205476ZM 30.2511 11.7568C 28.826 10.9297 27.203 9.76996 25.4323 8.67371C 23.6621 7.57846 21.7125 6.5361 19.7016 5.98407C 17.6859 5.43773 15.4949 5.38285 13.3501 6.23123C 11.1854 7.09879 9.05059 8.87626 6.98796 11.9079L 7.81474 12.4704C 9.80143 9.5504 11.7935 7.9324 13.7221 7.15945C 15.6705 6.36732 17.5392 6.4269 19.4383 6.94879C 21.3421 7.465 23.1624 8.44466 24.906 9.52404C 26.649 10.6024 28.2837 11.7699 29.7489 12.6215L 30.2511 11.7568ZM 7.03091 11.8533C 4.2157 14.9587 3.97282 17.8734 4.76713 20.0449C 5.15739 21.0974 5.81432 21.9978 6.46123 22.5881C 7.10784 23.1747 7.8597 23.58 8.5 23.58L 8.5 22.58C 8.22757 22.58 7.70925 22.3701 7.13314 21.8475C 6.55731 21.3285 6.03897 20.6254 5.70628 19.7014C 5.05468 17.92 5.1752 15.3892 7.77179 12.525L 7.03091 11.8533ZM 8.67999 22.6135C 7.70353 22.2369 6.72868 21.8 5.79937 21.4461C 4.86731 21.0916 3.93081 20.811 3.11008 20.7746C 2.24243 20.7404 1.42634 20.9748 0.790841 21.687C 0.179108 22.3726 -0.209045 23.4403 -0.396683 24.9462L 0.595643 25.0698C 0.773099 23.6457 1.12316 22.8166 1.53698 22.3528C 1.92704 21.9157 2.42384 21.7483 3.07066 21.7738C 3.76439 21.7971 4.54391 22.0379 5.44365 22.3807C 6.34614 22.7239 7.31888 23.16 8.32001 23.5465L 8.67999 22.6135ZM -0.396683 24.9462C -1.15792 31.0554 2.4621 34.5353 4.43898 35.5269L 4.88732 34.633C 3.21326 33.7934 -0.103497 30.6807 0.595643 25.0698L -0.396683 24.9462ZM 4.66315 35.58L 22.0051 35.58L 22.0051 34.58L 4.66315 34.58L 4.66315 35.58Z"/>
<path id="path52_stroke" d="M 5.57331 0.0659494L 5.42126 -0.922422L 5.57331 0.0659494ZM 5.57331 14.0659L 5.09446 13.1881L 5.09446 13.1881L 5.57331 14.0659ZM 0.0733134 21.566L -0.926687 21.566L -0.926687 22.566L 0.0733134 22.566L 0.0733134 21.566ZM 1.06454 8.43379C 0.905552 7.26916 0.955328 5.61886 1.66102 4.08706C 2.30925 2.63911 3.50715 1.39559 5.72537 1.05432L 5.42126 -0.922422C 2.43948 -0.463688 0.720709 1.29278 -0.164396 3.26984C -0.992034 5.16303 -1.09226 7.36274 -0.917914 8.69811L 1.06454 8.43379ZM 5.72537 1.05432C 7.0518 0.850255 8.04156 1.23692 8.73529 1.92694C 9.45433 2.64213 9.93031 3.76288 10.0127 5.11537C 10.1766 7.80756 8.75419 11.1918 5.09446 13.1881L 6.05216 14.9438C 10.3924 12.5764 12.22 8.46073 12.009 4.99382C 11.9038 3.26676 11.286 1.64318 10.1457 0.508942C 8.98006 -0.650472 7.34483 -1.21836 5.42126 -0.922422L 5.72537 1.05432ZM 5.09446 13.1881C 0.374162 15.7628 -0.926687 19.6989 -0.926687 21.566L 1.07331 21.566C 1.07331 20.433 1.97246 17.1691 6.05216 14.9438L 5.09446 13.1881ZM 0.0733134 22.566L 13.5733 22.566L 13.5733 20.566L 0.0733134 20.566L 0.0733134 22.566Z"/>
<path id="path53_fill" d="M 3 1.5C 3 2.32843 2.32843 3 1.5 3C 0.671573 3 0 2.32843 0 1.5C 0 0.671573 0.671573 0 1.5 0C 2.32843 0 3 0.671573 3 1.5Z"/>
</defs>
</svg>
