<svg width="1500" height="1500" viewBox="0 0 1500 1500" version="1.1" xmlns="http://www.w3.org/2000/svg" xmlns:xlink="http://www.w3.org/1999/xlink">
<title>A</title>
<desc>Created using Figma</desc>
<g id="Canvas" transform="matrix(3 0 0 3 1212 798)">
 clip-path="url(#clip-0)"<g id="A">
<g id="Vector 14">
<use xlink:href="#path0_stroke" transform="translate(-415 -196)" fill="#FFFFFF"/>
</g>
<g id="Vector 2">
<use xlink:href="#path1_stroke" transform="translate(-289 -94)" fill="#FFFFFF"/>
</g>
<g id="Vector 2">
<use xlink:href="#path2_stroke" transform="translate(-333 -94.5)" fill="#FFFFFF"/>
</g>
<g id="Vector 3">
<use xlink:href="#path3_stroke" transform="translate(-274.5 -170.5)" fill="#FFFFFF"/>
</g>
<g id="Vector 3">
<use xlink:href="#path4_stroke" transform="matrix(0.939693 0.34202 -0.34202 0.939693 -144.315 -218.425)" fill="#FFFFFF"/>
</g>
<g id="Vector 4">
<use xlink:href="#path5_stroke" transform="translate(-354 108)" fill="#FFFFFF"/>
</g>
<g id="Vector 5">
<use xlink:href="#path6_stroke" transform="translate(-344 114)" fill="#FFFFFF"/>
</g>
<g id="Vector 6">
<use xlink:href="#path7_stroke" transform="translate(-348.5 123.5)" fill="#FFFFFF"/>
</g>
<g id="Ellipse">
<use xlink:href="#path8_fill" transform="translate(-341 145)" fill="#FFFFFF"/>
<use xlink:href="#path8_fill" transform="translate(-341 145)" fill="#FFFFFF"/>
<use xlink:href="#path8_fill" transform="translate(-341 145)" fill="#FFFFFF"/>
</g>
<g id="Ellipse">
<use xlink:href="#path8_fill" transform="translate(-334 144)" fill="#FFFFFF"/>
<use xlink:href="#path8_fill" transform="translate(-334 144)" fill="#FFFFFF"/>
<use xlink:href="#path8_fill" transform="translate(-334 144)" fill="#FFFFFF"/>
</g>
<g id="Ellipse">
<use xlink:href="#path8_fill" transform="translate(-326 142)" fill="#FFFFFF"/>
<use xlink:href="#path8_fill" transform="translate(-326 142)" fill="#FFFFFF"/>
<use xlink:href="#path8_fill" transform="translate(-326 142)" fill="#FFFFFF"/>
</g>
<g id="Ellipse">
<use xlink:href="#path8_fill" transform="translate(-319 140)" fill="#FFFFFF"/>
<use xlink:href="#path8_fill" transform="translate(-319 140)" fill="#FFFFFF"/>
<use xlink:href="#path8_fill" transform="translate(-319 140)" fill="#FFFFFF"/>
</g>
<g id="Ellipse">
<use xlink:href="#path8_fill" transform="translate(-338 155)" fill="#FFFFFF"/>
<use xlink:href="#path8_fill" transform="translate(-338 155)" fill="#FFFFFF"/>
<use xlink:href="#path8_fill" transform="translate(-338 155)" fill="#FFFFFF"/>
</g>
<g id="Ellipse">
<use xlink:href="#path8_fill" transform="translate(-331 153)" fill="#FFFFFF"/>
<use xlink:href="#path8_fill" transform="translate(-331 153)" fill="#FFFFFF"/>
<use xlink:href="#path8_fill" transform="translate(-331 153)" fill="#FFFFFF"/>
</g>
<g id="Ellipse">
<use xlink:href="#path8_fill" transform="translate(-324 151)" fill="#FFFFFF"/>
<use xlink:href="#path8_fill" transform="translate(-324 151)" fill="#FFFFFF"/>
<use xlink:href="#path8_fill" transform="translate(-324 151)" fill="#FFFFFF"/>
</g>
<g id="Ellipse">
<use xlink:href="#path8_fill" transform="translate(-316 149)" fill="#FFFFFF"/>
<use xlink:href="#path8_fill" transform="translate(-316 149)" fill="#FFFFFF"/>
<use xlink:href="#path8_fill" transform="translate(-316 149)" fill="#FFFFFF"/>
</g>
<g id="Vector 21">
<use xlink:href="#path9_stroke" transform="translate(-36.5 -226)" fill="#FFFFFF"/>
</g>
<g id="Rectangle">
<mask id="mask0_outline_ins">
<use xlink:href="#path10_fill" fill="white" transform="matrix(0.996195 -0.0871557 0.0871557 0.996195 -198.316 30.756)"/>
</mask>
<g mask="url(#mask0_outline_ins)">
<use xlink:href="#path11_stroke_2x" transform="matrix(0.996195 -0.0871557 0.0871557 0.996195 -198.316 30.756)" fill="#FFFFFF"/>
</g>
</g>
<g id="Rectangle">
<mask id="mask1_outline_ins">
<use xlink:href="#path10_fill" fill="white" transform="matrix(0.999391 -0.0348995 0.0348995 0.999391 -98.1344 39.2991)"/>
</mask>
<g mask="url(#mask1_outline_ins)">
<use xlink:href="#path11_stroke_2x" transform="matrix(0.999391 -0.0348995 0.0348995 0.999391 -98.1344 39.2991)" fill="#FFFFFF"/>
</g>
</g>
<g id="Vector 23">
<use xlink:href="#path12_stroke" transform="translate(-189.5 25.5)" fill="#FFFFFF"/>
</g>
<g id="Vector 23">
<use xlink:href="#path13_stroke" transform="translate(-89.5 32.5)" fill="#FFFFFF"/>
</g>
<g id="Vector 7">
<use xlink:href="#path14_stroke" transform="translate(-388.287 70.2122)" fill="#FFFFFF"/>
</g>
<g id="Vector 8">
<use xlink:href="#path15_stroke" transform="translate(-398 51)" fill="#FFFFFF"/>
</g>
<g id="Line">
<use xlink:href="#path16_stroke" transform="matrix(0.96245 -0.27146 0.27146 0.96245 -338 192)" fill="#FFFFFF"/>
</g>
</g>
</g>
<defs>
<path id="path0_stroke" d="M -0.137361 91.4808C 18.6125 96.8379 89.615 105.9 224.024 99.4994L 223.976 98.5006C 89.585 104.9 18.7209 95.8288 0.137361 90.5192L -0.137361 91.4808ZM 224.024 99.4994C 358.547 93.0936 471.576 30.7775 511.304 0.397179L 510.696 -0.397179C 471.091 29.8892 358.253 92.1064 223.976 98.5006L 224.024 99.4994Z"/>
<path id="path1_stroke" d="M 1.45083 -0.380928C 1.24044 -1.1822 0.42034 -1.66121 -0.380928 -1.45083C -1.1822 -1.24044 -1.66121 -0.42034 -1.45083 0.380928L 1.45083 -0.380928ZM 9.97727 38L 8.52645 38.3809C 8.688 38.9962 9.22011 39.4427 9.85411 39.4949C 10.4881 39.5472 11.0861 39.1938 11.3462 38.6132L 9.97727 38ZM 28.3689 0.613231C 28.7076 -0.142804 28.3693 -1.03024 27.6132 -1.36892C 26.8572 -1.7076 25.9698 -1.36927 25.6311 -0.613231L 28.3689 0.613231ZM -1.45083 0.380928L 8.52645 38.3809L 11.4281 37.6191L 1.45083 -0.380928L -1.45083 0.380928ZM 11.3462 38.6132L 28.3689 0.613231L 25.6311 -0.613231L 8.60835 37.3868L 11.3462 38.6132Z"/>
<path id="path2_stroke" d="M 1.45035 -0.382731C 1.23897 -1.18374 0.418275 -1.66173 -0.382731 -1.45035C -1.18374 -1.23897 -1.66173 -0.418275 -1.45035 0.382731L 1.45035 -0.382731ZM 9.5 36L 8.04965 36.3827C 8.21739 37.0184 8.77946 37.4707 9.43626 37.4986C 10.0931 37.5266 10.6915 37.1236 10.9126 36.5045L 9.5 36ZM 22 1L 23.4627 0.667568C 23.3149 0.0171851 22.7554 -0.457478 22.0896 -0.497321C 21.4238 -0.537165 20.8117 -0.132617 20.5874 0.495495L 22 1ZM 29.5 34L 28.0373 34.3324C 28.18 34.9602 28.7074 35.427 29.3479 35.4923C 29.9884 35.5576 30.5991 35.2068 30.8655 34.6207L 29.5 34ZM 45.8656 1.6207C 46.2084 0.866532 45.8749 -0.0227441 45.1207 -0.36555C 44.3665 -0.708355 43.4773 -0.374877 43.1344 0.379296L 45.8656 1.6207ZM -1.45035 0.382731L 8.04965 36.3827L 10.9504 35.6173L 1.45035 -0.382731L -1.45035 0.382731ZM 10.9126 36.5045L 23.4126 1.5045L 20.5874 0.495495L 8.08739 35.4955L 10.9126 36.5045ZM 20.5373 1.33243L 28.0373 34.3324L 30.9627 33.6676L 23.4627 0.667568L 20.5373 1.33243ZM 30.8655 34.6207L 45.8656 1.6207L 43.1344 0.379296L 28.1345 33.3793L 30.8655 34.6207Z"/>
<path id="path3_stroke" d="M 38.5 27L 38.005 26.9293C 38.0017 26.9527 38 26.9763 38 27L 38.5 27ZM 88.5 19.5L 88.9912 19.4064C 88.9894 19.3972 88.9874 19.3879 88.9851 19.3787L 88.5 19.5ZM 0 27L -0.203769 26.5434C -0.409365 26.6352 -0.528281 26.853 -0.494258 27.0756C -0.460235 27.2981 -0.281665 27.4705 -0.0580464 27.4966L 0 27ZM 60.5 0L 60.6358 -0.481199C 60.5232 -0.512978 60.4031 -0.504272 60.2962 -0.456594L 60.5 0ZM 122.5 17.5L 122.607 17.9884C 122.831 17.9391 122.993 17.7439 123 17.5147C 123.007 17.2855 122.857 17.0811 122.636 17.0188L 122.5 17.5ZM 38 36C 38 37.516 39.0268 38.6683 40.5642 39.5188C 42.1058 40.3715 44.2706 40.9895 46.817 41.4181C 51.9037 42.2729 58.7101 42.3999 65.5294 41.9991L 65.4706 41.0009C 58.6899 41.4001 51.9963 41.2771 46.983 40.4319C 44.4794 40.0105 42.4442 39.416 41.0483 38.6437C 39.6482 37.8692 39 36.984 39 36L 38 36ZM 65.5294 41.9991C 72.3756 41.5942 78.9605 39.9485 83.6737 37.9088C 86.0396 36.883 87.9896 35.7281 89.2623 34.5875C 90.5252 33.4525 91.3069 32.1661 90.9851 30.8787L 90.0149 31.1213C 90.1931 31.8339 89.7998 32.76 88.5939 33.8437C 87.3979 34.9219 85.5854 35.992 83.2763 36.9912C 78.6395 39.0015 72.2244 40.6058 65.4706 41.0009L 65.5294 41.9991ZM 88.9851 19.3787C 88.6702 18.1192 87.3977 17.2338 85.7335 16.6157C 84.0517 15.993 81.7533 15.5668 79.1155 15.3516C 73.8564 14.925 67.0413 15.3035 60.4106 16.5081L 60.5894 17.4919C 67.1587 16.2965 73.8436 15.925 79.0345 16.3484C 81.6217 16.5582 83.7858 16.957 85.3853 17.5531C 87.0023 18.1537 87.8298 18.8808 88.0149 19.6213L 88.9851 19.3787ZM 60.4106 16.5081C 53.7827 17.7139 48.3467 19.3579 44.5266 21.1342C 42.6074 22.0281 41.0517 22.9808 39.9647 23.9206C 38.8717 24.8678 38.1548 25.8806 38.005 26.9293L 38.995 27.0707C 39.0952 26.3694 39.6033 25.5572 40.6197 24.6763C 41.6421 23.7879 43.0801 22.9094 44.9485 22.0408C 48.7033 20.2921 54.0173 18.6861 60.5894 17.4919L 60.4106 16.5081ZM 38 27L 38 31.5L 39 31.5L 39 27L 38 27ZM 38 31.5L 38 36L 39 36L 39 31.5L 38 31.5ZM 38.558 31.0034L 0.0580464 26.5034L -0.0580464 27.4966L 38.442 31.9966L 38.558 31.0034ZM 0.203769 27.4566L 60.7038 0.456594L 60.2962 -0.456594L -0.203769 26.5434L 0.203769 27.4566ZM 60.3642 0.481199L 122.364 17.9812L 122.636 17.0188L 60.6358 -0.481199L 60.3642 0.481199ZM 90.9937 30.921L 89.9937 24.671L 89.0063 24.829L 90.0063 31.079L 90.9937 30.921ZM 89.9912 24.6564L 88.9912 19.4064L 88.0088 19.5936L 89.0088 24.8436L 89.9912 24.6564ZM 122.393 17.0116L 89.3927 24.2616L 89.6073 25.2384L 122.607 17.9884L 122.393 17.0116ZM 38 27L 38 36L 39 36L 39 27L 38 27ZM 39 36C 39 35.8148 39.1005 35.5606 39.4324 35.2347C 39.776 34.8941 40.2693 34.5676 40.9483 34.2177C 42.3231 33.5059 44.2746 32.8209 46.6332 32.1694C 51.361 30.8625 57.5753 29.7443 63.562 28.9961L 63.438 28.0039C 57.4247 28.7557 51.139 29.8875 46.3668 31.2056C 43.9754 31.8667 41.9269 32.5878 40.4892 33.3292C 39.762 33.7058 39.1459 34.1176 38.7317 34.5212C 38.3058 34.9394 38 35.4352 38 36L 39 36ZM 63.562 28.9961C 69.5454 28.2479 75.9992 27.875 81.0946 28.1866C 83.6357 28.3411 85.7912 28.6585 87.3908 29.186C 89.0131 29.719 89.8335 30.3954 90.0149 31.1213L 90.9851 30.8787C 90.6665 29.6046 89.3619 28.781 87.7029 28.2359C 86.0213 27.6853 83.7393 27.3464 81.1554 27.1884C 76.0008 26.875 69.4546 27.2521 63.438 28.0039L 63.562 28.9961Z"/>
<path id="path4_stroke" d="M 38.5 21.7794L 38.0065 21.6989C 38.0022 21.7255 38 21.7524 38 21.7794L 38.5 21.7794ZM 88.5 15.2075L 88.9886 15.1013C 88.9863 15.0909 88.9837 15.0806 88.9808 15.0703L 88.5 15.2075ZM 0 21.7794L -0.167676 21.3083C -0.387864 21.3867 -0.524376 21.6072 -0.496407 21.8392C -0.468437 22.0713 -0.283448 22.253 -0.050943 22.2768L 0 21.7794ZM 61.184 0L 61.2912 -0.48838C 61.1998 -0.508443 61.1046 -0.502438 61.0164 -0.471046L 61.184 0ZM 122.5 13.455L 122.595 13.946C 122.828 13.9011 122.997 13.6987 123 13.4615C 123.003 13.2242 122.839 13.0175 122.607 12.9666L 122.5 13.455ZM 38 29.6657C 38 31.0614 39.0735 32.0813 40.5882 32.8155C 42.1038 33.5473 44.2771 34.0991 46.827 34.4758C 51.9094 35.2244 58.7088 35.3355 65.5257 34.9844L 65.4743 33.9857C 58.6912 34.3356 51.9906 34.2277 46.973 33.4865C 44.4729 33.1185 42.4462 32.6078 41.0243 31.9157C 39.6015 31.226 39 30.4606 39 29.6657L 38 29.6657ZM 65.5257 34.9844C 72.3666 34.6301 78.9426 33.1899 83.6524 31.4037C 86.0166 30.5055 87.9647 29.4944 89.2375 28.4949C 89.8832 27.9846 90.403 27.4277 90.7051 26.905C 91.0229 26.3475 91.1519 25.7469 90.9808 25.1472L 90.0192 25.4216C 90.0981 25.6982 90.0583 26.0204 89.8363 26.4096C 89.5985 26.8337 89.2074 27.2475 88.6188 27.7093C 87.4228 28.6539 85.6084 29.5926 83.2976 30.4688C 78.6574 32.2314 72.2334 33.639 65.4743 33.9857L 65.5257 34.9844ZM 88.9808 15.0703C 88.8137 14.4846 88.3934 14.0042 87.8399 13.6126C 87.3025 13.235 86.562 12.8922 85.7141 12.6154C 84.0364 12.0709 81.7453 11.6988 79.1105 11.5105C 73.8556 11.1368 67.0484 11.4681 60.4213 12.5231L 60.5787 13.5107C 67.1516 12.4627 73.8444 12.1368 79.0395 12.5079C 81.6297 12.692 83.801 13.0428 85.4046 13.5663C 86.1973 13.8234 86.8022 14.1009 87.2624 14.429C 87.7066 14.7433 87.9363 15.0541 88.0192 15.3447L 88.9808 15.0703ZM 60.4213 12.5231C 53.7965 13.5792 48.3663 15.0182 44.5487 16.5737C 42.631 17.3564 41.0767 18.1905 39.9898 19.014C 38.903 19.8393 38.1629 20.7397 38.0065 21.6989L 38.9935 21.8598C 39.0871 21.2856 39.572 20.5869 40.5946 19.8103C 41.617 19.0319 43.0565 18.2613 44.9263 17.4997C 48.6837 15.9664 54.0035 14.5576 60.5787 13.5107L 60.4213 12.5231ZM 38 21.7794L 38 25.7225L 39 25.7225L 39 21.7794L 38 21.7794ZM 38 25.7225L 38 29.6657L 39 29.6657L 39 25.7225L 38 25.7225ZM 38.5509 25.2251L 0.050943 21.282L -0.050943 22.2768L 38.4491 26.2199L 38.5509 25.2251ZM 0.167676 22.2504L 61.3517 0.471046L 61.0164 -0.471046L -0.167676 21.3083L 0.167676 22.2504ZM 61.0769 0.48838L 122.393 13.9434L 122.607 12.9666L 61.2912 -0.48838L 61.0769 0.48838ZM 90.9919 25.1946L 89.9919 19.718L 89.0081 19.8976L 90.0081 25.3742L 90.9919 25.1946ZM 89.9886 19.7016L 88.9886 15.1013L 88.0114 15.3137L 89.0114 19.914L 89.9886 19.7016ZM 122.405 12.964L 89.4055 19.3168L 89.5945 20.2988L 122.595 13.946L 122.405 12.964ZM 38 21.7794L 38 29.6657L 39 29.6657L 39 21.7794L 38 21.7794ZM 39 29.6657C 39 29.5663 39.0625 29.3814 39.4027 29.1183C 39.7518 28.8453 40.2551 28.5931 40.9504 28.3286C 42.3592 27.7903 44.3591 27.3029 46.764 26.8479C 51.5825 25.9357 57.8987 25.1874 63.8965 24.5305L 63.7876 23.5364C 57.7854 24.1939 51.4306 24.9473 46.578 25.8654C 44.1474 26.3256 42.0618 26.8355 40.594 27.3943C 39.851 27.6784 39.2181 27.9996 38.7908 28.3273C 38.3544 28.6649 38 29.1079 38 29.6657L 39 29.6657ZM 63.8965 24.5305C 69.8911 23.8739 76.2765 23.3124 81.2922 23.3517C 83.7943 23.3707 85.914 23.5351 87.4841 23.9118C 88.2593 24.096 88.8467 24.3121 89.2951 24.5947C 89.7217 24.8607 89.939 25.1407 90.0192 25.4216L 90.9808 25.1472C 90.811 24.5519 90.3827 24.0945 89.8242 23.7462C 89.2874 23.4144 88.5499 23.1391 87.7165 22.9391C 86.0696 22.5473 83.8372 22.3716 81.2999 22.3517C 76.2365 22.3132 69.7929 22.8787 63.7876 23.5364L 63.8965 24.5305Z"/>
<path id="path5_stroke" d="M 0 19L -0.132118 18.5178C -0.393878 18.5895 -0.550628 18.8569 -0.485299 19.1204L 0 19ZM 15.5 81.5L 15.0147 81.6204C 15.0471 81.751 15.1308 81.8631 15.2469 81.9312C 15.363 81.9994 15.5017 82.0178 15.6316 81.9824L 15.5 81.5ZM 54 71L 54.1316 71.4824C 54.2602 71.4473 54.3696 71.3622 54.4352 71.2461C 54.5009 71.1301 54.5174 70.9925 54.4812 70.8642L 54 71ZM 36.5 9L 36.9812 8.86418C 36.9066 8.59986 36.6328 8.4452 36.3679 8.51777L 36.5 9ZM 23.5 0L 23.9787 -0.1444C 23.904 -0.391984 23.6529 -0.541766 23.3995 -0.489801L 23.5 0ZM 4 4L 3.89953 3.5102C 3.76438 3.53792 3.64669 3.62026 3.57432 3.73772C 3.50194 3.85517 3.48132 3.99732 3.51733 4.1305L 4 4ZM 7.5 16.9452L 7.63212 17.4274L 7.5 16.9452ZM -0.485299 19.1204L 15.0147 81.6204L 15.9853 81.3796L 0.485299 18.8796L -0.485299 19.1204ZM 15.6316 81.9824L 54.1316 71.4824L 53.8684 70.5176L 15.3684 81.0176L 15.6316 81.9824ZM 54.4812 70.8642L 36.9812 8.86418L 36.0188 9.13582L 53.5188 71.1358L 54.4812 70.8642ZM 36.3679 8.51777L 26.8679 11.1205L 27.1321 12.085L 36.6321 9.48223L 36.3679 8.51777ZM 27.4787 11.4583L 23.9787 -0.1444L 23.0213 0.1444L 26.5213 11.7471L 27.4787 11.4583ZM 23.3995 -0.489801L 3.89953 3.5102L 4.10047 4.4898L 23.6005 0.489801L 23.3995 -0.489801ZM 26.8679 11.1205L 7.36788 16.463L 7.63212 17.4274L 27.1321 12.085L 26.8679 11.1205ZM 7.36788 16.463L -0.132118 18.5178L 0.132118 19.4822L 7.63212 17.4274L 7.36788 16.463ZM 3.51733 4.1305L 7.01733 17.0757L 7.98267 16.8147L 4.48267 3.8695L 3.51733 4.1305Z"/>
<path id="path6_stroke" d="M -0.454805 3.57061C -1.24424 3.82179 -1.68057 4.66538 -1.42939 5.45481C -1.17821 6.24424 -0.334624 6.68057 0.454805 6.42939L -0.454805 3.57061ZM 11.4548 2.92939C 12.2442 2.67821 12.6806 1.83462 12.4294 1.04519C 12.1782 0.255765 11.3346 -0.180571 10.5452 0.0706113L 11.4548 2.92939ZM 5.93367 -0.441129C 5.69004 -1.23292 4.85066 -1.6773 4.05887 -1.43367C 3.26708 -1.19004 2.8227 -0.350664 3.06633 0.441129L 5.93367 -0.441129ZM 0.454805 6.42939L 5.95481 4.67939L 5.04519 1.82061L -0.454805 3.57061L 0.454805 6.42939ZM 5.95481 4.67939L 11.4548 2.92939L 10.5452 0.0706113L 5.04519 1.82061L 5.95481 4.67939ZM 6.93367 2.80887L 5.93367 -0.441129L 3.06633 0.441129L 4.06633 3.69113L 6.93367 2.80887Z"/>
<path id="path7_stroke" d="M 0 8.5L -0.140635 8.02019L -0.630516 8.16377L -0.476791 8.65057L 0 8.5ZM 29 0L 29.4768 -0.150566L 29.3293 -0.61756L 28.8594 -0.479814L 29 0ZM 32 9.5L 32.1406 9.97981L 32.6305 9.83623L 32.4768 9.34943L 32 9.5ZM 3 18L 2.52321 18.1506L 2.67068 18.6176L 3.14064 18.4798L 3 18ZM 0.140635 8.97981L 29.1406 0.479814L 28.8594 -0.479814L -0.140635 8.02019L 0.140635 8.97981ZM 28.5232 0.150566L 31.5232 9.65057L 32.4768 9.34943L 29.4768 -0.150566L 28.5232 0.150566ZM 31.8594 9.02019L 2.85936 17.5202L 3.14064 18.4798L 32.1406 9.97981L 31.8594 9.02019ZM 3.47679 17.8494L 0.476791 8.34943L -0.476791 8.65057L 2.52321 18.1506L 3.47679 17.8494Z"/>
<path id="path8_fill" d="M 2 1C 2 1.55228 1.55228 2 1 2C 0.447715 2 0 1.55228 0 1C 0 0.447715 0.447715 0 1 0C 1.55228 0 2 0.447715 2 1Z"/>
<path id="path9_stroke" d="M -0.129564 33.0171C -0.396274 33.0886 -0.554478 33.3629 -0.482921 33.6296C -0.411365 33.8963 -0.137146 34.0545 0.129564 33.9829L -0.129564 33.0171ZM 81.9531 0.211443C 82.0699 -0.0387929 81.9617 -0.336315 81.7114 -0.453092C 81.4612 -0.569868 81.1637 -0.461678 81.0469 -0.211443L 81.9531 0.211443ZM 48.5 23.5L 48.6733 23.969L 48.5 23.5ZM 31.5 28.5481L 31.6117 29.0355L 31.5 28.5481ZM 65 15.5937L 65.2619 16.0196L 65 15.5937ZM 76.3621 6.78221L 76.7172 7.13423L 76.3621 6.78221ZM 48.3267 23.031C 42.3383 25.2445 36.658 26.8529 31.3883 28.0608L 31.6117 29.0355C 36.9061 27.8217 42.6481 26.1953 48.6733 23.969L 48.3267 23.031ZM 31.3883 28.0608C 23.9389 29.769 17.3524 30.6643 11.9805 31.3042C 6.64008 31.9404 2.44069 32.3275 -0.129564 33.0171L 0.129564 33.9829C 2.60802 33.318 6.68713 32.9419 12.0988 32.2972C 17.4789 31.6562 24.1181 30.7528 31.6117 29.0355L 31.3883 28.0608ZM 64.7381 15.1678C 60.2729 17.9139 54.8535 20.6197 48.3267 23.031L 48.6733 23.969C 55.2508 21.5374 60.7586 18.788 65.2619 16.0196L 64.7381 15.1678ZM 81.0469 -0.211443C 80.2837 1.424 78.6584 3.75578 76.007 6.43019L 76.7172 7.13423C 79.4185 4.4094 81.1255 1.98481 81.9531 0.211443L 81.0469 -0.211443ZM 76.007 6.43019C 73.3195 9.14211 69.6265 12.1634 64.7381 15.1678L 65.2619 16.0196C 70.2063 12.9781 73.992 9.88216 76.7172 7.13423L 76.007 6.43019Z"/>
<path id="path10_fill" d="M 0 1C 0 0.447715 0.447715 0 1 0L 16 0C 16.5523 0 17 0.447715 17 1L 17 7C 17 7.55228 16.5523 8 16 8L 1 8C 0.447715 8 0 7.55228 0 7L 0 1Z"/>
<path id="path11_stroke_2x" d="M 1 1L 16 1L 16 -1L 1 -1L 1 1ZM 16 1L 16 7L 18 7L 18 1L 16 1ZM 16 7L 1 7L 1 9L 16 9L 16 7ZM 1 7L 1 1L -1 1L -1 7L 1 7ZM 1 -1C -0.10457 -1 -1 -0.10457 -1 1L 1 1L 1 -1ZM 16 1L 18 1C 18 -0.10457 17.1046 -1 16 -1L 16 1ZM 16 7L 16 9C 17.1046 9 18 8.10457 18 7L 16 7ZM 1 7L -1 7C -1 8.10457 -0.10457 9 1 9L 1 7Z"/>
<path id="path12_stroke" d="M 1.5 0C 1.5 -0.828427 0.828427 -1.5 0 -1.5C -0.828427 -1.5 -1.5 -0.828427 -1.5 0L 1.5 0ZM -1.5 4C -1.5 4.82843 -0.828427 5.5 0 5.5C 0.828427 5.5 1.5 4.82843 1.5 4L -1.5 4ZM -1.5 0L -1.5 4L 1.5 4L 1.5 0L -1.5 0Z"/>
<path id="path13_stroke" d="M 1.5 0C 1.5 -0.828427 0.828427 -1.5 0 -1.5C -0.828427 -1.5 -1.5 -0.828427 -1.5 0L 1.5 0ZM -1.5 6C -1.5 6.82843 -0.828427 7.5 0 7.5C 0.828427 7.5 1.5 6.82843 1.5 6L -1.5 6ZM -1.5 0L -1.5 6L 1.5 6L 1.5 0L -1.5 0Z"/>
<path id="path14_stroke" d="M 16.368 56.2652C 16.6316 56.3472 16.9119 56.2 16.9939 55.9363C 17.076 55.6726 16.9287 55.3924 16.6651 55.3103L 16.368 56.2652ZM 3.56397 14.8109L 4.01218 15.0325L 3.56397 14.8109ZM 85.8077 43.9314C 85.887 44.1959 86.1658 44.346 86.4303 44.2667C 86.6948 44.1873 86.8449 43.9086 86.7655 43.6441L 85.8077 43.9314ZM 16.6651 55.3103C 12.5136 54.0185 6.77871 49.1338 3.36817 41.9371C -0.0268462 34.7731 -1.09465 25.3618 4.01218 15.0325L 3.11576 14.5893C -2.13945 25.2187 -1.0485 34.9523 2.46451 42.3653C 5.96199 49.7455 11.8844 54.87 16.368 56.2652L 16.6651 55.3103ZM 4.01218 15.0325C 10.6603 1.58572 27.6433 -2.4443 44.8252 2.58302C 61.9705 7.59965 79.1108 21.6085 85.8077 43.9314L 86.7655 43.6441C 79.9624 20.967 62.5451 6.72585 45.106 1.62326C 27.7035 -3.46862 10.0752 0.512937 3.11576 14.5893L 4.01218 15.0325Z"/>
<path id="path15_stroke" d="M 90.8188 61.034C 90.5614 61.1341 90.4339 61.4239 90.534 61.6812C 90.6341 61.9386 90.9239 62.0661 91.1812 61.966L 90.8188 61.034ZM 100.181 58.466C 100.439 58.3659 100.566 58.0761 100.466 57.8188C 100.366 57.5614 100.076 57.4339 99.8188 57.534L 100.181 58.466ZM 80.2925 59.0451C 80.0413 59.1597 79.9305 59.4563 80.0451 59.7075C 80.1597 59.9587 80.4563 60.0695 80.7075 59.9549L 80.2925 59.0451ZM 109.208 46.9549C 109.459 46.8403 109.57 46.5437 109.455 46.2925C 109.34 46.0413 109.044 45.9305 108.792 46.0451L 109.208 46.9549ZM 83.7549 53.5642C 83.5142 53.6996 83.4288 54.0045 83.5642 54.2451C 83.6996 54.4858 84.0044 54.5712 84.2451 54.4358L 83.7549 53.5642ZM 100.245 45.4358C 100.486 45.3004 100.571 44.9955 100.436 44.7549C 100.3 44.5142 99.9956 44.4288 99.7549 44.5642L 100.245 45.4358ZM 82.7368 48.5749C 82.502 48.7202 82.4295 49.0284 82.5749 49.2632C 82.7202 49.498 83.0284 49.5705 83.2632 49.4251L 82.7368 48.5749ZM 93.7632 42.9251C 93.998 42.7798 94.0705 42.4716 93.9251 42.2368C 93.7798 42.002 93.4716 41.9295 93.2368 42.0749L 93.7632 42.9251ZM 80.177 44.6183C 79.9662 44.7967 79.9399 45.1122 80.1183 45.323C 80.2967 45.5338 80.6122 45.5601 80.823 45.3817L 80.177 44.6183ZM 93.823 34.3817C 94.0338 34.2033 94.0601 33.8878 93.8817 33.677C 93.7033 33.4662 93.3878 33.4399 93.177 33.6183L 93.823 34.3817ZM 78.1637 38.63C 77.9593 38.8158 77.9443 39.132 78.13 39.3363C 78.3158 39.5407 78.632 39.5557 78.8363 39.37L 78.1637 38.63ZM 84.3363 34.37C 84.5407 34.1842 84.5557 33.868 84.37 33.6637C 84.1842 33.4593 83.868 33.4443 83.6637 33.63L 84.3363 34.37ZM 75.1464 33.6464C 74.9512 33.8417 74.9512 34.1583 75.1464 34.3536C 75.3417 34.5488 75.6583 34.5488 75.8536 34.3536L 75.1464 33.6464ZM 78.8536 31.3536C 79.0488 31.1583 79.0488 30.8417 78.8536 30.6464C 78.6583 30.4512 78.3417 30.4512 78.1464 30.6464L 78.8536 31.3536ZM 67.5528 28.7764C 67.4293 29.0234 67.5294 29.3237 67.7764 29.4472C 68.0234 29.5707 68.3237 29.4706 68.4472 29.2236L 67.5528 28.7764ZM 69.9472 26.2236C 70.0707 25.9766 69.9706 25.6763 69.7236 25.5528C 69.4766 25.4293 69.1763 25.5294 69.0528 25.7764L 69.9472 26.2236ZM 60.0659 33.7519C 59.9289 33.9917 60.0122 34.2971 60.2519 34.4341C 60.4917 34.5711 60.7971 34.4878 60.9341 34.2481L 60.0659 33.7519ZM 72.9341 13.2481C 73.0711 13.0083 72.9878 12.7029 72.7481 12.5659C 72.5083 12.4289 72.2029 12.5122 72.0659 12.7519L 72.9341 13.2481ZM 53.55 37.282C 53.4296 37.5306 53.5335 37.8296 53.782 37.95C 54.0306 38.0704 54.3296 37.9665 54.45 37.718L 53.55 37.282ZM 69.95 5.71796C 70.0704 5.46944 69.9665 5.17039 69.718 5.05001C 69.4694 4.92963 69.1704 5.03351 69.05 5.28204L 69.95 5.71796ZM 53.5358 27.3143C 53.4332 27.5707 53.5579 27.8617 53.8143 27.9642C 54.0707 28.0668 54.3617 27.9421 54.4642 27.6857L 53.5358 27.3143ZM 58.4642 17.6857C 58.5668 17.4293 58.4421 17.1383 58.1857 17.0358C 57.9293 16.9332 57.6383 17.0579 57.5358 17.3143L 58.4642 17.6857ZM 48.5358 23.3143C 48.4332 23.5707 48.5579 23.8617 48.8143 23.9642C 49.0707 24.0668 49.3617 23.9421 49.4642 23.6857L 48.5358 23.3143ZM 51.4642 18.6857C 51.5668 18.4293 51.4421 18.1383 51.1857 18.0358C 50.9293 17.9332 50.6383 18.0579 50.5358 18.3143L 51.4642 18.6857ZM 40.5 21.5C 40.5 21.7761 40.7239 22 41 22C 41.2761 22 41.5 21.7761 41.5 21.5L 40.5 21.5ZM 41.5 15.5C 41.5 15.2239 41.2761 15 41 15C 40.7239 15 40.5 15.2239 40.5 15.5L 41.5 15.5ZM 39.5012 36.0346C 39.5203 36.3101 39.7592 36.5179 40.0346 36.4988C 40.3101 36.4797 40.5179 36.2408 40.4988 35.9654L 39.5012 36.0346ZM 37.9988 -0.0346388C 37.9797 -0.310118 37.7408 -0.517929 37.4654 -0.498799C 37.1899 -0.479668 36.9821 -0.24084 37.0012 0.0346388L 37.9988 -0.0346388ZM 36.0077 34.0873C 36.0559 34.3592 36.3154 34.5406 36.5873 34.4923C 36.8592 34.4441 37.0406 34.1846 36.9923 33.9127L 36.0077 34.0873ZM 31.4923 2.91265C 31.4441 2.64076 31.1846 2.45945 30.9127 2.50769C 30.6408 2.55593 30.4594 2.81545 30.5077 3.08735L 31.4923 2.91265ZM 30.0126 30.6114C 30.0741 30.8806 30.3422 31.049 30.6114 30.9874C 30.8806 30.9259 31.049 30.6578 30.9874 30.3886L 30.0126 30.6114ZM 26.9874 12.8886C 26.9259 12.6194 26.6578 12.451 26.3886 12.5126C 26.1194 12.5741 25.951 12.8422 26.0126 13.1114L 26.9874 12.8886ZM 28.5271 39.1623C 28.6167 39.4235 28.9012 39.5626 29.1623 39.4729C 29.4235 39.3833 29.5626 39.0988 29.4729 38.8377L 28.5271 39.1623ZM 17.9729 5.33766C 17.8833 5.07648 17.5988 4.93743 17.3377 5.02709C 17.0765 5.11675 16.9374 5.40116 17.0271 5.66234L 17.9729 5.33766ZM 20.5469 29.2114C 20.6637 29.4617 20.9612 29.5699 21.2114 29.4531C 21.4617 29.3363 21.5699 29.0388 21.4531 28.7886L 20.5469 29.2114ZM 17.9531 21.2886C 17.8363 21.0383 17.5388 20.9301 17.2886 21.0469C 17.0383 21.1637 16.9301 21.4612 17.0469 21.7114L 17.9531 21.2886ZM 19.1 37.8C 19.2657 38.0209 19.5791 38.0657 19.8 37.9C 20.0209 37.7343 20.0657 37.4209 19.9 37.2L 19.1 37.8ZM 9.4 23.2C 9.23431 22.9791 8.92091 22.9343 8.7 23.1C 8.47909 23.2657 8.43431 23.5791 8.6 23.8L 9.4 23.2ZM 16.1963 39.3972C 16.4156 39.5649 16.7294 39.5231 16.8972 39.3037C 17.0649 39.0844 17.0231 38.7706 16.8037 38.6028L 16.1963 39.3972ZM 8.30373 32.1028C 8.08437 31.9351 7.77056 31.9769 7.60282 32.1963C 7.43508 32.4156 7.47692 32.7294 7.69627 32.8972L 8.30373 32.1028ZM 12.3626 41.4808C 12.6282 41.5566 12.9049 41.4029 12.9808 41.1374C 13.0566 40.8718 12.9029 40.5951 12.6374 40.5192L 12.3626 41.4808ZM 9.13736 39.5192C 8.87184 39.4434 8.5951 39.5971 8.51924 39.8626C 8.44338 40.1282 8.59712 40.4049 8.86264 40.4808L 9.13736 39.5192ZM 12.5 45.5C 12.7761 45.5 13 45.2761 13 45C 13 44.7239 12.7761 44.5 12.5 44.5L 12.5 45.5ZM 8 44.5C 7.72386 44.5 7.5 44.7239 7.5 45C 7.5 45.2761 7.72386 45.5 8 45.5L 8 44.5ZM 12.5 52C 12.7761 52 13 51.7761 13 51.5C 13 51.2239 12.7761 51 12.5 51L 12.5 52ZM 6 51C 5.72386 51 5.5 51.2239 5.5 51.5C 5.5 51.7761 5.72386 52 6 52L 6 51ZM 17.5845 55.4928C 17.8567 55.4462 18.0395 55.1877 17.9928 54.9155C 17.9462 54.6433 17.6877 54.4605 17.4155 54.5072L 17.5845 55.4928ZM -0.0844819 57.5072C -0.356654 57.5538 -0.539469 57.8123 -0.492811 58.0845C -0.446153 58.3567 -0.18769 58.5395 0.0844819 58.4928L -0.0844819 57.5072ZM 15.1374 58.4808C 15.4029 58.4049 15.5566 58.1282 15.4808 57.8626C 15.4049 57.5971 15.1282 57.4434 14.8626 57.5192L 15.1374 58.4808ZM 7.86264 59.5192C 7.59712 59.5951 7.44338 59.8718 7.51924 60.1374C 7.5951 60.4029 7.87184 60.5566 8.13736 60.4808L 7.86264 59.5192ZM 16.7236 63.4472C 16.9706 63.3237 17.0707 63.0234 16.9472 62.7764C 16.8237 62.5294 16.5234 62.4293 16.2764 62.5528L 16.7236 63.4472ZM 12.2764 64.5528C 12.0294 64.6763 11.9293 64.9766 12.0528 65.2236C 12.1763 65.4706 12.4766 65.5707 12.7236 65.4472L 12.2764 64.5528ZM 25.2812 65.4135C 25.5095 65.2582 25.5687 64.9472 25.4135 64.7188C 25.2582 64.4905 24.9472 64.4313 24.7188 64.5865L 25.2812 65.4135ZM 12.2188 73.0865C 11.9905 73.2418 11.9313 73.5528 12.0865 73.7812C 12.2418 74.0095 12.5528 74.0687 12.7812 73.9135L 12.2188 73.0865ZM 25.3737 70.8322C 25.5572 70.6258 25.5386 70.3098 25.3322 70.1263C 25.1258 69.9428 24.8098 69.9614 24.6263 70.1678L 25.3737 70.8322ZM 20.6263 74.6678C 20.4428 74.8742 20.4614 75.1902 20.6678 75.3737C 20.8742 75.5572 21.1902 75.5386 21.3737 75.3322L 20.6263 74.6678ZM 91.1812 61.966L 100.181 58.466L 99.8188 57.534L 90.8188 61.034L 91.1812 61.966ZM 80.7075 59.9549L 109.208 46.9549L 108.792 46.0451L 80.2925 59.0451L 80.7075 59.9549ZM 84.2451 54.4358L 100.245 45.4358L 99.7549 44.5642L 83.7549 53.5642L 84.2451 54.4358ZM 83.2632 49.4251L 93.7632 42.9251L 93.2368 42.0749L 82.7368 48.5749L 83.2632 49.4251ZM 80.823 45.3817L 93.823 34.3817L 93.177 33.6183L 80.177 44.6183L 80.823 45.3817ZM 78.8363 39.37L 84.3363 34.37L 83.6637 33.63L 78.1637 38.63L 78.8363 39.37ZM 75.8536 34.3536L 78.8536 31.3536L 78.1464 30.6464L 75.1464 33.6464L 75.8536 34.3536ZM 68.4472 29.2236L 69.9472 26.2236L 69.0528 25.7764L 67.5528 28.7764L 68.4472 29.2236ZM 60.9341 34.2481L 72.9341 13.2481L 72.0659 12.7519L 60.0659 33.7519L 60.9341 34.2481ZM 54.45 37.718L 69.95 5.71796L 69.05 5.28204L 53.55 37.282L 54.45 37.718ZM 54.4642 27.6857L 58.4642 17.6857L 57.5358 17.3143L 53.5358 27.3143L 54.4642 27.6857ZM 49.4642 23.6857L 51.4642 18.6857L 50.5358 18.3143L 48.5358 23.3143L 49.4642 23.6857ZM 41.5 21.5L 41.5 15.5L 40.5 15.5L 40.5 21.5L 41.5 21.5ZM 40.4988 35.9654L 37.9988 -0.0346388L 37.0012 0.0346388L 39.5012 36.0346L 40.4988 35.9654ZM 36.9923 33.9127L 31.4923 2.91265L 30.5077 3.08735L 36.0077 34.0873L 36.9923 33.9127ZM 30.9874 30.3886L 26.9874 12.8886L 26.0126 13.1114L 30.0126 30.6114L 30.9874 30.3886ZM 29.4729 38.8377L 17.9729 5.33766L 17.0271 5.66234L 28.5271 39.1623L 29.4729 38.8377ZM 21.4531 28.7886L 17.9531 21.2886L 17.0469 21.7114L 20.5469 29.2114L 21.4531 28.7886ZM 19.9 37.2L 9.4 23.2L 8.6 23.8L 19.1 37.8L 19.9 37.2ZM 16.8037 38.6028L 8.30373 32.1028L 7.69627 32.8972L 16.1963 39.3972L 16.8037 38.6028ZM 12.6374 40.5192L 9.13736 39.5192L 8.86264 40.4808L 12.3626 41.4808L 12.6374 40.5192ZM 12.5 44.5L 8 44.5L 8 45.5L 12.5 45.5L 12.5 44.5ZM 12.5 51L 6 51L 6 52L 12.5 52L 12.5 51ZM 17.4155 54.5072L -0.0844819 57.5072L 0.0844819 58.4928L 17.5845 55.4928L 17.4155 54.5072ZM 14.8626 57.5192L 7.86264 59.5192L 8.13736 60.4808L 15.1374 58.4808L 14.8626 57.5192ZM 16.2764 62.5528L 12.2764 64.5528L 12.7236 65.4472L 16.7236 63.4472L 16.2764 62.5528ZM 24.7188 64.5865L 12.2188 73.0865L 12.7812 73.9135L 25.2812 65.4135L 24.7188 64.5865ZM 24.6263 70.1678L 20.6263 74.6678L 21.3737 75.3322L 25.3737 70.8322L 24.6263 70.1678Z"/>
<path id="path16_stroke" d="M 2 -4C 0.895431 -4 0 -3.10457 0 -2C 0 -0.895431 0.895431 0 2 0L 2 -4ZM 38.5216 0C 39.6262 0 40.5216 -0.895431 40.5216 -2C 40.5216 -3.10457 39.6262 -4 38.5216 -4L 38.5216 0ZM 2 0L 38.5216 0L 38.5216 -4L 2 -4L 2 0Z"/>
</defs>
</svg>
