<svg width="500" height="500" viewBox="0 0 500 500" version="1.1" xmlns="http://www.w3.org/2000/svg" xmlns:xlink="http://www.w3.org/1999/xlink" xmlns:figma="http://www.figma.com/figma/ns">
<title>episode4</title>
<desc>Created using Figma</desc>
<g id="Canvas" transform="translate(404 266)" figma:type="canvas">
<mask id="mask0_alpha" mask-type="alpha">
<path d="M -404 -266L 96 -266L 96 234L -404 234L -404 -266Z" fill="#FFFFFF"/>
</mask>
<g id="episode4" style="mix-blend-mode:normal;isolation:isolate;" mask="url(#mask0_alpha)" figma:type="frame">
<g id="Vector 27" style="mix-blend-mode:normal;" figma:type="vector">
<use xlink:href="#path0_stroke" transform="translate(-262.667 49)" fill="#FFFFFF" style="mix-blend-mode:normal;"/>
</g>
<g id="Vector 27" style="mix-blend-mode:normal;" figma:type="vector">
<use xlink:href="#path1_stroke" transform="translate(-161 49)" fill="#FFFFFF" style="mix-blend-mode:normal;"/>
</g>
<g id="Vector 27" style="mix-blend-mode:normal;" figma:type="vector">
<use xlink:href="#path2_stroke" transform="translate(-54.2385 48.5)" fill="#FFFFFF" style="mix-blend-mode:normal;"/>
</g>
<g id="Vector 27" style="mix-blend-mode:normal;" figma:type="vector">
<use xlink:href="#path3_stroke" transform="translate(-109 211)" fill="#FFFFFF" style="mix-blend-mode:normal;"/>
</g>
<g id="Vector 27" style="mix-blend-mode:normal;" figma:type="vector">
<use xlink:href="#path3_stroke" transform="translate(-101 221)" fill="#FFFFFF" style="mix-blend-mode:normal;"/>
</g>
<g id="Vector 27" style="mix-blend-mode:normal;" figma:type="vector">
<use xlink:href="#path3_stroke" transform="translate(-219 211)" fill="#FFFFFF" style="mix-blend-mode:normal;"/>
</g>
<g id="Vector 27" style="mix-blend-mode:normal;" figma:type="vector">
<use xlink:href="#path3_stroke" transform="translate(-129 131)" fill="#FFFFFF" style="mix-blend-mode:normal;"/>
</g>
<g id="Vector 27" style="mix-blend-mode:normal;" figma:type="vector">
<use xlink:href="#path3_stroke" transform="translate(-239 131)" fill="#FFFFFF" style="mix-blend-mode:normal;"/>
</g>
<g id="Vector 27" style="mix-blend-mode:normal;" figma:type="vector">
<use xlink:href="#path3_stroke" transform="translate(-211 221)" fill="#FFFFFF" style="mix-blend-mode:normal;"/>
</g>
<g id="Vector 28" style="mix-blend-mode:normal;" figma:type="vector">
<use xlink:href="#path4_stroke" transform="translate(-235.5 -246.5)" fill="#FFFFFF" style="mix-blend-mode:normal;"/>
</g>
<g id="Ellipse 6" style="mix-blend-mode:normal;" figma:type="ellipse">
<mask id="mask1_outline_ins">
<use xlink:href="#path5_fill" fill="white" transform="translate(-48 -82)"/>
</mask>
<g mask="url(#mask1_outline_ins)">
<use xlink:href="#path6_stroke_2x" transform="translate(-48 -82)" fill="#FFFFFF" style="mix-blend-mode:normal;"/>
</g>
</g>
<g id="Ellipse 6" style="mix-blend-mode:normal;" figma:type="ellipse">
<mask id="mask2_outline_ins">
<use xlink:href="#path7_fill" fill="white" transform="translate(-8 -42)"/>
</mask>
<g mask="url(#mask2_outline_ins)">
<use xlink:href="#path8_stroke_2x" transform="translate(-8 -42)" fill="#FFFFFF" style="mix-blend-mode:normal;"/>
</g>
</g>
<g id="Ellipse 6" style="mix-blend-mode:normal;" figma:type="ellipse">
<mask id="mask3_outline_ins">
<use xlink:href="#path7_fill" fill="white" transform="translate(-338 -192)"/>
</mask>
<g mask="url(#mask3_outline_ins)">
<use xlink:href="#path8_stroke_2x" transform="translate(-338 -192)" fill="#FFFFFF" style="mix-blend-mode:normal;"/>
</g>
</g>
<g id="Vector 29" style="mix-blend-mode:normal;" figma:type="vector">
<use xlink:href="#path9_stroke" transform="translate(-374.185 -49)" fill="#FFFFFF" style="mix-blend-mode:normal;"/>
</g>
<g id="Vector 29" style="mix-blend-mode:normal;" figma:type="vector">
<use xlink:href="#path9_stroke" transform="translate(-4.18451 1)" fill="#FFFFFF" style="mix-blend-mode:normal;"/>
</g>
<g id="Vector 29" style="mix-blend-mode:normal;" figma:type="vector">
<use xlink:href="#path10_stroke" transform="matrix(0.972834 -0.231502 0.231502 0.972834 -318.843 -43.2686)" fill="#FFFFFF" style="mix-blend-mode:normal;"/>
</g>
<g id="Vector 29" style="mix-blend-mode:normal;" figma:type="vector">
<use xlink:href="#path11_stroke" transform="translate(-355.5 -101)" fill="#FFFFFF" style="mix-blend-mode:normal;"/>
</g>
<g id="Vector 30" style="mix-blend-mode:normal;" figma:type="vector">
<use xlink:href="#path12_stroke" transform="translate(-132.674 -19)" fill="#FFFFFF" style="mix-blend-mode:normal;"/>
</g>
<g id="Vector 30" style="mix-blend-mode:normal;" figma:type="vector">
<use xlink:href="#path13_stroke" transform="matrix(-1 0 0 1 -85 -12)" fill="#FFFFFF" style="mix-blend-mode:normal;"/>
</g>
<g id="Vector 31" style="mix-blend-mode:normal;" figma:type="vector">
<use xlink:href="#path14_stroke" transform="translate(-271.704 -131.324)" fill="#FFFFFF" style="mix-blend-mode:normal;"/>
</g>
<g id="Vector 32" style="mix-blend-mode:normal;" figma:type="vector">
<use xlink:href="#path15_stroke" transform="translate(0 20)" fill="#FFFFFF" style="mix-blend-mode:normal;"/>
</g>
<g id="Vector 33" style="mix-blend-mode:normal;" figma:type="vector">
<use xlink:href="#path16_stroke" transform="translate(-38 -212.5)" fill="#FFFFFF" style="mix-blend-mode:normal;"/>
</g>
</g>
</g>
<defs>
<path id="path0_stroke" d="M 1.1786 0.0434259C 1.20258 -0.508338 0.774728 -0.975073 0.222965 -0.999057C -0.328799 -1.02304 -0.795534 -0.59519 -0.819518 -0.0434259L 1.1786 0.0434259ZM 77.3345 203.943C 77.8554 204.127 78.4264 203.853 78.6098 203.332C 78.7933 202.811 78.5197 202.24 77.9988 202.057L 77.3345 203.943ZM -0.819518 -0.0434259C -1.63182 18.6735 0.325625 52.9609 4.75757 86.4313C 6.97412 103.167 9.81569 119.742 13.2377 134.07C 16.6577 148.387 20.682 160.571 25.3025 168.503L 27.0307 167.497C 22.5637 159.829 18.593 147.88 15.183 133.605C 11.775 119.341 8.95145 102.867 6.74026 86.1687C 2.31673 52.7724 0.368133 18.6599 1.1786 0.0434259L -0.819518 -0.0434259ZM 25.3025 168.503C 34.486 184.268 44.432 192.079 53.6882 196.478C 58.2896 198.662 62.7272 200.006 66.7299 201.058C 70.7368 202.11 74.3183 202.879 77.3345 203.943L 77.9988 202.057C 74.8619 200.954 71.2013 200.165 67.2381 199.123C 63.2707 198.081 59.0102 196.796 54.5467 194.672C 45.6732 190.454 36.0222 182.932 27.0307 167.497L 25.3025 168.503Z"/>
<path id="path1_stroke" d="M 1.62345 0.0501561C 1.65116 -0.501434 1.22646 -0.971041 0.67487 -0.998741C 0.12328 -1.02644 -0.346327 -0.601746 -0.374028 -0.0501561L 1.62345 0.0501561ZM 94.7085 214.957C 95.2367 215.118 95.7955 214.82 95.9566 214.292C 96.1176 213.763 95.8198 213.204 95.2915 213.043L 94.7085 214.957ZM -0.374028 -0.0501561C -1.36315 19.6515 -1.46129 51.2967 1.45739 82.1101C 4.37165 112.864 10.3101 143.061 21.536 159.741L 23.1952 158.624C 12.2849 142.413 6.36471 112.697 3.44847 81.9214C 0.536626 51.2054 0.636135 19.7048 1.62345 0.0501561L -0.374028 -0.0501561ZM 21.536 159.741C 43.8362 192.875 79.5709 210.343 94.7085 214.957L 95.2915 213.043C 80.453 208.521 45.1674 191.271 23.1952 158.624L 21.536 159.741Z"/>
<path id="path2_stroke" d="M 1.23706 0.0534947C 1.26661 -0.497999 0.843485 -0.969024 0.291991 -0.998568C -0.259503 -1.02811 -0.730527 -0.604989 -0.760071 -0.0534947L 1.23706 0.0534947ZM 95.4638 203.962C 95.9948 204.113 96.5483 203.806 96.7 203.275C 96.8517 202.744 96.5443 202.19 96.0132 202.038L 95.4638 203.962ZM -0.760071 -0.0534947C -1.76146 18.6757 0.396174 48.7403 5.604 77.9754C 10.8056 107.168 19.0833 135.784 30.4262 151.583L 32.0508 150.417C 20.9936 135.016 12.7714 106.799 7.57299 77.6246C 2.38082 48.493 0.238456 18.6576 1.23706 0.0534947L -0.760071 -0.0534947ZM 30.4262 151.583C 52.9323 182.931 80.042 199.555 95.4638 203.962L 96.0132 202.038C 81.1016 197.778 54.3447 181.469 32.0508 150.417L 30.4262 151.583Z"/>
<path id="path3_stroke" d="M 0.50873 -0.860926C 0.033254 -1.14189 -0.579962 -0.984207 -0.860926 -0.50873C -1.14189 -0.033254 -0.984207 0.579962 -0.50873 0.860926L 0.50873 -0.860926ZM 52.9096 0.91227C 53.4134 0.686059 53.6385 0.0942421 53.4123 -0.40959C 53.1861 -0.913423 52.5942 -1.13848 52.0904 -0.91227L 52.9096 0.91227ZM -0.50873 0.860926C 10.7594 7.51936 28.1014 12.0507 52.9096 0.91227L 52.0904 -0.91227C 27.8987 9.94934 11.2406 5.48063 0.50873 -0.860926L -0.50873 0.860926Z"/>
<path id="path4_stroke" d="M 82.5 30L 83.4985 30.0538L 83.6547 27.1588L 81.747 29.342L 82.5 30ZM 37.5 81.5L 36.747 80.842L 35.444 82.3332L 37.4175 82.4966L 37.5 81.5ZM 88 0L 88.4769 -0.878935L 88.0472 -1.11215L 87.5992 -0.916157L 88 0ZM 8 35L 7.59918 34.0838L 7.06356 34.3182L 7.00502 34.8999L 8 35ZM 0 114.5L -0.994975 114.4L -1.0539 114.985L -0.570596 115.321L 0 114.5ZM 77 168L 76.4294 168.821L 77.0056 169.222L 77.5782 168.816L 77 168ZM 152.5 114.5L 153.078 115.316L 153.5 115.017L 153.5 114.5L 152.5 114.5ZM 152.5 35L 153.5 35L 153.5 34.4049L 152.977 34.1211L 152.5 35ZM 77.9985 132.054L 83.4985 30.0538L 81.5015 29.9462L 76.0015 131.946L 77.9985 132.054ZM 81.747 29.342L 36.747 80.842L 38.253 82.158L 83.253 30.658L 81.747 29.342ZM 37.4175 82.4966L 115.917 88.9966L 116.083 87.0034L 37.5825 80.5034L 37.4175 82.4966ZM 87.5992 -0.916157L 7.59918 34.0838L 8.40082 35.9162L 88.4008 0.916157L 87.5992 -0.916157ZM 7.00502 34.8999L -0.994975 114.4L 0.994975 114.6L 8.99498 35.1001L 7.00502 34.8999ZM -0.570596 115.321L 76.4294 168.821L 77.5706 167.179L 0.570596 113.679L -0.570596 115.321ZM 77.5782 168.816L 153.078 115.316L 151.922 113.684L 76.4218 167.184L 77.5782 168.816ZM 153.5 114.5L 153.5 35L 151.5 35L 151.5 114.5L 153.5 114.5ZM 152.977 34.1211L 88.4769 -0.878935L 87.5231 0.878935L 152.023 35.8789L 152.977 34.1211Z"/>
<path id="path5_fill" d="M 18 9C 18 13.9706 13.9706 18 9 18C 4.02944 18 0 13.9706 0 9C 0 4.02944 4.02944 0 9 0C 13.9706 0 18 4.02944 18 9Z"/>
<path id="path6_stroke_2x" d="M 17 9C 17 13.4183 13.4183 17 9 17L 9 19C 14.5228 19 19 14.5228 19 9L 17 9ZM 9 17C 4.58172 17 1 13.4183 1 9L -1 9C -1 14.5228 3.47715 19 9 19L 9 17ZM 1 9C 1 4.58172 4.58172 1 9 1L 9 -1C 3.47715 -1 -1 3.47715 -1 9L 1 9ZM 9 1C 13.4183 1 17 4.58172 17 9L 19 9C 19 3.47715 14.5228 -1 9 -1L 9 1Z"/>
<path id="path7_fill" d="M 9 4.5C 9 6.98528 6.98528 9 4.5 9C 2.01472 9 0 6.98528 0 4.5C 0 2.01472 2.01472 0 4.5 0C 6.98528 0 9 2.01472 9 4.5Z"/>
<path id="path8_stroke_2x" d="M 8 4.5C 8 6.433 6.433 8 4.5 8L 4.5 10C 7.53757 10 10 7.53757 10 4.5L 8 4.5ZM 4.5 8C 2.567 8 1 6.433 1 4.5L -1 4.5C -1 7.53757 1.46243 10 4.5 10L 4.5 8ZM 1 4.5C 1 2.567 2.567 1 4.5 1L 4.5 -1C 1.46243 -1 -1 1.46243 -1 4.5L 1 4.5ZM 4.5 1C 6.433 1 8 2.567 8 4.5L 10 4.5C 10 1.46243 7.53757 -1 4.5 -1L 4.5 1Z"/>
<path id="path9_stroke" d="M 1.18452 0L 1.18452 -0.5L 0.745057 -0.5L 0.688655 -0.0641708L 1.18452 0ZM 8.68452 52L 8.38951 52.4037L 8.5213 52.5L 8.68452 52.5L 8.68452 52ZM 57.1845 45.5L 57.39 45.9558L 57.2215 45.0014L 57.1845 45.5ZM 41.1845 0L 41.5381 0.353553L 42.3916 -0.5L 41.1845 -0.5L 41.1845 0ZM 0.688655 -0.0641708C -0.229798 7.03493 -0.957136 18.1865 -0.151456 28.5015C 0.252573 33.6609 1.04725 38.653 2.39159 42.8148C 3.73862 46.98 5.665 50.4127 8.38951 52.4037L 8.97953 51.5963C 6.50404 49.7873 4.66375 46.5908 3.34307 42.5071C 2.01971 38.4199 1.24564 33.5433 0.845498 28.4235C 0.0428435 18.1801 0.765505 7.13174 1.68039 0.0641708L 0.688655 -0.0641708ZM 8.68452 52.5C 32.6841 52.5 45.449 51.3377 57.39 45.9558L 56.9791 45.0442C 45.2534 50.329 32.685 51.5 8.68452 51.5L 8.68452 52.5ZM 57.2215 45.0014C 53.0005 44.6887 43.6578 40.046 41.681 23.4409L 40.688 23.5591C 42.7112 40.554 52.3685 45.6446 57.1476 45.9986L 57.2215 45.0014ZM 41.681 23.4409C 40.683 15.0612 40.4762 9.43407 40.6216 5.78235C 40.6933 3.96702 40.8497 2.67209 41.041 1.76374C 41.1343 1.31771 41.2285 0.99502 41.3283 0.743532C 41.4266 0.49464 41.5054 0.386254 41.5381 0.353553L 40.831 -0.353553C 40.6553 -0.17792 40.5154 0.0793181 40.3981 0.37639C 40.2825 0.670865 40.1644 1.07448 40.0624 1.55814C 39.8631 2.50916 39.6965 3.88714 39.6224 5.74265C 39.4762 9.43259 39.686 15.1388 40.688 23.5591L 41.681 23.4409ZM 41.1845 -0.5L 1.18452 -0.5L 1.18452 0.5L 41.1845 0.5L 41.1845 -0.5Z"/>
<path id="path10_stroke" d="M 0.894754 0L 0.894754 -0.5L 0.451091 -0.5L 0.398305 -0.0594885L 0.894754 0ZM 6.56004 42.4208L 6.25028 42.8133L 6.38651 42.9208L 6.56004 42.9208L 6.56004 42.4208ZM 43.1956 37.1182L 43.4144 37.5678L 45.0618 36.7659L 43.2355 36.6198L 43.1956 37.1182ZM 31.1096 0L 31.4765 0.339708L 32.254 -0.5L 31.1096 -0.5L 31.1096 0ZM 0.398305 -0.0594885C -0.295655 5.73362 -0.845307 14.8367 -0.236564 23.2554C 0.0688319 27.4666 0.67024 31.5459 1.68692 34.9456C 2.70497 38.3453 4.16588 41.1683 6.25028 42.8133L 6.8698 42.0283C 5.02628 40.5734 3.64195 37.9884 2.64489 34.6587C 1.64645 31.3291 1.06287 27.3576 0.760823 23.1832C 0.154676 14.8307 0.700313 5.82333 1.3912 0.0594885L 0.398305 -0.0594885ZM 6.56004 42.9208C 24.6894 42.9208 34.3625 41.9738 43.4144 37.5678L 42.9768 36.6686C 34.1516 40.9643 24.6885 41.9208 6.56004 41.9208L 6.56004 42.9208ZM 43.2355 36.6198C 40.1404 36.3722 33.099 32.6544 31.6066 19.1162L 30.6126 19.2257C 32.1418 33.0978 39.4524 37.3204 43.1557 37.6166L 43.2355 36.6198ZM 31.6066 19.1162C 30.853 12.2824 30.6969 7.69626 30.8067 4.71934C 30.8608 3.24066 30.9783 2.18898 31.1224 1.45044C 31.1924 1.08886 31.2621 0.830756 31.3366 0.628442C 31.3714 0.532269 31.398 0.471812 31.4298 0.413266C 31.4567 0.361509 31.4924 0.324426 31.4765 0.339708L 30.7428 -0.339708C 30.5968 -0.182048 30.4866 0.0409052 30.3973 0.285173C 30.309 0.528248 30.2184 0.862648 30.1408 1.25949C 29.9898 2.0378 29.8635 3.16665 29.8074 4.68258C 29.6969 7.69489 29.8556 12.3543 30.6126 19.2257L 31.6066 19.1162ZM 31.1096 -0.5L 0.894754 -0.5L 0.894754 0.5L 31.1096 0.5L 31.1096 -0.5Z"/>
<path id="path11_stroke" d="M 0.388287 0L 0.388287 -0.5L -0.0455728 -0.5L -0.106722 -0.0704706L 0.388287 0ZM 7.82176 44.9592L 7.36128 45.154L 7.4904 45.4592L 7.82176 45.4592L 7.82176 44.9592ZM 53 41.0685L 53.1896 41.5311L 53.0336 40.5696L 53 41.0685ZM 44.1398 0L 44.4762 0.369981L 45.4332 -0.5L 44.1398 -0.5L 44.1398 0ZM -0.106722 -0.0704706C -0.989722 6.13202 -0.309632 14.6234 1.17556 22.9457C 2.66227 31.2732 4.97207 39.5045 7.36128 45.154L 8.28224 44.7643C 5.91585 39.174 3.63705 31.05 2.16 22.77C 0.681423 14.4848 0.0225755 6.11646 0.883296 0.0704706L -0.106722 -0.0704706ZM 7.82176 45.4592C 30.5872 45.4592 41.8183 46.19 53.1896 41.5311L 52.8104 40.6058C 41.6718 45.1693 30.7101 44.4592 7.82176 44.4592L 7.82176 45.4592ZM 53.0336 40.5696C 51.1743 40.4444 49.5519 39.1059 48.1372 35.8337C 46.724 32.565 45.5856 27.5073 44.6356 20.2532L 43.6441 20.383C 44.5963 27.6541 45.748 32.8276 47.2193 36.2306C 48.6891 39.6303 50.5456 41.4043 52.9664 41.5673L 53.0336 40.5696ZM 44.6356 20.2532C 43.6869 13.0128 43.4906 8.15687 43.6288 5.00408C 43.6967 3.43925 43.8441 2.32918 44.0251 1.54863C 44.1129 1.16706 44.1997 0.896455 44.2929 0.683282C 44.3835 0.474573 44.4531 0.390909 44.4762 0.369981L 43.8035 -0.369981C 43.6284 -0.210784 43.49 0.0216705 43.3756 0.285002C 43.2639 0.543868 43.1488 0.901222 43.0508 1.32346C 42.8602 2.15052 42.7006 3.35146 42.6298 4.96042C 42.4906 8.15524 42.6905 13.0981 43.6441 20.383L 44.6356 20.2532ZM 44.1398 -0.5L 0.388287 -0.5L 0.388287 0.5L 44.1398 0.5L 44.1398 -0.5Z"/>
<path id="path12_stroke" d="M 23.6983 8.78307C 23.5785 9.3222 23.9184 9.85638 24.4575 9.97619C 24.9967 10.096 25.5308 9.75606 25.6506 9.21693L 23.6983 8.78307ZM 16.6745 8.50001L 16.0745 7.70001L 16.0745 7.70001L 16.6745 8.50001ZM 1.17446 13L 1.88156 12.2929L 1.88156 12.2929L 1.17446 13ZM 3.33082 9.03688C 3.62733 9.50283 4.24542 9.64018 4.71136 9.34367C 5.1773 9.04716 5.31465 8.42907 5.01814 7.96313L 3.33082 9.03688ZM 6.07889 0.200944C 6.18987 -0.340075 5.84125 -0.868624 5.30023 -0.979603C 4.75921 -1.09058 4.23066 -0.741964 4.11969 -0.200944L 6.07889 0.200944ZM 19.6744 63L 19.2272 63.8944C 19.5372 64.0494 19.9054 64.0329 20.2002 63.8507C 20.495 63.6684 20.6744 63.3466 20.6744 63L 19.6744 63ZM 19.6744 59.5L 20.4026 58.8146C 20.1217 58.5161 19.6869 58.4193 19.3058 58.5704C 18.9247 58.7216 18.6744 59.09 18.6744 59.5L 19.6744 59.5ZM 27.6745 68L 26.9463 68.6854C 27.1531 68.9052 27.4482 69.0198 27.7492 68.9972C 28.0502 68.9747 28.3249 68.8174 28.4967 68.5692L 27.6745 68ZM 32.1745 61.5L 32.1745 60.5C 31.8463 60.5 31.5391 60.661 31.3523 60.9308L 32.1745 61.5ZM 36.1745 61.5L 36.1745 62.5C 36.6355 62.5 37.0367 62.1848 37.146 61.737L 36.1745 61.5ZM 43.6745 42L 42.6845 41.8586L 43.6745 42ZM 46.1706 -0.0878938C 46.1221 -0.638041 45.6367 -1.04467 45.0866 -0.99613C 44.5364 -0.947587 44.1298 -0.462254 44.1783 0.0878938L 46.1706 -0.0878938ZM 25.6506 9.21693C 25.8296 8.4117 25.4663 7.64925 24.9827 7.11305C 24.479 6.55465 23.7429 6.10935 22.859 5.87178C 21.0605 5.38836 18.6658 5.7565 16.0745 7.70001L 17.2745 9.30001C 19.4831 7.64352 21.2551 7.51165 22.3399 7.80323C 22.8977 7.95316 23.2824 8.2141 23.4975 8.45258C 23.7409 8.69393 23.6368 8.87915 23.6983 8.78307L 25.6506 9.21693ZM 16.0745 7.70001C 13.1165 9.92016 10.1285 11.7179 7.47682 12.616C 4.80917 13.5254 2.95301 13.3643 1.88156 12.2929L 0.467362 13.7071C 2.39596 15.6357 5.28982 15.4746 8.12217 14.509C 10.9704 13.5321 14.2325 11.5799 17.2745 9.30001L 16.0745 7.70001ZM 1.88156 12.2929C 1.14327 11.5546 0.987354 10.9753 1.0008 10.5969C 1.01468 10.2064 1.21592 9.82347 1.58381 9.49995C 1.98124 9.13455 2.36545 8.96661 2.82262 8.93195C 3.22805 8.89052 3.32097 9.02141 3.33082 9.03688L 5.01814 7.96313C 4.44466 7.06194 3.43307 6.85916 2.61931 6.94231C 1.8573 7.03224 0.907657 7.44713 0.263074 7.99807C -0.41105 8.59088 -0.959982 9.45773 -0.997937 10.5259C -1.03632 11.606 -0.545723 12.6941 0.467362 13.7071L 1.88156 12.2929ZM 4.11969 -0.200944C 3.76226 1.5415 3.62282 4.88062 3.64543 8.95399C 3.66832 13.0562 3.858 18.0207 4.18904 23.0532C 4.84791 33.0666 6.07803 43.5792 7.72997 48.3285L 9.61896 47.6715C 8.07091 43.2208 6.84677 32.9834 6.18472 22.9218C 5.8553 17.9168 5.66784 13.0125 5.64539 8.94289C 5.62265 4.84438 5.76965 1.7085 6.07889 0.200944L 4.11969 -0.200944ZM 7.72997 48.3285C 11.0044 57.7426 16.6319 62.5968 19.2272 63.8944L 20.1217 62.1056C 18.0503 61.0699 12.7445 56.6574 9.61896 47.6715L 7.72997 48.3285ZM 20.6744 63L 20.6744 59.5L 18.6744 59.5L 18.6744 63L 20.6744 63ZM 18.9463 60.1854L 26.9463 68.6854L 28.4027 67.3146L 20.4026 58.8146L 18.9463 60.1854ZM 28.4967 68.5692L 32.9967 62.0692L 31.3523 60.9308L 26.8523 67.4308L 28.4967 68.5692ZM 32.1745 62.5L 36.1745 62.5L 36.1745 60.5L 32.1745 60.5L 32.1745 62.5ZM 37.146 61.737C 37.9235 58.4853 39.3635 56.3508 40.8646 53.6043C 42.3596 50.8657 43.8836 47.5328 44.6644 42.1414L 42.6845 41.8586C 41.9653 46.9672 40.5726 49.9676 39.1093 52.6457C 37.6521 55.3158 36.0921 57.6814 35.2029 61.263L 37.146 61.737ZM 44.6644 42.1414C 45.9227 33.332 47.6744 17.0096 46.1706 -0.0878938L 44.1783 0.0878938C 45.6745 16.9904 43.9382 33.0836 42.6845 41.8586L 44.6644 42.1414Z"/>
<path id="path13_stroke" d="M 21.902 2.10452C 21.79 2.64532 22.1376 3.17455 22.6784 3.28658C 23.2192 3.3986 23.7484 3.05101 23.8604 2.51021L 21.902 2.10452ZM 15.4627 1.80998L 14.8358 1.03085L 15.4627 1.80998ZM 1.08911 6.28654L 1.82058 5.60466L 1.82058 5.60466L 1.08911 6.28654ZM 3.01104 2.32017C 3.29282 2.79517 3.9063 2.95181 4.3813 2.67004C 4.8563 2.38826 5.01293 1.77478 4.73116 1.29978L 3.01104 2.32017ZM 23.8604 2.51021C 24.0203 1.73844 23.6987 0.993949 23.2438 0.452976C 22.7724 -0.107797 22.0768 -0.561722 21.2341 -0.804719C 19.5125 -1.30113 17.2507 -0.912104 14.8358 1.03085L 16.0895 2.58911C 18.1258 0.950816 19.7278 0.842442 20.68 1.11699C 21.1741 1.25947 21.518 1.50812 21.713 1.74006C 21.9247 1.99181 21.8967 2.1302 21.902 2.10452L 23.8604 2.51021ZM 14.8358 1.03085C 12.0958 3.23712 9.33774 5.01799 6.8892 5.90694C 4.4334 6.80505 2.7783 6.63204 1.82058 5.60466L 0.35764 6.96841C 2.18194 8.9254 4.93165 8.75238 7.57613 7.78527C 10.2279 6.80898 13.2656 4.85939 16.0895 2.58911L 14.8358 1.03085ZM 1.82058 5.60466C 1.14299 4.87779 0.987509 4.29436 1.00078 3.89372C 1.0144 3.48244 1.21112 3.09774 1.54254 2.78509C 1.88309 2.46382 2.3037 2.28009 2.63219 2.24408C 2.96094 2.20804 3.00906 2.31683 3.01104 2.32017L 4.73116 1.29978C 4.1922 0.391238 3.21608 0.168094 2.41425 0.25599C 1.61216 0.343915 0.795857 0.73998 0.170123 1.33027C -0.46474 1.92918 -0.963684 2.7878 -0.998124 3.82751C -1.03292 4.87785 -0.588863 5.95307 0.35764 6.96841L 1.82058 5.60466Z"/>
<path id="path14_stroke" d="M 21.7043 45.8238L 20.7905 46.23L 21.0377 46.7864L 21.6455 46.8221L 21.7043 45.8238ZM 28.6928 46.2349L 28.634 47.2332L 28.6928 46.2349ZM 35.2043 40.3238L 35.9725 40.964L 36.3815 40.4732L 36.108 39.8958L 35.2043 40.3238ZM 19.7043 27.8238L 18.7939 28.2376L 20.7043 27.8238L 19.7043 27.8238ZM 21.7043 26.3238L 20.7043 26.3238L 22.5987 26.771L 21.7043 26.3238ZM 25.7043 33.1572L 26.1104 34.071L 26.1188 34.0672L 26.1272 34.0633L 25.7043 33.1572ZM 18.8154 39.3238L 17.9016 39.73L 17.9016 39.73L 18.8154 39.3238ZM 34.0793 37.9488L 34.983 37.5207L 34.983 37.5207L 34.0793 37.9488ZM 20.7043 43.5739L 19.7905 43.98L 19.7905 43.98L 20.7043 43.5739ZM 31.1736 45.1607L 30.4054 44.5205L 31.1736 45.1607ZM 13.1941 29.4807L 12.6941 30.3467L 13.1941 29.4807ZM 28.1227 22.5411L 27.1453 22.3299L 28.1227 22.5411ZM 21.6455 46.8221L 28.634 47.2332L 28.7515 45.2367L 21.763 44.8256L 21.6455 46.8221ZM 31.9418 45.8009L 35.9725 40.964L 34.436 39.6837L 30.4054 44.5205L 31.9418 45.8009ZM 18.6122 36.4048L 16.3102 31.417L 14.4942 32.2551L 16.7963 37.2429L 18.6122 36.4048ZM 27.5375 26.3487L 29.7963 31.2429L 31.6122 30.4048L 29.3534 25.5106L 27.5375 26.3487ZM 13.6942 28.6147C 3.86063 22.9367 0.789708 17.2585 1.01119 12.773C 1.23449 8.2505 4.82582 4.3849 9.55069 2.38802C 14.2705 0.393299 19.7454 0.428803 23.4496 3.27507C 27.0936 6.07512 29.399 11.901 27.1453 22.3299L 29.1001 22.7524C 31.4334 11.9558 29.1871 5.16144 24.6682 1.68918C 20.2095 -1.73688 13.9103 -1.62576 8.77211 0.545793C 3.63901 2.7152 -0.71146 7.10654 -0.986379 12.6744C -1.26312 18.2792 2.6113 24.5248 12.6941 30.3467L 13.6942 28.6147ZM 22.2814 33.5843L 17.2814 35.9177L 18.1271 37.73L 23.1272 35.3967L 22.2814 33.5843ZM 23.453 33.8277C 21.961 32.1424 19.8921 29.6885 18.4892 27.7499C 17.7717 26.7589 17.3029 26.0021 17.14 25.5811C 17.1029 25.4887 17.1059 25.4609 17.1043 25.4786C 17.1051 25.4862 17.1297 25.6909 16.9719 25.9186C 16.7833 26.1907 16.513 26.2499 16.3984 26.2562C 16.3088 26.2611 16.2906 26.24 16.388 26.2725L 17.0205 24.3751C 16.8179 24.3076 16.5606 24.2442 16.288 24.2592C 15.9902 24.2757 15.5928 24.3974 15.328 24.7794C 15.094 25.1171 15.0935 25.479 15.1151 25.6861C 15.1375 25.8678 15.2041 26.1169 15.2748 26.303C 15.5431 26.9963 16.1618 27.9457 16.8693 28.9228C 18.3164 30.9203 20.4475 33.4497 21.9555 35.1533L 23.453 33.8277ZM 16.388 26.2725C 18.6317 27.0204 18.7043 27.9706 18.7043 27.8238L 20.7043 27.8238C 20.7043 26.677 19.5768 25.2272 17.0205 24.3751L 16.388 26.2725ZM 20.6146 27.41C 20.2047 26.5082 19.7531 25.3105 19.6294 24.5299C 19.5989 24.3432 19.5909 24.2577 19.602 24.1641C 19.6088 24.0849 19.6189 24.2076 19.4848 24.3558C 19.2994 24.5606 19.0639 24.5795 18.9751 24.5687C 18.9414 24.5726 19.0129 24.5712 19.1898 24.6813L 20.2188 22.9663C 19.9179 22.7858 19.5764 22.6271 19.2166 22.5833C 18.8121 22.5341 18.3461 22.6334 18.0019 23.0137C 17.7089 23.3374 17.6318 23.7307 17.6093 23.9933C 17.591 24.2415 17.6117 24.569 17.6541 24.8427C 17.8221 25.9038 18.3705 27.3061 18.7939 28.2376L 20.6146 27.41ZM 19.1898 24.6813C 20.1107 25.2339 20.5107 25.6759 20.6688 25.9288C 20.8444 26.2099 20.6744 26.1474 20.8098 25.8766L 22.5987 26.771C 22.9008 26.1669 22.7308 25.4545 22.3648 24.8688C 21.9812 24.2551 21.2978 23.6138 20.2188 22.9663L 19.1898 24.6813ZM 22.7043 26.3238C 22.704 25.5971 22.7474 24.6159 22.8866 23.8984C 22.9495 23.5599 23.0471 23.3988 23.0079 23.4257C 22.9807 23.4618 22.8068 23.6702 22.4673 23.6824C 22.3107 23.688 22.1866 23.6462 22.1082 23.6063C 22.035 23.5691 21.999 23.5328 21.9972 23.5309L 23.4114 22.1167C 23.2236 21.9289 22.8784 21.6664 22.3959 21.6836C 21.8923 21.7016 21.5716 22.0093 21.4131 22.2188C 21.1269 22.5971 20.9967 23.1316 20.9219 23.5242C 20.7611 24.3817 20.7045 25.5506 20.7043 26.3238L 22.7043 26.3238ZM 30.2814 29.9177L 25.2814 32.251L 26.1272 34.0633L 31.1271 31.73L 30.2814 29.9177ZM 25.2981 32.2434L 22.2981 33.5767L 23.1104 35.4043L 26.1104 34.071L 25.2981 32.2434ZM 21.9972 23.5309C 21.914 23.4714 22.2206 23.9441 22.4727 24.6683C 22.7315 25.408 23.0086 26.3486 23.289 27.385C 23.8509 29.4613 24.3948 31.8188 24.7265 33.3667L 26.6821 32.9476C 26.3471 31.3844 25.7909 28.9752 25.2196 26.8627C 24.9332 25.8046 24.6353 24.7952 24.3608 24.0086C 24.2214 23.6102 24.0752 23.236 23.9427 22.9491C 23.8189 22.6824 23.6464 22.3517 23.4114 22.1167L 21.9972 23.5309ZM 16.7905 37.23L 17.9016 39.73L 19.7292 38.9177L 18.6181 36.4177L 16.7905 37.23ZM 33.858 35.1457L 31.608 30.3957L 29.8005 31.2519L 32.0505 36.0019L 33.858 35.1457ZM 19.0717 40.2904L 33.2106 36.5404L 32.6979 34.6073L 18.559 38.3572L 19.0717 40.2904ZM 17.9016 39.73L 18.7905 41.73L 20.6181 40.9177L 19.7292 38.9177L 17.9016 39.73ZM 36.108 39.8958L 34.983 37.5207L 33.1755 38.3769L 34.3005 40.7519L 36.108 39.8958ZM 34.983 37.5207L 33.858 35.1457L 32.0505 36.0019L 33.1755 38.3769L 34.983 37.5207ZM 19.9328 42.2974L 34.3078 38.9224L 33.8507 36.9753L 19.4757 40.3503L 19.9328 42.2974ZM 18.7905 41.73L 19.7905 43.98L 21.6181 43.1677L 20.6181 40.9177L 18.7905 41.73ZM 19.7905 43.98L 20.7905 46.23L 22.6181 45.4177L 21.6181 43.1677L 19.7905 43.98ZM 20.9004 44.5544L 25.9004 43.5544L 25.5081 41.5933L 20.5081 42.5933L 20.9004 44.5544ZM 28.634 47.2332C 29.9015 47.3078 31.129 46.7762 31.9418 45.8009L 30.4054 44.5205C 29.999 45.0082 29.3852 45.2739 28.7515 45.2367L 28.634 47.2332ZM 16.3102 31.417C 15.7719 30.286 14.7426 29.2306 13.6942 28.6147L 12.6941 30.3467C 13.5182 30.812 14.1264 31.4228 14.4942 32.2551L 16.3102 31.417ZM 29.3534 25.5106C 28.9346 24.6426 28.8784 23.7316 29.1001 22.7524L 27.1453 22.3299C 26.8836 23.5877 26.9971 25.1387 27.5375 26.3487L 29.3534 25.5106Z"/>
<path id="path15_stroke" d="M 12.9756 1.93108L 13.9495 1.70416L 13.7694 0.931076L 12.9756 0.931076L 12.9756 1.93108ZM 19.3051 7.25975L 20.1397 6.70881L 20.1397 6.70881L 19.3051 7.25975ZM 31.9643 15.4095L 32.9604 15.4969L 31.9643 15.4095ZM 0 2.93108L 12.9756 2.93108L 12.9756 0.931076L 0 0.931076L 0 2.93108ZM 12.0017 2.158C 12.9453 6.20628 13.9737 12.0225 14.0169 16.47C 14.0405 18.7236 13.8037 20.4149 13.3189 21.3363C 13.0925 21.7667 12.8714 21.9175 12.6962 21.9695C 12.5093 22.025 12.1505 22.0347 11.5205 21.7227L 10.6329 23.515C 11.522 23.9553 12.4212 24.1374 13.2654 23.8868C 14.1212 23.6327 14.7041 22.9989 15.0889 22.2675C 15.8265 20.8655 16.0407 18.7249 16.0168 16.4491C 15.9651 11.8378 14.9047 5.8056 13.9495 1.70416L 12.0017 2.158ZM 11.5205 21.7227C 8.56969 20.267 6.75994 18.8597 5.61039 17.6319C 4.47198 16.4205 4.18388 15.5718 4.16059 15.3181L 2.16896 15.5009C 2.25117 16.3965 2.88086 17.6479 4.15295 19.0015C 5.4139 20.3389 7.50738 21.9616 10.6329 23.515L 11.5205 21.7227ZM 29.1777 -0.947721C 26.6031 -1.10709 22.8792 -0.947893 20.2984 0.175729C 19.0019 0.740245 17.8072 1.63157 17.3579 3.03347C 16.904 4.44988 17.314 6.05874 18.4706 7.81068L 20.1397 6.70881C 19.1442 5.20086 19.0716 4.23942 19.2625 3.64387C 19.458 3.0338 20.0356 2.4715 21.0968 2.00946C 23.2317 1.07998 26.5651 0.894381 29.0542 1.04846L 29.1777 -0.947721ZM 18.4706 7.81068C 19.9253 10.0142 21.59 11.228 23.2773 11.8887C 24.9155 12.517 26.5512 12.6271 27.8439 12.6862C 28.4911 12.7158 29.0413 12.7349 29.5187 12.8021C 29.9838 12.8644 30.2398 12.9238 30.4759 13.0862C 30.729 13.246 31.1155 13.6428 30.9681 15.322L 32.9604 15.4969C 33.1295 13.5714 32.7644 12.1659 31.5438 11.3952C 31.0431 11.0922 30.3818 10.9044 29.7924 10.8209C 29.2153 10.7425 28.5738 10.7175 27.9353 10.6883C 26.6566 10.6299 25.3451 10.5637 24.0065 10.0263C 22.7168 9.52135 21.3751 8.58014 20.1397 6.70881L 18.4706 7.81068ZM 30.9681 15.322C 30.8603 16.5496 30.4303 17.2958 29.8869 17.7697C 29.323 18.2614 28.5308 18.5516 27.5553 18.6544C 25.579 18.8628 23.1904 18.2653 21.5773 17.6163L 20.8307 19.4717C 22.5934 20.181 25.3317 20.9 27.765 20.6434C 28.9943 20.5138 30.2276 20.1261 31.2013 19.2771C 32.1953 18.4103 32.815 17.1531 32.9604 15.4969L 30.9681 15.322Z"/>
<path id="path16_stroke" d="M 0 16.5L -1 16.5L -1 16.6215L -0.97092 16.7394L 0 16.5ZM 9 53L 8.02908 53.2394L 8.93861 56.928L 9.96296 53.2696L 9 53ZM 44.5 44L 44.0771 43.0938L 44.5 44ZM 56 35L 56.8087 35.5882L 57.143 35.1285L 56.9191 34.6061L 56 35ZM 41 0L 41.9191 -0.393919L 40.7498 -3.12236L 40.0299 -0.242536L 41 0ZM 32 7L 32.1322 7.99123L 32 7ZM 9 3L 8.59386 2.08619L 9 3ZM -0.97092 16.7394L 8.02908 53.2394L 9.97092 52.7606L 0.97092 16.2606L -0.97092 16.7394ZM 9.96296 53.2696C 10.5304 51.2376 11.7111 48.2708 13.5021 45.7675C 15.2956 43.2485 17.4934 41.5 20 41.5L 20 39.5C 16.5066 39.5 13.7877 41.9182 11.8729 44.6075C 9.95557 47.3126 8.63625 50.5957 8.03704 52.7304L 9.96296 53.2696ZM 20 41.5C 23.5499 41.5 27.5518 43.1582 31.9549 44.518C 36.2022 45.8296 40.7938 46.8331 44.9229 44.9062L 44.0771 43.0938C 40.7062 44.6669 36.7978 43.9204 32.5451 42.607C 28.4482 41.3418 23.9501 39.5 20 39.5L 20 41.5ZM 44.9229 44.9062C 51.0969 42.025 55.39 37.5389 56.8087 35.5882L 55.1913 34.4118C 53.9433 36.1278 49.9031 40.375 44.0771 43.0938L 44.9229 44.9062ZM 56.9191 34.6061L 41.9191 -0.393919L 40.0809 0.393919L 55.0809 35.3939L 56.9191 34.6061ZM 40.0299 -0.242536C 39.612 1.42906 37.3949 5.27182 31.8678 6.00877L 32.1322 7.99123C 38.6051 7.12818 41.388 2.57094 41.9701 0.242536L 40.0299 -0.242536ZM 31.8678 6.00877C 30.1607 6.25064 28.5817 5.91192 26.8423 5.29199C 25.0963 4.6743 23.3332 3.78322 21.4658 2.95991C 17.7258 1.31181 13.5026 -0.0954549 8.59386 2.08619L 9.40614 3.91381C 13.4974 2.09545 17.0242 3.18819 20.6592 4.79009C 22.4793 5.59178 24.3099 6.5132 26.1733 7.17676C 28.0433 7.83808 30.0893 8.24936 32.1322 7.99123L 31.8678 6.00877ZM 8.59386 2.08619C 0.906122 5.50296 -1 13.0983 -1 16.5L 1 16.5C 1 13.5683 2.69388 6.89704 9.40614 3.91381L 8.59386 2.08619Z"/>
</defs>
</svg>
