<svg width="1500" height="1500" viewBox="0 0 1500 1500" version="1.1" xmlns="http://www.w3.org/2000/svg" xmlns:xlink="http://www.w3.org/1999/xlink" xmlns:figma="http://www.figma.com/figma/ns">
<title>episode1</title>
<desc>Created using Figma</desc>
<g id="Canvas" transform="matrix(3 0 0 3 1212 798)" figma:type="canvas">
<mask id="mask0_alpha" mask-type="alpha">
<path d="M -404 -266L 96 -266L 96 234L -404 234L -404 -266Z" fill="#FFFFFF"/>
</mask>
<g id="episode1" style="mix-blend-mode:normal;isolation:isolate;" mask="url(#mask0_alpha)" figma:type="frame">
<g id="Vector 20" style="mix-blend-mode:normal;" figma:type="vector">
<use xlink:href="#path0_stroke" transform="translate(40.6566 83.9751)" fill="#FFFFFF" style="mix-blend-mode:normal;"/>
</g>
<g id="Rectangle 4" style="mix-blend-mode:normal;" figma:type="rounded-rectangle">
<mask id="mask1_outline_ins">
<use xlink:href="#path1_fill" fill="white" transform="translate(-284 197.5)"/>
</mask>
<g mask="url(#mask1_outline_ins)">
<use xlink:href="#path2_stroke_2x" transform="translate(-284 197.5)" fill="#FFFFFF" style="mix-blend-mode:normal;"/>
</g>
</g>
<g id="Rectangle 4" style="mix-blend-mode:normal;" figma:type="rounded-rectangle">
<mask id="mask2_outline_ins">
<use xlink:href="#path1_fill" fill="white" transform="translate(-274 207.5)"/>
</mask>
<g mask="url(#mask2_outline_ins)">
<use xlink:href="#path2_stroke_2x" transform="translate(-274 207.5)" fill="#FFFFFF" style="mix-blend-mode:normal;"/>
</g>
</g>
<g id="Vector" style="mix-blend-mode:normal;" figma:type="vector">
<use xlink:href="#path3_stroke" transform="translate(-246 -122)" fill="#FFFFFF" style="mix-blend-mode:normal;"/>
</g>
<g id="Vector 2" style="mix-blend-mode:normal;" figma:type="vector">
<use xlink:href="#path4_stroke" transform="translate(-30 -151.798)" fill="#FFFFFF" style="mix-blend-mode:normal;"/>
</g>
<g id="Vector 3" style="mix-blend-mode:normal;" figma:type="vector">
<use xlink:href="#path5_stroke" transform="translate(-404 2)" fill="#FFFFFF" style="mix-blend-mode:normal;"/>
</g>
<g id="Vector 26" style="mix-blend-mode:normal;" figma:type="vector">
<use xlink:href="#path6_stroke" transform="translate(-161 -226.5)" fill="#FFFFFF" style="mix-blend-mode:normal;"/>
</g>
<g id="Vector 4" style="mix-blend-mode:normal;" figma:type="vector">
<use xlink:href="#path7_stroke" transform="translate(-394 -225)" fill="#FFFFFF" style="mix-blend-mode:normal;"/>
</g>
<g id="Vector 5" style="mix-blend-mode:normal;" figma:type="vector">
<use xlink:href="#path8_stroke" transform="translate(-187 126)" fill="#FFFFFF" style="mix-blend-mode:normal;"/>
</g>
<g id="Vector 6" style="mix-blend-mode:normal;" figma:type="vector">
<use xlink:href="#path9_stroke" transform="translate(-178 158)" fill="#FFFFFF" style="mix-blend-mode:normal;"/>
</g>
<g id="Vector 7" style="mix-blend-mode:normal;" figma:type="vector">
<use xlink:href="#path10_stroke" transform="translate(-124.3 159.5)" fill="#FFFFFF" style="mix-blend-mode:normal;"/>
</g>
<g id="Vector 9" style="mix-blend-mode:normal;" figma:type="vector">
<use xlink:href="#path11_stroke" transform="translate(46.5 150.5)" fill="#FFFFFF" style="mix-blend-mode:normal;"/>
</g>
<g id="Vector 8" style="mix-blend-mode:normal;" figma:type="vector">
<use xlink:href="#path12_stroke" transform="translate(-26 150)" fill="#FFFFFF" style="mix-blend-mode:normal;"/>
</g>
<g id="Vector 10" style="mix-blend-mode:normal;" figma:type="vector">
<use xlink:href="#path13_stroke" transform="translate(-98 79)" fill="#FFFFFF" style="mix-blend-mode:normal;"/>
</g>
<g id="Vector 11" style="mix-blend-mode:normal;" figma:type="vector">
<use xlink:href="#path14_stroke" transform="translate(-69.5 97)" fill="#FFFFFF" style="mix-blend-mode:normal;"/>
</g>
<g id="Vector 12" style="mix-blend-mode:normal;" figma:type="vector">
<use xlink:href="#path15_stroke" transform="translate(-169 128.5)" fill="#FFFFFF" style="mix-blend-mode:normal;"/>
</g>
<g id="Vector 13" style="mix-blend-mode:normal;" figma:type="vector">
<use xlink:href="#path16_stroke" transform="translate(-139 150)" fill="#FFFFFF" style="mix-blend-mode:normal;"/>
</g>
<g id="Vector 14" style="mix-blend-mode:normal;" figma:type="vector">
<use xlink:href="#path17_stroke" transform="translate(-93.5 -115.5)" fill="#FFFFFF" style="mix-blend-mode:normal;"/>
</g>
<g id="Vector 15" style="mix-blend-mode:normal;" figma:type="vector">
<use xlink:href="#path18_stroke" transform="matrix(0.737286 0.67558 -0.67558 0.737286 -71.3495 -119.749)" fill="#FFFFFF" style="mix-blend-mode:normal;"/>
</g>
<g id="Vector 16" style="mix-blend-mode:normal;" figma:type="vector">
<use xlink:href="#path19_stroke" transform="translate(-63 -108.987)" fill="#FFFFFF" style="mix-blend-mode:normal;"/>
</g>
<g id="Rectangle 2" style="mix-blend-mode:normal;" figma:type="rounded-rectangle">
<mask id="mask3_outline_ins">
<use xlink:href="#path20_fill" fill="white" transform="translate(-135 -37.45)"/>
</mask>
<g mask="url(#mask3_outline_ins)">
<use xlink:href="#path21_stroke_2x" transform="translate(-135 -37.45)" fill="#FFFFFF" style="mix-blend-mode:normal;"/>
</g>
</g>
<g id="Ellipse 5" style="mix-blend-mode:normal;" figma:type="ellipse">
<mask id="mask4_outline_ins">
<use xlink:href="#path22_fill" fill="white" transform="translate(-228 -49)"/>
</mask>
<g mask="url(#mask4_outline_ins)">
<use xlink:href="#path23_stroke_2x" transform="translate(-228 -49)" fill="#FFFFFF" style="mix-blend-mode:normal;"/>
</g>
</g>
<g id="Vector 17" style="mix-blend-mode:normal;" figma:type="vector">
<use xlink:href="#path24_stroke" transform="translate(-17.5 62)" fill="#FFFFFF" style="mix-blend-mode:normal;"/>
</g>
<g id="Ellipse" style="mix-blend-mode:normal;" figma:type="vector">
<use xlink:href="#path25_fill" transform="translate(-12 70)" fill="#FFFFFF" style="mix-blend-mode:normal;"/>
</g>
<g id="Vector 18" style="mix-blend-mode:normal;" figma:type="vector">
<use xlink:href="#path26_stroke" transform="translate(-74.5 -123.5)" fill="#FFFFFF" style="mix-blend-mode:normal;"/>
</g>
<g id="Vector 19" style="mix-blend-mode:normal;" figma:type="vector">
<use xlink:href="#path27_stroke" transform="translate(-1 75.1053)" fill="#FFFFFF" style="mix-blend-mode:normal;"/>
</g>
<g id="Vector 19" style="mix-blend-mode:normal;" figma:type="vector">
<use xlink:href="#path28_stroke" transform="translate(30 74)" fill="#FFFFFF" style="mix-blend-mode:normal;"/>
</g>
<g id="Ellipse 2" style="mix-blend-mode:normal;" figma:type="ellipse">
<mask id="mask5_outline_ins">
<use xlink:href="#path29_fill" fill="white" transform="translate(-388 -50)"/>
</mask>
<g mask="url(#mask5_outline_ins)">
<use xlink:href="#path30_stroke_2x" transform="translate(-388 -50)" fill="#FFFFFF" style="mix-blend-mode:normal;"/>
</g>
</g>
<g id="Vector 21" style="mix-blend-mode:normal;" figma:type="vector">
<use xlink:href="#path31_stroke" transform="translate(-352.5 -43.5473)" fill="#FFFFFF" style="mix-blend-mode:normal;"/>
</g>
<g id="Vector 22" style="mix-blend-mode:normal;" figma:type="vector">
<use xlink:href="#path32_stroke" transform="translate(-335 -41)" fill="#FFFFFF" style="mix-blend-mode:normal;"/>
</g>
<g id="Union" style="mix-blend-mode:normal;" figma:type="vector-operation">
<use xlink:href="#path33_fill" transform="translate(-10 -239.975)" fill="#FFFFFF" style="mix-blend-mode:normal;"/>
</g>
<g id="Group" style="mix-blend-mode:normal;" figma:type="frame">
<g id="Rectangle 3" style="mix-blend-mode:normal;" figma:type="vector">
<mask id="mask6_outline_ins">
<use xlink:href="#path34_fill" fill="white" transform="translate(-232 -240)"/>
</mask>
<g mask="url(#mask6_outline_ins)">
<use xlink:href="#path35_stroke_2x" transform="translate(-232 -240)" fill="#FFFFFF" style="mix-blend-mode:normal;"/>
</g>
</g>
</g>
<g id="Group" style="mix-blend-mode:normal;" figma:type="frame">
<g id="Rectangle 3" style="mix-blend-mode:normal;" figma:type="vector">
<mask id="mask7_outline_ins">
<use xlink:href="#path36_fill" fill="white" transform="matrix(-1 0 0 1 -42 -241)"/>
</mask>
<g mask="url(#mask7_outline_ins)">
<use xlink:href="#path37_stroke_2x" transform="matrix(-1 0 0 1 -42 -241)" fill="#FFFFFF" style="mix-blend-mode:normal;"/>
</g>
</g>
</g>
<g id="Group" style="mix-blend-mode:normal;" figma:type="frame">
<g id="Rectangle 3" style="mix-blend-mode:normal;" figma:type="rounded-rectangle">
<mask id="mask8_outline_ins">
<use xlink:href="#path38_fill" fill="white" transform="translate(-162 -228)"/>
</mask>
<g mask="url(#mask8_outline_ins)">
<use xlink:href="#path39_stroke_2x" transform="translate(-162 -228)" fill="#FFFFFF" style="mix-blend-mode:normal;"/>
</g>
</g>
</g>
<g id="Ellipse 4" style="mix-blend-mode:normal;" figma:type="ellipse">
<mask id="mask9_outline_ins">
<use xlink:href="#path40_fill" fill="white" transform="translate(-327 -98)"/>
</mask>
<g mask="url(#mask9_outline_ins)">
<use xlink:href="#path41_stroke_2x" transform="translate(-327 -98)" fill="#FFFFFF" style="mix-blend-mode:normal;"/>
</g>
</g>
<g id="Ellipse 4" style="mix-blend-mode:normal;" figma:type="ellipse">
<mask id="mask10_outline_ins">
<use xlink:href="#path40_fill" fill="white" transform="translate(-287 -98)"/>
</mask>
<g mask="url(#mask10_outline_ins)">
<use xlink:href="#path41_stroke_2x" transform="translate(-287 -98)" fill="#FFFFFF" style="mix-blend-mode:normal;"/>
</g>
</g>
<g id="Ellipse 4" style="mix-blend-mode:normal;" figma:type="ellipse">
<mask id="mask11_outline_ins">
<use xlink:href="#path42_fill" fill="white" transform="translate(-317 -88)"/>
</mask>
<g mask="url(#mask11_outline_ins)">
<use xlink:href="#path43_stroke_2x" transform="translate(-317 -88)" fill="#FFFFFF" style="mix-blend-mode:normal;"/>
</g>
</g>
<g id="Ellipse 4" style="mix-blend-mode:normal;" figma:type="ellipse">
<mask id="mask12_outline_ins">
<use xlink:href="#path44_fill" fill="white" transform="translate(-330 -40)"/>
</mask>
<g mask="url(#mask12_outline_ins)">
<use xlink:href="#path45_stroke_2x" transform="translate(-330 -40)" fill="#FFFFFF" style="mix-blend-mode:normal;"/>
</g>
</g>
<g id="Ellipse 4" style="mix-blend-mode:normal;" figma:type="ellipse">
<mask id="mask13_outline_ins">
<use xlink:href="#path42_fill" fill="white" transform="translate(-277 -88)"/>
</mask>
<g mask="url(#mask13_outline_ins)">
<use xlink:href="#path43_stroke_2x" transform="translate(-277 -88)" fill="#FFFFFF" style="mix-blend-mode:normal;"/>
</g>
</g>
<g id="Vector 23" style="mix-blend-mode:normal;" figma:type="vector">
<use xlink:href="#path46_stroke" transform="translate(-325.5 -120.5)" fill="#FFFFFF" style="mix-blend-mode:normal;"/>
</g>
<g id="Rectangle 4" style="mix-blend-mode:normal;" figma:type="rounded-rectangle">
<mask id="mask14_outline_ins">
<use xlink:href="#path1_fill" fill="white" transform="translate(-334 147.5)"/>
</mask>
<g mask="url(#mask14_outline_ins)">
<use xlink:href="#path2_stroke_2x" transform="translate(-334 147.5)" fill="#FFFFFF" style="mix-blend-mode:normal;"/>
</g>
</g>
<g id="Rectangle 4" style="mix-blend-mode:normal;" figma:type="rounded-rectangle">
<mask id="mask15_outline_ins">
<use xlink:href="#path1_fill" fill="white" transform="translate(-324 157.5)"/>
</mask>
<g mask="url(#mask15_outline_ins)">
<use xlink:href="#path2_stroke_2x" transform="translate(-324 157.5)" fill="#FFFFFF" style="mix-blend-mode:normal;"/>
</g>
</g>
<g id="Rectangle 4" style="mix-blend-mode:normal;" figma:type="rounded-rectangle">
<mask id="mask16_outline_ins">
<use xlink:href="#path1_fill" fill="white" transform="translate(-314 167.5)"/>
</mask>
<g mask="url(#mask16_outline_ins)">
<use xlink:href="#path2_stroke_2x" transform="translate(-314 167.5)" fill="#FFFFFF" style="mix-blend-mode:normal;"/>
</g>
</g>
<g id="Rectangle 4" style="mix-blend-mode:normal;" figma:type="rounded-rectangle">
<mask id="mask17_outline_ins">
<use xlink:href="#path1_fill" fill="white" transform="translate(-304 177.5)"/>
</mask>
<g mask="url(#mask17_outline_ins)">
<use xlink:href="#path2_stroke_2x" transform="translate(-304 177.5)" fill="#FFFFFF" style="mix-blend-mode:normal;"/>
</g>
</g>
<g id="Rectangle 4" style="mix-blend-mode:normal;" figma:type="rounded-rectangle">
<mask id="mask18_outline_ins">
<use xlink:href="#path1_fill" fill="white" transform="translate(-294 187.5)"/>
</mask>
<g mask="url(#mask18_outline_ins)">
<use xlink:href="#path2_stroke_2x" transform="translate(-294 187.5)" fill="#FFFFFF" style="mix-blend-mode:normal;"/>
</g>
</g>
<g id="Rectangle 4" style="mix-blend-mode:normal;" figma:type="rounded-rectangle">
<mask id="mask19_outline_ins">
<use xlink:href="#path1_fill" fill="white" transform="translate(-264 217.5)"/>
</mask>
<g mask="url(#mask19_outline_ins)">
<use xlink:href="#path2_stroke_2x" transform="translate(-264 217.5)" fill="#FFFFFF" style="mix-blend-mode:normal;"/>
</g>
</g>
<g id="Vector 24" style="mix-blend-mode:normal;" figma:type="vector">
<use xlink:href="#path47_stroke" transform="translate(-242.5 -42.242)" fill="#FFFFFF" style="mix-blend-mode:normal;"/>
</g>
<g id="Ellipse 5" style="mix-blend-mode:normal;" figma:type="ellipse">
<mask id="mask20_outline_ins">
<use xlink:href="#path22_fill" fill="white" transform="translate(-3.6958 -10.0127)"/>
</mask>
<g mask="url(#mask20_outline_ins)">
<use xlink:href="#path23_stroke_2x" transform="translate(-3.6958 -10.0127)" fill="#FFFFFF" style="mix-blend-mode:normal;"/>
</g>
</g>
<g id="Ellipse 5" style="mix-blend-mode:normal;" figma:type="ellipse">
<mask id="mask21_outline_ins">
<use xlink:href="#path22_fill" fill="white" transform="translate(57.3042 -40.4627)"/>
</mask>
<g mask="url(#mask21_outline_ins)">
<use xlink:href="#path23_stroke_2x" transform="translate(57.3042 -40.4627)" fill="#FFFFFF" style="mix-blend-mode:normal;"/>
</g>
</g>
<g id="Vector 25" style="mix-blend-mode:normal;" figma:type="vector">
<use xlink:href="#path48_stroke" transform="translate(68.3042 -26.5127)" fill="#FFFFFF" style="mix-blend-mode:normal;"/>
</g>
</g>
</g>
<defs>
<path id="path0_stroke" d="M 50.8963 13.8499L 50.7373 14.3239L 50.8963 13.8499ZM 148.933 91.3102C 149.09 91.537 149.402 91.5931 149.629 91.4355C 149.855 91.2779 149.912 90.9663 149.754 90.7396L 148.933 91.3102ZM 0.103119 -0.489251C -0.167087 -0.546202 -0.4323 -0.373325 -0.489251 -0.103119C -0.546202 0.167087 -0.373325 0.4323 -0.103119 0.489251L 0.103119 -0.489251ZM 4.19095 1.41647C 4.46058 1.47608 4.72749 1.30582 4.7871 1.03619C 4.8467 0.766554 4.67645 0.499652 4.40682 0.440042L 4.19095 1.41647ZM 12.9848 2.42405C 12.7164 2.35922 12.4462 2.52428 12.3814 2.7927C 12.3166 3.06113 12.4816 3.33128 12.75 3.3961L 12.9848 2.42405ZM 21.2708 5.54049C 21.538 5.61044 21.8112 5.45059 21.8812 5.18346C 21.9511 4.91632 21.7913 4.64306 21.5242 4.5731L 21.2708 5.54049ZM 30.0204 6.88493C 29.7547 6.80988 29.4784 6.96448 29.4033 7.23023C 29.3283 7.49598 29.4829 7.77224 29.7486 7.84729L 30.0204 6.88493ZM 38.1812 10.3161C 38.4454 10.3962 38.7246 10.247 38.8047 9.98271C 38.8849 9.71845 38.7356 9.43927 38.4714 9.35913L 38.1812 10.3161ZM 46.873 11.9959C 46.6103 11.9106 46.3283 12.0544 46.243 12.3171C 46.1578 12.5798 46.3016 12.8618 46.5643 12.947L 46.873 11.9959ZM 55.6979 16.0981C 55.956 16.1962 56.2448 16.0664 56.3428 15.8082C 56.4408 15.5501 56.3111 15.2613 56.0529 15.1633L 55.6979 16.0981ZM 65.8271 19.2935C 65.5767 19.1771 65.2793 19.2857 65.1629 19.5361C 65.0465 19.7865 65.155 20.0838 65.4054 20.2003L 65.8271 19.2935ZM 74.8141 24.9581C 75.0565 25.0905 75.3602 25.0013 75.4926 24.7589C 75.625 24.5166 75.5358 24.2128 75.2934 24.0805L 74.8141 24.9581ZM 84.4456 29.4351C 84.2114 29.2889 83.9029 29.3603 83.7568 29.5946C 83.6106 29.8289 83.682 30.1373 83.9163 30.2835L 84.4456 29.4351ZM 92.7173 36.1058C 92.9436 36.2641 93.2553 36.2089 93.4135 35.9826C 93.5718 35.7563 93.5166 35.4446 93.2903 35.2863L 92.7173 36.1058ZM 101.828 41.5703C 101.609 41.4014 101.295 41.4415 101.126 41.66C 100.957 41.8785 100.998 42.1925 101.216 42.3614L 101.828 41.5703ZM 109.417 49.0007C 109.628 49.1791 109.944 49.1529 110.122 48.9421C 110.3 48.7314 110.274 48.4159 110.063 48.2375L 109.417 49.0007ZM 118.01 55.2574C 117.807 55.0703 117.49 55.0833 117.303 55.2864C 117.116 55.4895 117.129 55.8058 117.332 55.9929L 118.01 55.2574ZM 124.949 63.3003C 125.144 63.4955 125.461 63.4953 125.656 63.3C 125.851 63.1046 125.851 62.788 125.656 62.5929L 124.949 63.3003ZM 132.994 70.2279C 132.807 70.0249 132.49 70.0122 132.287 70.1994C 132.084 70.3866 132.072 70.7029 132.259 70.9059L 132.994 70.2279ZM 139.25 78.8213C 139.428 79.0323 139.744 79.059 139.955 78.8809C 140.166 78.7028 140.192 78.3873 140.014 78.1763L 139.25 78.8213ZM 146.644 86.456C 146.478 86.2355 146.164 86.1916 145.944 86.358C 145.723 86.5243 145.679 86.8378 145.846 87.0582L 146.644 86.456ZM -0.103119 0.489251C 1.30942 0.786968 2.74029 1.09576 4.19095 1.41647L 4.40682 0.440042C 2.9537 0.118793 1.51801 -0.191034 0.103119 -0.489251L -0.103119 0.489251ZM 12.75 3.3961C 15.5365 4.06901 18.3772 4.78273 21.2708 5.54049L 21.5242 4.5731C 18.6257 3.8141 15.7757 3.09804 12.9848 2.42405L 12.75 3.3961ZM 29.7486 7.84729C 32.5229 8.6307 35.3337 9.45264 38.1812 10.3161L 38.4714 9.35913C 35.6192 8.49424 32.7991 7.66961 30.0204 6.88493L 29.7486 7.84729ZM 46.5643 12.947C 47.9491 13.3965 49.3395 13.8551 50.7373 14.3239L 51.0553 13.3758C 49.6551 12.9062 48.2601 12.446 46.873 11.9959L 46.5643 12.947ZM 50.7373 14.3239C 52.4032 14.8827 54.0538 15.4737 55.6979 16.0981L 56.0529 15.1633C 54.3999 14.5355 52.7307 13.9378 51.0553 13.3758L 50.7373 14.3239ZM 65.4054 20.2003C 68.5976 21.6846 71.731 23.2742 74.8141 24.9581L 75.2934 24.0805C 72.1969 22.3894 69.0347 20.7852 65.8271 19.2935L 65.4054 20.2003ZM 83.9163 30.2835C 86.9195 32.1572 89.8516 34.1019 92.7173 36.1058L 93.2903 35.2863C 90.4145 33.2754 87.4605 31.3162 84.4456 29.4351L 83.9163 30.2835ZM 101.216 42.3614C 104.039 44.5434 106.772 46.7613 109.417 49.0007L 110.063 48.2375C 107.41 45.9913 104.66 43.7595 101.828 41.5703L 101.216 42.3614ZM 117.332 55.9929C 119.993 58.4439 122.533 60.8865 124.949 63.3003L 125.656 62.5929C 123.233 60.1724 120.679 57.7157 118.01 55.2574L 117.332 55.9929ZM 132.259 70.9059C 134.788 73.6478 137.121 76.2987 139.25 78.8213L 140.014 78.1763C 137.879 75.6458 135.531 72.9784 132.994 70.2279L 132.259 70.9059ZM 145.846 87.0582C 146.99 88.5753 148.019 89.9954 148.933 91.3102L 149.754 90.7396C 148.835 89.4167 147.794 87.9808 146.644 86.456L 145.846 87.0582Z"/>
<path id="path1_fill" d="M 0 0L 79 0L 79 39L 0 39L 0 0Z"/>
<path id="path2_stroke_2x" d="M 0 0L 0 -2C -1.10457 -2 -2 -1.10457 -2 4.44089e-16L 0 0ZM 79 0L 81 0C 81 -1.10457 80.1046 -2 79 -2L 79 0ZM 79 39L 79 41C 80.1046 41 81 40.1046 81 39L 79 39ZM 0 39L -2 39C -2 40.1046 -1.10457 41 4.44089e-16 41L 0 39ZM 0 2L 79 2L 79 -2L 0 -2L 0 2ZM 77 0L 77 39L 81 39L 81 0L 77 0ZM 79 37L 0 37L 0 41L 79 41L 79 37ZM 2 39L 2 0L -2 0L -2 39L 2 39Z"/>
<path id="path3_stroke" d="M 39 27.5C 29.5447 27.501 19.9416 26.6435 12.6668 24.4185C 9.04562 23.3138 6.09943 21.8967 4.07535 20.1493C 2.07584 18.4231 1 16.4017 1 14L -1 14C -1 17.0983 0.42416 19.6394 2.7684 21.6632C 5.08807 23.6658 8.32938 25.1862 12.0832 26.3315C 19.5584 28.6065 29.4553 29.499 39 29.5L 39 27.5ZM 1 14C 1 11.5948 2.05794 9.60763 4.02351 7.93308C 6.01709 6.23466 8.92768 4.87886 12.5283 3.83549C 19.7618 1.73395 29.3717 0.999263 39 1L 39 -1C 29.295 -0.999263 19.4049 -0.233949 11.9717 1.91451C 8.23899 2.99614 5.02457 4.45284 2.72649 6.41067C 0.400391 8.39237 -1 10.9052 -1 14L 1 14ZM 39 1C 48.5987 0.997689 57.9374 2.27336 64.9291 4.64711C 68.4059 5.82261 71.1793 7.21026 73.1378 8.86547C 75.0514 10.4741 76 12.1932 76 14L 78 14C 78 11.4068 76.6153 9.17594 74.4247 7.33452C 72.279 5.53974 69.1774 3.97739 65.5709 2.75289C 58.396 0.32664 48.7346 -0.997689 39 -1L 39 1ZM 76 14C 76 15.8044 75.0332 17.5566 73.0856 19.2172C 71.0983 20.9201 68.2896 22.3701 64.791 23.6074C 57.7577 26.1048 48.4256 27.5028 39 27.5L 39 29.5C 48.5744 29.4972 58.2423 28.0452 65.459 25.4926C 69.0854 24.2049 72.2142 22.5799 74.3832 20.7391C 76.5918 18.8559 78 16.5956 78 14L 76 14Z"/>
<path id="path4_stroke" d="M 20.1592 41.798L 19.7109 42.0194C 19.7986 42.197 19.9829 42.3061 20.1808 42.2975C 20.3787 42.289 20.5528 42.1644 20.6249 41.98L 20.1592 41.798ZM 20.1592 8.56888L 19.7469 8.85171C 19.834 8.97865 19.9746 9.0584 20.1283 9.06792C 20.2819 9.07744 20.4314 9.01567 20.5334 8.90046L 20.1592 8.56888ZM 20.6075 41.5766C 19.078 38.484 16.7015 35.2516 14.1294 32.0145C 11.5577 28.7781 8.77648 25.5136 6.3984 22.3078C 4.02127 19.1045 2.07137 16.0082 1.11994 13.044C 0.177385 10.1201 0.235117 7.40698 1.80985 4.92767L 0.965723 4.39152C -0.811586 7.18978 -0.837653 10.2307 0.168169 13.3509C 1.16511 16.4309 3.19576 19.6689 5.5953 22.9037C 7.99387 26.1361 10.7855 29.4135 13.3465 32.6366C 15.9072 35.8591 18.2236 39.0037 19.7109 42.0194L 20.6075 41.5766ZM 1.80985 4.92767C 3.43973 2.36154 5.16863 1.11467 6.84917 0.683316C 8.53372 0.250934 10.2611 0.614393 11.9318 1.45363C 15.2947 3.1429 18.2528 6.67364 19.7469 8.85171L 20.5715 8.28605C 19.0488 6.06615 15.9732 2.36469 12.3807 0.560032C 10.5736 -0.3477 8.59277 -0.796638 6.60055 -0.285286C 4.60432 0.227097 2.68789 1.68009 0.965723 4.39152L 1.80985 4.92767ZM 20.5334 8.90046C 21.4103 7.91035 22.4395 6.57781 23.6152 5.29052C 24.7916 4.00137 26.079 2.783 27.5255 1.96906C 28.9634 1.15086 30.4327 0.76367 32.1062 1.14296C 33.7545 1.50288 35.5978 2.62614 37.6204 4.98506L 38.3796 4.33413C 36.27 1.87385 34.25 0.587509 32.3196 0.165983C 30.4144 -0.236162 28.5895 0.223373 27.0332 1.09863C 25.4855 1.97815 24.0788 3.29997 22.8767 4.61631C 21.6738 5.93451 20.64 7.27275 19.785 8.23729L 20.5334 8.90046ZM 37.6204 4.98506C 39.549 7.23429 39.7832 9.76619 38.9277 12.5733C 38.0627 15.4118 36.0928 18.4871 33.6646 21.7172C 31.2418 24.9406 28.3955 28.2754 25.8334 31.6176C 23.2709 34.961 20.9738 38.348 19.6935 41.616L 20.6249 41.98C 21.8587 38.8139 24.0817 35.5464 26.6271 32.226C 29.1729 28.9044 32.0221 25.566 34.464 22.3181C 36.9005 19.0769 38.9646 15.8828 39.8843 12.8648C 40.8136 9.81558 40.5832 6.90409 38.3796 4.33413L 37.6204 4.98506Z"/>
<path id="path5_stroke" d="M -0.751876 33.1305C -1.116 33.5458 -1.07455 34.1776 -0.659305 34.5417C -0.244055 34.9058 0.387752 34.8644 0.751876 34.4491L -0.751876 33.1305ZM 29.6296 0L 30.5908 0.275951C 30.72 -0.174013 30.5197 -0.653378 30.1088 -0.877709C 29.6979 -1.10204 29.1864 -1.01129 28.8778 -0.659305L 29.6296 0ZM 8.59259 73.2746L 7.63142 72.9986C 7.50313 73.4455 7.69971 73.9218 8.10582 74.1481C 8.51192 74.3744 9.02042 74.291 9.33294 73.9468L 8.59259 73.2746ZM 44.4444 33.7898L 45.4188 34.0147C 45.5212 33.5713 45.3112 33.1147 44.908 32.9038C 44.5048 32.6928 44.01 32.7807 43.7041 33.1176L 44.4444 33.7898ZM 34.3704 77.4508L 33.396 77.226C 33.2985 77.6485 33.4843 78.0856 33.8561 78.3085C 34.228 78.5314 34.7011 78.4894 35.0278 78.2044L 34.3704 77.4508ZM 62.2222 53.1525L 63.2035 52.9599C 63.1346 52.6093 62.884 52.3221 62.546 52.2064C 62.2081 52.0907 61.834 52.1642 61.5648 52.399L 62.2222 53.1525ZM 73.7778 112L 72.7965 112.193C 72.8866 112.652 73.2829 112.987 73.7504 113C 74.218 113.012 74.632 112.699 74.747 112.246L 73.7778 112ZM 93.6296 33.7898L 94.074 32.894C 93.8033 32.7597 93.4865 32.755 93.212 32.8812C 92.9374 33.0074 92.7347 33.251 92.6604 33.5438L 93.6296 33.7898ZM 102.815 38.3458L 102.37 39.2416C 102.785 39.4472 103.286 39.3416 103.583 38.9864L 102.815 38.3458ZM 112 27.3356L 113 27.3356C 113 26.9147 112.736 26.5388 112.341 26.3954C 111.945 26.252 111.502 26.3718 111.232 26.695L 112 27.3356ZM 111 66.4407C 111 66.993 111.448 67.4407 112 67.4407C 112.552 67.4407 113 66.993 113 66.4407L 111 66.4407ZM 0.751876 34.4491L 30.3815 0.659305L 28.8778 -0.659305L -0.751876 33.1305L 0.751876 34.4491ZM 28.6685 -0.275951L 7.63142 72.9986L 9.55376 73.5505L 30.5908 0.275951L 28.6685 -0.275951ZM 9.33294 73.9468L 45.1848 34.4621L 43.7041 33.1176L 7.85225 72.6023L 9.33294 73.9468ZM 43.47 33.565L 33.396 77.226L 35.3448 77.6757L 45.4188 34.0147L 43.47 33.565ZM 35.0278 78.2044L 62.8796 53.9061L 61.5648 52.399L 33.713 76.6973L 35.0278 78.2044ZM 61.241 53.3452L 72.7965 112.193L 74.759 111.807L 63.2035 52.9599L 61.241 53.3452ZM 74.747 112.246L 94.5989 34.0359L 92.6604 33.5438L 72.8085 111.754L 74.747 112.246ZM 93.1853 34.6857L 102.37 39.2416L 103.259 37.4499L 94.074 32.894L 93.1853 34.6857ZM 103.583 38.9864L 112.768 27.9762L 111.232 26.695L 102.047 37.7052L 103.583 38.9864ZM 111 27.3356L 111 66.4407L 113 66.4407L 113 27.3356L 111 27.3356Z"/>
<path id="path6_stroke" d="M 0.0849523 0.278811L 44.085 65.7788L 44.915 65.2212L 0.915048 -0.278811L 0.0849523 0.278811ZM 44.0864 -0.280982L -0.413581 65.219L 0.413581 65.781L 44.9136 0.280982L 44.0864 -0.280982Z"/>
<path id="path7_stroke" d="M 0 27L -0.197523 26.0197C -0.578337 26.0964 -0.880254 26.3868 -0.971822 26.7643C -1.06339 27.1418 -0.928037 27.5382 -0.624695 27.7809L 0 27ZM 134 0L 134.804 0.594134C 135.05 0.26152 135.066 -0.188002 134.844 -0.536867C 134.622 -0.885732 134.208 -1.06198 133.802 -0.980298L 134 0ZM 40.5 59.5L 39.9631 58.6563C 39.8001 58.7601 39.6706 58.9089 39.5903 59.0847L 40.5 59.5ZM 69 88L 68.2929 88.7071C 68.4988 88.913 68.7842 89.0189 69.0745 88.9972C 69.3649 88.9755 69.6314 88.8283 69.8044 88.5941L 69 88ZM 30 82.5L 29 82.5C 29 82.875 29.2098 83.2185 29.5435 83.3897C 29.8772 83.5609 30.2786 83.531 30.5832 83.3123L 30 82.5ZM -0.624695 27.7809L 29.3753 51.7809L 30.6247 50.2191L 0.624695 26.2191L -0.624695 27.7809ZM 30.4403 51.8979L 134.44 0.897854L 133.56 -0.897854L 29.5597 50.1021L 30.4403 51.8979ZM 133.802 -0.980298L -0.197523 26.0197L 0.197523 27.9803L 134.198 0.980298L 133.802 -0.980298ZM 133.463 -0.843661L 39.9631 58.6563L 41.0369 60.3437L 134.537 0.843661L 133.463 -0.843661ZM 69.8044 88.5941L 134.804 0.594134L 133.196 -0.594134L 68.1956 87.4059L 69.8044 88.5941ZM 29 51L 29 82.5L 31 82.5L 31 51L 29 51ZM 30.9097 82.9153L 41.4097 59.9153L 39.5903 59.0847L 29.0903 82.0847L 30.9097 82.9153ZM 39.7929 60.2071L 48.7929 69.2071L 50.2071 67.7929L 41.2071 58.7929L 39.7929 60.2071ZM 48.7929 69.2071L 68.2929 88.7071L 69.7071 87.2929L 50.2071 67.7929L 48.7929 69.2071ZM 30.5832 83.3123L 50.0832 69.3123L 48.9168 67.6877L 29.4168 81.6877L 30.5832 83.3123Z"/>
<path id="path8_stroke" d="M -1.90485 68.3904C -2.24149 69.4425 -1.66157 70.5682 -0.609551 70.9048C 0.442467 71.2415 1.5682 70.6616 1.90485 69.6096L -1.90485 68.3904ZM 16 19L 17.6572 17.8803C 17.2283 17.2456 16.4747 16.9116 15.7164 17.0202C 14.9582 17.1288 14.3286 17.6609 14.0952 18.3904L 16 19ZM 41 56L 39.3428 57.1197C 39.6927 57.6375 40.2644 57.962 40.8883 57.9969C 41.5121 58.0318 42.1165 57.7731 42.5219 57.2976L 41 56ZM 81.5 8.5L 82.9982 7.17512C 82.6144 6.74111 82.0613 6.49485 81.4819 6.50008C 80.9026 6.50531 80.354 6.76151 79.9781 7.20238L 81.5 8.5ZM 135 69L 133.502 70.3249C 133.9 70.7747 134.478 71.022 135.078 70.9985C 135.678 70.975 136.236 70.6832 136.597 70.2037L 135 69ZM 187 0L 188.85 -0.759838C 188.577 -1.42465 187.968 -1.89184 187.255 -1.98362C 186.543 -2.07541 185.835 -1.77766 185.403 -1.2037L 187 0ZM 210 56L 208.15 56.7598C 208.422 57.4217 209.026 57.8879 209.736 57.9825C 210.445 58.077 211.151 57.7855 211.586 57.2181L 210 56ZM 253 0L 254.676 -1.09135C 254.322 -1.63512 253.726 -1.97331 253.078 -1.99849C 252.429 -2.02368 251.809 -1.73272 251.414 -1.21805L 253 0ZM 307.324 87.0913C 307.927 88.017 309.166 88.2787 310.091 87.676C 311.017 87.0733 311.279 85.8343 310.676 84.9087L 307.324 87.0913ZM 1.90485 69.6096L 17.9048 19.6096L 14.0952 18.3904L -1.90485 68.3904L 1.90485 69.6096ZM 14.3428 20.1197L 39.3428 57.1197L 42.6572 54.8803L 17.6572 17.8803L 14.3428 20.1197ZM 42.5219 57.2976L 83.0219 9.79762L 79.9781 7.20238L 39.4781 54.7024L 42.5219 57.2976ZM 80.0018 9.82488L 133.502 70.3249L 136.498 67.6751L 82.9982 7.17512L 80.0018 9.82488ZM 136.597 70.2037L 188.597 1.2037L 185.403 -1.2037L 133.403 67.7963L 136.597 70.2037ZM 185.15 0.759838L 208.15 56.7598L 211.85 55.2402L 188.85 -0.759838L 185.15 0.759838ZM 211.586 57.2181L 254.586 1.21805L 251.414 -1.21805L 208.414 54.7819L 211.586 57.2181ZM 251.324 1.09135L 307.324 87.0913L 310.676 84.9087L 254.676 -1.09135L 251.324 1.09135Z"/>
<path id="path9_stroke" d="M 0.27735 11.584C 0.0475858 11.4308 -0.262849 11.4929 -0.416025 11.7226C -0.569201 11.9524 -0.507114 12.2628 -0.27735 12.416L 0.27735 11.584ZM 9 18L 8.72265 18.416C 8.8906 18.528 9.1094 18.528 9.27735 18.416L 9 18ZM 18 12L 18.2773 12.416C 18.4164 12.3233 18.5 12.1672 18.5 12L 18 12ZM 18.5 0C 18.5 -0.276142 18.2761 -0.5 18 -0.5C 17.7239 -0.5 17.5 -0.276142 17.5 0L 18.5 0ZM -0.27735 12.416L 8.72265 18.416L 9.27735 17.584L 0.27735 11.584L -0.27735 12.416ZM 9.27735 18.416L 18.2773 12.416L 17.7227 11.584L 8.72265 17.584L 9.27735 18.416ZM 18.5 12L 18.5 0L 17.5 0L 17.5 12L 18.5 12Z"/>
<path id="path10_stroke" d="M 0.416025 -0.27735C 0.262849 -0.507114 -0.0475858 -0.569201 -0.27735 -0.416025C -0.507114 -0.262849 -0.569201 0.0475858 -0.416025 0.27735L 0.416025 -0.27735ZM 10 15L 9.58397 15.2774C 9.66874 15.4045 9.807 15.4859 9.95931 15.4983C 10.1116 15.5108 10.2613 15.4529 10.3655 15.3412L 10 15ZM 24 0L 24.3904 -0.312348C 24.2997 -0.425751 24.1642 -0.494106 24.019 -0.499637C 23.8739 -0.505168 23.7336 -0.447328 23.6345 -0.341159L 24 0ZM 36 15L 35.6096 15.3123C 35.7176 15.4474 35.8877 15.517 36.0594 15.4965C 36.2311 15.4759 36.38 15.3681 36.4531 15.2114L 36 15ZM 43.4531 0.211443C 43.5699 -0.0387928 43.4617 -0.336315 43.2114 -0.453092C 42.9612 -0.569868 42.6637 -0.461678 42.5469 -0.211443L 43.4531 0.211443ZM -0.416025 0.27735L 9.58397 15.2774L 10.416 14.7226L 0.416025 -0.27735L -0.416025 0.27735ZM 10.3655 15.3412L 24.3655 0.341159L 23.6345 -0.341159L 9.63447 14.6588L 10.3655 15.3412ZM 23.6096 0.312348L 35.6096 15.3123L 36.3904 14.6877L 24.3904 -0.312348L 23.6096 0.312348ZM 36.4531 15.2114L 43.4531 0.211443L 42.5469 -0.211443L 35.5469 14.7886L 36.4531 15.2114Z"/>
<path id="path11_stroke" d="M 0.353553 1.64645C 0.158291 1.45118 -0.158291 1.45118 -0.353553 1.64645C -0.548816 1.84171 -0.548816 2.15829 -0.353553 2.35355L 0.353553 1.64645ZM 8.5 10.5L 8.14645 10.8536C 8.32239 11.0295 8.60094 11.0493 8.8 10.9L 8.5 10.5ZM 22.5 0L 22.5733 -0.494602C 22.4412 -0.514167 22.3068 -0.480104 22.2 -0.4L 22.5 0ZM 35.9267 2.4946C 36.1999 2.53507 36.4541 2.34644 36.4946 2.07327C 36.5351 1.80011 36.3464 1.54587 36.0733 1.5054L 35.9267 2.4946ZM -0.353553 2.35355L 8.14645 10.8536L 8.85355 10.1464L 0.353553 1.64645L -0.353553 2.35355ZM 8.8 10.9L 22.8 0.4L 22.2 -0.4L 8.2 10.1L 8.8 10.9ZM 22.4267 0.494602L 35.9267 2.4946L 36.0733 1.5054L 22.5733 -0.494602L 22.4267 0.494602Z"/>
<path id="path12_stroke" d="M 0.428746 8.74275C 0.286672 8.50596 -0.0204577 8.42918 -0.257248 8.57125C -0.494038 8.71333 -0.570821 9.02046 -0.428746 9.25725L 0.428746 8.74275ZM 6 19L 5.57125 19.2572C 5.65578 19.3981 5.80411 19.4885 5.96805 19.499C 6.132 19.5095 6.29064 19.4388 6.39244 19.3098L 6 19ZM 21 0L 21.4881 -0.108465C 21.4462 -0.296893 21.2996 -0.444389 21.1115 -0.487418C 20.9233 -0.530447 20.7272 -0.461323 20.6076 -0.309822L 21 0ZM 27 27L 26.5119 27.1085C 26.557 27.3112 26.7226 27.465 26.9281 27.4948C 27.1337 27.5247 27.3362 27.4244 27.4371 27.2428L 27 27ZM 37 9L 37.4371 9.24282C 37.4783 9.16854 37.5 9.08497 37.5 9L 37 9ZM 37.5 0C 37.5 -0.276142 37.2761 -0.5 37 -0.5C 36.7239 -0.5 36.5 -0.276142 36.5 0L 37.5 0ZM -0.428746 9.25725L 5.57125 19.2572L 6.42875 18.7428L 0.428746 8.74275L -0.428746 9.25725ZM 6.39244 19.3098L 21.3924 0.309822L 20.6076 -0.309822L 5.60756 18.6902L 6.39244 19.3098ZM 20.5119 0.108465L 26.5119 27.1085L 27.4881 26.8915L 21.4881 -0.108465L 20.5119 0.108465ZM 27.4371 27.2428L 37.4371 9.24282L 36.5629 8.75718L 26.5629 26.7572L 27.4371 27.2428ZM 37.5 9L 37.5 0L 36.5 0L 36.5 9L 37.5 9Z"/>
<path id="path13_stroke" d="M -0.815507 61.4213C -1.13514 61.8716 -1.02914 62.4959 -0.578747 62.8155C -0.128355 63.1351 0.495874 63.0291 0.815507 62.5787L -0.815507 61.4213ZM 44 0L 44.7776 -0.628809C 44.5808 -0.872155 44.2814 -1.00934 43.9686 -0.999507C 43.6558 -0.989677 43.3656 -0.833969 43.1845 -0.578747L 44 0ZM 89.7224 58.1288C 90.0697 58.5582 90.6994 58.6248 91.1288 58.2776C 91.5582 57.9303 91.6248 57.3006 91.2776 56.8712L 89.7224 58.1288ZM 0.815507 62.5787L 44.8155 0.578747L 43.1845 -0.578747L -0.815507 61.4213L 0.815507 62.5787ZM 43.2224 0.628809L 89.7224 58.1288L 91.2776 56.8712L 44.7776 -0.628809L 43.2224 0.628809Z"/>
<path id="path14_stroke" d="M 0.3641 4.15732C 0.174842 3.95623 -0.141595 3.94664 -0.342682 4.1359C -0.543769 4.32516 -0.553358 4.6416 -0.3641 4.84268L 0.3641 4.15732ZM 8 13L 7.6359 13.3427C 7.7349 13.4479 7.87457 13.5051 8.01892 13.4996C 8.16327 13.4942 8.2982 13.4265 8.38897 13.3142L 8 13ZM 18.5 0L 18.8813 -0.323489C 18.7849 -0.437068 18.6429 -0.501766 18.4939 -0.499963C 18.345 -0.498161 18.2046 -0.430046 18.111 -0.314169L 18.5 0ZM 32.5 16.5L 32.1187 16.8235C 32.2356 16.9612 32.4176 17.0252 32.5949 16.9909C 32.7722 16.9566 32.9172 16.8294 32.9743 16.6581L 32.5 16.5ZM 35.9743 7.65811C 36.0617 7.39614 35.9201 7.11298 35.6581 7.02566C 35.3961 6.93833 35.113 7.07991 35.0257 7.34189L 35.9743 7.65811ZM -0.3641 4.84268L 7.6359 13.3427L 8.3641 12.6573L 0.3641 4.15732L -0.3641 4.84268ZM 8.38897 13.3142L 18.889 0.314169L 18.111 -0.314169L 7.61103 12.6858L 8.38897 13.3142ZM 18.1187 0.323489L 32.1187 16.8235L 32.8813 16.1765L 18.8813 -0.323489L 18.1187 0.323489ZM 32.9743 16.6581L 35.9743 7.65811L 35.0257 7.34189L 32.0257 16.3419L 32.9743 16.6581Z"/>
<path id="path15_stroke" d="M -0.411096 19.2154C -0.568279 19.4424 -0.511647 19.7539 -0.284605 19.9111C -0.0575629 20.0683 0.253913 20.0116 0.411096 19.7846L -0.411096 19.2154ZM 13.5 0L 13.8967 -0.304409C 13.7994 -0.431137 13.6474 -0.503765 13.4877 -0.49985C 13.328 -0.495934 13.1798 -0.415947 13.0889 -0.284605L 13.5 0ZM 30 21.5L 29.6033 21.8044C 29.7039 21.9355 29.8627 22.0084 30.0277 21.9992C 30.1926 21.9901 30.3424 21.9001 30.4279 21.7587L 30 21.5ZM 43 0L 43.3763 -0.329252C 43.2712 -0.449304 43.1152 -0.512027 42.9563 -0.498087C 42.7974 -0.484147 42.6547 -0.395217 42.5721 -0.25871L 43 0ZM 56.6237 16.3293C 56.8056 16.5371 57.1214 16.5581 57.3293 16.3763C 57.5371 16.1944 57.5581 15.8786 57.3763 15.6707L 56.6237 16.3293ZM 0.411096 19.7846L 13.9111 0.284605L 13.0889 -0.284605L -0.411096 19.2154L 0.411096 19.7846ZM 13.1033 0.304409L 29.6033 21.8044L 30.3967 21.1956L 13.8967 -0.304409L 13.1033 0.304409ZM 30.4279 21.7587L 43.4279 0.25871L 42.5721 -0.25871L 29.5721 21.2413L 30.4279 21.7587ZM 42.6237 0.329252L 56.6237 16.3293L 57.3763 15.6707L 43.3763 -0.329252L 42.6237 0.329252Z"/>
<path id="path16_stroke" d="M 0.406867 -0.290619C 0.246362 -0.515325 -0.0659128 -0.567371 -0.290619 -0.406867C -0.515325 -0.246362 -0.567371 0.0659128 -0.406867 0.290619L 0.406867 -0.290619ZM 9.59313 14.2906C 9.75364 14.5153 10.0659 14.5674 10.2906 14.4069C 10.5153 14.2464 10.5674 13.9341 10.4069 13.7094L 9.59313 14.2906ZM -0.406867 0.290619L 9.59313 14.2906L 10.4069 13.7094L 0.406867 -0.290619L -0.406867 0.290619Z"/>
<path id="path17_stroke" d="M 29.8429 94.5L 30.1689 95.4454L 29.8429 94.5ZM 1.5 32L 0.50547 32.1045L 1.5 32ZM 0.952029 127.306C 5.39774 113.475 12.2527 101.622 30.1689 95.4454L 29.517 93.5546C 10.7862 100.012 3.60226 112.525 -0.952029 126.694L 0.952029 127.306ZM 30.1689 95.4454C 35.1457 93.7296 38.5843 91.6548 40.6893 89.2303C 42.8285 86.7665 43.5371 84.001 43.1543 81.0901C 42.4108 75.4364 37.5461 69.2807 31.68 63.3041C 25.7585 57.2726 18.5836 51.1996 12.813 45.6882C 9.9304 42.9356 7.42755 40.3568 5.58208 37.973C 3.72664 35.5788 2.66774 33.5448 2.49453 31.8955L 0.50547 32.1045C 0.739545 34.3332 2.0955 36.739 4.00124 39.1981C 5.91695 41.6675 8.52163 44.3553 11.4317 47.1346C 17.2464 52.6868 24.3974 58.738 30.2526 64.705C 36.1632 70.7269 40.5261 76.4439 41.1714 81.3508C 41.483 83.7202 40.9262 85.9069 39.1791 87.9191C 37.3979 89.9706 34.3294 91.8954 29.517 93.5546L 30.1689 95.4454ZM 2.49453 31.8955C 1.85937 25.8479 3.11658 21.333 5.29127 17.8453C 7.49082 14.2907 10.6214 11.805 13.9225 9.78831C 17.2136 7.7724 20.5909 6.32316 23.1293 4.96873C 24.4081 4.28532 25.5494 3.57081 26.3109 2.83778C 27.1161 2.05399 27.6899 1.05645 27.4864 -0.164399L 25.5136 0.164399C 25.5673 0.486565 25.4706 0.864684 24.9159 1.40461C 24.3174 1.99531 23.4093 2.55259 22.1873 3.20448C 19.7243 4.52063 16.2947 5.99598 12.8789 8.08213C 9.47309 10.1675 5.99658 12.9613 3.59416 16.7871C 1.16689 20.6799 -0.172784 25.6464 0.50547 32.1045L 2.49453 31.8955Z"/>
<path id="path18_stroke" d="M -0.623154 4.39348C -1.0551 4.73764 -1.12626 5.36679 -0.782099 5.79873C -0.43794 6.23068 0.191213 6.30184 0.623154 5.95768L -0.623154 4.39348ZM 6.49569 0L 6.87887 -0.923672L 6.33394 -1.14974L 5.87253 -0.782099L 6.49569 0ZM 14.9725 4.59925C 15.4827 4.81088 16.0678 4.56889 16.2794 4.05876C 16.491 3.54863 16.249 2.96354 15.7389 2.75191L 14.9725 4.59925ZM 0.623154 5.95768L 7.11884 0.782099L 5.87253 -0.782099L -0.623154 4.39348L 0.623154 5.95768ZM 6.1125 0.923672L 14.9725 4.59925L 15.7389 2.75191L 6.87887 -0.923672L 6.1125 0.923672Z"/>
<path id="path19_stroke" d="M 54.5 57.9492L 54.0373 57.7598L 53.9428 57.9905L 54.0702 58.2048L 54.5 57.9492ZM 141.5 39.4492L 141.5 38.9492L 141.44 38.9492L 141.382 38.9633L 141.5 39.4492ZM -0.163859 17.4216C 26.5152 26.6757 64.9185 37.7895 93.3433 41.0335C 100.455 41.8444 106.971 42.1641 112.51 41.838C 118.052 41.511 122.687 40.5358 126.032 38.7215C 129.401 36.8941 131.477 34.2023 131.808 30.5003C 132.136 26.8415 130.751 22.2796 127.43 16.6937L 126.57 17.2048C 129.849 22.7188 131.112 27.06 130.812 30.4111C 130.516 33.7188 128.688 36.1434 125.555 37.8425C 122.398 39.5548 117.933 40.5163 112.451 40.8397C 106.966 41.1641 100.536 40.8477 93.4567 40.0399C 65.1149 36.809 26.8182 25.7227 0.163859 16.4768L -0.163859 17.4216ZM 127.43 16.6937C 120.791 5.52767 113.667 0.377963 106.439 -0.396375C 99.227 -1.16901 92.087 2.43578 85.4543 8.36392C 72.1885 20.2205 60.6286 41.657 54.0373 57.7598L 54.9627 58.1386C 61.5381 42.0748 73.0282 20.8112 86.1207 9.10952C 92.6671 3.25849 99.5334 -0.13047 106.333 0.597936C 113.116 1.32464 120.009 6.17077 126.57 17.2048L 127.43 16.6937ZM 54.0702 58.2048C 59.5996 67.5042 69.8899 79.6192 82.8124 85.6893C 95.7905 91.7854 111.387 91.7595 127.342 76.8141L 126.658 76.0843C 111.013 90.739 95.8595 90.713 83.2376 84.7842C 70.5601 78.8292 60.4004 66.8943 54.9298 57.6937L 54.0702 58.2048ZM 127.342 76.8141C 135.258 69.3987 140.667 63.3498 144.175 58.4724C 147.686 53.5886 149.347 49.8082 149.721 46.9132C 150.099 43.9832 149.156 41.9493 147.499 40.672C 145.878 39.4221 143.641 38.9492 141.5 38.9492L 141.5 39.9492C 143.525 39.9492 145.51 40.4014 146.888 41.464C 148.231 42.4992 149.067 44.1652 148.729 46.7852C 148.386 49.4402 146.835 53.0599 143.363 57.8886C 139.887 62.7237 134.542 68.6998 126.658 76.0843L 127.342 76.8141ZM 141.382 38.9633C 124.529 43.0519 100.306 51.1039 82.5149 61.9347C 73.618 67.3527 66.2673 73.5014 62.2546 80.2515C 58.2202 87.0382 57.5679 94.428 62.0673 102.2L 62.9327 101.699C 58.6321 94.2704 59.2465 87.2686 63.1142 80.7625C 67.0035 74.22 74.1904 68.1749 83.0351 62.7888C 100.727 52.0112 124.805 44.0132 141.618 39.9351L 141.382 38.9633Z"/>
<path id="path20_fill" d="M 0 7C 0 3.13401 3.13401 0 7 0L 48 0C 51.866 0 55 3.13401 55 7L 55 11C 55 14.866 51.866 18 48 18L 7 18C 3.13401 18 0 14.866 0 11L 0 7Z"/>
<path id="path21_stroke_2x" d="M 7 2L 48 2L 48 -2L 7 -2L 7 2ZM 53 7L 53 11L 57 11L 57 7L 53 7ZM 48 16L 7 16L 7 20L 48 20L 48 16ZM 2 11L 2 7L -2 7L -2 11L 2 11ZM 7 -2C 2.02944 -2 -2 2.02944 -2 7L 2 7C 2 4.23858 4.23858 2 7 2L 7 -2ZM 48 2C 50.7614 2 53 4.23858 53 7L 57 7C 57 2.02944 52.9706 -2 48 -2L 48 2ZM 53 11C 53 13.7614 50.7614 16 48 16L 48 20C 52.9706 20 57 15.9706 57 11L 53 11ZM 7 16C 4.23858 16 2 13.7614 2 11L -2 11C -2 15.9706 2.02944 20 7 20L 7 16Z"/>
<path id="path22_fill" d="M 15 7.5C 15 11.6421 11.6421 15 7.5 15C 3.35786 15 0 11.6421 0 7.5C 0 3.35786 3.35786 0 7.5 0C 11.6421 0 15 3.35786 15 7.5Z"/>
<path id="path23_stroke_2x" d="M 13 7.5C 13 10.5376 10.5376 13 7.5 13L 7.5 17C 12.7467 17 17 12.7467 17 7.5L 13 7.5ZM 7.5 13C 4.46243 13 2 10.5376 2 7.5L -2 7.5C -2 12.7467 2.25329 17 7.5 17L 7.5 13ZM 2 7.5C 2 4.46243 4.46243 2 7.5 2L 7.5 -2C 2.25329 -2 -2 2.25329 -2 7.5L 2 7.5ZM 7.5 2C 10.5376 2 13 4.46243 13 7.5L 17 7.5C 17 2.25329 12.7467 -2 7.5 -2L 7.5 2Z"/>
<path id="path24_stroke" d="M 5.45583 9.63533L 5.76818 10.0258L 5.45583 9.63533ZM 6.88156 8.49475L 6.56921 8.10432L 6.88156 8.49475ZM 65 0L 65.449 0.219934C 65.5308 0.053016 65.5132 -0.145476 65.4034 -0.295427C 65.2936 -0.445378 65.1096 -0.522039 64.9258 -0.494468L 65 0ZM 58.5106 13.2491L 58.0616 13.0292L 58.5106 13.2491ZM 35 18L 34.9539 18.4979C 34.9818 18.5005 35.0098 18.5007 35.0378 18.4986L 35 18ZM 17 16.3333L 16.932 16.8287C 16.9393 16.8297 16.9466 16.8305 16.9539 16.8312L 17 16.3333ZM 60 0.75L 59.9258 0.255532C 59.8224 0.271046 59.7264 0.3186 59.6515 0.391503L 60 0.75ZM 53.5755 16.5928L 53.5377 16.0942L 53.5755 16.5928ZM 5.76818 10.0258L 7.19391 8.88519L 6.56921 8.10432L 5.14349 9.2449L 5.76818 10.0258ZM 13.9365 6.83787L 48.6833 9.80405L 48.7684 8.80768L 14.0216 5.84149L 13.9365 6.83787ZM 64.551 -0.219934L 58.0616 13.0292L 58.9597 13.469L 65.449 0.219934L 64.551 -0.219934ZM 53.5377 16.0942L 34.9622 17.5014L 35.0378 18.4986L 53.6133 17.0913L 53.5377 16.0942ZM 35.0461 17.5021L 17.0461 15.8355L 16.9539 16.8312L 34.9539 18.4979L 35.0461 17.5021ZM 17.068 15.838L 6.98997 14.4547L 6.85399 15.4454L 16.932 16.8287L 17.068 15.838ZM 52.985 8.26746L 60.3485 1.1085L 59.6515 0.391503L 52.288 7.55046L 52.985 8.26746ZM 60.0742 1.24447L 65.0742 0.494468L 64.9258 -0.494468L 59.9258 0.255532L 60.0742 1.24447ZM 5.14349 9.2449C 2.74239 11.1658 3.80764 15.0273 6.85399 15.4454L 6.98997 14.4547C 4.81401 14.1561 4.05311 11.3978 5.76818 10.0258L 5.14349 9.2449ZM 7.19391 8.88519C 9.09589 7.3636 11.5097 6.63069 13.9365 6.83787L 14.0216 5.84149C 11.3392 5.61251 8.6714 6.42256 6.56921 8.10432L 7.19391 8.88519ZM 48.6833 9.80405C 50.2722 9.93969 51.8417 9.37905 52.985 8.26746L 52.288 7.55046C 51.3525 8.45995 50.0683 8.91865 48.7684 8.80768L 48.6833 9.80405ZM 58.0616 13.0292C 57.2037 14.7807 55.4825 15.9469 53.5377 16.0942L 53.6133 17.0913C 55.9116 16.9172 57.9458 15.539 58.9597 13.469L 58.0616 13.0292Z"/>
<path id="path25_fill" d="M 6 1.5C 6 2.32843 5.32843 3 4.5 3C 3.67157 3 0 2.32843 0 1.5C 0 0.671573 3.67157 0 4.5 0C 5.32843 0 6 0.671573 6 1.5Z"/>
<path id="path26_stroke" d="M 17 0L 17.957 0.290007L 18.5885 -1.79379L 16.5964 -0.914918L 17 0ZM 12.957 16.79L 17.957 0.290007L 16.043 -0.290007L 11.043 16.21L 12.957 16.79ZM 16.5964 -0.914918L -0.40364 6.58508L 0.40364 8.41492L 17.4036 0.914918L 16.5964 -0.914918Z"/>
<path id="path27_stroke" d="M 0 0L 0.0530927 -0.99859C -0.412163 -1.02333 -0.832855 -0.723483 -0.961268 -0.275616C -1.08968 0.172251 -0.891785 0.649457 -0.484107 0.875009L 0 0ZM 25.1143 13.8947L 24.6302 14.7697C 24.7784 14.8517 24.9449 14.8947 25.1143 14.8947L 25.1143 13.8947ZM 32 13.8947L 32 14.8947C 32.4185 14.8947 32.7927 14.6341 32.9379 14.2416C 33.0831 13.8491 32.9685 13.4077 32.6507 13.1354L 32 13.8947ZM 16.8286 0.894737L 17.4792 0.135379C 17.3119 -0.00804656 17.1018 -0.0921495 16.8817 -0.103853L 16.8286 0.894737ZM -0.484107 0.875009L 24.6302 14.7697L 25.5984 13.0197L 0.484107 -0.875009L -0.484107 0.875009ZM 25.1143 14.8947L 32 14.8947L 32 12.8947L 25.1143 12.8947L 25.1143 14.8947ZM 32.6507 13.1354L 17.4792 0.135379L 16.1779 1.65409L 31.3493 14.6541L 32.6507 13.1354ZM 16.8817 -0.103853L 0.0530927 -0.99859L -0.0530927 0.99859L 16.7755 1.89333L 16.8817 -0.103853Z"/>
<path id="path28_stroke" d="M 0 0.315789L -0.0404527 -0.683392C -0.527716 -0.663665 -0.929692 -0.295346 -0.991845 0.188339C -1.054 0.672025 -0.758199 1.13001 -0.291753 1.27228L 0 0.315789ZM 8.8 3L 8.50825 3.95649C 8.60281 3.98534 8.70113 4 8.8 4L 8.8 3ZM 14 3L 14 4C 14.4662 4 14.8706 3.67785 14.9747 3.22343C 15.0789 2.76901 14.8552 2.3029 14.4356 2.09984L 14 3ZM 7.8 0L 8.23556 -0.900159C 8.08745 -0.971825 7.92395 -1.00584 7.75955 -0.999181L 7.8 0ZM -0.291753 1.27228L 8.50825 3.95649L 9.09175 2.04351L 0.291753 -0.640704L -0.291753 1.27228ZM 8.8 4L 14 4L 14 2L 8.8 2L 8.8 4ZM 14.4356 2.09984L 8.23556 -0.900159L 7.36444 0.900159L 13.5644 3.90016L 14.4356 2.09984ZM 7.75955 -0.999181L -0.0404527 -0.683392L 0.0404527 1.31497L 7.84045 0.999181L 7.75955 -0.999181Z"/>
<path id="path29_fill" d="M 120 19.5C 120 30.2696 93.1371 39 60 39C 26.8629 39 0 30.2696 0 19.5C 0 8.73045 26.8629 0 60 0C 93.1371 0 120 8.73045 120 19.5Z"/>
<path id="path30_stroke_2x" d="M 119 19.5C 119 21.7436 117.601 24.0496 114.676 26.2973C 111.726 28.571 107.484 30.5956 102.117 32.3375C 91.3412 35.8436 76.4964 38.0026 60 38L 60 40C 76.6407 39.9974 91.7959 37.7912 102.735 34.2396C 108.226 32.4528 112.772 30.2754 115.894 27.8832C 119.041 25.4651 121 22.6412 121 19.5L 119 19.5ZM 60 38C 43.5036 38.0026 28.6588 35.8436 17.8827 32.3375C 12.5157 30.5956 8.27447 28.571 5.32439 26.2973C 2.39912 24.0496 1 21.7436 1 19.5L -1 19.5C -1 22.6412 0.958741 25.4651 4.10581 27.8832C 7.22805 30.2754 11.7736 32.4528 17.2645 34.2396C 28.2041 37.7912 43.3593 39.9974 60 40L 60 38ZM 1 19.5C 1 17.2564 2.39912 14.9504 5.32439 12.7027C 8.27447 10.429 12.5157 8.40443 17.8827 6.66245C 28.6588 3.15642 43.5036 0.997391 60 1L 60 -1C 43.3593 -0.997391 28.2041 1.2088 17.2645 4.76038C 11.7736 6.54721 7.22805 8.72457 4.10581 11.1168C 0.958741 13.5349 -1 16.3588 -1 19.5L 1 19.5ZM 60 1C 76.4964 0.997391 91.3412 3.15642 102.117 6.66245C 107.484 8.40443 111.726 10.429 114.676 12.7027C 117.601 14.9504 119 17.2564 119 19.5L 121 19.5C 121 16.3588 119.041 13.5349 115.894 11.1168C 112.772 8.72457 108.226 6.54721 102.735 4.76038C 91.7959 1.2088 76.6407 -0.997391 60 -1L 60 1Z"/>
<path id="path31_stroke" d="M 13.5 3.04734C 13.5 2.49505 13.0523 2.04734 12.5 2.04734C 11.9477 2.04734 11.5 2.49505 11.5 3.04734L 13.5 3.04734ZM 7.5 22.5473L 7.90614 21.6335L 7.5 22.5473ZM 6.55132 17.3636C 6.72597 17.8875 7.29229 18.1707 7.81623 17.996C 8.34017 17.8214 8.62333 17.2551 8.44868 16.7311L 6.55132 17.3636ZM -0.813733 2.4661C -1.13474 2.91551 -1.03065 3.54006 -0.581239 3.86107C -0.131827 4.18208 0.492724 4.07799 0.813733 3.62858L -0.813733 2.4661ZM 7.5 0.0473362L 7.4005 1.04237L 7.5 0.0473362ZM 20.3939 3.96648C 20.9015 3.74893 21.1367 3.16105 20.9191 2.65342C 20.7016 2.14579 20.1137 1.91064 19.6061 2.12819L 20.3939 3.96648ZM 8.5 10.5473C 7.94772 10.5473 7.5 10.9951 7.5 11.5473C 7.5 12.0996 7.94772 12.5473 8.5 12.5473L 8.5 10.5473ZM 16 12.5473C 16.5523 12.5473 17 12.0996 17 11.5473C 17 10.9951 16.5523 10.5473 16 10.5473L 16 12.5473ZM 11.5 3.04734C 11.5005 7.01422 11.1584 12.1926 10.3687 16.2047C 9.97332 18.2188 9.4848 19.8256 8.92939 20.8085C 8.64986 21.3031 8.40898 21.5384 8.24897 21.6306C 8.14863 21.6885 8.06993 21.7063 7.90614 21.6335L 7.09386 23.4611C 7.83007 23.7884 8.58262 23.7468 9.2479 23.3633C 9.85352 23.0141 10.3126 22.4259 10.6706 21.7924C 11.3902 20.5191 11.9267 18.6509 12.3313 16.59C 13.1416 12.452 13.4994 7.08046 13.5 3.04734L 11.5 3.04734ZM 7.90614 21.6335C 5.70244 20.6541 4.71806 19.7687 4.38235 19.1392C 4.23242 18.8581 4.22016 18.6461 4.25827 18.4714C 4.30246 18.2025 4.40974 18.0422 4.70711 17.7544L 3.29289 16.3402C 2.84026 16.8025 2.44754 17.4547 2.30423 18.0451C 2.15484 18.7298 2.26758 19.4241 2.61765 20.0804C 3.28194 21.326 4.79756 22.4406 7.09386 23.4611L 7.90614 21.6335ZM 4.70711 17.7544C 5.26336 17.1982 5.66489 16.9248 5.93025 16.8028C 6.18088 16.6875 6.24677 16.7335 6.21323 16.7225C 6.14953 16.7278 6.22712 16.6957 6.31795 16.8427C 6.42153 16.9885 6.47791 17.1419 6.55132 17.3636L 8.44868 16.7311C 8.35543 16.4528 8.19097 16.0562 7.98205 15.7333C 7.75165 15.3877 7.38857 15.0032 6.83677 14.8222C 5.70106 14.4495 4.50838 15.1247 3.29289 16.3402L 4.70711 17.7544ZM 0.813733 3.62858C 1.48542 2.68821 3.83031 0.685354 7.4005 1.04237L 7.5995 -0.947701C 3.1697 -1.39068 0.181245 1.07313 -0.813733 2.4661L 0.813733 3.62858ZM 7.4005 1.04237C 9.57726 1.26005 10.5963 2.48297 12.4527 3.69681C 13.3207 4.26179 14.4205 4.77666 15.7057 4.91036C 17.0271 5.03133 18.5406 4.76075 20.3939 3.96648L 19.6061 2.12819C 17.9594 2.83392 16.7854 3.00084 15.888 2.91869C 14.9545 2.84926 14.3043 2.52038 13.5472 2.02287C 12.1537 1.1117 10.4227 -0.665378 7.5995 -0.947701L 7.4005 1.04237ZM 8.5 12.5473L 16 12.5473L 16 10.5473L 8.5 10.5473L 8.5 12.5473Z"/>
<path id="path32_stroke" d="M 8.67985 13.4783L 9.66172 13.6678L 8.67985 13.4783ZM 0.951789 10.4348L 0.0775946 9.94921L 0.0775946 9.94921L 0.951789 10.4348ZM 13.0269 11L 12.7215 10.0478L 13.0269 11ZM 13.0269 20L 12.1527 19.5144L 13.8821 20.5182L 13.0269 20ZM 23.17 7.82609L 23.4574 6.86828L 23.17 7.82609ZM 20.3059 13.4783L 21.2971 13.6107L 21.2993 13.5944L 21.3009 13.578L 20.3059 13.4783ZM 28.9832 0.182373C 29.084 -0.360649 28.7254 -0.882507 28.1824 -0.983229C 27.6394 -1.08395 27.1175 -0.725396 27.0168 -0.182373L 28.9832 0.182373ZM 28.2491 19.2294C 28.784 19.0918 29.106 18.5467 28.9685 18.0118C 28.8309 17.4769 28.2858 17.1548 27.7509 17.2924L 28.2491 19.2294ZM 7.69798 13.2887C 7.38628 14.9034 6.61852 16.4245 5.69706 17.2677C 5.24575 17.6807 4.80606 17.8888 4.40325 17.9315C 4.01965 17.9723 3.55451 17.8762 3.00087 17.4609L 1.80073 19.0608C 2.6961 19.7325 3.65537 20.0223 4.61455 19.9204C 5.55453 19.8205 6.376 19.3574 7.04722 18.7432C 8.37082 17.532 9.29358 15.5749 9.66172 13.6678L 7.69798 13.2887ZM 3.00087 17.4609C 1.74618 16.5197 1.17981 15.4471 1.03739 14.3787C 0.891608 13.2852 1.17715 12.0885 1.82598 10.9204L 0.0775946 9.94921C -0.722587 11.3898 -1.16155 13.0192 -0.945074 14.643C -0.72524 16.2921 0.157403 17.8281 1.80073 19.0608L 3.00087 17.4609ZM 1.82598 10.9204C 2.78379 9.19599 4.31933 8.82609 4.81582 8.82609L 4.81582 6.82609C 3.70229 6.82609 1.43821 7.49966 0.0775946 9.94921L 1.82598 10.9204ZM 4.81582 8.82609C 6.10245 8.82609 6.76106 9.09868 7.10717 9.37692C 7.4363 9.64151 7.6219 10.0232 7.70602 10.5833L 9.68384 10.2863C 9.55452 9.42529 9.21174 8.50265 8.36026 7.81815C 7.52577 7.14731 6.35154 6.82609 4.81582 6.82609L 4.81582 8.82609ZM 7.70602 10.5833C 7.84968 11.522 7.85549 12.4977 7.69798 13.2887L 9.66172 13.6678C 9.84676 12.6843 9.84384 11.3693 9.68384 10.2863L 7.70602 10.5833ZM 9.50076 11.0269C 9.78647 10.6356 10.2764 10.0974 10.9569 9.61835C 11.6327 9.13609 12.3526 8.82609 13.0269 8.82609L 13.0269 6.82609C 11.7691 6.82609 10.6426 7.38565 9.79515 7.99035C 8.95245 8.59828 8.24236 9.36444 7.8891 9.84264L 9.50076 11.0269ZM 13.0269 8.82609C 13.2629 8.82609 12.9998 8.89184 12.7834 8.59838C 12.5522 8.28488 12.6962 8.00782 12.6538 8.12378C 12.5806 8.32401 12.326 8.67528 11.9304 9.19348C 11.7542 9.42426 11.5652 9.6729 11.4164 9.89548C 11.2943 10.0788 11.0759 10.4185 11.0196 10.7899C 10.9866 11.0076 10.9877 11.3875 11.266 11.7258C 11.5334 12.0509 11.8913 12.1336 12.1001 12.1549C 12.4866 12.1944 12.9288 12.0816 13.3323 11.9522L 12.7215 10.0478C 12.3201 10.1765 12.2341 10.1582 12.3031 10.1653C 12.3532 10.1704 12.6049 10.2052 12.8106 10.4553C 13.0272 10.7186 13.0111 10.9964 12.997 11.0896C 12.9785 11.2118 12.9424 11.2124 13.0813 11.0036C 13.1935 10.8341 13.3441 10.6376 13.5201 10.4071C 13.8288 10.0027 14.3287 9.36691 14.5322 8.81068C 14.6281 8.54841 14.7909 7.95077 14.393 7.41127C 14.0099 6.89179 13.3946 6.82609 13.0269 6.82609L 13.0269 8.82609ZM 13.3323 11.9522C 13.8015 11.8017 14.0722 11.8016 14.2047 11.8266C 14.3026 11.8451 14.3312 11.8746 14.3602 11.917C 14.4862 12.1013 14.5955 12.623 14.4408 13.6118C 14.1501 15.5207 13.1035 17.9486 12.1716 19.4818L 13.8821 20.5182C 14.8822 18.863 16.0722 16.0735 16.4168 13.9208C 16.5798 12.8788 16.6064 11.6586 16.0111 10.7881C 15.6795 10.3031 15.1879 9.97702 14.5761 9.8614C 13.999 9.75233 13.3706 9.83957 12.7215 10.0478L 13.3323 11.9522ZM 13.9011 20.4856C 15.0989 18.3287 17.0185 15.1695 18.9341 12.6225C 19.8872 11.3535 20.7888 10.2934 21.6085 9.57297C 22.004 9.22193 22.2969 9.00986 22.5907 8.87716C 22.8396 8.75091 22.9471 8.8306 22.8826 8.7839L 23.4574 6.86828C 22.838 6.68242 22.232 6.83732 21.7443 7.06509C 21.2892 7.28226 20.7602 7.65579 20.2847 8.07377C 19.3626 8.89134 18.3262 10.1031 17.3352 11.421C 15.3626 14.0479 13.3699 17.3234 12.1527 19.5144L 13.9011 20.4856ZM 22.8826 8.7839C 23.6129 9.00301 24.1155 9.1443 24.4758 9.31257C 24.7892 9.45624 24.8518 9.55394 24.8834 9.61946C 24.9372 9.73097 25.0031 9.99025 24.954 10.6224C 24.9056 11.2612 24.7587 12.0978 24.5198 13.2803L 26.4802 13.6762C 26.7243 12.4674 26.89 11.5105 26.948 10.7771C 27.0054 10.0369 26.9718 9.34512 26.6846 8.75011C 26.3752 8.1091 25.8553 7.74485 25.3092 7.4945C 24.81 7.26875 24.1761 7.08395 23.4574 6.86828L 22.8826 8.7839ZM 24.5198 13.2803C 24.0584 15.5646 23.3783 16.7436 22.8064 17.3413C 22.2579 17.9146 21.7661 18 21.5 18L 21.5 20C 22.2772 20 23.3024 19.7159 24.2515 18.724C 25.1773 17.7564 25.9756 16.1745 26.4802 13.6762L 24.5198 13.2803ZM 21.5 18C 21.4609 18.0207 21.6024 18.0744 21.5697 18.0256C 21.5036 17.979 21.497 17.9547 21.4296 17.7729C 21.2646 17.3717 21.2034 16.8448 21.1776 16.1979C 21.15 15.5513 21.18 14.9193 21.218 14.4161C 21.2366 14.1689 21.2563 13.9696 21.2721 13.8235C 21.2799 13.7525 21.2861 13.6997 21.2908 13.6614C 21.293 13.6431 21.2946 13.6306 21.2958 13.6211C 21.2963 13.6168 21.2967 13.6142 21.2969 13.612C 21.2971 13.6112 21.2971 13.6108 21.2972 13.6104C 21.2972 13.6103 21.2972 13.6103 21.2972 13.6103C 21.2972 13.6103 21.2972 13.6104 21.2972 13.6105C 21.2971 13.6106 21.2971 13.6107 20.3059 13.4783C 19.3147 13.3458 19.3147 13.346 19.3147 13.3462C 19.3147 13.3463 19.3146 13.3465 19.3146 13.3467C 19.3146 13.347 19.3145 13.3476 19.3144 13.3481C 19.3143 13.349 19.3141 13.3507 19.3139 13.3525C 19.3134 13.3556 19.3128 13.361 19.312 13.3671C 19.3105 13.3785 19.3082 13.397 19.3055 13.4192C 19.3003 13.4617 19.2925 13.5276 19.2838 13.6075C 19.2669 13.7634 19.2441 13.9955 19.2236 14.2659C 19.1837 14.7981 19.15 15.5465 19.1793 16.2804C 19.2106 17.0139 19.3271 17.8674 19.5671 18.5015C 19.827 19.1659 20.3994 20 21.5 20L 21.5 18ZM 20.3059 13.4783C 21.3009 13.578 21.3009 13.5782 21.3009 13.5784C 21.3009 13.5785 21.3009 13.5786 21.3009 13.5787C 21.3009 13.5787 21.3008 13.5792 21.3008 13.5791C 21.3008 13.5793 21.3008 13.5791 21.3009 13.5787C 21.301 13.5772 21.3012 13.5761 21.3015 13.5732C 21.3022 13.5661 21.3032 13.5577 21.3048 13.544C 21.3083 13.5139 21.3131 13.4744 21.3208 13.4183C 21.3368 13.3003 21.3604 13.1428 21.3976 12.9389C 21.474 12.5186 21.5899 11.988 21.7828 11.402C 22.1854 10.1707 22.7943 9.11958 23.6062 8.7259L 22.7337 6.92628C 21.1306 7.70355 20.3075 9.47855 19.8818 10.7805C 19.6606 11.4612 19.5133 12.1241 19.43 12.5806C 19.3874 12.8151 19.357 13.0169 19.3391 13.1485C 19.3297 13.2172 19.3226 13.2752 19.3184 13.3113C 19.3161 13.3307 19.3142 13.3477 19.3131 13.3576C 19.3125 13.3632 19.312 13.3685 19.3117 13.3713C 19.3115 13.3731 19.3113 13.3749 19.3112 13.3758C 19.3111 13.3764 19.3111 13.3771 19.311 13.3774C 19.311 13.3776 19.311 13.3779 19.311 13.378C 19.3109 13.3783 19.3109 13.3786 20.3059 13.4783ZM 27.0168 -0.182373L 24.5168 13.2959L 26.4832 13.6606L 28.9832 0.182373L 27.0168 -0.182373ZM 27.7509 17.2924C 26.9907 17.4879 26.6144 17.4363 26.456 17.3753C 26.3638 17.3397 26.2799 17.2827 26.2088 17.0477C 26.1245 16.7686 26.0972 16.3356 26.1519 15.7203C 26.2055 15.1057 26.3286 14.4266 26.4802 13.6762L 24.5198 13.2803C 24.364 14.0517 24.2233 14.8399 24.1598 15.5432C 24.0973 16.246 24.0995 16.9814 24.2943 17.6262C 24.5025 18.3151 24.9476 18.9374 25.7371 19.2416C 26.4604 19.5202 27.3188 19.4686 28.2491 19.2294L 27.7509 17.2924Z"/>
<path id="path33_fill" fill-rule="evenodd" d="M 83.9521 53.9377C 78.4654 58.3335 71.3359 61 63.5 61C 62.3036 61 61.1238 60.9378 59.9637 60.8169C 64.3738 55.4827 67 48.7797 67 41.5C 67 39.0861 66.7112 36.7356 66.1644 34.4774C 74.8771 38.0635 81.4894 45.2339 83.9521 53.9377ZM 85.6148 52.5065C 82.6427 43.109 75.1326 35.5485 65.4736 32.0717C 61.9496 21.4945 52.6532 13.3178 41.0542 10.8042C 46.7494 5.38068 54.6768 2 63.5 2C 81.0147 2 95 15.3218 95 31.5C 95 39.6851 91.4202 47.139 85.6148 52.5065ZM 86.2078 54.6592C 92.8436 48.9035 97 40.6582 97 31.5C 97 14.103 82.0015 0 63.5 0C 53.645 0 44.784 4.00136 38.6541 10.3705C 36.974 10.1266 35.2527 10 33.5 10C 14.9985 10 0 24.103 0 41.5C 0 54.9301 8.93832 66.3971 21.5264 70.9283C 25.7881 83.7194 38.4914 93 53.5 93C 72.0015 93 87 78.897 87 61.5C 87 59.1508 86.7265 56.8616 86.2078 54.6592ZM 84.4655 56.07C 78.726 60.4058 71.4352 63 63.5 63C 61.7473 63 60.026 62.8734 58.3459 62.6295C 52.216 68.9986 43.355 73 33.5 73C 30.1774 73 26.9677 72.5452 23.9377 71.6981C 28.3562 82.9174 39.8574 91 53.5 91C 71.0147 91 85 77.6782 85 61.5C 85 59.6473 84.8166 57.8321 84.4655 56.07ZM 57.6064 60.4861C 62.2279 55.3393 65 48.7027 65 41.5C 65 38.7794 64.6045 36.1396 63.8633 33.6304C 60.6236 32.5747 57.1379 32 53.5 32C 45.6641 32 38.5346 34.6665 33.0479 39.0623C 36.1156 49.9042 45.622 58.3669 57.6064 60.4861ZM 31.3852 40.4935C 34.7969 51.2811 44.1884 59.6479 55.9458 62.1958C 50.2506 67.6193 42.3232 71 33.5 71C 29.8621 71 26.3764 70.4253 23.1367 69.3696C 22.3955 66.8604 22 64.2206 22 61.5C 22 53.3149 25.5798 45.861 31.3852 40.4935ZM 32.5345 36.93C 38.274 32.5943 45.5648 30 53.5 30C 56.8226 30 60.0323 30.4548 63.0623 31.3019C 59.2969 21.741 50.388 14.458 39.3936 12.5138C 34.7721 17.6607 32 24.2973 32 31.5C 32 33.3527 32.1834 35.1679 32.5345 36.93ZM 37.0363 12.1831C 32.6262 17.5173 30 24.2203 30 31.5C 30 33.8492 30.2735 36.1384 30.7922 38.3409C 24.1564 44.0965 20 52.3418 20 61.5C 20 63.9139 20.2888 66.2644 20.8356 68.5226C 9.7033 63.9406 2 53.507 2 41.5C 2 25.3218 15.9853 12 33.5 12C 34.6964 12 35.8762 12.0622 37.0363 12.1831Z"/>
<path id="path34_fill" d="M 0 2.4514C 0 1.18545 1.16131 0.237974 2.40149 0.492109L 59.4015 12.1724C 60.332 12.3631 61 13.1819 61 14.1317L 61 77.3012C 61 78.2809 60.2903 79.1163 59.3236 79.2748L 2.32355 88.6191C 1.10608 88.8187 0 87.8792 0 86.6454L 0 2.4514Z"/>
<path id="path35_stroke_2x" d="M 2.40149 0.492109L 2.80299 -1.46718L 2.40149 0.492109ZM 59.4015 12.1724L 59 14.1317L 59.4015 12.1724ZM 2.32355 88.6191L 2 86.6454L 2.32355 88.6191ZM 59.3236 79.2748L 59.6471 81.2485L 59.3236 79.2748ZM 2 2.4514L 59 14.1317L 59.803 10.2132L 2.80299 -1.46718L 2 2.4514ZM 59 14.1317L 59 77.3012L 63 77.3012L 63 14.1317L 59 14.1317ZM 59 77.3012L 2 86.6454L 2.6471 90.5927L 59.6471 81.2485L 59 77.3012ZM 2 86.6454L 2 2.4514L -2 2.4514L -2 86.6454L 2 86.6454ZM 2.80299 -1.46718C 0.322627 -1.97545 -2 -0.0805045 -2 2.4514L 2 2.4514L 2.80299 -1.46718ZM 59 14.1317L 63 14.1317C 63 12.2321 61.6639 10.5945 59.803 10.2132L 59 14.1317ZM 59 77.3012L 59.6471 81.2485C 61.5807 80.9315 63 79.2606 63 77.3012L 59 77.3012ZM 2 86.6454L -2 86.6454C -2 89.1129 0.212151 90.9919 2.6471 90.5927L 2 86.6454Z"/>
<path id="path36_fill" d="M 0 2.45719C 0 1.18935 1.16459 0.241454 2.40603 0.498842L 61.406 12.7313C 62.3344 12.9238 63 13.7416 63 14.6897L 63 80.855C 63 81.8332 62.2923 82.6679 61.3273 82.828L 2.32726 92.614C 1.10866 92.8161 0 91.8762 0 90.6409L 0 2.45719Z"/>
<path id="path37_stroke_2x" d="M 61.406 12.7313L 61 14.6897L 61.406 12.7313ZM 61.3273 82.828L 61 80.855L 61.3273 82.828ZM 2 2.45719L 61 14.6897L 61.812 10.773L 2.81205 -1.45951L 2 2.45719ZM 61 14.6897L 61 80.855L 65 80.855L 65 14.6897L 61 14.6897ZM 61 80.855L 2 90.6409L 2.65451 94.587L 61.6545 84.8011L 61 80.855ZM 2 90.6409L 2 2.45719L -2 2.45719L -2 90.6409L 2 90.6409ZM 2.81205 -1.45951C 0.329172 -1.97429 -2 -0.0784878 -2 2.45719L 2 2.45719L 2.81205 -1.45951ZM 61 14.6897L 65 14.6897C 65 12.7935 63.6687 11.1579 61.812 10.773L 61 14.6897ZM 61 80.855L 61.6545 84.8011C 63.5847 84.4809 65 82.8115 65 80.855L 61 80.855ZM 2 90.6409L -2 90.6409C -2 93.1114 0.217319 94.9913 2.65451 94.587L 2 90.6409Z"/>
<path id="path38_fill" d="M 0 2C 0 0.895431 0.895431 0 2 0L 45 0C 46.1046 0 47 0.895431 47 2L 47 66C 47 67.1046 46.1046 68 45 68L 2 68C 0.895431 68 0 67.1046 0 66L 0 2Z"/>
<path id="path39_stroke_2x" d="M 2 2L 45 2L 45 -2L 2 -2L 2 2ZM 45 2L 45 66L 49 66L 49 2L 45 2ZM 45 66L 2 66L 2 70L 45 70L 45 66ZM 2 66L 2 2L -2 2L -2 66L 2 66ZM 2 -2C -0.209139 -2 -2 -0.209139 -2 2L 2 2L 2 -2ZM 45 2L 49 2C 49 -0.209139 47.2091 -2 45 -2L 45 2ZM 45 66L 45 70C 47.2091 70 49 68.2091 49 66L 45 66ZM 2 66L -2 66C -2 68.2091 -0.209139 70 2 70L 2 66Z"/>
<path id="path40_fill" d="M 29 14.5C 29 22.5081 22.5081 29 14.5 29C 6.49187 29 0 22.5081 0 14.5C 0 6.49187 6.49187 0 14.5 0C 22.5081 0 29 6.49187 29 14.5Z"/>
<path id="path41_stroke_2x" d="M 27 14.5C 27 21.4036 21.4036 27 14.5 27L 14.5 31C 23.6127 31 31 23.6127 31 14.5L 27 14.5ZM 14.5 27C 7.59644 27 2 21.4036 2 14.5L -2 14.5C -2 23.6127 5.3873 31 14.5 31L 14.5 27ZM 2 14.5C 2 7.59644 7.59644 2 14.5 2L 14.5 -2C 5.3873 -2 -2 5.3873 -2 14.5L 2 14.5ZM 14.5 2C 21.4036 2 27 7.59644 27 14.5L 31 14.5C 31 5.3873 23.6127 -2 14.5 -2L 14.5 2Z"/>
<path id="path42_fill" d="M 9 4.5C 9 6.98528 6.98528 9 4.5 9C 2.01472 9 0 6.98528 0 4.5C 0 2.01472 2.01472 0 4.5 0C 6.98528 0 9 2.01472 9 4.5Z"/>
<path id="path43_stroke_2x" d="M 7 4.5C 7 5.88071 5.88071 7 4.5 7L 4.5 11C 8.08985 11 11 8.08985 11 4.5L 7 4.5ZM 4.5 7C 3.11929 7 2 5.88071 2 4.5L -2 4.5C -2 8.08985 0.910149 11 4.5 11L 4.5 7ZM 2 4.5C 2 3.11929 3.11929 2 4.5 2L 4.5 -2C 0.910149 -2 -2 0.910149 -2 4.5L 2 4.5ZM 4.5 2C 5.88071 2 7 3.11929 7 4.5L 11 4.5C 11 0.910149 8.08985 -2 4.5 -2L 4.5 2Z"/>
<path id="path44_fill" d="M 4 2C 4 3.10457 3.10457 4 2 4C 0.895431 4 0 3.10457 0 2C 0 0.895431 0.895431 0 2 0C 3.10457 0 4 0.895431 4 2Z"/>
<path id="path45_stroke_2x" d="M 3 2C 3 2.55228 2.55228 3 2 3L 2 5C 3.65685 5 5 3.65685 5 2L 3 2ZM 2 3C 1.44772 3 1 2.55228 1 2L -1 2C -1 3.65685 0.343146 5 2 5L 2 3ZM 1 2C 1 1.44772 1.44772 1 2 1L 2 -1C 0.343146 -1 -1 0.343146 -1 2L 1 2ZM 2 1C 2.55228 1 3 1.44772 3 2L 5 2C 5 0.343146 3.65685 -1 2 -1L 2 1Z"/>
<path id="path46_stroke" d="M 10 15.5L 10 15L 9.5 15L 9.5 15.5L 10 15.5ZM 11.5 4L 11 4L 11 4.5L 11.5 4.5L 11.5 4ZM 37 4L 37 4.5L 37.5 4.5L 37.5 4L 37 4ZM 37 0L 37.5 0L 37.5 -0.5L 37 -0.5L 37 0ZM 11.5 0L 11.5 -0.5L 11 -0.5L 11 0L 11.5 0ZM 29.5 41L 29.0739 41.2617L 29.2203 41.5L 29.5 41.5L 29.5 41ZM 36 41L 36 41.5L 36.2817 41.5L 36.4276 41.2591L 36 41ZM 10 28.1535L 9.5 28.1535L 9.5 28.6535L 10 28.6535L 10 28.1535ZM 26.5376 36.177L 26.9637 35.9153L 26.8173 35.677L 26.5376 35.677L 26.5376 36.177ZM 55.8362 22.5L 55.8362 23L 56.3362 23L 56.3362 22.5L 55.8362 22.5ZM 47.1199 18.7364L 47.6177 18.6896L 47.5751 18.2364L 47.1199 18.2364L 47.1199 18.7364ZM 42.5 27.5L 42.5 28L 43 28L 43 27.5L 42.5 27.5ZM 42.5 18.7364L 42.5 18.2364L 42 18.2364L 42 18.7364L 42.5 18.7364ZM 15 15C 12.9334 15 11.2384 15 10 15L 10 16C 11.2384 16 12.9334 16 15 16L 15 15ZM 15.5 15.5L 15.5 4L 14.5 4L 14.5 15.5L 15.5 15.5ZM 37.5 4L 37.5 0L 36.5 0L 36.5 4L 37.5 4ZM 37 -0.5L 11.5 -0.5L 11.5 0.5L 37 0.5L 37 -0.5ZM 11 0L 11 4L 12 4L 12 0L 11 0ZM 11.5 4.5L 31.5 4.5L 31.5 3.5L 11.5 3.5L 11.5 4.5ZM 31.5 4.5L 37 4.5L 37 3.5L 31.5 3.5L 31.5 4.5ZM 31.5 15C 24.109 15 19.6243 15 15 15L 15 16C 19.6243 16 24.109 16 31.5 16L 31.5 15ZM 31 4L 31 15.5L 32 15.5L 32 4L 31 4ZM 29.5 41.5L 36 41.5L 36 40.5L 29.5 40.5L 29.5 41.5ZM 26.1116 36.4387L 29.0739 41.2617L 29.9261 40.7383L 26.9637 35.9153L 26.1116 36.4387ZM 36.4276 41.2591L 39.7595 35.7602L 38.9043 35.242L 35.5724 40.7409L 36.4276 41.2591ZM 55.8362 22L 52 22L 52 23L 55.8362 23L 55.8362 22ZM 13 24L 13 33L 14 33L 14 24L 13 24ZM 13 41L 13 50L 14 50L 14 41L 13 41ZM 0 36.677L 9 36.677L 9 35.677L 0 35.677L 0 36.677ZM 10.1598 39.1336L 3.15977 45.6336L 3.84023 46.3664L 10.8402 39.8664L 10.1598 39.1336ZM 3.62216 26.8275L 10.1222 34.3275L 10.8778 33.6725L 4.37784 26.1725L 3.62216 26.8275ZM 22.1464 27.1464L 15.6464 33.6464L 16.3536 34.3536L 22.8536 27.8536L 22.1464 27.1464ZM 17 36.677L 26.5376 36.677L 26.5376 35.677L 17 35.677L 17 36.677ZM 15.6598 39.3664L 22.6598 45.8664L 23.3402 45.1336L 16.3402 38.6336L 15.6598 39.3664ZM 53 23.5L 53 33L 54 33L 54 23.5L 53 23.5ZM 50.8762 33.6503L 44.5162 27.1503L 43.8014 27.8497L 50.1614 34.3497L 50.8762 33.6503ZM 55.4741 39.8447L 62.1379 46.8447L 62.8621 46.1553L 56.1983 39.1553L 55.4741 39.8447ZM 56.5 37.5L 66.3667 37.5L 66.3667 36.5L 56.5 36.5L 56.5 37.5ZM 62.1509 27.1421L 55.4871 33.6421L 56.1853 34.3579L 62.8491 27.8579L 62.1509 27.1421ZM 50.1488 39.1638L 43.7887 46.1638L 44.5289 46.8362L 50.8889 39.8362L 50.1488 39.1638ZM 53 40.3038L 53 50L 54 50L 54 40.3038L 53 40.3038ZM 49.3719 36.5L 39.9883 36.5L 39.9883 37.5L 49.3719 37.5L 49.3719 36.5ZM 9.5 15.5L 9.5 18.5L 10.5 18.5L 10.5 15.5L 9.5 15.5ZM 9.5 18.5L 9.5 28.1535L 10.5 28.1535L 10.5 18.5L 9.5 18.5ZM 52 22C 51.0999 22 50.1439 22.1247 49.2978 21.7731C 48.5501 21.4623 47.8086 20.7201 47.6177 18.6896L 46.6221 18.7832C 46.8365 21.0636 47.7269 22.2031 48.914 22.6965C 50.0025 23.1489 51.2839 23 52 23L 52 22ZM 10 16L 15 16L 15 15L 10 15L 10 16ZM 31.5 15L 15 15L 15 16L 31.5 16L 31.5 15ZM 10 19L 33.8459 19L 33.8459 18L 10 18L 10 19ZM 37 27C 36.2094 27 35.7364 26.7341 35.4155 26.325C 35.0704 25.8852 34.8589 25.2255 34.7341 24.3678C 34.6087 23.5111 34.5802 22.5344 34.5482 21.5103C 34.5161 20.4863 34.4805 19.4164 34.341 18.4296L 33.3509 18.5704C 33.4843 19.5032 33.5166 20.5182 33.5487 21.5416C 33.5807 22.565 33.6125 23.5982 33.7445 24.5117C 33.8773 25.424 34.1205 26.2945 34.6287 26.9423C 35.161 27.6208 35.9395 28 37 28L 37 27ZM 34.341 18.4296C 34.2142 17.5383 33.9936 16.6949 33.5608 16.0651C 33.1046 15.4012 32.428 15 31.5 15L 31.5 16C 32.0878 16 32.4607 16.2299 32.7367 16.6315C 33.0362 17.0673 33.2306 17.7239 33.3509 18.5704L 34.341 18.4296ZM 37 28L 42.5 28L 42.5 27L 37 27L 37 28ZM 47.1199 18.2364L 42.5 18.2364L 42.5 19.2364L 47.1199 19.2364L 47.1199 18.2364ZM 42 18.7364L 42 27.5L 43 27.5L 43 18.7364L 42 18.7364ZM 52 19.5L 55.8362 19.5L 55.8362 18.5L 52 18.5L 52 19.5ZM 55.8362 19.5L 61 19.5L 61 18.5L 55.8362 18.5L 55.8362 19.5ZM 56.3362 22.5L 56.3362 19L 55.3362 19L 55.3362 22.5L 56.3362 22.5ZM 10 28.6535L 23 28.6535L 23 27.6535L 10 27.6535L 10 28.6535Z"/>
<path id="path47_stroke" d="M 14 31.242L 13.0003 31.271L 13.0009 31.2847L 14 31.242ZM 12 96.742L 12.6644 97.4894L 12 96.742ZM 16.2708 -0.720648C 14.9532 -1.0912 13.4491 -1.28459 12.5195 -0.0208771C 12.1238 0.516997 11.9286 1.21552 11.8222 1.97535C 11.7184 2.72616 11.6834 3.6976 11.7001 4.84436C 11.7684 9.3755 12.6022 17.5075 13.0004 31.271L 14.9996 31.213C 14.5979 17.3765 13.765 9.2585 13.6999 4.81465C 13.6833 3.71766 13.7108 2.90003 13.8028 2.25279C 13.8922 1.61458 14.0262 1.30607 14.1305 1.16426C 14.2009 1.0686 14.3801 0.825208 15.7293 1.20465L 16.2708 -0.720648ZM 13.0009 31.2847C 13.4175 41.0337 14.0418 56.3858 14 69.8014C 13.9793 76.5067 13.7937 82.6945 13.3327 87.4663C 13.1037 89.8438 12.8141 91.8179 12.4407 93.3416C 12.0552 94.9193 11.6415 95.7227 11.3356 95.9946L 12.6644 97.4894C 13.4835 96.7613 14.0021 95.3772 14.3835 93.8163C 14.777 92.2012 15.089 90.0855 15.3235 87.6583C 15.7897 82.8207 15.979 76.5398 16 69.8076C 16.0415 56.3482 15.4158 40.9503 14.9991 31.1993L 13.0009 31.2847ZM 11.3356 95.9946C 10.1063 97.0874 9.00649 97.5188 8.04551 97.6057C 7.01921 97.7154 6.16391 97.4574 5.22636 96.9757C 4.28487 96.5023 3.45758 95.8522 2.67247 95.1837C 1.89101 94.5191 1.17221 93.8409 0.56921 93.4198L -0.56921 95.0642C -0.0888748 95.3932 0.554232 96.0067 1.37621 96.7067C 2.19452 97.4029 3.21218 98.1903 4.3201 98.7586C 5.43197 99.3187 6.83053 99.7065 8.22551 99.5975C 9.6858 99.4656 11.1747 98.8136 12.6644 97.4894L 11.3356 95.9946Z"/>
<path id="path48_stroke" d="M -1.34848 0.656954L 8.15152 20.157L 10.8485 18.843L 1.34848 -0.656954L -1.34848 0.656954Z"/>
</defs>
</svg>
