<svg width="500" height="500" viewBox="0 0 500 500" version="1.1" xmlns="http://www.w3.org/2000/svg" xmlns:xlink="http://www.w3.org/1999/xlink" xmlns:figma="http://www.figma.com/figma/ns">
<title>episode1</title>
<desc>Created using Figma</desc>
<g id="Canvas" transform="translate(404 266)" figma:type="canvas">
<mask id="mask0_alpha" mask-type="alpha">
<path d="M -404 -266L 96 -266L 96 234L -404 234L -404 -266Z" fill="#FFFFFF"/>
</mask>
<g id="episode1" style="mix-blend-mode:normal;isolation:isolate;" mask="url(#mask0_alpha)" figma:type="frame">
<g id="Vector 20" style="mix-blend-mode:normal;" figma:type="vector">
<use xlink:href="#path0_stroke" transform="translate(-9 77)" fill="#FFFFFF" style="mix-blend-mode:normal;"/>
</g>
<g id="Rectangle 4" style="mix-blend-mode:normal;" figma:type="rounded-rectangle">
<mask id="mask1_outline_ins">
<use xlink:href="#path1_fill" fill="white" transform="translate(-284 197.5)"/>
</mask>
<g mask="url(#mask1_outline_ins)">
<use xlink:href="#path2_stroke_2x" transform="translate(-284 197.5)" fill="#FFFFFF" style="mix-blend-mode:normal;"/>
</g>
</g>
<g id="Rectangle 4" style="mix-blend-mode:normal;" figma:type="rounded-rectangle">
<mask id="mask2_outline_ins">
<use xlink:href="#path1_fill" fill="white" transform="translate(-274 207.5)"/>
</mask>
<g mask="url(#mask2_outline_ins)">
<use xlink:href="#path2_stroke_2x" transform="translate(-274 207.5)" fill="#FFFFFF" style="mix-blend-mode:normal;"/>
</g>
</g>
<g id="Vector" style="mix-blend-mode:normal;" figma:type="vector">
<use xlink:href="#path3_stroke" transform="translate(-246 -122)" fill="#FFFFFF" style="mix-blend-mode:normal;"/>
</g>
<g id="Vector 2" style="mix-blend-mode:normal;" figma:type="vector">
<use xlink:href="#path4_stroke" transform="translate(-30 -151.798)" fill="#FFFFFF" style="mix-blend-mode:normal;"/>
</g>
<g id="Vector 3" style="mix-blend-mode:normal;" figma:type="vector">
<use xlink:href="#path5_stroke" transform="translate(-404 2)" fill="#FFFFFF" style="mix-blend-mode:normal;"/>
</g>
<g id="Vector 26" style="mix-blend-mode:normal;" figma:type="vector">
<use xlink:href="#path6_stroke" transform="translate(-161 -225.5)" fill="#FFFFFF" style="mix-blend-mode:normal;"/>
</g>
<g id="Vector 4" style="mix-blend-mode:normal;" figma:type="vector">
<use xlink:href="#path7_stroke" transform="translate(-394 -225)" fill="#FFFFFF" style="mix-blend-mode:normal;"/>
</g>
<g id="Vector 5" style="mix-blend-mode:normal;" figma:type="vector">
<use xlink:href="#path8_stroke" transform="translate(-187 126)" fill="#FFFFFF" style="mix-blend-mode:normal;"/>
</g>
<g id="Vector 6" style="mix-blend-mode:normal;" figma:type="vector">
<use xlink:href="#path9_stroke" transform="translate(-178 158)" fill="#FFFFFF" style="mix-blend-mode:normal;"/>
</g>
<g id="Vector 7" style="mix-blend-mode:normal;" figma:type="vector">
<use xlink:href="#path10_stroke" transform="translate(-124.3 159.5)" fill="#FFFFFF" style="mix-blend-mode:normal;"/>
</g>
<g id="Vector 9" style="mix-blend-mode:normal;" figma:type="vector">
<use xlink:href="#path11_stroke" transform="translate(46.5 150.5)" fill="#FFFFFF" style="mix-blend-mode:normal;"/>
</g>
<g id="Vector 8" style="mix-blend-mode:normal;" figma:type="vector">
<use xlink:href="#path12_stroke" transform="translate(-26 150)" fill="#FFFFFF" style="mix-blend-mode:normal;"/>
</g>
<g id="Vector 10" style="mix-blend-mode:normal;" figma:type="vector">
<use xlink:href="#path13_stroke" transform="translate(-98 79)" fill="#FFFFFF" style="mix-blend-mode:normal;"/>
</g>
<g id="Vector 11" style="mix-blend-mode:normal;" figma:type="vector">
<use xlink:href="#path14_stroke" transform="translate(-69.5 97)" fill="#FFFFFF" style="mix-blend-mode:normal;"/>
</g>
<g id="Vector 12" style="mix-blend-mode:normal;" figma:type="vector">
<use xlink:href="#path15_stroke" transform="translate(-169 128.5)" fill="#FFFFFF" style="mix-blend-mode:normal;"/>
</g>
<g id="Vector 13" style="mix-blend-mode:normal;" figma:type="vector">
<use xlink:href="#path16_stroke" transform="translate(-139 150)" fill="#FFFFFF" style="mix-blend-mode:normal;"/>
</g>
<g id="Vector 14" style="mix-blend-mode:normal;" figma:type="vector">
<use xlink:href="#path17_stroke" transform="translate(-93.5 -115.5)" fill="#FFFFFF" style="mix-blend-mode:normal;"/>
</g>
<g id="Vector 15" style="mix-blend-mode:normal;" figma:type="vector">
<use xlink:href="#path18_stroke" transform="matrix(0.737286 0.67558 -0.67558 0.737286 -71.3495 -119.749)" fill="#FFFFFF" style="mix-blend-mode:normal;"/>
</g>
<g id="Vector 16" style="mix-blend-mode:normal;" figma:type="vector">
<use xlink:href="#path19_stroke" transform="translate(-63 -108.987)" fill="#FFFFFF" style="mix-blend-mode:normal;"/>
</g>
<g id="Rectangle 2" style="mix-blend-mode:normal;" figma:type="rounded-rectangle">
<mask id="mask3_outline_ins">
<use xlink:href="#path20_fill" fill="white" transform="translate(-135 -37.45)"/>
</mask>
<g mask="url(#mask3_outline_ins)">
<use xlink:href="#path21_stroke_2x" transform="translate(-135 -37.45)" fill="#FFFFFF" style="mix-blend-mode:normal;"/>
</g>
</g>
<g id="Ellipse 5" style="mix-blend-mode:normal;" figma:type="ellipse">
<mask id="mask4_outline_ins">
<use xlink:href="#path22_fill" fill="white" transform="translate(-228 -49)"/>
</mask>
<g mask="url(#mask4_outline_ins)">
<use xlink:href="#path23_stroke_2x" transform="translate(-228 -49)" fill="#FFFFFF" style="mix-blend-mode:normal;"/>
</g>
</g>
<g id="Vector 17" style="mix-blend-mode:normal;" figma:type="vector">
<use xlink:href="#path24_stroke" transform="translate(-17.5 62)" fill="#FFFFFF" style="mix-blend-mode:normal;"/>
</g>
<g id="Ellipse" style="mix-blend-mode:normal;" figma:type="vector">
<use xlink:href="#path25_fill" transform="translate(-12 70)" fill="#FFFFFF" style="mix-blend-mode:normal;"/>
</g>
<g id="Vector 18" style="mix-blend-mode:normal;" figma:type="vector">
<use xlink:href="#path26_stroke" transform="translate(-74.5 -123.5)" fill="#FFFFFF" style="mix-blend-mode:normal;"/>
</g>
<g id="Vector 19" style="mix-blend-mode:normal;" figma:type="vector">
<use xlink:href="#path27_stroke" transform="translate(-1 75.1053)" fill="#FFFFFF" style="mix-blend-mode:normal;"/>
</g>
<g id="Vector 19" style="mix-blend-mode:normal;" figma:type="vector">
<use xlink:href="#path28_stroke" transform="translate(30 74)" fill="#FFFFFF" style="mix-blend-mode:normal;"/>
</g>
<g id="Ellipse 2" style="mix-blend-mode:normal;" figma:type="ellipse">
<mask id="mask5_outline_ins">
<use xlink:href="#path29_fill" fill="white" transform="translate(-388 -50)"/>
</mask>
<g mask="url(#mask5_outline_ins)">
<use xlink:href="#path30_stroke_2x" transform="translate(-388 -50)" fill="#FFFFFF" style="mix-blend-mode:normal;"/>
</g>
</g>
<g id="Vector 21" style="mix-blend-mode:normal;" figma:type="vector">
<use xlink:href="#path31_stroke" transform="translate(-352.5 -43.5473)" fill="#FFFFFF" style="mix-blend-mode:normal;"/>
</g>
<g id="Vector 22" style="mix-blend-mode:normal;" figma:type="vector">
<use xlink:href="#path32_stroke" transform="translate(-335 -41)" fill="#FFFFFF" style="mix-blend-mode:normal;"/>
</g>
<g id="Union" style="mix-blend-mode:normal;" figma:type="vector-operation">
<use xlink:href="#path33_fill" transform="translate(-10 -239.975)" fill="#FFFFFF" style="mix-blend-mode:normal;"/>
</g>
<g id="Group" style="mix-blend-mode:normal;" figma:type="frame">
<g id="Rectangle 3" style="mix-blend-mode:normal;" figma:type="vector">
<mask id="mask6_outline_ins">
<use xlink:href="#path34_fill" fill="white" transform="translate(-232 -240)"/>
</mask>
<g mask="url(#mask6_outline_ins)">
<use xlink:href="#path35_stroke_2x" transform="translate(-232 -240)" fill="#FFFFFF" style="mix-blend-mode:normal;"/>
</g>
</g>
</g>
<g id="Group" style="mix-blend-mode:normal;" figma:type="frame">
<g id="Rectangle 3" style="mix-blend-mode:normal;" figma:type="vector">
<mask id="mask7_outline_ins">
<use xlink:href="#path36_fill" fill="white" transform="matrix(-1 0 0 1 -42 -241)"/>
</mask>
<g mask="url(#mask7_outline_ins)">
<use xlink:href="#path37_stroke_2x" transform="matrix(-1 0 0 1 -42 -241)" fill="#FFFFFF" style="mix-blend-mode:normal;"/>
</g>
</g>
</g>
<g id="Group" style="mix-blend-mode:normal;" figma:type="frame">
<g id="Rectangle 3" style="mix-blend-mode:normal;" figma:type="rounded-rectangle">
<mask id="mask8_outline_ins">
<use xlink:href="#path38_fill" fill="white" transform="translate(-162 -228)"/>
</mask>
<g mask="url(#mask8_outline_ins)">
<use xlink:href="#path39_stroke_2x" transform="translate(-162 -228)" fill="#FFFFFF" style="mix-blend-mode:normal;"/>
</g>
</g>
</g>
<g id="Ellipse 4" style="mix-blend-mode:normal;" figma:type="ellipse">
<mask id="mask9_outline_ins">
<use xlink:href="#path40_fill" fill="white" transform="translate(-327 -98)"/>
</mask>
<g mask="url(#mask9_outline_ins)">
<use xlink:href="#path41_stroke_2x" transform="translate(-327 -98)" fill="#FFFFFF" style="mix-blend-mode:normal;"/>
</g>
</g>
<g id="Ellipse 4" style="mix-blend-mode:normal;" figma:type="ellipse">
<mask id="mask10_outline_ins">
<use xlink:href="#path40_fill" fill="white" transform="translate(-287 -98)"/>
</mask>
<g mask="url(#mask10_outline_ins)">
<use xlink:href="#path41_stroke_2x" transform="translate(-287 -98)" fill="#FFFFFF" style="mix-blend-mode:normal;"/>
</g>
</g>
<g id="Ellipse 4" style="mix-blend-mode:normal;" figma:type="ellipse">
<mask id="mask11_outline_ins">
<use xlink:href="#path42_fill" fill="white" transform="translate(-317 -88)"/>
</mask>
<g mask="url(#mask11_outline_ins)">
<use xlink:href="#path43_stroke_2x" transform="translate(-317 -88)" fill="#FFFFFF" style="mix-blend-mode:normal;"/>
</g>
</g>
<g id="Ellipse 4" style="mix-blend-mode:normal;" figma:type="ellipse">
<mask id="mask12_outline_ins">
<use xlink:href="#path44_fill" fill="white" transform="translate(-330 -40)"/>
</mask>
<g mask="url(#mask12_outline_ins)">
<use xlink:href="#path45_stroke_2x" transform="translate(-330 -40)" fill="#FFFFFF" style="mix-blend-mode:normal;"/>
</g>
</g>
<g id="Ellipse 4" style="mix-blend-mode:normal;" figma:type="ellipse">
<mask id="mask13_outline_ins">
<use xlink:href="#path42_fill" fill="white" transform="translate(-277 -88)"/>
</mask>
<g mask="url(#mask13_outline_ins)">
<use xlink:href="#path43_stroke_2x" transform="translate(-277 -88)" fill="#FFFFFF" style="mix-blend-mode:normal;"/>
</g>
</g>
<g id="Vector 23" style="mix-blend-mode:normal;" figma:type="vector">
<use xlink:href="#path46_stroke" transform="translate(-325.5 -120.5)" fill="#FFFFFF" style="mix-blend-mode:normal;"/>
</g>
<g id="Rectangle 4" style="mix-blend-mode:normal;" figma:type="rounded-rectangle">
<mask id="mask14_outline_ins">
<use xlink:href="#path1_fill" fill="white" transform="translate(-334 147.5)"/>
</mask>
<g mask="url(#mask14_outline_ins)">
<use xlink:href="#path2_stroke_2x" transform="translate(-334 147.5)" fill="#FFFFFF" style="mix-blend-mode:normal;"/>
</g>
</g>
<g id="Rectangle 4" style="mix-blend-mode:normal;" figma:type="rounded-rectangle">
<mask id="mask15_outline_ins">
<use xlink:href="#path1_fill" fill="white" transform="translate(-324 157.5)"/>
</mask>
<g mask="url(#mask15_outline_ins)">
<use xlink:href="#path2_stroke_2x" transform="translate(-324 157.5)" fill="#FFFFFF" style="mix-blend-mode:normal;"/>
</g>
</g>
<g id="Rectangle 4" style="mix-blend-mode:normal;" figma:type="rounded-rectangle">
<mask id="mask16_outline_ins">
<use xlink:href="#path1_fill" fill="white" transform="translate(-314 167.5)"/>
</mask>
<g mask="url(#mask16_outline_ins)">
<use xlink:href="#path2_stroke_2x" transform="translate(-314 167.5)" fill="#FFFFFF" style="mix-blend-mode:normal;"/>
</g>
</g>
<g id="Rectangle 4" style="mix-blend-mode:normal;" figma:type="rounded-rectangle">
<mask id="mask17_outline_ins">
<use xlink:href="#path1_fill" fill="white" transform="translate(-304 177.5)"/>
</mask>
<g mask="url(#mask17_outline_ins)">
<use xlink:href="#path2_stroke_2x" transform="translate(-304 177.5)" fill="#FFFFFF" style="mix-blend-mode:normal;"/>
</g>
</g>
<g id="Rectangle 4" style="mix-blend-mode:normal;" figma:type="rounded-rectangle">
<mask id="mask18_outline_ins">
<use xlink:href="#path1_fill" fill="white" transform="translate(-294 187.5)"/>
</mask>
<g mask="url(#mask18_outline_ins)">
<use xlink:href="#path2_stroke_2x" transform="translate(-294 187.5)" fill="#FFFFFF" style="mix-blend-mode:normal;"/>
</g>
</g>
<g id="Rectangle 4" style="mix-blend-mode:normal;" figma:type="rounded-rectangle">
<mask id="mask19_outline_ins">
<use xlink:href="#path1_fill" fill="white" transform="translate(-264 217.5)"/>
</mask>
<g mask="url(#mask19_outline_ins)">
<use xlink:href="#path2_stroke_2x" transform="translate(-264 217.5)" fill="#FFFFFF" style="mix-blend-mode:normal;"/>
</g>
</g>
<g id="Vector 24" style="mix-blend-mode:normal;" figma:type="vector">
<use xlink:href="#path47_stroke" transform="translate(-242.5 -42.242)" fill="#FFFFFF" style="mix-blend-mode:normal;"/>
</g>
<g id="Ellipse 5" style="mix-blend-mode:normal;" figma:type="ellipse">
<mask id="mask20_outline_ins">
<use xlink:href="#path22_fill" fill="white" transform="translate(-3.6958 -10.0127)"/>
</mask>
<g mask="url(#mask20_outline_ins)">
<use xlink:href="#path23_stroke_2x" transform="translate(-3.6958 -10.0127)" fill="#FFFFFF" style="mix-blend-mode:normal;"/>
</g>
</g>
<g id="Ellipse 5" style="mix-blend-mode:normal;" figma:type="ellipse">
<mask id="mask21_outline_ins">
<use xlink:href="#path22_fill" fill="white" transform="translate(57.3042 -40.4627)"/>
</mask>
<g mask="url(#mask21_outline_ins)">
<use xlink:href="#path23_stroke_2x" transform="translate(57.3042 -40.4627)" fill="#FFFFFF" style="mix-blend-mode:normal;"/>
</g>
</g>
<g id="Vector 25" style="mix-blend-mode:normal;" figma:type="vector">
<use xlink:href="#path48_stroke" transform="translate(68.3042 -26.5127)" fill="#FFFFFF" style="mix-blend-mode:normal;"/>
</g>
</g>
</g>
<defs>
<path id="path0_stroke" d="M 100.553 20.825L 100.871 19.8769L 100.553 20.825ZM 198.179 98.5707C 198.494 99.0242 199.117 99.1364 199.571 98.8212C 200.024 98.506 200.136 97.8829 199.821 97.4293L 198.179 98.5707ZM -0.0290738 0.999577C 1.40357 1.04119 3.09812 1.12787 5.05535 1.26793L 5.19805 -0.726977C 3.22056 -0.868374 1.48373 -0.957206 0.0290738 -0.999577L -0.0290738 0.999577ZM 15.2666 2.25205C 18.3715 2.6159 21.7708 3.06531 25.4475 3.6138L 25.7425 1.63569C 22.0494 1.08481 18.619 0.63127 15.4994 0.265646L 15.2666 2.25205ZM 35.5745 5.26487C 38.7988 5.83368 42.1649 6.46747 45.6692 7.17395L 46.0644 5.21339C 42.5475 4.50442 39.1576 3.86613 35.922 3.29528L 35.5745 5.26487ZM 55.7225 9.32285C 58.9693 10.056 62.2996 10.8458 65.7141 11.6983L 66.1986 9.75787C 62.7726 8.90251 59.4203 8.10755 56.163 7.37197L 55.7225 9.32285ZM 75.6568 14.2993C 78.8963 15.1856 82.1877 16.1242 85.534 17.1209L 86.1049 15.2041C 82.7474 14.2041 79.4344 13.2594 76.1846 12.3702L 75.6568 14.2993ZM 95.3519 20.1664C 96.9714 20.689 98.5975 21.2239 100.235 21.7731L 100.871 19.8769C 99.228 19.3259 97.5909 18.7874 95.9661 18.2631L 95.3519 20.1664ZM 100.235 21.7731C 101.896 22.3302 103.537 22.9179 105.177 23.5406L 105.887 21.671C 104.23 21.0415 102.551 20.4405 100.871 19.8769L 100.235 21.7731ZM 114.851 27.6288C 118.036 29.1095 121.155 30.6917 124.231 32.372L 125.19 30.6168C 122.087 28.9221 118.91 27.3106 115.695 25.8153L 114.851 27.6288ZM 133.308 37.6828C 136.306 39.5528 139.227 41.4903 142.087 43.4907L 143.234 41.8517C 140.353 39.8372 137.388 37.8709 134.367 35.986L 133.308 37.6828ZM 150.567 49.7321C 153.385 51.9104 156.109 54.1213 158.751 56.3574L 160.043 54.8309C 157.386 52.5815 154.627 50.3427 151.79 48.1498L 150.567 49.7321ZM 166.65 63.3358C 169.307 65.7831 171.839 68.2186 174.252 70.6292L 175.666 69.2143C 173.239 66.7904 170.678 64.3267 168.005 61.8647L 166.65 63.3358ZM 181.548 78.22C 184.073 80.9576 186.399 83.6002 188.525 86.1189L 190.053 84.8289C 187.914 82.2945 185.559 79.6188 183.018 76.864L 181.548 78.22ZM 195.103 94.3345C 196.245 95.8477 197.268 97.2599 198.179 98.5707L 199.821 97.4293C 198.899 96.1024 197.853 94.6587 196.7 93.13L 195.103 94.3345Z"/>
<path id="path1_fill" d="M 0 0L 79 0L 79 39L 0 39L 0 0Z"/>
<path id="path2_stroke_2x" d="M 0 0L 0 -2L -2 -2L -2 0L 0 0ZM 79 0L 81 0L 81 -2L 79 -2L 79 0ZM 79 39L 79 41L 81 41L 81 39L 79 39ZM 0 39L -2 39L -2 41L 0 41L 0 39ZM 0 2L 79 2L 79 -2L 0 -2L 0 2ZM 77 0L 77 39L 81 39L 81 0L 77 0ZM 79 37L 0 37L 0 41L 79 41L 79 37ZM 2 39L 2 0L -2 0L -2 39L 2 39Z"/>
<path id="path3_stroke" d="M 39 27.5C 29.5447 27.501 19.9416 26.6435 12.6668 24.4185C 9.04562 23.3138 6.09943 21.8967 4.07535 20.1493C 2.07584 18.4231 1 16.4017 1 14L -1 14C -1 17.0983 0.42416 19.6394 2.7684 21.6632C 5.08807 23.6658 8.32938 25.1862 12.0832 26.3315C 19.5584 28.6065 29.4553 29.499 39 29.5L 39 27.5ZM 1 14C 1 11.5948 2.05794 9.60763 4.02351 7.93308C 6.01709 6.23466 8.92768 4.87886 12.5283 3.83549C 19.7618 1.73395 29.3717 0.999263 39 1L 39 -1C 29.295 -0.999263 19.4049 -0.233949 11.9717 1.91451C 8.23899 2.99614 5.02457 4.45284 2.72649 6.41067C 0.400391 8.39237 -1 10.9052 -1 14L 1 14ZM 39 1C 48.5987 0.997689 57.9374 2.27336 64.9291 4.64711C 68.4059 5.82261 71.1793 7.21026 73.1378 8.86548C 75.0514 10.4741 76 12.1932 76 14L 78 14C 78 11.4068 76.6153 9.17594 74.4247 7.33452C 72.279 5.53974 69.1774 3.97739 65.5709 2.75289C 58.3959 0.32664 48.7346 -0.997689 39 -1L 39 1ZM 76 14C 76 15.8044 75.0332 17.5566 73.0856 19.2172C 71.0983 20.9201 68.2896 22.3701 64.791 23.6074C 57.7577 26.1048 48.4256 27.5028 39 27.5L 39 29.5C 48.5744 29.4972 58.2423 28.0452 65.459 25.4926C 69.0854 24.2049 72.2142 22.5799 74.3832 20.7391C 76.5918 18.8559 78 16.5956 78 14L 76 14Z"/>
<path id="path4_stroke" d="M 20.1592 41.798L 19.2626 42.2408C 19.438 42.596 19.8066 42.8141 20.2023 42.7971C 20.5981 42.78 20.9465 42.5309 21.0906 42.1619L 20.1592 41.798ZM 20.1592 8.56888L 19.3346 9.13455C 19.5087 9.38841 19.7901 9.54792 20.0974 9.56696C 20.4046 9.58601 20.7035 9.46247 20.9077 9.23205L 20.1592 8.56888ZM 21.0558 41.3552C 19.5051 38.2241 17.0987 34.9478 14.5209 31.7034C 11.9438 28.4604 9.16779 25.2023 6.79995 22.0099C 4.43403 18.8223 2.5245 15.7968 1.59582 12.8906C 0.684904 10.0648 0.758469 7.51558 2.23191 5.19574L 0.543661 4.12345C -1.33494 7.08118 -1.34517 10.2859 -0.307717 13.5043C 0.711982 16.6422 2.783 19.9511 5.19375 23.2016C 7.60256 26.4473 10.3994 29.7312 12.955 32.9477C 15.5101 36.1628 17.7965 39.2636 19.2626 42.2408L 21.0558 41.3552ZM 2.23191 5.19574C 3.81565 2.70226 5.45079 1.55845 6.97348 1.16762C 8.5042 0.77472 10.1048 1.09544 11.7073 1.90042C 14.9554 3.53201 17.8548 6.97738 19.3346 9.13455L 20.9838 8.00321C 19.4467 5.76241 16.3125 1.97558 12.6051 0.113235C 10.7299 -0.828747 8.6223 -1.32042 6.47625 -0.769587C 4.32217 -0.216688 2.31197 1.33937 0.543661 4.12345L 2.23191 5.19574ZM 20.9077 9.23205C 21.7955 8.22915 22.8223 6.89946 23.9845 5.62763C 25.148 4.35206 26.3757 3.18543 27.7716 2.40427C 29.1503 1.61461 30.4418 1.26359 31.9996 1.63145C 33.5068 1.96056 35.2617 3.00228 37.2409 5.31052L 38.7591 4.00867C 36.6061 1.4977 34.4978 0.129826 32.4262 -0.322507C 30.4052 -0.736078 28.4026 -0.240371 26.787 0.663421C 25.1888 1.57572 23.7224 2.94928 22.5074 4.2792C 21.291 5.61286 20.2548 6.95396 19.4107 7.90571L 20.9077 9.23205ZM 37.2409 5.31052C 39.032 7.39939 39.268 9.74149 38.4494 12.4276C 37.6118 15.1763 35.689 18.1922 33.265 21.4168C 30.8516 24.6279 28.0067 27.9609 25.4366 31.3134C 22.8655 34.6683 20.5314 38.1151 19.2278 41.4341L 21.0906 42.1619C 22.3011 39.0468 24.4871 35.8391 27.0239 32.5301C 29.5616 29.2188 32.4123 25.8786 34.8636 22.6185C 37.3043 19.3718 39.4155 16.1182 40.3626 13.0106C 41.3287 9.84027 41.1003 6.73899 38.7591 4.00867L 37.2409 5.31052Z"/>
<path id="path5_stroke" d="M 29.6296 0L 30.5908 0.275951L 28.8778 -0.659305L 29.6296 0ZM 8.59259 73.2746L 7.63142 72.9986L 9.33294 73.9468L 8.59259 73.2746ZM 44.4444 33.7898L 45.4188 34.0147L 46.2805 30.2801L 43.7041 33.1176L 44.4444 33.7898ZM 34.3704 77.4508L 33.396 77.226L 32.7021 80.2334L 35.0278 78.2044L 34.3704 77.4508ZM 62.2222 53.1525L 63.2035 52.9599L 62.8698 51.2605L 61.5648 52.399L 62.2222 53.1525ZM 73.7778 112L 72.7965 112.193L 74.747 112.246L 73.7778 112ZM 93.6296 33.7898L 94.074 32.894L 92.9649 32.3439L 92.6604 33.5438L 93.6296 33.7898ZM 102.815 38.3458L 102.37 39.2416L 103.077 39.5922L 103.583 38.9864L 102.815 38.3458ZM 112 27.3356L 113 27.3356L 113 24.5759L 111.232 26.695L 112 27.3356ZM 0.751876 34.4491L 30.3815 0.659305L 28.8778 -0.659305L -0.751876 33.1305L 0.751876 34.4491ZM 28.6685 -0.275951L 7.63142 72.9986L 9.55376 73.5505L 30.5908 0.275951L 28.6685 -0.275951ZM 9.33294 73.9468L 45.1848 34.4621L 43.7041 33.1176L 7.85225 72.6023L 9.33294 73.9468ZM 43.47 33.565L 33.396 77.226L 35.3448 77.6757L 45.4188 34.0147L 43.47 33.565ZM 35.0278 78.2044L 62.8796 53.9061L 61.5648 52.399L 33.713 76.6973L 35.0278 78.2044ZM 61.241 53.3452L 72.7965 112.193L 74.759 111.807L 63.2035 52.9599L 61.241 53.3452ZM 74.747 112.246L 94.5989 34.0359L 92.6604 33.5438L 72.8085 111.754L 74.747 112.246ZM 93.1853 34.6857L 102.37 39.2416L 103.259 37.4499L 94.074 32.894L 93.1853 34.6857ZM 103.583 38.9864L 112.768 27.9762L 111.232 26.695L 102.047 37.7052L 103.583 38.9864ZM 111 27.3356L 111 66.4407L 113 66.4407L 113 27.3356L 111 27.3356Z"/>
<path id="path6_stroke" d="M 2.08599 0.280352L 45.086 63.7804L 45.914 63.2196L 2.91401 -0.280352L 2.08599 0.280352ZM 45.0914 -0.288217L -0.408572 64.2118L 0.408572 64.7882L 45.9086 0.288217L 45.0914 -0.288217Z"/>
<path id="path7_stroke" d="M 0 27L -0.296284 25.5296L -3.44594 26.1642L -0.937043 28.1713L 0 27ZM 134 0L 135.207 0.891201L 137.519 -2.23915L 133.704 -1.47045L 134 0ZM 40.5 59.5L 39.6947 58.2345L 39.3199 58.473L 39.1355 58.8771L 40.5 59.5ZM 69 88L 67.9393 89.0607L 69.1714 90.2927L 70.2065 88.8912L 69 88ZM 30 82.5L 28.5 82.5L 28.5 85.4235L 30.8748 83.7185L 30 82.5ZM -0.937043 28.1713L 29.063 52.1713L 30.937 49.8287L 0.937043 25.8287L -0.937043 28.1713ZM 30.6604 52.3468L 134.66 1.34678L 133.34 -1.34678L 29.3396 49.6532L 30.6604 52.3468ZM 133.704 -1.47045L -0.296284 25.5296L 0.296284 28.4704L 134.296 1.47045L 133.704 -1.47045ZM 133.195 -1.26549L 39.6947 58.2345L 41.3053 60.7655L 134.805 1.26549L 133.195 -1.26549ZM 70.2065 88.8912L 135.207 0.891201L 132.793 -0.891201L 67.7935 87.1088L 70.2065 88.8912ZM 28.5 51L 28.5 82.5L 31.5 82.5L 31.5 51L 28.5 51ZM 31.3645 83.1229L 41.8645 60.1229L 39.1355 58.8771L 28.6355 81.8771L 31.3645 83.1229ZM 39.4393 60.5607L 48.4393 69.5607L 50.5607 67.4393L 41.5607 58.4393L 39.4393 60.5607ZM 48.4393 69.5607L 67.9393 89.0607L 70.0607 86.9393L 50.5607 67.4393L 48.4393 69.5607ZM 30.8748 83.7185L 50.3748 69.7185L 48.6252 67.2815L 29.1252 81.2815L 30.8748 83.7185Z"/>
<path id="path8_stroke" d="M 16 19L 17.6572 17.8803L 15.3507 14.4667L 14.0952 18.3904L 16 19ZM 41 56L 39.3428 57.1197L 40.8154 59.2991L 42.5219 57.2976L 41 56ZM 81.5 8.5L 82.9982 7.17512L 81.4725 5.44973L 79.9781 7.20238L 81.5 8.5ZM 135 69L 133.502 70.3249L 135.124 72.159L 136.597 70.2037L 135 69ZM 187 0L 188.85 -0.759838L 187.516 -4.00783L 185.403 -1.2037L 187 0ZM 210 56L 208.15 56.7598L 209.47 59.9741L 211.586 57.2181L 210 56ZM 253 0L 254.676 -1.09135L 253.134 -3.45889L 251.414 -1.21805L 253 0ZM 1.90485 69.6096L 17.9048 19.6096L 14.0952 18.3904L -1.90485 68.3904L 1.90485 69.6096ZM 14.3428 20.1197L 39.3428 57.1197L 42.6572 54.8803L 17.6572 17.8803L 14.3428 20.1197ZM 42.5219 57.2976L 83.0219 9.79762L 79.9781 7.20238L 39.4781 54.7024L 42.5219 57.2976ZM 80.0018 9.82488L 133.502 70.3249L 136.498 67.6751L 82.9982 7.17512L 80.0018 9.82488ZM 136.597 70.2037L 188.597 1.2037L 185.403 -1.2037L 133.403 67.7963L 136.597 70.2037ZM 185.15 0.759838L 208.15 56.7598L 211.85 55.2402L 188.85 -0.759838L 185.15 0.759838ZM 211.586 57.2181L 254.586 1.21805L 251.414 -1.21805L 208.414 54.7819L 211.586 57.2181ZM 251.324 1.09135L 307.324 87.0913L 310.676 84.9087L 254.676 -1.09135L 251.324 1.09135Z"/>
<path id="path9_stroke" d="M 9 18L 8.72265 18.416L 9 18.6009L 9.27735 18.416L 9 18ZM 18 12L 18.2774 12.416L 18.5 12.2676L 18.5 12L 18 12ZM -0.27735 12.416L 8.72265 18.416L 9.27735 17.584L 0.27735 11.584L -0.27735 12.416ZM 9.27735 18.416L 18.2774 12.416L 17.7226 11.584L 8.72265 17.584L 9.27735 18.416ZM 18.5 12L 18.5 0L 17.5 0L 17.5 12L 18.5 12Z"/>
<path id="path10_stroke" d="M 10 15L 9.58397 15.2774L 9.93444 15.803L 10.3655 15.3412L 10 15ZM 24 0L 24.3904 -0.312348L 24.0291 -0.763993L 23.6345 -0.341159L 24 0ZM 36 15L 35.6096 15.3123L 36.1126 15.9411L 36.4531 15.2114L 36 15ZM -0.416025 0.27735L 9.58397 15.2774L 10.416 14.7226L 0.416025 -0.27735L -0.416025 0.27735ZM 10.3655 15.3412L 24.3655 0.341159L 23.6345 -0.341159L 9.63447 14.6588L 10.3655 15.3412ZM 23.6096 0.312348L 35.6096 15.3123L 36.3904 14.6877L 24.3904 -0.312348L 23.6096 0.312348ZM 36.4531 15.2114L 43.4531 0.211443L 42.5469 -0.211443L 35.5469 14.7886L 36.4531 15.2114Z"/>
<path id="path11_stroke" d="M 8.5 10.5L 8.14645 10.8536L 8.45308 11.1602L 8.8 10.9L 8.5 10.5ZM 22.5 0L 22.5733 -0.494602L 22.3669 -0.525176L 22.2 -0.4L 22.5 0ZM -0.353553 2.35355L 8.14645 10.8536L 8.85355 10.1464L 0.353553 1.64645L -0.353553 2.35355ZM 8.8 10.9L 22.8 0.4L 22.2 -0.4L 8.2 10.1L 8.8 10.9ZM 22.4267 0.494602L 35.9267 2.4946L 36.0733 1.5054L 22.5733 -0.494602L 22.4267 0.494602Z"/>
<path id="path12_stroke" d="M 6 19L 5.57125 19.2572L 5.94378 19.8781L 6.39244 19.3098L 6 19ZM 21 0L 21.4881 -0.108465L 21.2598 -1.13595L 20.6076 -0.309822L 21 0ZM 27 27L 26.5119 27.1085L 26.7976 28.3939L 27.4371 27.2428L 27 27ZM 37 9L 37.4371 9.24282L 37.5 9.12956L 37.5 9L 37 9ZM -0.428746 9.25725L 5.57125 19.2572L 6.42875 18.7428L 0.428746 8.74275L -0.428746 9.25725ZM 6.39244 19.3098L 21.3924 0.309822L 20.6076 -0.309822L 5.60756 18.6902L 6.39244 19.3098ZM 20.5119 0.108465L 26.5119 27.1085L 27.4881 26.8915L 21.4881 -0.108465L 20.5119 0.108465ZM 27.4371 27.2428L 37.4371 9.24282L 36.5629 8.75718L 26.5629 26.7572L 27.4371 27.2428ZM 37.5 9L 37.5 0L 36.5 0L 36.5 9L 37.5 9Z"/>
<path id="path13_stroke" d="M 44 0L 44.7776 -0.628809L 43.948 -1.6546L 43.1845 -0.578747L 44 0ZM 0.815507 62.5787L 44.8155 0.578747L 43.1845 -0.578747L -0.815507 61.4213L 0.815507 62.5787ZM 43.2224 0.628809L 89.7224 58.1288L 91.2776 56.8712L 44.7776 -0.628809L 43.2224 0.628809Z"/>
<path id="path14_stroke" d="M 8 13L 7.6359 13.3427L 8.02878 13.7601L 8.38897 13.3142L 8 13ZM 18.5 0L 18.8813 -0.323489L 18.4905 -0.784005L 18.111 -0.314169L 18.5 0ZM 32.5 16.5L 32.1187 16.8235L 32.6934 17.5008L 32.9743 16.6581L 32.5 16.5ZM -0.3641 4.84268L 7.6359 13.3427L 8.3641 12.6573L 0.3641 4.15732L -0.3641 4.84268ZM 8.38897 13.3142L 18.889 0.314169L 18.111 -0.314169L 7.61103 12.6858L 8.38897 13.3142ZM 18.1187 0.323489L 32.1187 16.8235L 32.8813 16.1765L 18.8813 -0.323489L 18.1187 0.323489ZM 32.9743 16.6581L 35.9743 7.65811L 35.0257 7.34189L 32.0257 16.3419L 32.9743 16.6581Z"/>
<path id="path15_stroke" d="M 13.5 0L 13.8967 -0.304409L 13.4792 -0.848366L 13.0889 -0.284605L 13.5 0ZM 30 21.5L 29.6033 21.8044L 30.0491 22.3852L 30.4279 21.7587L 30 21.5ZM 43 0L 43.3763 -0.329252L 42.926 -0.843901L 42.5721 -0.25871L 43 0ZM 0.411096 19.7846L 13.9111 0.284605L 13.0889 -0.284605L -0.411096 19.2154L 0.411096 19.7846ZM 13.1033 0.304409L 29.6033 21.8044L 30.3967 21.1956L 13.8967 -0.304409L 13.1033 0.304409ZM 30.4279 21.7587L 43.4279 0.25871L 42.5721 -0.25871L 29.5721 21.2413L 30.4279 21.7587ZM 42.6237 0.329252L 56.6237 16.3293L 57.3763 15.6707L 43.3763 -0.329252L 42.6237 0.329252Z"/>
<path id="path16_stroke" d="M -0.406867 0.290619L 9.59313 14.2906L 10.4069 13.7094L 0.406867 -0.290619L -0.406867 0.290619Z"/>
<path id="path17_stroke" d="M 29.8429 94.5L 30.1689 95.4454L 29.8429 94.5ZM 1.5 32L 0.50547 32.1045L 1.5 32ZM 0.952029 127.306C 5.39774 113.475 12.2527 101.622 30.1689 95.4454L 29.517 93.5546C 10.7862 100.012 3.60226 112.525 -0.952029 126.694L 0.952029 127.306ZM 30.1689 95.4454C 35.1457 93.7296 38.5843 91.6548 40.6893 89.2303C 42.8285 86.7665 43.5371 84.001 43.1543 81.0901C 42.4108 75.4364 37.5461 69.2807 31.68 63.3041C 25.7585 57.2726 18.5836 51.1996 12.813 45.6882C 9.9304 42.9356 7.42755 40.3568 5.58208 37.973C 3.72664 35.5788 2.66774 33.5448 2.49453 31.8955L 0.50547 32.1045C 0.739545 34.3332 2.0955 36.739 4.00124 39.1981C 5.91695 41.6675 8.52163 44.3553 11.4317 47.1346C 17.2464 52.6868 24.3974 58.738 30.2526 64.705C 36.1632 70.7269 40.5261 76.4439 41.1714 81.3508C 41.483 83.7202 40.9262 85.9069 39.1791 87.9191C 37.3979 89.9706 34.3294 91.8954 29.517 93.5546L 30.1689 95.4454ZM 2.49453 31.8955C 1.85937 25.8479 3.11658 21.333 5.29127 17.8453C 7.49082 14.2907 10.6214 11.805 13.9225 9.78831C 17.2136 7.7724 20.5909 6.32316 23.1293 4.96873C 24.4081 4.28532 25.5494 3.57081 26.3109 2.83778C 27.1161 2.05399 27.6899 1.05645 27.4864 -0.164399L 25.5136 0.164399C 25.5673 0.486565 25.4706 0.864684 24.9159 1.40461C 24.3174 1.99531 23.4093 2.55259 22.1873 3.20448C 19.7243 4.52063 16.2947 5.99598 12.8789 8.08213C 9.47309 10.1675 5.99658 12.9613 3.59416 16.7871C 1.16689 20.6799 -0.172784 25.6464 0.50547 32.1045L 2.49453 31.8955Z"/>
<path id="path18_stroke" d="M -0.623154 4.39348C -1.0551 4.73764 -1.12626 5.36679 -0.782099 5.79873C -0.43794 6.23068 0.191213 6.30184 0.623154 5.95768L -0.623154 4.39348ZM 6.49569 0L 6.87887 -0.923672L 6.33394 -1.14974L 5.87253 -0.782099L 6.49569 0ZM 14.9725 4.59925C 15.4827 4.81088 16.0678 4.56889 16.2794 4.05876C 16.491 3.54863 16.249 2.96354 15.7389 2.75191L 14.9725 4.59925ZM 0.623154 5.95768L 7.11884 0.782099L 5.87253 -0.782099L -0.623154 4.39348L 0.623154 5.95768ZM 6.1125 0.923672L 14.9725 4.59925L 15.7389 2.75191L 6.87887 -0.923672L 6.1125 0.923672Z"/>
<path id="path19_stroke" d="M 54.5 57.9492L 53.1118 57.381L 52.8285 58.0731L 53.2107 58.7158L 54.5 57.9492ZM 141.5 39.4492L 141.5 37.9492L 141.321 37.9492L 141.146 37.9915L 141.5 39.4492ZM -0.491578 18.3664C 26.2122 27.6287 64.7221 38.77 93.23 42.0271C 100.374 42.8411 106.976 43.164 112.569 42.8363C 118.17 42.5058 122.976 41.5167 126.509 39.6006C 130.115 37.6448 132.437 34.6857 132.804 30.5894C 133.159 26.6231 131.653 21.8405 128.289 16.1826L 125.711 17.7158C 128.947 23.1579 130.089 27.2785 129.816 30.3219C 129.555 33.2354 127.975 35.3927 125.079 36.9635C 122.109 38.5739 117.814 39.5216 112.392 39.8415C 106.961 40.1641 100.618 39.8511 93.57 39.0464C 65.3112 35.8284 27.1211 24.7697 0.491578 15.5321L -0.491578 18.3664ZM 128.289 16.1826C 121.572 4.88456 114.218 -0.568713 106.546 -1.39069C 98.9207 -2.20755 91.5069 1.61306 84.7879 7.61832C 71.3488 19.6298 59.719 41.2393 53.1118 57.381L 55.8882 58.5174C 62.4476 42.4925 73.8679 21.402 86.7871 9.85512C 93.2473 4.08121 99.8397 0.908072 106.226 1.59225C 112.565 2.27132 119.228 6.81388 125.711 17.7158L 128.289 16.1826ZM 53.2107 58.7158C 58.7988 68.114 69.2198 80.4093 82.3873 86.5944C 95.7216 92.8579 111.76 92.7799 128.025 77.544L 125.975 75.3545C 110.64 89.7185 95.9284 89.6405 83.6627 83.879C 71.2302 78.0391 61.2012 66.2844 55.7893 57.1826L 53.2107 58.7158ZM 128.025 77.544C 135.973 70.0976 141.447 63.9758 144.987 59.0561C 148.538 54.1172 150.308 50.1763 150.713 47.0413C 151.131 43.8012 150.081 41.3994 148.11 39.88C 146.245 38.4428 143.757 37.9492 141.5 37.9492L 141.5 40.9492C 143.409 40.9492 145.142 41.3806 146.278 42.256C 147.307 43.0491 148.036 44.3472 147.737 46.6571C 147.426 49.0721 145.983 52.5312 142.551 57.3048C 139.107 62.0976 133.827 68.0009 125.975 75.3545L 128.025 77.544ZM 141.146 37.9915C 124.253 42.0907 99.886 50.1966 81.9948 61.0806C 73.0455 66.5304 65.5312 72.7827 61.395 79.7405C 57.1938 86.8077 56.5037 94.5857 61.2019 102.701L 63.7981 101.198C 59.6963 94.1127 60.2729 87.4991 63.9738 81.2735C 67.7397 74.9386 74.7628 68.9972 83.5552 63.6429C 101.147 52.9185 125.08 44.9744 141.854 40.9069L 141.146 37.9915Z"/>
<path id="path20_fill" d="M 0 7C 0 3.13401 3.13401 0 7 0L 48 0C 51.866 0 55 3.13401 55 7L 55 11C 55 14.866 51.866 18 48 18L 7 18C 3.13401 18 0 14.866 0 11L 0 7Z"/>
<path id="path21_stroke_2x" d="M 7 2L 48 2L 48 -2L 7 -2L 7 2ZM 53 7L 53 11L 57 11L 57 7L 53 7ZM 48 16L 7 16L 7 20L 48 20L 48 16ZM 2 11L 2 7L -2 7L -2 11L 2 11ZM 7 -2C 2.02944 -2 -2 2.02944 -2 7L 2 7C 2 4.23858 4.23858 2 7 2L 7 -2ZM 48 2C 50.7614 2 53 4.23858 53 7L 57 7C 57 2.02944 52.9706 -2 48 -2L 48 2ZM 53 11C 53 13.7614 50.7614 16 48 16L 48 20C 52.9706 20 57 15.9706 57 11L 53 11ZM 7 16C 4.23858 16 2 13.7614 2 11L -2 11C -2 15.9706 2.02944 20 7 20L 7 16Z"/>
<path id="path22_fill" d="M 15 7.5C 15 11.6421 11.6421 15 7.5 15C 3.35786 15 0 11.6421 0 7.5C 0 3.35786 3.35786 0 7.5 0C 11.6421 0 15 3.35786 15 7.5Z"/>
<path id="path23_stroke_2x" d="M 13 7.5C 13 10.5376 10.5376 13 7.5 13L 7.5 17C 12.7467 17 17 12.7467 17 7.5L 13 7.5ZM 7.5 13C 4.46243 13 2 10.5376 2 7.5L -2 7.5C -2 12.7467 2.25329 17 7.5 17L 7.5 13ZM 2 7.5C 2 4.46243 4.46243 2 7.5 2L 7.5 -2C 2.25329 -2 -2 2.25329 -2 7.5L 2 7.5ZM 7.5 2C 10.5376 2 13 4.46243 13 7.5L 17 7.5C 17 2.25329 12.7467 -2 7.5 -2L 7.5 2Z"/>
<path id="path24_stroke" d="M 5.45583 9.63533L 6.08053 10.4162L 5.45583 9.63533ZM 6.88156 8.49475L 6.25687 7.71388L 6.88156 8.49475ZM 65 0L 65.8981 0.439867C 66.0616 0.106032 66.0264 -0.290952 65.8068 -0.590855C 65.5871 -0.890757 65.2193 -1.04408 64.8517 -0.988936L 65 0ZM 58.5106 13.2491L 57.6126 12.8092L 58.5106 13.2491ZM 35 18L 34.9078 18.9957L 34.9916 19.0035L 35.0755 18.9971L 35 18ZM 17 16.3333L 16.864 17.324L 16.8859 17.327L 16.9078 17.3291L 17 16.3333ZM 60 0.75L 59.8517 -0.238936C 59.6448 -0.207909 59.4529 -0.1128 59.3029 0.0330051L 60 0.75ZM 52.6365 7.90896L 53.3336 8.62595L 52.6365 7.90896ZM 53.5755 16.5928L 53.5 15.5956L 53.5755 16.5928ZM 6.08053 10.4162L 7.50626 9.27562L 6.25687 7.71388L 4.83114 8.85446L 6.08053 10.4162ZM 13.894 7.33605L 48.6408 10.3022L 48.8109 8.30949L 14.0641 5.3433L 13.894 7.33605ZM 64.1019 -0.439867L 57.6126 12.8092L 59.4087 13.689L 65.8981 0.439867L 64.1019 -0.439867ZM 53.5 15.5956L 34.9245 17.0029L 35.0755 18.9971L 53.6511 17.5899L 53.5 15.5956ZM 35.0922 17.0043L 17.0922 15.3376L 16.9078 17.3291L 34.9078 18.9957L 35.0922 17.0043ZM 17.136 15.3426L 7.05796 13.9594L 6.786 15.9408L 16.864 17.324L 17.136 15.3426ZM 53.3336 8.62595L 60.6971 1.46699L 59.3029 0.0330051L 51.9394 7.19196L 53.3336 8.62595ZM 60.1483 1.73894L 65.1483 0.988936L 64.8517 -0.988936L 59.8517 -0.238936L 60.1483 1.73894ZM 4.83114 8.85446C 2.08703 11.0498 3.30446 15.4629 6.786 15.9408L 7.05796 13.9594C 5.31719 13.7204 4.70847 11.5138 6.08053 10.4162L 4.83114 8.85446ZM 7.50626 9.27562C 9.30813 7.83412 11.5949 7.13978 13.894 7.33605L 14.0641 5.3433C 11.254 5.10342 8.45916 5.95205 6.25687 7.71388L 7.50626 9.27562ZM 48.6408 10.3022C 50.3741 10.4502 52.0863 9.8386 53.3336 8.62595L 51.9394 7.19196C 51.1079 8.00039 49.9664 8.40813 48.8109 8.30949L 48.6408 10.3022ZM 57.6126 12.8092C 56.8327 14.4015 55.2679 15.4617 53.5 15.5956L 53.6511 17.5899C 56.1262 17.4024 58.3169 15.9181 59.4087 13.689L 57.6126 12.8092Z"/>
<path id="path25_fill" d="M 6 1.5C 6 2.32843 5.32843 3 4.5 3C 3.67157 3 0 2.32843 0 1.5C 0 0.671573 3.67157 0 4.5 0C 5.32843 0 6 0.671573 6 1.5Z"/>
<path id="path26_stroke" d="M 17 0L 17.957 0.290007L 18.5885 -1.79379L 16.5964 -0.914918L 17 0ZM 12.957 16.79L 17.957 0.290007L 16.043 -0.290007L 11.043 16.21L 12.957 16.79ZM 16.5964 -0.914918L -0.40364 6.58508L 0.40364 8.41492L 17.4036 0.914918L 16.5964 -0.914918Z"/>
<path id="path27_stroke" d="M 0 0L 0.0530927 -0.99859C -0.412163 -1.02333 -0.832855 -0.723483 -0.961268 -0.275616C -1.08968 0.172251 -0.891785 0.649457 -0.484107 0.875009L 0 0ZM 25.1143 13.8947L 24.6302 14.7697C 24.7784 14.8517 24.9449 14.8947 25.1143 14.8947L 25.1143 13.8947ZM 32 13.8947L 32 14.8947C 32.4185 14.8947 32.7927 14.6341 32.9379 14.2416C 33.0831 13.8491 32.9685 13.4077 32.6507 13.1354L 32 13.8947ZM 16.8286 0.894737L 17.4792 0.135379C 17.3119 -0.00804656 17.1018 -0.0921495 16.8817 -0.103853L 16.8286 0.894737ZM -0.484107 0.875009L 24.6302 14.7697L 25.5984 13.0197L 0.484107 -0.875009L -0.484107 0.875009ZM 25.1143 14.8947L 32 14.8947L 32 12.8947L 25.1143 12.8947L 25.1143 14.8947ZM 32.6507 13.1354L 17.4792 0.135379L 16.1779 1.65409L 31.3493 14.6541L 32.6507 13.1354ZM 16.8817 -0.103853L 0.0530927 -0.99859L -0.0530927 0.99859L 16.7755 1.89333L 16.8817 -0.103853Z"/>
<path id="path28_stroke" d="M 0 0.315789L -0.0404527 -0.683392C -0.527716 -0.663665 -0.929692 -0.295346 -0.991845 0.188339C -1.054 0.672025 -0.758199 1.13001 -0.291753 1.27228L 0 0.315789ZM 8.8 3L 8.50825 3.95649C 8.60281 3.98534 8.70113 4 8.8 4L 8.8 3ZM 14 3L 14 4C 14.4662 4 14.8706 3.67785 14.9747 3.22343C 15.0789 2.76901 14.8552 2.3029 14.4356 2.09984L 14 3ZM 7.8 0L 8.23556 -0.900159C 8.08745 -0.971825 7.92395 -1.00584 7.75955 -0.999181L 7.8 0ZM -0.291753 1.27228L 8.50825 3.95649L 9.09175 2.04351L 0.291753 -0.640704L -0.291753 1.27228ZM 8.8 4L 14 4L 14 2L 8.8 2L 8.8 4ZM 14.4356 2.09984L 8.23556 -0.900159L 7.36444 0.900159L 13.5644 3.90016L 14.4356 2.09984ZM 7.75955 -0.999181L -0.0404527 -0.683392L 0.0404527 1.31497L 7.84045 0.999181L 7.75955 -0.999181Z"/>
<path id="path29_fill" d="M 120 19.5C 120 30.2696 93.1371 39 60 39C 26.8629 39 0 30.2696 0 19.5C 0 8.73045 26.8629 0 60 0C 93.1371 0 120 8.73045 120 19.5Z"/>
<path id="path30_stroke_2x" d="M 118 19.5C 118 21.2948 116.881 23.3419 114.066 25.5044C 111.202 27.7188 107.113 29.667 101.808 31.3865C 91.1138 34.8698 76.4242 37.0052 60 37L 60 41C 76.7129 40.9948 92.0233 38.765 103.045 35.1907C 108.597 33.3814 113.295 31.1276 116.503 28.6762C 119.761 26.1728 122 23.09 122 19.5L 118 19.5ZM 60 37C 43.5758 37.0052 28.8862 34.8698 18.1918 31.3865C 12.8868 29.667 8.79768 27.7188 5.93368 25.5044C 3.11931 23.3419 2 21.2948 2 19.5L -2 19.5C -2 23.09 0.23855 26.1728 3.49652 28.6762C 6.70484 31.1276 11.4025 33.3814 16.9554 35.1907C 27.9767 38.765 43.2871 40.9948 60 41L 60 37ZM 2 19.5C 2 17.7052 3.11931 15.6581 5.93368 13.4956C 8.79768 11.2812 12.8868 9.33304 18.1918 7.61349C 28.8862 4.13023 43.5758 1.99478 60 2L 60 -2C 43.2871 -1.99478 27.9767 0.234989 16.9554 3.80935C 11.4025 5.6186 6.70484 7.87236 3.49652 10.3238C 0.23855 12.8272 -2 15.91 -2 19.5L 2 19.5ZM 60 2C 76.4242 1.99478 91.1138 4.13023 101.808 7.61349C 107.113 9.33304 111.202 11.2812 114.066 13.4956C 116.881 15.6581 118 17.7052 118 19.5L 122 19.5C 122 15.91 119.761 12.8272 116.503 10.3238C 113.295 7.87236 108.597 5.6186 103.045 3.80935C 92.0233 0.234989 76.7129 -1.99478 60 -2L 60 2Z"/>
<path id="path31_stroke" d="M 13.5 3.04734C 13.5 2.49505 13.0523 2.04734 12.5 2.04734C 11.9477 2.04734 11.5 2.49505 11.5 3.04734L 13.5 3.04734ZM 7.5 22.5473L 7.90614 21.6335L 7.5 22.5473ZM 6.55132 17.3636C 6.72597 17.8875 7.29229 18.1707 7.81623 17.996C 8.34017 17.8214 8.62333 17.2551 8.44868 16.7311L 6.55132 17.3636ZM -0.813733 2.4661C -1.13474 2.91551 -1.03065 3.54006 -0.581239 3.86107C -0.131827 4.18208 0.492724 4.07799 0.813733 3.62858L -0.813733 2.4661ZM 7.5 0.0473362L 7.4005 1.04237L 7.5 0.0473362ZM 20.3939 3.96648C 20.9015 3.74893 21.1367 3.16105 20.9191 2.65342C 20.7016 2.14579 20.1137 1.91064 19.6061 2.12819L 20.3939 3.96648ZM 8.5 10.5473C 7.94772 10.5473 7.5 10.9951 7.5 11.5473C 7.5 12.0996 7.94772 12.5473 8.5 12.5473L 8.5 10.5473ZM 16 12.5473C 16.5523 12.5473 17 12.0996 17 11.5473C 17 10.9951 16.5523 10.5473 16 10.5473L 16 12.5473ZM 11.5 3.04734C 11.5005 7.01422 11.1584 12.1926 10.3687 16.2047C 9.97332 18.2188 9.4848 19.8256 8.92939 20.8085C 8.64986 21.3031 8.40898 21.5384 8.24897 21.6306C 8.14863 21.6885 8.06993 21.7063 7.90614 21.6335L 7.09386 23.4611C 7.83007 23.7884 8.58262 23.7468 9.2479 23.3633C 9.85352 23.0141 10.3126 22.4259 10.6706 21.7924C 11.3902 20.5191 11.9267 18.6509 12.3313 16.59C 13.1416 12.452 13.4994 7.08046 13.5 3.04734L 11.5 3.04734ZM 7.90614 21.6335C 5.70244 20.6541 4.71806 19.7687 4.38235 19.1392C 4.23242 18.8581 4.22016 18.6461 4.25827 18.4714C 4.30246 18.2025 4.40974 18.0422 4.70711 17.7544L 3.29289 16.3402C 2.84026 16.8025 2.44754 17.4547 2.30423 18.0451C 2.15484 18.7298 2.26758 19.4241 2.61765 20.0804C 3.28194 21.326 4.79756 22.4406 7.09386 23.4611L 7.90614 21.6335ZM 4.70711 17.7544C 5.26336 17.1982 5.66489 16.9248 5.93025 16.8028C 6.18088 16.6875 6.24677 16.7335 6.21323 16.7225C 6.14953 16.7278 6.22712 16.6957 6.31795 16.8427C 6.42153 16.9885 6.47791 17.1419 6.55132 17.3636L 8.44868 16.7311C 8.35543 16.4528 8.19097 16.0562 7.98205 15.7333C 7.75165 15.3877 7.38857 15.0032 6.83677 14.8222C 5.70105 14.4495 4.50838 15.1247 3.29289 16.3402L 4.70711 17.7544ZM 0.813733 3.62858C 1.48542 2.68821 3.83031 0.685354 7.4005 1.04237L 7.5995 -0.947701C 3.1697 -1.39068 0.181245 1.07313 -0.813733 2.4661L 0.813733 3.62858ZM 7.4005 1.04237C 9.57726 1.26005 10.5963 2.48297 12.4527 3.69681C 13.3207 4.26179 14.4205 4.77666 15.7057 4.91036C 17.0271 5.03133 18.5406 4.76075 20.3939 3.96648L 19.6061 2.12819C 17.9594 2.83392 16.7854 3.00084 15.888 2.91869C 14.9545 2.84926 14.3043 2.52038 13.5472 2.02287C 12.1537 1.1117 10.4227 -0.665378 7.5995 -0.947701L 7.4005 1.04237ZM 8.5 12.5473L 16 12.5473L 16 10.5473L 8.5 10.5473L 8.5 12.5473Z"/>
<path id="path32_stroke" d="M 8.67985 13.4783L 9.66172 13.6678L 9.66172 13.6678L 8.67985 13.4783ZM 0.951789 10.4348L 0.0775946 9.94921L 0.0775946 9.94921L 0.951789 10.4348ZM 13.0269 11L 12.7215 10.0478L 13.0269 11ZM 13.0269 20L 12.1527 19.5144L 13.8821 20.5182L 13.0269 20ZM 23.17 7.82609L 23.4574 6.86828L 23.17 7.82609ZM 20.3059 13.4783L 21.2971 13.6107L 21.2993 13.5944L 21.3009 13.578L 20.3059 13.4783ZM 28.9832 0.182373C 29.084 -0.360649 28.7254 -0.882507 28.1824 -0.983229C 27.6394 -1.08395 27.1175 -0.725396 27.0168 -0.182373L 28.9832 0.182373ZM 28.2491 19.2294C 28.784 19.0918 29.106 18.5467 28.9685 18.0118C 28.8309 17.4769 28.2858 17.1548 27.7509 17.2924L 28.2491 19.2294ZM 7.69798 13.2887C 7.38628 14.9034 6.61852 16.4245 5.69706 17.2677C 5.24575 17.6807 4.80606 17.8888 4.40325 17.9315C 4.01965 17.9723 3.55451 17.8762 3.00087 17.4609L 1.80073 19.0608C 2.6961 19.7325 3.65537 20.0223 4.61455 19.9204C 5.55453 19.8205 6.376 19.3574 7.04722 18.7432C 8.37082 17.532 9.29357 15.5749 9.66172 13.6678L 7.69798 13.2887ZM 3.00087 17.4609C 1.74618 16.5197 1.17981 15.4471 1.03739 14.3787C 0.891608 13.2852 1.17715 12.0885 1.82598 10.9204L 0.0775946 9.94921C -0.722587 11.3898 -1.16155 13.0192 -0.945074 14.643C -0.72524 16.2921 0.157403 17.8281 1.80073 19.0608L 3.00087 17.4609ZM 1.82598 10.9204C 2.78379 9.19599 4.31933 8.82609 4.81582 8.82609L 4.81582 6.82609C 3.70229 6.82609 1.4382 7.49966 0.0775946 9.94921L 1.82598 10.9204ZM 4.81582 8.82609C 6.10245 8.82609 6.76106 9.09868 7.10718 9.37692C 7.4363 9.64151 7.6219 10.0232 7.70602 10.5833L 9.68384 10.2863C 9.55452 9.42529 9.21174 8.50265 8.36026 7.81815C 7.52577 7.14731 6.35154 6.82609 4.81582 6.82609L 4.81582 8.82609ZM 7.70602 10.5833C 7.84968 11.522 7.85549 12.4977 7.69798 13.2887L 9.66172 13.6678C 9.84676 12.6843 9.84384 11.3693 9.68384 10.2863L 7.70602 10.5833ZM 9.50076 11.0269C 9.78647 10.6356 10.2764 10.0974 10.9569 9.61835C 11.6327 9.13609 12.3526 8.82609 13.0269 8.82609L 13.0269 6.82609C 11.7691 6.82609 10.6426 7.38565 9.79515 7.99035C 8.95245 8.59828 8.24236 9.36444 7.8891 9.84264L 9.50076 11.0269ZM 13.0269 8.82609C 13.2629 8.82609 12.9998 8.89184 12.7834 8.59838C 12.5522 8.28488 12.6962 8.00782 12.6538 8.12378C 12.5806 8.32401 12.326 8.67528 11.9304 9.19348C 11.7542 9.42427 11.5652 9.6729 11.4164 9.89548C 11.2943 10.0788 11.0759 10.4185 11.0196 10.7899C 10.9866 11.0076 10.9877 11.3875 11.266 11.7258C 11.5334 12.0509 11.8913 12.1336 12.1001 12.1549C 12.4866 12.1944 12.9288 12.0816 13.3323 11.9522L 12.7215 10.0478C 12.3201 10.1765 12.2341 10.1582 12.3031 10.1653C 12.3532 10.1704 12.6049 10.2052 12.8106 10.4553C 13.0272 10.7186 13.0111 10.9964 12.997 11.0896C 12.9785 11.2118 12.9424 11.2124 13.0813 11.0036C 13.1935 10.8341 13.3441 10.6376 13.5201 10.4071C 13.8288 10.0027 14.3287 9.36691 14.5322 8.81068C 14.6281 8.54841 14.7909 7.95077 14.393 7.41127C 14.0099 6.89179 13.3946 6.82609 13.0269 6.82609L 13.0269 8.82609ZM 13.3323 11.9522C 13.8015 11.8017 14.0722 11.8016 14.2047 11.8266C 14.3026 11.8451 14.3312 11.8746 14.3602 11.917C 14.4862 12.1013 14.5955 12.623 14.4408 13.6118C 14.1501 15.5207 13.1035 17.9486 12.1716 19.4818L 13.8821 20.5182C 14.8822 18.863 16.0722 16.0735 16.4168 13.9208C 16.5798 12.8788 16.6064 11.6586 16.0111 10.7881C 15.6795 10.3031 15.1879 9.97702 14.5761 9.8614C 13.999 9.75233 13.3706 9.83957 12.7215 10.0478L 13.3323 11.9522ZM 13.9011 20.4856C 15.0989 18.3287 17.0185 15.1695 18.9341 12.6225C 19.8872 11.3535 20.7888 10.2934 21.6085 9.57297C 22.004 9.22193 22.2969 9.00986 22.5907 8.87716C 22.8396 8.75091 22.9471 8.8306 22.8826 8.7839L 23.4574 6.86828C 22.838 6.68242 22.232 6.83732 21.7443 7.06509C 21.2892 7.28226 20.7602 7.65579 20.2847 8.07377C 19.3626 8.89134 18.3262 10.1031 17.3352 11.421C 15.3626 14.0479 13.3699 17.3234 12.1527 19.5144L 13.9011 20.4856ZM 22.8826 8.7839C 23.6129 9.00301 24.1155 9.1443 24.4758 9.31257C 24.7892 9.45624 24.8518 9.55394 24.8834 9.61946C 24.9372 9.73097 25.0031 9.99025 24.954 10.6224C 24.9056 11.2612 24.7587 12.0978 24.5198 13.2803L 26.4802 13.6762C 26.7243 12.4674 26.89 11.5105 26.948 10.7771C 27.0054 10.0369 26.9718 9.34512 26.6846 8.75011C 26.3752 8.1091 25.8553 7.74485 25.3092 7.4945C 24.81 7.26875 24.1761 7.08395 23.4574 6.86828L 22.8826 8.7839ZM 24.5198 13.2803C 24.0584 15.5646 23.3783 16.7436 22.8064 17.3413C 22.2579 17.9146 21.7661 18 21.5 18L 21.5 20C 22.2772 20 23.3024 19.7159 24.2515 18.724C 25.1773 17.7564 25.9756 16.1745 26.4802 13.6762L 24.5198 13.2803ZM 21.5 18C 21.4609 18.0207 21.6024 18.0744 21.5697 18.0256C 21.5036 17.979 21.497 17.9547 21.4296 17.7729C 21.2646 17.3717 21.2034 16.8448 21.1776 16.1979C 21.1499 15.5513 21.18 14.9193 21.218 14.4161C 21.2366 14.1689 21.2563 13.9696 21.2721 13.8235C 21.2799 13.7525 21.2861 13.6997 21.2908 13.6614C 21.293 13.6431 21.2946 13.6306 21.2958 13.6211C 21.2963 13.6168 21.2967 13.6142 21.2969 13.612C 21.2971 13.6112 21.2971 13.6108 21.2972 13.6104C 21.2972 13.6103 21.2972 13.6103 21.2972 13.6103C 21.2972 13.6103 21.2972 13.6104 21.2972 13.6105C 21.2971 13.6106 21.2971 13.6107 20.3059 13.4783C 19.3147 13.3458 19.3147 13.346 19.3147 13.3462C 19.3147 13.3463 19.3146 13.3465 19.3146 13.3467C 19.3146 13.347 19.3145 13.3476 19.3144 13.3481C 19.3143 13.349 19.3141 13.3507 19.3139 13.3525C 19.3135 13.3556 19.3128 13.361 19.312 13.3671C 19.3105 13.3785 19.3082 13.397 19.3055 13.4192C 19.3003 13.4617 19.2925 13.5276 19.2838 13.6075C 19.2669 13.7634 19.2441 13.9955 19.2236 14.2659C 19.1837 14.7981 19.15 15.5465 19.1793 16.2804C 19.2106 17.0139 19.3271 17.8674 19.5671 18.5015C 19.827 19.1659 20.3994 20 21.5 20L 21.5 18ZM 20.3059 13.4783C 21.3009 13.578 21.3009 13.5782 21.3009 13.5784C 21.3009 13.5785 21.3009 13.5786 21.3009 13.5787C 21.3009 13.5787 21.3008 13.5792 21.3008 13.5791C 21.3008 13.5793 21.3008 13.5791 21.3009 13.5787C 21.301 13.5772 21.3012 13.5761 21.3015 13.5732C 21.3022 13.5661 21.3032 13.5577 21.3048 13.544C 21.3083 13.5139 21.3131 13.4744 21.3208 13.4183C 21.3368 13.3003 21.3604 13.1428 21.3976 12.9389C 21.474 12.5186 21.5899 11.988 21.7828 11.402C 22.1854 10.1707 22.7943 9.11958 23.6062 8.7259L 22.7337 6.92628C 21.1306 7.70355 20.3075 9.47855 19.8818 10.7805C 19.6606 11.4612 19.5133 12.1241 19.43 12.5806C 19.3874 12.8151 19.357 13.0169 19.3391 13.1485C 19.3297 13.2172 19.3226 13.2752 19.3184 13.3113C 19.3161 13.3307 19.3142 13.3477 19.3131 13.3576C 19.3125 13.3632 19.312 13.3685 19.3117 13.3713C 19.3115 13.3731 19.3113 13.3749 19.3112 13.3758C 19.3111 13.3764 19.3111 13.3771 19.311 13.3774C 19.311 13.3776 19.311 13.3779 19.311 13.378C 19.3109 13.3783 19.3109 13.3786 20.3059 13.4783ZM 27.0168 -0.182373L 24.5168 13.2959L 26.4832 13.6606L 28.9832 0.182373L 27.0168 -0.182373ZM 27.7509 17.2924C 26.9907 17.4879 26.6144 17.4363 26.456 17.3753C 26.3638 17.3397 26.2799 17.2827 26.2088 17.0477C 26.1245 16.7686 26.0972 16.3356 26.1519 15.7203C 26.2055 15.1057 26.3286 14.4266 26.4802 13.6762L 24.5198 13.2803C 24.364 14.0517 24.2233 14.8399 24.1598 15.5432C 24.0973 16.246 24.0995 16.9814 24.2943 17.6262C 24.5025 18.3151 24.9476 18.9374 25.7371 19.2416C 26.4604 19.5202 27.3188 19.4686 28.2491 19.2294L 27.7509 17.2924Z"/>
<path id="path33_fill" fill-rule="evenodd" d="M 81.625 53.2019C 76.6545 56.8233 70.3858 59 63.5 59C 62.7955 59 62.0976 58.9772 61.4067 58.9324C 64.9406 53.9405 67 47.9464 67 41.5C 67 39.9252 66.8771 38.3773 66.6398 36.8645C 73.7713 40.1782 79.2083 46.099 81.625 53.2019ZM 84.8789 50.445C 81.5159 42.009 74.4156 35.2905 65.4736 32.0717C 62.1882 22.2107 53.8856 14.4361 43.3775 11.3916C 48.6131 6.82451 55.6561 4 63.5 4C 80.0279 4 93 16.5406 93 31.5C 93 38.7752 89.9319 45.4782 84.8789 50.445ZM 86.2078 54.6592C 92.8436 48.9035 97 40.6582 97 31.5C 97 14.103 82.0015 0 63.5 0C 53.645 0 44.784 4.00136 38.6541 10.3705C 36.974 10.1266 35.2527 10 33.5 10C 14.9985 10 0 24.103 0 41.5C 0 54.9301 8.93832 66.3971 21.5264 70.9283C 25.7881 83.7194 38.4914 93 53.5 93C 72.0015 93 87 78.897 87 61.5C 87 59.1508 86.7265 56.8616 86.2078 54.6592ZM 82.6619 57.3414C 77.2321 60.9079 70.6259 63 63.5 63C 61.7473 63 60.026 62.8734 58.3459 62.6295C 52.216 68.9986 43.355 73 33.5 73C 31.0515 73 28.6643 72.753 26.3651 72.284C 30.8326 82.03 41.1782 89 53.5 89C 70.0279 89 83 76.4594 83 61.5C 83 60.0895 82.8847 58.7004 82.6619 57.3414ZM 56.8469 58.3019C 60.7173 53.6251 63 47.7754 63 41.5C 63 39.3449 62.7308 37.24 62.2205 35.2155C 59.4739 34.4263 56.5474 34 53.5 34C 46.6142 34 40.3455 36.1767 35.375 39.7981C 38.4812 48.9274 46.5768 56.104 56.8469 58.3019ZM 32.1211 42.555C 35.7429 51.6401 43.6993 58.7334 53.6225 61.6084C 48.3869 66.1755 41.3439 69 33.5 69C 30.4526 69 27.5261 68.5737 24.7795 67.7845C 24.2692 65.76 24 63.6551 24 61.5C 24 54.2248 27.0681 47.5218 32.1211 42.555ZM 34.3381 35.6586C 39.7679 32.0921 46.3741 30 53.5 30C 55.9485 30 58.3357 30.247 60.6349 30.716C 56.9993 22.7849 49.4712 16.6923 40.1531 14.6981C 36.2827 19.3749 34 25.2246 34 31.5C 34 32.9105 34.1153 34.2996 34.3381 35.6586ZM 35.5932 14.0676C 32.0594 19.0595 30 25.0536 30 31.5C 30 33.8492 30.2735 36.1384 30.7922 38.3409C 24.1564 44.0965 20 52.3418 20 61.5C 20 63.0748 20.1229 64.6227 20.3602 66.1355C 10.5899 61.5957 4 52.1622 4 41.5C 4 26.5406 16.9721 14 33.5 14C 34.2045 14 34.9024 14.0228 35.5932 14.0676Z"/>
<path id="path34_fill" d="M 0 0L 61 12.5L 61 79L 0 89L 0 0Z"/>
<path id="path35_stroke_2x" d="M 0 0L 0.802986 -3.91857L -4 -4.90279L -4 0L 0 0ZM 61 12.5L 65 12.5L 65 9.23655L 61.803 8.58143L 61 12.5ZM 61 79L 61.6471 82.9473L 65 82.3977L 65 79L 61 79ZM 0 89L -4 89L -4 93.7091L 0.6471 92.9473L 0 89ZM -0.802986 3.91857L 60.197 16.4186L 61.803 8.58143L 0.802986 -3.91857L -0.802986 3.91857ZM 57 12.5L 57 79L 65 79L 65 12.5L 57 12.5ZM 60.3529 75.0527L -0.6471 85.0527L 0.6471 92.9473L 61.6471 82.9473L 60.3529 75.0527ZM 4 89L 4 0L -4 0L -4 89L 4 89Z"/>
<path id="path36_fill" d="M 0 0L 63 13.0618L 63 82.5506L 0 93L 0 0Z"/>
<path id="path37_stroke_2x" d="M 0 0L 0.812051 -3.9167L -4 -4.91439L -4 0L 0 0ZM 63 13.0618L 67 13.0618L 67 9.80605L 63.8121 9.14509L 63 13.0618ZM 63 82.5506L 63.6545 86.4966L 67 85.9418L 67 82.5506L 63 82.5506ZM 0 93L -4 93L -4 97.7181L 0.654514 96.9461L 0 93ZM -0.812051 3.9167L 62.1879 16.9785L 63.8121 9.14509L 0.812051 -3.9167L -0.812051 3.9167ZM 59 13.0618L 59 82.5506L 67 82.5506L 67 13.0618L 59 13.0618ZM 62.3455 78.6045L -0.654514 89.0539L 0.654514 96.9461L 63.6545 86.4966L 62.3455 78.6045ZM 4 93L 4 0L -4 0L -4 93L 4 93Z"/>
<path id="path38_fill" d="M 0 0L 47 0L 47 68L 0 68L 0 0Z"/>
<path id="path39_stroke_2x" d="M 0 0L 0 -4L -4 -4L -4 0L 0 0ZM 47 0L 51 0L 51 -4L 47 -4L 47 0ZM 47 68L 47 72L 51 72L 51 68L 47 68ZM 0 68L -4 68L -4 72L 0 72L 0 68ZM 0 4L 47 4L 47 -4L 0 -4L 0 4ZM 43 0L 43 68L 51 68L 51 0L 43 0ZM 47 64L 0 64L 0 72L 47 72L 47 64ZM 4 68L 4 0L -4 0L -4 68L 4 68Z"/>
<path id="path40_fill" d="M 29 14.5C 29 22.5081 22.5081 29 14.5 29C 6.49187 29 0 22.5081 0 14.5C 0 6.49187 6.49187 0 14.5 0C 22.5081 0 29 6.49187 29 14.5Z"/>
<path id="path41_stroke_2x" d="M 27 14.5C 27 21.4036 21.4036 27 14.5 27L 14.5 31C 23.6127 31 31 23.6127 31 14.5L 27 14.5ZM 14.5 27C 7.59644 27 2 21.4036 2 14.5L -2 14.5C -2 23.6127 5.3873 31 14.5 31L 14.5 27ZM 2 14.5C 2 7.59644 7.59644 2 14.5 2L 14.5 -2C 5.3873 -2 -2 5.3873 -2 14.5L 2 14.5ZM 14.5 2C 21.4036 2 27 7.59644 27 14.5L 31 14.5C 31 5.3873 23.6127 -2 14.5 -2L 14.5 2Z"/>
<path id="path42_fill" d="M 9 4.5C 9 6.98528 6.98528 9 4.5 9C 2.01472 9 0 6.98528 0 4.5C 0 2.01472 2.01472 0 4.5 0C 6.98528 0 9 2.01472 9 4.5Z"/>
<path id="path43_stroke_2x" d="M 7 4.5C 7 5.88071 5.88071 7 4.5 7L 4.5 11C 8.08985 11 11 8.08985 11 4.5L 7 4.5ZM 4.5 7C 3.11929 7 2 5.88071 2 4.5L -2 4.5C -2 8.08985 0.910149 11 4.5 11L 4.5 7ZM 2 4.5C 2 3.11929 3.11929 2 4.5 2L 4.5 -2C 0.910149 -2 -2 0.910149 -2 4.5L 2 4.5ZM 4.5 2C 5.88071 2 7 3.11929 7 4.5L 11 4.5C 11 0.910149 8.08985 -2 4.5 -2L 4.5 2Z"/>
<path id="path44_fill" d="M 4 2C 4 3.10457 3.10457 4 2 4C 0.895431 4 0 3.10457 0 2C 0 0.895431 0.895431 0 2 0C 3.10457 0 4 0.895431 4 2Z"/>
<path id="path45_stroke_2x" d="M 3 2C 3 2.55228 2.55228 3 2 3L 2 5C 3.65685 5 5 3.65685 5 2L 3 2ZM 2 3C 1.44772 3 1 2.55228 1 2L -1 2C -1 3.65685 0.343146 5 2 5L 2 3ZM 1 2C 1 1.44772 1.44772 1 2 1L 2 -1C 0.343146 -1 -1 0.343146 -1 2L 1 2ZM 2 1C 2.55228 1 3 1.44772 3 2L 5 2C 5 0.343146 3.65685 -1 2 -1L 2 1Z"/>
<path id="path46_stroke" d="M 10 15.5L 10 14.5L 9 14.5L 9 15.5L 10 15.5ZM 11.5 4L 10.5 4L 10.5 5L 11.5 5L 11.5 4ZM 37 4L 37 5L 38 5L 38 4L 37 4ZM 37 0L 38 0L 38 -1L 37 -1L 37 0ZM 11.5 0L 11.5 -1L 10.5 -1L 10.5 0L 11.5 0ZM 29.5 41L 28.6479 41.5234L 28.9407 42L 29.5 42L 29.5 41ZM 36 41L 36 42L 36.5633 42L 36.8553 41.5182L 36 41ZM 10 28.1535L 9 28.1535L 9 29.1535L 10 29.1535L 10 28.1535ZM 26.5376 36.177L 27.3897 35.6536L 27.097 35.177L 26.5376 35.177L 26.5376 36.177ZM 55.8362 22.5L 55.8362 23.5L 56.8362 23.5L 56.8362 22.5L 55.8362 22.5ZM 47.1199 18.7364L 48.1155 18.6428L 48.0303 17.7364L 47.1199 17.7364L 47.1199 18.7364ZM 42.5 27.5L 42.5 28.5L 43.5 28.5L 43.5 27.5L 42.5 27.5ZM 42.5 18.7364L 42.5 17.7364L 41.5 17.7364L 41.5 18.7364L 42.5 18.7364ZM 15 14.5C 12.9334 14.5 11.2384 14.5 10 14.5L 10 16.5C 11.2384 16.5 12.9334 16.5 15 16.5L 15 14.5ZM 16 15.5L 16 4L 14 4L 14 15.5L 16 15.5ZM 38 4L 38 0L 36 0L 36 4L 38 4ZM 37 -1L 11.5 -1L 11.5 1L 37 1L 37 -1ZM 10.5 0L 10.5 4L 12.5 4L 12.5 0L 10.5 0ZM 11.5 5L 31.5 5L 31.5 3L 11.5 3L 11.5 5ZM 31.5 5L 37 5L 37 3L 31.5 3L 31.5 5ZM 31.5 14.5C 24.109 14.5 19.6243 14.5 15 14.5L 15 16.5C 19.6243 16.5 24.109 16.5 31.5 16.5L 31.5 14.5ZM 30.5 4L 30.5 15.5L 32.5 15.5L 32.5 4L 30.5 4ZM 29.5 42L 36 42L 36 40L 29.5 40L 29.5 42ZM 25.6855 36.7004L 28.6479 41.5234L 30.3521 40.4766L 27.3897 35.6536L 25.6855 36.7004ZM 36.8553 41.5182L 40.1872 36.0193L 38.4767 34.9828L 35.1447 40.4818L 36.8553 41.5182ZM 55.8362 21.5L 52 21.5L 52 23.5L 55.8362 23.5L 55.8362 21.5ZM 12.5 24L 12.5 33L 14.5 33L 14.5 24L 12.5 24ZM 12.5 41L 12.5 50L 14.5 50L 14.5 41L 12.5 41ZM 0 37.177L 9 37.177L 9 35.177L 0 35.177L 0 37.177ZM 9.81955 38.7672L 2.81955 45.2672L 4.18045 46.7328L 11.1805 40.2328L 9.81955 38.7672ZM 3.24431 27.1549L 9.74431 34.6549L 11.2557 33.3451L 4.75569 25.8451L 3.24431 27.1549ZM 21.7929 26.7929L 15.2929 33.2929L 16.7071 34.7071L 23.2071 28.2071L 21.7929 26.7929ZM 17 37.177L 26.5376 37.177L 26.5376 35.177L 17 35.177L 17 37.177ZM 15.3195 39.7328L 22.3195 46.2328L 23.6805 44.7672L 16.6805 38.2672L 15.3195 39.7328ZM 52.5 23.5L 52.5 33L 54.5 33L 54.5 23.5L 52.5 23.5ZM 51.2336 33.3006L 44.8736 26.8006L 43.4441 28.1994L 49.8041 34.6994L 51.2336 33.3006ZM 55.1119 40.1895L 61.7757 47.1895L 63.2243 45.8105L 56.5605 38.8105L 55.1119 40.1895ZM 56.5 38L 66.3667 38L 66.3667 36L 56.5 36L 56.5 38ZM 61.8017 26.7842L 55.138 33.2842L 56.5345 34.7158L 63.1983 28.2158L 61.8017 26.7842ZM 49.7787 38.8275L 43.4187 45.8275L 44.8989 47.1725L 51.259 40.1725L 49.7787 38.8275ZM 52.5 40.3038L 52.5 50L 54.5 50L 54.5 40.3038L 52.5 40.3038ZM 49.3719 36L 39.9883 36L 39.9883 38L 49.3719 38L 49.3719 36ZM 9 15.5L 9 18.5L 11 18.5L 11 15.5L 9 15.5ZM 9 18.5L 9 28.1535L 11 28.1535L 11 18.5L 9 18.5ZM 52 21.5C 51.0079 21.5 50.2146 21.6127 49.4896 21.3114C 48.9616 21.0919 48.2946 20.5483 48.1155 18.6428L 46.1243 18.83C 46.3504 21.2353 47.3154 22.5736 48.7221 23.1582C 49.9318 23.661 51.376 23.5 52 23.5L 52 21.5ZM 10 16.5L 15 16.5L 15 14.5L 10 14.5L 10 16.5ZM 31.5 14.5L 15 14.5L 15 16.5L 31.5 16.5L 31.5 14.5ZM 10 19.5L 33.8459 19.5L 33.8459 17.5L 10 17.5L 10 19.5ZM 37 26.5C 36.3444 26.5 36.0241 26.2908 35.8089 26.0164C 35.5454 25.6805 35.3497 25.1263 35.2289 24.2958C 35.1068 23.4676 35.08 22.519 35.0479 21.4947C 35.0159 20.4703 34.9786 19.373 34.836 18.3592L 32.8559 18.6408C 32.9862 19.5466 33.0169 20.5342 33.0489 21.5572C 33.0809 22.5803 33.1144 23.6418 33.2498 24.5837C 33.3864 25.5233 33.6456 26.4992 34.2353 27.2509C 34.8733 28.0641 35.8045 28.5 37 28.5L 37 26.5ZM 34.836 18.3592C 34.7061 17.4455 34.4723 16.5086 33.9729 15.782C 33.4265 14.9868 32.5982 14.5 31.5 14.5L 31.5 16.5C 31.9177 16.5 32.1388 16.6443 32.3246 16.9147C 32.5575 17.2536 32.7387 17.8167 32.8559 18.6408L 34.836 18.3592ZM 37 28.5L 42.5 28.5L 42.5 26.5L 37 26.5L 37 28.5ZM 47.1199 17.7364L 42.5 17.7364L 42.5 19.7364L 47.1199 19.7364L 47.1199 17.7364ZM 41.5 18.7364L 41.5 27.5L 43.5 27.5L 43.5 18.7364L 41.5 18.7364ZM 52 20L 55.8362 20L 55.8362 18L 52 18L 52 20ZM 55.8362 20L 61 20L 61 18L 55.8362 18L 55.8362 20ZM 56.8362 22.5L 56.8362 19L 54.8362 19L 54.8362 22.5L 56.8362 22.5ZM 10 29.1535L 23 29.1535L 23 27.1535L 10 27.1535L 10 29.1535Z"/>
<path id="path47_stroke" d="M 14 31.242L 13.0003 31.271L 13.0009 31.2847L 14 31.242ZM 12 96.742L 12.6644 97.4894L 12.6644 97.4894L 12 96.742ZM 16.2708 -0.720648C 14.9532 -1.0912 13.4491 -1.28459 12.5195 -0.0208771C 12.1238 0.516997 11.9286 1.21552 11.8222 1.97535C 11.7184 2.72616 11.6834 3.6976 11.7001 4.84436C 11.7684 9.3755 12.6022 17.5075 13.0004 31.271L 14.9996 31.213C 14.5979 17.3765 13.765 9.2585 13.6999 4.81465C 13.6833 3.71766 13.7108 2.90003 13.8028 2.25279C 13.8922 1.61458 14.0262 1.30607 14.1305 1.16426C 14.2009 1.0686 14.3801 0.825208 15.7293 1.20465L 16.2708 -0.720648ZM 13.0009 31.2847C 13.4175 41.0337 14.0418 56.3858 14 69.8014C 13.9793 76.5067 13.7937 82.6945 13.3327 87.4663C 13.1037 89.8438 12.8141 91.8179 12.4407 93.3416C 12.0552 94.9193 11.6415 95.7227 11.3356 95.9946L 12.6644 97.4894C 13.4835 96.7613 14.0021 95.3772 14.3835 93.8163C 14.777 92.2012 15.089 90.0855 15.3235 87.6583C 15.7897 82.8207 15.979 76.5398 16 69.8076C 16.0415 56.3482 15.4158 40.9503 14.9991 31.1993L 13.0009 31.2847ZM 11.3356 95.9946C 10.1063 97.0874 9.00649 97.5188 8.04551 97.6056C 7.01921 97.7155 6.16391 97.4574 5.22636 96.9757C 4.28487 96.5023 3.45758 95.8522 2.67247 95.1837C 1.89101 94.5191 1.17221 93.8408 0.56921 93.4198L -0.56921 95.0642C -0.0888748 95.3932 0.554232 96.0067 1.37621 96.7067C 2.19452 97.4029 3.21218 98.1903 4.3201 98.7586C 5.43197 99.3187 6.83053 99.7065 8.22551 99.5975C 9.6858 99.4656 11.1747 98.8136 12.6644 97.4894L 11.3356 95.9946Z"/>
<path id="path48_stroke" d="M -1.34848 0.656954L 8.15152 20.157L 10.8485 18.843L 1.34848 -0.656954L -1.34848 0.656954Z"/>
</defs>
</svg>
