<svg width="1500" height="1500" viewBox="0 0 1500 1500" version="1.1" xmlns="http://www.w3.org/2000/svg" xmlns:xlink="http://www.w3.org/1999/xlink">
<title>A</title>
<desc>Created using Figma</desc>
<g id="Canvas" transform="matrix(3 0 0 3 1212 798)">
<clipPath id="clip-0" clip-rule="evenodd">
<path d="M -404 -266L 96 -266L 96 234L -404 234L -404 -266Z" fill="#FFFFFF"/>
</clipPath>
<g id="A" clip-path="url(#clip-0)">
<g id="Vector 2">
<use xlink:href="#path0_stroke" transform="matrix(0.961862 -0.273534 0.273534 0.961862 -293 -74.7602)" fill="#FFFFFF"/>
</g>
<g id="Vector 2">
<use xlink:href="#path1_stroke" transform="matrix(1 -0.000154228 0.000154228 1 -259 -127.998)" fill="#FFFFFF"/>
</g>
<g id="Vector 2">
<use xlink:href="#path2_stroke" transform="matrix(-1 0.000154228 0.000154228 1 -158.298 -87)" fill="#FFFFFF"/>
</g>
<g id="Vector 2">
<use xlink:href="#path2_stroke" transform="matrix(-1 0.000154228 0.000154228 1 -195.298 -131)" fill="#FFFFFF"/>
</g>
<g id="Vector 2">
<use xlink:href="#path3_stroke" transform="matrix(-0.929371 0.369147 0.369147 0.929371 -250.093 -23.3387)" fill="#FFFFFF"/>
</g>
<g id="Vector 2">
<use xlink:href="#path2_stroke" transform="matrix(-0.898736 0.43849 0.43849 0.898736 -312.004 13.6164)" fill="#FFFFFF"/>
</g>
<g id="Vector 3">
<use xlink:href="#path4_stroke" transform="translate(-153 -116)" fill="#FFFFFF"/>
</g>
<g id="Group">
<g id="Line">
<use xlink:href="#path5_stroke" transform="matrix(6.12323e-17 1 -1 6.12323e-17 -399 207)" fill="#FFFFFF"/>
</g>
<g id="Line">
<use xlink:href="#path5_stroke" transform="matrix(6.27631e-17 1 -1 5.97389e-17 -358 207)" fill="#FFFFFF"/>
</g>
<g id="Line">
<use xlink:href="#path5_stroke" transform="matrix(6.27631e-17 1 -1 5.97389e-17 -317 207)" fill="#FFFFFF"/>
</g>
<g id="Line">
<use xlink:href="#path5_stroke" transform="matrix(6.27631e-17 1 -1 5.97389e-17 -276 207)" fill="#FFFFFF"/>
</g>
<g id="Line">
<use xlink:href="#path5_stroke" transform="matrix(6.27631e-17 1 -1 5.97389e-17 -235 207)" fill="#FFFFFF"/>
</g>
<g id="Line">
<use xlink:href="#path5_stroke" transform="matrix(6.27631e-17 1 -1 5.97389e-17 -194 207)" fill="#FFFFFF"/>
</g>
<g id="Line">
<use xlink:href="#path5_stroke" transform="matrix(6.27631e-17 1 -1 5.97389e-17 -153 207)" fill="#FFFFFF"/>
</g>
<g id="Line">
<use xlink:href="#path5_stroke" transform="matrix(6.27631e-17 1 -1 5.97389e-17 -112 207)" fill="#FFFFFF"/>
</g>
<g id="Line">
<use xlink:href="#path5_stroke" transform="matrix(6.27631e-17 1 -1 5.97389e-17 -71 207)" fill="#FFFFFF"/>
</g>
<g id="Line">
<use xlink:href="#path5_stroke" transform="matrix(6.27631e-17 1 -1 5.97389e-17 -30 207)" fill="#FFFFFF"/>
</g>
<g id="Line">
<use xlink:href="#path5_stroke" transform="matrix(6.27631e-17 1 -1 5.97389e-17 11 207)" fill="#FFFFFF"/>
</g>
<g id="Line">
<use xlink:href="#path5_stroke" transform="matrix(6.27631e-17 1 -1 5.97389e-17 52 207)" fill="#FFFFFF"/>
</g>
<g id="Line">
<use xlink:href="#path5_stroke" transform="matrix(6.27631e-17 1 -1 5.97389e-17 93 207)" fill="#FFFFFF"/>
</g>
<g id="Vector 4">
<use xlink:href="#path6_stroke" transform="translate(-385 210.257)" fill="#FFFFFF"/>
</g>
<g id="Vector 4">
<use xlink:href="#path7_stroke" transform="translate(-174.64 209)" fill="#FFFFFF"/>
</g>
<g id="Vector 4">
<use xlink:href="#path6_stroke" transform="translate(-102 210.257)" fill="#FFFFFF"/>
</g>
</g>
<g id="Vector 5">
<use xlink:href="#path8_stroke" transform="translate(-286 76.6949)" fill="#FFFFFF"/>
</g>
<g id="Vector 6">
<use xlink:href="#path9_stroke" transform="translate(-285 20)" fill="#FFFFFF"/>
</g>
<g id="Vector 8">
<use xlink:href="#path10_stroke" transform="translate(2 17)" fill="#FFFFFF"/>
</g>
<g id="Vector 8">
<use xlink:href="#path10_stroke" transform="translate(6 19)" fill="#FFFFFF"/>
</g>
<g id="Vector 10">
<use xlink:href="#path11_stroke" transform="translate(-293 92.0804)" fill="#FFFFFF"/>
</g>
<g id="Vector 11">
<use xlink:href="#path12_stroke" transform="translate(-344 109)" fill="#FFFFFF"/>
</g>
<g id="Vector 7">
<use xlink:href="#path13_stroke" transform="translate(-54.5 35)" fill="#FFFFFF"/>
</g>
<g id="Vector 7">
<use xlink:href="#path14_stroke" transform="matrix(0.948325 -0.317301 0.317301 0.948325 -49.4478 2.89471)" fill="#FFFFFF"/>
</g>
</g>
</g>
<defs>
<path id="path0_stroke" d="M 0 5.5C -0.276142 5.5 -0.5 5.72386 -0.5 6C -0.5 6.27614 -0.276142 6.5 0 6.5L 0 5.5ZM 3.83218 1.6263C 3.62579 1.44284 3.30975 1.46143 3.1263 1.66782C 2.94284 1.87421 2.96143 2.19025 3.16782 2.3737L 3.83218 1.6263ZM 8.5 0C 8.5 -0.276142 8.27614 -0.5 8 -0.5C 7.72386 -0.5 7.5 -0.276142 7.5 0L 8.5 0ZM 14.762 2.42583C 14.9972 2.2811 15.0706 1.97313 14.9258 1.73795C 14.7811 1.50277 14.4731 1.42945 14.238 1.57417L 14.762 2.42583ZM 15.5 6.5C 15.7761 6.5 16 6.27614 16 6C 16 5.72386 15.7761 5.5 15.5 5.5L 15.5 6.5ZM 13.3291 8.4699C 13.5886 8.56427 13.8755 8.43039 13.9699 8.17087C 14.0643 7.91135 13.9304 7.62447 13.6709 7.5301L 13.3291 8.4699ZM 10.0528 11.2236C 10.1763 11.4706 10.4766 11.5707 10.7236 11.4472C 10.9706 11.3237 11.0707 11.0234 10.9472 10.7764L 10.0528 11.2236ZM 5.05279 10.7764C 4.92929 11.0234 5.0294 11.3237 5.27639 11.4472C 5.52338 11.5707 5.82372 11.4706 5.94721 11.2236L 5.05279 10.7764ZM 1.77639 8.55279C 1.5294 8.67628 1.42929 8.97662 1.55279 9.22361C 1.67628 9.4706 1.97662 9.57071 2.22361 9.44721L 1.77639 8.55279ZM 9 21L 8.57125 21.2572C 8.59229 21.2923 8.61754 21.3246 8.64645 21.3536L 9 21ZM 11 21.5L 11.4472 21.7236C 11.515 21.588 11.5176 21.4289 11.4543 21.2911C 11.3909 21.1533 11.2684 21.0517 11.1213 21.0149L 11 21.5ZM 10.5 22.5L 10.1464 22.8536C 10.2601 22.9672 10.4214 23.0193 10.5801 22.9935C 10.7387 22.9678 10.8753 22.8674 10.9472 22.7236L 10.5 22.5ZM 0 6.5L 8 6.5L 8 5.5L 0 5.5L 0 6.5ZM 8.33218 5.6263L 3.83218 1.6263L 3.16782 2.3737L 7.66782 6.3737L 8.33218 5.6263ZM 8.5 6L 8.5 0L 7.5 0L 7.5 6L 8.5 6ZM 8.26205 6.42583L 14.762 2.42583L 14.238 1.57417L 7.73795 5.57417L 8.26205 6.42583ZM 8 6.5L 15.5 6.5L 15.5 5.5L 8 5.5L 8 6.5ZM 7.82913 6.4699L 13.3291 8.4699L 13.6709 7.5301L 8.17087 5.5301L 7.82913 6.4699ZM 7.55279 6.22361L 10.0528 11.2236L 10.9472 10.7764L 8.44721 5.77639L 7.55279 6.22361ZM 7.55279 5.77639L 5.05279 10.7764L 5.94721 11.2236L 8.44721 6.22361L 7.55279 5.77639ZM 7.77639 5.55279L 1.77639 8.55279L 2.22361 9.44721L 8.22361 6.44721L 7.77639 5.55279ZM 7.5004 5.98002C 7.41686 8.06949 7.36671 11.3396 7.48791 14.3328C 7.54871 15.8303 7.6538 17.2764 7.81881 18.4672C 7.98121 19.6372 8.21268 20.6596 8.57125 21.2572L 9.42875 20.7428C 9.18732 20.3404 8.97295 19.5086 8.80931 18.3297C 8.64828 17.1715 8.54712 15.7739 8.48709 14.2922C 8.36663 11.327 8.41648 8.09717 8.4996 6.01998L 7.5004 5.98002ZM 11.1213 21.0149L 9.12127 20.5149L 8.87873 21.4851L 10.8787 21.9851L 11.1213 21.0149ZM 10.9472 22.7236L 11.4472 21.7236L 10.5528 21.2764L 10.0528 22.2764L 10.9472 22.7236ZM 10.8536 22.1464L 9.35355 20.6464L 8.64645 21.3536L 10.1464 22.8536L 10.8536 22.1464Z"/>
<path id="path1_stroke" d="M 0 4.56648C -0.276142 4.56648 -0.5 4.79034 -0.5 5.06648C -0.5 5.34262 -0.276142 5.56648 0 5.56648L 0 4.56648ZM 2.84657 1.34536C 2.65688 1.14468 2.34042 1.13577 2.13974 1.32546C 1.93907 1.51516 1.93016 1.83161 2.11985 2.03229L 2.84657 1.34536ZM 6.17591 0C 6.17591 -0.276142 5.95205 -0.5 5.67591 -0.5C 5.39976 -0.5 5.17591 -0.276142 5.17591 0L 6.17591 0ZM 10.583 2.09221C 10.8058 1.92904 10.8541 1.61617 10.691 1.39339C 10.5278 1.17061 10.2149 1.12228 9.99214 1.28545L 10.583 2.09221ZM 10.9971 5.56648C 11.2732 5.56648 11.4971 5.34262 11.4971 5.06648C 11.4971 4.79034 11.2732 4.56648 10.9971 4.56648L 10.9971 5.56648ZM 9.3795 7.21418C 9.63293 7.32386 9.92728 7.20733 10.037 6.9539C 10.1466 6.70047 10.0301 6.40612 9.77669 6.29644L 9.3795 7.21418ZM 6.98865 9.48221C 7.09561 9.73679 7.3887 9.85647 7.64329 9.74952C 7.89787 9.64257 8.01756 9.34948 7.9106 9.09489L 6.98865 9.48221ZM 3.44121 9.09489C 3.33426 9.34948 3.45394 9.64257 3.70853 9.74952C 3.96312 9.85647 4.2562 9.73679 4.36316 9.48221L 3.44121 9.09489ZM 1.16328 7.17004C 0.92598 7.31126 0.848086 7.61811 0.989302 7.85541C 1.13052 8.09272 1.43737 8.17061 1.67467 8.0294L 1.16328 7.17004ZM 6.3854 17.7327L 5.93892 17.9578C 5.95634 17.9923 5.9777 18.0247 6.00258 18.0543L 6.3854 17.7327ZM 7.80437 18.1549L 8.26534 18.3485C 8.32036 18.2176 8.31708 18.0694 8.25633 17.941C 8.19559 17.8127 8.0831 17.7162 7.94697 17.6757L 7.80437 18.1549ZM 7.44963 18.9993L 7.06682 19.3209C 7.1789 19.4543 7.35234 19.5198 7.52461 19.4936C 7.69688 19.4675 7.84312 19.3536 7.9106 19.193L 7.44963 18.9993ZM 0 5.56648L 5.67591 5.56648L 5.67591 4.56648L 0 4.56648L 0 5.56648ZM 6.03927 4.72302L 2.84657 1.34536L 2.11985 2.03229L 5.31254 5.40995L 6.03927 4.72302ZM 6.17591 5.06648L 6.17591 0L 5.17591 0L 5.17591 5.06648L 6.17591 5.06648ZM 5.97135 5.46986L 10.583 2.09221L 9.99214 1.28545L 5.38047 4.6631L 5.97135 5.46986ZM 5.67591 5.56648L 10.9971 5.56648L 10.9971 4.56648L 5.67591 4.56648L 5.67591 5.56648ZM 5.47731 5.52535L 9.3795 7.21418L 9.77669 6.29644L 5.8745 4.60761L 5.47731 5.52535ZM 5.21493 5.26014L 6.98865 9.48221L 7.9106 9.09489L 6.13688 4.87282L 5.21493 5.26014ZM 5.21493 4.87282L 3.44121 9.09489L 4.36316 9.48221L 6.13688 5.26014L 5.21493 4.87282ZM 5.42021 4.63681L 1.16328 7.17004L 1.67467 8.0294L 5.9316 5.49616L 5.42021 4.63681ZM 5.17619 5.04969C 5.11692 6.81404 5.08134 9.5753 5.16733 12.1027C 5.21047 13.3672 5.28503 14.5883 5.4021 15.5938C 5.51705 16.5795 5.6811 17.4463 5.93892 17.9578L 6.83187 17.5076C 6.664 17.1746 6.51174 16.4758 6.39536 15.478C 6.28111 14.5 6.20934 13.3198 6.16675 12.0686C 6.08128 9.56473 6.11665 6.8373 6.17562 5.08327L 5.17619 5.04969ZM 7.94697 17.6757L 6.52799 17.2534L 6.2428 18.2119L 7.66178 18.6341L 7.94697 17.6757ZM 7.9106 19.193L 8.26534 18.3485L 7.3434 17.9612L 6.98865 18.8056L 7.9106 19.193ZM 7.83244 18.6777L 6.76821 17.411L 6.00258 18.0543L 7.06682 19.3209L 7.83244 18.6777Z"/>
<path id="path2_stroke" d="M 0 4.56648C -0.276142 4.56648 -0.5 4.79034 -0.5 5.06648C -0.5 5.34262 -0.276142 5.56648 0 5.56648L 0 4.56648ZM 2.78462 1.35032C 2.59767 1.14709 2.28136 1.13389 2.07813 1.32084C 1.8749 1.5078 1.8617 1.8241 2.04865 2.02733L 2.78462 1.35032ZM 6.02374 0C 6.02374 -0.276142 5.79988 -0.5 5.52374 -0.5C 5.2476 -0.5 5.02374 -0.276142 5.02374 0L 6.02374 0ZM 10.3124 2.08833C 10.5331 1.92228 10.5773 1.6088 10.4113 1.38816C 10.2452 1.16753 9.93175 1.12327 9.71111 1.28932L 10.3124 2.08833ZM 10.7022 5.56648C 10.9784 5.56648 11.2022 5.34262 11.2022 5.06648C 11.2022 4.79034 10.9784 4.56648 10.7022 4.56648L 10.7022 5.56648ZM 9.11814 7.21217C 9.37045 7.32438 9.66596 7.2108 9.77817 6.95848C 9.89038 6.70616 9.7768 6.41066 9.52448 6.29845L 9.11814 7.21217ZM 6.78709 9.47777C 6.8916 9.73337 7.18352 9.85586 7.43913 9.75136C 7.69473 9.64686 7.81722 9.35493 7.71272 9.09933L 6.78709 9.47777ZM 3.33476 9.09933C 3.23025 9.35493 3.35275 9.64686 3.60835 9.75136C 3.86396 9.85586 4.15588 9.73337 4.26038 9.47777L 3.33476 9.09933ZM 1.1201 7.17315C 0.884507 7.31721 0.810306 7.62497 0.954364 7.86056C 1.09842 8.09615 1.40619 8.17035 1.64177 8.02629L 1.1201 7.17315ZM 6.21421 17.7327L 5.76532 17.9529C 5.78217 17.9873 5.80291 18.0196 5.82713 18.0492L 6.21421 17.7327ZM 7.59514 18.1549L 8.05795 18.3441C 8.11114 18.214 8.10712 18.0675 8.04688 17.9406C 7.98664 17.8136 7.87573 17.7178 7.74133 17.6767L 7.59514 18.1549ZM 7.24991 18.9993L 6.86283 19.3158C 6.97442 19.4523 7.14963 19.5199 7.32396 19.4938C 7.4983 19.4677 7.64601 19.3517 7.71272 19.1885L 7.24991 18.9993ZM 0 5.56648L 5.52374 5.56648L 5.52374 4.56648L 0 4.56648L 0 5.56648ZM 5.89172 4.72797L 2.78462 1.35032L 2.04865 2.02733L 5.15575 5.40499L 5.89172 4.72797ZM 6.02374 5.06648L 6.02374 0L 5.02374 0L 5.02374 5.06648L 6.02374 5.06648ZM 5.8244 5.46598L 10.3124 2.08833L 9.71111 1.28932L 5.22308 4.66698L 5.8244 5.46598ZM 5.52374 5.56648L 10.7022 5.56648L 10.7022 4.56648L 5.52374 4.56648L 5.52374 5.56648ZM 5.32057 5.52334L 9.11814 7.21217L 9.52448 6.29845L 5.72691 4.60962L 5.32057 5.52334ZM 5.06093 5.2557L 6.78709 9.47777L 7.71272 9.09933L 5.98655 4.87726L 5.06093 5.2557ZM 5.06093 4.87726L 3.33476 9.09933L 4.26038 9.47777L 5.98655 5.2557L 5.06093 4.87726ZM 5.2629 4.63991L 1.1201 7.17315L 1.64177 8.02629L 5.78458 5.49305L 5.2629 4.63991ZM 5.02401 5.05014C 4.96633 6.81436 4.9317 9.57516 5.01538 12.1022C 5.05736 13.3666 5.12988 14.5871 5.24378 15.5923C 5.35563 16.5778 5.5151 17.4429 5.76532 17.9529L 6.66309 17.5125C 6.49903 17.178 6.35067 16.4775 6.2374 15.4795C 6.12617 14.5011 6.05629 13.3204 6.01483 12.0691C 5.93165 9.56487 5.96607 6.83699 6.02347 5.08283L 5.02401 5.05014ZM 7.74133 17.6767L 6.3604 17.2545L 6.06802 18.2108L 7.44895 18.633L 7.74133 17.6767ZM 7.71272 19.1885L 8.05795 18.3441L 7.13233 17.9657L 6.78709 18.8101L 7.71272 19.1885ZM 7.63698 18.6828L 6.60128 17.4162L 5.82713 18.0492L 6.86283 19.3158L 7.63698 18.6828Z"/>
<path id="path3_stroke" d="M 0 3.90117C -0.276142 3.90117 -0.5 4.12503 -0.5 4.40117C -0.5 4.67731 -0.276142 4.90117 0 4.90117L 0 3.90117ZM 2.77981 1.10202C 2.5782 0.913312 2.26179 0.923771 2.07309 1.12538C 1.88438 1.32698 1.89484 1.64339 2.09645 1.8321L 2.77981 1.10202ZM 6.07286 0C 6.07286 -0.276142 5.849 -0.5 5.57286 -0.5C 5.29672 -0.5 5.07286 -0.276142 5.07286 0L 6.07286 0ZM 10.3727 1.88666C 10.6045 1.73649 10.6706 1.42689 10.5204 1.19515C 10.3702 0.963412 10.0606 0.897284 9.82891 1.04745L 10.3727 1.88666ZM 10.7974 4.90117C 11.0736 4.90117 11.2974 4.67731 11.2974 4.40117C 11.2974 4.12503 11.0736 3.90117 10.7974 3.90117L 10.7974 4.90117ZM 9.22541 6.33517C 9.48329 6.43391 9.7724 6.30491 9.87114 6.04702C 9.96989 5.78914 9.84088 5.50004 9.583 5.40129L 9.22541 6.33517ZM 6.86271 8.28328C 6.98116 8.53273 7.2794 8.63893 7.52885 8.52048C 7.7783 8.40204 7.88449 8.1038 7.76605 7.85435L 6.86271 8.28328ZM 3.37967 7.85435C 3.26123 8.1038 3.36743 8.40204 3.61687 8.52048C 3.86632 8.63893 4.16456 8.53273 4.28301 8.28328L 3.37967 7.85435ZM 1.16028 6.15933C 0.915933 6.28798 0.822142 6.59035 0.95079 6.83469C 1.07944 7.07904 1.38181 7.17283 1.62615 7.04418L 1.16028 6.15933ZM 6.26947 15.4041L 5.83504 15.6516C 5.85501 15.6867 5.87914 15.7192 5.90691 15.7484L 6.26947 15.4041ZM 7.66268 15.7709L 8.11435 15.9853C 8.17817 15.8509 8.17882 15.6951 8.11611 15.5601C 8.0534 15.4252 7.93386 15.3252 7.78997 15.2873L 7.66268 15.7709ZM 7.31438 16.5044L 6.95182 16.8487C 7.0653 16.9682 7.23038 17.0241 7.39312 16.9982C 7.55586 16.9722 7.69536 16.8677 7.76605 16.7189L 7.31438 16.5044ZM 0 4.90117L 5.57286 4.90117L 5.57286 3.90117L 0 3.90117L 0 4.90117ZM 5.91454 4.03613L 2.77981 1.10202L 2.09645 1.8321L 5.23118 4.76621L 5.91454 4.03613ZM 6.07286 4.40117L 6.07286 0L 5.07286 0L 5.07286 4.40117L 6.07286 4.40117ZM 5.84476 4.82078L 10.3727 1.88666L 9.82891 1.04745L 5.30096 3.98157L 5.84476 4.82078ZM 5.57286 4.90117L 10.7974 4.90117L 10.7974 3.90117L 5.57286 3.90117L 5.57286 4.90117ZM 5.39407 4.86811L 9.22541 6.33517L 9.583 5.40129L 5.75166 3.93423L 5.39407 4.86811ZM 5.12119 4.61564L 6.86271 8.28328L 7.76605 7.85435L 6.02453 4.18671L 5.12119 4.61564ZM 5.12119 4.18671L 3.37967 7.85435L 4.28301 8.28328L 6.02453 4.61564L 5.12119 4.18671ZM 5.33992 3.95875L 1.16028 6.15933L 1.62615 7.04418L 5.8058 4.8436L 5.33992 3.95875ZM 5.07322 4.38219C 5.01498 5.91621 4.98002 8.3193 5.06452 10.5179C 5.10696 11.6181 5.18057 12.6841 5.29593 13.5611C 5.40882 14.4176 5.57176 15.1896 5.83504 15.6516L 6.70389 15.1566C 6.54921 14.8851 6.40158 14.297 6.28735 13.4304C 6.17558 12.5844 6.10552 11.5645 6.06378 10.4794C 5.97994 8.30735 6.01464 5.9425 6.0725 4.42015L 5.07322 4.38219ZM 7.78997 15.2873L 6.39676 14.9206L 6.14218 15.8876L 7.5354 16.2544L 7.78997 15.2873ZM 7.76605 16.7189L 8.11435 15.9853L 7.21102 15.5564L 6.86271 16.2899L 7.76605 16.7189ZM 7.67694 16.1601L 6.63203 15.0598L 5.90691 15.7484L 6.95182 16.8487L 7.67694 16.1601Z"/>
<path id="path4_stroke" d="M 0 61.0983L -0.125547 60.6144C -0.3523 60.6732 -0.507816 60.8815 -0.4997 61.1157C -0.491584 61.3498 -0.322012 61.5469 -0.0917298 61.5899L 0 61.0983ZM 48.7351 59.6664L 48.7947 60.1629L 48.7351 59.6664ZM 66.6378 57.2799L 66.7152 57.7739C 66.889 57.7467 67.0357 57.6301 67.1015 57.4669L 66.6378 57.2799ZM 72.6054 42.4834L 73.0691 42.6704C 73.1285 42.5231 73.1144 42.3564 73.0311 42.2212C 72.9478 42.0859 72.8053 41.9983 72.647 41.9851L 72.6054 42.4834ZM 24.8649 53.9387L 24.5511 53.5495C 24.3416 53.7183 24.3033 54.0225 24.4643 54.238C 24.6254 54.4535 24.928 54.503 25.1493 54.35L 24.8649 53.9387ZM 66.1405 37.233L 66.1405 37.733C 66.3269 37.733 66.4979 37.6293 66.584 37.464L 66.1405 37.233ZM 18.4 56.3253L 18.5255 56.8093C 18.6903 56.7665 18.822 56.6429 18.8751 56.4811L 18.4 56.3253ZM 69.6216 30.5507L 69.6947 30.0561C 69.4839 30.0249 69.2766 30.1308 69.1782 30.3197L 69.6216 30.5507ZM 78.0757 26.2549L 77.6081 26.0778L 78.0757 26.2549ZM 78.0757 8.11727L 77.61 7.93531L 78.0757 8.11727ZM 92 0.00305891L 92.0218 0.502584C 92.2899 0.490889 92.5009 0.269698 92.5 0.00138414C 92.4991 -0.26693 92.2866 -0.486702 92.0184 -0.496601L 92 0.00305891ZM 65.3465 36.2784L 64.9656 36.6023L 65.3465 36.2784ZM -0.0917298 61.5899C 8.88265 63.2642 14.164 63.7461 20.6655 63.3875C 27.1548 63.0275 34.8788 61.8323 48.7947 60.1629L 48.6756 59.17C 34.7428 60.8416 27.0506 62.033 20.6102 62.389C 14.1819 62.7463 9.02005 62.2736 0.0917298 60.6068L -0.0917298 61.5899ZM 48.7947 60.1629C 54.4876 59.4799 58.968 58.8826 62.0228 58.4564C 63.5509 58.2432 64.724 58.0726 65.5141 57.9554C 65.9095 57.8968 66.2098 57.8514 66.4107 57.8208C 66.5113 57.8054 66.5874 57.7937 66.6382 57.7859C 66.6636 57.7819 66.6829 57.7789 66.6956 57.7769C 66.7021 57.7759 66.7069 57.7752 66.7102 57.7747C 66.7118 57.7744 66.713 57.7742 66.7139 57.7741C 66.7143 57.774 66.7146 57.774 66.7148 57.774C 66.7149 57.7739 66.715 57.7739 66.7151 57.7739C 66.7151 57.7739 66.7152 57.7739 66.6378 57.2799C 66.5605 56.7859 66.5605 56.7859 66.5605 56.7859C 66.5604 56.7859 66.5604 56.786 66.5603 56.786C 66.5601 56.786 66.5598 56.786 66.5594 56.7861C 66.5587 56.7862 66.5575 56.7864 66.556 56.7866C 66.5528 56.7871 66.5482 56.7879 66.5419 56.7888C 66.5293 56.7908 66.5106 56.7937 66.4854 56.7976C 66.435 56.8054 66.3599 56.8169 66.2599 56.8322C 66.0597 56.8627 65.7614 56.9078 65.3674 56.9662C 64.5787 57.0832 63.4098 57.2532 61.8846 57.466C 58.8329 57.8918 54.362 58.4878 48.6756 59.17L 48.7947 60.1629ZM 67.1015 57.4669L 73.0691 42.6704L 72.1417 42.2964L 66.1741 57.0929L 67.1015 57.4669ZM 72.647 41.9851C 68.7744 41.6619 57.8101 41.8908 44.6301 45.3408L 44.8834 46.3082C 57.9607 42.8851 68.8112 42.6685 72.5638 42.9817L 72.647 41.9851ZM 44.6301 45.3408C 38.0344 47.0685 33.0168 49.1143 29.6712 50.7196C 27.9927 51.5253 26.7188 52.2273 25.8738 52.7229C 25.4487 52.9723 25.125 53.1735 24.9118 53.3098C 24.8039 53.3787 24.721 53.4332 24.667 53.4691C 24.6394 53.4875 24.6177 53.5021 24.6039 53.5115C 24.5967 53.5164 24.5908 53.5204 24.5872 53.5229C 24.5853 53.5242 24.5836 53.5254 24.5826 53.526C 24.582 53.5264 24.5815 53.5268 24.5812 53.527C 24.581 53.5271 24.5808 53.5272 24.5808 53.5273C 24.5806 53.5274 24.5805 53.5275 24.8649 53.9387C 25.1493 54.35 25.1492 54.35 25.1491 54.3501C 25.1491 54.3501 25.1491 54.3501 25.1491 54.3501C 25.1493 54.35 25.1493 54.3499 25.1496 54.3498C 25.1503 54.3493 25.1511 54.3487 25.1524 54.3478C 25.1554 54.3458 25.1594 54.343 25.1654 54.339C 25.178 54.3304 25.1959 54.3183 25.221 54.3016C 25.2725 54.2674 25.3477 54.218 25.4504 54.1523C 25.6584 54.0194 25.9657 53.8283 26.3797 53.5855C 27.2131 53.0966 28.4506 52.4144 30.1039 51.6212C 33.4221 50.0285 38.3505 48.0172 44.8834 46.3082L 44.6301 45.3408ZM 24.8649 53.9387C 25.1786 54.328 25.1787 54.328 25.1787 54.328C 25.1789 54.3279 25.179 54.3278 25.1792 54.3276C 25.1797 54.3272 25.1803 54.3267 25.1812 54.326C 25.183 54.3245 25.1857 54.3223 25.1894 54.3194C 25.1968 54.3135 25.2077 54.3047 25.2223 54.293C 25.2517 54.2694 25.2952 54.2346 25.3527 54.1888C 25.468 54.097 25.6375 53.9625 25.8569 53.79C 26.2966 53.4443 26.9323 52.9491 27.7228 52.3466C 29.3055 51.1403 31.497 49.5122 33.9519 47.8106C 38.8834 44.3921 44.7845 40.7441 48.8674 39.6244L 48.6029 38.66C 44.3312 39.8315 38.2971 43.5817 33.3822 46.9887C 30.9139 48.6998 28.7042 50.3413 27.1166 51.5513C 26.322 52.157 25.6803 52.6567 25.2388 53.0039C 25.0177 53.1778 24.8457 53.3142 24.7296 53.4067C 24.6714 53.453 24.6267 53.4888 24.5969 53.5126C 24.582 53.5247 24.5705 53.5339 24.5629 53.54C 24.5591 53.543 24.5561 53.5454 24.5542 53.547C 24.5532 53.5478 24.5524 53.5484 24.5519 53.5488C 24.5517 53.549 24.5515 53.5492 24.5513 53.5493C 24.5512 53.5494 24.5511 53.5495 24.8649 53.9387ZM 48.8674 39.6244C 57.143 37.3483 64.1378 37.7328 66.1405 37.733L 66.1405 36.733C 64.1649 36.7332 57.0364 36.354 48.6029 38.66L 48.8674 39.6244ZM 66.584 37.464L 70.0651 30.7817L 69.1782 30.3197L 65.6971 37.002L 66.584 37.464ZM 69.5486 31.0453C 70.6659 31.2087 72.5037 31.178 74.2284 30.568C 75.9776 29.9422 77.6841 28.6997 78.5432 26.4321L 77.6081 26.0778C 76.8759 28.0105 75.4329 29.075 73.8916 29.6265C 72.3259 30.1939 70.7322 30.2109 69.6947 30.0561L 69.5486 31.0453ZM 78.5432 26.4321C 79.6023 23.6367 78.7996 20.8358 78.1918 17.9771C 77.5729 15.0674 77.0808 11.9904 78.5414 8.29923L 77.61 7.93531C 76.0868 11.881 76.5893 15.2477 77.2136 18.185C 77.849 21.1733 78.5382 23.6228 77.6081 26.0778L 78.5432 26.4321ZM 78.5414 8.29923C 79.9548 4.68177 83.2679 2.7235 86.32 1.66891C 87.8428 1.14163 89.2595 0.853257 90.3195 0.691211C 90.8453 0.610649 91.2694 0.563917 91.5697 0.536395C 91.7179 0.522784 91.8306 0.514411 91.9095 0.509189C 91.948 0.506634 91.976 0.505 91.9958 0.503916C 92.0053 0.503398 92.0117 0.503069 92.0166 0.502833C 92.0187 0.502726 92.02 0.502665 92.0211 0.502614C 92.0216 0.502594 92.0217 0.502586 92.022 0.502576C 92.022 0.502574 92.022 0.502576 92.022 0.502575C 92.0219 0.502578 92.0218 0.502584 92 0.00305891C 91.9782 -0.496466 91.978 -0.496457 91.9777 -0.496446C 91.9776 -0.49644 91.9773 -0.496427 91.977 -0.496414C 91.9766 -0.496394 91.9758 -0.496356 91.9749 -0.496315C 91.9733 -0.496243 91.9706 -0.496117 91.9676 -0.495965C 91.9618 -0.495684 91.9526 -0.495212 91.9412 -0.494594C 91.9195 -0.493405 91.8857 -0.491427 91.8433 -0.488621C 91.7605 -0.483123 91.6352 -0.473784 91.4784 -0.459427C 91.1688 -0.431016 90.7148 -0.380796 90.1683 -0.297284C 89.0838 -0.131183 87.5789 0.177077 85.9935 0.723737C 82.8294 1.81702 79.1804 3.91585 77.61 7.93531L 78.5414 8.29923ZM 66.5283 36.9174C 66.2612 36.5892 65.993 36.2669 65.7273 35.9545L 64.9656 36.6023C 65.2278 36.9106 65.489 37.2246 65.7528 37.5487L 66.5283 36.9174ZM 65.7273 35.9545C 60.8025 30.1639 55.8733 26.86 51.0874 25.6158C 46.2901 24.3685 41.692 25.2054 37.4744 27.5909C 29.0748 32.3418 22.1668 43.2369 17.9249 56.1695L 18.8751 56.4811C 23.0873 43.639 29.8885 33.0304 37.9667 28.4613C 41.988 26.1869 46.3208 25.4098 50.8358 26.5836C 55.3621 27.7604 60.1265 30.9126 64.9656 36.6023L 65.7273 35.9545ZM 92 0.00305891C 92.0184 -0.496601 92.0182 -0.49661 92.0179 -0.496621C 92.0177 -0.496628 92.0173 -0.49664 92.017 -0.496652C 92.0165 -0.496671 92.0155 -0.496706 92.0144 -0.496742C 92.0125 -0.496804 92.0093 -0.496908 92.0056 -0.497019C 91.9988 -0.497224 91.9878 -0.49753 91.9743 -0.497842C 91.9485 -0.498436 91.9083 -0.499169 91.8579 -0.499603C 91.7595 -0.500434 91.6104 -0.500166 91.4236 -0.495876C 91.055 -0.487319 90.5127 -0.462077 89.8566 -0.397579C 88.5552 -0.269068 86.7373 0.0242766 84.787 0.6615C 80.8755 1.9428 76.3159 4.64378 73.8713 10.3056L 74.7894 10.702C 77.0847 5.38576 81.36 2.83637 85.0983 1.61181C 86.9729 0.996109 88.6836 0.722654 89.9547 0.597598C 90.5849 0.535313 91.0897 0.51208 91.4467 0.503857C 91.6228 0.499757 91.7561 0.49956 91.8494 0.50036C 91.8949 0.500742 91.9278 0.50135 91.9512 0.501891C 91.9624 0.502147 91.9699 0.502358 91.9756 0.502529C 91.9781 0.502605 91.9796 0.502653 91.9809 0.502696C 91.9814 0.502713 91.9816 0.502719 91.9818 0.502728C 91.9819 0.50273 91.9818 0.502728 91.9818 0.502729C 91.9817 0.502724 91.9816 0.502719 92 0.00305891ZM 73.8713 10.3056C 71.4945 15.8113 69.2406 22.2767 67.5856 27.3529C 66.7577 29.8922 66.0775 32.0898 65.6051 33.65C 65.3687 34.4307 65.1839 35.0534 65.0584 35.4801C 64.9956 35.6937 64.9474 35.8588 64.9151 35.9701C 64.8989 36.0259 64.8866 36.0685 64.8784 36.097C 64.8743 36.1113 64.8711 36.1222 64.869 36.1294C 64.868 36.133 64.8672 36.1358 64.8667 36.1377C 64.8664 36.1386 64.8662 36.1393 64.8661 36.1398C 64.866 36.14 64.8659 36.1402 64.8659 36.1403C 64.8659 36.1405 64.8659 36.1405 65.3465 36.2784C 65.8271 36.4162 65.8271 36.4162 65.8271 36.4161C 65.8272 36.416 65.8272 36.4159 65.8273 36.4157C 65.8274 36.4152 65.8276 36.4146 65.8278 36.4137C 65.8283 36.412 65.8291 36.4094 65.8301 36.4059C 65.8321 36.3988 65.8351 36.3883 65.8392 36.3742C 65.8473 36.346 65.8594 36.3042 65.8755 36.2489C 65.9076 36.1382 65.9553 35.9747 66.0178 35.7622C 66.1429 35.3368 66.3266 34.7178 66.5622 33.9398C 67.0337 32.3826 67.7107 30.195 68.5363 27.6629C 70.1882 22.5963 72.4263 16.1743 74.7894 10.702L 73.8713 10.3056ZM 0.125547 61.5823L 18.5255 56.8093L 18.2745 55.8413L -0.125547 60.6144L 0.125547 61.5823Z"/>
<path id="path5_stroke" d="M 0.5 -1C 0.223858 -1 0 -0.776142 0 -0.5C 0 -0.223858 0.223858 0 0.5 0L 0.5 -1ZM 6.5 0C 6.77614 0 7 -0.223858 7 -0.5C 7 -0.776142 6.77614 -1 6.5 -1L 6.5 0ZM 0.5 0L 6.5 0L 6.5 -1L 0.5 -1L 0.5 0Z"/>
<path id="path6_stroke" d="M -1 9.95689C -1 10.5092 -0.552285 10.9569 0 10.9569C 0.552285 10.9569 1 10.5092 1 9.95689L -1 9.95689ZM 0 0L 0.568005 -0.823025C 0.262102 -1.03414 -0.135654 -1.05818 -0.464755 -0.885439C -0.793857 -0.712698 -1 -0.371681 -1 1.82748e-16L 0 0ZM 5.31532 3.66833L 4.74731 4.49135C 5.0546 4.70343 5.45444 4.72665 5.78421 4.55158L 5.31532 3.66833ZM 12.2252 0L 13.2252 0C 13.2252 -0.350922 13.0413 -0.676165 12.7405 -0.857001C 12.4398 -1.03784 12.0663 -1.0478 11.7563 -0.883251L 12.2252 0ZM 11.2252 9.95689C 11.2252 10.5092 11.6729 10.9569 12.2252 10.9569C 12.7775 10.9569 13.2252 10.5092 13.2252 9.95689L 11.2252 9.95689ZM 49.4955 9.95689C 49.4955 10.5092 49.9432 10.9569 50.4955 10.9569C 51.0478 10.9569 51.4955 10.5092 51.4955 9.95689L 49.4955 9.95689ZM 43.5856 -1C 43.0333 -1 42.5856 -0.552285 42.5856 0C 42.5856 0.552285 43.0333 1 43.5856 1L 43.5856 -1ZM 56.8739 1C 57.4262 1 57.8739 0.552285 57.8739 0C 57.8739 -0.552285 57.4262 -1 56.8739 -1L 56.8739 1ZM 87.5979 -0.285869C 87.44 -0.815106 86.883 -1.11615 86.3538 -0.958269C 85.8245 -0.800388 85.5235 -0.243368 85.6814 0.285869L 87.5979 -0.285869ZM 89.2973 8.90879L 88.339 9.19466C 88.4478 9.55943 88.7543 9.83078 89.1296 9.89463C 89.5048 9.95847 89.8838 9.80374 90.1071 9.49549L 89.2973 8.90879ZM 91.955 5.24047L 92.7648 4.65377C 92.5767 4.39416 92.2755 4.24047 91.955 4.24047C 91.6344 4.24047 91.3332 4.39416 91.1451 4.65377L 91.955 5.24047ZM 94.6126 8.90879L 93.8028 9.49549C 94.015 9.78837 94.3688 9.94385 94.728 9.90211C 95.0873 9.86037 95.396 9.62791 95.5354 9.29418L 94.6126 8.90879ZM 99.2561 0.385386C 99.4689 -0.124238 99.2283 -0.709913 98.7187 -0.922756C 98.2091 -1.1356 97.6234 -0.895009 97.4106 -0.385386L 99.2561 0.385386ZM 132.883 -1C 132.331 -1 131.883 -0.552285 131.883 0C 131.883 0.552285 132.331 1 132.883 1L 132.883 -1ZM 136.135 8.90879C 136.135 9.46108 136.583 9.90879 137.135 9.90879C 137.687 9.90879 138.135 9.46108 138.135 8.90879L 136.135 8.90879ZM 141.919 1C 142.471 1 142.919 0.552285 142.919 0C 142.919 -0.552285 142.471 -1 141.919 -1L 141.919 1ZM 172.748 0L 172.748 -1C 172.195 -1 171.748 -0.552285 171.748 2.22045e-16L 172.748 0ZM 179.658 1C 180.21 1 180.658 0.552285 180.658 0C 180.658 -0.552285 180.21 -1 179.658 -1L 179.658 1ZM 175.937 5.19237C 176.489 5.19237 176.937 4.74466 176.937 4.19237C 176.937 3.64009 176.489 3.19237 175.937 3.19237L 175.937 5.19237ZM 171.748 8.90879C 171.748 9.46108 172.195 9.90879 172.748 9.90879C 173.3 9.90879 173.748 9.46108 173.748 8.90879L 171.748 8.90879ZM 1 9.95689L 1 0L -1 0L -1 9.95689L 1 9.95689ZM -0.568005 0.823025L 4.74731 4.49135L 5.88332 2.8453L 0.568005 -0.823025L -0.568005 0.823025ZM 5.78421 4.55158L 12.6941 0.883251L 11.7563 -0.883251L 4.84642 2.78508L 5.78421 4.55158ZM 11.2252 0L 11.2252 9.95689L 13.2252 9.95689L 13.2252 0L 11.2252 0ZM 49.4955 0L 49.4955 9.95689L 51.4955 9.95689L 51.4955 0L 49.4955 0ZM 50.4955 -1L 43.5856 -1L 43.5856 1L 50.4955 1L 50.4955 -1ZM 50.4955 1L 56.8739 1L 56.8739 -1L 50.4955 -1L 50.4955 1ZM 85.6814 0.285869L 88.339 9.19466L 90.2556 8.62293L 87.5979 -0.285869L 85.6814 0.285869ZM 90.1071 9.49549L 92.7648 5.82716L 91.1451 4.65377L 88.4875 8.3221L 90.1071 9.49549ZM 91.1451 5.82716L 93.8028 9.49549L 95.4224 8.3221L 92.7648 4.65377L 91.1451 5.82716ZM 95.5354 9.29418L 99.2561 0.385386L 97.4106 -0.385386L 93.6899 8.52341L 95.5354 9.29418ZM 132.883 1L 137.135 1L 137.135 -1L 132.883 -1L 132.883 1ZM 136.135 0L 136.135 8.90879L 138.135 8.90879L 138.135 0L 136.135 0ZM 137.135 1L 141.919 1L 141.919 -1L 137.135 -1L 137.135 1ZM 172.748 1L 179.658 1L 179.658 -1L 172.748 -1L 172.748 1ZM 171.748 0L 171.748 4.19237L 173.748 4.19237L 173.748 0L 171.748 0ZM 172.748 5.19237L 175.937 5.19237L 175.937 3.19237L 172.748 3.19237L 172.748 5.19237ZM 171.748 4.19237L 171.748 8.90879L 173.748 8.90879L 173.748 4.19237L 171.748 4.19237Z"/>
<path id="path7_stroke" d="M 5.93244 2.53129C 6.05734 2.77757 6.35824 2.87597 6.60452 2.75107C 6.8508 2.62617 6.9492 2.32527 6.8243 2.07898L 5.93244 2.53129ZM 2.12611 0.208948L 2.30955 0.674084L 2.12611 0.208948ZM 0.45855 8.91843C 0.348465 8.66518 0.0539226 8.54912 -0.199328 8.6592C -0.452578 8.76929 -0.568636 9.06383 -0.45855 9.31708L 0.45855 8.91843ZM 45.3417 3.23074C 45.5635 3.39528 45.8766 3.34889 46.0412 3.12712C 46.2057 2.90535 46.1593 2.59219 45.9376 2.42765L 45.3417 3.23074ZM 41.982 1.25705L 42.2031 1.70552L 41.982 1.25705ZM 39.2199 9.9059C 39.0764 9.67001 38.7687 9.59515 38.5329 9.73871C 38.297 9.88227 38.2221 10.1899 38.3657 10.4258L 39.2199 9.9059ZM 6.8243 2.07898C 6.53935 1.52053 5.92946 0.688781 5.1317 0.136342C 4.2982 -0.431421 3.19461 -0.749908 1.94268 -0.256189L 2.30955 0.674084C 3.18375 0.329328 3.94051 0.534888 4.56873 0.962815C 5.23268 1.40606 5.68586 2.04165 5.93244 2.53129L 6.8243 2.07898ZM 1.94268 -0.256189C 1.14305 0.0591582 0.637112 0.628221 0.406677 1.30979C 0.181374 1.97619 0.230354 2.71344 0.456512 3.38236C 0.901065 4.69723 2.11405 5.94942 3.72072 5.94942L 3.72072 4.94942C 2.66973 4.94942 1.75658 4.10541 1.40383 3.06207C 1.23134 2.55189 1.21388 2.04453 1.354 1.63008C 1.48899 1.2308 1.78035 0.882784 2.30955 0.674084L 1.94268 -0.256189ZM 3.72072 5.94942C 4.78447 5.94942 5.57143 6.67911 5.98779 7.61739C 6.20146 8.092 6.29586 8.5426 6.2854 8.97827C 6.27823 9.40204 6.16283 9.6762 6.02733 9.80979L 6.72941 10.5219C 7.12545 10.1314 7.27581 9.554 7.28525 8.99518C 7.2914 8.44826 7.15326 7.78527 6.90184 7.21178C 6.38802 6.05387 5.31463 4.94942 3.72072 4.94942L 3.72072 5.94942ZM 6.02733 9.80979C 5.57733 10.2535 4.49503 10.8524 3.3626 10.9111C 2.78812 10.9442 2.28411 10.8601 1.77618 10.5472C 1.29013 10.257 0.822412 9.75548 0.45855 8.91843L -0.45855 9.31708C -0.0251151 10.3142 0.570234 10.9918 1.26351 11.4058C 1.93491 11.7971 2.72651 11.9423 3.41442 11.9098C 4.80677 11.8375 6.11635 11.1263 6.72941 10.5219L 6.02733 9.80979ZM 45.9376 2.42765C 45.6685 2.22932 45.4223 1.99044 45.1564 1.73596C 44.8905 1.48145 44.601 1.20842 44.2941 0.991697C 43.9823 0.775228 43.5761 0.585965 43.1653 0.529742C 42.7222 0.476341 42.2573 0.563879 41.7609 0.808583L 42.2031 1.70552C 42.5571 1.53099 42.8275 1.49626 43.0457 1.52256C 43.2963 1.54604 43.4775 1.63845 43.7203 1.81064C 43.968 1.98258 44.2005 2.20522 44.465 2.45838C 44.7295 2.71156 45.0222 2.99236 45.3417 3.23074L 45.9376 2.42765ZM 41.7609 0.808583C 40.5389 1.41098 39.7669 2.61706 39.6891 3.84565C 39.6089 5.10949 40.2672 6.35874 41.7985 6.96266L 42.1654 6.03238C 41.0391 5.58821 40.6343 4.74126 40.6871 3.90892C 40.7421 3.04131 41.299 2.1512 42.2031 1.70552L 41.7609 0.808583ZM 41.7985 6.96266C 43.0527 7.45727 43.5734 8.0322 43.7719 8.57021C 43.9772 9.12677 43.8893 9.77585 43.6344 10.5298L 44.5818 10.85C 44.8584 10.0318 45.0364 9.10874 44.7101 8.22417C 44.377 7.32105 43.5689 6.58587 42.1654 6.03238L 41.7985 6.96266ZM 43.6344 10.5298C 43.4619 11.0402 42.7858 11.5 41.8491 11.5C 40.9562 11.5 39.9242 11.0632 39.2199 9.9059L 38.3657 10.4258C 39.2559 11.8887 40.6159 12.5 41.8491 12.5C 43.0385 12.5 44.2228 11.9117 44.5818 10.85L 43.6344 10.5298Z"/>
<path id="path8_stroke" d="M 0 8.30506L -0.5 8.30506C -0.5 8.3258 -0.49871 8.34651 -0.496139 8.36708L 0 8.30506ZM 15 11.8051L 15.1316 12.2874L 15 11.8051ZM 26.5 3.80506L 27 3.80506C 27 3.77752 26.9977 3.75003 26.9932 3.72286L 26.5 3.80506ZM 11.5 0.805065L 11.397 0.31579L 11.5 0.805065ZM 22.5 18.3051L 22.1263 17.9729C 22.0971 18.0057 22.0724 18.0422 22.0528 18.0815L 22.5 18.3051ZM -0.487314 8.41698C -0.277706 9.32966 0.390671 10.1406 1.30899 10.8044C 2.21538 11.4565 3.46175 12.026 4.8732 12.4133C 7.67594 13.1756 11.3865 13.303 15.1316 12.2874L 14.8684 11.3227C 11.2711 12.3096 7.8262 12.187 5.13677 11.4487C 3.80215 11.0857 2.71826 10.5922 1.8948 9.99393C 1.08327 9.40734 0.622199 8.78047 0.487314 8.19315L -0.487314 8.41698ZM 15.1316 12.2874C 20.645 10.7838 23.4544 9.38373 24.9648 7.98434C 26.5106 6.55218 26.6634 5.13265 26.9831 3.9339L 26.0169 3.67623C 25.6699 4.97748 25.5727 6.05795 24.2852 7.25078C 22.9623 8.47639 20.355 9.82635 14.8684 11.3227L 15.1316 12.2874ZM 26.9932 3.72286C 26.6956 1.93713 25.0827 0.591609 22.4963 -0.0550094C 19.8961 -0.705059 16.1884 -0.692924 11.397 0.31579L 11.603 1.29434C 16.3116 0.303046 19.8539 0.315181 22.2537 0.915133C 24.6673 1.51852 25.8044 2.673 26.0068 3.88726L 26.9932 3.72286ZM 11.397 0.31579C 6.86011 1.27093 3.90445 2.54151 2.07206 3.92977C 0.227082 5.32756 -0.5 6.86496 -0.5 8.30506L 0.5 8.30506C 0.5 7.24517 1.02159 5.98022 2.67594 4.72684C 4.34289 3.46392 7.13724 2.2345 11.603 1.29434L 11.397 0.31579ZM -0.496139 8.36708C -0.240652 10.4013 0.669042 13.7603 2.52002 16.5802C 4.3912 19.4192 7.27851 21.8051 11.5 21.8051L 11.5 20.8051C 7.72149 20.8051 5.1088 18.6909 3.35498 16.0299C 1.58096 13.3499 0.740652 10.2088 0.496139 8.24305L -0.496139 8.36708ZM 11.5 21.8051C 15.5468 21.8051 18.2777 21.2151 20.0568 20.5208C 20.9455 20.1725 21.6178 19.7857 22.0632 19.4568C 22.5124 19.1241 22.8131 18.7969 22.9472 18.5287L 22.0528 18.0815C 22.0203 18.1465 21.8626 18.361 21.468 18.6533C 21.0697 18.9494 20.5128 19.2709 19.6932 19.5893C 18.0556 20.2283 15.4532 20.8051 11.5 20.8051L 11.5 21.8051ZM 22.8737 18.6372C 23.5519 17.8738 24.583 16.5319 25.4344 15.0401C 26.2786 13.5586 27 11.8395 27 10.3051L 26 10.3051C 26 11.5707 25.3881 13.1015 24.5656 14.545C 23.7503 15.9782 22.7814 17.2363 22.1263 17.9729L 22.8737 18.6372ZM 27 10.3051C 27 9.26381 27 8.23638 27 7.30506L 26 7.30506C 26 8.23638 26 9.26381 26 10.3051L 27 10.3051ZM 27 7.30506C 27 5.73202 27 4.43319 27 3.80506L 26 3.80506C 26 4.43319 26 5.73202 26 7.30506L 27 7.30506ZM 26.9569 7.50813C 27.2697 6.80434 27.8621 5.94069 28.5951 5.52835C 28.9682 5.31339 29.2904 5.22656 29.717 5.30907C 30.1177 5.3765 30.5988 5.61096 31.1464 6.15862L 31.8536 5.45151C 31.2012 4.79917 30.5407 4.43363 29.883 4.32294C 29.2513 4.22732 28.5985 4.38424 28.1049 4.65678C 27.1046 5.21944 26.397 6.30579 26.0431 7.102L 26.9569 7.50813ZM 31.1464 6.15862C 31.8241 6.83629 32.0678 7.47108 32.0862 8.02485C 32.1171 8.62395 31.9062 9.12564 31.5322 9.63732C 31.1633 10.154 30.6907 10.5566 30.1853 10.8623C 29.6793 11.1704 29.2418 11.3051 29 11.3051L 29 12.3051C 29.5082 12.3051 30.1332 12.0647 30.7053 11.7165C 31.278 11.366 31.8992 10.8311 32.3428 10.2228C 32.7813 9.60949 33.1017 8.79869 33.0857 7.99153C 33.0572 7.13905 32.6759 6.27384 31.8536 5.45151L 31.1464 6.15862ZM 29 11.3051C 28.5073 11.3167 28.1105 11.1233 27.7175 10.837C 27.3291 10.5611 27.0644 10.2521 26.916 10.0277L 26.084 10.5824C 26.2689 10.8581 26.6542 11.299 27.1325 11.6481C 27.6062 11.9868 28.2927 12.2934 29 12.3051L 29 11.3051Z"/>
<path id="path9_stroke" d="M 4.40813 53.3105C 4.57963 53.527 4.89412 53.5634 5.11054 53.3919C 5.32697 53.2204 5.36338 52.9059 5.19187 52.6895L 4.40813 53.3105ZM 5.3 7.57143C 5.3 7.29529 5.07614 7.07143 4.8 7.07143C 4.52386 7.07143 4.3 7.29529 4.3 7.57143L 5.3 7.57143ZM 11.6206 53.3257C 11.8005 53.5352 12.1162 53.5592 12.3257 53.3794C 12.5352 53.1995 12.5592 52.8838 12.3794 52.6743L 11.6206 53.3257ZM 7.2 38.6143L 6.70058 38.5903L 7.2 38.6143ZM 11.3 12.1143C 11.3 11.8381 11.0761 11.6143 10.8 11.6143C 10.5239 11.6143 10.3 11.8381 10.3 12.1143L 11.3 12.1143ZM 17.8496 49.6911C 18.1129 49.7742 18.3938 49.6281 18.4768 49.3647C 18.5599 49.1014 18.4138 48.8205 18.1504 48.7374L 17.8496 49.6911ZM 12 34.8286L 12.4976 34.8779L 12 34.8286ZM 16.1 0C 16.1 -0.276142 15.8761 -0.5 15.6 -0.5C 15.3239 -0.5 15.1 -0.276142 15.1 0L 16.1 0ZM 5.19187 52.6895C 3.65514 50.7503 0.5 44.8511 0.5 37.1L -0.5 37.1C -0.5 45.0974 2.74486 51.2117 4.40813 53.3105L 5.19187 52.6895ZM 0.5 37.1C 0.485308 32.2989 1.65974 30.1037 2.87429 26.469C 4.0934 22.8153 5.3 17.8397 5.3 7.57143L 4.3 7.57143C 4.3 17.746 3.1066 22.6133 1.92571 26.1525C 0.74026 29.7106 -0.485308 32.0583 -0.5 37.1L 0.5 37.1ZM 12.3794 52.6743C 10.7011 50.7194 7.38735 45.1361 7.69942 38.6383L 6.70058 38.5903C 6.37265 45.4182 9.83221 51.2425 11.6206 53.3257L 12.3794 52.6743ZM 7.69942 38.6383C 8.08525 30.4063 11.288 23.5803 11.3 12.1143L 10.3 12.1143C 10.312 23.3625 7.11475 30.1652 6.70058 38.5903L 7.69942 38.6383ZM 18.1504 48.7374C 16.0236 48.0665 11.5556 44.3874 12.4976 34.8779L 11.5024 34.7793C 10.5244 44.6526 15.1764 48.8478 17.8496 49.6911L 18.1504 48.7374ZM 12.4976 34.8779C 13.6941 22.7907 16.0973 11.4091 16.1 0L 15.1 0C 15.1027 11.3052 12.7059 22.6378 11.5024 34.7793L 12.4976 34.8779Z"/>
<path id="path10_stroke" d="M 4.99923 -0.027735C 4.98391 -0.303452 4.74798 -0.514548 4.47226 -0.49923C 4.19655 -0.483913 3.98545 -0.247982 4.00077 0.027735L 4.99923 -0.027735ZM -0.416025 16.2227C -0.569201 16.4524 -0.507114 16.7628 -0.27735 16.916C -0.0475858 17.0692 0.262849 17.0071 0.416025 16.7773L -0.416025 16.2227ZM 4.00077 0.027735C 4.16372 2.96083 3.50456 10.3418 -0.416025 16.2227L 0.416025 16.7773C 4.49544 10.6582 5.16961 3.03917 4.99923 -0.027735L 4.00077 0.027735Z"/>
<path id="path11_stroke" d="M 0.784724 8.23558L 1.2054 7.96534L 0.784724 8.23558ZM 40.9961 8.23558L 40.4968 8.26182L 40.9961 8.23558ZM 9.58134 0.650905C 9.8538 0.605982 10.0383 0.348689 9.99334 0.076225C 9.94842 -0.196239 9.69112 -0.380697 9.41866 -0.335774L 9.58134 0.650905ZM 32.0667 -0.495526C 31.7931 -0.532386 31.5413 -0.340412 31.5045 -0.0667408C 31.4676 0.20693 31.6596 0.458666 31.9333 0.495526L 32.0667 -0.495526ZM 0.364046 8.50582C 0.984998 9.47244 2.12963 10.2903 3.56908 10.9809C 5.00799 11.6702 6.83163 12.272 8.85571 12.7614C 12.8945 13.7363 17.8793 14.3099 22.6835 14.4054C 27.4893 14.4998 32.1902 14.1146 35.6426 13.1833C 37.3751 12.7149 38.8455 12.0968 39.8788 11.2978C 40.9227 10.4907 41.5612 9.46186 41.4954 8.20934L 40.4968 8.26182C 40.5402 9.08829 40.1406 9.83132 39.2672 10.5067C 38.3832 11.1901 37.0569 11.765 35.3816 12.218C 32.0183 13.1295 27.4585 13.5003 22.7032 13.4056C 17.9463 13.3122 13.0694 12.7517 9.09058 11.7894C 7.10581 11.3103 5.38159 10.7426 4.00168 10.0793C 2.6223 9.4175 1.67715 8.6997 1.2054 7.96534L 0.364046 8.50582ZM 9.41866 -0.335774C 6.88572 0.0818511 3.842 0.905283 1.81121 2.27821C 0.792703 2.96677 -0.0255995 3.83029 -0.350644 4.90313C -0.681989 5.99675 -0.470953 7.20599 0.364046 8.50582L 1.2054 7.96534C 0.485839 6.84521 0.380605 5.93832 0.606394 5.19309C 0.838483 4.42706 1.45072 3.729 2.37128 3.10665C 4.2186 1.85777 7.08708 1.06215 9.58134 0.650905L 9.41866 -0.335774ZM 41.4954 8.20934C 41.3321 5.10299 39.7196 3.01404 37.7817 1.66689C 35.869 0.345873 33.5846 -0.289944 32.0667 -0.495526L 31.9333 0.495526C 33.3845 0.689843 35.4447 1.25139 37.2109 2.48797C 38.9521 3.69842 40.353 5.52731 40.4968 8.26182L 41.4954 8.20934Z"/>
<path id="path12_stroke" d="M 0.150761 -0.47673C -0.11253 -0.559993 -0.393467 -0.414051 -0.47673 -0.150761C -0.559993 0.11253 -0.414051 0.393467 -0.150761 0.47673L 0.150761 -0.47673ZM 58.5 18.5L 58.9277 18.7589C 59.0072 18.6277 59.022 18.4673 58.9679 18.3238C 58.9139 18.1803 58.797 18.0695 58.6508 18.0233L 58.5 18.5ZM 23.5723 75.2411C 23.4293 75.4773 23.5049 75.7848 23.7411 75.9277C 23.9773 76.0707 24.2848 75.9951 24.4277 75.7589L 23.5723 75.2411ZM 41 0L 41.16 -0.47371C 41 -0.527763 40.8234 -0.497356 40.6907 -0.392869L 41 0ZM 116.5 25.5L 116.94 25.7377C 117.01 25.608 117.019 25.454 116.965 25.3169C 116.911 25.1798 116.8 25.0734 116.66 25.0263L 116.5 25.5ZM 93 69L 92.9165 69.493C 93.1276 69.5288 93.3381 69.4261 93.4399 69.2377L 93 69ZM 33.9868 59L 33.5591 58.7411L 33.9868 59ZM 84 14.5232L 83.84 14.9969L 84 14.5232ZM 93 9.25L 93.0538 8.7529C 92.9472 8.74137 92.8397 8.7644 92.7472 8.81859L 93 9.25ZM 178.5 18.5L 178.996 18.5638C 179.013 18.4306 178.976 18.296 178.893 18.1905C 178.81 18.085 178.687 18.0174 178.554 18.0029L 178.5 18.5ZM 172 69L 171.933 69.4954C 172.065 69.5134 172.198 69.4779 172.304 69.3969C 172.41 69.3158 172.479 69.196 172.496 69.0638L 172 69ZM 98.4023 59L 97.9624 58.7623L 98.4023 59ZM 130.5 0L 130.544 -0.498053C 130.404 -0.510421 130.266 -0.463526 130.162 -0.368811C 130.059 -0.274096 130 -0.140274 130 0L 130.5 0ZM 235 9.25L 235.498 9.28918C 235.52 9.0158 235.317 8.77613 235.044 8.75195L 235 9.25ZM 230.5 66.5L 230.435 66.9958C 230.571 67.0136 230.708 66.9748 230.815 66.8885C 230.921 66.8021 230.988 66.6759 230.998 66.5392L 230.5 66.5ZM 173.287 59L 172.791 58.9362L 173.287 59ZM 194 0L 194 -0.5C 193.724 -0.5 193.5 -0.276142 193.5 1.11022e-16L 194 0ZM 286 0L 286.5 0C 286.5 -0.276142 286.276 -0.5 286 -0.5L 286 0ZM 286 9.25L 286 9.75C 286.01 9.75 286.019 9.74972 286.029 9.74916L 286 9.25ZM 255 9.25L 255 8.75C 254.735 8.75 254.516 8.95723 254.501 9.22214L 255 9.25ZM 252 63L 251.501 62.9721C 251.493 63.1094 251.542 63.2437 251.637 63.3436C 251.731 63.4434 251.863 63.5 252 63.5L 252 63ZM 348.5 5.62081L 348.998 5.5731C 348.972 5.30549 348.739 5.10607 348.471 5.12165L 348.5 5.62081ZM 297.5 25.5L 297.434 25.0044C 297.185 25.0377 297 25.2495 297 25.5L 297.5 25.5ZM 401.5 14.5232L 402 14.5232C 402 14.3839 401.942 14.251 401.84 14.1563C 401.738 14.0617 401.601 14.014 401.462 14.0246L 401.5 14.5232ZM 401.5 38.5L 401.547 38.9978C 401.804 38.9735 402 38.7579 402 38.5L 401.5 38.5ZM 297.5 89L 297 89C 297 89.2761 297.224 89.5 297.5 89.5L 297.5 89ZM 327.5 89L 327.5 89.5C 327.776 89.5 328 89.2761 328 89L 327.5 89ZM 327.5 45.5L 327.453 45.0022C 327.196 45.0265 327 45.2421 327 45.5L 327.5 45.5ZM -0.150761 0.47673L 29.0992 9.72673L 29.4008 8.77327L 0.150761 -0.47673L -0.150761 0.47673ZM 29.0992 9.72673L 58.3492 18.9767L 58.6508 18.0233L 29.4008 8.77327L 29.0992 9.72673ZM 29.5593 9.64287L 41.3093 0.392869L 40.6907 -0.392869L 28.9407 8.85713L 29.5593 9.64287ZM 58.0723 18.2411L 33.5591 58.7411L 34.4146 59.2589L 58.9277 18.7589L 58.0723 18.2411ZM 33.5591 58.7411L 23.5723 75.2411L 24.4277 75.7589L 34.4146 59.2589L 33.5591 58.7411ZM 93.0835 68.507L 34.0704 58.507L 33.9033 59.493L 92.9165 69.493L 93.0835 68.507ZM 40.84 0.47371L 83.84 14.9969L 84.16 14.0495L 41.16 -0.47371L 40.84 0.47371ZM 83.84 14.9969L 116.34 25.9737L 116.66 25.0263L 84.16 14.0495L 83.84 14.9969ZM 84.2528 14.9546L 93.2528 9.68141L 92.7472 8.81859L 83.7472 14.0918L 84.2528 14.9546ZM 116.06 25.2623L 97.9624 58.7623L 98.8422 59.2377L 116.94 25.7377L 116.06 25.2623ZM 97.9624 58.7623L 92.5601 68.7623L 93.4399 69.2377L 98.8422 59.2377L 97.9624 58.7623ZM 172.067 68.5046L 98.4696 58.5046L 98.335 59.4954L 171.933 69.4954L 172.067 68.5046ZM 92.9462 9.7471L 130.446 13.8041L 130.554 12.8099L 93.0538 8.7529L 92.9462 9.7471ZM 130.446 13.8041L 178.446 18.9971L 178.554 18.0029L 130.554 12.8099L 130.446 13.8041ZM 131 13.307L 131 0L 130 0L 130 13.307L 131 13.307ZM 234.502 9.21082L 230.002 66.4608L 230.998 66.5392L 235.498 9.28918L 234.502 9.21082ZM 178.004 18.4362L 172.791 58.9362L 173.783 59.0638L 178.996 18.5638L 178.004 18.4362ZM 172.791 58.9362L 171.504 68.9362L 172.496 69.0638L 173.783 59.0638L 172.791 58.9362ZM 230.565 66.0042L 173.352 58.5042L 173.222 59.4958L 230.435 66.9958L 230.565 66.0042ZM 130.456 0.498053L 193.956 6.11887L 194.044 5.12276L 130.544 -0.498053L 130.456 0.498053ZM 193.956 6.11887L 234.956 9.74805L 235.044 8.75195L 194.044 5.12276L 193.956 6.11887ZM 194.5 5.62081L 194.5 0L 193.5 0L 193.5 5.62081L 194.5 5.62081ZM 194 0.5L 286 0.5L 286 -0.5L 194 -0.5L 194 0.5ZM 285.5 0L 285.5 9.25L 286.5 9.25L 286.5 0L 285.5 0ZM 286 8.75L 255 8.75L 255 9.75L 286 9.75L 286 8.75ZM 254.501 9.22214L 251.501 62.9721L 252.499 63.0279L 255.499 9.27786L 254.501 9.22214ZM 348.471 5.12165L 285.971 8.75084L 286.029 9.74916L 348.529 6.11997L 348.471 5.12165ZM 252 63.5L 297.5 63.5L 297.5 62.5L 252 62.5L 252 63.5ZM 298 63L 298 25.5L 297 25.5L 297 63L 298 63ZM 350.232 18.4523L 348.998 5.5731L 348.002 5.66852L 349.237 18.5477L 350.232 18.4523ZM 297.566 25.9956L 349.801 18.9956L 349.668 18.0044L 297.434 25.0044L 297.566 25.9956ZM 349.773 18.9985L 401.538 15.0217L 401.462 14.0246L 349.696 18.0015L 349.773 18.9985ZM 401 14.5232L 401 38.5L 402 38.5L 402 14.5232L 401 14.5232ZM 297 63L 297 89L 298 89L 298 63L 297 63ZM 297.5 89.5L 327.5 89.5L 327.5 88.5L 297.5 88.5L 297.5 89.5ZM 328 89L 328 45.5L 327 45.5L 327 89L 328 89ZM 327.547 45.9978L 401.547 38.9978L 401.453 38.0022L 327.453 45.0022L 327.547 45.9978Z"/>
<path id="path13_stroke" d="M -0.122375 15.0152C -0.390119 15.0828 -0.552379 15.3546 -0.484793 15.6224C -0.417207 15.8901 -0.145369 16.0524 0.122375 15.9848L -0.122375 15.0152ZM 17.2622 32.745C 17.1214 32.9825 17.1998 33.2893 17.4373 33.4301C 17.6749 33.5709 17.9816 33.4925 18.1224 33.255L 17.2622 32.745ZM 12.8948 6.55263L 12.502 6.24323L 12.8948 6.55263ZM 18.094 0.297747C 18.2585 0.075905 18.2119 -0.237239 17.9901 -0.40168C 17.7682 -0.566121 17.4551 -0.519589 17.2907 -0.297747L 18.094 0.297747ZM 31.9301 9.96552C 32.0709 9.72798 31.9925 9.42126 31.755 9.28043C 31.5175 9.13961 31.2107 9.218 31.0699 9.45554L 31.9301 9.96552ZM 0 15.5C 0.122375 15.9848 0.122576 15.9847 0.122806 15.9847C 0.122919 15.9847 0.123177 15.9846 0.123404 15.9845C 0.123742 15.9844 0.124425 15.9843 0.125101 15.9841C 0.126221 15.9838 0.128251 15.9833 0.130484 15.9827C 0.134484 15.9817 0.14118 15.9799 0.149118 15.9778C 0.164056 15.9739 0.187792 15.9675 0.217145 15.9593C 0.273947 15.9436 0.361152 15.9185 0.470475 15.8852C 0.685213 15.8196 1.00545 15.7155 1.40026 15.5704C 2.18166 15.283 3.30052 14.817 4.58407 14.1318C 7.13326 12.7687 10.4388 10.4694 13.2875 6.86204L 12.502 6.24323C 9.75349 9.74116 6.6117 11.9155 4.1128 13.2498C 2.87231 13.9133 1.81695 14.3519 1.05515 14.6319C 0.678349 14.7705 0.384737 14.8658 0.178524 14.9288C 0.0773725 14.9596 0.00232792 14.9811 -0.0505012 14.9958C -0.0759639 15.0029 -0.0938887 15.0077 -0.106908 15.0112C -0.112949 15.0128 -0.116805 15.0138 -0.119862 15.0146C -0.121158 15.0149 -0.121784 15.0151 -0.122437 15.0152C -0.122647 15.0153 -0.122843 15.0153 -0.122737 15.0153C -0.122732 15.0153 -0.122641 15.0153 -0.122639 15.0153C -0.122521 15.0152 -0.122375 15.0152 0 15.5ZM 13.2875 6.86204C 14.2619 5.6249 17.2572 1.42664 18.094 0.297747L 17.2907 -0.297747C 16.4484 0.838485 13.4619 5.02494 12.502 6.24323L 13.2875 6.86204ZM 31.0699 9.45554L 17.2622 32.745L 18.1224 33.255L 31.9301 9.96552L 31.0699 9.45554Z"/>
<path id="path14_stroke" d="M 0.163558 23.5264L -0.310605 23.3678C -0.320839 23.3984 -0.32809 23.4299 -0.332256 23.4618L 0.163558 23.5264ZM 7.46077 40.569L 7.83679 40.2395C 7.78151 40.1764 7.71125 40.1282 7.63248 40.0994L 7.46077 40.569ZM 36.951 16.1652L 36.4769 16.0066L 36.951 16.1652ZM 33.3935 14.9749L 33.8179 15.2396L 33.8246 15.2282L 33.3935 14.9749ZM 34.5662 6.83199L 34.3258 7.27037L 34.5662 6.83199ZM 30.5927 1.71635L 30.3783 2.16805L 30.5927 1.71635ZM 21.8944 0.582505L 22.1571 1.00793L 21.8944 0.582505ZM 8.43235 20.3315L 8.02093 20.6157C 8.11667 20.7543 8.2758 20.8354 8.44424 20.8314C 8.61267 20.8274 8.76777 20.7388 8.85681 20.5958L 8.43235 20.3315ZM 7.01165 18.2744L 6.55078 18.0805C 6.48458 18.2379 6.50322 18.4181 6.60023 18.5586L 7.01165 18.2744ZM 18.2795 16.1433C 18.1431 16.3834 18.2271 16.6886 18.4672 16.825C 18.7073 16.9614 19.0125 16.8774 19.1489 16.6373L 18.2795 16.1433ZM 27.4683 23.5318C 27.3222 23.7661 27.3937 24.0745 27.628 24.2207C 27.8623 24.3668 28.1707 24.2953 28.3168 24.061L 27.4683 23.5318ZM 5.13563 8.66626L 4.9586 8.19865C 4.81819 8.2518 4.7091 8.36524 4.66146 8.50761L 5.13563 8.66626ZM 22.8669 19.7744C 22.7246 20.011 22.801 20.3182 23.0377 20.4606C 23.2743 20.6029 23.5815 20.5265 23.7239 20.2898L 22.8669 19.7744ZM -0.332256 23.4618C -1.01076 28.672 0.481432 34.0123 2.14507 36.5672L 2.98307 36.0216C 1.45837 33.68 0.00939991 28.582 0.659371 23.591L -0.332256 23.4618ZM 2.14507 36.5672C 3.78874 39.0915 5.57816 40.413 7.28905 41.0386L 7.63248 40.0994C 6.15504 39.5592 4.52773 38.3938 2.98307 36.0216L 2.14507 36.5672ZM 7.46077 40.569C 7.08474 40.8986 7.08492 40.8988 7.0851 40.899C 7.08518 40.8991 7.08538 40.8993 7.08553 40.8995C 7.08572 40.8997 7.08618 40.9002 7.08658 40.9007C 7.08713 40.9013 7.08831 40.9026 7.08944 40.9039C 7.09123 40.9059 7.09462 40.9097 7.09823 40.9137C 7.10453 40.9206 7.11545 40.9325 7.1281 40.946C 7.15153 40.971 7.18991 41.011 7.23695 41.0577C 7.32703 41.1471 7.46999 41.2816 7.65078 41.4342C 8.00328 41.731 8.55455 42.1389 9.26102 42.5215C 10.6506 43.2692 12.8045 43.981 15.5625 43.7644L 15.4805 42.7678C 12.9246 42.9883 11.0482 42.3516 9.73586 41.6415C 9.09137 41.2952 8.6238 40.9468 8.29521 40.6696C 8.13545 40.5352 8.02229 40.4283 7.9414 40.348C 7.90295 40.3099 7.87712 40.2829 7.85772 40.2622C 7.84896 40.2528 7.8438 40.2472 7.83939 40.2423C 7.83763 40.2404 7.837 40.2397 7.83612 40.2387C 7.8359 40.2384 7.83585 40.2384 7.83596 40.2385C 7.83591 40.2385 7.83628 40.2389 7.83625 40.2388C 7.83632 40.2389 7.83646 40.2391 7.83649 40.2391C 7.83664 40.2393 7.83679 40.2395 7.46077 40.569ZM 15.5625 43.7644C 21.1033 43.3085 24.9993 39.7278 28.2219 34.7786L 27.3839 34.2329C 24.2299 39.0768 20.5675 42.3492 15.4805 42.7678L 15.5625 43.7644ZM 28.2219 34.7786C 32.226 28.6268 36.1674 20.0809 37.4252 16.3239L 36.4769 16.0066C 35.2378 19.7124 31.3507 28.1433 27.3839 34.2329L 28.2219 34.7786ZM 37.4252 16.3239C 37.6713 15.5884 37.6494 14.9185 37.3901 14.374C 37.1312 13.8301 36.6614 13.4678 36.1239 13.305C 35.0511 12.98 33.7172 13.4368 32.9624 14.7216L 33.8246 15.2282C 34.3641 14.3099 35.2374 14.0813 35.834 14.262C 36.1312 14.352 36.3618 14.5404 36.4873 14.8039C 36.6125 15.0669 36.6593 15.4615 36.4769 16.0066L 37.4252 16.3239ZM 33.3935 14.9749C 33.8368 15.2062 33.8368 15.2061 33.8369 15.206C 33.837 15.2059 33.837 15.2057 33.8371 15.2056C 33.8372 15.2053 33.8375 15.2048 33.8378 15.2043C 33.8382 15.2034 33.8391 15.2018 33.84 15.2C 33.8418 15.1965 33.8447 15.1909 33.8483 15.184C 33.8552 15.1706 33.8657 15.15 33.8789 15.1239C 33.9049 15.0726 33.9436 14.9956 33.991 14.8988C 34.0848 14.7072 34.2183 14.4276 34.3691 14.0918C 34.6688 13.4242 35.0503 12.5024 35.3533 11.5461C 35.6552 10.5902 35.8909 9.53746 35.8918 8.65634C 35.8895 7.76797 35.6464 6.85417 34.8067 6.3936L 34.3258 7.27037C 34.6817 7.46559 34.8898 7.89755 34.8918 8.65894C 34.897 9.42758 34.69 10.3286 34.3999 11.2445C 34.1108 12.1599 33.7507 13.028 33.4569 13.6822C 33.3109 14.0073 33.1846 14.2717 33.093 14.4588C 33.0476 14.5514 33.012 14.6224 32.9869 14.6718C 32.9746 14.6961 32.9655 14.714 32.959 14.7265C 32.9559 14.7326 32.9537 14.7369 32.9521 14.7399C 32.9514 14.7414 32.9509 14.7423 32.9505 14.743C 32.9504 14.7433 32.9503 14.7435 32.9502 14.7436C 32.9502 14.7437 32.9502 14.7437 32.9502 14.7437C 32.9502 14.7437 32.9502 14.7436 33.3935 14.9749ZM 34.8067 6.3936C 33.3741 5.60784 32.1326 6.01775 31.2974 6.59413C 30.8943 6.87504 30.5583 7.21359 30.3489 7.45738C 30.2409 7.58369 30.1523 7.69939 30.0973 7.77517C 30.0683 7.81514 30.0441 7.8501 30.0296 7.87162C 30.0216 7.88338 30.0146 7.89396 30.0106 7.90002C 30.0083 7.90354 30.0061 7.90695 30.005 7.90873C 30.0042 7.90986 30.0034 7.91108 30.0031 7.91165C 30.0028 7.91205 30.0025 7.91254 30.0024 7.91274C 30.0023 7.9129 30.0022 7.91311 30.0021 7.91319C 30.002 7.91339 30.0019 7.91358 30.4239 8.18163C 30.846 8.44967 30.8459 8.44984 30.8458 8.45C 30.8458 8.45004 30.8457 8.45019 30.8456 8.45027C 30.8457 8.45023 30.8454 8.45071 30.8454 8.45063C 30.8454 8.45071 30.8453 8.45079 30.8454 8.45064C 30.8459 8.44985 30.8462 8.44943 30.8472 8.4479C 30.8498 8.44388 30.8527 8.43954 30.8578 8.43195C 30.8694 8.41478 30.8842 8.39333 30.9067 8.36247C 30.9544 8.29658 31.0182 8.21287 31.1081 8.10825C 31.2947 7.89016 31.5375 7.64073 31.8654 7.41718C 32.4922 6.98464 33.3218 6.71972 34.3258 7.27037L 34.8067 6.3936ZM 30.4239 8.18163C 30.8853 8.37435 30.8853 8.37424 30.8854 8.37411C 30.8854 8.37403 30.8855 8.37388 30.8856 8.37374C 30.8856 8.37351 30.8858 8.37309 30.886 8.37263C 30.8863 8.37185 30.8869 8.3705 30.8875 8.36894C 30.8887 8.36606 30.8907 8.36139 30.893 8.35571C 30.8975 8.34483 30.9044 8.32786 30.9129 8.30667C 30.9295 8.26531 30.9544 8.20266 30.9845 8.12462C 31.0437 7.97067 31.1278 7.74462 31.2204 7.47458C 31.4039 6.93912 31.632 6.19435 31.7905 5.42569C 31.9477 4.65785 32.041 3.79901 31.9537 3.08644C 31.8605 2.35463 31.5566 1.62038 30.8071 1.26464L 30.3783 2.16805C 30.6853 2.31375 30.8886 2.63839 30.9618 3.21284C 31.041 3.80653 30.96 4.50133 30.8109 5.22445C 30.6631 5.94674 30.4528 6.63025 30.2745 7.15034C 30.1862 7.40806 30.1085 7.61659 30.0512 7.76529C 30.023 7.83857 30.0009 7.89425 29.9852 7.9334C 29.9775 7.95246 29.9719 7.96629 29.9678 7.97614C 29.9659 7.98083 29.9646 7.984 29.9636 7.98639C 29.9632 7.98746 29.9629 7.98808 29.9627 7.98863C 29.9626 7.98884 29.9626 7.98891 29.9625 7.98901C 29.9625 7.98904 29.9625 7.98901 29.9625 7.98902C 29.9625 7.98897 29.9626 7.9889 30.4239 8.18163ZM 30.8071 1.26464C 29.4182 0.605406 28.1984 0.960083 27.2775 1.59199C 26.3958 2.20573 25.7305 3.10872 25.3912 3.62948L 26.2292 4.17513C 26.5542 3.67578 27.0932 2.92244 27.8433 2.41656C 28.5541 1.92885 29.3935 1.7006 30.3783 2.16805L 30.8071 1.26464ZM 26.2925 4.0342C 26.4166 3.58027 26.4237 2.98584 26.3271 2.39907C 26.23 1.81917 26.0022 1.15602 25.6615 0.645819C 25.301 0.11436 24.7732 -0.329737 24.0539 -0.461141C 23.3395 -0.591652 22.5285 -0.396668 21.6317 0.157075L 22.1571 1.00793C 22.9217 0.535816 23.4806 0.450681 23.8742 0.522579C 24.2629 0.593585 24.5811 0.834425 24.834 1.20722C 25.1068 1.60127 25.2598 2.06169 25.3404 2.56146C 25.4215 3.05435 25.4031 3.49569 25.3279 3.77041L 26.2925 4.0342ZM 21.6317 0.157075C 21.3502 0.33091 20.9977 0.702563 20.6187 1.15249C 20.2268 1.61806 19.7513 2.2361 19.2238 2.9568C 18.1714 4.39511 16.8817 6.28162 15.5312 8.31687C 12.8311 12.3864 9.86858 17.0785 8.00788 20.0673L 8.85681 20.5958C 10.7158 17.6096 13.6705 12.9298 16.3645 8.86975C 17.7111 6.84025 18.9878 4.97263 20.0308 3.54735C 20.5512 2.83626 21.0057 2.24516 21.3836 1.7967C 21.7745 1.33261 22.0317 1.08537 22.1571 1.00793L 21.6317 0.157075ZM 8.84376 20.0474L 7.42306 17.9903L 6.60023 18.5586L 8.02093 20.6157L 8.84376 20.0474ZM 7.47252 18.4683C 7.90313 17.4449 8.22413 15.6066 8.37406 13.856C 8.44951 12.9734 8.48318 12.0823 8.46323 11.3177C 8.44319 10.5593 8.37011 9.86481 8.21086 9.38018L 7.26083 9.69237C 7.37255 10.0323 7.44407 10.6056 7.46358 11.3442C 7.4832 12.0766 7.45141 12.9118 7.3777 13.7707C 7.22931 15.5033 6.91724 17.2095 6.55078 18.0805L 7.47252 18.4683ZM 25.3755 3.65529L 18.2795 16.1433L 19.1489 16.6373L 26.2449 4.14932L 25.3755 3.65529ZM 32.9692 14.7103L 27.4683 23.5318L 28.3168 24.061L 33.8178 15.2395L 32.9692 14.7103ZM 0.63772 23.6851L 5.60979 8.82491L 4.66146 8.50761L -0.310605 23.3678L 0.63772 23.6851ZM 5.13563 8.66626C 5.31265 9.13388 5.31248 9.13394 5.31231 9.13401C 5.31227 9.13402 5.31211 9.13408 5.31202 9.13412C 5.31208 9.13409 5.31145 9.13433 5.31157 9.13428C 5.31157 9.13429 5.31121 9.13442 5.31121 9.13442C 5.31072 9.1346 5.31167 9.13425 5.31261 9.13391C 5.31548 9.13286 5.3181 9.13192 5.32354 9.13002C 5.33649 9.1255 5.35173 9.12033 5.37552 9.11285C 5.42748 9.09643 5.49196 9.07753 5.57996 9.05706C 5.76555 9.01322 5.97787 8.97581 6.22276 8.98273C 6.47297 8.98592 6.65637 9.01394 6.84679 9.13517C 7.00684 9.22964 7.16151 9.39012 7.26083 9.69237L 8.21086 9.38018C 8.03921 8.85783 7.73337 8.49726 7.35507 8.27398C 7.00714 8.07748 6.57435 7.99107 6.24225 7.98292C 5.90483 7.97848 5.56871 8.03279 5.35144 8.08351C 5.23801 8.11032 5.13745 8.13941 5.07473 8.15916C 5.04118 8.16977 5.01167 8.17972 4.99421 8.18581C 4.98444 8.18922 4.97544 8.19245 4.97049 8.19425C 4.96751 8.19534 4.96452 8.19644 4.96303 8.19699C 4.96204 8.19736 4.96093 8.19778 4.96043 8.19796C 4.96006 8.1981 4.95961 8.19827 4.95942 8.19834C 4.95927 8.1984 4.95906 8.19848 4.95899 8.1985C 4.95879 8.19858 4.9586 8.19865 5.13563 8.66626ZM 29.9955 7.92389L 22.8669 19.7744L 23.7239 20.2898L 30.8524 8.43936L 29.9955 7.92389Z"/>
</defs>
</svg>
