<svg width="1500" height="1500" viewBox="0 0 1500 1500" version="1.1" xmlns="http://www.w3.org/2000/svg" xmlns:xlink="http://www.w3.org/1999/xlink" xmlns:figma="http://www.figma.com/figma/ns">
<title>A</title>
<desc>Created using Figma</desc>
<g id="Canvas" transform="matrix(3 0 0 3 1212 798)" figma:type="canvas">
<mask id="mask0_alpha" mask-type="alpha">
<path d="M -404 -266L 96 -266L 96 234L -404 234L -404 -266Z" fill="#FFFFFF"/>
</mask>
<g id="A" mask="url(#mask0_alpha)" figma:type="frame">
<g id="Vector 2" figma:type="vector">
<use xlink:href="#path0_stroke" transform="translate(-60 -250.609)" fill="#FFFFFF"/>
</g>
<g id="Vector 5" figma:type="vector">
<use xlink:href="#path1_stroke" transform="translate(-378 82.8345)" fill="#FFFFFF"/>
</g>
<g id="Vector 6" figma:type="vector">
<use xlink:href="#path2_stroke" transform="translate(-287.5 99)" fill="#FFFFFF"/>
</g>
<g id="Group" figma:type="frame">
<g id="Vector 7" figma:type="vector">
<use xlink:href="#path3_stroke" transform="translate(-290 -243.5)" fill="#FFFFFF"/>
</g>
<g id="Vector 7" figma:type="vector">
<use xlink:href="#path3_stroke" transform="translate(-288 -183.5)" fill="#FFFFFF"/>
</g>
<g id="Vector 7" figma:type="vector">
<use xlink:href="#path3_stroke" transform="translate(-226 -183.5)" fill="#FFFFFF"/>
</g>
<g id="Vector 7" figma:type="vector">
<use xlink:href="#path3_stroke" transform="translate(-359.5 -112.5)" fill="#FFFFFF"/>
</g>
<g id="Vector 8" figma:type="vector">
<use xlink:href="#path4_stroke" transform="translate(-335 -214)" fill="#FFFFFF"/>
</g>
</g>
<g id="Vector 9" figma:type="vector">
<use xlink:href="#path5_stroke" transform="translate(-54 -31.5)" fill="#FFFFFF"/>
</g>
<g id="Vector 10" figma:type="vector">
<use xlink:href="#path6_stroke" transform="translate(-37 42)" fill="#FFFFFF"/>
</g>
<g id="Vector 10" figma:type="vector">
<use xlink:href="#path6_stroke" transform="translate(-37 48)" fill="#FFFFFF"/>
</g>
<g id="Vector 10" figma:type="vector">
<use xlink:href="#path6_stroke" transform="translate(-37 54)" fill="#FFFFFF"/>
</g>
<g id="Vector 10" figma:type="vector">
<use xlink:href="#path6_stroke" transform="translate(-37 60)" fill="#FFFFFF"/>
</g>
<g id="Vector 11" figma:type="vector">
<use xlink:href="#path7_stroke" transform="translate(-108 10)" fill="#FFFFFF"/>
</g>
<g id="Vector 11" figma:type="vector">
<use xlink:href="#path7_stroke" transform="translate(-104 70)" fill="#FFFFFF"/>
</g>
<g id="Group" figma:type="frame">
<g id="Ellipse" figma:type="ellipse">
<mask id="mask1_outline_ins">
<use xlink:href="#path8_fill" fill="white" transform="translate(-127 0)"/>
</mask>
<g mask="url(#mask1_outline_ins)">
<use xlink:href="#path9_stroke_2x" transform="translate(-127 0)" fill="#FFFFFF"/>
</g>
</g>
<g id="Vector 11" figma:type="vector">
<use xlink:href="#path10_stroke" transform="matrix(0.707107 0.707107 -0.707107 0.707107 -115.464 25.4645)" fill="#FFFFFF"/>
</g>
<g id="Vector 11" figma:type="vector">
<use xlink:href="#path10_stroke" transform="matrix(0.707107 -0.707107 0.707107 0.707107 -100.536 25.4645)" fill="#FFFFFF"/>
</g>
<g id="Vector 11" figma:type="vector">
<use xlink:href="#path10_stroke" transform="matrix(0.707107 -0.707107 0.707107 0.707107 -122.536 6)" fill="#FFFFFF"/>
</g>
<g id="Vector 11" figma:type="vector">
<use xlink:href="#path10_stroke" transform="matrix(0.707107 0.707107 -0.707107 0.707107 -93.4644 6)" fill="#FFFFFF"/>
</g>
<g id="Ellipse" figma:type="ellipse">
<mask id="mask2_outline_ins">
<use xlink:href="#path11_fill" fill="white" transform="translate(-118 9)"/>
</mask>
<g mask="url(#mask2_outline_ins)">
<use xlink:href="#path12_stroke_2x" transform="translate(-118 9)" fill="#FFFFFF"/>
</g>
</g>
<g id="Vector 10" figma:type="vector">
<use xlink:href="#path13_stroke" transform="translate(-118 15)" fill="#FFFFFF"/>
</g>
<g id="Vector 10" figma:type="vector">
<use xlink:href="#path14_stroke" transform="translate(-119 18)" fill="#FFFFFF"/>
</g>
<g id="Vector 10" figma:type="vector">
<use xlink:href="#path14_stroke" transform="translate(-119 21)" fill="#FFFFFF"/>
</g>
<g id="Vector 10" figma:type="vector">
<use xlink:href="#path13_stroke" transform="translate(-118 24)" fill="#FFFFFF"/>
</g>
</g>
<g id="Vector 4" figma:type="vector">
<use xlink:href="#path15_stroke" transform="translate(-356.5 91.1256)" fill="#FFFFFF"/>
</g>
<g id="Ellipse 2" figma:type="vector">
<use xlink:href="#path16_stroke" transform="translate(-216 2)" fill="#FFFFFF"/>
</g>
<g id="Vector 12" figma:type="vector">
<use xlink:href="#path17_stroke" transform="translate(-217 9)" fill="#FFFFFF"/>
</g>
<g id="Vector 3" figma:type="vector">
<use xlink:href="#path18_stroke" transform="translate(-407 110)" fill="#FFFFFF"/>
</g>
<g id="Vector 3" figma:type="vector">
<use xlink:href="#path19_stroke" transform="translate(-228 110)" fill="#FFFFFF"/>
</g>
<g id="Vector 13" figma:type="vector">
<use xlink:href="#path20_stroke" transform="translate(-359 167)" fill="#FFFFFF"/>
</g>
</g>
</g>
<defs>
<path id="path0_stroke" d="M 82.0671 195.071C 82.3222 195.177 82.6147 195.056 82.7205 194.8C 82.8263 194.545 82.7053 194.253 82.4502 194.147L 82.0671 195.071ZM 5.75864 77.6089L 6.21555 77.812L 5.75864 77.6089ZM 82.2586 16.1089L 81.9173 15.7436L 82.2586 16.1089ZM 132.424 5.98058C 132.629 6.16531 132.946 6.14867 133.13 5.94341C 133.315 5.73816 133.298 5.42201 133.093 5.23729L 132.424 5.98058ZM 82.4502 194.147C 64.3973 186.661 38.9675 171.872 21.221 151.753C 3.49332 131.665 -6.47699 106.37 6.21555 77.812L 5.30173 77.4059C -7.60573 106.448 2.59063 132.153 20.4712 152.415C 38.3331 172.645 63.9533 187.557 82.0671 195.071L 82.4502 194.147ZM 6.21555 77.812C 22.099 42.0741 55.2118 33.3797 81.9865 37.9767C 95.3814 40.2765 107.137 45.8972 114.319 53.0721C 117.917 56.6614 120.337 60.5762 121.284 64.7192C 122.227 68.8158 121.701 73.0956 119.322 77.3656L 120.195 77.8523C 122.691 73.3722 123.259 68.8396 122.259 64.4948C 121.262 60.1964 118.702 56.0409 115.026 52.3646C 107.662 45.0082 95.6984 39.3163 82.1557 36.9911C 55.0555 32.3382 21.4182 41.1437 5.30173 77.4059L 6.21555 77.812ZM 119.322 77.3656C 116.922 81.6729 114.102 84.35 111.09 85.7295C 108.051 87.1319 104.85 87.2258 101.518 86.2913C 94.8686 84.4384 88.0174 78.4393 82.6752 70.3948C 77.3285 62.3495 73.5602 52.3956 73.0078 42.6351C 72.4516 32.9089 75.1088 23.4743 82.6 16.4743L 81.9173 15.7436C 74.1585 22.9936 71.4407 32.7465 72.0095 42.6922C 72.5821 52.6035 76.4388 62.8059 81.8421 70.948C 87.2499 79.0911 94.2737 85.3107 101.249 87.2546C 104.73 88.2186 108.279 88.1055 111.506 86.6387C 114.759 85.1492 117.72 82.2949 120.195 77.8523L 119.322 77.3656ZM 82.6 16.4743C 106.845 -6.18075 125.983 0.183895 132.424 5.98058L 133.093 5.23729C 126.201 -0.96603 106.472 -7.20138 81.9173 15.7436L 82.6 16.4743Z"/>
<path id="path1_stroke" d="M 0 50.6655L -0.457732 50.4643C -0.541955 50.656 -0.497923 50.8797 -0.347387 51.0252C -0.196852 51.1706 0.0283269 51.2068 0.216908 51.116L 0 50.6655ZM 45 42.6655L 45.1818 42.1998L 45 42.6655ZM 70.5 64.1655L 70.1924 64.5597C 70.3066 64.6488 70.4539 64.6841 70.5961 64.6562C 70.7383 64.6284 70.8614 64.5402 70.9336 64.4146L 70.5 64.1655ZM 139.5 50.6655L 139.208 51.0713C 139.334 51.1622 139.496 51.1892 139.644 51.1442C 139.793 51.0993 139.913 50.9875 139.968 50.8419L 139.5 50.6655ZM 151 20.1656L 151.468 20.342C 151.539 20.1536 151.49 19.941 151.344 19.8026L 151 20.1656ZM 109 6.66555L 109.096 7.15625L 109 6.66555ZM 20 5.16556L 19.9652 4.66677C 19.7799 4.6797 19.617 4.7943 19.5423 4.96436L 20 5.16556ZM 11.5 43.6948L 11.2678 43.252L 11.5 43.6948ZM 4.5 57.1655L 4.05633 56.935C 3.94464 57.1499 4.00306 57.414 4.19498 57.5617C 4.3869 57.7095 4.65712 57.6984 4.83634 57.5355L 4.5 57.1655ZM 39 50.6655L 39.0822 50.1723L 39 50.6655ZM 139.5 62.1655L 139.255 62.6016C 139.383 62.6731 139.535 62.6853 139.672 62.6349C 139.81 62.5844 139.918 62.4765 139.969 62.3394L 139.5 62.1655ZM 151 31.1655L 151.469 31.3394C 151.537 31.1558 151.492 30.9492 151.353 30.811L 151 31.1655ZM 44.8182 43.1313C 52.4511 46.1069 59.125 50.5581 63.7391 54.7227C 66.0402 56.7978 67.792 58.7654 68.8906 60.4466C 69.4357 61.2779 69.7962 61.9932 69.9866 62.6278C 70.175 63.2491 70.162 63.685 70.0404 63.9686L 70.9596 64.3625C 71.213 63.7711 71.1645 63.0662 70.9436 62.3377C 70.7248 61.6224 70.3023 60.7789 69.7274 59.8989C 68.586 58.1575 66.7497 56.0931 64.4089 53.9802C 59.7389 49.7687 52.9129 45.2199 45.1818 42.1998L 44.8182 43.1313ZM 70.9921 64.2543C 72.7694 54.3984 84.8619 43.9591 103.521 43.1651L 103.479 42.166C 84.5381 42.972 71.8973 53.5993 70.0079 64.0768L 70.9921 64.2543ZM 103.521 43.1651C 122.221 42.3694 135.141 48.1434 139.208 51.0713L 139.792 50.2598C 135.525 47.1877 122.379 41.3617 103.479 42.166L 103.521 43.1651ZM 151.344 19.8026C 144.986 13.779 131.656 1.72337 108.904 6.17485L 109.096 7.15625C 131.344 2.80339 144.348 14.5521 150.656 20.5285L 151.344 19.8026ZM 108.904 6.17485C 90.4046 9.79431 83.0668 15.7393 79.1918 18.7718L 79.8082 19.5593C 83.5999 16.5918 90.7954 10.7368 109.096 7.15625L 108.904 6.17485ZM 79.9589 18.9671C 78.5771 15.7717 74.6264 11.2597 69.8121 7.41246C 64.9943 3.56238 59.1972 0.285634 54.0596 -0.330881L 53.9404 0.661996C 58.8028 1.24548 64.4224 4.3854 69.1879 8.19366C 73.957 12.0048 77.7562 16.3927 79.0411 19.364L 79.9589 18.9671ZM 54.0596 -0.330881C 48.9662 -0.942091 42.1803 0.203036 35.8345 1.53878C 29.4313 2.8866 23.5027 4.41997 19.9652 4.66677L 20.0348 5.66434C 23.664 5.41115 29.7354 3.84451 36.0405 2.51734C 42.403 1.17808 49.0338 0.073205 53.9404 0.661996L 54.0596 -0.330881ZM 19.5423 4.96436L -0.457732 50.4643L 0.457732 50.8667L 20.4577 5.36676L 19.5423 4.96436ZM 79.0097 19.0675L 70.0097 64.0675L 70.9903 64.2636L 79.9903 19.2636L 79.0097 19.0675ZM 0.216908 51.116C 1.31231 50.5877 3.49884 49.2042 5.74979 47.7772C 8.00074 46.3503 10.3233 44.8757 11.7322 44.1376L 11.2678 43.252C 9.82281 44.01 7.46511 45.5058 5.21437 46.9327C 2.96365 48.3595 0.827109 49.7133 -0.216908 50.215L 0.216908 51.116ZM 11.7322 44.1376C 16.2848 41.7501 20.6578 40.0009 25.8614 39.5925C 31.0809 39.1739 37.0567 40.0992 44.8182 43.1313L 45.1818 42.1998C 37.3165 39.1336 31.118 38.1746 25.7821 38.5957C 20.4304 39.0271 15.8669 40.8416 11.2678 43.252L 11.7322 44.1376ZM 11.0563 43.4642L 4.05633 56.935L 4.94367 57.3961L 11.9437 43.9253L 11.0563 43.4642ZM 4.83634 57.5355C 7.48575 55.127 12.6948 52.9733 18.9493 51.7034C 25.1959 50.4338 32.3547 50.0619 38.9178 51.1587L 39.0822 50.1723C 32.4114 49.0635 25.0702 49.4417 18.7503 50.7234C 12.4382 52.005 7.01425 54.2041 4.16366 56.7956L 4.83634 57.5355ZM 38.9178 51.1587C 53.8296 53.6356 63.3858 59.2459 70.1924 64.5597L 70.8076 63.7714C 63.9475 58.4185 54.1704 52.6954 39.0822 50.1723L 38.9178 51.1587ZM 70.9336 64.4146C 73.0965 60.6495 78.1123 57.3277 84.2193 54.9438C 90.3152 52.5621 97.349 51.1631 103.5 51.1655L 103.5 50.1655C 97.251 50.168 90.0348 51.6023 83.8557 54.0123C 77.6877 56.42 72.4035 59.8482 70.0664 63.9165L 70.9336 64.4146ZM 103.5 51.1655C 109.636 51.1614 116.843 53.0595 123.417 55.448C 129.988 57.8342 135.851 60.6918 139.255 62.6016L 139.745 61.7295C 136.315 59.8059 130.378 56.9135 123.758 54.5081C 117.141 52.1049 109.764 50.1697 103.5 50.1655L 103.5 51.1655ZM 139.969 62.3394L 151.469 31.3394L 150.531 30.9916L 139.031 61.9916L 139.969 62.3394ZM 139.968 50.8419L 148.451 28.3419L 147.516 27.9891L 139.032 50.4891L 139.968 50.8419ZM 148.451 28.3419L 151.468 20.342L 150.532 19.9892L 147.516 27.9891L 148.451 28.3419ZM 151.353 30.811L 148.336 27.811L 147.631 28.5201L 150.647 31.5201L 151.353 30.811Z"/>
<path id="path2_stroke" d="M 1.03143 5.66992C 0.330994 6.11228 0.121788 7.0387 0.564152 7.73914C 1.00652 8.43957 1.93294 8.64877 2.63337 8.20641L 1.03143 5.66992ZM 26.3078 0.628906L 26.781 -0.794517L 26.3078 0.628906ZM 28.8053 15L 30.2305 15.4678C 30.2493 15.4107 30.2646 15.3525 30.2763 15.2935L 28.8053 15ZM 30.4141 6.93816L 31.8851 7.23171C 31.89 7.20747 31.8942 7.18311 31.8978 7.15866L 30.4141 6.93816ZM 32.4141 19C 33.2425 19 33.9141 18.3284 33.9141 17.5C 33.9141 16.6716 33.2425 16 32.4141 16L 32.4141 19ZM 2.63337 8.20641C 5.07868 6.66059 9.13511 4.53407 13.5657 3.07875C 18.0381 1.6044 22.5156 0.949053 25.8347 2.05233L 26.781 -0.794517C 22.5077 -2.21494 17.245 -1.29298 12.6265 0.229573C 7.96621 1.77115 3.58111 4.06111 1.03143 5.66992L 2.63337 8.20641ZM 25.8347 2.05233C 27.3748 2.56425 28.1576 3.27941 28.5581 3.98169C 28.9681 4.70057 29.0947 5.61193 28.9304 6.71767L 31.8978 7.15866C 32.1276 5.61249 32.0042 3.96857 31.1641 2.49547C 30.3145 1.00577 28.8471 -0.107743 26.781 -0.794517L 25.8347 2.05233ZM 28.9431 6.64462L 27.3343 14.7065L 30.2763 15.2935L 31.8851 7.23171L 28.9431 6.64462ZM 30.1614 5.45961C 21.2434 6.98438 13.613 7.87895 8.18316 9.00932C 5.48024 9.57275 3.17661 10.2229 1.52204 11.1136C -0.145549 12.0113 -1.5 13.3602 -1.5 15.3838L 1.5 15.3838C 1.5 14.9655 1.70805 14.4205 2.94403 13.7552C 4.19302 13.0829 6.13402 12.501 8.79537 11.9462C 14.0941 10.8401 21.6707 9.95379 30.6668 8.41672L 30.1614 5.45961ZM -1.5 15.3838C -1.5 16.7464 -0.638308 17.6211 0.335731 18.0836C 1.23329 18.5097 2.37472 18.6812 3.53625 18.7416C 5.85619 18.8581 9.00104 18.5545 12.231 18.1359C 15.4581 17.7174 18.8574 17.1809 21.8286 16.8135C 24.8643 16.438 27.239 16.2703 28.5704 16.4815L 29.0403 13.5185C 27.2191 13.2297 24.4167 13.4705 21.4603 13.8362C 18.4394 14.2102 15.0314 14.7479 11.8453 15.1608C 8.66213 15.5737 5.78789 15.8588 3.69205 15.7456C 2.64568 15.6912 1.98003 15.5433 1.62249 15.3735C 1.44086 15.2956 1.42956 15.2149 1.45585 15.2756C 1.4953 15.2968 1.48036 15.4471 1.5 15.3838L -1.5 15.3838ZM 27.3802 14.5322C 27.1597 15.2039 27.154 15.9141 27.4224 16.5825C 27.6835 17.2324 28.1524 17.7167 28.6663 18.0599C 29.6631 18.7256 31.0229 19 32.4141 19L 32.4141 16C 31.3366 16 30.6459 15.7744 30.3323 15.5651C 30.1581 15.4637 30.1995 15.3887 30.2063 15.4644C 30.252 15.5155 30.1666 15.5909 30.2305 15.4678L 27.3802 14.5322Z"/>
<path id="path3_stroke" d="M 0 0L 0 -0.5C -0.276142 -0.5 -0.5 -0.276142 -0.5 1.11022e-16L 0 0ZM 0 48.5L -0.5 48.5C -0.5 48.7761 -0.276142 49 1.11022e-16 49L 0 48.5ZM 45 48.5L 45 49C 45.2761 49 45.5 48.7761 45.5 48.5L 45 48.5ZM 45 0L 45.5 0C 45.5 -0.276142 45.2761 -0.5 45 -0.5L 45 0ZM -0.5 0L -0.5 48.5L 0.5 48.5L 0.5 0L -0.5 0ZM 0 49L 45 49L 45 48L 0 48L 0 49ZM 45.5 48.5L 45.5 0L 44.5 0L 44.5 48.5L 45.5 48.5ZM 45 -0.5L 0 -0.5L 0 0.5L 45 0.5L 45 -0.5Z"/>
<path id="path4_stroke" d="M 74.4961 0.107721C 74.5556 -0.718567 73.934 -1.43663 73.1077 -1.49613C 72.2814 -1.55562 71.5634 -0.934009 71.5039 -0.107721L 74.4961 0.107721ZM 134 65L 135.496 65.1108C 135.526 64.7048 135.39 64.304 135.118 64.0004C 134.847 63.6969 134.464 63.5166 134.057 63.5011L 134 65ZM 132 92L 132 93.5C 132.785 93.5 133.438 92.8941 133.496 92.1108L 132 92ZM 7 92L 7 90.5C 6.28051 90.5 5.66236 91.0109 5.52685 91.7175L 7 92ZM 0 128.5L -1.47315 128.217C -1.56097 128.675 -1.43087 129.148 -1.12112 129.497C -0.811377 129.845 -0.357202 130.03 0.107828 129.996L 0 128.5ZM 56.6342 125.482C 57.1763 124.855 57.1081 123.908 56.4817 123.366L 46.2742 114.531C 45.6478 113.989 44.7005 114.057 44.1584 114.683C 43.6162 115.31 43.6845 116.257 44.3109 116.799L 53.3842 124.652L 45.5308 133.726C 44.9886 134.352 45.0569 135.299 45.6833 135.842C 46.3097 136.384 47.257 136.316 47.7991 135.689L 56.6342 125.482ZM 68.5 62.5L 67.0039 62.3923C 66.9747 62.7978 67.1114 63.1979 67.3826 63.5007C 67.6539 63.8036 68.0365 63.9834 68.4428 63.9989L 68.5 62.5ZM 132.504 64.8892L 130.504 91.8892L 133.496 92.1108L 135.496 65.1108L 132.504 64.8892ZM 132 90.5L 7 90.5L 7 93.5L 132 93.5L 132 90.5ZM 5.52685 91.7175L -1.47315 128.217L 1.47315 128.783L 8.47315 92.2825L 5.52685 91.7175ZM 0.107828 129.996L 55.6078 125.996L 55.3922 123.004L -0.107828 127.004L 0.107828 129.996ZM 71.5039 -0.107721L 67.0039 62.3923L 69.9961 62.6077L 74.4961 0.107721L 71.5039 -0.107721ZM 68.4428 63.9989L 133.943 66.4989L 134.057 63.5011L 68.5572 61.0011L 68.4428 63.9989Z"/>
<path id="path5_stroke" d="M 0 74.5L 0 74L -0.5 74L -0.5 74.5L 0 74.5ZM 14.7097 45.8372L 14.5757 45.3555L 14.7097 45.8372ZM 3.98416 153.263L 4.07278 152.771L 3.98416 153.263ZM 1.18728e-34 74.5L 1.18728e-34 75L 0.5 75L 0.5 74.5L 1.18728e-34 74.5ZM 33.8857 46.0298L 33.6773 46.4842L 33.8857 46.0298ZM 43.5158 153.263L 43.4272 152.771L 43.5158 153.263ZM 0.5 148.45C 0.5 118.604 0.5 116.617 0.5 113.84C 0.5 111.064 0.5 107.5 0.5 74.5L -0.5 74.5C -0.5 107.5 -0.5 111.064 -0.5 113.84C -0.5 116.617 -0.5 118.604 -0.5 148.45L 0.5 148.45ZM 0.5 74.5C 0.5 54.856 9.32091 47.8552 14.8437 46.3189L 14.5757 45.3555C 8.51597 47.0411 -0.5 54.5253 -0.5 74.5L 0.5 74.5ZM 17 43.6736L 17 2L 16 2L 16 43.6736L 17 43.6736ZM 18.5 0.5L 30.5 0.5L 30.5 -0.5L 18.5 -0.5L 18.5 0.5ZM 32 2L 32 44.0119L 33 44.0119L 33 2L 32 2ZM 33.6773 46.4842C 38.7329 48.8029 47 56.7504 47 74.5L 48 74.5C 48 56.4078 39.5471 48.0761 34.0942 45.5753L 33.6773 46.4842ZM 47 74.5C 47 103.9 47 106.791 47 110.13C 47 113.469 47 117.256 47 148.448L 48 148.448C 48 117.256 48 113.469 48 110.13C 48 106.791 48 103.9 48 74.5L 47 74.5ZM 43.4272 152.771C 38.4977 153.659 30.0165 155.002 23.75 155L 23.75 156C 30.0948 155.998 38.6645 154.645 43.6045 153.755L 43.4272 152.771ZM 23.75 155C 17.4835 155.002 9.00228 153.659 4.07278 152.771L 3.89553 153.755C 8.83553 154.645 17.4052 155.998 23.75 156L 23.75 155ZM -0.5 148.45C -0.5 151.053 1.32221 153.291 3.89553 153.755L 4.07278 152.771C 1.98721 152.395 0.5 150.581 0.5 148.45L -0.5 148.45ZM 0 75L 1.18728e-34 75L 1.18728e-34 74L 0 74L 0 75ZM 14.8437 46.3189C 16.0075 45.9952 17 44.9797 17 43.6736L 16 43.6736C 16 44.4362 15.4051 45.1248 14.5757 45.3555L 14.8437 46.3189ZM 17 2C 17 1.17157 17.6716 0.5 18.5 0.5L 18.5 -0.5C 17.1193 -0.5 16 0.619288 16 2L 17 2ZM 30.5 0.5C 31.3284 0.5 32 1.17157 32 2L 33 2C 33 0.619288 31.8807 -0.5 30.5 -0.5L 30.5 0.5ZM 32 44.0119C 32 45.125 32.7304 46.05 33.6773 46.4842L 34.0942 45.5753C 33.4354 45.2732 33 44.6653 33 44.0119L 32 44.0119ZM 47 148.448C 47 150.579 45.5125 152.395 43.4272 152.771L 43.6045 153.755C 46.1781 153.291 48 151.05 48 148.448L 47 148.448Z"/>
<path id="path6_stroke" d="M 0 -1.5C -0.828427 -1.5 -1.5 -0.828427 -1.5 0C -1.5 0.828427 -0.828427 1.5 0 1.5L 0 -1.5ZM 23 1.5C 23.8284 1.5 24.5 0.828427 24.5 0C 24.5 -0.828427 23.8284 -1.5 23 -1.5L 23 1.5ZM 0 1.5L 23 1.5L 23 -1.5L 0 -1.5L 0 1.5Z"/>
<path id="path7_stroke" d="M 1.5 0C 1.5 -0.828427 0.828427 -1.5 0 -1.5C -0.828427 -1.5 -1.5 -0.828427 -1.5 0L 1.5 0ZM -1.5 258C -1.5 258.828 -0.828427 259.5 0 259.5C 0.828427 259.5 1.5 258.828 1.5 258L -1.5 258ZM -1.5 0L -1.5 258L 1.5 258L 1.5 0L -1.5 0Z"/>
<path id="path8_fill" d="M 39 19.5C 39 30.2696 30.2696 39 19.5 39C 8.73045 39 0 30.2696 0 19.5C 0 8.73045 8.73045 0 19.5 0C 30.2696 0 39 8.73045 39 19.5Z"/>
<path id="path9_stroke_2x" d="M 38 19.5C 38 29.7173 29.7173 38 19.5 38L 19.5 40C 30.8218 40 40 30.8218 40 19.5L 38 19.5ZM 19.5 38C 9.28273 38 1 29.7173 1 19.5L -1 19.5C -1 30.8218 8.17816 40 19.5 40L 19.5 38ZM 1 19.5C 1 9.28273 9.28273 1 19.5 1L 19.5 -1C 8.17816 -1 -1 8.17816 -1 19.5L 1 19.5ZM 19.5 1C 29.7173 1 38 9.28273 38 19.5L 40 19.5C 40 8.17816 30.8218 -1 19.5 -1L 19.5 1Z"/>
<path id="path10_stroke" d="M 1.5 0C 1.5 -0.828427 0.828427 -1.5 0 -1.5C -0.828427 -1.5 -1.5 -0.828427 -1.5 0L 1.5 0ZM -1.5 10C -1.5 10.8284 -0.828427 11.5 0 11.5C 0.828427 11.5 1.5 10.8284 1.5 10L -1.5 10ZM -1.5 0L -1.5 10L 1.5 10L 1.5 0L -1.5 0Z"/>
<path id="path11_fill" d="M 21 10.5C 21 16.299 16.299 21 10.5 21C 4.70101 21 0 16.299 0 10.5C 0 4.70101 4.70101 0 10.5 0C 16.299 0 21 4.70101 21 10.5Z"/>
<path id="path12_stroke_2x" d="M 18 10.5C 18 14.6421 14.6421 18 10.5 18L 10.5 24C 17.9558 24 24 17.9558 24 10.5L 18 10.5ZM 10.5 18C 6.35786 18 3 14.6421 3 10.5L -3 10.5C -3 17.9558 3.04416 24 10.5 24L 10.5 18ZM 3 10.5C 3 6.35786 6.35786 3 10.5 3L 10.5 -3C 3.04416 -3 -3 3.04416 -3 10.5L 3 10.5ZM 10.5 3C 14.6421 3 18 6.35786 18 10.5L 24 10.5C 24 3.04416 17.9558 -3 10.5 -3L 10.5 3Z"/>
<path id="path13_stroke" d="M 0 -0.5C -0.276142 -0.5 -0.5 -0.276142 -0.5 0C -0.5 0.276142 -0.276142 0.5 0 0.5L 0 -0.5ZM 21 0.5C 21.2761 0.5 21.5 0.276142 21.5 0C 21.5 -0.276142 21.2761 -0.5 21 -0.5L 21 0.5ZM 0 0.5L 21 0.5L 21 -0.5L 0 -0.5L 0 0.5Z"/>
<path id="path14_stroke" d="M 0 -0.5C -0.276142 -0.5 -0.5 -0.276142 -0.5 0C -0.5 0.276142 -0.276142 0.5 0 0.5L 0 -0.5ZM 23 0.5C 23.2761 0.5 23.5 0.276142 23.5 0C 23.5 -0.276142 23.2761 -0.5 23 -0.5L 23 0.5ZM 0 0.5L 23 0.5L 23 -0.5L 0 -0.5L 0 0.5Z"/>
<path id="path15_stroke" d="M -0.478913 24.2307C -0.558262 24.4952 -0.40817 24.7739 -0.143674 24.8533C 0.120822 24.9326 0.399564 24.7826 0.478913 24.5181L -0.478913 24.2307ZM 10 13.8744L 9.96438 13.3757L 10 13.8744ZM 34.0097 26.2763C 33.9556 26.5471 34.1312 26.8105 34.4019 26.8647C 34.6727 26.9188 34.9361 26.7432 34.9903 26.4724L 34.0097 26.2763ZM 0.478913 24.5181C 0.969488 22.8797 2.03003 20.4378 3.67 18.3309C 5.30422 16.2251 7.43826 14.5586 10.0356 14.3731L 9.96438 13.3757C 6.96174 13.5901 4.59578 15.507 2.88 17.7178C 1.16997 19.9276 0.0305118 22.5357 -0.478913 24.2307L 0.478913 24.5181ZM 10.0356 14.3731C 12.0417 14.2298 13.1642 12.9495 13.9209 11.3455C 14.6604 9.77106 15.1064 7.79073 15.7235 5.9724C 16.3429 4.14515 17.1154 2.5392 18.4535 1.54986C 19.7662 0.579302 21.7256 0.131888 24.8876 0.861575L 25.1124 -0.112816C 21.7744 -0.883129 19.4838 -0.455543 17.859 0.745774C 16.2596 1.92831 15.4071 3.79111 14.7765 5.65136C 14.1436 7.52053 13.7146 9.44645 13.0166 10.9188C 12.3358 12.3617 11.4583 13.2689 9.96438 13.3757L 10.0356 14.3731ZM 24.8876 0.861575C 28.0709 1.59619 29.5237 2.75856 30.1309 3.97299C 30.7456 5.2024 30.5744 6.63715 30.145 8.10938C 29.9319 8.84121 29.6636 9.55327 29.4221 10.2247C 29.1804 10.8968 28.9604 11.5493 28.8662 12.1047C 28.7738 12.6592 28.7799 13.271 29.1686 13.7374C 29.5577 14.2043 30.203 14.3744 31 14.3744L 31 13.3744C 30.297 13.3744 30.0361 13.2163 29.9368 13.0973C 29.8372 12.9777 29.7731 12.7458 29.8526 12.2691C 29.9302 11.7932 30.1243 11.2269 30.3631 10.5631C 30.6021 9.89861 30.8806 9.15755 31.105 8.38938C 31.5506 6.86161 31.8169 5.10886 31.0253 3.52577C 30.2263 1.9277 28.4291 0.652567 25.1124 -0.112816L 24.8876 0.861575ZM 31 14.3744C 32.0274 14.3744 32.7533 14.8082 33.2853 15.5365C 33.8349 16.2888 34.1835 17.3687 34.3677 18.6339C 34.7418 21.1763 34.4223 24.2161 34.0097 26.2763L 34.9903 26.4724C 35.411 24.366 35.7416 21.1558 35.3573 18.4898C 35.1623 17.1509 34.7797 15.887 34.0928 14.9466C 33.3884 13.9823 32.3726 13.3744 31 13.3744L 31 14.3744Z"/>
<path id="path16_stroke" d="M 8.5 2.85714C 8.5 5.48612 6.64851 7.5 4.5 7.5L 4.5 8.5C 7.32205 8.5 9.5 5.9088 9.5 2.85714L 8.5 2.85714ZM 4.5 7.5C 2.35149 7.5 0.5 5.48612 0.5 2.85714L -0.5 2.85714C -0.5 5.9088 1.67795 8.5 4.5 8.5L 4.5 7.5ZM 0.5 2.85714C 0.5 2.20274 0.616476 1.76214 0.78842 1.45935C 0.963164 1.13428 1.17198 0.969468 1.51983 0.820914C 2.21656 0.513553 3.2193 0.5 4.5 0.5L 4.5 -0.5C 3.29542 -0.5 2.04816 -0.505142 1.11621 -0.0940127C 0.649721 0.11668 0.199525 0.488635 -0.0811551 0.965553C -0.364636 1.46476 -0.5 2.09139 -0.5 2.85714L 0.5 2.85714ZM 4.5 0.5C 5.7807 0.5 6.78344 0.513553 7.48017 0.820914C 7.82802 0.969468 8.03684 1.13428 8.21158 1.45935C 8.38352 1.76214 8.5 2.20274 8.5 2.85714L 9.5 2.85714C 9.5 2.09139 9.36464 1.46476 9.08115 0.965553C 8.80048 0.488635 8.35028 0.11668 7.88379 -0.0940127C 6.95184 -0.505142 5.70458 -0.5 4.5 -0.5L 4.5 0.5Z"/>
<path id="path17_stroke" d="M 0 83L -0.499674 82.9819L -0.507077 83.1868L -0.368577 83.3379L 0 83ZM 5.5 89L 5.13142 89.3379L 5.48429 89.7228L 5.85355 89.3536L 5.5 89ZM 11.5 83L 11.8536 83.3536L 12.0088 83.1983L 11.9996 82.9789L 11.5 83ZM 2.50033 -0.0180605L -0.499674 82.9819L 0.499674 83.0181L 3.49967 0.0180605L 2.50033 -0.0180605ZM -0.368577 83.3379L 5.13142 89.3379L 5.86858 88.6621L 0.368577 82.6621L -0.368577 83.3379ZM 5.85355 89.3536L 11.8536 83.3536L 11.1464 82.6464L 5.14645 88.6464L 5.85355 89.3536ZM 11.9996 82.9789L 8.49956 -0.0210656L 7.50044 0.0210656L 11.0004 83.0211L 11.9996 82.9789ZM 6 89L 6 0.5L 5 0.5L 5 89L 6 89Z"/>
<path id="path18_stroke" d="M 0 -1.5C -0.828427 -1.5 -1.5 -0.828427 -1.5 0C -1.5 0.828427 -0.828427 1.5 0 1.5L 0 -1.5ZM 37.5 1.5C 38.3284 1.5 39 0.828427 39 0C 39 -0.828427 38.3284 -1.5 37.5 -1.5L 37.5 1.5ZM 0 1.5L 37.5 1.5L 37.5 -1.5L 0 -1.5L 0 1.5Z"/>
<path id="path19_stroke" d="M 0 -1.5C -0.828427 -1.5 -1.5 -0.828427 -1.5 0C -1.5 0.828427 -0.828427 1.5 0 1.5L 0 -1.5ZM 124 1.5C 124.828 1.5 125.5 0.828427 125.5 0C 125.5 -0.828427 124.828 -1.5 124 -1.5L 124 1.5ZM 0 1.5L 124 1.5L 124 -1.5L 0 -1.5L 0 1.5Z"/>
<path id="path20_stroke" d="M 0 2.45714L -0.0544201 1.96011C -0.315799 1.98873 -0.510352 2.21491 -0.49958 2.47763L 0 2.45714ZM 1.66234 43L 1.16276 43.0205C 1.17407 43.2963 1.40675 43.5108 1.68257 43.4996L 1.66234 43ZM 32 41.7714L 32.0202 42.271C 32.2883 42.2602 32.5 42.0397 32.5 41.7714L 32 41.7714ZM 32 10.6476L 32.5 10.6476C 32.5 10.5243 32.4544 10.4054 32.3721 10.3136L 32 10.6476ZM 22.4416 10.6476L 21.9416 10.6476C 21.9416 10.9238 22.1654 11.1476 22.4416 11.1476L 22.4416 10.6476ZM 22.4416 0L 22.8136 -0.334011C 22.706 -0.453877 22.5473 -0.514562 22.3871 -0.49703L 22.4416 0ZM -0.49958 2.47763L 1.16276 43.0205L 2.16192 42.9795L 0.49958 2.43666L -0.49958 2.47763ZM 1.68257 43.4996L 32.0202 42.271L 31.9798 41.2718L 1.64211 42.5004L 1.68257 43.4996ZM 32.5 41.7714L 32.5 10.6476L 31.5 10.6476L 31.5 41.7714L 32.5 41.7714ZM 32 10.1476L 22.4416 10.1476L 22.4416 11.1476L 32 11.1476L 32 10.1476ZM 22.9416 10.6476L 22.9416 0L 21.9416 0L 21.9416 10.6476L 22.9416 10.6476ZM 22.3871 -0.49703L -0.0544201 1.96011L 0.0544201 2.95417L 22.496 0.49703L 22.3871 -0.49703ZM 22.0695 0.334011L 31.6279 10.9816L 32.3721 10.3136L 22.8136 -0.334011L 22.0695 0.334011Z"/>
</defs>
</svg>
