<?xml version="1.0" encoding="utf-8"?>
<!-- Generator: Adobe Illustrator 19.1.0, SVG Export Plug-In . SVG Version: 6.00 Build 0)  -->
<svg version="1.1" id="Ebene_1" xmlns="http://www.w3.org/2000/svg" xmlns:xlink="http://www.w3.org/1999/xlink" x="0px" y="0px"
	 viewBox="712 -712.6 1503 1503" style="enable-background:new 712 -712.6 1503 1503;" xml:space="preserve">
<style type="text/css">
	.st0{clip-path:url(#SVGID_2_);}
	.st1{fill:#FFFFFF;}
	.st2{filter:url(#Adobe_OpacityMaskFilter);}
	.st3{mask:url(#mask0_outline_ins);}
	.st4{filter:url(#Adobe_OpacityMaskFilter_1_);}
	.st5{mask:url(#mask1_outline_ins);}
</style>
<title>episode0</title>
<desc>Created using Figma</desc>
<g id="Canvas" transform="matrix(3 0 0 3 0 0)">
	<g>
		<defs>
			<rect id="SVGID_1_" x="-262.3" y="-737.1" width="1500" height="1500"/>
		</defs>
		<clipPath id="SVGID_2_">
			<use xlink:href="#SVGID_1_"  style="overflow:visible;"/>
		</clipPath>
		<g id="episode0" class="st0">
			<g id="Group">
				<g id="Vector_2">
					<g transform="translate(206 39.4556)">
						<path id="path0_stroke" class="st1" d="M443.3-168l-0.9-0.3c-0.2,0.5,0.1,1,0.5,1.2L443.3-168z M467.8-156.5l-0.4,0.9
							c0.3,0.1,0.6,0.1,0.8,0c0.3-0.1,0.5-0.4,0.5-0.6L467.8-156.5z M473.3-106.5h-1c0,0.6,0.4,1,1,1V-106.5z M499.3-106.5v1
							c0.6,0,1-0.4,1-1H499.3z M523.3-139l-0.7-0.7l0,0L523.3-139z M514.8-190.5l-0.6,0.8L514.8-190.5z M461.8-191.5l0.5,0.9
							L461.8-191.5z M442.9-167.1l24.5,11.5l0.8-1.8l-24.5-11.5L442.9-167.1z M468.8-156.3c0.7-2.7,2.4-6.6,5.3-9.9
							c2.8-3.3,6.7-5.8,11.7-5.8v-2c-5.8,0-10.2,3-13.2,6.5c-3.1,3.6-4.9,7.9-5.7,10.7L468.8-156.3z M472.3-130.5
							c0,4.6,0,10.6,0,15.5c0,2.4,0,4.6,0,6.1c0,0.8,0,1.4,0,1.8c0,0.2,0,0.4,0,0.5c0,0.1,0,0.1,0,0.1c0,0,0,0,0,0c0,0,0,0,0,0
							c0,0,0,0,0,0c0,0,0,0,0,0c0,0,0,0,1,0s1,0,1,0c0,0,0,0,0,0c0,0,0,0,0,0c0,0,0,0,0,0c0,0,0,0,0,0c0,0,0-0.1,0-0.1
							c0-0.1,0-0.3,0-0.5c0-0.4,0-1,0-1.8c0-1.5,0-3.7,0-6.1c0-4.8,0-10.8,0-15.5H472.3z M473.3-105.5h26v-2h-26V-105.5z
							 M499.3-106.5c1,0,1,0,1,0v0c0,0,0,0,0,0c0,0,0,0,0,0c0,0,0,0,0,0c0,0,0,0,0,0c0,0,0-0.1,0-0.1c0-0.1,0-0.3,0-0.6
							c0-0.5,0-1.3,0-2.4c0-2.2,0-5.4,0-9.8h-2c0,4.4,0,7.6,0,9.8c0,1.1,0,1.9,0,2.4c0,0.3,0,0.5,0,0.6c0,0.1,0,0.1,0,0.1
							c0,0,0,0,0,0c0,0,0,0,0,0c0,0,0,0,0,0c0,0,0,0,0,0v0C498.3-106.5,498.3-106.5,499.3-106.5z M500.3-119.5
							c0-2.6,0.7-4.1,1.7-5.2c1.1-1.2,2.8-2,5-2.9c4.4-1.9,10.6-4.1,17-10.7l-1.4-1.4c-6.1,6.4-11.9,8.4-16.4,10.3
							c-2.2,0.9-4.2,1.9-5.7,3.4c-1.5,1.6-2.3,3.6-2.3,6.6H500.3z M524.1-138.3c4.5-4.7,9.1-13.3,9.1-23.1c0.1-9.9-4.4-20.8-17.8-30
							l-1.1,1.6c12.9,8.8,17,19.2,16.9,28.3c-0.1,9.2-4.4,17.3-8.6,21.7L524.1-138.3z M515.4-191.4c-16.1-11.1-40.2-9.2-54.1-1
							l1,1.7c13.4-7.8,36.5-9.6,51.9,1L515.4-191.4z M461.3-192.4c-6.6,3.9-11.4,9.9-14.4,14.9c-1.5,2.5-2.7,4.8-3.4,6.4
							c-0.4,0.8-0.7,1.5-0.8,2c-0.1,0.2-0.2,0.4-0.2,0.5c0,0.1,0,0.1-0.1,0.1c0,0,0,0,0,0c0,0,0,0,0,0c0,0,0,0,0,0c0,0,0,0,0,0
							c0,0,0,0,0.9,0.3c0.9,0.3,0.9,0.3,0.9,0.3c0,0,0,0,0,0c0,0,0,0,0,0c0,0,0,0,0,0c0,0,0,0,0,0c0,0,0-0.1,0-0.1
							c0-0.1,0.1-0.3,0.2-0.5c0.2-0.4,0.4-1.1,0.8-1.9c0.7-1.6,1.8-3.8,3.3-6.2c3-4.9,7.5-10.6,13.7-14.2L461.3-192.4z M486.4-146.4
							c-3.3,1.8-6.8,3.7-9.5,6.2c-2.7,2.5-4.6,5.6-4.6,9.7h2c0-3.4,1.5-6,3.9-8.2c2.5-2.3,5.7-4.1,9.1-5.9L486.4-146.4z M485.8-172
							c3.9,0,7,1,9.2,2.9c2.1,1.9,3.3,4.7,3.3,8.6h2c0-4.4-1.4-7.8-4-10.1c-2.6-2.3-6.2-3.4-10.5-3.4V-172z M498.3-160.5
							c0,3.9-1.3,6.5-3.4,8.5c-2.2,2.2-5.2,3.7-8.5,5.5l1,1.8c3.3-1.8,6.6-3.5,9-5.9c2.5-2.4,4-5.5,4-10H498.3z"/>
					</g>
				</g>
				<g id="Ellipse">
					<g transform="translate(231 139.5)">
						<path id="path1_stroke" class="st1" d="M504.3-79.5c0,9.7-7.8,17.5-17.5,17.5v2c10.8,0,19.5-8.7,19.5-19.5H504.3z M486.8-62
							c-9.7,0-17.5-7.8-17.5-17.5h-2c0,10.8,8.7,19.5,19.5,19.5V-62z M469.3-79.5c0-9.7,7.8-17.5,17.5-17.5v-2
							c-10.8,0-19.5,8.7-19.5,19.5H469.3z M486.8-97c9.7,0,17.5,7.8,17.5,17.5h2c0-10.8-8.7-19.5-19.5-19.5V-97z"/>
					</g>
				</g>
			</g>
			<g id="Vector_3">
				<g transform="matrix(-1 0 0 1 105.028 387)">
					<path id="path2_stroke" class="st1" d="M340.8,158.2c0.3,0.5,0.2,1.1-0.3,1.4c-0.5,0.3-1.1,0.2-1.4-0.3L340.8,158.2z
						 M340.8,194.8l-0.9-0.4L340.8,194.8z M341.3,188.6c-0.2-0.5,0.1-1.1,0.7-1.3c0.5-0.2,1.1,0.1,1.3,0.7L341.3,188.6z
						 M339.1,159.3c-0.8-1.2-1.4-2.4-2-3.5c-0.6-1.1-1.2-2-2-2.8c-1.6-1.5-4-2.7-9-2.5l-0.1-2c5.3-0.1,8.3,1.1,10.4,3.1
						c1,1,1.7,2.1,2.4,3.3c0.6,1.1,1.2,2.3,1.9,3.4L339.1,159.3z M326.1,150.5c-4.7,0.1-9.2,3.6-12,8.7c-2.8,5.1-3.8,11.8-1.6,18.1
						l-1.9,0.7c-2.4-6.9-1.3-14.1,1.7-19.7c3-5.6,8.1-9.6,13.7-9.8L326.1,150.5z M312.5,177.3c2.2,6.3,5.8,9.3,8.9,11.1
						c1.6,0.9,3.1,1.5,4.4,2.1c0.6,0.3,1.2,0.6,1.7,0.9c0.5,0.3,1,0.8,1.2,1.3l-1.8,0.9c-0.1-0.1-0.2-0.3-0.6-0.6
						c-0.4-0.3-0.8-0.5-1.4-0.8c-1.2-0.6-2.8-1.2-4.5-2.2c-3.5-2-7.4-5.4-9.8-12.2L312.5,177.3z M328.8,192.8
						c0.2,0.5,0.9,1.1,1.9,1.7c1,0.6,2.2,1.1,3.5,1.4c2.7,0.6,4.8,0.2,5.7-1.6l1.8,0.9c-1.6,3.1-5.1,3.3-8,2.6
						c-1.5-0.3-2.9-1-4.1-1.7c-1.1-0.7-2.2-1.6-2.6-2.6L328.8,192.8z M339.9,194.3c1.9-3.7,1.4-5.6,1.3-5.8l1.9-0.6
						c0.2,0.8,0.6,3.2-1.5,7.3L339.9,194.3z"/>
				</g>
			</g>
			<g id="Vector_3_1_">
				<g transform="matrix(-1 0 0 1 102 392)">
					<path id="path3_stroke" class="st1" d="M333.8,173.4c-0.2,0.2-0.5,0.2-0.7,0.1c-0.2-0.2-0.2-0.5-0.1-0.7L333.8,173.4z
						 M325.7,154.8l0.2,0.5L325.7,154.8z M314.5,167.9l0.5,0.1L314.5,167.9z M321.8,184.6c0.3,0.1,0.4,0.4,0.3,0.6
						c-0.1,0.3-0.4,0.4-0.6,0.3L321.8,184.6z M335.1,168.5c0.3,0,0.5,0.3,0.4,0.6s-0.3,0.5-0.6,0.4L335.1,168.5z M325.7,167.9
						l0.4,0.3L325.7,167.9z M339.3,183.4l-0.5,0.1L339.3,183.4z M333.5,178l0.5-0.1l0,0v0H333.5z M337.8,171.9
						c0.3,0,0.5,0.3,0.5,0.5c0,0.3-0.3,0.5-0.5,0.5L337.8,171.9z M333.1,172.8c0.4-0.5,1-1,1.5-1.6c0.6-0.6,1.2-1.2,1.7-1.8
						c1.1-1.3,1.6-2.5,0.9-3.6l0.9-0.5c1,1.7,0.1,3.4-1,4.7c-0.6,0.7-1.2,1.3-1.8,1.9c-0.6,0.6-1.1,1.1-1.5,1.5L333.1,172.8z
						 M337.3,165.8c-0.4-0.7-0.9-1.9-1.6-3.2c-0.6-1.3-1.4-2.7-2.3-4c-0.9-1.3-2-2.4-3.2-3c-1.2-0.6-2.6-0.8-4.3-0.3l-0.3-1
						c1.9-0.6,3.6-0.4,5.1,0.3c1.4,0.7,2.6,2,3.6,3.3c1,1.3,1.8,2.8,2.4,4.2c0.6,1.3,1.1,2.5,1.5,3.1L337.3,165.8z M325.8,155.3
						c-3.6,1.1-5.9,2.3-7.5,4.1c-1.6,1.8-2.6,4.4-3.3,8.6l-1-0.2c0.7-4.2,1.7-7,3.5-9.1c1.8-2,4.4-3.3,8-4.4L325.8,155.3z M315,168
						c-0.5,2.8-0.1,6.5,1.1,9.8c1.2,3.3,3.1,6,5.7,6.9l-0.3,0.9c-3-1-5.1-4.1-6.4-7.5c-1.2-3.4-1.6-7.3-1.1-10.3L315,168z
						 M335,169.5c-0.8-0.1-1.6-0.4-2.5-0.8c-0.9-0.4-1.7-0.8-2.6-1.1c-0.8-0.3-1.6-0.5-2.3-0.4c-0.6,0.1-1.2,0.3-1.6,1l-0.8-0.5
						c0.6-1,1.4-1.4,2.3-1.5c0.9-0.1,1.8,0.2,2.7,0.5c0.9,0.3,1.8,0.8,2.6,1.2c0.8,0.4,1.6,0.7,2.2,0.7L335,169.5z M326.1,168.2
						c-2.6,4.1-2.6,8.9-1.6,11.1l-0.9,0.4c-1.2-2.6-1.1-7.8,1.7-12.1L326.1,168.2z M324.5,179.3c0.3,0.6,0.5,1.2,0.7,1.6
						c0.2,0.4,0.3,0.7,0.5,0.9c0.4,0.3,1.1,0.5,3.1,0.4l0.1,1c-2,0.2-3.1,0-3.9-0.6c-0.3-0.3-0.6-0.7-0.8-1.2
						c-0.2-0.4-0.4-1-0.6-1.6L324.5,179.3z M328.8,182.1c1-0.1,1.7-0.1,2.2-0.1c0.5,0,0.9,0.1,1.3,0.3c0.3,0.2,0.6,0.5,0.9,0.9
						c0.3,0.4,0.7,0.9,1.4,1.5l-0.7,0.7c-0.7-0.7-1.1-1.2-1.4-1.6c-0.3-0.4-0.5-0.6-0.7-0.7c-0.1-0.1-0.3-0.2-0.8-0.2
						c-0.5,0-1.1,0-2.1,0.1L328.8,182.1z M334.6,184.7c1.2,1.2,2.4,1.4,3.2,1.1c0.7-0.3,1.2-1.1,1-2.3l1-0.2c0.3,1.6-0.3,3-1.6,3.4
						c-1.2,0.5-2.8,0-4.3-1.4L334.6,184.7z M338.8,183.5c-0.2-0.8-0.6-1.3-1-1.6c-0.5-0.4-1.1-0.5-1.8-0.8c-0.7-0.2-1.4-0.4-2-0.9
						c-0.6-0.5-1-1.2-1-2.3h1c0,0.8,0.3,1.2,0.6,1.5c0.4,0.3,0.9,0.5,1.6,0.7c0.7,0.2,1.4,0.4,2.1,0.9c0.7,0.5,1.2,1.2,1.4,2.2
						L338.8,183.5z M333,178.1c-0.3-1.5,0.7-3.1,1.8-4.2c0.5-0.6,1.1-1.1,1.6-1.4c0.3-0.2,0.5-0.3,0.7-0.4c0.2-0.1,0.5-0.2,0.7-0.2
						l-0.1,1c0,0-0.1,0-0.2,0.1c-0.2,0.1-0.3,0.2-0.6,0.3c-0.5,0.3-1,0.7-1.4,1.3c-1,1.1-1.7,2.4-1.5,3.4L333,178.1z"/>
				</g>
			</g>
			<g id="Ellipse_2">
				<defs>
					<filter id="Adobe_OpacityMaskFilter" filterUnits="userSpaceOnUse" x="613.3" y="137.5" width="72" height="72">
						<feColorMatrix  type="matrix" values="1 0 0 0 0  0 1 0 0 0  0 0 1 0 0  0 0 0 1 0"/>
					</filter>
				</defs>
				<mask maskUnits="userSpaceOnUse" x="613.3" y="137.5" width="72" height="72" id="mask0_outline_ins">
					<g transform="translate(377 376)" class="st2">
						<path id="path4_fill" class="st1" d="M684.3,173.5c0,19.3-15.7,35-35,35c-19.3,0-35-15.7-35-35s15.7-35,35-35
							C668.7,138.5,684.3,154.1,684.3,173.5z"/>
					</g>
				</mask>
				<g class="st3">
					<g transform="translate(377 376)">
						<path id="path5_stroke_2x" class="st1" d="M683.3,173.5c0,18.8-15.2,34-34,34v2c19.9,0,36-16.1,36-36H683.3z M649.3,207.5
							c-18.8,0-34-15.2-34-34h-2c0,19.9,16.1,36,36,36V207.5z M615.3,173.5c0-18.8,15.2-34,34-34v-2c-19.9,0-36,16.1-36,36H615.3z
							 M649.3,139.5c18.8,0,34,15.2,34,34h2c0-19.9-16.1-36-36-36V139.5z"/>
					</g>
				</g>
			</g>
			<g id="Ellipse_2_1_">
				<defs>
					<filter id="Adobe_OpacityMaskFilter_1_" filterUnits="userSpaceOnUse" x="293.3" y="137.5" width="72" height="72">
						<feColorMatrix  type="matrix" values="1 0 0 0 0  0 1 0 0 0  0 0 1 0 0  0 0 0 1 0"/>
					</filter>
				</defs>
				<mask maskUnits="userSpaceOnUse" x="293.3" y="137.5" width="72" height="72" id="mask1_outline_ins">
					<g transform="translate(57 376)" class="st4">
						<path id="path4_fill_1_" class="st1" d="M364.3,173.5c0,19.3-15.7,35-35,35c-19.3,0-35-15.7-35-35s15.7-35,35-35
							C348.7,138.5,364.3,154.1,364.3,173.5z"/>
					</g>
				</mask>
				<g class="st5">
					<g transform="translate(57 376)">
						<path id="path5_stroke_2x_1_" class="st1" d="M363.3,173.5c0,18.8-15.2,34-34,34v2c19.9,0,36-16.1,36-36H363.3z M329.3,207.5
							c-18.8,0-34-15.2-34-34h-2c0,19.9,16.1,36,36,36V207.5z M295.3,173.5c0-18.8,15.2-34,34-34v-2c-19.9,0-36,16.1-36,36H295.3z
							 M329.3,139.5c18.8,0,34,15.2,34,34h2c0-19.9-16.1-36-36-36V139.5z"/>
					</g>
				</g>
			</g>
			<g id="Vector_4">
				<g transform="translate(408.334 406.638)">
					<path id="path6_stroke" class="st1" d="M645.7,186.6v-0.5h-0.5v0.5H645.7z M657,186.6h0.5v-0.5H657V186.6z M645.7,195.1h-0.5
						v0.6l0.6-0.1L645.7,195.1z M657,193l0.1,0.5l0.4-0.1V193H657z M648.3,171.2l0.2-0.5l-0.8-0.3l0.1,0.8L648.3,171.2z
						 M650.4,172.1l-0.2,0.5l0.3,0.1l0.2-0.2L650.4,172.1z M654.4,169.1l0.5,0l0.1-1.1l-0.9,0.7L654.4,169.1z M646.2,190.4
						c0-1.2,0-2.5,0-3.7h-1c0,1.2,0,2.5,0,3.7H646.2z M656.5,186.6c0,0.6,0,1.3,0,1.9h1c0-0.6,0-1.2,0-1.9H656.5z M645.7,190.9
						l11.3-1.9l-0.2-1l-11.3,1.9L645.7,190.9z M646.2,193c0-0.8,0-1.7,0-2.6h-1c0,0.9,0,1.8,0,2.6H646.2z M656.5,188.5
						c0,0.6,0,1.3,0,1.9h1c0-0.6,0-1.2,0-1.9H656.5z M645.8,193.5l11.3-2.6l-0.2-1l-11.3,2.6L645.8,193.5z M646.2,195.1
						c0-0.6,0-1.3,0-2.1h-1c0,0.8,0,1.5,0,2.1H646.2z M656.5,190.4c0,0.9,0,1.8,0,2.6h1c0-0.8,0-1.7,0-2.6H656.5z M645.8,195.6
						l11.3-2.1l-0.2-1l-11.3,2.1L645.8,195.6z M645.7,187.1h3.8v-1h-3.8V187.1z M649.9,186.6l-1.2-15.4l-1,0.1l1.2,15.4L649.9,186.6
						z M648.1,171.7l2.1,0.9l0.4-0.9l-2.1-0.9L648.1,171.7z M650.7,172.5l4-3l-0.6-0.8l-4,3L650.7,172.5z M649.4,187.1h3.8v-1h-3.8
						V187.1z M653.2,187.1h3.8v-1h-3.8V187.1z M653.9,169.1l-1.2,17.6l1,0.1l1.2-17.6L653.9,169.1z"/>
				</g>
			</g>
			<g id="Vector_4_1_">
				<g transform="translate(395.853 386.031)">
					<path id="path7_stroke" class="st1" d="M645.7,196.2h-1c0,0.3,0.1,0.6,0.3,0.7L645.7,196.2z M657,196.2l0.5,0.8
						c0.3-0.2,0.5-0.5,0.5-0.8H657z M650.4,200.5l-0.7,0.7c0.3,0.3,0.8,0.3,1.2,0.1L650.4,200.5z M646.7,186.6
						c0-1.7-1.2-2.7-2.4-3.5c-1.2-0.8-2.8-1.5-4.3-2.4c-1.5-0.9-2.9-1.8-4-3.2c-1.1-1.4-1.8-3-1.7-5.4h-2c0,2.8,0.9,5,2.2,6.6
						c1.3,1.6,3,2.8,4.6,3.7c1.6,0.9,3.1,1.6,4.2,2.3c1.1,0.7,1.5,1.3,1.5,1.9H646.7z M634.2,172.1c0-5.3,0.4-11.1,2.7-15.5
						c2.2-4.3,6.1-7.4,13.5-7.1l0.1-2c-8.1-0.2-12.8,3.2-15.3,8.2c-2.5,4.9-2.9,11.1-2.9,16.4H634.2z M650.3,149.5
						c7.4,0.2,11.3,3.4,13.4,7.6c2.2,4.3,2.5,9.9,2.5,15.1h2c0-5.2-0.3-11.2-2.8-16c-2.5-4.9-7.1-8.4-15.2-8.7L650.3,149.5z
						 M666.3,172.1c0,2.4-0.6,4.1-1.4,5.3c-0.9,1.3-2,2.2-3.3,3c-1.3,0.8-2.6,1.5-3.6,2.4c-1.1,0.9-2,2.1-2,3.8h2
						c0-0.9,0.4-1.5,1.3-2.2c0.9-0.7,2.1-1.4,3.5-2.3c1.3-0.9,2.8-2,3.8-3.6c1.1-1.6,1.8-3.7,1.8-6.4H666.3z M645,197l4.7,4.2
						l1.3-1.5l-4.7-4.2L645,197z M650.9,201.3l6.6-4.2l-1.1-1.7l-6.6,4.2L650.9,201.3z M644.7,186.6v9.6h2v-9.6H644.7z M656,186.6
						v9.6h2v-9.6H656z"/>
				</g>
			</g>
			<g id="Vector_5">
				<g transform="translate(126 -45)">
					<path id="path8_stroke" class="st1" d="M483.3-30c0-0.3-0.2-0.5-0.5-0.5s-0.5,0.2-0.5,0.5H483.3z M482.3,23.5
						c0,0.3,0.2,0.5,0.5,0.5s0.5-0.2,0.5-0.5H482.3z M445.1-79.1c0.2-0.1,0.4-0.4,0.2-0.7c-0.1-0.2-0.4-0.4-0.7-0.2L445.1-79.1z
						 M376.1-47c-0.2,0.1-0.4,0.4-0.2,0.7c0.1,0.2,0.4,0.4,0.7,0.2L376.1-47z M444.9-109c0.3,0,0.5-0.3,0.4-0.6
						c0-0.3-0.3-0.5-0.6-0.4L444.9-109z M376.3-102.5c-0.3,0-0.5,0.3-0.4,0.6c0,0.3,0.3,0.5,0.6,0.4L376.3-102.5z M435.1-148.1
						c0.3,0.1,0.5,0,0.7-0.3c0.1-0.3,0-0.5-0.3-0.7L435.1-148.1z M363.5-181c-0.3-0.1-0.5,0-0.7,0.3s0,0.5,0.3,0.7L363.5-181z
						 M427-188.6c0.2,0.2,0.5,0.1,0.7-0.1s0.1-0.5-0.1-0.7L427-188.6z M383.6-221.4c-0.2-0.2-0.5-0.1-0.7,0.1
						c-0.2,0.2-0.1,0.5,0.1,0.7L383.6-221.4z M453.9-214.8c0.2,0.2,0.5,0.3,0.7,0.1c0.2-0.2,0.3-0.5,0.1-0.7L453.9-214.8z
						 M427.8-256.8c-0.2-0.2-0.5-0.3-0.7-0.1c-0.2,0.2-0.3,0.5-0.1,0.7L427.8-256.8z M490.8-221c0,0.3,0.2,0.5,0.5,0.5
						s0.5-0.2,0.5-0.5H490.8z M491.8-265c0-0.3-0.2-0.5-0.5-0.5s-0.5,0.2-0.5,0.5H491.8z M536-215.4c-0.2,0.2-0.2,0.5,0,0.7
						c0.2,0.2,0.5,0.2,0.7,0L536-215.4z M611.7-282.2c0.2-0.2,0.2-0.5,0-0.7c-0.2-0.2-0.5-0.2-0.7,0L611.7-282.2z M562.2-181
						c-0.3,0.1-0.4,0.4-0.3,0.6s0.4,0.4,0.6,0.3L562.2-181z M634-205.1c0.3-0.1,0.4-0.4,0.3-0.6c-0.1-0.3-0.4-0.4-0.6-0.3L634-205.1
						z M562.3-149c-0.3,0-0.5,0.2-0.5,0.5s0.2,0.5,0.5,0.5V-149z M611.3-148c0.3,0,0.5-0.2,0.5-0.5s-0.2-0.5-0.5-0.5V-148z M552-117
						c-0.3-0.1-0.5,0-0.7,0.3c-0.1,0.3,0,0.5,0.3,0.7L552-117z M585.1-101.6c0.3,0.1,0.5,0,0.7-0.3c0.1-0.3,0-0.5-0.3-0.7
						L585.1-101.6z M536.7-79.9c-0.2-0.2-0.5-0.2-0.7,0c-0.2,0.2-0.2,0.5,0,0.7L536.7-79.9z M611-11.7c0.2,0.2,0.5,0.2,0.7,0
						c0.2-0.2,0.2-0.5,0-0.7L611-11.7z M482.3-30v53.5h1V-30H482.3z M444.6-80l-68.5,33l0.4,0.9l68.5-33L444.6-80z M444.8-110
						l-68.5,7.5l0.1,1l68.5-7.5L444.8-110z M435.5-149l-72-32l-0.4,0.9l72,32L435.5-149z M427.6-189.4l-44-32l-0.6,0.8l44,32
						L427.6-189.4z M454.8-215.3l-27-41.5l-0.8,0.5l27,41.5L454.8-215.3z M491.8-221v-44h-1v44H491.8z M536.7-214.7l75-67.5
						l-0.7-0.7l-75,67.5L536.7-214.7z M562.5-180.1l71.5-25l-0.3-0.9l-71.5,25L562.5-180.1z M562.3-148h49v-1h-49V-148z
						 M551.6-116.1l33.5,14.5l0.4-0.9L552-117L551.6-116.1z M536-79.2l75,67.5l0.7-0.7l-75-67.5L536-79.2z"/>
				</g>
			</g>
			<g id="Union">
				<g transform="translate(164 226)">
					<path id="path9_fill" class="st1" d="M403.3-9.5h2v10h-2V-9.5z M401.3-9.5c0-1.1,0.9-2,2-2h2c1.1,0,2,0.9,2,2v10
						c0,1.1-0.9,2-2,2h-2c-1.1,0-2-0.9-2-2V-9.5z M455.3-9.5h2v10h-2V-9.5z M453.3-9.5c0-1.1,0.9-2,2-2h2c1.1,0,2,0.9,2,2v10
						c0,1.1-0.9,2-2,2h-2c-1.1,0-2-0.9-2-2V-9.5z"/>
				</g>
			</g>
			<g id="Vector_6">
				<g transform="translate(162.656 183.5)">
					<path id="path10_stroke" class="st1" d="M400.8-8.9c0.1,0.3,0.3,0.4,0.6,0.4c0.3-0.1,0.4-0.3,0.4-0.6L400.8-8.9z M458.8-9.1
						c0,0.3,0.2,0.5,0.4,0.6c0.3,0,0.5-0.2,0.6-0.4L458.8-9.1z M401.8-9.2c-1.9-7.4-2.1-18.6,1.8-27.8c3.9-9.2,11.9-16.6,26.7-16.6
						v-1c-15.2,0-23.6,7.6-27.6,17.2c-4,9.5-3.8,20.9-1.8,28.4L401.8-9.2z M430.3-53.5c7.4,0,13,1.9,17.2,4.8c4.2,3,7,7.1,8.8,11.7
						c3.7,9.3,3.4,20.4,2.5,27.9l1,0.1c0.9-7.5,1.2-18.9-2.6-28.4c-1.9-4.7-4.8-9.1-9.2-12.2c-4.4-3.1-10.1-5-17.7-5V-53.5z"/>
				</g>
			</g>
			<g id="Vector_6_1_">
				<g transform="translate(268 196)">
					<path id="path11_stroke" class="st1" d="M506.1,2.6c0.1,0.3,0.3,0.4,0.6,0.4c0.3-0.1,0.4-0.3,0.4-0.6L506.1,2.6z M561.3,2.4
						c0,0.3,0.2,0.5,0.4,0.6c0.3,0,0.5-0.2,0.6-0.4L561.3,2.4z M507.1,2.3c-1.8-7.3-2.1-18.1,1.7-27.2c3.7-9,11.4-16.2,25.4-16.2v-1
						c-14.5,0-22.5,7.5-26.3,16.8c-3.8,9.3-3.6,20.4-1.7,27.8L507.1,2.3z M534.2-41c7,0,12.3,1.8,16.3,4.7c4,2.9,6.6,6.9,8.4,11.5
						c3.5,9.1,3.3,20,2.4,27.3l1,0.1c0.9-7.4,1.1-18.5-2.5-27.7c-1.8-4.6-4.6-8.9-8.7-11.9c-4.2-3.1-9.7-4.9-16.9-4.9V-41z"/>
				</g>
			</g>
			<g id="Union_1_">
				<g transform="translate(269 236)">
					<path id="path12_fill" class="st1" d="M508.3,0.5h2v10h-2V0.5z M506.3,0.5c0-1.1,0.9-2,2-2h2c1.1,0,2,0.9,2,2v10
						c0,1.1-0.9,2-2,2h-2c-1.1,0-2-0.9-2-2V0.5z M558.3,0.5h2v10h-2V0.5z M556.3,0.5c0-1.1,0.9-2,2-2h2c1.1,0,2,0.9,2,2v10
						c0,1.1-0.9,2-2,2h-2c-1.1,0-2-0.9-2-2V0.5z"/>
				</g>
			</g>
			<g id="Vector_7">
				<g transform="translate(124 376)">
					<path id="path13_stroke" class="st1" d="M360.8,159.6c-0.5,0.3-0.6,0.9-0.4,1.4c0.3,0.5,0.9,0.6,1.4,0.4L360.8,159.6z
						 M596.5,161.4c0.5-0.1,0.9-0.6,0.8-1.2l-1.8-8.8c-0.1-0.5-0.6-0.9-1.2-0.8s-0.9,0.6-0.8,1.2l1.6,7.8l-7.8,1.6
						c-0.5,0.1-0.9,0.6-0.8,1.2c0.1,0.5,0.6,0.9,1.2,0.8L596.5,161.4z M361.3,160.5c0.5,0.9,0.5,0.9,0.5,0.9c0,0,0,0,0,0
						c0,0,0,0,0,0c0,0,0,0,0,0c0,0,0,0,0.1,0c0.1,0,0.1-0.1,0.3-0.1c0.2-0.1,0.6-0.3,1.1-0.6c1-0.5,2.5-1.2,4.5-2
						c4.1-1.7,10.4-4,19.3-6.5c17.9-4.9,46-10.3,87.4-12.2l-0.1-2c-41.5,2-69.9,7.4-87.9,12.3c-9,2.5-15.4,4.8-19.6,6.6
						c-2.1,0.9-3.6,1.6-4.6,2.1c-0.5,0.3-0.9,0.5-1.1,0.6c-0.1,0.1-0.2,0.1-0.3,0.2c0,0-0.1,0-0.1,0c0,0,0,0,0,0c0,0,0,0,0,0
						c0,0,0,0,0,0C360.8,159.6,360.8,159.6,361.3,160.5z M474.5,139.9c41.3-1.9,71.6,3.4,91.7,9.3c10,2.9,17.4,6,22.3,8.3
						c2.5,1.2,4.3,2.1,5.5,2.8c0.6,0.3,1,0.6,1.3,0.8c0.1,0.1,0.3,0.2,0.3,0.2c0,0,0.1,0,0.1,0.1c0,0,0,0,0,0c0,0,0,0,0,0
						c0,0,0,0,0,0c0,0,0,0,0.5-0.8s0.5-0.8,0.5-0.8c0,0,0,0,0,0c0,0,0,0,0,0c0,0,0,0,0,0c0,0-0.1,0-0.1-0.1c-0.1,0-0.2-0.1-0.4-0.2
						c-0.3-0.2-0.8-0.5-1.4-0.8c-1.2-0.7-3.1-1.7-5.6-2.9c-5-2.3-12.5-5.4-22.6-8.4c-20.2-5.9-50.8-11.3-92.4-9.4L474.5,139.9z"/>
				</g>
			</g>
		</g>
	</g>
</g>
</svg>
