<?xml version="1.0" encoding="utf-8"?>
<!-- Generator: Adobe Illustrator 19.1.0, SVG Export Plug-In . SVG Version: 6.00 Build 0)  -->
<svg version="1.1" id="Ebene_1" xmlns:figma="http://www.figma.com/figma/ns"
	 xmlns="http://www.w3.org/2000/svg" xmlns:xlink="http://www.w3.org/1999/xlink" x="0px" y="0px" viewBox="454 -331.1 1503 1503"
	 style="enable-background:new 454 -331.1 1503 1503;" xml:space="preserve">
<style type="text/css">
	.st0{fill:#FFFFFF;filter:url(#Adobe_OpacityMaskFilter);}
	.st1{mask:url(#mask0_alpha);}
	.st2{fill:#FFFFFF;}
	.st3{filter:url(#Adobe_OpacityMaskFilter_1_);}
	.st4{mask:url(#mask1_outline_ins);}
	.st5{filter:url(#Adobe_OpacityMaskFilter_2_);}
	.st6{mask:url(#mask2_outline_ins);}
</style>
<g id="Canvas" transform="matrix(3 0 0 3 0 0)" figma:type="canvas">
	<defs>
		<filter id="Adobe_OpacityMaskFilter" filterUnits="userSpaceOnUse" x="207.3" y="-155.9" width="392" height="492.5">
			<feColorMatrix  type="matrix" values="1 0 0 0 0  0 1 0 0 0  0 0 1 0 0  0 0 0 1 0"/>
		</filter>
	</defs>
	<mask maskUnits="userSpaceOnUse" x="207.3" y="-155.9" width="392" height="492.5" id="mask0_alpha">
		<path class="st0" d="M151.7-109.9h500v500h-500V-109.9z"/>
	</mask>
	<g id="episode0" figma:type="frame" class="st1">
		<g id="Group" figma:type="frame">
			<g id="Vector_2" figma:type="vector">
				<g transform="translate(206 39.4556)">
					<path id="path3_stroke" class="st2" d="M357.3-40.9l-0.9-0.3c-0.2,0.5,0.1,1,0.5,1.2L357.3-40.9z M381.8-29.4l-0.4,0.9
						c0.3,0.1,0.6,0.1,0.8,0c0.3-0.1,0.5-0.4,0.5-0.6L381.8-29.4z M387.3,20.6h-1c0,0.6,0.4,1,1,1V20.6z M413.3,20.6v1
						c0.6,0,1-0.4,1-1H413.3z M437.3-11.9l-0.7-0.7l0,0L437.3-11.9z M428.8-63.4l-0.6,0.8L428.8-63.4z M375.8-64.4l0.5,0.9
						L375.8-64.4z M356.9-40l24.5,11.5l0.8-1.8l-24.5-11.5L356.9-40z M382.8-29.1c0.7-2.7,2.4-6.6,5.3-9.9c2.8-3.3,6.7-5.8,11.7-5.8
						v-2c-5.8,0-10.2,3-13.2,6.5c-3.1,3.6-4.9,7.9-5.7,10.7L382.8-29.1z M386.3-3.4c0,4.6,0,10.6,0,15.5c0,2.4,0,4.6,0,6.1
						c0,0.8,0,1.4,0,1.8c0,0.2,0,0.4,0,0.5c0,0.1,0,0.1,0,0.1c0,0,0,0,0,0c0,0,0,0,0,0c0,0,0,0,0,0c0,0,0,0,0,0c0,0,0,0,1,0s1,0,1,0
						c0,0,0,0,0,0c0,0,0,0,0,0c0,0,0,0,0,0c0,0,0,0,0,0c0,0,0-0.1,0-0.1c0-0.1,0-0.3,0-0.5c0-0.4,0-1,0-1.8c0-1.5,0-3.7,0-6.1
						c0-4.8,0-10.8,0-15.5H386.3z M387.3,21.6h26v-2h-26V21.6z M413.3,20.6c1,0,1,0,1,0v0c0,0,0,0,0,0c0,0,0,0,0,0c0,0,0,0,0,0
						c0,0,0,0,0,0c0,0,0-0.1,0-0.1c0-0.1,0-0.3,0-0.6c0-0.5,0-1.3,0-2.4c0-2.2,0-5.4,0-9.8h-2c0,4.4,0,7.6,0,9.8c0,1.1,0,1.9,0,2.4
						c0,0.3,0,0.5,0,0.6c0,0.1,0,0.1,0,0.1c0,0,0,0,0,0c0,0,0,0,0,0c0,0,0,0,0,0c0,0,0,0,0,0v0C412.3,20.6,412.3,20.6,413.3,20.6z
						 M414.3,7.6c0-2.6,0.7-4.1,1.7-5.2c1.1-1.2,2.8-2,5-2.9c4.4-1.9,10.6-4.1,17-10.7l-1.4-1.4c-6.1,6.4-11.9,8.4-16.4,10.3
						c-2.2,0.9-4.2,1.9-5.7,3.4c-1.5,1.6-2.3,3.6-2.3,6.6H414.3z M438.1-11.2c4.5-4.7,9.1-13.3,9.1-23.1c0.1-9.9-4.4-20.8-17.8-30
						l-1.1,1.6c12.9,8.8,17,19.2,16.9,28.3c-0.1,9.2-4.4,17.3-8.6,21.7L438.1-11.2z M429.4-64.2c-16.1-11.1-40.2-9.2-54.1-1l1,1.7
						c13.4-7.8,36.5-9.6,51.9,1L429.4-64.2z M375.3-65.2c-6.6,3.9-11.4,9.9-14.4,14.9c-1.5,2.5-2.7,4.8-3.4,6.4
						c-0.4,0.8-0.7,1.5-0.8,2c-0.1,0.2-0.2,0.4-0.2,0.5c0,0.1,0,0.1-0.1,0.1c0,0,0,0,0,0c0,0,0,0,0,0c0,0,0,0,0,0c0,0,0,0,0,0
						c0,0,0,0,0.9,0.3c0.9,0.3,0.9,0.3,0.9,0.3c0,0,0,0,0,0c0,0,0,0,0,0c0,0,0,0,0,0c0,0,0,0,0,0c0,0,0-0.1,0-0.1
						c0-0.1,0.1-0.3,0.2-0.5c0.2-0.4,0.4-1.1,0.8-1.9c0.7-1.6,1.8-3.8,3.3-6.2c3-4.9,7.5-10.6,13.7-14.2L375.3-65.2z M400.4-19.3
						c-3.3,1.8-6.8,3.7-9.5,6.2c-2.7,2.5-4.6,5.6-4.6,9.7h2c0-3.4,1.5-6,3.9-8.2c2.5-2.3,5.7-4.1,9.1-5.9L400.4-19.3z M399.8-44.9
						c3.9,0,7,1,9.2,2.9c2.1,1.9,3.3,4.7,3.3,8.6h2c0-4.4-1.4-7.8-4-10.1c-2.6-2.3-6.2-3.4-10.5-3.4V-44.9z M412.3-33.3
						c0,3.9-1.3,6.5-3.4,8.5c-2.2,2.2-5.2,3.7-8.5,5.5l1,1.8c3.3-1.8,6.6-3.5,9-5.9c2.5-2.4,4-5.5,4-10H412.3z"/>
				</g>
			</g>
			<g id="Ellipse" figma:type="ellipse">
				<g transform="translate(231 139.5)">
					<path id="path4_stroke" class="st2" d="M418.3,47.6c0,9.7-7.8,17.5-17.5,17.5v2c10.8,0,19.5-8.7,19.5-19.5H418.3z M400.8,65.1
						c-9.7,0-17.5-7.8-17.5-17.5h-2c0,10.8,8.7,19.5,19.5,19.5V65.1z M383.3,47.6c0-9.7,7.8-17.5,17.5-17.5v-2
						c-10.8,0-19.5,8.7-19.5,19.5H383.3z M400.8,30.1c9.7,0,17.5,7.8,17.5,17.5h2c0-10.8-8.7-19.5-19.5-19.5V30.1z"/>
				</g>
			</g>
		</g>
		<g id="Vector_3" figma:type="vector">
			<g transform="matrix(-1 0 0 1 105.028 387)">
				<path id="path5_stroke" class="st2" d="M254.8,285.4c0.3,0.5,0.2,1.1-0.3,1.4c-0.5,0.3-1.1,0.2-1.4-0.3L254.8,285.4z M254.8,322
					l-0.9-0.4L254.8,322z M255.3,315.8c-0.2-0.5,0.1-1.1,0.7-1.3c0.5-0.2,1.1,0.1,1.3,0.7L255.3,315.8z M253.1,286.5
					c-0.8-1.2-1.4-2.4-2-3.5c-0.6-1.1-1.2-2-2-2.8c-1.6-1.5-4-2.7-9-2.5l-0.1-2c5.3-0.1,8.3,1.1,10.4,3.1c1,1,1.7,2.1,2.4,3.3
					c0.6,1.1,1.2,2.3,1.9,3.4L253.1,286.5z M240.1,277.6c-4.7,0.1-9.2,3.6-12,8.7c-2.8,5.1-3.8,11.8-1.6,18.1l-1.9,0.7
					c-2.4-6.9-1.3-14.1,1.7-19.7c3-5.6,8.1-9.6,13.7-9.8L240.1,277.6z M226.5,304.4c2.2,6.3,5.8,9.3,8.9,11.1
					c1.6,0.9,3.1,1.5,4.4,2.1c0.6,0.3,1.2,0.6,1.7,0.9c0.5,0.3,1,0.8,1.2,1.3l-1.8,0.9c-0.1-0.1-0.2-0.3-0.6-0.6
					c-0.4-0.3-0.8-0.5-1.4-0.8c-1.2-0.6-2.8-1.2-4.5-2.2c-3.5-2-7.4-5.4-9.8-12.2L226.5,304.4z M242.8,320c0.2,0.5,0.9,1.1,1.9,1.7
					c1,0.6,2.2,1.1,3.5,1.4c2.7,0.6,4.8,0.2,5.7-1.6l1.8,0.9c-1.6,3.1-5.1,3.3-8,2.6c-1.5-0.3-2.9-1-4.1-1.7
					c-1.1-0.7-2.2-1.6-2.6-2.6L242.8,320z M253.9,321.5c1.9-3.7,1.4-5.6,1.3-5.8l1.9-0.6c0.2,0.8,0.6,3.2-1.5,7.3L253.9,321.5z"/>
			</g>
		</g>
		<g id="Vector_3_1_" figma:type="vector">
			<g transform="matrix(-1 0 0 1 102 392)">
				<path id="path6_stroke" class="st2" d="M247.8,300.6c-0.2,0.2-0.5,0.2-0.7,0.1c-0.2-0.2-0.2-0.5-0.1-0.7L247.8,300.6z
					 M239.7,282l0.2,0.5L239.7,282z M228.5,295.1l0.5,0.1L228.5,295.1z M235.8,311.8c0.3,0.1,0.4,0.4,0.3,0.6
					c-0.1,0.3-0.4,0.4-0.6,0.3L235.8,311.8z M249.1,295.7c0.3,0,0.5,0.3,0.4,0.6c0,0.3-0.3,0.5-0.6,0.4L249.1,295.7z M239.7,295.1
					l0.4,0.3L239.7,295.1z M253.3,310.6l-0.5,0.1L253.3,310.6z M247.5,305.2l0.5-0.1l0,0v0H247.5z M251.8,299.1
					c0.3,0,0.5,0.3,0.5,0.5c0,0.3-0.3,0.5-0.5,0.5L251.8,299.1z M247.1,300c0.4-0.5,1-1,1.5-1.6c0.6-0.6,1.2-1.2,1.7-1.8
					c1.1-1.3,1.6-2.5,0.9-3.6l0.9-0.5c1,1.7,0.1,3.4-1,4.7c-0.6,0.7-1.2,1.3-1.8,1.9c-0.6,0.6-1.1,1.1-1.5,1.5L247.1,300z
					 M251.3,292.9c-0.4-0.7-0.9-1.9-1.6-3.2c-0.6-1.3-1.4-2.7-2.3-4c-0.9-1.3-2-2.4-3.2-3c-1.2-0.6-2.6-0.8-4.3-0.3l-0.3-1
					c1.9-0.6,3.6-0.4,5.1,0.3c1.4,0.7,2.6,2,3.6,3.3c1,1.3,1.8,2.8,2.4,4.2c0.6,1.3,1.1,2.5,1.5,3.1L251.3,292.9z M239.8,282.4
					c-3.6,1.1-5.9,2.3-7.5,4.1c-1.6,1.8-2.6,4.4-3.3,8.6l-1-0.2c0.7-4.2,1.7-7,3.5-9.1c1.8-2,4.4-3.3,8-4.4L239.8,282.4z M229,295.1
					c-0.5,2.8-0.1,6.5,1.1,9.8c1.2,3.3,3.1,6,5.7,6.9l-0.3,0.9c-3-1-5.1-4.1-6.4-7.5c-1.2-3.4-1.6-7.3-1.1-10.3L229,295.1z
					 M249,296.7c-0.8-0.1-1.6-0.4-2.5-0.8c-0.9-0.4-1.7-0.8-2.6-1.1c-0.8-0.3-1.6-0.5-2.3-0.4c-0.6,0.1-1.2,0.3-1.6,1l-0.8-0.5
					c0.6-1,1.4-1.4,2.3-1.5c0.9-0.1,1.8,0.2,2.7,0.5c0.9,0.3,1.8,0.8,2.6,1.2c0.8,0.4,1.6,0.7,2.2,0.7L249,296.7z M240.1,295.3
					c-2.6,4.1-2.6,8.9-1.6,11.1l-0.9,0.4c-1.2-2.6-1.1-7.8,1.7-12.1L240.1,295.3z M238.5,306.5c0.3,0.6,0.5,1.2,0.7,1.6
					c0.2,0.4,0.3,0.7,0.5,0.9c0.4,0.3,1.1,0.5,3.1,0.4l0.1,1c-2,0.2-3.1,0-3.9-0.6c-0.3-0.3-0.6-0.7-0.8-1.2c-0.2-0.4-0.4-1-0.6-1.6
					L238.5,306.5z M242.8,309.3c1-0.1,1.7-0.1,2.2-0.1c0.5,0,0.9,0.1,1.3,0.3c0.3,0.2,0.6,0.5,0.9,0.9c0.3,0.4,0.7,0.9,1.4,1.5
					l-0.7,0.7c-0.7-0.7-1.1-1.2-1.4-1.6c-0.3-0.4-0.5-0.6-0.7-0.7c-0.1-0.1-0.3-0.2-0.8-0.2c-0.5,0-1.1,0-2.1,0.1L242.8,309.3z
					 M248.6,311.9c1.2,1.2,2.4,1.4,3.2,1.1c0.7-0.3,1.2-1.1,1-2.3l1-0.2c0.3,1.6-0.3,3-1.6,3.4c-1.2,0.5-2.8,0-4.3-1.4L248.6,311.9z
					 M252.8,310.7c-0.2-0.8-0.6-1.3-1-1.6c-0.5-0.4-1.1-0.5-1.8-0.8c-0.7-0.2-1.4-0.4-2-0.9c-0.6-0.5-1-1.2-1-2.3h1
					c0,0.8,0.3,1.2,0.6,1.5c0.4,0.3,0.9,0.5,1.6,0.7c0.7,0.2,1.4,0.4,2.1,0.9c0.7,0.5,1.2,1.2,1.4,2.2L252.8,310.7z M247,305.3
					c-0.3-1.5,0.7-3.1,1.8-4.2c0.5-0.6,1.1-1.1,1.6-1.4c0.3-0.2,0.5-0.3,0.7-0.4c0.2-0.1,0.5-0.2,0.7-0.2l-0.1,1c0,0-0.1,0-0.2,0.1
					c-0.2,0.1-0.3,0.2-0.6,0.3c-0.5,0.3-1,0.7-1.4,1.3c-1,1.1-1.7,2.4-1.5,3.4L247,305.3z"/>
			</g>
		</g>
		<g id="Ellipse_2" figma:type="ellipse">
			<defs>
				<filter id="Adobe_OpacityMaskFilter_1_" filterUnits="userSpaceOnUse" x="527.3" y="264.6" width="72" height="72">
					<feColorMatrix  type="matrix" values="1 0 0 0 0  0 1 0 0 0  0 0 1 0 0  0 0 0 1 0"/>
				</filter>
			</defs>
			<mask maskUnits="userSpaceOnUse" x="527.3" y="264.6" width="72" height="72" id="mask1_outline_ins">
				<g transform="translate(377 376)" class="st3">
					<path id="path7_fill" class="st2" d="M598.3,300.6c0,19.3-15.7,35-35,35c-19.3,0-35-15.7-35-35c0-19.3,15.7-35,35-35
						C582.7,265.6,598.3,281.3,598.3,300.6z"/>
				</g>
			</mask>
			<g class="st4">
				<g transform="translate(377 376)">
					<path id="path8_stroke_2x" class="st2" d="M597.3,300.6c0,18.8-15.2,34-34,34v2c19.9,0,36-16.1,36-36H597.3z M563.3,334.6
						c-18.8,0-34-15.2-34-34h-2c0,19.9,16.1,36,36,36V334.6z M529.3,300.6c0-18.8,15.2-34,34-34v-2c-19.9,0-36,16.1-36,36H529.3z
						 M563.3,266.6c18.8,0,34,15.2,34,34h2c0-19.9-16.1-36-36-36V266.6z"/>
				</g>
			</g>
		</g>
		<g id="Ellipse_2_1_" figma:type="ellipse">
			<defs>
				<filter id="Adobe_OpacityMaskFilter_2_" filterUnits="userSpaceOnUse" x="207.3" y="264.6" width="72" height="72">
					<feColorMatrix  type="matrix" values="1 0 0 0 0  0 1 0 0 0  0 0 1 0 0  0 0 0 1 0"/>
				</filter>
			</defs>
			<mask maskUnits="userSpaceOnUse" x="207.3" y="264.6" width="72" height="72" id="mask2_outline_ins">
				<g transform="translate(57 376)" class="st5">
					<path id="path7_fill_1_" class="st2" d="M278.3,300.6c0,19.3-15.7,35-35,35s-35-15.7-35-35c0-19.3,15.7-35,35-35
						S278.3,281.3,278.3,300.6z"/>
				</g>
			</mask>
			<g class="st6">
				<g transform="translate(57 376)">
					<path id="path8_stroke_2x_1_" class="st2" d="M277.3,300.6c0,18.8-15.2,34-34,34v2c19.9,0,36-16.1,36-36H277.3z M243.3,334.6
						c-18.8,0-34-15.2-34-34h-2c0,19.9,16.1,36,36,36V334.6z M209.3,300.6c0-18.8,15.2-34,34-34v-2c-19.9,0-36,16.1-36,36H209.3z
						 M243.3,266.6c18.8,0,34,15.2,34,34h2c0-19.9-16.1-36-36-36V266.6z"/>
				</g>
			</g>
		</g>
		<g id="Vector_4" figma:type="vector">
			<g transform="translate(408.334 406.638)">
				<path id="path9_stroke" class="st2" d="M559.7,313.8v-0.5h-0.5v0.5H559.7z M571,313.8h0.5v-0.5H571V313.8z M559.7,322.2h-0.5
					v0.6l0.6-0.1L559.7,322.2z M571,320.1l0.1,0.5l0.4-0.1v-0.4H571z M562.3,298.4l0.2-0.5l-0.8-0.3l0.1,0.8L562.3,298.4z
					 M564.4,299.3l-0.2,0.5l0.3,0.1l0.2-0.2L564.4,299.3z M568.4,296.3l0.5,0l0.1-1.1l-0.9,0.7L568.4,296.3z M560.2,317.6
					c0-1.2,0-2.5,0-3.7h-1c0,1.2,0,2.5,0,3.7H560.2z M570.5,313.8c0,0.6,0,1.3,0,1.9h1c0-0.6,0-1.2,0-1.9H570.5z M559.7,318.1
					l11.3-1.9l-0.2-1l-11.3,1.9L559.7,318.1z M560.2,320.1c0-0.8,0-1.7,0-2.6h-1c0,0.9,0,1.8,0,2.6H560.2z M570.5,315.7
					c0,0.6,0,1.3,0,1.9h1c0-0.6,0-1.2,0-1.9H570.5z M559.8,320.6l11.3-2.6l-0.2-1l-11.3,2.6L559.8,320.6z M560.2,322.2
					c0-0.6,0-1.3,0-2.1h-1c0,0.8,0,1.5,0,2.1H560.2z M570.5,317.6c0,0.9,0,1.8,0,2.6h1c0-0.8,0-1.7,0-2.6H570.5z M559.8,322.7
					l11.3-2.1l-0.2-1l-11.3,2.1L559.8,322.7z M559.7,314.3h3.8v-1h-3.8V314.3z M563.9,313.8l-1.2-15.4l-1,0.1l1.2,15.4L563.9,313.8z
					 M562.1,298.8l2.1,0.9l0.4-0.9l-2.1-0.9L562.1,298.8z M564.7,299.7l4-3l-0.6-0.8l-4,3L564.7,299.7z M563.4,314.3h3.8v-1h-3.8
					V314.3z M567.2,314.3h3.8v-1h-3.8V314.3z M567.9,296.2l-1.2,17.6l1,0.1l1.2-17.6L567.9,296.2z"/>
			</g>
		</g>
		<g id="Vector_4_1_" figma:type="vector">
			<g transform="translate(395.853 386.031)">
				<path id="path10_stroke" class="st2" d="M559.7,323.4h-1c0,0.3,0.1,0.6,0.3,0.7L559.7,323.4z M571,323.4l0.5,0.8
					c0.3-0.2,0.5-0.5,0.5-0.8H571z M564.4,327.6l-0.7,0.7c0.3,0.3,0.8,0.3,1.2,0.1L564.4,327.6z M560.7,313.8c0-1.7-1.2-2.7-2.4-3.5
					c-1.2-0.8-2.8-1.5-4.3-2.4c-1.5-0.9-2.9-1.8-4-3.2c-1.1-1.4-1.8-3-1.7-5.4h-2c0,2.8,0.9,5,2.2,6.6c1.3,1.6,3,2.8,4.6,3.7
					c1.6,0.9,3.1,1.6,4.2,2.3c1.1,0.7,1.5,1.3,1.5,1.9H560.7z M548.2,299.3c0-5.3,0.4-11.1,2.7-15.5c2.2-4.3,6.1-7.4,13.5-7.1l0.1-2
					c-8.1-0.2-12.8,3.2-15.3,8.2c-2.5,4.9-2.9,11.1-2.9,16.4H548.2z M564.3,276.7c7.4,0.2,11.3,3.4,13.4,7.6
					c2.2,4.3,2.5,9.9,2.5,15.1h2c0-5.2-0.3-11.2-2.8-16c-2.5-4.9-7.1-8.4-15.2-8.7L564.3,276.7z M580.3,299.3c0,2.4-0.6,4.1-1.4,5.3
					c-0.9,1.3-2,2.2-3.3,3c-1.3,0.8-2.6,1.5-3.6,2.4c-1.1,0.9-2,2.1-2,3.8h2c0-0.9,0.4-1.5,1.3-2.2c0.9-0.7,2.1-1.4,3.5-2.3
					c1.3-0.9,2.8-2,3.8-3.6c1.1-1.6,1.8-3.7,1.8-6.4H580.3z M559,324.2l4.7,4.2l1.3-1.5l-4.7-4.2L559,324.2z M564.9,328.5l6.6-4.2
					l-1.1-1.7l-6.6,4.2L564.9,328.5z M558.7,313.8v9.6h2v-9.6H558.7z M570,313.8v9.6h2v-9.6H570z"/>
			</g>
		</g>
		<g id="Vector_5" figma:type="vector">
			<g transform="translate(126 -45)">
				<path id="path11_stroke" class="st2" d="M397.3,97.1c0-0.3-0.2-0.5-0.5-0.5s-0.5,0.2-0.5,0.5H397.3z M396.3,150.6
					c0,0.3,0.2,0.5,0.5,0.5s0.5-0.2,0.5-0.5H396.3z M359.1,48.1c0.2-0.1,0.4-0.4,0.2-0.7c-0.1-0.2-0.4-0.4-0.7-0.2L359.1,48.1z
					 M290.1,80.2c-0.2,0.1-0.4,0.4-0.2,0.7c0.1,0.2,0.4,0.4,0.7,0.2L290.1,80.2z M358.9,18.1c0.3,0,0.5-0.3,0.4-0.6
					c0-0.3-0.3-0.5-0.6-0.4L358.9,18.1z M290.3,24.6c-0.3,0-0.5,0.3-0.4,0.6c0,0.3,0.3,0.5,0.6,0.4L290.3,24.6z M349.1-20.9
					c0.3,0.1,0.5,0,0.7-0.3c0.1-0.3,0-0.5-0.3-0.7L349.1-20.9z M277.5-53.8c-0.3-0.1-0.5,0-0.7,0.3c-0.1,0.3,0,0.5,0.3,0.7
					L277.5-53.8z M341-61.5c0.2,0.2,0.5,0.1,0.7-0.1c0.2-0.2,0.1-0.5-0.1-0.7L341-61.5z M297.6-94.3c-0.2-0.2-0.5-0.1-0.7,0.1
					c-0.2,0.2-0.1,0.5,0.1,0.7L297.6-94.3z M367.9-87.6c0.2,0.2,0.5,0.3,0.7,0.1c0.2-0.2,0.3-0.5,0.1-0.7L367.9-87.6z M341.8-129.6
					c-0.2-0.2-0.5-0.3-0.7-0.1c-0.2,0.2-0.3,0.5-0.1,0.7L341.8-129.6z M404.8-93.9c0,0.3,0.2,0.5,0.5,0.5s0.5-0.2,0.5-0.5H404.8z
					 M405.8-137.9c0-0.3-0.2-0.5-0.5-0.5s-0.5,0.2-0.5,0.5H405.8z M450-88.2c-0.2,0.2-0.2,0.5,0,0.7c0.2,0.2,0.5,0.2,0.7,0L450-88.2
					z M525.7-155c0.2-0.2,0.2-0.5,0-0.7c-0.2-0.2-0.5-0.2-0.7,0L525.7-155z M476.2-53.8c-0.3,0.1-0.4,0.4-0.3,0.6s0.4,0.4,0.6,0.3
					L476.2-53.8z M548-77.9c0.3-0.1,0.4-0.4,0.3-0.6c-0.1-0.3-0.4-0.4-0.6-0.3L548-77.9z M476.3-21.9c-0.3,0-0.5,0.2-0.5,0.5
					s0.2,0.5,0.5,0.5V-21.9z M525.3-20.9c0.3,0,0.5-0.2,0.5-0.5s-0.2-0.5-0.5-0.5V-20.9z M466,10.2c-0.3-0.1-0.5,0-0.7,0.3
					c-0.1,0.3,0,0.5,0.3,0.7L466,10.2z M499.1,25.6c0.3,0.1,0.5,0,0.7-0.3c0.1-0.3,0-0.5-0.3-0.7L499.1,25.6z M450.7,47.3
					c-0.2-0.2-0.5-0.2-0.7,0c-0.2,0.2-0.2,0.5,0,0.7L450.7,47.3z M525,115.5c0.2,0.2,0.5,0.2,0.7,0c0.2-0.2,0.2-0.5,0-0.7L525,115.5
					z M396.3,97.1v53.5h1V97.1H396.3z M358.6,47.2l-68.5,33l0.4,0.9l68.5-33L358.6,47.2z M358.8,17.1l-68.5,7.5l0.1,1l68.5-7.5
					L358.8,17.1z M349.5-21.8l-72-32l-0.4,0.9l72,32L349.5-21.8z M341.6-62.3l-44-32l-0.6,0.8l44,32L341.6-62.3z M368.8-88.1
					l-27-41.5l-0.8,0.5l27,41.5L368.8-88.1z M405.8-93.9v-44h-1v44H405.8z M450.7-87.5l75-67.5l-0.7-0.7l-75,67.5L450.7-87.5z
					 M476.5-52.9l71.5-25l-0.3-0.9l-71.5,25L476.5-52.9z M476.3-20.9h49v-1h-49V-20.9z M465.6,11.1l33.5,14.5l0.4-0.9L466,10.2
					L465.6,11.1z M450,48l75,67.5l0.7-0.7l-75-67.5L450,48z"/>
			</g>
		</g>
		<g id="Union" figma:type="vector-operation">
			<g transform="translate(164 226)">
				<path id="path12_fill" class="st2" d="M317.3,117.6h2v10h-2V117.6z M315.3,117.6c0-1.1,0.9-2,2-2h2c1.1,0,2,0.9,2,2v10
					c0,1.1-0.9,2-2,2h-2c-1.1,0-2-0.9-2-2V117.6z M369.3,117.6h2v10h-2V117.6z M367.3,117.6c0-1.1,0.9-2,2-2h2c1.1,0,2,0.9,2,2v10
					c0,1.1-0.9,2-2,2h-2c-1.1,0-2-0.9-2-2V117.6z"/>
			</g>
		</g>
		<g id="Vector_6" figma:type="vector">
			<g transform="translate(162.656 183.5)">
				<path id="path13_stroke" class="st2" d="M314.8,118.3c0.1,0.3,0.3,0.4,0.6,0.4c0.3-0.1,0.4-0.3,0.4-0.6L314.8,118.3z
					 M372.8,118.1c0,0.3,0.2,0.5,0.4,0.6c0.3,0,0.5-0.2,0.6-0.4L372.8,118.1z M315.8,118c-1.9-7.4-2.1-18.6,1.8-27.8
					c3.9-9.2,11.9-16.6,26.7-16.6v-1c-15.2,0-23.6,7.6-27.6,17.2c-4,9.5-3.8,20.9-1.8,28.4L315.8,118z M344.3,73.6
					c7.4,0,13,1.9,17.2,4.8c4.2,3,7,7.1,8.8,11.7c3.7,9.3,3.4,20.4,2.5,27.9l1,0.1c0.9-7.5,1.2-18.9-2.6-28.4
					c-1.9-4.7-4.8-9.1-9.2-12.2c-4.4-3.1-10.1-5-17.7-5V73.6z"/>
			</g>
		</g>
		<g id="Vector_6_1_" figma:type="vector">
			<g transform="translate(268 196)">
				<path id="path14_stroke" class="st2" d="M420.1,129.8c0.1,0.3,0.3,0.4,0.6,0.4c0.3-0.1,0.4-0.3,0.4-0.6L420.1,129.8z
					 M475.3,129.6c0,0.3,0.2,0.5,0.4,0.6c0.3,0,0.5-0.2,0.6-0.4L475.3,129.6z M421.1,129.5c-1.8-7.3-2.1-18.1,1.7-27.2
					c3.7-9,11.4-16.2,25.4-16.2v-1c-14.5,0-22.5,7.5-26.3,16.8c-3.8,9.3-3.6,20.4-1.7,27.8L421.1,129.5z M448.2,86.1
					c7,0,12.3,1.8,16.3,4.7c4,2.9,6.6,6.9,8.4,11.5c3.5,9.1,3.3,20,2.4,27.3l1,0.1c0.9-7.4,1.1-18.5-2.5-27.7
					c-1.8-4.6-4.6-8.9-8.7-11.9c-4.2-3.1-9.7-4.9-16.9-4.9V86.1z"/>
			</g>
		</g>
		<g id="Union_1_" figma:type="vector-operation">
			<g transform="translate(269 236)">
				<path id="path15_fill" class="st2" d="M422.3,127.6h2v10h-2V127.6z M420.3,127.6c0-1.1,0.9-2,2-2h2c1.1,0,2,0.9,2,2v10
					c0,1.1-0.9,2-2,2h-2c-1.1,0-2-0.9-2-2V127.6z M472.3,127.6h2v10h-2V127.6z M470.3,127.6c0-1.1,0.9-2,2-2h2c1.1,0,2,0.9,2,2v10
					c0,1.1-0.9,2-2,2h-2c-1.1,0-2-0.9-2-2V127.6z"/>
			</g>
		</g>
		<g id="Vector_7" figma:type="vector">
			<g transform="translate(124 376)">
				<path id="path16_stroke" class="st2" d="M274.8,286.8c-0.5,0.3-0.6,0.9-0.4,1.4c0.3,0.5,0.9,0.6,1.4,0.4L274.8,286.8z
					 M510.5,288.6c0.5-0.1,0.9-0.6,0.8-1.2l-1.8-8.8c-0.1-0.5-0.6-0.9-1.2-0.8c-0.5,0.1-0.9,0.6-0.8,1.2l1.6,7.8l-7.8,1.6
					c-0.5,0.1-0.9,0.6-0.8,1.2c0.1,0.5,0.6,0.9,1.2,0.8L510.5,288.6z M275.3,287.6c0.5,0.9,0.5,0.9,0.5,0.9c0,0,0,0,0,0c0,0,0,0,0,0
					c0,0,0,0,0,0c0,0,0,0,0.1,0c0.1,0,0.1-0.1,0.3-0.1c0.2-0.1,0.6-0.3,1.1-0.6c1-0.5,2.5-1.2,4.5-2c4.1-1.7,10.4-4,19.3-6.5
					c17.9-4.9,46-10.3,87.4-12.2l-0.1-2c-41.5,2-69.9,7.4-87.9,12.3c-9,2.5-15.4,4.8-19.6,6.6c-2.1,0.9-3.6,1.6-4.6,2.1
					c-0.5,0.3-0.9,0.5-1.1,0.6c-0.1,0.1-0.2,0.1-0.3,0.2c0,0-0.1,0-0.1,0c0,0,0,0,0,0c0,0,0,0,0,0c0,0,0,0,0,0
					C274.8,286.8,274.8,286.8,275.3,287.6z M388.5,267c41.3-1.9,71.6,3.4,91.7,9.3c10,2.9,17.4,6,22.3,8.3c2.5,1.2,4.3,2.1,5.5,2.8
					c0.6,0.3,1,0.6,1.3,0.8c0.1,0.1,0.3,0.2,0.3,0.2c0,0,0.1,0,0.1,0.1c0,0,0,0,0,0c0,0,0,0,0,0c0,0,0,0,0,0c0,0,0,0,0.5-0.8
					s0.5-0.8,0.5-0.8c0,0,0,0,0,0c0,0,0,0,0,0c0,0,0,0,0,0c0,0-0.1,0-0.1-0.1c-0.1,0-0.2-0.1-0.4-0.2c-0.3-0.2-0.8-0.5-1.4-0.8
					c-1.2-0.7-3.1-1.7-5.6-2.9c-5-2.3-12.5-5.4-22.6-8.4c-20.2-5.9-50.8-11.3-92.4-9.4L388.5,267z"/>
			</g>
		</g>
	</g>
</g>
</svg>
