<svg width="1500" height="1500" viewBox="0 0 1500 1500" version="1.1" xmlns="http://www.w3.org/2000/svg" xmlns:xlink="http://www.w3.org/1999/xlink" xmlns:figma="http://www.figma.com/figma/ns">
<title>episode0</title>
<desc>Created using Figma</desc>
<g id="Canvas" transform="matrix(3 0 0 3 1212 798)" figma:type="canvas">
<mask id="mask0_alpha" mask-type="alpha">
<path d="M -404 -266L 96 -266L 96 234L -404 234L -404 -266Z" fill="#FFFFFF"/>
</mask>
<g id="episode0" style="mix-blend-mode:normal;isolation:isolate;" mask="url(#mask0_alpha)" figma:type="frame">
<g id="Ellipse" style="mix-blend-mode:normal;" figma:type="ellipse">
<mask id="mask1_outline_ins">
<use xlink:href="#path0_fill" fill="white" transform="translate(-301 -185)"/>
</mask>
<g mask="url(#mask1_outline_ins)">
<use xlink:href="#path1_stroke_2x" transform="translate(-301 -185)" fill="#FFFFFF" style="mix-blend-mode:normal;"/>
</g>
</g>
<g id="Ellipse" style="mix-blend-mode:normal;" figma:type="ellipse">
<mask id="mask2_outline_ins">
<use xlink:href="#path2_fill" fill="white" transform="translate(-168 140)"/>
</mask>
<g mask="url(#mask2_outline_ins)">
<use xlink:href="#path3_stroke_2x" transform="translate(-168 140)" fill="#FFFFFF" style="mix-blend-mode:normal;"/>
</g>
</g>
<g id="Union" style="mix-blend-mode:normal;" figma:type="vector-operation">
<use xlink:href="#path4_fill" transform="translate(-228.979 -122)" fill="#FFFFFF" style="mix-blend-mode:normal;"/>
</g>
<g id="Union" style="mix-blend-mode:normal;" figma:type="vector-operation">
<use xlink:href="#path5_fill" transform="matrix(0.766044 -0.642788 0.642788 0.766044 -265 7.12018)" fill="#FFFFFF" style="mix-blend-mode:normal;"/>
</g>
<g id="Union" style="mix-blend-mode:normal;" figma:type="vector-operation">
<use xlink:href="#path6_fill" transform="matrix(0.642788 0.766044 -0.766044 0.642788 -47.3626 -45.0562)" fill="#FFFFFF" style="mix-blend-mode:normal;"/>
</g>
<g id="Rectangle 2" style="mix-blend-mode:normal;" figma:type="vector">
<use xlink:href="#path7_stroke" transform="translate(-306 92)" fill="#FFFFFF" style="mix-blend-mode:normal;"/>
</g>
<g id="Vector 2" style="mix-blend-mode:normal;" figma:type="vector">
<use xlink:href="#path8_stroke" transform="translate(-273 -252.5)" fill="#FFFFFF" style="mix-blend-mode:normal;"/>
</g>
<g id="Vector 3" style="mix-blend-mode:normal;" figma:type="vector">
<use xlink:href="#path9_stroke" transform="translate(-305.703 56)" fill="#FFFFFF" style="mix-blend-mode:normal;"/>
</g>
<g id="Group" style="mix-blend-mode:normal;" figma:type="frame">
<g id="Vector 7" style="mix-blend-mode:normal;" figma:type="vector">
<use xlink:href="#path10_stroke" transform="translate(-302.244 115)" fill="#FFFFFF" style="mix-blend-mode:normal;"/>
</g>
<g id="Union" style="mix-blend-mode:normal;" figma:type="vector-operation">
<mask id="mask3_outline_ins">
<use xlink:href="#path11_fill" fill="white" transform="translate(-254.882 120.67)"/>
</mask>
<g mask="url(#mask3_outline_ins)">
<use xlink:href="#path12_stroke_2x" transform="translate(-254.882 120.67)" fill="#FFFFFF" style="mix-blend-mode:normal;"/>
</g>
</g>
<g id="Vector 7" style="mix-blend-mode:normal;" figma:type="vector">
<use xlink:href="#path13_stroke" transform="translate(-137.853 122)" fill="#FFFFFF" style="mix-blend-mode:normal;"/>
</g>
<g id="Vector 9" style="mix-blend-mode:normal;" figma:type="vector">
<use xlink:href="#path14_stroke" transform="translate(-84.2021 119.5)" fill="#FFFFFF" style="mix-blend-mode:normal;"/>
</g>
</g>
<g id="Subtract" style="mix-blend-mode:normal;" figma:type="vector-operation">
<use xlink:href="#path15_fill" transform="translate(-320 -192)" fill="#FFFFFF" style="mix-blend-mode:normal;"/>
</g>
<g id="Vector 10" style="mix-blend-mode:normal;" figma:type="vector">
<use xlink:href="#path16_stroke" transform="translate(-258.072 -194.779)" fill="#FFFFFF" style="mix-blend-mode:normal;"/>
</g>
<g id="Vector 10" style="mix-blend-mode:normal;" figma:type="vector">
<use xlink:href="#path17_stroke" transform="translate(-257.781 -199.384)" fill="#FFFFFF" style="mix-blend-mode:normal;"/>
</g>
<g id="Ellipse 4" style="mix-blend-mode:normal;" figma:type="ellipse">
<mask id="mask4_outline_ins">
<use xlink:href="#path18_fill" fill="white" transform="translate(-259 -191)"/>
</mask>
<g mask="url(#mask4_outline_ins)">
<use xlink:href="#path19_stroke_2x" transform="translate(-259 -191)" fill="#FFFFFF" style="mix-blend-mode:normal;"/>
</g>
</g>
<g id="Ellipse 4" style="mix-blend-mode:normal;" figma:type="ellipse">
<mask id="mask5_outline_ins">
<use xlink:href="#path18_fill" fill="white" transform="translate(-242 -202)"/>
</mask>
<g mask="url(#mask5_outline_ins)">
<use xlink:href="#path19_stroke_2x" transform="translate(-242 -202)" fill="#FFFFFF" style="mix-blend-mode:normal;"/>
</g>
</g>
<g id="Vector 6" style="mix-blend-mode:normal;" figma:type="vector">
<use xlink:href="#path20_stroke" transform="translate(-401.393 118.5)" fill="#FFFFFF" style="mix-blend-mode:normal;"/>
</g>
<g id="Vector 11" style="mix-blend-mode:normal;" figma:type="vector">
<use xlink:href="#path21_stroke" transform="translate(-249.849 34.7993)" fill="#FFFFFF" style="mix-blend-mode:normal;"/>
</g>
<g id="Group" style="mix-blend-mode:normal;" figma:type="frame">
<g id="Line" style="mix-blend-mode:normal;" figma:type="line">
<use xlink:href="#path22_stroke" transform="matrix(0.797266 0.603628 -0.603628 0.797266 -86.1686 -73.4076)" style="mix-blend-mode:normal;"/>
</g>
<g id="Line 2" style="mix-blend-mode:normal;" figma:type="line">
<use xlink:href="#path23_stroke" transform="matrix(0.797266 0.603628 -0.603628 0.797266 -81.7723 -72.5877)" fill="#FFFFFF" style="mix-blend-mode:normal;"/>
</g>
<g id="Line 4" style="mix-blend-mode:normal;" figma:type="line">
<use xlink:href="#path22_stroke" transform="matrix(-0.603628 0.797266 -0.797266 -0.603628 -79.016 -62.975)" fill="#FFFFFF" style="mix-blend-mode:normal;"/>
</g>
<g id="Line 5" style="mix-blend-mode:normal;" figma:type="line">
<use xlink:href="#path24_stroke" transform="matrix(-0.603628 0.797266 -0.797266 -0.603628 -83.025 -60.9932)" fill="#FFFFFF" style="mix-blend-mode:normal;"/>
</g>
<g id="Line 6" style="mix-blend-mode:normal;" figma:type="line">
<use xlink:href="#path24_stroke" transform="matrix(-0.603628 0.797266 -0.797266 -0.603628 -84.6195 -62.2005)" fill="#FFFFFF" style="mix-blend-mode:normal;"/>
</g>
<g id="Line 7" style="mix-blend-mode:normal;" figma:type="line">
<use xlink:href="#path24_stroke" transform="matrix(-0.603628 0.797266 -0.797266 -0.603628 -86.2141 -63.4077)" fill="#FFFFFF" style="mix-blend-mode:normal;"/>
</g>
<g id="Line 8" style="mix-blend-mode:normal;" figma:type="line">
<use xlink:href="#path24_stroke" transform="matrix(-0.603628 0.797266 -0.797266 -0.603628 -87.8086 -64.615)" fill="#FFFFFF" style="mix-blend-mode:normal;"/>
</g>
<g id="Line 9" style="mix-blend-mode:normal;" figma:type="line">
<use xlink:href="#path25_stroke" transform="matrix(-0.603628 0.797266 -0.797266 -0.603628 -86.385 -69.8086)" fill="#FFFFFF" style="mix-blend-mode:normal;"/>
</g>
<g id="Line 10" style="mix-blend-mode:normal;" figma:type="line">
<use xlink:href="#path22_stroke" transform="matrix(-0.797266 -0.603628 0.603628 -0.797266 -84.3805 -70.7995)" fill="#FFFFFF" style="mix-blend-mode:normal;"/>
</g>
<g id="Line 11" style="mix-blend-mode:normal;" figma:type="line">
<use xlink:href="#path22_stroke" transform="matrix(-0.797266 -0.603628 0.603628 -0.797266 -83.1732 -72.394)" fill="#FFFFFF" style="mix-blend-mode:normal;"/>
</g>
<g id="Rectangle 6" style="mix-blend-mode:normal;" figma:type="rounded-rectangle">
<use xlink:href="#path26_fill" transform="matrix(0.797266 0.603628 -0.603628 0.797266 -86.9659 -74.0113)" fill="#FFFFFF" style="mix-blend-mode:normal;"/>
</g>
<g id="Rectangle 6" style="mix-blend-mode:normal;" figma:type="rounded-rectangle">
<use xlink:href="#path26_fill" transform="matrix(0.797266 0.603628 -0.603628 0.797266 -88.1732 -72.4167)" fill="#FFFFFF" style="mix-blend-mode:normal;"/>
</g>
<g id="Rectangle 6" style="mix-blend-mode:normal;" figma:type="rounded-rectangle">
<use xlink:href="#path26_fill" transform="matrix(0.797266 0.603628 -0.603628 0.797266 -83.4123 -63.795)" fill="#FFFFFF" style="mix-blend-mode:normal;"/>
</g>
<g id="Rectangle 6" style="mix-blend-mode:normal;" figma:type="rounded-rectangle">
<use xlink:href="#path27_fill" transform="matrix(0.797266 0.603628 -0.603628 0.797266 -83.0023 -65.9932)" fill="#FFFFFF" style="mix-blend-mode:normal;"/>
</g>
<g id="Rectangle 6" style="mix-blend-mode:normal;" figma:type="rounded-rectangle">
<use xlink:href="#path27_fill" transform="matrix(0.797266 0.603628 -0.603628 0.797266 -81.4077 -64.7859)" fill="#FFFFFF" style="mix-blend-mode:normal;"/>
</g>
<g id="Rectangle 6" style="mix-blend-mode:normal;" figma:type="rounded-rectangle">
<use xlink:href="#path26_fill" transform="matrix(0.797266 0.603628 -0.603628 0.797266 -82.5696 -73.1913)" fill="#FFFFFF" style="mix-blend-mode:normal;"/>
</g>
<g id="Rectangle 6" style="mix-blend-mode:normal;" figma:type="rounded-rectangle">
<use xlink:href="#path26_fill" transform="matrix(0.797266 0.603628 -0.603628 0.797266 -82.3759 -71.7904)" fill="#FFFFFF" style="mix-blend-mode:normal;"/>
</g>
<g id="Rectangle 6" style="mix-blend-mode:normal;" figma:type="rounded-rectangle">
<use xlink:href="#path26_fill" transform="matrix(0.797266 0.603628 -0.603628 0.797266 -77.786 -69.5695)" fill="#FFFFFF" style="mix-blend-mode:normal;"/>
</g>
<g id="Rectangle 6" style="mix-blend-mode:normal;" figma:type="rounded-rectangle">
<use xlink:href="#path26_fill" transform="matrix(0.797266 0.603628 -0.603628 0.797266 -77.5923 -68.1686)" fill="#FFFFFF" style="mix-blend-mode:normal;"/>
</g>
<g id="Rectangle 6" style="mix-blend-mode:normal;" figma:type="rounded-rectangle">
<use xlink:href="#path26_fill" transform="matrix(0.797266 0.603628 -0.603628 0.797266 -79.1869 -69.3759)" fill="#FFFFFF" style="mix-blend-mode:normal;"/>
</g>
<g id="Rectangle 6" style="mix-blend-mode:normal;" figma:type="rounded-rectangle">
<use xlink:href="#path26_fill" transform="matrix(0.797266 0.603628 -0.603628 0.797266 -81.6241 -61.1869)" fill="#FFFFFF" style="mix-blend-mode:normal;"/>
</g>
<g id="Rectangle 6" style="mix-blend-mode:normal;" figma:type="rounded-rectangle">
<use xlink:href="#path26_fill" transform="matrix(0.797266 0.603628 -0.603628 0.797266 -85.0295 -60.0023)" fill="#FFFFFF" style="mix-blend-mode:normal;"/>
</g>
<g id="Rectangle 6" style="mix-blend-mode:normal;" figma:type="rounded-rectangle">
<use xlink:href="#path26_fill" transform="matrix(0.797266 0.603628 -0.603628 0.797266 -85.4168 -62.8041)" fill="#FFFFFF" style="mix-blend-mode:normal;"/>
</g>
<g id="Rectangle 6" style="mix-blend-mode:normal;" figma:type="rounded-rectangle">
<use xlink:href="#path26_fill" transform="matrix(0.797266 0.603628 -0.603628 0.797266 -88.2186 -62.4168)" fill="#FFFFFF" style="mix-blend-mode:normal;"/>
</g>
<g id="Rectangle 6" style="mix-blend-mode:normal;" figma:type="rounded-rectangle">
<use xlink:href="#path26_fill" transform="matrix(0.797266 0.603628 -0.603628 0.797266 -88.0022 -66.0159)" fill="#FFFFFF" style="mix-blend-mode:normal;"/>
</g>
<g id="Rectangle 6" style="mix-blend-mode:normal;" figma:type="rounded-rectangle">
<use xlink:href="#path28_fill" transform="matrix(0.797266 0.603628 -0.603628 0.797266 -87.9795 -71.0158)" fill="#FFFFFF" style="mix-blend-mode:normal;"/>
</g>
<g id="Rectangle 6" style="mix-blend-mode:normal;" figma:type="rounded-rectangle">
<use xlink:href="#path29_fill" transform="matrix(0.797266 0.603628 -0.603628 0.797266 -77.3987 -66.7677)" fill="#FFFFFF" style="mix-blend-mode:normal;"/>
</g>
</g>
</g>
</g>
<defs>
<path id="path0_fill" d="M 286 143C 286 221.977 221.977 286 143 286C 64.0233 286 0 221.977 0 143C 0 64.0233 64.0233 0 143 0C 221.977 0 286 64.0233 286 143Z"/>
<path id="path1_stroke_2x" d="M 285 143C 285 221.424 221.424 285 143 285L 143 287C 222.529 287 287 222.529 287 143L 285 143ZM 143 285C 64.5756 285 1 221.424 1 143L -1 143C -1 222.529 63.471 287 143 287L 143 285ZM 1 143C 1 64.5756 64.5756 1 143 1L 143 -1C 63.471 -1 -1 63.471 -1 143L 1 143ZM 143 1C 221.424 1 285 64.5756 285 143L 287 143C 287 63.471 222.529 -1 143 -1L 143 1Z"/>
<path id="path2_fill" d="M 16 8C 16 12.4183 12.4183 16 8 16C 3.58172 16 0 12.4183 0 8C 0 3.58172 3.58172 0 8 0C 12.4183 0 16 3.58172 16 8Z"/>
<path id="path3_stroke_2x" d="M 14 8C 14 11.3137 11.3137 14 8 14L 8 18C 13.5228 18 18 13.5228 18 8L 14 8ZM 8 14C 4.68629 14 2 11.3137 2 8L -2 8C -2 13.5228 2.47715 18 8 18L 8 14ZM 2 8C 2 4.68629 4.68629 2 8 2L 8 -2C 2.47715 -2 -2 2.47715 -2 8L 2 8ZM 8 2C 11.3137 2 14 4.68629 14 8L 18 8C 18 2.47715 13.5228 -2 8 -2L 8 2Z"/>
<path id="path4_fill" fill-rule="evenodd" d="M 12.9801 1.20016C 13.0905 0.659027 12.7413 0.130828 12.2002 0.020393C 11.6591 -0.0900425 11.1309 0.259109 11.0204 0.800239L 8.54238 12.9428L 2.24884 5.83717C 1.88266 5.42373 1.25064 5.38543 0.837221 5.75161C 0.423784 6.1178 0.385485 6.7498 0.751665 7.16324L 7.31508 14.5735L 0.591188 17.5877C 0.0872365 17.8136 -0.138182 18.4053 0.08774 18.9093C 0.313662 19.4132 0.905336 19.6386 1.4093 19.4127L 7.8073 16.5446L 6.02045 25.3002C 5.91001 25.8414 6.25916 26.3696 6.80029 26.48C 7.34142 26.5904 7.86962 26.2413 7.98006 25.7002L 9.70104 17.2674L 16.2517 24.6632C 16.6178 25.0767 17.2498 25.115 17.6633 24.7488C 18.0767 24.3826 18.115 23.7506 17.7488 23.3372L 10.617 15.2851L 15.9093 12.9127C 16.4133 12.6868 16.6387 12.0951 16.4128 11.5911C 16.1868 11.0872 15.5952 10.8618 15.0912 11.0877L 10.5464 13.125L 12.9801 1.20016Z"/>
<path id="path5_fill" fill-rule="evenodd" d="M 12.9544 1.29909C 13.1194 0.772042 12.8259 0.210993 12.2989 0.0459588C 11.7718 -0.119076 11.2108 0.174393 11.0457 0.701452L 8.58588 8.55719L 2.09294 3.77938C 1.64809 3.45205 1.02214 3.54731 0.694816 3.99214C 0.36749 4.43697 0.462733 5.06292 0.907576 5.39026L 6.74476 9.68552L 0.719827 11.4458C 0.189698 11.6007 -0.114484 12.156 0.0403823 12.6861C 0.195271 13.2162 0.750581 13.5204 1.2807 13.3655L 7.66424 11.5005L 6.04583 16.669C 5.88079 17.196 6.17427 17.7571 6.70132 17.9221C 7.22837 18.0872 7.78942 17.7937 7.95446 17.2666L 9.65724 11.8287L 16.4073 16.7956C 16.8521 17.123 17.4781 17.0277 17.8054 16.5829C 18.1327 16.138 18.0375 15.5121 17.5926 15.1848L 11.1871 10.4713L 15.7804 9.12924C 16.3105 8.97436 16.6147 8.41905 16.4598 7.88892C 16.305 7.35881 15.7497 7.05461 15.2195 7.2095L 10.6892 8.5331L 12.9544 1.29909Z"/>
<path id="path6_fill" fill-rule="evenodd" d="M 2.09243 4.08203C 1.71373 3.68002 1.08085 3.66112 0.678842 4.03982C 0.276838 4.41851 0.257938 5.05139 0.636633 5.4534L 5.08854 10.1794L 0.611861 12.0662C 0.102938 12.2807 -0.135738 12.8672 0.0787659 13.3761C 0.293273 13.885 0.879731 14.1237 1.38866 13.9092L 5.57165 12.1461L 4.39425 17.5706C 4.2771 18.1103 4.61967 18.6428 5.15938 18.76C 5.6991 18.8771 6.2316 18.5346 6.34874 17.9948L 7.49145 12.7302L 11.929 17.4409C 12.3077 17.8429 12.9406 17.8618 13.3426 17.4831C 13.7446 17.1044 13.7635 16.4715 13.3848 16.0695L 8.51877 10.904L 11.9525 9.45671C 12.4614 9.24221 12.7001 8.65575 12.4856 8.14682C 12.2711 7.6379 11.6846 7.39922 11.1757 7.61373L 8.34283 8.80773L 9.99144 1.21232C 10.1086 0.672609 9.76603 0.140113 9.22631 0.0229643C 8.68659 -0.0941823 8.1541 0.248379 8.03695 0.788094L 6.34267 8.59391L 2.09243 4.08203Z"/>
<path id="path7_stroke" d="M 293 0C 293 -0.552285 292.552 -1 292 -1C 291.448 -1 291 -0.552285 291 0L 293 0ZM 292 50.4439L 292.64 51.212L 293 50.9122L 293 50.4439L 292 50.4439ZM 0 50.4439L -1 50.4439L -1 51.0457L -0.468206 51.3275L 0 50.4439ZM 1 0C 1 -0.552285 0.552285 -1 0 -1C -0.552285 -1 -1 -0.552285 -1 0L 1 0ZM 152.545 81.9714L 152.545 82.9714L 152.554 82.9714L 152.563 82.9712L 152.545 81.9714ZM 291 0L 291 50.4439L 293 50.4439L 293 0L 291 0ZM 1 50.4439L 1 0L -1 0L -1 50.4439L 1 50.4439ZM 292 50.4439C 291.36 49.6758 291.36 49.6755 291.36 49.6753C 291.36 49.6753 291.36 49.6752 291.36 49.6754C 291.359 49.676 291.359 49.6765 291.357 49.6777C 291.354 49.6807 291.349 49.6843 291.342 49.6902C 291.326 49.7033 291.304 49.7211 291.272 49.7468C 291.204 49.8006 291.107 49.8769 290.97 49.981C 290.691 50.1937 290.277 50.4994 289.702 50.8972C 288.541 51.7017 286.786 52.841 284.336 54.228C 279.41 57.0182 271.805 60.7396 260.926 64.5384C 239.111 72.1614 204.402 80.0117 152.526 80.9715L 152.563 82.9712C 204.643 81.9973 239.662 74.0839 261.585 66.4265C 272.576 62.5852 280.343 58.7874 285.322 55.9683C 287.824 54.5507 289.655 53.3628 290.841 52.5414C 291.44 52.1263 291.89 51.7942 292.182 51.5725C 292.33 51.4593 292.445 51.3693 292.518 51.3109C 292.556 51.2806 292.587 51.2559 292.606 51.2405C 292.616 51.2322 292.625 51.2251 292.63 51.2209C 292.632 51.2186 292.635 51.2163 292.637 51.2151C 292.637 51.2144 292.638 51.2136 292.639 51.2132C 292.64 51.2126 292.64 51.212 292 50.4439ZM 152.545 80.9714C 106.124 80.9765 68.1301 73.1197 41.6656 65.2491C 28.4485 61.3195 18.1544 57.3975 11.1382 54.4482C 7.6368 52.9766 4.97048 51.7548 3.16863 50.8959C 2.27088 50.468 1.59605 50.1342 1.14073 49.9049C 0.914606 49.791 0.746542 49.7048 0.632664 49.646C 0.576481 49.617 0.535383 49.5955 0.507187 49.5808C 0.493464 49.5736 0.483723 49.5685 0.476847 49.5649C 0.473596 49.5631 0.471437 49.562 0.46981 49.5611C 0.469089 49.5608 0.468689 49.5605 0.468328 49.5604C 0.468154 49.5603 0.468206 49.5603 0 50.4439C -0.468206 51.3275 -0.4677 51.3278 -0.466967 51.3282C -0.46642 51.3285 -0.465459 51.329 -0.464365 51.3296C -0.462364 51.3306 -0.459082 51.3324 -0.455082 51.3345C -0.447456 51.3385 -0.435457 51.3448 -0.420226 51.3528C -0.390516 51.3683 -0.344852 51.3921 -0.285615 51.4227C -0.168656 51.4832 0.00874449 51.5741 0.24113 51.6911C 0.702826 51.9236 1.39718 52.2671 2.30811 52.7013C 4.12362 53.5666 6.83265 54.8078 10.3632 56.292C 17.4109 59.2541 27.8071 63.2139 41.0956 67.1662C 67.6423 75.0593 105.921 82.9662 152.545 82.9714L 152.545 80.9714Z"/>
<path id="path8_stroke" d="M 0.671519 126.759C 0.262284 126.388 -0.370117 126.419 -0.740987 126.828C -1.11186 127.238 -1.08076 127.87 -0.671519 128.241L 0.671519 126.759ZM 16 142L 15.3285 142.741L 16.0223 143.37L 16.6953 142.719L 16 142ZM 109 75.5L 109.741 74.8287L 109.143 74.1683L 108.418 74.6866L 109 75.5ZM 133 102L 132.259 102.671L 132.859 103.334L 133.585 102.811L 133 102ZM 274.5 0L 275.5 0L 275.5 -1L 274.5 -1L 274.5 0ZM 273.5 14.5C 273.5 15.0523 273.948 15.5 274.5 15.5C 275.052 15.5 275.5 15.0523 275.5 14.5L 273.5 14.5ZM 260.5 -1C 259.948 -1 259.5 -0.552285 259.5 0C 259.5 0.552285 259.948 1 260.5 1L 260.5 -1ZM 83 94.0914L 82.8773 95.0838L 83.2644 95.1317L 83.5816 94.9048L 83 94.0914ZM 67.5 92.1747L 67.6227 91.1823L 67.1483 91.1236L 66.8047 91.456L 67.5 92.1747ZM -0.671519 128.241L 15.3285 142.741L 16.6715 141.259L 0.671519 126.759L -0.671519 128.241ZM 108.259 76.1713L 132.259 102.671L 133.741 101.329L 109.741 74.8287L 108.259 76.1713ZM 133.585 102.811L 275.085 0.811208L 273.915 -0.811208L 132.415 101.189L 133.585 102.811ZM 273.5 0L 273.5 14.5L 275.5 14.5L 275.5 0L 273.5 0ZM 274.5 -1L 260.5 -1L 260.5 1L 274.5 1L 274.5 -1ZM 83.5816 94.9048L 109.582 76.3134L 108.418 74.6866L 82.4184 93.278L 83.5816 94.9048ZM 16.6953 142.719L 68.1953 92.8934L 66.8047 91.456L 15.3047 141.281L 16.6953 142.719ZM 67.3773 93.1672L 82.8773 95.0838L 83.1227 93.099L 67.6227 91.1823L 67.3773 93.1672Z"/>
<path id="path9_stroke" d="M 143.203 67L 143.206 66.5L 143.203 67ZM 251.898 -0.460664C 251.643 -0.568024 251.35 -0.448811 251.243 -0.194394C 251.135 0.060024 251.255 0.353303 251.509 0.460664L 251.898 -0.460664ZM 44.9885 0.990263C 45.2466 0.892058 45.3762 0.603224 45.278 0.345134C 45.1798 0.0870441 44.891 -0.0425677 44.6329 0.0556377L 44.9885 0.990263ZM 143.2 67.5C 193.122 67.7997 227.842 64.9972 251.071 60.3167C 262.698 57.9726 271.493 55.1451 277.862 52.0061C 284.246 48.8582 288.284 45.3589 290.365 41.6312C 294.572 34.0955 290.647 25.9758 282.993 18.6436C 275.323 11.3007 263.677 4.51108 251.898 -0.460664L 251.509 0.460664C 263.23 5.40559 274.721 12.0993 282.301 19.3657C 289.898 26.643 293.335 34.2587 289.492 41.1438C 287.548 44.6265 283.707 48.009 277.42 51.1092C 271.117 54.2182 262.446 57.005 250.873 59.3364C 227.703 64.007 193.085 66.8003 143.206 66.5L 143.2 67.5ZM 44.6329 0.0556377C 32.0152 4.85764 19.4373 11.3725 10.8074 18.441C 6.48648 21.982 3.11425 25.6931 1.2154 29.439C -0.690302 33.1984 -1.12067 37.0166 0.495764 40.703C 2.1026 44.3676 5.69509 47.8155 11.6452 50.9395C 17.5802 54.0539 25.9621 56.893 37.2053 59.2953C 59.6645 64.0914 93.7349 67.2022 143.2 67.5L 143.206 66.5C 93.7834 66.2033 59.8147 63.1027 37.4141 58.3174C 26.2274 55.9289 17.9742 53.1348 12.1101 50.0541C 6.26115 46.9832 2.89059 43.6744 1.41159 40.3014C -0.0578056 36.9503 0.303217 33.4501 2.10734 29.8911C 3.91831 26.3186 7.17434 22.7112 11.4413 19.2145C 19.9872 12.2077 32.4236 5.77045 44.9885 0.990263L 44.6329 0.0556377Z"/>
<path id="path10_stroke" d="M 34.5704 91.0608L 34.5704 91.5608C 34.8465 91.5608 35.0704 91.337 35.0704 91.0608L 34.5704 91.0608ZM 12.8906 91.0608L 12.3906 91.0608C 12.3906 91.337 12.6144 91.5608 12.8906 91.5608L 12.8906 91.0608ZM 12.8906 20.8631L 13.3906 20.8631C 13.3906 20.6796 13.2901 20.5108 13.1287 20.4234C 12.9674 20.3361 12.7711 20.3441 12.6174 20.4443L 12.8906 20.8631ZM 35.0704 0C 35.0704 -0.276142 34.8465 -0.5 34.5704 -0.5C 34.2942 -0.5 34.0704 -0.276142 34.0704 0L 35.0704 0ZM -0.27318 28.8532C -0.504463 29.0041 -0.569648 29.3139 -0.418775 29.5452C -0.267903 29.7765 0.0418963 29.8417 0.27318 29.6908L -0.27318 28.8532ZM 34.5704 90.5608L 12.8906 90.5608L 12.8906 91.5608L 34.5704 91.5608L 34.5704 90.5608ZM 13.3906 91.0608L 13.3906 20.8631L 12.3906 20.8631L 12.3906 91.0608L 13.3906 91.0608ZM 34.0704 0L 34.0704 91.0608L 35.0704 91.0608L 35.0704 0L 34.0704 0ZM 12.6174 20.4443L -0.27318 28.8532L 0.27318 29.6908L 13.1638 21.2819L 12.6174 20.4443Z"/>
<path id="path11_fill" fill-rule="evenodd" d="M 28.0645 0.660416C 28.2469 0.453056 28.2266 0.137123 28.0193 -0.0452423C 27.8119 -0.227615 27.496 -0.207352 27.3136 0C 20.7997 7.40682 13.9747 16.0555 8.78606 24.7608C 3.60095 33.4624 0 42.3014 0 50.0983C 0 71.7311 17.6718 87.4424 38.4396 87.4424C 59.4985 87.4424 77.2664 74.9317 77.2664 57.0792C 77.2664 35.3689 67.7724 25.6795 58.1911 21.4741C 53.4354 19.3913 48.6539 18.6592 45.1098 18.4573C 43.3305 18.3566 41.8363 18.3856 40.8013 18.4398C 40.649 18.4478 40.5058 18.4563 40.3724 18.4651L 53.5346 2.71546C 53.7117 2.50357 53.6834 2.18825 53.4716 2.01117C 53.2597 1.83409 52.9443 1.86231 52.7673 2.0742L 38.8302 18.751L 38.0051 19.7384L 39.2804 19.5672L 39.2811 19.5671L 39.2851 19.5666L 39.3032 19.5643C 39.3205 19.5621 39.3452 19.5591 39.3791 19.5552C 39.4486 19.5471 39.5492 19.5361 39.6835 19.5232C 39.9551 19.4971 40.3476 19.4648 40.8537 19.4384C 41.8723 19.385 43.3119 19.3564 45.0531 19.4557C 48.5502 19.6538 53.1568 20.3517 57.7892 22.3897C 66.9842 26.4257 76.2664 35.7402 76.2664 57.0792C 76.2664 74.1403 59.2204 86.4424 38.4396 86.4424C 18.1708 86.4424 1 71.127 1 50.0983C 1 42.5751 4.48833 33.9268 9.64511 25.2727C 14.7984 16.6224 21.5679 8.04704 28.0645 0.660416ZM 39.6176 67.5507C 47.7425 67.5507 54.3289 60.9525 54.3289 52.8131C 54.3289 44.6737 47.7425 38.0754 39.6176 38.0754C 31.4928 38.0754 24.9064 44.6737 24.9064 52.8131C 24.9064 60.9525 31.4928 67.5507 39.6176 67.5507Z"/>
<path id="path12_stroke_2x" d="M 28.0193 -0.0452423L 27.3588 0.705644L 27.3589 0.705658L 28.0193 -0.0452423ZM 28.0645 0.660416L 28.8154 1.32084L 28.8155 1.3208L 28.0645 0.660416ZM 27.3136 0L 26.5627 -0.660431L 26.5627 -0.660394L 27.3136 0ZM 8.78606 24.7608L 7.92706 24.2488L 7.92701 24.2489L 8.78606 24.7608ZM 58.1911 21.4741L 58.593 20.5584L 58.5923 20.5581L 58.1911 21.4741ZM 45.1098 18.4573L 45.1667 17.4589L 45.1664 17.4589L 45.1098 18.4573ZM 40.8013 18.4398L 40.7491 17.4411L 40.7489 17.4411L 40.8013 18.4398ZM 40.3724 18.4651L 39.6051 17.8238C 39.3485 18.1309 39.2996 18.5614 39.481 18.9182C 39.6623 19.275 40.0389 19.4893 40.4382 19.4629L 40.3724 18.4651ZM 53.5346 2.71546L 54.3019 3.35672L 54.3019 3.35672L 53.5346 2.71546ZM 53.4716 2.01117L 54.1128 1.24385L 54.1128 1.24383L 53.4716 2.01117ZM 52.7673 2.0742L 53.5346 2.71546L 53.5346 2.71546L 52.7673 2.0742ZM 38.8302 18.751L 38.0629 18.1097L 38.0629 18.1097L 38.8302 18.751ZM 38.0051 19.7384L 37.2377 19.0972C 36.9732 19.4137 36.9302 19.8602 37.1294 20.2214C 37.3287 20.5826 37.7293 20.7844 38.1381 20.7295L 38.0051 19.7384ZM 39.2804 19.5672L 39.4135 20.5584L 39.4252 20.5567L 39.2804 19.5672ZM 39.2811 19.5671L 39.1533 18.5753C 39.1476 18.576 39.1419 18.5768 39.1363 18.5776L 39.2811 19.5671ZM 39.2851 19.5666L 39.159 18.5746L 39.1574 18.5748L 39.2851 19.5666ZM 39.3032 19.5643L 39.179 18.572L 39.1771 18.5723L 39.3032 19.5643ZM 39.3791 19.5552L 39.2642 18.5618L 39.2641 18.5618L 39.3791 19.5552ZM 39.6835 19.5232L 39.7791 20.5187L 39.7791 20.5186L 39.6835 19.5232ZM 40.8537 19.4384L 40.9058 20.437L 40.906 20.437L 40.8537 19.4384ZM 45.0531 19.4557L 44.9962 20.4541L 44.9966 20.4541L 45.0531 19.4557ZM 57.7892 22.3897L 57.3865 23.3051L 57.3873 23.3054L 57.7892 22.3897ZM 9.64511 25.2727L 10.5042 25.7846L 10.5042 25.7845L 9.64511 25.2727ZM 27.3589 0.705658C 27.1515 0.5233 27.1312 0.207388 27.3136 2.94483e-05L 28.8155 1.3208C 29.3625 0.698725 29.3017 -0.249054 28.6797 -0.796143L 27.3589 0.705658ZM 28.0645 0.660431C 27.8822 0.867742 27.5662 0.888053 27.3588 0.705644L 28.6797 -0.796129C 28.0576 -1.34328 27.1098 -1.28245 26.5627 -0.660431L 28.0645 0.660431ZM 9.64505 25.2728C 14.7984 16.6224 21.5679 8.04699 28.0645 0.660394L 26.5627 -0.660394C 20.0315 6.76666 13.1509 15.4885 7.92706 24.2488L 9.64505 25.2728ZM 1 50.0983C 1 42.5751 4.48834 33.9267 9.64511 25.2727L 7.92701 24.2489C 2.71356 32.9981 -1 42.0277 -1 50.0983L 1 50.0983ZM 38.4396 86.4424C 18.1705 86.4424 1 71.1268 1 50.0983L -1 50.0983C -1 72.3354 17.173 88.4424 38.4396 88.4424L 38.4396 86.4424ZM 76.2664 57.0792C 76.2664 74.1394 59.2216 86.4424 38.4396 86.4424L 38.4396 88.4424C 59.7755 88.4424 78.2664 75.724 78.2664 57.0792L 76.2664 57.0792ZM 57.7892 22.3897C 66.9842 26.4257 76.2664 35.7401 76.2664 57.0792L 78.2664 57.0792C 78.2664 34.9976 68.5605 24.9334 58.593 20.5584L 57.7892 22.3897ZM 45.053 19.4557C 48.5497 19.6537 53.1568 20.3517 57.79 22.3901L 58.5923 20.5581C 53.7141 18.431 48.7582 17.6646 45.1667 17.4589L 45.053 19.4557ZM 40.8536 19.4384C 41.8722 19.385 43.3119 19.3564 45.0533 19.4557L 45.1664 17.4589C 43.3491 17.3568 41.8005 17.3863 40.7491 17.4411L 40.8536 19.4384ZM 40.4382 19.4629C 40.5685 19.4544 40.705 19.4462 40.8538 19.4384L 40.7489 17.4411C 40.593 17.4493 40.4431 17.4583 40.3067 17.4673L 40.4382 19.4629ZM 52.7673 2.0742L 39.6051 17.8238L 41.1397 19.1064L 54.3019 3.35672L 52.7673 2.0742ZM 52.8303 2.77848C 52.6184 2.60142 52.5902 2.28611 52.7673 2.0742L 54.3019 3.35672C 54.8332 2.72103 54.7485 1.77507 54.1128 1.24385L 52.8303 2.77848ZM 53.5346 2.71546C 53.3575 2.92736 53.0422 2.95556 52.8303 2.77851L 54.1128 1.24383C 53.4771 0.712622 52.5312 0.797263 51.9999 1.43295L 53.5346 2.71546ZM 39.5976 19.3923L 53.5346 2.71546L 51.9999 1.43294L 38.0629 18.1097L 39.5976 19.3923ZM 38.7724 20.3797L 39.5976 19.3923L 38.0629 18.1097L 37.2377 19.0972L 38.7724 20.3797ZM 39.1474 18.5761L 37.872 18.7473L 38.1381 20.7295L 39.4135 20.5583L 39.1474 18.5761ZM 39.1363 18.5776L 39.1356 18.5777L 39.4252 20.5567L 39.4259 20.5566L 39.1363 18.5776ZM 39.1574 18.5748L 39.1533 18.5753L 39.4088 20.5589L 39.4128 20.5584L 39.1574 18.5748ZM 39.1771 18.5723L 39.159 18.5746L 39.4112 20.5586L 39.4293 20.5563L 39.1771 18.5723ZM 39.2641 18.5618C 39.227 18.5661 39.1978 18.5697 39.179 18.572L 39.4275 20.5565C 39.4432 20.5546 39.4633 20.5521 39.4942 20.5485L 39.2641 18.5618ZM 39.5879 18.5278C 39.447 18.5414 39.3368 18.5534 39.2642 18.5618L 39.4941 20.5485C 39.5605 20.5409 39.6514 20.5309 39.7791 20.5187L 39.5879 18.5278ZM 40.8015 18.4398C 40.2805 18.4671 39.8662 18.5011 39.5878 18.5278L 39.7791 20.5186C 40.0439 20.4932 40.4147 20.4626 40.9058 20.437L 40.8015 18.4398ZM 45.1101 18.4573C 43.3305 18.3566 41.8362 18.3856 40.8013 18.4398L 40.906 20.437C 41.9084 20.3843 43.2934 20.3563 44.9962 20.4541L 45.1101 18.4573ZM 58.1919 21.4744C 53.4354 19.3914 48.6534 18.6591 45.1097 18.4573L 44.9966 20.4541C 48.4469 20.6484 52.8781 21.3121 57.3865 23.3051L 58.1919 21.4744ZM 77.2664 57.0792C 77.2664 46.2637 74.913 38.4052 71.3217 32.7123C 67.735 27.0608 62.8833 23.5397 58.1911 21.4741L 57.3873 23.3054C 61.8901 25.2757 66.277 28.4299 69.6302 33.7794C 72.9787 39.0875 75.2664 46.5558 75.2664 57.0792L 77.2664 57.0792ZM 38.4396 87.4424C 59.4997 87.4424 77.2664 74.9308 77.2664 57.0792L 75.2664 57.0792C 75.2664 73.3499 58.9412 85.4424 38.4396 85.4424L 38.4396 87.4424ZM 0 50.0983C 0 71.7309 17.6715 87.4424 38.4396 87.4424L 38.4396 85.4424C 18.67 85.4424 2 70.5231 2 50.0983L 0 50.0983ZM 8.78606 24.7608C 3.60096 33.4624 0 42.3014 0 50.0983L 2 50.0983C 2 42.8488 5.37569 34.3911 10.5042 25.7846L 8.78606 24.7608ZM 27.3136 -6.1234e-06C 20.7997 7.40679 13.9746 16.0555 8.78601 24.7609L 10.5042 25.7845C 15.6222 17.1893 22.3361 8.68728 28.8154 1.32084L 27.3136 -6.1234e-06ZM 53.3289 52.8131C 53.3289 60.4019 47.1885 66.5507 39.6176 66.5507L 39.6176 68.5507C 48.2964 68.5507 55.3289 61.5031 55.3289 52.8131L 53.3289 52.8131ZM 39.6176 39.0754C 47.1885 39.0754 53.3289 45.2243 53.3289 52.8131L 55.3289 52.8131C 55.3289 44.1231 48.2964 37.0754 39.6176 37.0754L 39.6176 39.0754ZM 25.9064 52.8131C 25.9064 45.2243 32.0468 39.0754 39.6176 39.0754L 39.6176 37.0754C 30.9389 37.0754 23.9064 44.1231 23.9064 52.8131L 25.9064 52.8131ZM 39.6176 66.5507C 32.0468 66.5507 25.9064 60.4019 25.9064 52.8131L 23.9064 52.8131C 23.9064 61.5031 30.9389 68.5507 39.6176 68.5507L 39.6176 66.5507Z"/>
<path id="path13_stroke" d="M 0 24.7224L -0.5 24.7224C -0.5 24.9059 -0.399482 25.0747 -0.238128 25.1621C -0.0767742 25.2495 0.119488 25.2415 0.27318 25.1412L 0 24.7224ZM 0 2.61595L -0.240545 2.17762C -0.400551 2.26542 -0.5 2.43344 -0.5 2.61595L 0 2.61595ZM 38.3268 84.0608L 38.3268 84.5608C 38.6029 84.5608 38.8268 84.337 38.8268 84.0608L 38.3268 84.0608ZM 16.647 84.0608L 16.147 84.0608C 16.147 84.337 16.3708 84.5608 16.647 84.5608L 16.647 84.0608ZM 16.647 13.8631L 17.147 13.8631C 17.147 13.6796 17.0465 13.5108 16.8851 13.4234C 16.7238 13.3361 16.5275 13.3441 16.3738 13.4443L 16.647 13.8631ZM 38.8268 0C 38.8268 -0.276142 38.6029 -0.5 38.3268 -0.5C 38.0506 -0.5 37.8268 -0.276142 37.8268 0L 38.8268 0ZM 3.18524 1.43834C 3.42732 1.30549 3.51588 1.00154 3.38303 0.759455C 3.25018 0.517369 2.94623 0.428815 2.70415 0.561664L 3.18524 1.43834ZM 0.5 24.7224L 0.5 2.61595L -0.5 2.61595L -0.5 24.7224L 0.5 24.7224ZM 38.3268 83.5608L 16.647 83.5608L 16.647 84.5608L 38.3268 84.5608L 38.3268 83.5608ZM 17.147 84.0608L 17.147 13.8631L 16.147 13.8631L 16.147 84.0608L 17.147 84.0608ZM 16.3738 13.4443L -0.27318 24.3036L 0.27318 25.1412L 16.9202 14.2819L 16.3738 13.4443ZM 37.8268 0L 37.8268 84.0608L 38.8268 84.0608L 38.8268 0L 37.8268 0ZM 0.240545 3.05429L 3.18524 1.43834L 2.70415 0.561664L -0.240545 2.17762L 0.240545 3.05429Z"/>
<path id="path14_stroke" d="M 2.70997 6.27945L 2.20997 6.27945C 2.20997 6.5556 2.43383 6.77945 2.70997 6.77945L 2.70997 6.27945ZM 25.9383 85.3973L 25.9383 85.8973C 26.1175 85.8973 26.2829 85.8015 26.3721 85.6461L 25.9383 85.3973ZM 0 85.3973L -0.434835 85.1505C -0.522691 85.3053 -0.521646 85.4951 -0.432093 85.6489C -0.342539 85.8027 -0.177978 85.8973 -4.82764e-17 85.8973L 0 85.3973ZM 44.9081 6.27945L 45.343 6.52627C 45.4308 6.37149 45.4298 6.18167 45.3402 6.02787C 45.2507 5.87406 45.0861 5.77945 44.9081 5.77945L 44.9081 6.27945ZM 3.20997 0C 3.20997 -0.276142 2.98612 -0.5 2.70997 -0.5C 2.43383 -0.5 2.20997 -0.276142 2.20997 0L 3.20997 0ZM 70.1358 9.32817C 70.2732 9.08862 70.1904 8.78307 69.9508 8.6457C 69.7113 8.50833 69.4057 8.59117 69.2684 8.83072L 70.1358 9.32817ZM 25.9383 84.8973L 0 84.8973L 0 85.8973L 25.9383 85.8973L 25.9383 84.8973ZM 0.434835 85.6441L 45.343 6.52627L 44.4733 6.03264L -0.434835 85.1505L 0.434835 85.6441ZM 44.9081 5.77945L 2.70997 5.77945L 2.70997 6.77945L 44.9081 6.77945L 44.9081 5.77945ZM 3.20997 6.27945L 3.20997 0L 2.20997 0L 2.20997 6.27945L 3.20997 6.27945ZM 69.2684 8.83072L 25.5046 85.1486L 26.3721 85.6461L 70.1358 9.32817L 69.2684 8.83072Z"/>
<path id="path15_fill" fill-rule="evenodd" d="M 35.9326 0.460678C 35.9326 0.206253 36.1388 0 36.3932 0C 36.6477 0 36.8539 0.206253 36.8539 0.460678L 36.8539 80.7543C 36.5432 81.3148 36.236 81.8776 35.9326 82.4427L 35.9326 0.460678ZM 32.5129 89.24L 0.459991 89.24C 0.205963 89.24 0 89.4459 0 89.7C 0 89.954 0.205963 90.16 0.459991 90.16L 32.0844 90.16C 32.2262 89.8527 32.369 89.5461 32.5129 89.24ZM 19.4897 161.92L 0.459991 161.92C 0.205963 161.92 0 162.126 0 162.38C 0 162.634 0.205963 162.84 0.459991 162.84L 19.5686 162.84C 19.5414 162.534 19.5151 162.227 19.4897 161.92ZM 35.9326 217.557L 35.9326 235.52L 0.459991 235.52C 0.205963 235.52 0 235.726 0 235.98C 0 236.234 0.205963 236.44 0.459991 236.44L 35.9326 236.44L 35.9326 252.539C 35.9326 252.794 36.1388 253 36.3932 253C 36.6477 253 36.8539 252.794 36.8539 252.539L 36.8539 236.44L 48.0731 236.44C 47.8408 236.134 47.6096 235.828 47.3798 235.52L 36.8539 235.52L 36.8539 219.246C 36.5432 218.685 36.236 218.122 35.9326 217.557ZM 275.927 236.44L 327.54 236.44C 327.794 236.44 328 236.234 328 235.98C 328 235.726 327.794 235.52 327.54 235.52L 276.62 235.52C 276.39 235.828 276.159 236.134 275.927 236.44ZM 304.431 162.84L 327.54 162.84C 327.794 162.84 328 162.634 328 162.38C 328 162.126 327.794 161.92 327.54 161.92L 304.51 161.92C 304.485 162.227 304.459 162.534 304.431 162.84ZM 291.916 90.16L 327.54 90.16C 327.794 90.16 328 89.954 328 89.7C 328 89.4459 327.794 89.24 327.54 89.24L 291.487 89.24C 291.631 89.5461 291.774 89.8527 291.916 90.16ZM 255.213 41.552L 255.213 0.460678C 255.213 0.206253 255.007 0 254.753 0C 254.498 0 254.292 0.206253 254.292 0.460678L 254.292 40.7661C 254.6 41.0268 254.907 41.2888 255.213 41.552ZM 145.573 7.93327L 145.573 0.460678C 145.573 0.206253 145.367 0 145.112 0C 144.858 0 144.652 0.206253 144.652 0.460678L 144.652 8.04167C 144.958 8.00456 145.266 7.96843 145.573 7.93327Z"/>
<path id="path16_stroke" d="M 16.6042 46.5269C 16.4648 47.0613 16.785 47.6075 17.3194 47.7469C 17.8538 47.8863 18.4 47.5661 18.5394 47.0317L 16.6042 46.5269ZM 20.5718 35.2793L 20.5718 34.2793L 20.5132 34.2793L 20.4549 34.2862L 20.5718 35.2793ZM 24.6547 47.178C 24.8749 47.6845 25.464 47.9166 25.9705 47.6964C 26.477 47.4762 26.7091 46.8871 26.4889 46.3806L 24.6547 47.178ZM 30.5718 36.2793C 31.1241 36.2793 31.5718 35.8316 31.5718 35.2793C 31.5718 34.727 31.1241 34.2793 30.5718 34.2793L 30.5718 36.2793ZM 42.5718 28.2793C 42.5718 28.8316 43.0195 29.2793 43.5718 29.2793C 44.1241 29.2793 44.5718 28.8316 44.5718 28.2793L 42.5718 28.2793ZM 43.5718 20.2793L 42.6416 19.9121L 42.5718 20.0891L 42.5718 20.2793L 43.5718 20.2793ZM 52.4276 29.0442C 52.8501 29.4 53.4809 29.3459 53.8367 28.9234C 54.1924 28.501 54.1384 27.8701 53.7159 27.5144L 52.4276 29.0442ZM 57.0718 21.2793C 57.6241 21.2793 58.0718 20.8316 58.0718 20.2793C 58.0718 19.727 57.6241 19.2793 57.0718 19.2793L 57.0718 21.2793ZM 7.32628 23.7464C 7.86038 23.6058 8.17941 23.0589 8.03886 22.5248C 7.8983 21.9907 7.35139 21.6717 6.81729 21.8122L 7.32628 23.7464ZM 34.6231 8.46308C 34.4484 8.98702 34.7316 9.55334 35.2555 9.72799C 35.7795 9.90264 36.3458 9.61948 36.5205 9.09553L 34.6231 8.46308ZM 18.5394 47.0317L 21.5394 35.5317L 19.6042 35.0269L 16.6042 46.5269L 18.5394 47.0317ZM 19.6547 35.678L 24.6547 47.178L 26.4889 46.3806L 21.4889 34.8806L 19.6547 35.678ZM 20.5718 36.2793L 30.5718 36.2793L 30.5718 34.2793L 20.5718 34.2793L 20.5718 36.2793ZM 44.5718 28.2793L 44.5718 20.2793L 42.5718 20.2793L 42.5718 28.2793L 44.5718 28.2793ZM 42.9276 21.0442L 52.4276 29.0442L 53.7159 27.5144L 44.2159 19.5144L 42.9276 21.0442ZM 43.5718 21.2793L 57.0718 21.2793L 57.0718 19.2793L 43.5718 19.2793L 43.5718 21.2793ZM 20.4549 34.2862C 17.6573 34.6159 13.376 34.8133 9.46699 34.3366C 7.51765 34.1016 5.75935 33.7219 4.3013 33.1018C 2.86379 32.495 1.91544 31.7306 1.46621 30.8321L -0.322645 31.7265C 0.428124 33.2281 1.87144 34.247 3.52352 34.9443C 5.15505 35.6284 7.18424 36.0737 9.22657 36.3221C 13.3009 36.8119 17.8196 36.6093 20.6886 36.2725L 20.4549 34.2862ZM 1.46621 30.8321C 0.962241 29.8242 0.915456 28.9928 1.09724 28.2957C 1.28572 27.5085 1.72213 26.9109 2.41496 26.2744C 3.80421 24.9621 5.80838 24.1434 7.32628 23.7464L 6.81729 21.8122C 5.16852 22.2485 2.72269 23.2798 1.0536 24.8092C 0.217263 25.5936 -0.527574 26.6647 -0.838051 27.7911C -1.15522 29.0074 -1.01868 30.3345 -0.322645 31.7265L 1.46621 30.8321ZM 44.5019 20.6465C 45.7455 17.4956 47.771 12.8272 48.733 8.73205C 49.2111 6.68785 49.4544 4.66236 49.1229 2.99385C 48.7759 1.24678 47.7723 -0.168817 45.8294 -0.686924L 45.3141 1.24555C 46.3712 1.52744 46.9302 2.22018 47.1613 3.38352C 47.4079 4.62543 47.2449 6.31244 46.7856 8.27657C 45.8725 12.1981 43.898 16.7296 42.6416 19.9121L 44.5019 20.6465ZM 45.8294 -0.686924C 42.4168 -1.59695 39.9155 -0.428889 38.136 1.57843C 36.4263 3.50702 35.375 6.20728 34.6231 8.46308L 36.5205 9.09553C 37.2685 6.85133 38.2173 4.5016 39.6326 2.90518C 40.978 1.38751 42.7267 0.555573 45.3141 1.24555L 45.8294 -0.686924Z"/>
<path id="path17_stroke" d="M 31.781 1.88423L 31.4275 2.23778L 31.781 1.88423ZM 25.281 20.8842L 25.0133 20.462L 25.281 20.8842ZM 0.281024 20.8842L 0.755366 20.7261L 0.281024 20.8842ZM 8.05353 12.3035L 18.0535 5.80345L 17.5085 4.96501L 7.50854 11.465L 8.05353 12.3035ZM 25.5584 1.30026C 26.4834 0.683598 27.4204 0.411313 28.3659 0.525493C 29.315 0.640095 30.3421 1.15247 31.4275 2.23778L 32.1346 1.53067C 30.9395 0.33564 29.7167 -0.318652 28.4858 -0.467294C 27.2514 -0.616359 26.0787 -0.248468 25.0037 0.468207L 25.5584 1.30026ZM 0.755366 20.7261C 0.311048 19.3932 0.513022 18.4125 0.856276 17.7803C 1.0325 17.4488 1.22342 17.2364 1.43737 17.0711C 1.53681 16.992 1.60478 16.9508 1.68715 16.9156C 1.75764 16.8824 1.8044 16.8878 1.78103 16.8842L 1.78103 15.8842C 1.45108 15.8842 1.10457 16.0613 0.820313 16.2842C 0.53878 16.5075 0.214276 16.8739 -0.0225599 17.3032C -0.505425 18.1926 -0.720121 19.4619 -0.193317 21.0423L 0.755366 20.7261ZM 25.0133 20.462C 19.8203 23.7551 13.9839 25.2162 9.2974 25.0627L 9.26466 26.0621C 14.1628 26.2226 20.1957 24.7011 25.5488 21.3065L 25.0133 20.462ZM 9.2974 25.0627C 4.82449 24.9161 1.62132 23.324 0.755366 20.7261L -0.193317 21.0423C 0.882967 24.2712 4.69103 25.9123 9.26466 26.0621L 9.2974 25.0627ZM 8.78343 25.6114C 9.12249 29.0565 10.6008 33.6868 14.0383 36.1689C 17.5461 38.7017 22.8721 38.857 30.5558 33.8019L 30.0062 32.9665C 22.4899 37.9114 17.6493 37.5428 14.6237 35.3582C 11.5279 33.1228 10.1062 28.8423 9.77863 25.5134L 8.78343 25.6114ZM 31.4275 2.23778C 34.0674 4.87773 34.7951 9.71105 31.4042 14.5992L 32.2259 15.1692C 35.8424 9.95575 35.175 4.57112 32.1346 1.53067L 31.4275 2.23778ZM 31.4042 14.5992C 30.0036 16.6226 27.9441 18.6064 25.0133 20.462L 25.5488 21.3065C 28.5619 19.3927 30.765 17.2709 32.2259 15.1692L 31.4042 14.5992ZM 30.5558 33.8019C 38.1797 28.7862 40.2909 24.4779 39.4161 21.0119C 38.986 19.3078 37.8489 17.9093 36.4802 16.821C 35.1202 15.7433 33.4628 14.9227 31.9775 14.4114L 31.6526 15.3571C 33.0782 15.8458 34.5846 16.5877 35.8578 17.6037C 37.1223 18.6092 38.0878 19.8357 38.4465 21.2566C 39.1491 24.0405 37.5824 27.9822 30.0062 32.9665L 30.5558 33.8019Z"/>
<path id="path18_fill" d="M 10 5C 10 7.76142 7.76142 10 5 10C 2.23858 10 0 7.76142 0 5C 0 2.23858 2.23858 0 5 0C 7.76142 0 10 2.23858 10 5Z"/>
<path id="path19_stroke_2x" d="M 8 5C 8 6.65685 6.65685 8 5 8L 5 12C 8.86599 12 12 8.86599 12 5L 8 5ZM 5 8C 3.34315 8 2 6.65685 2 5L -2 5C -2 8.86599 1.13401 12 5 12L 5 8ZM 2 5C 2 3.34315 3.34315 2 5 2L 5 -2C 1.13401 -2 -2 1.13401 -2 5L 2 5ZM 5 2C 6.65685 2 8 3.34315 8 5L 12 5C 12 1.13401 8.86599 -2 5 -2L 5 2Z"/>
<path id="path20_stroke" d="M 25.3928 73L 25.1866 73.4555L 25.3928 73ZM 46.3928 73.5L 46.0884 73.8967L 46.0884 73.8967L 46.3928 73.5ZM 8.39281 44L 8.87951 44.1145L 8.39281 44ZM 46.6972 73.1033C 35.8701 64.8047 25.3143 61.6553 18.0301 58.4792C 14.3775 56.887 11.6298 55.3205 10.0202 53.162C 8.43933 51.0421 7.90182 48.2697 8.87951 44.1145L 7.9061 43.8855C 6.88379 48.2303 7.40878 51.3329 9.21854 53.7598C 10.9996 56.1482 13.9706 57.8005 17.6305 59.3958C 24.9713 62.5947 35.4155 65.6953 46.0884 73.8967L 46.6972 73.1033ZM 8.87951 44.1145C 9.63618 40.8987 13.029 36.9319 18.4318 32.7474C 23.8144 28.5772 31.0581 24.2881 39.368 20.383C 55.9963 12.566 76.7202 6.36794 94.9031 5.9999L 94.8826 5.0001C 76.5654 5.38 55.6394 11.6319 38.9426 19.478C 30.5901 23.4044 23.2524 27.7501 17.8195 31.9568C 12.4066 36.1491 8.74943 40.3013 7.9061 43.8855L 8.87951 44.1145ZM 25.5991 72.5445C 12.326 66.5341 5.50532 62.3074 2.49193 57.8065C -0.472389 53.3789 0.198779 48.5938 2.3728 41.14L 1.4128 40.86C -0.756791 48.2986 -1.58562 53.5136 1.66097 58.3628C 4.85848 63.1388 11.9596 67.4659 25.1866 73.4555L 25.5991 72.5445ZM 2.3728 41.14C 3.4086 37.5887 7.35703 33.2498 13.4232 28.7114C 19.4698 24.1866 27.4921 19.5534 36.544 15.3692C 54.6521 6.99759 76.7418 0.5 94.8928 0.5L 94.8928 -0.5C 76.5438 -0.5 54.3054 6.0562 36.1244 14.4615C 27.0317 18.6657 18.9192 23.3518 12.8242 27.9107C 6.7488 32.4559 2.54882 36.9651 1.4128 40.86L 2.3728 41.14ZM 25.1866 73.4555C 41.9434 81.0435 49.0861 98.7971 50.2959 114.04L 51.2927 113.96C 50.0685 98.5357 42.8251 80.345 25.5991 72.5445L 25.1866 73.4555ZM 68.472 113.907C 65.6619 99.0148 57.7545 81.5892 46.6972 73.1033L 46.0884 73.8967C 56.8696 82.1706 64.7015 99.3182 67.4894 114.093L 68.472 113.907Z"/>
<path id="path21_stroke" d="M 18.8487 14.7007L 18.3744 14.8589L 19.3478 14.6695L 18.8487 14.7007ZM 44.3487 14.7007L 44.3487 15.2007L 44.9586 15.2007L 44.839 14.6027L 44.3487 14.7007ZM 66.8487 14.7007L 66.3543 14.6266L 67.2614 14.9831L 66.8487 14.7007ZM 84.8487 20.2007L 84.448 20.4997L 85.2721 19.9348L 84.8487 20.2007ZM 102.127 20.2007L 101.784 20.5645L 102.577 19.9834L 102.127 20.2007ZM 118.972 14.7007L 118.608 15.0436L 119.574 16.0686L 119.471 14.6642L 118.972 14.7007ZM 131.282 10.7007L 130.793 10.8023L 131.768 10.818L 131.282 10.7007ZM 155.849 12.2007L 155.352 12.2544L 156.327 12.347L 155.849 12.2007ZM 168.645 14.7007L 168.282 15.0452L 168.804 15.5938L 169.104 14.899L 168.645 14.7007ZM 184.194 14.7007L 183.694 14.7007L 183.694 15.7182L 184.5 15.0966L 184.194 14.7007ZM 0.836299 14.5899C 0.430349 12.8037 0.274141 10.2167 1.05251 8.20626C 1.44081 7.19241 2.00639 6.39031 2.93764 5.83767C 3.83409 5.29417 5.07556 5.0068 6.79352 5.19768L 6.90395 4.2038C 5.02191 3.99468 3.54671 4.29897 2.4192 4.98256C 1.32649 5.657 0.560827 6.7174 0.119959 7.84522C -0.760008 10.1181 -0.566216 12.9311 -0.138833 14.8115L 0.836299 14.5899ZM 6.79352 5.19768C 13.7156 5.9668 17.4039 11.9473 18.3744 14.8589L 19.3231 14.5426C 18.2936 11.4542 14.3819 5.03468 6.90395 4.2038L 6.79352 5.19768ZM 19.3478 14.6695C 19.2677 13.3886 19.5458 11.7732 20.485 10.859C 21.3557 10.0115 23.0052 9.58799 26.1251 11.1479L 26.5723 10.2535C 23.2922 8.61346 21.1084 8.85667 19.7875 10.1424C 18.535 11.3616 18.2631 13.3462 18.3497 14.7319L 19.3478 14.6695ZM 26.1251 11.1479C 32.6105 14.3813 40.9913 15.2002 44.3487 15.2007L 44.3487 14.2007C 41.0395 14.2013 32.8869 13.4202 26.5723 10.2535L 26.1251 11.1479ZM 44.839 14.6027C 44.5259 13.0372 44.6714 10.6901 46.1014 8.74712C 47.5151 6.82638 50.2593 5.20074 55.3487 5.20074L 55.3487 4.20074C 50.0382 4.20074 46.9491 5.90843 45.2961 8.15436C 43.6594 10.378 43.5049 13.0309 43.8584 14.7988L 44.839 14.6027ZM 55.3487 5.20074C 60.4368 5.20074 63.2734 6.8262 64.7931 8.75972C 66.3281 10.7126 66.5884 13.0655 66.3543 14.6266L 67.3432 14.7749C 67.609 13.0026 67.3194 10.3555 65.5793 8.14176C 63.8241 5.90861 60.6607 4.20074 55.3487 4.20074L 55.3487 5.20074ZM 67.2614 14.9831C 68.1553 13.675 69.6739 11.9537 71.43 10.9321C 72.3 10.4201 73.145 10.1091 74.0289 10.1007C 74.8674 10.0862 75.7121 10.3564 76.5276 11.0757L 77.1891 10.3257C 76.1905 9.44503 75.105 9.08193 74.0117 9.1008C 72.9637 9.12568 71.8753 9.51473 70.9245 10.0693C 69.0391 11.1811 67.3669 13.0598 66.4361 14.4184L 67.2614 14.9831ZM 76.5276 11.0757C 80.1159 14.2363 83.2822 18.6464 84.4253 20.4667L 85.2721 19.9348C 84.112 18.0884 80.8573 13.5652 77.1891 10.3257L 76.5276 11.0757ZM 85.2495 19.9018C 84.5858 19.012 84.0742 17.8055 84.3219 16.8944C 84.5381 16.0989 85.4603 15.2007 88.5206 15.2007L 88.5206 14.2007C 85.3611 14.2007 83.7635 15.1359 83.3569 16.6321C 82.9816 18.0126 83.7441 19.5561 84.448 20.4997L 85.2495 19.9018ZM 88.5206 15.2007C 94.567 15.2007 99.8926 18.7809 101.784 20.5645L 102.47 19.837C 100.473 17.9539 94.9141 14.2007 88.5206 14.2007L 88.5206 15.2007ZM 102.577 19.9834C 102.033 18.8611 101.571 17.1425 101.916 15.4204C 102.235 13.7648 103.308 12.114 105.965 11.172L 105.631 10.2295C 102.647 11.2875 101.322 13.22 100.934 15.231C 100.571 17.1756 101.094 19.207 101.676 20.4181L 102.577 19.9834ZM 105.965 11.172C 108.663 10.1988 111.263 10.6396 113.541 11.5993C 115.813 12.5475 117.613 13.9853 118.608 15.0436L 119.336 14.3579C 118.29 13.2495 116.323 11.6873 113.928 10.6772C 111.54 9.67857 108.574 9.2027 105.631 10.2295L 105.965 11.172ZM 119.471 14.6642C 119.368 13.2827 119.498 11.2774 120.241 9.58764C 120.958 7.93957 122.206 6.70073 124.349 6.70073L 124.349 5.70073C 121.692 5.70073 120.148 7.29522 119.324 9.18883C 118.527 11.0407 118.368 13.2854 118.473 14.7373L 119.471 14.6642ZM 124.349 6.70073C 128.89 6.70073 130.525 9.51284 130.793 10.8023L 131.772 10.5992C 131.417 8.88862 129.407 5.70073 124.349 5.70073L 124.349 6.70073ZM 131.768 10.818C 132.321 8.52133 133.617 5.34057 135.791 3.09763C 136.869 1.97426 138.091 1.13405 139.578 0.739684C 141.031 0.347517 142.717 0.401219 144.666 1.16616L 145.031 0.235304C 142.904 -0.599764 140.998 -0.679397 139.318 -0.225732C 137.673 0.225738 136.224 1.21052 135.07 2.40382C 132.78 4.79421 131.369 8.21346 130.796 10.5835L 131.768 10.818ZM 144.666 1.16616C 152.655 4.30197 155.103 9.94966 155.352 12.2544L 156.346 12.147C 156.055 9.45179 153.347 3.49951 145.031 0.235304L 144.666 1.16616ZM 156.327 12.347C 156.533 11.6717 157.768 10.0413 161.367 11.1775L 161.668 10.2239C 157.665 8.96013 155.776 10.7297 155.371 12.0544L 156.327 12.347ZM 161.367 11.1775C 165.091 12.3531 167.551 14.2757 168.282 15.0452L 169.007 14.3563C 168.155 13.4591 165.547 11.4483 161.668 10.2239L 161.367 11.1775ZM 169.104 14.899C 169.587 13.7796 171.918 11.2007 177.283 11.2007L 177.283 10.2007C 171.591 10.2007 168.854 12.9552 168.186 14.5025L 169.104 14.899ZM 177.283 11.2007C 182.644 11.2007 183.694 13.7399 183.694 14.7007L 184.694 14.7007C 184.694 12.9949 182.981 10.2007 177.283 10.2007L 177.283 11.2007ZM 184.5 15.0966C 185.561 14.2772 187.276 13.1913 189.062 12.5457C 190.874 11.8879 192.532 11.7665 193.608 12.5965L 194.219 11.8049C 192.702 10.6349 190.581 10.9302 188.721 11.6057C 186.836 12.2934 184.988 13.4576 183.889 14.3049L 184.5 15.0966Z"/>
<path id="path22_stroke" d="M 0 0L 3 0L 3 -1L 0 -1L 0 0Z"/>
<path id="path23_stroke" d="M 0 0L 5 0L 5 -1L 0 -1L 0 0Z"/>
<path id="path24_stroke" d="M 0 0L 2 0L 2 -1L 0 -1L 0 0Z"/>
<path id="path25_stroke" d="M 0 0L 4 0L 4 -1L 0 -1L 0 0Z"/>
<path id="path26_fill" d="M 0 0L 1 0L 1 1L 0 1L 0 0Z"/>
<path id="path27_fill" d="M 0 0L 1 0L 1 2L 0 2L 0 0Z"/>
<path id="path28_fill" d="M 0 0L 2 0L 2 1L 0 1L 0 0Z"/>
<path id="path29_fill" d="M 0 0L 1 0L 1 4L 0 4L 0 0Z"/>
</defs>
</svg>
