<?xml version="1.0" encoding="UTF-8" standalone="no"?>
<svg width="249px" height="463px" viewBox="0 0 249 463" version="1.1" xmlns="http://www.w3.org/2000/svg" xmlns:xlink="http://www.w3.org/1999/xlink">
    <!-- Generator: Sketch 40.2 (33826) - http://www.bohemiancoding.com/sketch -->
    <title>Canvas</title>
    <desc>Created with Sketch.</desc>
    <defs>
        <polygon id="path-1" points="0 0 480 0 480 480 0 480"></polygon>
    </defs>
    <g id="Page-1" stroke="none" stroke-width="1" fill="none" fill-rule="evenodd">
        <g id="iPhone-7-Copy-3" transform="translate(-126.000000, -113.000000)">
            <g id="Group-4" transform="translate(-15.000000, 0.000000)">
                <g id="episode4" transform="translate(7.000000, 96.000000)">
                    <g id="Canvas">
                        <g id="episode4-Clipped">
                            <mask id="mask-2" fill="white">
                                <use xlink:href="#path-1"></use>
                            </mask>
                            <g id="Shape"></g>
                            <g id="episode4" mask="url(#mask-2)">
                                <g transform="translate(134.400000, 16.320000)">
                                    <g id="Vector-27" transform="translate(0.000000, 285.120000)">
                                        <g id="path0_stroke-link" fill="#FFFFFF">
                                            <path d="M0.49331136,0.918311136 C-0.2862624,18.857856 -0.3636672,47.669952 1.9366368,75.726432 C4.2332832,103.728 8.9122752,131.21568 17.759328,146.40288 L19.418304,145.43712 C10.817376,130.67232 6.149232,103.60032 3.8502048,75.569568 C1.55483424,47.594016 1.63322304,18.902112 2.4115008,1.00168886 L0.49331136,0.918311136 L0.49331136,0.918311136 Z M17.759328,146.40288 C35.34432,176.59008 63.538368,192.52608 75.521184,196.74528 L76.158816,194.93472 C64.514208,190.8336 36.729312,175.15392 19.418304,145.43712 L17.759328,146.40288 L17.759328,146.40288 Z" id="path0_stroke"></path>
                                        </g>
                                    </g>
                                    <g id="Vector-27" transform="translate(97.920000, 285.120000)">
                                        <g id="path1_stroke-link" fill="#FFFFFF">
                                            <path d="M0.60093312,0.911850144 C-0.348624,19.82544 -0.4428384,50.204832 2.3590944,79.785696 C5.156784,109.30944 10.857696,138.29856 21.63456,154.31136 L23.227392,153.23904 C12.753504,137.67648 7.0701216,109.14912 4.2705312,79.604544 C1.47516096,50.117184 1.5706896,19.876608 2.518512,1.00814986 L0.60093312,0.911850144 L0.60093312,0.911850144 Z M21.63456,154.31136 C43.042752,186.12 77.348064,202.88928 91.88016,207.31872 L92.43984,205.48128 C78.19488,201.14016 44.320704,184.58016 23.227392,153.23904 L21.63456,154.31136 L21.63456,154.31136 Z" id="path1_stroke"></path>
                                        </g>
                                    </g>
                                    <g id="Vector-27" transform="translate(199.680000, 284.160000)">
                                        <g id="path2_stroke-link" transform="translate(0.731040, 0.480000)" fill="#FFFFFF">
                                            <path d="M0.23033184,0.908645088 C-0.7310016,18.888672 1.34032704,47.750688 6.33984,75.816384 C11.333376,103.84128 19.279968,131.31264 30.169152,146.47968 L31.728768,145.36032 C21.113856,130.57536 13.220544,103.48704 8.2300704,75.479616 C3.2455872,47.51328 1.18891776,18.871296 2.1475776,1.01135491 L0.23033184,0.908645088 L0.23033184,0.908645088 Z M30.169152,146.47968 C51.775008,176.57376 77.80032,192.5328 92.605248,196.76352 L93.132672,194.91648 C78.817536,190.82688 53.130912,175.17024 31.728768,145.36032 L30.169152,146.47968 L30.169152,146.47968 Z" id="path2_stroke"></path>
                                        </g>
                                    </g>
                                    <g id="Vector-27" transform="translate(147.840000, 440.640000)">
                                        <g id="path3_stroke-link" fill="#FFFFFF">
                                            <path d="M0.4716192,1.78648896 C11.289024,8.1785856 27.937344,12.528672 51.753216,1.8357792 L50.966784,0.0842208 C27.742752,10.5113664 11.750976,6.2214048 1.4483808,0.13351104 L0.4716192,1.78648896 L0.4716192,1.78648896 Z" id="path3_stroke"></path>
                                        </g>
                                    </g>
                                    <g id="Vector-27" transform="translate(155.520000, 450.240000)">
                                        <g id="path3_stroke-link" transform="translate(0.000000, 0.000000)" fill="#FFFFFF">
                                            <path d="M0.4716192,1.78648896 C11.289024,8.1785856 27.937344,12.528672 51.753216,1.8357792 L50.966784,0.0842208 C27.742752,10.5113664 11.750976,6.2214048 1.4483808,0.13351104 L0.4716192,1.78648896 L0.4716192,1.78648896 Z" id="path3_stroke"></path>
                                        </g>
                                    </g>
                                    <g id="Vector-27" transform="translate(42.240000, 440.640000)">
                                        <g id="path3_stroke-link" fill="#FFFFFF">
                                            <path d="M0.4716192,1.78648896 C11.289024,8.1785856 27.937344,12.528672 51.753216,1.8357792 L50.966784,0.0842208 C27.742752,10.5113664 11.750976,6.2214048 1.4483808,0.13351104 L0.4716192,1.78648896 L0.4716192,1.78648896 Z" id="path3_stroke"></path>
                                        </g>
                                    </g>
                                    <g id="Vector-27" transform="translate(128.640000, 363.840000)">
                                        <g id="path3_stroke-link" fill="#FFFFFF">
                                            <path d="M0.4716192,1.78648896 C11.289024,8.1785856 27.937344,12.528672 51.753216,1.8357792 L50.966784,0.0842208 C27.742752,10.5113664 11.750976,6.2214048 1.4483808,0.13351104 L0.4716192,1.78648896 L0.4716192,1.78648896 Z" id="path3_stroke"></path>
                                        </g>
                                    </g>
                                    <g id="Vector-27" transform="translate(23.040000, 363.840000)">
                                        <g id="path3_stroke-link" fill="#FFFFFF">
                                            <path d="M0.4716192,1.78648896 C11.289024,8.1785856 27.937344,12.528672 51.753216,1.8357792 L50.966784,0.0842208 C27.742752,10.5113664 11.750976,6.2214048 1.4483808,0.13351104 L0.4716192,1.78648896 L0.4716192,1.78648896 Z" id="path3_stroke"></path>
                                        </g>
                                    </g>
                                    <g id="Vector-27" transform="translate(49.920000, 450.240000)">
                                        <g id="path3_stroke-link" transform="translate(0.000000, 0.000000)" fill="#FFFFFF">
                                            <path d="M0.4716192,1.78648896 C11.289024,8.1785856 27.937344,12.528672 51.753216,1.8357792 L50.966784,0.0842208 C27.742752,10.5113664 11.750976,6.2214048 1.4483808,0.13351104 L0.4716192,1.78648896 L0.4716192,1.78648896 Z" id="path3_stroke"></path>
                                        </g>
                                    </g>
                                    <g id="Vector-28" transform="translate(24.960000, -0.000000)">
                                        <g id="path4_stroke-link" transform="translate(0.480000, 0.480000)" fill="#FFFFFF">
                                            <path d="M81.12,30.72 L82.07856,30.771648 L82.228512,27.992448 L80.39712,30.08832 L81.12,30.72 L81.12,30.72 Z M37.92,80.16 L37.19712,79.52832 L35.94624,80.959872 L37.8408,81.116736 L37.92,80.16 L37.92,80.16 Z M86.4,1.92 L86.857824,1.0762224 L86.445312,0.852336 L86.015232,1.04048928 L86.4,1.92 L86.4,1.92 Z M9.6,35.52 L9.2152128,34.640448 L8.7010176,34.865472 L8.6448192,35.423904 L9.6,35.52 L9.6,35.52 Z M1.92,111.84 L0.964824,111.744 L0.908256,112.3056 L1.37222784,112.62816 L1.92,111.84 L1.92,111.84 Z M75.84,163.2 L75.292224,163.98816 L75.845376,164.37312 L76.395072,163.98336 L75.84,163.2 L75.84,163.2 Z M148.32,111.84 L148.87488,112.62336 L149.28,112.33632 L149.28,111.84 L148.32,111.84 L148.32,111.84 Z M148.32,35.52 L149.28,35.52 L149.28,34.948704 L148.77792,34.676256 L148.32,35.52 L148.32,35.52 Z M76.79856,128.69184 L82.07856,30.771648 L80.16144,30.668352 L74.88144,128.58816 L76.79856,128.69184 L76.79856,128.69184 Z M80.39712,30.08832 L37.19712,79.52832 L38.64288,80.79168 L81.84288,31.35168 L80.39712,30.08832 L80.39712,30.08832 Z M37.8408,81.116736 L113.20032,87.356736 L113.35968,85.443264 L37.9992,79.203264 L37.8408,81.116736 L37.8408,81.116736 Z M86.015232,1.04048928 L9.2152128,34.640448 L9.9847872,36.399552 L86.784768,2.79951072 L86.015232,1.04048928 L86.015232,1.04048928 Z M8.6448192,35.423904 L0.964824,111.744 L2.875176,111.936 L10.5551808,35.616096 L8.6448192,35.423904 L8.6448192,35.423904 Z M1.37222784,112.62816 L75.292224,163.98816 L76.387776,162.41184 L2.46777216,111.05184 L1.37222784,112.62816 L1.37222784,112.62816 Z M76.395072,163.98336 L148.87488,112.62336 L147.76512,111.05664 L75.284928,162.41664 L76.395072,163.98336 L76.395072,163.98336 Z M149.28,111.84 L149.28,35.52 L147.36,35.52 L147.36,111.84 L149.28,111.84 L149.28,111.84 Z M148.77792,34.676256 L86.857824,1.0762224 L85.942176,2.7637776 L147.86208,36.363744 L148.77792,34.676256 L148.77792,34.676256 Z" id="path4_stroke"></path>
                                        </g>
                                    </g>
                                </g>
                            </g>
                        </g>
                    </g>
                </g>
            </g>
        </g>
    </g>
</svg>