<?xml version="1.0" encoding="utf-8"?>
<!-- Generator: Adobe Illustrator 19.1.0, SVG Export Plug-In . SVG Version: 6.00 Build 0)  -->
<svg version="1.1" id="Ebene_1" xmlns="http://www.w3.org/2000/svg" xmlns:xlink="http://www.w3.org/1999/xlink" x="0px" y="0px"
	 viewBox="-277 398.9 40 45" style="enable-background:new -277 398.9 40 45;" xml:space="preserve">
<style type="text/css">
	.st0{fill:#FFFFFF;}
</style>
<g id="Dennis">
	<g id="Path-6" transform="translate(0.476190, 0.481771)">
		<g id="path-1-link">
			<polygon id="path-1" points="-258.7,433.6 -260.6,433.1 -262,431.7 -263.4,431.7 -267.2,427.8 -267.7,426.4 -269.1,426.4 
				-272,423 -272,418.7 -267.7,419.2 -267.7,415.8 -269.1,415.8 -272,412.9 -272,411.5 -270.1,410.5 -270.1,407.1 -268.7,405.7 
				-268.7,404.2 -265.8,404.2 -263,401.3 -261.5,401.3 -260.1,402.8 -259.1,401.3 -258.7,399.9 -257.2,399.9 -255.8,402.8 
				-254.9,402.8 -253,401.8 -251.5,401.8 -251.5,404.2 -250.1,404.2 -248.7,403.3 -247.2,402.8 -245.8,404.2 -245.8,405.7 
				-244.4,408.6 -244.9,410.5 -243,411.9 -244.4,413.4 -244.4,414.8 -245.8,415.8 -247.2,416.8 -247.2,418.7 -243,418.7 -243,423.5 
				-246.8,426.4 -250.1,430.7 -252,432.2 -254.9,433.1 			"/>
		</g>
		<g id="path-1-link_1_">
			<polygon id="path-1_1_" class="st0" points="-258.7,433.6 -260.6,433.1 -262,431.7 -263.4,431.7 -267.2,427.8 -267.7,426.4 
				-269.1,426.4 -272,423 -272,418.7 -267.7,419.2 -267.7,415.8 -269.1,415.8 -272,412.9 -272,411.5 -270.1,410.5 -270.1,407.1 
				-268.7,405.7 -268.7,404.2 -265.8,404.2 -263,401.3 -261.5,401.3 -260.1,402.8 -259.1,401.3 -258.7,399.9 -257.2,399.9 
				-255.8,402.8 -254.9,402.8 -253,401.8 -251.5,401.8 -251.5,404.2 -250.1,404.2 -248.7,403.3 -247.2,402.8 -245.8,404.2 
				-245.8,405.7 -244.4,408.6 -244.9,410.5 -243,411.9 -244.4,413.4 -244.4,414.8 -245.8,415.8 -247.2,416.8 -247.2,418.7 
				-243,418.7 -243,423.5 -246.8,426.4 -250.1,430.7 -252,432.2 -254.9,433.1 			"/>
		</g>
	</g>
	<rect id="Rectangle-11" x="-267.7" y="412.9" width="1.4" height="15.9"/>
	<rect id="Rectangle-11_1_" x="-266.3" y="428.8" width="1.4" height="1.4"/>
	<rect id="Rectangle-11_2_" x="-257.7" y="423.5" width="1.4" height="1.4"/>
	<rect id="Rectangle-11_3_" x="-259.1" y="429.8" width="4.3" height="1.4"/>
	<rect id="Rectangle-11_4_" x="-260.6" y="428.3" width="1.4" height="1.4"/>
	<rect id="Rectangle-11_5_" x="-254.9" y="428.3" width="1.4" height="1.4"/>
	<rect id="AugeLinks" x="-261.5" y="419.6" width="1.4" height="2.9"/>
	<rect id="AugeLinks_1_" x="-269.1" y="415.8" width="1.4" height="1.4"/>
	<rect id="AugeLinks_2_" x="-246.3" y="415.8" width="1.4" height="1.4"/>
	<rect id="AugeLinks_3_" x="-243.4" y="411.5" width="1.4" height="1.4"/>
	<rect id="AugeLinks_4_" x="-270.6" y="414.3" width="1.4" height="1.4"/>
	<rect id="AugeLinks_5_" x="-269.1" y="405.7" width="1.4" height="1.4"/>
	<rect id="AugeLinks_6_" x="-270.6" y="407.1" width="1.4" height="4.3"/>
	<rect id="AugeLinks_7_" x="-272" y="411.5" width="1.4" height="2.9"/>
	<rect id="AugeLinks_8_" x="-269.1" y="404.2" width="4.3" height="1.4"/>
	<rect id="AugeLinks_9_" x="-264.9" y="405.7" width="1.4" height="2.9"/>
	<rect id="AugeLinks_10_" x="-263.4" y="404.2" width="1.4" height="1.4"/>
	<rect id="AugeLinks_11_" x="-260.6" y="402.8" width="1.4" height="1.4"/>
	<rect id="AugeLinks_12_" x="-257.7" y="405.7" width="1.4" height="1.4"/>
	<rect id="AugeLinks_13_" x="-256.3" y="407.1" width="1.4" height="1.4"/>
	<rect id="AugeLinks_14_" x="-253.4" y="410" width="1.4" height="1.4"/>
	<rect id="AugeLinks_15_" x="-247.7" y="407.1" width="1.4" height="1.4"/>
	<rect id="AugeLinks_16_" x="-249.1" y="407.1" width="1.4" height="1.4"/>
	<rect id="AugeLinks_17_" x="-267.7" y="407.1" width="1.4" height="1.4"/>
	<rect id="AugeLinks_18_" x="-269.1" y="411.5" width="1.4" height="1.4"/>
	<rect id="AugeLinks_19_" x="-249.1" y="410" width="1.4" height="1.4"/>
	<rect id="AugeLinks_20_" x="-259.1" y="410" width="1.4" height="1.4"/>
	<rect id="AugeLinks_21_" x="-260.6" y="408.6" width="1.4" height="1.4"/>
	<rect id="AugeLinks_22_" x="-254.9" y="402.8" width="1.4" height="1.4"/>
	<rect id="AugeLinks_23_" x="-252" y="402.8" width="1.4" height="2.9"/>
	<rect id="AugeLinks_24_" x="-250.6" y="404.2" width="1.4" height="1.4"/>
	<rect id="AugeLinks_25_" x="-246.3" y="404.2" width="1.4" height="2.9"/>
	<rect id="AugeLinks_26_" x="-244.9" y="407.1" width="1.4" height="4.3"/>
	<rect id="AugeLinks_27_" x="-244.9" y="412.9" width="1.4" height="2.9"/>
	<rect id="AugeLinks_28_" x="-249.1" y="402.8" width="2.9" height="1.4"/>
	<rect id="AugeLinks_29_" x="-253.4" y="401.3" width="2.9" height="1.4"/>
	<rect id="AugeLinks_30_" x="-257.7" y="399.9" width="1.4" height="1.4"/>
	<rect id="AugeLinks_31_" x="-256.3" y="401.3" width="1.4" height="4.3"/>
	<rect id="AugeLinks_32_" x="-259.1" y="399.9" width="1.4" height="2.9"/>
	<rect id="AugeLinks_33_" x="-264.9" y="402.8" width="1.4" height="1.4"/>
	<rect id="AugeLinks_34_" x="-263.4" y="401.3" width="2.9" height="1.4"/>
	<rect id="AugeLinks_35_" x="-250.6" y="412.9" width="1.4" height="1.4"/>
	<rect id="AugeLinks_36_" x="-249.1" y="414.3" width="1.4" height="1.4"/>
	<rect id="AugeLinks_37_" x="-259.1" y="411.5" width="4.3" height="1.4"/>
	<rect id="AugeLinks_38_" x="-253.4" y="411.5" width="4.3" height="1.4"/>
	<rect id="AugeLinks_39_" x="-263.4" y="412.9" width="4.3" height="1.4"/>
	<rect id="AugeLinks_40_" x="-264.9" y="411.5" width="1.4" height="1.4"/>
	<rect id="AugeLinks_41_" x="-254.9" y="412.9" width="1.4" height="1.4"/>
	<rect id="AugeLinks_42_" x="-266.3" y="412.9" width="1.4" height="1.4"/>
	<rect id="AugeLinks_43_" x="-270.6" y="424.5" width="1.4" height="1.4"/>
	<rect id="AugeLinks_44_" x="-269.1" y="425.9" width="1.4" height="1.4"/>
	<rect id="AugeLinks_45_" x="-270.6" y="418.7" width="2.9" height="1.4"/>
	<rect id="AugeLinks_46_" x="-272" y="418.7" width="1.4" height="5.8"/>
	<rect id="AugeLinks_47_" x="-244.9" y="424.5" width="1.4" height="1.4"/>
	<rect id="AugeLinks_48_" x="-246.3" y="425.9" width="1.4" height="1.4"/>
	<rect id="AugeLinks_49_" x="-246.3" y="418.7" width="2.9" height="1.4"/>
	<rect id="AugeLinks_50_" x="-243.4" y="418.7" width="1.4" height="5.8"/>
	<rect id="AugeRechts" x="-253.4" y="419.6" width="1.4" height="2.9"/>
	<rect id="Rectangle-11_6_" x="-264.9" y="430.2" width="1.4" height="1.4"/>
	<rect id="Rectangle-11_7_" x="-263.4" y="426.4" width="2.9" height="1.4"/>
	<rect id="Rectangle-11_8_" x="-260.6" y="424.9" width="2.9" height="1.4"/>
	<rect id="Rectangle-11_9_" x="-256.3" y="424.9" width="2.9" height="1.4"/>
	<rect id="Rectangle-11_10_" x="-253.4" y="426.4" width="2.9" height="1.4"/>
	<rect id="Rectangle-11_11_" x="-250.6" y="424.9" width="2.9" height="1.4"/>
	<rect id="Rectangle-11_12_" x="-249.1" y="428.8" width="1.4" height="1.4"/>
	<rect id="Rectangle-11_13_" x="-250.6" y="430.2" width="1.4" height="1.4"/>
	<rect id="Rectangle-11_14_" x="-260.6" y="433.1" width="7.1" height="1.4"/>
	<rect id="Rectangle-11_15_" x="-263.4" y="431.7" width="2.9" height="1.4"/>
	<rect id="Rectangle-11_16_" x="-266.3" y="424.9" width="2.9" height="1.4"/>
	<rect id="Rectangle-11_17_" x="-253.4" y="431.7" width="2.9" height="1.4"/>
	<rect id="Rectangle-11_18_" x="-247.7" y="414.3" width="1.4" height="14.5"/>
</g>
</svg>
