<?xml version="1.0" encoding="UTF-8"?>
<svg width="23px" height="23px" viewBox="0 0 23 23" version="1.1" xmlns="http://www.w3.org/2000/svg" xmlns:xlink="http://www.w3.org/1999/xlink">
    <g id="Page-1" stroke="none" stroke-width="1" fill="none" fill-rule="evenodd">
        <g id="icn_rss" fill="#000000">
            <path d="M4.4516129,21 C5.80560132,21 6.90322581,19.9023755 6.90322581,18.5483871 C6.90322581,17.1943987 5.80560132,16.0967742 4.4516129,16.0967742 C3.09762448,16.0967742 2,17.1943987 2,18.5483871 C2,19.9023755 3.09762448,21 4.4516129,21 Z M2,11.6008638 L2,8.33333333 C8.99560683,8.33333333 14.6666667,14.0043932 14.6666667,21 L11.3977316,21 C11.3978495,15.8097111 7.19028894,11.6021505 2,11.6021505 L2,11.6008638 Z M17.7329521,21 L21,21 C21,10.5065898 12.4934102,2 2,2 L2,5.2688172 C10.6880924,5.2688172 17.7311828,12.3119076 17.7311828,21 L17.7329521,21 Z" id="rss"></path>
        </g>
    </g>
</svg>